<svg xmlns="http://www.w3.org/2000/svg" xml:space="preserve" style="enable-background:new 0 0 980 980" viewBox="0 0 980 980"><path d="M287.5 576c43.3 91.4 144 135.8 238 110.8 87.7-23.3 149.8-103.3 150.8-194.6 1-91.9-59.2-172.6-148.1-198.1-95.9-27.5-199.2 19.5-241 109.9 18.8-44.4 48.5-79.7 89.5-105.4 41.1-25.8 86.1-36.9 134.5-33.3 115.3 8.6 204.7 102.7 208.4 217.3 3.7 113.4-76.8 210.3-185.8 229.2C413.9 732.7 319.4 657 287.5 576z"/><path d="M445.1 478.5c-7.9 16.3-15.2 31.2-22.4 46.2-2.4 4.9-4.7 9.9-7.5 14.7-3.1 5.4-7.4 9.8-14.3 8.9-7-.9-11.3-5.7-13.3-12.1-1.8-5.7-2.8-11.6-4.1-17.5-6-27.2-11.9-54.3-17.8-81.5-.3-1.6-.5-3.2-.9-5.5 9.5.1 18.6 0 27.7.4 1.1 0 2.6 2.6 2.9 4.2 3.3 17.3 6.5 34.7 9.7 52.1.1.8.4 1.5 1 3.5 2.1-4.1 3.7-7.3 5.3-10.4 6.9-13.9 13.4-27.9 20.6-41.6 6-11.4 18.9-11.7 26.2-.9 1 1.5 1.8 3.2 2.6 4.8 6.8 14.5 13.6 28.9 20.5 43.4.7 1.5 1.5 2.9 2.9 5.5 2.1-10.8 4.1-20.3 6-29.9 1.7-8.7 3.6-17.3 5.1-26 .5-3.1 1.8-4.2 4.9-4.1 8.5.2 16.9.2 26.1.3-1.5 6.8-2.9 13.1-4.3 19.3-6.4 27.2-12.8 54.5-19.2 81.7-.4 1.8-1 3.6-1.7 5.2-2.7 5.6-7 9.5-13.4 9.9-6 .4-10.3-3.1-12.8-8-6-11.7-11.5-23.7-17.1-35.5-4.2-8.7-8.1-17.3-12.7-27.1zm90 68.5c6-10.1 11.4-19.2 17.1-28.1.7-1.1 3.2-1.5 4.8-1.5 19.2-.1 38.3 0 57.5-.2 3.4 0 7-.8 10-2.4 1.9-1 3.7-4.2 3.6-6.3-.1-2.1-2.3-4.9-4.3-5.9-2.5-1.3-5.8-1.6-8.7-1.6-15-.2-30 .1-45-.2-27.2-.5-43.3-26.7-31-50.5 6.2-11.9 16.8-17.6 29.8-17.9 25.3-.5 50.7-.2 76-.2h6.3c-.8 1.8-1.3 3.1-2 4.2-4.3 7.3-8.8 14.5-13 21.9-1.6 2.9-3.6 3.7-6.8 3.7-18.2-.1-36.3-.1-54.5-.1-1.5 0-3.3-.5-4.4.2-1.7 1.1-4 3-4 4.5s2.6 4 4.2 4.1c7 .5 14 .2 21 .3 10.3.1 20.7-.4 30.9.7 19.8 2.2 32.5 18.4 31.7 39.4-.8 19.9-15.1 34.9-34.9 35.5-19.6.6-39.3.2-59 .2-7.9.3-15.9.2-25.3.2zM356.4 432.6c-5.8 9.8-11.1 19-16.8 28-.7 1.1-3.2 1.4-4.9 1.4-13.7.1-27.3.1-41 .1h-5.6v11.8h64.1c-1.7 2.9-2.8 5-4 7.1-3.9 6.6-7.7 13.3-11.9 19.6-1 1.6-3.5 3-5.4 3-12.3.3-24.7.1-37 .1h-5.8v42.8h-27.5V432.6h95.8z"/></svg>