<svg xmlns="http://www.w3.org/2000/svg" xml:space="preserve" style="enable-background:new 0 0 3710 3710" version="1.0" viewBox="0 0 3710 3710"><style>.st0{fill:#fff}.st6{fill:#ff7300}.st7{fill:#4c51c6}.st21{fill:#fd830d}</style><path id="Background" d="M0 0h3710v3710H0z" class="st0"/><g id="Illustration"><linearGradient id="SVGID_1_" x1="3588.721" x2="1115.368" y1="4063.538" y2="991.789" gradientUnits="userSpaceOnUse"><stop offset="0" style="stop-color:#dae3fe"/><stop offset="1" style="stop-color:#e9effd"/></linearGradient><path d="M2913.6 2848.4c-57.1 59.6-111.1 98-153.8 128.4-501.8 357-1095.6 252.9-1221.8 227.5-186.4-37.5-546.6-110.1-807-413.7-394-459.4-332.7-1183.2-27-1660.9 55.9-87.4 351.2-572.4 951.4-650.2 363.2-47.1 786.6 47.9 1093.2 302.6 643.6 534.6 597.8 1614.6 165 2066.3z" style="fill:url(#SVGID_1_)"/><linearGradient id="SVGID_00000077322741490172883860000012478228509455328640_" x1="1278.108" x2="3690.275" y1="2249.547" y2="652.884" gradientUnits="userSpaceOnUse"><stop offset="0" style="stop-color:#09005d"/><stop offset="1" style="stop-color:#1a0f91"/></linearGradient><path d="M597.9 2601.4c0 24.9 20.4 45.3 45.3 45.3h2451.5c24.9 0 45.3-20.4 45.3-45.3l20.4-1408.8c0-24.9-29.3-73.5-83.1-69.9l-2395.8-62c-31.3-.8-61.5 11.2-83.7 33.3-22.2 22.1-34.3 52.3-33.5 83.5l33.6 1423.9z" style="fill:url(#SVGID_00000077322741490172883860000012478228509455328640_)"/><path d="M642.7 2557.9c0 23.6 19.3 42.9 42.9 42.9h2350c23.6 0 42.9-19.3 42.9-42.9l19.2-1278.9c-2.3-77-69.7-104.6-110.6-103l-2296.2-61.6c-22-.6-43.2 7.9-58.8 23.4s-24.1 36.8-23.6 58.8l34.2 1361.3z" style="fill:#607ff2"/><linearGradient id="SVGID_00000176018295531817117790000013677388974864097419_" x1="1863.213" x2="1863.213" y1="1707.035" y2="2305.2" gradientUnits="userSpaceOnUse"><stop offset="0" style="stop-color:#09005d"/><stop offset="1" style="stop-color:#1a0f91"/></linearGradient><path d="M477.1 2763.6h2772.3c3.1 0 5.7-2.5 5.7-5.7v-112.5c0-3.1-2.5-5.7-5.7-5.7H477.1c-3.1 0-5.7 2.5-5.7 5.7V2758c0 3.1 2.6 5.6 5.7 5.6z" style="fill:url(#SVGID_00000176018295531817117790000013677388974864097419_)"/><path d="m1416.6 1309-623.5-4.4c-4.6 0-8.3-3.8-8.2-8.3l.3-39.9c0-4.6 3.8-8.3 8.3-8.2l623.5 4.4c4.6 0 8.3 3.8 8.2 8.3l-.3 39.9c0 4.6-3.7 8.2-8.3 8.2zm401 4.1-208.7-1.5c-4.4 0-7.9-3.6-7.9-8l.3-40.5c0-4.4 3.6-7.9 8-7.9l208.7 1.5c4.4 0 7.9 3.6 7.9 8l-.3 40.5c-.1 4.4-3.6 7.9-8 7.9zm485.1 3.3-418.3-2.9c-7 0-12.6-5.7-12.5-12.7l.2-31.2c0-7 5.7-12.6 12.7-12.5l418.3 2.9c7 0 12.6 5.7 12.5 12.7l-.2 31.2c0 7-5.7 12.6-12.7 12.5zm-1360.6 88.5-146.3-1c-7 0-12.6-5.7-12.5-12.7l.2-31.2c0-7 5.7-12.6 12.7-12.5l146.3 1c7 0 12.6 5.7 12.5 12.7l-.2 31.2c0 6.9-5.7 12.5-12.7 12.5zm475.1 3.4-448.9-3.1c-4.6 0-8.3-3.8-8.2-8.3l.3-39.9c0-4.6 3.8-8.3 8.3-8.2l448.9 3.1c4.6 0 8.3 3.8 8.2 8.3l-.3 39.9c0 4.6-3.8 8.2-8.3 8.2zm401.5 4.1-208.7-1.5c-4.4 0-7.9-3.6-7.9-8l.3-40.5c0-4.4 3.6-7.9 8-7.9l208.7 1.5c4.4 0 7.9 3.6 7.9 8l-.3 40.5c0 4.4-3.6 7.9-8 7.9zm846.4 5.9-624.5-4.4c-7 0-12.6-5.7-12.5-12.7l.2-31.2c0-7 5.7-12.6 12.7-12.5l624.5 4.4c7 0 12.6 5.7 12.5 12.7l-.2 31.2c0 6.9-5.7 12.5-12.7 12.5zM941.3 1504l-146.3-1c-7 0-12.6-5.7-12.5-12.7l.2-31.2c0-7 5.7-12.6 12.7-12.5l146.3 1c7 0 12.6 5.7 12.5 12.7l-.2 31.2c0 7-5.7 12.6-12.7 12.5zm475 3.5-448.9-3.1c-4.6 0-8.3-3.8-8.2-8.3l.3-39.9c0-4.6 3.8-8.3 8.3-8.2l448.9 3.1c4.6 0 8.3 3.8 8.2 8.3l-.3 39.9c0 4.5-3.8 8.2-8.3 8.2zm401.5 4-208.7-1.5c-4.4 0-7.9-3.6-7.9-8l.3-40.5c0-4.4 3.6-7.9 8-7.9l208.7 1.5c4.4 0 7.9 3.6 7.9 8l-.3 40.5c0 4.4-3.6 7.9-8 7.9zm1123.1 7.9-821.4-5.8c-7 0-12.6-5.7-12.5-12.7l.2-31.2c0-7 5.7-12.6 12.7-12.5l821.4 5.8c7 0 12.6 5.7 12.5 12.7l-.2 31.2c-.1 6.9-5.8 12.5-12.7 12.5zM942 1603.3l-146.3-1c-7 0-12.6-5.7-12.5-12.7l.2-31.2c0-7 5.7-12.6 12.7-12.5l146.3 1c7 0 12.6 5.7 12.5 12.7l-.2 31.2c0 7-5.7 12.6-12.7 12.5zm476 3.5-448.9-3.1c-4.6 0-8.3-3.8-8.2-8.3l.3-39.9c0-4.6 3.8-8.3 8.3-8.2l448.9 3.1c4.6 0 8.3 3.8 8.2 8.3l-.3 39.9c0 4.5-3.7 8.2-8.3 8.2zm400.9 4-208.7-1.5c-4.4 0-7.9-3.6-7.9-8l.3-40.5c0-4.4 3.6-7.9 8-7.9l208.7 1.5c4.4 0 7.9 3.6 7.9 8l-.3 40.5c0 4.4-3.6 7.9-8 7.9zm1125.7 7.9-821.4-5.8c-7 0-12.6-5.7-12.5-12.7l.2-31.2c0-7 5.7-12.6 12.7-12.5l821.4 5.8c7 0 12.6 5.7 12.5 12.7l-.2 31.2c0 6.9-5.7 12.5-12.7 12.5zm-2003.8 87.6-146.3-1c-7 0-12.6-5.7-12.5-12.7l.2-31.2c0-7 5.7-12.6 12.7-12.5l146.3 1c7 0 12.6 5.7 12.5 12.7l-.2 31.2c-.1 7-5.8 12.6-12.7 12.5zm475.6 3.5-448.9-3.1c-4.6 0-8.3-3.8-8.2-8.3l.3-39.9c0-4.6 3.8-8.3 8.3-8.2l448.9 3.1c4.6 0 8.3 3.8 8.2 8.3l-.3 39.9c0 4.5-3.8 8.2-8.3 8.2zm401.1 4-208.7-1.5c-4.4 0-7.9-3.6-7.9-8l.3-40.5c0-4.4 3.6-7.9 8-7.9l208.7 1.5c4.4 0 7.9 3.6 7.9 8l-.3 40.5c0 4.4-3.6 7.9-8 7.9zm1124.7 7.9-821.4-5.8c-7 0-12.6-5.7-12.5-12.7l.2-31.2c0-7 5.7-12.6 12.7-12.5l821.4 5.8c7 0 12.6 5.7 12.5 12.7l-.2 31.2c0 6.9-5.7 12.5-12.7 12.5zm-2000.8 83.9-146.3-1c-7 0-12.6-5.7-12.5-12.7l.2-31.2c0-7 5.7-12.6 12.7-12.5l146.3 1c7 0 12.6 5.7 12.5 12.7l-.2 31.2c0 7-5.7 12.6-12.7 12.5zm476.7 3.5-448.9-3.1c-4.6 0-8.3-3.8-8.2-8.3l.3-39.9c0-4.6 3.8-8.3 8.3-8.2l448.9 3.1c4.6 0 8.3 3.8 8.2 8.3l-.3 39.9c0 4.5-3.7 8.2-8.3 8.2zm400.5 4-208.7-1.5c-4.4 0-7.9-3.6-7.9-8l.3-40.5c0-4.4 3.6-7.9 8-7.9l208.7 1.5c4.4 0 7.9 3.6 7.9 8l-.3 40.5c0 4.4-3.6 7.9-8 7.9zm555.8 3.9-493.5-3.5c-7 0-12.6-5.7-12.5-12.7l.2-31.2c0-7 5.7-12.6 12.7-12.5l493.5 3.5c7 0 12.6 5.7 12.5 12.7l-.2 31.2c0 6.9-5.7 12.6-12.7 12.5zm-956.9 91.2-627-4.4c-4.6 0-8.3-3.8-8.2-8.3l.3-39.9c0-4.6 3.8-8.3 8.3-8.2l627 4.4c4.6 0 8.3 3.8 8.2 8.3l-.3 39.9c0 4.6-3.7 8.3-8.3 8.2zm400.3 4.1-208.7-1.5c-4.4 0-7.9-3.6-7.9-8l.3-40.5c0-4.4 3.6-7.9 8-7.9l208.7 1.5c4.4 0 7.9 3.6 7.9 8l-.3 40.5c-.1 4.4-3.6 7.9-8 7.9zm800.8 5.6-621.5-4.4c-7 0-12.6-5.7-12.5-12.7l.2-31.2c0-7 5.7-12.6 12.7-12.5l621.5 4.4c7 0 12.6 5.7 12.5 12.7l-.2 31.2c0 6.9-5.7 12.5-12.7 12.5zM934.8 2004l-139.5-1c-7 0-12.6-5.7-12.5-12.7l.2-31.2c0-7 5.7-12.6 12.7-12.5l139.5 1c7 0 12.6 5.7 12.5 12.7l-.2 31.2c0 7-5.7 12.6-12.7 12.5zm484.2 3.5-448.9-3.1c-4.6 0-8.3-3.8-8.2-8.3l.3-39.9c0-4.6 3.8-8.3 8.3-8.2l448.9 3.1c4.6 0 8.3 3.8 8.2 8.3l-.3 39.9c0 4.6-3.8 8.3-8.3 8.2zm399.9 4.1-208.7-1.5c-4.4 0-7.9-3.6-7.9-8l.3-40.5c0-4.4 3.6-7.9 8-7.9l208.7 1.5c4.4 0 7.9 3.6 7.9 8l-.3 40.5c0 4.4-3.6 7.9-8 7.9zm1126.8 7.8-850.2-6c-7 0-12.6-5.7-12.5-12.7l.2-31.2c0-7 5.7-12.6 12.7-12.5l850.2 6c7 0 12.6 5.7 12.5 12.7l-.2 31.2c0 7-5.7 12.6-12.7 12.5zm-2010 280.9-146.3-1c-7 0-12.6-5.7-12.5-12.7l.2-31.2c0-7 5.7-12.6 12.7-12.5l146.3 1c7 0 12.6 5.7 12.5 12.7l-.2 31.2c-.1 7-5.8 12.6-12.7 12.5zm476.9 3.5-448.9-3.1c-4.6 0-8.3-3.8-8.2-8.3l.3-39.9c0-4.6 3.8-8.3 8.3-8.2l448.9 3.1c4.6 0 8.3 3.8 8.2 8.3l-.3 39.9c0 4.5-3.8 8.2-8.3 8.2zm400.3 4-208.7-1.5c-4.4 0-7.9-3.6-7.9-8l.3-40.5c0-4.4 3.6-7.9 8-7.9l208.7 1.5c4.4 0 7.9 3.6 7.9 8l-.3 40.5c-.1 4.4-3.6 8-8 7.9zm555.7 3.9-493.5-3.5c-7 0-12.6-5.7-12.5-12.7l.2-31.2c0-7 5.7-12.6 12.7-12.5l493.5 3.5c7 0 12.6 5.7 12.5 12.7l-.2 31.2c0 6.9-5.7 12.6-12.7 12.5zm-956.6 91.2-627-4.4c-4.6 0-8.3-3.8-8.2-8.3l.3-39.9c0-4.6 3.8-8.3 8.3-8.2l627 4.4c4.6 0 8.3 3.8 8.2 8.3l-.3 39.9c0 4.6-3.7 8.3-8.3 8.2zm400 4.1-208.7-1.5c-4.4 0-7.9-3.6-7.9-8l.3-40.5c0-4.4 3.6-7.9 8-7.9l208.7 1.5c4.4 0 7.9 3.6 7.9 8l-.3 40.5c0 4.4-3.6 7.9-8 7.9zm800.5 5.6-621.5-4.4c-7 0-12.6-5.7-12.5-12.7l.2-31.2c0-7 5.7-12.6 12.7-12.5l621.5 4.4c7 0 12.6 5.7 12.5 12.7l-.2 31.2c-.1 6.9-5.8 12.5-12.7 12.5zm-1683.4 86.1-139.5-1c-7 0-12.6-5.7-12.5-12.7l.2-31.2c0-7 5.7-12.6 12.7-12.5l139.5 1c7 0 12.6 5.7 12.5 12.7l-.2 31.2c-.1 7-5.7 12.6-12.7 12.5zm484.3 3.5-448.9-3.1c-4.6 0-8.3-3.8-8.2-8.3l.3-39.9c0-4.6 3.8-8.3 8.3-8.2l448.9 3.1c4.6 0 8.3 3.8 8.2 8.3l-.3 39.9c0 4.6-3.7 8.3-8.3 8.2zm399.7 4.1-208.7-1.5c-4.4 0-7.9-3.6-7.9-8l.3-40.5c0-4.4 3.6-7.9 8-7.9l208.7 1.5c4.4 0 7.9 3.6 7.9 8l-.3 40.5c0 4.4-3.6 7.9-8 7.9zm1126.5 7.9-850.2-6c-7 0-12.6-5.7-12.5-12.7l.2-31.2c0-7 5.7-12.6 12.7-12.5l850.2 6c7 0 12.6 5.7 12.5 12.7l-.2 31.2c0 6.9-5.7 12.5-12.7 12.5zM932.2 2105l-139.5-1c-7 0-12.6-5.7-12.5-12.7l.2-31.2c0-7 5.7-12.6 12.7-12.5l139.5 1c7 0 12.6 5.7 12.5 12.7l-.2 31.2c0 6.9-5.7 12.6-12.7 12.5zm482.5 3.5-448.9-3.1c-4.6 0-8.3-3.8-8.2-8.3l.3-39.9c0-4.6 3.8-8.3 8.3-8.2l448.9 3.1c4.6 0 8.3 3.8 8.2 8.3l-.3 39.9c0 4.5-3.7 8.2-8.3 8.2zm400.9 4-208.7-1.5c-4.4 0-7.9-3.6-7.9-8l.3-40.5c0-4.4 3.6-7.9 8-7.9l208.7 1.5c4.4 0 7.9 3.6 7.9 8l-.3 40.5c-.1 4.4-3.7 7.9-8 7.9zm1122.7 7.9-850.2-6c-7 0-12.6-5.7-12.5-12.7l.2-31.2c0-7 5.7-12.6 12.7-12.5l850.2 6c7 0 12.6 5.7 12.5 12.7l-.2 31.2c0 6.9-5.7 12.5-12.7 12.5zm-2005.5 83.9-139.5-1c-7 0-12.6-5.7-12.5-12.7l.2-31.2c0-7 5.7-12.6 12.7-12.5l139.5 1c7 0 12.6 5.7 12.5 12.7l-.2 31.2c0 6.9-5.7 12.5-12.7 12.5zm483.6 3.5-448.9-3.1c-4.6 0-8.3-3.8-8.2-8.3l.3-39.9c0-4.6 3.8-8.3 8.3-8.2l448.9 3.1c4.6 0 8.3 3.8 8.2 8.3l-.3 39.9c0 4.5-3.7 8.2-8.3 8.2zm400.3 4-208.7-1.5c-4.4 0-7.9-3.6-7.9-8l.3-40.5c0-4.4 3.6-7.9 8-7.9l208.7 1.5c4.4 0 7.9 3.6 7.9 8l-.3 40.5c-.1 4.4-3.6 7.9-8 7.9zm1125.5 7.9-850.2-6c-7 0-12.6-5.7-12.5-12.7l.2-31.2c0-7 5.7-12.6 12.7-12.5l850.2 6c7 0 12.6 5.7 12.5 12.7l-.2 31.2c0 6.9-5.7 12.5-12.7 12.5zm-1428.3 350.1-11.4-.1c-2.6 0-4.6-2.1-4.6-4.7l9.7-1381.6c0-2.6 2.1-4.6 4.7-4.6l11.4.1c2.6 0 4.6 2.1 4.6 4.7l-9.7 1381.6c0 2.5-2.1 4.6-4.7 4.6z" style="opacity:.53;fill:#bdd0fb"/><circle cx="2682.6" cy="1984" r="241.3" class="st6"/><path d="m2617.9 2036.3-94.8-48.3v-15.5l94.8-54.9v26.5l-65.6 35 65.6 30.9v26.3zm100.9-140.1-53.9 163-27.1-.3 53.5-162.4 27.5-.3zm20 114.1 69.3-31.6-69.3-35.5v-26.9l101.1 55.4v16.3l-101.1 49.2v-26.9z" class="st0"/><circle cx="2121" cy="721.8" r="241.3" class="st7"/><linearGradient id="SVGID_00000100347709732403252890000008844703033729080979_" x1="2004.836" x2="2073.654" y1="713.259" y2="713.259" gradientUnits="userSpaceOnUse"><stop offset="0" style="stop-color:#dae3fe"/><stop offset="1" style="stop-color:#e9effd"/></linearGradient><path d="M2024.1 818.2c-7.4-.1-13.8-1-19.3-2.8v-28.3c5.6 1.5 10.7 2.3 15.4 2.4 7.2.1 12.4-2.2 15.5-6.8 3.1-4.7 4.7-12 4.7-21.9V609.1l33.3-.8v152.3c0 19-4.2 33.4-12.6 43.3-8.4 9.8-20.7 14.6-37 14.3z" style="fill:url(#SVGID_00000100347709732403252890000008844703033729080979_)"/><linearGradient id="SVGID_00000123439401459369029000000002600366060308520886_" x1="2111.156" x2="2235.875" y1="708.846" y2="708.846" gradientUnits="userSpaceOnUse"><stop offset="0" style="stop-color:#dae3fe"/><stop offset="1" style="stop-color:#e9effd"/></linearGradient><path d="M2235.9 752.3c0 17.7-6.4 31.6-19 41.6s-30.1 14.8-52.2 14.4c-20.3-.3-38.1-4.4-53.5-12.3v-37.7c12.6 5.8 23.4 10 32.2 12.4 8.9 2.4 17 3.7 24.4 3.8 8.9.1 15.7-1.6 20.5-5 4.8-3.4 7.2-8.5 7.2-15.4 0-3.8-1.1-7.2-3.2-10.2-2.1-3-5.2-5.8-9.3-8.6-4.1-2.7-12.3-7.1-24.8-13.1-11.6-5.5-20.3-10.8-26-15.9-5.7-5-10.3-10.9-13.7-17.6-3.4-6.7-5.1-14.5-5.1-23.5 0-16.9 5.6-30.3 16.9-40.3 11.3-10 27-15.2 47.2-15.7 10-.2 19.5.7 28.7 2.9s18.8 5.4 28.8 9.5l-13.4 32.5c-10.4-4.1-18.9-7-25.7-8.5-6.7-1.6-13.3-2.3-19.8-2.2-7.7.1-13.5 2-17.6 5.7-4.1 3.7-6.1 8.4-6.1 14.2 0 3.6.8 6.7 2.5 9.4 1.6 2.7 4.3 5.2 7.9 7.7 3.6 2.5 12.2 6.9 25.7 13.4 18 8.6 30.5 17.3 37.2 26 6.8 9 10.2 19.8 10.2 32.5z" style="fill:url(#SVGID_00000123439401459369029000000002600366060308520886_)"/><circle cx="2645.7" cy="843.2" r="238.8" class="st6"/><path d="m2550.6 893.2-17.4-1v-37.8l-32.4-1.6v37.6l-17.2-1v-86.8l17.2.7v34.1l32.4 1.5v-34.3l17.4.7v87.9zm59.1 3.3-17.8-1v-72.7l-22.7-1v-15.5l63.5 2.6v15.7l-23-1v72.9zm78.4 4.3-20.7-71.2h-.5c.7 14.3 1.1 23.8 1.1 28.6v41.6l-16.2-.9v-89.1l24.7 1 20.4 69.5h.4l21.8-67.7 25.3 1.1v90.4l-17.3-1v-42.7c0-2 0-4.3.1-7 .1-2.6.3-9.6.8-20.9h-.5l-22.5 69.4-16.9-1.1zm84.6 4.7v-90.8l18.8.8v75.1l36.3 1.9v16l-55.1-3z" class="st0"/><circle cx="2824.3" cy="1421.4" r="226.8" class="st7" transform="rotate(-45.001 2824.288 1421.428)"/><linearGradient id="SVGID_00000134965082422455522110000010342848932297828511_" x1="2671.011" x2="2758.694" y1="1419.325" y2="1419.325" gradientUnits="userSpaceOnUse"><stop offset="0" style="stop-color:#dae3fe"/><stop offset="1" style="stop-color:#e9effd"/></linearGradient><path d="M2724.4 1376.1c-9.2-.1-16.3 3.7-21.3 11.2-5 7.5-7.4 18.1-7.4 31.7.1 28.3 9.6 42.8 28.9 43.5 8.2.3 18.1-1.5 29.9-5.6v23c-9.7 4-20.4 5.7-32.1 5.1-16.7-.8-29.4-7-38.2-18.5-8.7-11.5-13-27.5-13.1-48.3 0-13.1 2.1-24.5 6.3-34.3 4.2-9.8 10.4-17.4 18.4-22.6 8.1-5.3 17.6-7.9 28.6-7.9 11.3 0 22.8 3.1 34.4 9.2l-8.1 22.2c-4.4-2.4-8.8-4.4-13.3-6.2-4.5-1.5-8.8-2.4-13-2.5z" style="fill:url(#SVGID_00000134965082422455522110000010342848932297828511_)"/><linearGradient id="SVGID_00000177452120617259444350000004532410363742811052_" x1="2780.761" x2="2861.311" y1="1421.624" y2="1421.624" gradientUnits="userSpaceOnUse"><stop offset="0" style="stop-color:#dae3fe"/><stop offset="1" style="stop-color:#e9effd"/></linearGradient><path d="M2861.3 1452.6c0 12.1-4.1 21.4-12.3 28-8.2 6.6-19.4 9.5-33.7 8.8-13.1-.6-24.6-3.8-34.5-9.5v-25.7c8.1 4.2 15.1 7.3 20.8 9.1 5.7 1.8 11 2.9 15.7 3 5.7.2 10.2-.8 13.3-3 3.1-2.2 4.6-5.7 4.6-10.4 0-2.6-.7-4.9-2.1-7-1.4-2.1-3.4-4.1-6-6-2.6-2-8-5.1-16-9.4-7.5-4-13.1-7.8-16.8-11.3-3.7-3.6-6.7-7.6-8.9-12.3-2.2-4.6-3.3-10-3.3-16.1 0-11.6 3.6-20.6 10.9-27.2 7.3-6.6 17.4-9.9 30.5-9.9 6.5 0 12.6.9 18.6 2.5 5.9 1.7 12.2 4 18.7 7l-8.7 22c-6.7-3-12.3-5.1-16.6-6.3-4.4-1.2-8.6-1.8-12.8-1.9-5 0-8.8 1.1-11.4 3.6-2.6 2.4-3.9 5.6-3.9 9.6 0 2.5.5 4.6 1.6 6.5 1.1 1.9 2.8 3.7 5.1 5.4 2.3 1.8 7.9 5 16.6 9.6 11.7 6.2 19.7 12.4 24.1 18.5 4.3 6.2 6.5 13.6 6.5 22.4z" style="fill:url(#SVGID_00000177452120617259444350000004532410363742811052_)"/><linearGradient id="SVGID_00000144330317903963641020000017249695156711712387_" x1="2885.573" x2="2971.902" y1="1424.275" y2="1424.275" gradientUnits="userSpaceOnUse"><stop offset="0" style="stop-color:#dae3fe"/><stop offset="1" style="stop-color:#e9effd"/></linearGradient><path d="M2971.9 1456.4c0 12.5-4.4 22.2-13.2 29-8.7 6.8-20.8 9.8-36.2 9.1-14-.7-26.3-3.9-36.9-9.8v-26.6c8.7 4.4 16.1 7.5 22.2 9.4 6.1 1.9 11.7 3 16.8 3.2 6.2.2 10.9-.8 14.2-3.1 3.3-2.3 5-5.9 5-10.7 0-2.7-.7-5.1-2.2-7.3-1.5-2.1-3.6-4.2-6.4-6.3-2.8-2-8.5-5.3-17.1-9.8-8-4.1-14-8-18-11.7-4-3.7-7.1-7.9-9.5-12.7-2.4-4.8-3.5-10.4-3.5-16.7 0-12 3.9-21.3 11.7-28.1 7.8-6.8 18.7-10.3 32.7-10.2 6.9 0 13.5.9 19.9 2.6 6.4 1.7 13 4.2 20 7.3l-9.3 22.8c-7.2-3.1-13.1-5.3-17.8-6.5-4.7-1.2-9.2-1.9-13.7-1.9-5.3-.1-9.4 1.2-12.2 3.7-2.8 2.5-4.2 5.8-4.2 9.9 0 2.6.6 4.8 1.7 6.7 1.1 1.9 3 3.8 5.4 5.6 2.5 1.8 8.4 5.1 17.8 10 12.5 6.4 21.1 12.8 25.8 19.2 4.7 6.1 7 13.8 7 22.9z" style="fill:url(#SVGID_00000144330317903963641020000017249695156711712387_)"/><linearGradient id="SVGID_00000078725408879006168390000014382011817135676835_" x1="935.404" x2="1187.622" y1="3156.785" y2="3156.785" gradientTransform="translate(646.411)" gradientUnits="userSpaceOnUse"><stop offset="0" style="stop-color:#4f52ff"/><stop offset="1" style="stop-color:#4042e2"/></linearGradient><path d="M1826.9 3144.6c-43.2 3.7-118.2 9.8-177.3 12.4-35.5 1.6-56-1.9-67.8-6.6 0 1.3.1 2.6.1 3.7.3 6.2 5.3 11.2 11.6 11.5 111.7 6.2 200.5 2.2 232.2.2 6.5-.4 10.4-7.5 7.1-13.1-1.7-2.7-3.7-5.4-5.9-8.1z" style="fill:url(#SVGID_00000078725408879006168390000014382011817135676835_)"/><linearGradient id="SVGID_00000158746277249362029870000011577474348927014283_" x1="935.39" x2="1180.5" y1="3107.354" y2="3107.354" gradientTransform="translate(646.411)" gradientUnits="userSpaceOnUse"><stop offset="0" style="stop-color:#09005d"/><stop offset="1" style="stop-color:#1a0f91"/></linearGradient><path d="M1649.6 3157c59.1-2.6 134.1-8.7 177.3-12.4-42.5-52.1-177.3-87.2-177.3-87.2h-38.1c-26.2 37.8-30 73.7-29.7 93 11.8 4.7 32.3 8.2 67.8 6.6z" style="fill:url(#SVGID_00000158746277249362029870000011577474348927014283_)"/><linearGradient id="SVGID_00000071528817750371572720000006279341149038311087_" x1="958.689" x2="1029.734" y1="3038.341" y2="3038.341" gradientTransform="translate(646.411)" gradientUnits="userSpaceOnUse"><stop offset="0" style="stop-color:#febbba"/><stop offset="1" style="stop-color:#ff928e"/></linearGradient><path d="m1605.1 2995.2 3.6 70.5c.4 7.6 6.1 14.1 13.8 15.1 7.6 1.1 17.8 1.2 28.6-2.4 6.6-2.2 11.6-7.8 12.8-14.6l12.3-68.6h-71.1z" style="fill:url(#SVGID_00000071528817750371572720000006279341149038311087_)"/><linearGradient id="SVGID_00000134248912335286437380000003595591215646406537_" x1="485.229" x2="581.883" y1="3219.327" y2="3219.327" gradientTransform="translate(646.411)" gradientUnits="userSpaceOnUse"><stop offset="0" style="stop-color:#4f52ff"/><stop offset="1" style="stop-color:#4042e2"/></linearGradient><path d="M1163.1 3225.9c-18.7-3.4-27.2-16-30.8-29.4 0 .1 0 .2-.1.4-2.8 14.2 3.6 28.9 16.4 35.9 15.4 8.5 32.3 9.9 45.4 9.2 14.1-.7 27-8.3 34.1-20.3l.1-.2c-14 9-33.8 10.1-65.1 4.4z" style="fill:url(#SVGID_00000134248912335286437380000003595591215646406537_)"/><linearGradient id="SVGID_00000110438892372348382780000017001102275433230490_" x1="485.932" x2="627.801" y1="3123.145" y2="3123.145" gradientTransform="translate(646.411)" gradientUnits="userSpaceOnUse"><stop offset="0" style="stop-color:#09005d"/><stop offset="1" style="stop-color:#1a0f91"/></linearGradient><path d="M1251.5 3016.9h-31.4c-47.8-1.3-77.9 129.1-87.7 179.6 3.6 13.4 12 26 30.8 29.4 31.2 5.6 51.1 4.6 65.2-4.5 25.8-44 38.7-108.3 44.8-145.9 6.9-42.6-21.7-58.6-21.7-58.6z" style="fill:url(#SVGID_00000110438892372348382780000017001102275433230490_)"/><linearGradient id="SVGID_00000079465311434731434650000002086143040851912093_" x1="559.673" x2="644.579" y1="3001.294" y2="3001.294" gradientTransform="translate(646.411)" gradientUnits="userSpaceOnUse"><stop offset="0" style="stop-color:#febbba"/><stop offset="1" style="stop-color:#ff928e"/></linearGradient><path d="m1224.1 2951.4-17.4 69.4c-2.1 8.5 1.9 17.3 9.8 21.3 9.8 5 23.5 10.3 36.1 8.7 5.9-.7 10.9-4.9 12.8-10.5l25.6-73-66.9-15.9z" style="fill:url(#SVGID_00000079465311434731434650000002086143040851912093_)"/><linearGradient id="SVGID_00000039134552574776080610000004129720409093834884_" x1="1246.437" x2="521.538" y1="2085.057" y2="3272.512" gradientTransform="translate(646.411)" gradientUnits="userSpaceOnUse"><stop offset="0" style="stop-color:#4f52ff"/><stop offset="1" style="stop-color:#4042e2"/></linearGradient><path d="M1837.5 2037.9s-155.8 974.1-153.3 979.5c0 0-43 19.6-90 2.5 0 0 14.1-520.8 47.1-720.4 0 0-266 465.5-350.4 697.4 0 0-44.1-5.3-80.5-29.3 0 0 286.4-837.8 362.8-949.4l264.3 19.7z" style="fill:url(#SVGID_00000039134552574776080610000004129720409093834884_)"/><linearGradient id="SVGID_00000093875759244738398060000018110893876464300197_" x1="1811.807" x2="1761.542" y1="1034.743" y2="1567.562" gradientUnits="userSpaceOnUse"><stop offset="0" style="stop-color:#4f52ff"/><stop offset="1" style="stop-color:#4042e2"/></linearGradient><path d="M1647.6 2293.7c-.7 0-1.4-.2-2.1-.6-1.8-1.1-2.4-3.5-1.2-5.4l58.2-93c.6-.9 1.5-1.5 2.5-1.7l42.9-8.6c2.1-.4 4.1.9 4.6 3 .4 2.1-.9 4.1-3 4.6l-41.2 8.3-57.4 91.6c-.7 1.2-2 1.8-3.3 1.8z" style="fill:url(#SVGID_00000093875759244738398060000018110893876464300197_)"/><path d="M1894.8 1364.2c-10.5-3.6-21.5-5.8-32.6-6.4-60.8-3.6-261.2-10.1-427 44.7-34.9 11.5-63.2 37.3-77.7 70.7-44.8 102.9-117.5 337.3 84.1 455.6 15.5-38.4 33.4-69.4 48.6-92.1-32.5-54.8-42.1-129.5 15.5-226.9 42 113.4 61.7 278.9 65.8 352.1 1.4 24.1-2.9 48.2-12.3 70.4l-1 2.4c-2 4.8.8 10.2 5.9 11.4 113.5 25.5 231.5 18.6 266.8 15.7 6.3-.5 11.5-5 13-11.1 55.2-232.5 55.3-391.1 41.8-491.4 51.5 11.7 123.3-155.6 9.1-195.1z" class="st21"/><linearGradient id="SVGID_00000043458274906684652310000006239924195780037035_" x1="977.964" x2="1014.753" y1="1495.601" y2="1302.459" gradientTransform="translate(646.411)" gradientUnits="userSpaceOnUse"><stop offset="0" style="stop-color:#febbba"/><stop offset="1" style="stop-color:#ff928e"/></linearGradient><path d="M1605.8 1222.3s-11.5 121.4-21.6 157.3c-1.5 5.4.8 11.2 5.8 14 17.2 9.8 58.3 25.8 114.6-1.8 9.1-4.5 14.6-14 14.2-24l-5-117.3-108-28.2z" style="fill:url(#SVGID_00000043458274906684652310000006239924195780037035_)"/><linearGradient id="SVGID_00000178887040499027358930000012959001232344093360_" x1="1077.509" x2="867.607" y1="1141.248" y2="1301.855" gradientTransform="translate(646.411)" gradientUnits="userSpaceOnUse"><stop offset="0" style="stop-color:#febbba"/><stop offset="1" style="stop-color:#ff928e"/></linearGradient><path d="M1716.2 1067s36.7 84.3 39.2 128.6 12 73-39.2 81.9c-51.2 8.9-94.3-16.6-117.7-60.7 0 0-36.6-68-28.4-95.8 8.3-27.8 146.1-54 146.1-54z" style="fill:url(#SVGID_00000178887040499027358930000012959001232344093360_)"/><linearGradient id="SVGID_00000075120183999046638570000015057676798441647036_" x1="929.747" x2="1125.238" y1="1014.082" y2="1265.776" gradientTransform="translate(646.411)" gradientUnits="userSpaceOnUse"><stop offset="0" style="stop-color:#09005d"/><stop offset="1" style="stop-color:#1a0f91"/></linearGradient><path d="m1616 1185.1 2.9-1.3c3.7-1.6 5.3-6.1 3.4-9.7-7.2-13.9-21.3-45.9-3.1-53.4 23.4-9.6 116.2-28.5 136.3-61.5 19.2-31.6 2.2-72.5-23.4-84.1-1.7-.8-3.7-.2-4.6 1.5l-2.1 4c-1.5 2.8-5.5 2.3-6.4-.7-.8-2.9-4.7-3.4-6.3-.9-6.2 9.9-22.8 25.8-67.2 34-63.2 11.7-104.9 37.2-105.9 80.8-.1 2.8-3 4.3-5.4 2.9-4.7-2.8-12.1-4.2-22.1 4.2-17.3 14.6-10.2 52.4 27.8 83.5 1.8 1.5 1.8 4.3-.2 5.6-6.9 4.5-17.2 15.2 9.5 29.4 27.5 14.7 48.1 13.5 56 12.2 2-.3 3.2-2.2 2.8-4.2l-8.5-38.4c-.5-2.2 1.2-4.2 3.4-4.2h13.1z" style="fill:url(#SVGID_00000075120183999046638570000015057676798441647036_)"/><linearGradient id="SVGID_00000182496661191383951500000007232280302938067877_" x1="1051.474" x2="841.571" y1="1107.22" y2="1267.828" gradientTransform="translate(646.411)" gradientUnits="userSpaceOnUse"><stop offset="0" style="stop-color:#febbba"/><stop offset="1" style="stop-color:#ff928e"/></linearGradient><path d="M1617.6 1193.2s-14-53.9-38.2-38.8c-24.2 15.1 12.5 60.4 32 62.4l6.2-23.6z" style="fill:url(#SVGID_00000182496661191383951500000007232280302938067877_)"/><linearGradient id="SVGID_00000039108808958294120790000008162892035847103385_" x1="1211.639" x2="1437.836" y1="1191.82" y2="478.044" gradientTransform="translate(646.411)" gradientUnits="userSpaceOnUse"><stop offset="0" style="stop-color:#febbba"/><stop offset="1" style="stop-color:#ff928e"/></linearGradient><path d="m1616.6 2011.7 165.7-3.6s-144.5-40.8-153.5-29.7c0 0-89.6-58.8-138.6-141.6-15.3 22.7-33.2 53.6-48.6 92.1 44 25.8 101.7 70.6 175 82.8z" style="fill:url(#SVGID_00000039108808958294120790000008162892035847103385_)"/><linearGradient id="SVGID_00000028304768192734097000000011594984522214955396_" x1="-540.211" x2="-314.014" y1="-10631.962" y2="-11345.738" gradientTransform="matrix(-1 0 0 1 -2825.471 0)" gradientUnits="userSpaceOnUse"><stop offset="0" style="stop-color:#febbba"/><stop offset="1" style="stop-color:#ff928e"/></linearGradient><path d="M1611.9 1983s-3.4 66 83.2 56.4c47.1-5.2 123.1-49.1 123.1-49.1s-198.1-.5-206.3-7.3z" style="fill:url(#SVGID_00000028304768192734097000000011594984522214955396_)"/><linearGradient id="SVGID_00000011735751618229833520000014262444843870151841_" x1="1193.813" x2="920.133" y1="2025.787" y2="2100.796" gradientTransform="scale(-1 1) rotate(-2.832 -2557.587 58409.36)" gradientUnits="userSpaceOnUse"><stop offset="0" style="stop-color:#09005d"/><stop offset="1" style="stop-color:#1a0f91"/></linearGradient><path d="M1653.7 1999.4h.8l339.7-.4c8.4 0 15.2-6.7 15.2-15.1 0-8.3-6.8-15.2-15.2-15l-339.7.4c-8.4 0-15.2 6.7-15.2 15.1 0 8.1 6.4 14.6 14.4 15z" style="fill:url(#SVGID_00000011735751618229833520000014262444843870151841_)"/><linearGradient id="SVGID_00000029025531973713822320000010794171198948859052_" x1="879.849" x2="686.802" y1="1734.709" y2="1938.748" gradientTransform="matrix(-1 0 0 1 2847.076 0)" gradientUnits="userSpaceOnUse"><stop offset="0" style="stop-color:#09005d"/><stop offset="1" style="stop-color:#1a0f91"/></linearGradient><path d="M2299.6 1694.3h-282.9c-20.9 0-39.9 11.9-48.8 30.6l-130.8 274.4h351.6c13.4 0 25.5-8.1 30.5-20.5l101.4-253.9c5.8-14.7-5.1-30.6-21-30.6z" style="fill:url(#SVGID_00000029025531973713822320000010794171198948859052_)"/><linearGradient id="SVGID_00000062154716988230766580000008932793424351041469_" x1="762.789" x2="675.526" y1="1785.706" y2="1917.115" gradientTransform="matrix(-1 0 0 1 2847.076 0)" gradientUnits="userSpaceOnUse"><stop offset="0" style="stop-color:#53d8ff"/><stop offset="1" style="stop-color:#3840f7"/></linearGradient><path d="M2100.3 1835c-6.1 18.8-1.6 37.1 10.1 40.9 11.7 3.7 26.2-8.5 32.3-27.4 6.1-18.8 1.6-37.1-10.1-40.9-11.7-3.7-26.2 8.5-32.3 27.4z" style="fill:url(#SVGID_00000062154716988230766580000008932793424351041469_)"/><path d="M2239 1550.5c-131.9 5.5-195.3-91-253-147.5-76.2-74.6-156.8-44.2-156.8-44.2l61.3 200c119.1 139.3 267.2 105.2 357.3 73.9 4.8-32.6-1-60.9-8.8-82.2z" class="st21"/><path d="m2429.8 1492.7-45.5 18.5c-55 25.9-103 37.5-145.3 39.2 7.9 21.3 13.6 49.7 8.8 82.2 57.3-19.9 94.9-47.2 94.9-47.2 103.7-47.5 87.1-92.7 87.1-92.7z" class="st21"/><linearGradient id="SVGID_00000041285121833881713560000003533770810576057005_" x1="7923.55" x2="8225.162" y1="-2539.976" y2="-2675.701" gradientTransform="rotate(6.16 -1588.332 29199.48)" gradientUnits="userSpaceOnUse"><stop offset="0" style="stop-color:#febbba"/><stop offset="1" style="stop-color:#ff928e"/></linearGradient><path d="M2550.1 1567.1c-1.8-9.5-7.8-17.7-16.4-22.3l-83.6-44.6s-.1-11.3 20.5-16.8 18.4-28.1 18.4-28.1-28.3 9.4-70 24.7c-23.8 8.7-38.7 27.1-47 41.2l19.3 32c52.1 22 106.3 31 161.9 30.5l-3.1-16.6z" style="fill:url(#SVGID_00000041285121833881713560000003533770810576057005_)"/><linearGradient id="SVGID_00000030472842357113489820000005704800111807488956_" x1="1845.523" x2="1885.809" y1="1489.617" y2="1489.617" gradientUnits="userSpaceOnUse"><stop offset="0" style="stop-color:#e1473d"/><stop offset="1" style="stop-color:#e9605a"/></linearGradient><path d="M1845.5 1418.2s27 42.5 40.3 142.9l-40.3-142.9z" style="fill:url(#SVGID_00000030472842357113489820000005704800111807488956_)"/></g></svg>