<svg xmlns="http://www.w3.org/2000/svg" data-name="3 freccia" viewBox="0 0 1200 600"><path d="m684.99 198.56 51.79-46.98 20.52 22.5-52.02 49.09 43.2 23.27-148.54 48.6L664.24 155l20.75 43.56z" style="fill:#fff;stroke:#000;stroke-linecap:round;stroke-linejoin:round;stroke-width:6px"/><path d="M697.88 223c13.07 7.36 25.61 14.42 38.95 21.93-42.85 14.18-84.95 28.1-128.31 42.45l55.8-120.96c6.58 14.1 12.8 27.45 19.25 41.27 11.9-11.1 23.44-21.84 34.97-32.6 5.23-4.88 10.54-9.67 15.62-14.71 2.04-2.03 3.24-1.86 5.04.21 3.17 3.63 6.53 7.11 9.95 10.5 1.83 1.81 1.63 2.88-.27 4.62-16.89 15.53-33.67 31.19-51 47.29Z" style="fill:#fefefe"/></svg>