<svg xmlns="http://www.w3.org/2000/svg" viewBox="0 0 120 120"><defs><style>.cls-1{fill:#ff9f9c}.cls-2{fill:#4c51c7}.cls-3{fill:#e1e9fd}.cls-4{fill:#e8eefd}.cls-5{fill:#1b1090}.cls-6{fill:#feb9b8}.cls-7{fill:#fdacaa}.cls-8{fill:#0d046a}.cls-10{fill:#ff9794}.cls-11{fill:#7d97f4}.cls-12{fill:#91b3fa}.cls-13{fill:#e2eafd}.cls-14{fill:#130978}.cls-16{fill:#fd820e}</style></defs><g id="_2_icona" data-name="2_icona"><ellipse cx="61.82" cy="62.9" class="cls-3" rx="56" ry="52.53"/><path d="M60.1 13.22c-.89.23-1.8.4-2.7.64-5.2 1.41-10.03 4.35-13.19 8.75-.51.32-2.23-1.62-2.46-.19-.05.33-.06.83-.09 1.19l-1.09-.73c0-.84-.12-1.67-.35-2.47.01-.22 1.09-1.16 1.15-1.39.07-.25-.24-.62-.36-.85-.04-.07-.02-.17-.04-.2 5.15-2.79 10.97-4.25 16.81-4.68.75-.05 1.55 0 2.3-.07Zm-15.63 6.06c-.51.09-.18 1.24.24 1.15.44-.1.23-1.24-.24-1.15Z" class="cls-12"/><path d="M20.84 39.63h.27c-.18.64-.47 1.26-.69 1.89-1.49 4.3-2.33 8.88-2.34 13.44-.14-.05-.51.04-.69 0 .09 3.2.53 6.44 1.2 9.56 1.83 8.46 5.9 16.57 12.89 21.87.03.02.07.08.14.14.09.07.19.14.28.21 0 .13.08.2.17.28.34.31.75.66 1.1.96.63.53 1.32 1.1 2.03 1.51.01.6.11 1.08.23 1.66.45 2.24 1.07 4.45 1.48 6.69-.48.93-1.28 4.17-2.4 4.36-.42.07-.46-.11-.77.36s-.35 1.04-.53 1.56c-.43-.06-.88-.29-1.28-.47-16.14-7.1-21.32-26.16-19.89-42.47.57-6.56 2.23-13.05 4.81-19.08.99.46 1.31-.03.21-.41.18-.5.41-.98.64-1.46.05-.1.06-.21.19-.26 0 .06.11.21.08.34.38 0 1.14.38 1.47.35.23-.02.6-.94.74-1.02.07-.04.54-.02.67-.01Zm-2.46 2.94c.12.09 1.08.2 1.24.14.22-.07.12-.31-.09-.37-.07-.02-.95-.17-1.01-.16-.21.01-.29.27-.15.39Z" class="cls-4"/><path d="M81.97 91.95c-.11 1.81-.16 3.59-.2 5.4-.04 1.78-.23 3.95-.07 5.71.03.29.19.76.48.86.08.53-.11 1.37 0 1.86-.84.09-1.61.51-2.34.89-.51.27-1.13.6-1.58.96-8.66 2.25-17.68 2.34-26.5.95-3.79-.6-7.56-1.41-11.32-2.19-.87-2.17-.99-4.94-.9-7.26.01-.28.06-1.22.14-1.41.05-.1.25-.32.33-.46.68-1.2 1.44-2.35 2.14-3.53 12.09 5.71 26.22 5.36 38.03-.86.58-.31 1.17-.73 1.79-.93Z" class="cls-13"/><path d="M108.03 43.13c6.55 18.43 3.99 43.15-12.25 55.79-.64.5-1.35 1.03-2.06 1.42.81-6.95 1.39-14.11 1.58-21.11 2.39-3.37 4.24-7.27 5.45-11.22.37-1.19.58-2.48.94-3.63.22-.68.63-1.33.86-2.06.7-2.26.68-4.67.03-6.94.04-2.68-.25-5.35-.76-7.98.49.12 1.36-.44 1.75-.41.31.02.97.72 1.28.8.26.07.33-.24.34-.25.19-.14 1.17-.71 1.23-.87.13-.37-.45-1.25-.39-1.55.02-.08.58-.85.69-1.04.14-.24.25-.49.33-.76.11-.14.79-.14.97-.18Zm-3.04 7.03c-.58.1-.83.8-.12.65.66-.14.58-.72.12-.65Z" class="cls-3"/><path d="M84.24 15.7c.02.26 0 .52.06.78l-.89.8s-.2-.02-.3-.08c-5.89-3.26-12.78-4.86-19.54-4.39-1.16.08-2.31.32-3.47.41-.76.06-1.55.01-2.3.07-5.85.42-11.66 1.88-16.81 4.68 0-.02-.12-.06-.17-.14-.12-.2-.45-.91-.64-.95-.29-.07-1.35.36-1.74.33 0-.16.1-.18.2-.25 1.3-.96 3.44-2.01 4.93-2.7 11.44-5.31 24.97-4.48 36.62-.27l4.04 1.7Z" class="cls-4"/><path d="M91.04 102.27c-.83.3-1.61.85-2.41 1.27-1.47.78-2.99 1.47-4.54 2.1-.11-.53.02-.98.07-1.51.28-.04.56-.31.6-.6.74-4.67 1.45-9.35 2.39-13.98.07-.33.23-1.45.38-1.65.18-.25.83-.68 1.1-.93.55-.51 1.08-1.06 1.65-1.55.4 5.66.69 11.15.76 16.85Z" class="cls-3"/><path d="M99.78 28.21c-.33-.1-.89.86-.95 1.08-.12.46.29.59.54.33.19-.19.58-.92.55-1.21 0 0 .09-.02.14.05.22.28 1.23 1.76 1.38 1.84.28.17 1.05-.05 1.01.4-.03.31-.33.23-.53.29l2.61 4.3c-.19-.12-1.16-.57-1.2-.62-.17-.25-.17-1.48-.43-1.57-.16-.06-1.73-.24-1.83-.21-.27.36-.48.84-.67 1.25-.03.07-.12.1-.13.11-.38.05-.75.13-1.12.23-.18.05-.83.32-.9.31-.22-.02-.72-.57-1.01-.6-.02-.64-.67-2.09-.95-2.73-.47-1.08-1.06-2.24-1.66-3.25V28c.29-.11.61-.82.8-.88.4-.12 1.34.21 1.81.02.06-.04.48-1.1.55-1.27.69.67 1.32 1.42 1.93 2.17.05.06.05.15.07.17Z" class="cls-4"/><path d="M36.1 105.23c.07-.64.14-1.33.36-1.94.25-.7.82-1.28 1.09-1.98.18-.02.11 0 .14.1.13.58.21 1.02.01 1.59-.04.11-.28.6-.36.64-.06.03-.2-.01-.34.11-.4.34-.23 1.23-.14 1.68l-.76-.21Z" class="cls-13"/><path d="M41.53 26.29c-.1 1.57-.21 3.14-.28 4.71.27 1.05.95.25 1.41-.17 1.89-1.72 3.63-3.62 5.53-5.33.17-.25.18-.51 0-.75-.15-.19-.85-.38-.81-.55 3.8-4.78 9.55-7.73 15.58-8.56 12.55-1.73 25.23 4.78 31.32 15.76.77 1.38 1.43 2.83 1.98 4.31.18.13.83-.69.89-.89.22.25.4.62.56.92.66 1.24 1.24 2.53 1.78 3.83l.21.48c.28.72.58 1.47.83 2.2.05.14.09.32.14.48.48 1.53.87 3.1 1.17 4.68.5 2.62.8 5.3.76 7.98-.6-2.12-2.03-4.59-3.44-6.29-.76-.92-1.47-1.66-2.68-1.93-1.42-.31-3.03-.36-4.47-.58-.12-1.21-.35-2.42-.41-3.64.37-.24.88-.91.76-1.38.49-.11.97-.61.96-1.13-.01-.45-.43-.71-.34-1.17.05-.23.41-.37.58-.59.55-.74.04-1.76-.74-2.07-.13-.05-.22-.03-.32-.05-.13-.03-.16-.06-.34-.07h-.14c-.16 0-.2.07-.21.07-.03 0-.33-.06-.34-.07-.08-.04-.22-.35-.31-.42-.14-.1-.45-.09-.55-.34-.18-.42.13-.72-.24-1.3-.8-1.24-2.4-.82-3.15.25-.66.95-.54 1.71.47 2.29l-1.79 3.64a.53.53 0 0 0-.51.21c-.22.27-.73 1.57-.86 1.96-.12.36-.41.94-.17 1.27.1.13.17.09.24.14.05.03.09.04.14.07 0 0 .02.05.07.07.03.01.1-.01.14 0 0 0 .02.05.07.07.03.01.1-.01.14 0 0 0 .02.05.07.07.04.01.1-.01.14 0 0 0 .02.05.07.07.04.01.1-.01.14 0 0 0 .02.05.07.07.04.01.1-.01.14 0 0 0 .02.05.07.07.04.01.1 0 .14 0 .01.03.04.06.07.07.37.1 1.1.31 1.44.34 0 .48-.38 1.08-.41 1.51-1.45.2-3.02.39-4.33 1.06s-2.33 1.75-3.47 2.65c-2.95 2.31-5.89 3.86-9.8 3.37-1.37-.17-3.12-.79-4.36-1.38-.19-.09-1.11-.54-1.19-.63-.14-.14-.39-.65-.6-.88-.93-1-2.67-1.4-3.85-2.06-.19.02-.03.65.04.78.3.57 1.38.51 1.29 1.27l-3.79 1.6c-.52.34-.67.92-.73 1.5 2.27.19 4.5.01 6.69-.61.3.26.6.51.92.73 1.62 1.13 3.16 2.23 4.97 3.04 2.79 1.24 5.42 1.76 8.47 1.08 1.48-.33 2.82-1 4.11-1.77.99 2.68 1.99 5.37 2.59 8.17.42 1.94.59 3.63.57 5.62 0 .5.04.7.07 1.13.04.65-.59 2.99-.73 3.84-.96 5.58-4.3 9.36-4.63 15.02-.62.2 7.95 1.75 7.36 2.06-11.81 6.22-32.41 7.28-44.5 1.57.04-.07.06-.21.12-.32.32-.54.65-1.07.98-1.6.76.16 1.74.3 2.52.4 4.46.59 9.07.31 13.46-.61.33.44.76 2.17 1.52 1.73 1.89-2.03 3.79-4.06 5.62-6.14.18-.42-.12-.72-.54-.74-.2 0-.36.07-.54.07-1.43.02-2.84.09-4.26.14-1.09.04-2.45-.06-3.51.06-1.12.13-.03 1.44-.1 1.51-.45.04-.9.14-1.35.2-3.62.48-7.21.49-10.82 0 .34-.73 1.13-1.54 1.17-2.37.01-.27.24 2.36.18 2.53-2.13 6.01-5.37.57-5.34.48.13-.44-7.34-1.67-7.56-2.45-.89-3.13-10.03-28.57-10.67-31.69-.19-.93 7.46-14.91 7.61-15.85.3-1.82 31.78-19.56 33.63-19.82 9.62-1.31 22.5 3.46 22.58 3.25 3.17 1.2 13.92 27.83 15.75 30.44 2.98 4.23-14.56 89.26-48.65-2.62-.24-.64-.43-1.29-.59-1.95 1.2-.64 2.19-1.54 1.99-3.03-.03-.26-.35-1.32-.72-.94-.06.06-.34.97-.46 1.19-.28.54-.85 1.31-1.5 1.35.15-.54.34-.7.05-1.26-.31-.61-.23.02-.41.32-.18.32-.48.41-.64.87-.26.75.28 1.92.42 2.74.27 1.58.2 2.96-.8 4.28-.46.6-1.54 1.43-2.28 1.61-1.97.47-3.98-1.21-5.35-2.43-.4-.73-.95-1.57-1.43-2.25-.05-.07-.07-.21-.08-.23 1.05-1.21 1.01-2.82.14-4.13.88-.43 1-1.4.89-2.27-.14-1.13-1.08-3.09-1.72-4.06.1-1.34-.29-2.54-1.72-2.86-.93-.21-1.5 0-2.38.1-.83.11-1.43-.09-2.03.72-.33.44-.22.78-.38 1.13-.05.1-.28.26-.37.38-.61.81-.46 1.54-.14 2.44-.56-.1-1.07-.25-1.65-.27-.27-.01-.62-.02-.89 0l-.28.07c-3.3.4-5.44 4.74-3.92 7.56.43.8 1.16 1.45 2.06 1.65-.45.39-.87.78-.96 1.41-.22 1.69 1.63 2.84 3.09 3.05-.47.62-.92 1.45-1.31 2.13-1.17 2.03-2.69 5.16-.93 7.29 1.03 1.24 2.89 1.95 4.44 2.27-.23.41-.57.74-.81 1.15-.6 1.02-.92 2.34-.91 3.53a.5.5 0 0 0 0 .55c.01.62.05 1.24.14 1.86.1.76.28 1.53.43 2.28.56 2.8 1.32 5.57 1.84 8.38-10.62-5.98-15.2-17.95-16.38-29.58 0-.09-.3-.46-.33-.47 0-4.56.85-9.15 2.34-13.44.22-.63.51-1.25.69-1.89h-.27l.99-.2c.29.03.73.68.98.75s1.07-.64 1.38-.69c.13-.2-.25-1.06-.19-1.32.01-.05.54-.62.64-.74s.26-.49.34-.55c.27-.19 1.21-.06 1.31-.2 0-.31.42-1.25.37-1.47-.05-.18-.84-.54-.99-.73.04-.4-.32-1.5-.2-1.79.1-.24.67-.65.71-.88.02-.11-.31-.63-.4-.77l1.79-2.2c.37.31.93.62 1.36.84l.16 1.87c.02.09.09.09.16.12.14.07 2.02.57 2.13.54l1.08-1.54c.83-.04 1.66-.12 2.45-.36.32 0 1.16 1.1 1.56 1.15.11 0 1.88-1 1.93-1.1.19-.35-.36-1.5-.23-1.95.03-.1.64-.71.77-.88.14-.19.6-1.01.68-1.08.18-.15 1.58-.12 1.91-.16Zm44.43 8.32V22.75c0-.32-.54-.81-.87-.85-1.9-.27-4.42-.09-6.39-.14-4.89-.13-9.82-.33-14.71-.42-.82-.01-2-.18-2.1.93-.2 2.1.16 4.54 0 6.68.24 1.04 1.25.8 2.03.85 6.12.39 12.3.6 18.43 1.03 1.21 1.26 2.35 2.58 3.61 3.79Zm-45.13-3.16c-.06.02-.91.73-.95.78-.21.32.04.62.41.48.1-.03.89-.71.93-.79.12-.25-.15-.54-.4-.47Zm-2.27 1.66c-.06.02-.99.52-1.02.56-.16.22-.05.53.24.53.16 0 1.04-.45 1.14-.58.2-.28-.01-.6-.37-.51Zm-11.62.34c-.18.05-.22.27-.18.42.07.22 1.14.66 1.38.59.22-.07.26-.39.09-.54-.11-.1-1.15-.51-1.3-.47Zm9.08.76c-.25.03-1.12.23-1.2.46-.23.74 1.53.22 1.61-.05.1-.33-.12-.45-.42-.42Zm33.96 8.76c.19-.17.41-.78.43-1.05.22-2.18-.16-4.72 0-6.94-.23-1-1.08-.68-1.81-.66-6.22.24-12.57.46-18.77.89-.34.02-.78.03-1.09.07-.47.06-.74.39-.8.85v5.01c-.7.89-1.85 1.66-2.51 2.52-.05.07-.13.09-.1.21l3.2-.2c5.73-.07 11.51-.31 17.25-.49 1.18-.04 2.64.06 3.79-.06a.86.86 0 0 0 .42-.16Zm-40.5-8.56c-.27.09-.18.48.07.59.11.05 1.05.23 1.15.22.32-.03.47-.51.04-.66-.19-.06-1.11-.21-1.26-.16Zm3.51.29c-.31.01-1.04-.02-.94.41.09.39 1.6.36 1.7 0 .14-.48-.5-.42-.76-.41Zm-4.67 2.23c.05-.03.3-1.09.27-1.18-.06-.24-.28-.23-.38 0-.06.14-.28 1.13-.22 1.19.09-.01.27.03.33 0Zm-.63.64c-.06.02-.56.93-.58 1-.06.24.2.29.37.16s.85-1.38.21-1.17Zm-1.03 1.72c-.06.02-.74.76-.77.81-.1.22.06.32.26.26.24-.07 1.27-1.3.51-1.08Zm-1.22 1.44c-.13-.13-1 .44-1.13.56-.22.22-.08.38.19.34.19-.03 1.15-.67.93-.89Zm-1.94.97c-.05 0-.96.34-1.01.37-.26.18-.17.4.16.37.13-.01.86-.28.96-.35.22-.15.05-.41-.12-.39Zm-1.77.61s-1.3.07-1.35.13c-.38.53 1.14.31 1.3.21.1-.06.03-.25.04-.35Z" class="cls-12"/><path d="M95.31 79.23c0-.24.07-.56.07-.72v-5.57c0-.05-.35-.87-.41-1 .22-.23.27-.74.45-.96.25-.31 1.49-1.09 1.92-1.45.15-.13.26-.3.38-.41.93-.83 1.76-1.61 2.54-2.61.17-.21.34-.42.5-.64.34-.48.63-1 .95-1.49-.37 1.15-.58 2.44-.94 3.63-1.21 3.96-3.06 7.85-5.45 11.22Zm2.27-14.57c-.4 1.19-1.66 2.96-2.61 3.82-.09.08-.14.17-.28.17.22-3.94.87-7.71 1.99-11.48.13.04.17.19.22.3 1.03 2.08 1.42 4.98.68 7.2Z" class="cls-12"/><path d="M44.47 19.28c.47-.09.68 1.05.24 1.15s-.75-1.05-.24-1.15Z" class="cls-11"/><path d="M35.41 57.02c.22.94.4 1.91.54 2.87.22 1.56.4 3.2.29 4.77-.31.06-.64.45-.92.55-.54.19-1.6-.3-2.07-.62-1.92-1.3-1.31-3.61-.17-5.23.65-.92 1.55-1.6 2.34-2.34Z" class="cls-12"/><ellipse cx="61.82" cy="56.63" class="cls-12" rx="44.63" ry="43.49"/></g><g id="Livello_12" data-name="Livello 12"><path d="M85.96 34.61c-1.25-1.21-2.4-2.53-3.61-3.79-6.13-.43-12.31-.64-18.43-1.03-.79-.05-1.8.18-2.03-.85.16-2.14-.21-4.57 0-6.68.11-1.11 1.29-.94 2.1-.93 4.89.09 9.82.29 14.71.42 1.98.05 4.49-.13 6.39.14.32.05.87.54.87.85V34.6ZM62.9 21.83c-.44.08-.7.41-.74.84-.18 1.82.14 3.93 0 5.78.11.72.72.82 1.34.86.78.05 1.63.02 2.41.06 5.66.3 11.32.63 16.98.83 1.03.04 2.32.47 2.44-.99-.14-1.9.18-4.05 0-5.92-.04-.41-.25-.85-.68-.97-.26-.07-1.08-.09-1.41-.1-6.01-.24-12.07-.26-18.09-.34-.72 0-1.53-.19-2.25-.06Z" style="fill:#4547ea"/><path d="M31.91 41.83s-.16.06-.28.07l.28-.07Z" class="cls-5"/><path d="M62.9 21.83c.72-.13 1.53.05 2.25.06 6.02.08 12.08.1 18.09.34.33.01 1.15.04 1.41.1.43.11.64.55.68.97.19 1.86-.14 4.02 0 5.92-.13 1.46-1.42 1.03-2.44.99-5.67-.2-11.32-.52-16.98-.83-.78-.04-1.63 0-2.41-.06-.62-.04-1.23-.14-1.34-.86.14-1.85-.18-3.96 0-5.78.04-.43.3-.76.74-.84Z" class="cls-11"/></g><g id="Livello_13" data-name="Livello 13"><path d="M94.62 28v.21c-.03-.05-.09-.12-.14-.21.04 0 .11.01.14 0Z" class="cls-1"/><path d="M69.98 42.97c-.09.08-.3.15-.42.16-1.15.13-2.6.03-3.79.06-5.74.18-11.52.42-17.25.49l-3.2.2c-.03-.12.05-.14.1-.21.66-.87 1.81-1.64 2.5-2.52v-5.01c.07-.46.34-.79.81-.85.31-.04.76-.05 1.09-.07 6.21-.43 12.55-.65 18.77-.89.73-.03 1.58-.34 1.81.66-.15 2.22.23 4.76 0 6.94-.03.26-.24.87-.43 1.05Zm-1.92-8.28c-3.43.08-6.85.36-10.26.53-2.65.13-5.33.14-7.98.34-.56.04-1.28.02-1.34.72l.03 6.5c.18.69 1.67.49 2.27.48 5.03-.09 10.09-.32 15.12-.49 1.07-.04 2.14.04 3.2-.1.3-.1.51-.67.55-.97v-6.46c-.23-.78-.96-.58-1.6-.57Z" class="cls-16"/><path d="M68.06 34.69c.63-.01 1.36-.21 1.59.57v6.46c-.03.3-.24.87-.54.97-1.06.14-2.14.06-3.2.1-5.04.17-10.09.4-15.12.49-.61.01-2.09.21-2.27-.48l-.03-6.5c.06-.7.78-.68 1.34-.72 2.65-.2 5.33-.21 7.98-.34 3.41-.17 6.84-.46 10.26-.53Z" class="cls-6"/></g><g id="Livello_14" data-name="Livello 14"><path d="M94.48 71.05c.08.32.34.61.48.89.06.13.41.94.41 1v5.57c0 .16-.06.49-.07.72-.19 7-.77 14.16-1.58 21.11-.13 1.1-.3 2.21-.43 3.32-.03.14-.13.27-.26.33-.21.1-1.45.11-1.72.07-.04 0-.16-.06-.19-.09-.15-.17-.08-1.38-.09-1.7-.06-5.7-.35-11.19-.76-16.85-.02-.28.02-.57 0-.86-.13-1.7-.32-3.39-.41-5.09.05-.12-.1-.14-.14-.1s-.32.78-.36.91c-.23.63-.42 1.3-.59 1.95-.52 1.86-.93 3.76-1.24 5.67-.15.2-.31 1.32-.38 1.65-.94 4.63-1.65 9.31-2.39 13.98-.04.29-.32.56-.6.6-.24.04-1.75-.13-1.99-.21-.3-.1-.46-.57-.48-.86-.15-1.75.03-3.93.07-5.71.04-1.81.1-3.59.2-5.4.33-5.66.99-11.28 1.95-16.86.14-.84.77-3.19.73-3.84.16.03.3.1.45.13.84.14 2.02.24 2.88.28 2.16.1 4.44.06 6.5-.62Z" class="cls-14"/><path d="M84.1 105.71c.36 1.31.75 2.04.69 3.51-.8.23-1.52.23-2.34.28.03-.98-.01-1.95-.07-2.92-.01-.17.08-.39.07-.45.31.06.65.1.96.07l.28-.07c.43-.14.13-.4.41-.41Z" class="cls-8"/><path d="m91.39 106.19.07 3.3c-.61.01-1.25.02-1.86 0l-.14-2.89c.52-.49.99-.98 1.65-1.31-.04.4-.02.61.28.89Z" class="cls-14"/><path d="M93.24 109.42c-.6 0-1.19.06-1.79.07l-.07-3.3c.82.07 1.24.23 1.44-.69.12.23.19.49.26.74.21.85.49 2.38.16 3.18Z" class="cls-8"/><path d="m79.84 106.67.07 2.89h-1.07l-2.16-.14c.08-.24.6-.83.79-1.03s.59-.59.79-.76c.45-.36 1.07-.69 1.58-.96Z" class="cls-5"/><path d="M84.17 104.13c-.05.54-.18.98-.07 1.51v.07c-.28.01.02.27-.41.41-.02 0-.26.07-.28.07-.31.03-.65 0-.96-.07 0-.02-.25-.25-.28-.34-.11-.49.08-1.32 0-1.86.24.08 1.76.24 1.99.21Zm8.87-.14c-.07.47-.1 1.06-.21 1.51-.21.91-.62.76-1.44.69-.3-.28-.32-.49-.28-.89.04-.37.24-.84.21-1.24.27.04 1.51.03 1.72-.07Z" class="cls-7"/><path d="M84.79 109.21c-.02.46.13.64-.44.69-1.7.15-3.76-.03-5.51 0-.49 0-2.48.42-2.16-.48l2.16.14h1.07c.86.01 1.7-.02 2.54-.07s1.53-.04 2.34-.28Z" class="cls-11"/><path d="m89.46 106.6.14 2.89c-.62-.02-1.24-.1-1.86-.14-.03-.78 1-2.14 1.55-2.68.05-.05.16-.05.17-.07Z" class="cls-5"/><path d="M89.6 109.49c.61.02 1.25.01 1.86 0s1.19-.07 1.79-.07c-.04.1.03.18-.14.31-.42.32-2.97.28-3.61.24-.34-.02-1.19-.08-1.48-.17-.21-.07-.26-.25-.27-.45.62.04 1.24.12 1.86.14Z" class="cls-11"/><path d="M82.17 105.78c.02.09.27.32.28.34 0 .06-.08.27-.07.45.06.97.11 1.94.07 2.92-.84.05-1.68.08-2.54.07l-.07-2.89c.73-.39 1.5-.81 2.34-.89Z" class="cls-14"/><path d="M87.06 46.57c0 .09-.03.14.04.21.15.15.89.44 1.12.51 1.26.38 2.59.29 3.85-.04-.1-.23-.05-.46-.07-.69 1.45.23 3.05.27 4.47.58 1.21.26 1.92 1.01 2.68 1.93 1.41 1.7 2.84 4.17 3.44 6.29.65 2.27.67 4.68-.03 6.94-.23.73-.64 1.38-.86 2.06-.32.5-.61 1.01-.95 1.49-.15.22-.33.43-.5.64-.8-.43-1.54-.93-2.25-1.5-.09-.08-.27-.12-.3-.15-.02-.02-.02-.19-.14-.21.74-2.22.35-5.12-.68-7.2-.05-.11-.09-.26-.22-.3a49.674 49.674 0 0 0-1.99 11.48c-.04.64 0 1.5-.07 2.1-.02.13-.06.21-.14.31-2.06.68-4.34.72-6.5.62-.86-.04-2.04-.14-2.88-.28-.16-.03-.3-.11-.45-.13-.03-.43-.07-.63-.07-1.13.02-1.99-.16-3.68-.57-5.62-.6-2.8-1.6-5.49-2.59-8.17-1.29.77-2.64 1.44-4.11 1.77-3.05.68-5.68.16-8.47-1.08-.11-1.16.18-2.3.62-3.37 3.91.49 6.84-1.06 9.8-3.37 1.14-.89 2.17-1.98 3.47-2.65s2.88-.86 4.33-1.06Z" class="cls-16"/><path d="M97.71 64.86v4.26c-.12.11-.23.29-.38.41-.43.36-1.67 1.14-1.92 1.45-.18.22-.23.73-.45.96-.14-.29-.4-.57-.48-.89.08-.1.12-.17.14-.31.07-.6.03-1.46.07-2.1.14 0 .19-.09.28-.17.95-.86 2.21-2.62 2.61-3.82.12.01.12.19.14.21Z" class="cls-7"/><path d="M87.54 87.9c.31-1.9.73-3.81 1.24-5.67.18-.64.36-1.32.59-1.95.05-.13.33-.88.36-.91s.19-.02.14.1c.09 1.7.29 3.39.41 5.09.02.28-.02.58 0 .86-.57.49-1.1 1.04-1.65 1.55-.27.25-.92.68-1.1.93Z" class="cls-12"/><path d="m83.69 106.12-.28.07s.25-.06.28-.07Z" class="cls-5"/><path d="M68.83 57.02c-1.81-.81-3.35-1.91-4.97-3.04-.32-.22-.62-.48-.92-.73-2.19.62-4.43.8-6.69.61.06-.59.22-1.16.73-1.5l3.79-1.6c.09-.76-.99-.7-1.29-1.27-.07-.13-.24-.76-.04-.78 1.18.66 2.92 1.06 3.85 2.06.21.23.46.74.6.88.09.09 1 .54 1.19.63 1.24.6 2.99 1.21 4.36 1.38-.44 1.07-.73 2.21-.62 3.37Z" class="cls-7"/><path d="m91.8 36.53.21-.07h.14c.06.11.23.06.34.07.1.02.19 0 .32.05.77.31 1.29 1.34.74 2.07-.16.22-.53.36-.58.59-.09.47.32.72.34 1.17.01.52-.47 1.02-.96 1.13-.02-.09-.4-.44-.5-.5-1.01-.52-1.38.69-1.84 1.32-.26.36-1.84 2.61-2.04 2.67-.12.04-.37.03-.5.01-.35-.03-1.07-.24-1.44-.34 0-.03-.04-.06-.07-.07-.04 0-.1.01-.14 0l-.07-.07s-.1.01-.14 0l-.07-.07s-.1.01-.14 0l-.07-.07s-.1.01-.14 0l-.07-.07s-.1.01-.14 0l-.07-.07s-.11.01-.14 0l-.07-.07s-.09-.04-.14-.07l2.48-2.48c.2.24.4.49.69.62 0 .03.04.07.07.07h.28c.05 0 .1-.03.14-.07.3-.08.43-.22.61-.46.61-.82 1.06-1.97 1.63-2.84.06-.22-.24-.85-.38-1.03l.17-.28 1.2-1.24s.31.07.34.07Z" class="cls-8"/><path d="M91.59 42.93c.06 1.22.29 2.43.41 3.64.02.23-.03.46.07.69-1.26.32-2.59.41-3.85.04-.23-.07-.98-.36-1.12-.51-.07-.07-.05-.12-.04-.21.03-.44.42-1.04.41-1.51.13.01.38.02.5-.01.2-.06 1.78-2.31 2.04-2.67.08.15-.06.29.03.48.04.09.35.27.46.3.38.11.77-.02 1.09-.23Zm-3.85-5.99c.77.41 1.84.38 2.34 1.03.14.18.44.81.38 1.03-.57.87-1.02 2.02-1.63 2.84-.18.24-.31.38-.61.46-.05.01-.11 0-.14.07h-.28c-.02-.02-.04-.06-.07-.07-.28-.13-.48-.38-.69-.62-.02-.02-.02-.11-.07-.17-.25-.28-.72-.9-1.1-.93l1.79-3.64h.07Z" class="cls-7"/><path d="M90.36 34.4c.38.59.07.88.24 1.3.1.25.41.24.55.34.09.06.23.37.31.42l-1.2 1.24-.17.28c-.49-.65-1.57-.62-2.34-1.03-.03-.17.04-.21.14-.31.63-.63 1.5-1.56 2.16-2.1.1-.08.16-.16.31-.13Z" class="cls-14"/><path d="M90.36 34.4c-.16-.03-.21.05-.31.13-.66.55-1.53 1.47-2.16 2.1-.1.1-.17.14-.14.31h-.07c-1.01-.58-1.13-1.34-.47-2.29.75-1.08 2.35-1.49 3.15-.25Z" class="cls-5"/><path d="M85.89 40.59c.38.03.86.65 1.1.93.05.06.05.15.07.17l-2.48 2.48c-.07-.04-.14 0-.24-.14-.25-.33.05-.91.17-1.27.13-.39.64-1.69.86-1.96.14-.17.3-.23.51-.21Z" class="cls-14"/><path d="M92.35 41.55c.12.46-.38 1.13-.76 1.38-.32.21-.71.34-1.09.23-.1-.03-.42-.21-.46-.3-.09-.19.05-.34-.03-.48.45-.63.82-1.84 1.84-1.32.11.05.48.41.5.5Z" class="cls-10"/><path d="M100.26 66.51c-.78 1-1.62 1.78-2.54 2.61v-4.26s.2.07.3.15c.71.57 1.44 1.07 2.25 1.5Z" class="cls-6"/><path d="M38.41 86.55c.41.16 1.05-.24 1.47-.09l-.21 11.28c-.08.19-.13 1.13-.14 1.41-.1 2.32.02 5.09.9 7.26.33.82.68 1.48 1.38 2.06-.08 0-.21.15-.45.14-.09 0-.62-.17-.66-.21-.01-.01-.01-.12-.07-.17-.61-.64-1.33-1.7-1.86-2.44-.49-.7-.92-1.46-1.44-2.13.07-.04.32-.53.36-.64.2-.58.12-1.02-.01-1.59-.02-.11.05-.12-.14-.1-.26.7-.83 1.28-1.09 1.98-.22.61-.28 1.3-.36 1.94-.12 1.04-.25 2.1.14 3.09-.23-.05-.63-.01-.89-.14-.84-.4-.51-2.05-.55-2.86-.03-.7-.08-1.43-.14-2.13-.03-.33-.07-.68-.14-1 1.12-.2 1.92-3.43 2.4-4.36-.41-2.25-1.03-4.46-1.48-6.69-.12-.58-.21-1.06-.23-1.66 0-.23-.41-4.24-.41-4.47 1.06.58 2.49 1.09 3.62 1.54Z" class="cls-7"/><path d="M34.52 102.2c.07.32.11.67.14 1 .06.7.11 1.43.14 2.13.04.81-.29 2.46.55 2.86-.2.36.09.85-.21 1.17h-.21l-.28-.07c-.61-.14-.7-.28-.76-.93-.09-1.03-.05-2.13-.14-3.16-.01-.13-.07-.25-.07-.38l-1.37 1.69-.28-.15c.39-.74.89-1.44 1.17-2.23.18-.52.22-1.09.53-1.56s.35-.29.77-.36Z" class="cls-14"/><path d="M37.34 103.64c.53.68.95 1.43 1.44 2.13-.24.24-.14.86-.14 1.21 0 .1-.07.21-.07.24-.19-.26-.4-.52-.62-.76-.24-.27-.2-.18-.14.07.23.95.14 2.09.35 3.06.02.16-.12.34-.24.17-.14-.2-.36-2.09-.48-2.54-.17-.63-.45-1.11-.59-1.79-.09-.45-.26-1.34.14-1.68.14-.12.28-.07.34-.11Z" class="cls-8"/><path d="M40.71 108.39c-.08.45-.08.91-.07 1.38h-.21l-.21-.07h-.07l-.34-.21c-.16-.12-.24-.19-.36-.37-.11-.17-.88-1.8-.88-1.9 0-.03.07-.13.07-.24 0-.34-.1-.97.14-1.21.52.74 1.24 1.8 1.86 2.44.05.05.06.16.07.17Z" class="cls-14"/><path d="M41.81 108.46c.45-.05 1.59.96.89 1.27-.2.09-1.73.05-2.06.04 0-.46-.01-.92.07-1.38.04.03.57.21.66.21.24 0 .37-.13.45-.14Zm-5.57-.14c.35.08 1.39.5.82.99-.19.16-1.44.13-1.76.11-.09 0-.15-.07-.17-.07.3-.32 0-.81.21-1.17.26.12.66.08.89.14Zm1.72-1.86-.14.07c-.06-.25-.1-.33.14-.07Zm-3.03 2.89c-.13-.02-.19-.05-.28-.07l.28.07Zm5.5.41c-.14-.01-.17-.06-.21-.07l.21.07Zm-.27-.06c-.23-.08-.18-.08-.34-.21l.34.21Z" class="cls-5"/><path d="M31.63 86.52c-.07-.05-.11-.12-.14-.14l.14.14Z" style="fill:#494bf2"/><path d="M45.25 88.45c-.32.53-2.65 4.44-2.97 4.97-.07.11-.08.25-.12.32-.7 1.17-1.79 2.33-2.47 3.53-.08.14.11-3.63.06-3.53l1.3-6.19c1.12.38 3.04.64 4.19.89Z" class="cls-1"/><path d="M42.15 50.63s.03.15.08.23c.49.68 1.03 1.52 1.43 2.25.73 1.31 2.25 4.46 1.72 5.91-.08.21-.61.89-.77 1.19-.87 1.66-2.1 4.83-2.39 6.65-.98.26-1.97.25-2.97.12-.25-.03-.53-.15-.74-.19.26-.33.02-.78-.18-1.09-.42-.68-1.27-1.19-2.09-1.04.11-1.57-.07-3.21-.29-4.77-.14-.96-.32-1.92-.54-2.87.9-.85 1.47-2.05 1.44-3.32s-.93-1.81-2.06-1.15c.54-.91 1.65-1.53 2.61-1.93 0 .08-.02.38 0 .41.71.19 1.51.24 2.21 0 .14-.05.81-.4.86-.48s0-.23.02-.33c.32-.02.63.05.94.13.14.04.64.21.71.28Z" class="cls-2"/><path d="M41.47 40.18c-.09-.13-.26-.24-.31-.41-.81.82-2.09 1.05-3.19 1.25-.05.27-.09.55-.15.82-.08.41-.17.82-.21 1.24-.2-.02-.33-.22-.53-.26-.43-.09-.76 0-.92.43-.31.88.67 1.41 1.41 1.49.13.01.3-.07.38-.04.14.05.65.71.82.86-.43 1.39-.88 2.77-1.17 4.19-.06.28-.18.62-.21.89-.96.4-2.07 1.02-2.61 1.93-.56.33-2.44 2.44-2.89 3.03-1.45-.21-3.31-1.36-3.09-3.05.08-.63.51-1.02.96-1.41-.91-.21-1.63-.85-2.06-1.65l5.09-7.63c.58.03 1.09.17 1.65.27-.32-.9-.47-1.63.14-2.44.09-.12.33-.28.37-.38.16-.36.05-.69.38-1.13.6-.81 1.2-.62 2.03-.72.88-.11 1.45-.31 2.38-.1 1.43.32 1.81 1.51 1.72 2.86Z" class="cls-5"/><path d="M45.11 79.71c.22.77 1.56 4.8 1.43 5.25-.03.1-.17.17-.19.26-1.32.34-2.64.74-3.99.96-.79.13-1.67.22-2.48.28-.57.04-1.37.14-1.93.07-.7-.09-2.48-1.13-3.16-1.51-.52-2.81-1.28-5.58-1.84-8.38-.15-.75-.33-1.52-.43-2.28l12.58 5.36Z" class="cls-14"/><path d="M38.51 66.79c.21.03.49.15.74.19 1 .13 1.99.14 2.97-.12-.15.94-.09 2.03.1 2.96.64 3.13 1.9 6.77 2.79 9.9l-12.58-5.36c-.08-.61-.13-1.24-.14-1.86v-.55c0-1.19.31-2.5.91-3.53.24-.41.58-.74.81-1.15.41.09 1.23.28 1.61.2.13-.02.51-.4.72-.52.78-.42 1.23-.3 2.06-.17Z" class="cls-8"/><path d="M33.08 59.36c-1.14 1.61-1.75 3.92.17 5.23.47.32 1.52.81 2.07.62.28-.1.62-.5.92-.55.82-.15 1.67.36 2.09 1.04.2.32.44.76.18 1.09-.83-.13-1.28-.25-2.06.17-.21.11-.6.49-.72.52-.38.07-1.2-.12-1.61-.2-1.55-.32-3.41-1.02-4.44-2.27-1.76-2.13-.24-5.26.93-7.29.07.12.17.22.28.31.49.37 1.33.95 1.86 1.24.11.06.2.12.34.11Z" class="cls-6"/><path d="m51.3 53.93 2.2 1.31c-1.36 2.88-4.95 4.98-8.11 3.78.54-1.45-.99-4.6-1.72-5.91 1.37 1.22 3.38 2.9 5.35 2.43.74-.18 1.82-1 2.28-1.61Z" class="cls-10"/><path d="M35.41 57.02c-.78.74-1.69 1.42-2.34 2.34-.14.02-.23-.05-.34-.11-.53-.29-1.37-.87-1.86-1.24a.932.932 0 0 1-.28-.31c.39-.68.84-1.51 1.31-2.13s2.33-2.69 2.89-3.03c1.12-.67 2.02-.14 2.06 1.15s-.54 2.47-1.44 3.32Zm15.89-3.09c1-1.31 1.07-2.7.8-4.28-.14-.82-.68-1.99-.42-2.74.16-.46.46-.55.64-.87.17-.3.1-.93.41-.32.28.56.1.72-.05 1.26.65-.04 1.22-.81 1.5-1.35.11-.22.4-1.13.46-1.19.37-.39.68.68.72.94.2 1.49-.8 2.39-1.99 3.03.16.66.45 1.28.59 1.95.38 1.78.33 3.24-.45 4.88l-2.2-1.31Zm-8.12-9.7c.1.86-.02 1.84-.89 2.27-.11.06-.35.1-.48.14-.05.01-.11 0-.14.07-.23.02-.46-.02-.69 0-.31-.11-.64-.19-.94-.33s-1-.61-1.26-.84c-.17-.14-.68-.8-.82-.86-.08-.03-.26.05-.38.04-.74-.08-1.72-.61-1.41-1.49.15-.43.48-.52.92-.43.21.04.33.24.53.26.03-.42.12-.83.21-1.24l5.36 2.41Z" class="cls-7"/><path d="m32.8 41.83-5.09 7.63c-1.52-2.83.62-7.16 3.92-7.56.11-.01.25-.07.28-.07.27-.02.62-.01.89 0Z" class="cls-14"/><path d="M41.47 40.18c.64.96 1.58 2.93 1.72 4.06l-5.36-2.41c.06-.27.1-.54.15-.82 1.09-.2 2.38-.43 3.19-1.25.05.17.22.28.31.41Z" class="cls-6"/><path d="M46.35 85.22c-.04.18.09.59.07.86-.05.83-.83 1.64-1.17 2.37-1.59-.21-2.68-.48-4.19-.89l1.31-1.38c1.35-.22 2.66-.63 3.99-.96Z" class="cls-10"/><path d="M42.29 46.5c.88 1.3.91 2.92-.14 4.13-.07-.08-.58-.25-.71-.28-.3-.08-.62-.14-.94-.13.09-.59.03-1.08.07-1.65 0-.01.07-.08.07-.17.04-.54 0-1.11.13-1.65.03-.09.14-.04.21-.04.23-.02.46.02.69 0 .06 0 .12 0 .14-.07.14-.04.37-.08.48-.14Zm-9.9 25.99a.5.5 0 0 1 0-.55v.55Z" class="cls-5"/><path d="m42.36 86.18-1.31 1.38c-.15-.04-.45-.02-.62-.07-.16-.05-.36-.15-.55-.21v-.83c.8-.06 1.69-.15 2.48-.28Z" class="cls-12"/><path d="M39.88 86.45v.83c-.64-.2-1.35-.41-1.93-.76.55.07 1.35-.03 1.93-.07Z" class="cls-7"/><path d="M40.57 48.56c-.04.57.02 1.06-.07 1.65-.01.1.04.24-.02.33s-.72.43-.86.48c-.7.25-1.5.2-2.21 0-.02-.03-.01-.33 0-.41.03-.27.15-.62.21-.89l2.96-1.17Z" class="cls-1"/><path d="M40.98 46.71c-.07 0-.18-.04-.21.04-.12.54-.09 1.1-.13 1.65 0 .09-.07.16-.07.17l-2.96 1.17c.29-1.43.74-2.81 1.17-4.19.26.23.95.69 1.26.84s.63.22.94.33Zm.83-.07c-.02.07-.08.06-.14.07.03-.07.08-.05.14-.07Z" class="cls-10"/><path d="M83.2 17.29c.68.43 1.49.96 2.2 1.44.05.03.11.05.14.07.79.55 1.82 1.32 2.54 1.93.15.13.34.29.48.41.55.48 1.28 1.19 1.79 1.72.1.1.27.33.41.48.67.73 1.3 1.51 1.93 2.27.06.07.04.29.28.28-.02.29.33.59.48.83.28.43.56.87.83 1.31.05.08.11.16.14.21.6 1.02 1.19 2.17 1.66 3.25.28.64.93 2.09.95 2.73 0 .18-.01.45-.07.62-.07.2-.71 1.03-.89.89-.55-1.48-1.22-2.93-1.98-4.31-6.1-10.97-18.78-17.49-31.32-15.76-6.03.83-11.78 3.78-15.58 8.56-.04.18.66.36.81.55.19.24.18.5 0 .75-1.9 1.71-3.64 3.61-5.53 5.33-.47.43-1.14 1.22-1.41.17.07-1.57.18-3.14.28-4.71.06-.89.07-1.79.14-2.68.03-.36.04-.85.09-1.19.22-1.43 1.94.5 2.46.19 3.16-4.4 7.99-7.34 13.19-8.75.89-.24 1.8-.4 2.7-.64 1.16-.09 2.31-.33 3.47-.41 6.76-.46 13.65 1.13 19.54 4.39.1.06.28.06.3.08Z" class="cls-16"/><path d="M17.98 54.43s.32.37.33.47c1.18 11.63 5.77 23.61 16.38 29.58.68.38 2.46 1.43 3.16 1.51.58.34 1.28.55 1.93.76.19.06.39.16.55.21 0 .13-.03.23-.11.34-.48.71-1.24 1.4-1.71 2.14-.07.11-.12.2-.11.34-1.13-.44-2.24-.93-3.3-1.51s-2.28-1.32-3.3-2.06c-.09-.06-.18-.14-.28-.21l-.14-.14c-6.99-5.3-11.06-13.41-12.89-21.87-.68-3.12-1.11-6.36-1.2-9.56.18.04.55-.05.69 0Z" class="cls-2"/><path d="M45.14 87.92c3.61.48 7.2.47 10.82 0 .45-.06.9-.15 1.35-.2.07-.07-1.02-1.38.1-1.51 1.06-.12 2.42-.03 3.51-.06 1.42-.05 2.83-.12 4.26-.14.19 0 .35-.08.54-.07.42.02.72.33.54.74-1.83 2.08-3.73 4.11-5.62 6.14-.77.44-1.19-1.29-1.52-1.73-4.39.93-9 1.21-13.46.61-.78-.1-1.76-.24-2.52-.4-1.15-.25-2.39-.65-3.51-1.03-.42-.14-.83-.32-1.24-.48 0-.14.04-.23.11-.34.47-.74 1.23-1.43 1.71-2.14.07-.11.11-.21.11-.34.16.05.47.03.62.07 1.51.42 2.61.68 4.19.89Z" class="cls-2"/></g></svg>