<svg xmlns="http://www.w3.org/2000/svg" viewBox="0 0 120 120"><defs><style>.cls-1{fill:#bccffb}.cls-2{fill:#4143e2}.cls-3{fill:#7e98f4}.cls-4{fill:#4c51c7}.cls-5{fill:#e1e9fd}.cls-6{fill:#13097a}.cls-7{fill:#fff}.cls-8{fill:#1a0f8b}.cls-9{fill:#feaeac}.cls-10{fill:#91b3fa}.cls-12{fill:#0d0468}.cls-13{fill:#fe9b98}.cls-14{fill:#fd820e}.cls-15{fill:#10066f}</style></defs><ellipse id="Livello_17" cx="59.6" cy="64.78" data-name="Livello 17" rx="50.43" ry="49.22" style="fill:#e2eafd"/><g id="_4_icona" data-name="4_icona"><path d="M14.09 91.7c1.12 1.12 2.63.88 4.07.96 1.54.08 3.08.14 4.62.2.09 0 .2.06.31.07.53.02 1.11-.07 1.61.07h-.96c.16 1.11-.47 1.88-1.57 1.99l.47 3.35c.22 3.16.85 6.32.96 9.48.02.5.16 1.5-.62 1.24-.27-.09-.27-.4-.32-.64-.78-3.93-1.25-8.15-1.87-12.13-.07-.45-.18-.91-.21-1.37h-1.03c-2.08-.02-4.15-.1-6.23-.07l-2.14 13.92c-.15.52-.88.41-.92-.13.35-4.62.82-9.24 1.55-13.82-2.11-.04-2.28-2.91-.17-3.12h2.43Zm70.17 1.03c-.14.2-.02.1.06.18.64.61.74 1.82.45 2.63-.1.28-.6.82-.89.82h-5.17v11.43c.93.01 1.87-.02 2.81 0 .72.01 1.75-.2 1.78.82H72.96c-.12-.34.35-.82.65-.82h3.94V96.46l-.1-.1h-4.66c-.27 0-.75-.46-.87-.71-.17-.38-.18-1.55-.11-1.98.05-.31.29-.62.53-.8.11.08.15.12.3.14.94.11 2.33 0 3.32 0 1.23 0 2.47.02 3.7 0 .24 0 .56-.07.72-.07h2.67c.25 0 .92-.15 1.2-.21Z" class="cls-3"/><path d="M19.56 94.92h1.03c.03.46.14.91.21 1.37-.17-.01-.27-.16-.38-.27-.3-.32-.63-.72-.86-1.1Z" class="cls-5"/><path d="M94.12 105.67c-.1.08-.15.09-.27.07v-.07h.27Zm-68.6-36.91c-.06.21-.23.33-.34.48v-.48c.1.01.24 0 .34 0Z" class="cls-10"/><path d="M81.18 64.24c-.03.17-.19.1-.27.14v-.14c.09 0 .18.01.27 0Zm-.55 0c-.06.11-.23.06-.34.07.07 0 .19-.06.34-.07Z" class="cls-8"/><path d="m46.13 76.91.07-.21c-.02.13-.07.19-.07.21Z" class="cls-3"/><path d="M67.15 49.25v-.14l.07.1-.07.03Z" class="cls-6"/><path d="M92.75 101.69c-.02.06 0 .18-.03.27-.13.41-.92 2.53-.86 2.76.07.04.16.16.21.19 0 .53-.36 1.05-.34 1.57-.55.11-1.75.24-2.19.55-.02-.14.03-.25.08-.37.49-1.38 1.1-2.72 1.64-4.08.44-.19.87-.54 1.26-.83.06-.04.19-.23.24-.06Z" class="cls-7"/><path d="M86.66 83.62c.53-.16.45.57.41.92-.05.53-.26.18-.48.38-.09.09-.08.16-.07.27h-.96c.53-.45 1.24-.72 1.1-1.57Z" class="cls-5"/><path d="M37.3 83.28c.61-.14 1.36-.46 1.99-.31.29.07 1.21.72 1.54.93.15.09.49.24.51.41-1.73 0-3.47.01-5.2 0l-.41-.68c.26.02 1.23-.27 1.57-.34Z" class="cls-9"/><path d="M26.21 93.07c-.28 0-.66.06-.89-.07.28 0 .66-.06.89.07Zm1.5.07c-.28 0-.66.06-.89-.07.28 0 .66-.06.89.07Z" class="cls-3"/><path d="M46.81 55.34c.03-.23-.02-.51.07-.75.34.03.64 0 .96-.07-.26.36-.65.61-1.03.82Z" class="cls-1"/><path d="M45.03 66.91h-.21v-.07c.08 0 .2-.03.21.07Z" class="cls-2"/><path d="M80.09 78.55c.33.2.94 1.09 1.22 1.48.6.83 1.12 1.72 1.72 2.55-.2.06-.41.15-.62.21-.42-1.49-1.44-2.73-2.25-4.02-.05-.08-.05-.18-.08-.23Z" class="cls-5"/><path d="M80.09 78.55s-.07.02-.12-.01c-.06-.04-.32-.48-.32-.6.21.2.31.38.45.61Z" class="cls-3"/><path d="M80.7 64.52s.04-.05.07-.07c-.02.02-.04.06-.07.07Z" class="cls-8"/><path d="M21.33 24.56c.21-.07.46.05.43.29-.03.26-1.48 1.34-1.72 1.65-.21.12-.49-.02-.46-.26.03-.31 1.47-1.38 1.75-1.68Zm41.98 6.15c-.09.29-.46.66-.62.96.05-.52.05-2 .31-2.39.17-.24.47-.16.51.1.02.12-.16 1.18-.21 1.33Zm-2.44-1.6c-.07-.06-.72-.87-.74-.93-.1-.31.16-.5.42-.35.14.08.79.88.82 1.03.08.33-.27.44-.5.25Z" class="cls-10"/><path d="M48.87 53.51c.02-.25-.08-.83-.14-1.1 5.19-6.57 1.22-16.16-6.83-17.78-6.85-1.37-13.56 3.71-13.44 10.83 0 .4.24 1.59.11 1.88-.09.2-.42.25-.61.13-.22-.15-.3-1.1-.32-1.39-.52-8.63 7.81-14.51 15.9-11.86 7.84 2.56 11.09 12.35 5.77 18.88-.11.13-.27.38-.45.41Z" class="cls-1"/><path d="M44.35 46.59c-.57.18-1.07.75-1.03 1.37l-.07.07h-.27c-.03-.09-.13-.07-.21-.07 2.39-3.21-1.01-7.44-4.7-5.9a3.711 3.711 0 0 0-2.18 2.61c-.66 3.06 2.43 5.58 5.31 4.45-.06.2-.11.7-.07.89-3.49 1.09-6.93-2.09-6.04-5.67.36-1.47 1.57-2.75 3.02-3.21 3.51-1.12 6.88 1.86 6.24 5.46Zm-1.71 9.72-.34.96c-2.88.55-5.94.03-8.47-1.43-.37-.21-1.18-.57-1.02-1.04.22-.67 1.15.17 1.5.36 2.58 1.37 5.46 1.89 8.33 1.15Z" class="cls-1"/><path d="M77.42 38.38c.3-.9.51-2.34.48-3.29 1.83-.32 2.9-2.18 2.18-3.93-.74-1.81-3.18-2.27-4.58-.93-.78-.66-1.92-1.3-2.88-1.64 1.89-2.5 5.28-3.17 8.01-1.61 2.46 1.41 3.53 4.47 2.7 7.16-.79 2.57-3.25 4.26-5.92 4.24Z" class="cls-10"/><path d="M77.07 39.2c.08-.16.29-.68.34-.82 2.67.01 5.13-1.68 5.92-4.24.83-2.69-.24-5.74-2.7-7.16-2.73-1.56-6.13-.89-8.01 1.61-.2-.07-.64-.23-.82-.27 2.76-4.09 8.9-4.01 11.57.17 3.1 4.85-.64 11.06-6.3 10.72Z" class="cls-1"/><path d="M80.8 27.07c-.72.61-1.64 1.74-2.1 2.57-1.73-.67-3.61.38-3.89 2.24s1.55 3.58 3.44 3.16c.32.97.98 2.1 1.62 2.89-2.9 1.17-6.16 0-7.7-2.75-1.39-2.48-.73-5.65 1.37-7.53 2-1.79 4.98-1.97 7.26-.59Z" class="cls-10"/><path d="M57.63 73.49c.05.33.47.66.72.89 3.45 3.32 7.02 6.53 10.48 9.86.27.26.71.6.79.96h-4.79c-.08-.36-.52-.7-.79-.96-3.41-3.28-6.92-6.46-10.34-9.72-.23-.22-.51-.47-.65-.75.16-.17.27-.25.51-.28 1.15-.14 2.85 0 4.08 0Zm2.58 4.32c-1.18.11-.5 2.98.72 2.71 1.03-.22.37-2.82-.72-2.71Z" class="cls-6"/><path d="M43.8 70.2v.14c-.04.67-.59 1.68-.67 2.38-.03.26 0 .41.29.43 1.18-.01 2.35.06 3.53.07-.19 1.17-.6 2.3-.75 3.49l-.07.21v.07c-2.71.8-5.56 1.22-8.35.55.03-1.28-.2-2.97-.27-4.31-.01-.2-.06-.39-.07-.62v-.41c.64 0 1.18-.15 1.78-.27.98-.2 1.76-.42 2.69-.83.63-.28 1.23-.7 1.89-.88Z" class="cls-14"/><path d="M53.04 73.76c.14.29.42.53.65.75 3.42 3.26 6.93 6.44 10.34 9.72.27.26.71.6.79.96-2.51 0-5.04-.07-7.53-.07-.29-.17-.42-.42-.56-.71-1.48-3-2.39-6.61-3.83-9.66-.1-.4-.16-.68.14-1Z" class="cls-8"/><path d="m61.53 73.49.16.32c2.13 1.93 4.17 3.98 6.27 5.95.24.23.73.73.96.89.11.07.21.11.34.11.44.94.93 1.87 1.37 2.81.09.2.18.41.27.62.15.33.35.67.41 1.03H69.6c-.08-.36-.52-.7-.79-.96-3.45-3.33-7.02-6.53-10.48-9.86-.25-.24-.66-.56-.72-.89h3.9Z" class="cls-15"/><path d="M45.99 85.19h-12.6c-.26-.36-.09-.56.07-.89.8.08 1.84 0 2.67 0 1.73.01 3.47 0 5.2 0 1.12 0 2.24.03 3.36-.03.45-.96.98-1.9 1.3-2.91.21-.29.38-.67.54-1 .94-1.99 1.83-4.01 2.76-6.01.26-.5 1.02-.37 1.02.2 0 .15-.26.65-.33.83-1.28 2.91-2.8 5.74-3.98 8.68v1.13Z" class="cls-8"/><path d="M61.53 73.49c1.03 0 2.4-.11 3.38 0 .89.11 1.31.76 1.68 1.47.96 1.86 1.79 3.88 2.68 5.78-.13 0-.23-.03-.34-.11-.23-.16-.72-.66-.96-.89-2.11-1.96-4.14-4.01-6.27-5.95l-.16-.32Z" class="cls-12"/><path d="M93.37 83.28h3.77c.82 0 1.65-.01 2.46 0 .57.01 1.35-.19 1.44.58.02.18.02.58 0 .76-.03.25-.2.34-.21.58H86.52c0-.11-.03-.19.07-.27l13.14-.1v-1.16l-13.08-.1s-.09.02-.12-.01c-.05-.06 0-.19-.01-.26h6.85Z" class="cls-8"/><path d="M78.85 85.19h-5.13l-.27-1.03h5.17c.46.16.48.65.24 1.03Z" class="cls-6"/><path d="m73.45 84.17.27 1.03h-2.4c-.06-.36-.26-.7-.41-1.03h2.53Z" class="cls-8"/><path d="M60.21 77.81c1.09-.1 1.75 2.49.72 2.71-1.22.27-1.9-2.6-.72-2.71Z" class="cls-3"/><path d="M86.59 84.92c.22-.2.43.15.48-.38.04-.36.11-1.09-.41-.92v-.07l13.08.1v1.16l-13.14.1Z" class="cls-10"/><path d="M64.82 85.19h36.01c.3-.02.73.11.76.44.02.25-.41 1.66-.6 1.81-.13.1-.44.2-.61.21-.93.11-2.08-.05-3.05 0-.09 0-.18-.02-.26 0l-3.4 8.68c-.07.35.32.96.45 1.3.56 1.47 1.21 2.94 1.78 4.38.02.05 0 .17.03.27.89 2.27 1.83 4.53 2.64 6.81.02.48-.42.64-.76.33-.79-2.07-1.65-4.12-2.46-6.18-.55-1.41-1.08-2.84-1.64-4.24-.14-.36-.29-.9-.46-1.21-.04-.08 0-.12-.15-.09-.59 1.63-1.21 3.25-1.85 4.86-.54 1.36-1.15 2.7-1.64 4.08-.04.12-.1.23-.08.37-.05.03-.1.06-.12.12-.32.68-.53 1.63-.88 2.26-.06.11-.17.05-.16.15h1.57c-.07.11-.26.07-.38.07-.48 0-.99.02-1.47 0-.17-.14-.35-.25-.34-.51 0-.2.44-1.26.55-1.55.48-1.28 1.01-2.56 1.51-3.83.93-2.37 1.94-4.73 2.85-7.12v-.28l-3.4-8.68c-1.36-.02-2.73 0-4.1 0H41.47c-1.36 0-2.91-.1-4.24 0-.09 0-.22-.04-.28.04-.77 2.04-1.61 4.05-2.39 6.08-.04.11-.04.24-.07.31-.07.19-.24.44-.33.67-.22.58-.48 1.16-.63 1.75.84 1.87 1.41 4.09 2.31 5.91.06.13.14.25.22.36l.15.63c.48 1.34 1.11 2.64 1.63 3.95.1.25.62 1.61.62 1.75 0 .44-.52.72-.81.26-.34-.54-.71-1.82-.97-2.48-.82-2.07-1.61-4.17-2.46-6.23l-1.1-2.94c-.16-.03-.11.02-.15.09-.16.25-.22.67-.33.94-.92 2.28-1.8 4.57-2.67 6.85 0 0-.09.04-.12.12-.06.17-.39.86-.29.97.4.11 1.32.27 1.67.01.09-.07-.07-.22.38-.28.78-.1 2.18-.15 2.91.07.58.17 1.72.95 1.95 1.51-.31.23-.76.12-1.13.14-1.78.1-3.91.25-5.66-.02-.24-.04-.47-.11-.7-.19-.07 0-.02.09-.04.14-.13.33-.45 1.31-.69 1.47-.39.26-.7-.14-.61-.54.68-1.83 1.46-3.61 2.12-5.45.1-.28.22-.41.27-.75.1-.07.12-.17.17-.28.67-1.53 1.29-3.22 1.88-4.79.09-.24.49-1.15.47-1.32-.83-2-1.57-4.04-2.38-6.05-.04-.11-.14-.15-.14-.16-.02-.05 0-.17-.03-.27-.15-.37-.32-.74-.44-1.13-.01-.01-.29-.09-.35-.11.08-.02.32.07.27-.1-.04-.13-.37-.89-.45-.92-1.31-.11-2.74.1-4.03 0-.51-.04-.76-.18-1.09-.56-.13-.15-.8-1.1-.83-1.23-.1-.36.42-.72.76-.69h22.15c3.76 0 7.56-.07 11.3-.07 2.49 0 5.02.07 7.53.07Zm-34.3 3.7c.22.55.47 1.1.68 1.64.03.07.02.2.06.31.58 1.47 1.2 2.92 1.72 4.41.1 0 .11-.1.14-.17.34-.66.51-1.41.75-2.09.13-.37.3-.4.34-.96.18.04.14-.08.19-.19.46-1.06 1.28-2.86 1.56-3.92.02-.09.05-.18.03-.27h-5.96c.1.43.32.82.48 1.23Zm65.66-1.23h-5.96l2.98 7.53 2.98-7.53Zm12.18-14.58c.24.77 1.37 4.72 1.22 5.22-.03.1-.17.17-.19.25l-9.11 1.51c.36-1.64.78-3.27 1.03-4.93.12 0 .28.04.33-.12l2.41-11.32h-.2l-2.39 11.2c-1.09.08-2.26.09-3.23-.5.6-3.28 1.38-6.52 2.05-9.79 0-.12-.3-.69-.39-.83-.06-.1-.16-.14-.22-.09-.07.07.45.8.41.98l-2.04 9.46c-.01.12-.04.27.03.37.01.02.36.26.38.27-.18 1.87-.39 3.75-.62 5.61l-.28-.17c-.95-3.41-1.84-6.86-2.67-10.31-.18-.02-.11 0-.14.1-.37 1.26-.49 2.73-.85 4.01-.05.19-.06.3-.17.48-.9-1.15-1.81-2.29-2.74-3.42l2.29-11.5c.27-.62.84-1.08 1.47-1.3.06.18.2.46.27.68.04.12.19.7.22.74.03.03.18.05.24.06 1.05.17 2.07-.42 2.9-.98-.06-.34-.22-.65-.33-.97-.03-.08 0-.18-.02-.22.51-.12 1.14.04 1.66.16 2.1.47 4.6 1.71 4.65 4.19 0 .36-.15.72-.06 1.08.1.4.68 1.33.89 1.78 1.2 2.68 2.34 5.45 3.21 8.26Zm-14.45-8.15-.2.1c.36 1.28.51 2.66.86 3.93.04.13.04.41.23.35l-.89-4.38Z" class="cls-4"/><path d="M24.15 70.54c.79.6 1.8 1.13 2.53 1.78 1.62 1.45 2.34 4.41 3.39 6.3.92 1.66 2.61 3.13 4.19 4.16.24.16 1.26.82 1.46.83l.41.68c-.83 0-1.87.08-2.67 0-.44-.04-1.18-.37-1.6-.56-1.99-.89-3.8-2.34-5.08-4.1-1.86 1.91-3.51 4.04-5.13 6.17-.46.61-.99 1.24-1.34 1.91-.79.03-1.65.3-2.46.34-1.45.08-2.88-.13-4.31-.27 0-.02-.12-.05-.14-.12-.05-.21.26-1.95.34-2.28 1.32-5.56 4.8-11.07 9.49-14.36.29-.2.7-.34.91-.49Zm.88 5.49c-.32-.06-.45.01-.39.35.1.49 1.36 2.71 1.73 3.07.26.25.51.06.44-.22-.04-.14-.86-1.28-1.03-1.58-.29-.52-.53-1.06-.75-1.61Z" class="cls-4"/><path d="M109.39 78.55c-.06.25.36 2.23.41 2.7.32 3.09.21 6.51 0 9.62l-5.27.89c-.1-1.28-.2-2.56-.34-3.83-.07-.65-.11-1.37-.21-2.01-.01-.08-.02-.32-.13-.32-.77 1.71-1.65 3.38-2.47 5.07l-.76.37-4.58.93c.4-1.22.93-2.69 1.25-3.92.03-.13.07-.26.05-.4.97-.05 2.11.11 3.05 0 .17-.02.48-.11.61-.21.19-.15.62-1.55.6-1.81-.03-.34-.46-.47-.76-.44 0-.24.18-.33.21-.58.02-.18.02-.58 0-.76-.09-.77-.87-.57-1.44-.58.21-1.07.45-2.15.68-3.22l9.11-1.51Zm-5.75 4.11-.21.1c.16.75.16 1.56.29 2.31.02.11 0 .31.19.26l-.27-2.67Z" class="cls-6"/><path d="M109.8 90.88c-.12 1.87-.34 3.77-.56 5.64-.42 3.55-1.02 7.07-1.64 10.58-.06.02-.14 0-.2 0l-2.26-.21h-.34c-.07-.07.13-1.81.14-2.09.21-4.35-.06-8.71-.41-13.05l5.27-.89Zm-8.42-.21c-.84 1.73-1.63 3.48-2.46 5.2v.07l-.07.07c-.97 2.01-1.95 4.03-2.94 6.02-.57-1.44-1.22-2.91-1.78-4.38.62-1.81 1.18-3.63 1.78-5.45.04-.11.13-.2.14-.23l4.58-.93.76-.37Z" class="cls-8"/><path d="M17.85 88.07v.38c1.57 1.39 3.18 2.75 4.75 4.15.09.08.19.11.18.26-1.55-.06-3.08-.12-4.62-.2-1.44-.08-2.95.16-4.07-.96-.75-.75-.9-1.75-.82-2.77.02-.25.28-1.07.27-1.13 1.43.14 2.86.36 4.31.27Z" class="cls-15"/><path d="M95.35 103.27c-.37.42-.87 2.12-1.23 2.4h-.27c-.42-.04-1.41-.52-1.78-.75-.04-.03-.14-.15-.21-.19-.06-.23.73-2.34.86-2.76.03-.1.01-.21.03-.27.29-.89.64-1.78.96-2.67.56 1.41 1.09 2.83 1.64 4.24Z" class="cls-8"/><path d="M91.73 106.49c.02.78 1.16 1 1.64.48-.02.86.7 2.27-.59 2.46-.88.13-1.94.13-2.83.14h-1.57c-.01-.11.1-.05.16-.15.36-.64.57-1.58.88-2.26.02-.06.07-.08.12-.12.44-.31 1.64-.43 2.19-.55Z" class="cls-12"/><path d="M46.74 104.36c-1.31 1.16-2.63 2.42-4.05 3.45-.56.41-1.23.94-1.91 1.07-.04-.02-.1-.06-.14-.07-.15-.43-.29-.89-.48-1.3.35-.1 1.4-.58 1.3-1.03.13 0 .19-.09.27-.17.87-.79 2-2.02 3.22-2.16.39-.04 1.48-.03 1.78.21Z" class="cls-4"/><path d="M105.14 108.68s.12.11.19.12c.17.02.35 0 .52.03.34.06.72.35.94-.02.54.5 1.51 2.73.31 2.88-.61.07-2.26.07-2.88 0-1.14-.13-.34-1.44.02-1.97.11-.16.78-1.05.91-1.05Z" class="cls-12"/><path d="M33.19 99.5c-.36 1.81-.76 3.63-1.23 5.41-.03.13-.19.78-.22.81-.04.04-.31.08-.4.08-.42.04-.97-.04-1.37-.21.87-2.28 1.75-4.57 2.67-6.85.15.2.33.39.48.58.05.06.05.15.07.17Z" class="cls-8"/><path d="M39.21 105.94c-.02.22.2.16.28.25.08.1.59 1.13.68 1.32.19.41.33.87.48 1.3-.09-.02-.24 0-.34 0-.07-.11-.28-.07-.41-.07-1.04-.01-1.7.11-1.44-1.16.04-.19.47-1.61.55-1.64.03-.02.15 0 .21 0Z" class="cls-15"/><path d="M107.4 107.1c-.07 0-.25-.02-.27 0-.06.06-.3 1.48-.35 1.71-.22.37-.6.08-.94.02-.17-.03-.34-.01-.52-.03-.07 0-.16-.12-.19-.12v-1.78l2.26.21Zm-13.55-1.43v.07c-.14.35-.47.86-.48 1.23-.49.52-1.62.3-1.64-.48-.01-.52.33-1.04.34-1.57.37.23 1.36.71 1.78.75Z" class="cls-9"/><path d="M88.3 107.58c-.11.29-.54 1.34-.55 1.55-.01.25.17.37.34.51-.36-.02-1.31-.05-1.59-.15-.12-.04-.25-.22-.24-.35.03-.37 1.62-1.42 2.04-1.55Z" class="cls-12"/><path d="M31.34 105.8v.62h.27c-.45.06-.29.21-.38.28-.34.26-1.26.1-1.67-.01-.1-.12.22-.8.29-.97.03-.07.12-.11.12-.12.39.17.95.24 1.37.21Z" class="cls-9"/><path d="M54 56.65c.25.85.5 1.71.88 2.51.33.69.78 1.3 1.18 1.94-.43.24-.87.46-1.3.68-1.62.02-3.28.14-4.89.27-1.03.09-2.43.16-3.42.35-.28.05-.36.08-.47.35-.49 1.23-.73 2.82-1.14 4.09v.07c-.47.01-.66.04-.96.45-.24.33-.34.74-.34 1.13-1.4.56-2.77 1.1-4.31 1.03-.81-.04-1.28-.15-1.85-.75l.14-3.15c-.16-.04-.11.04-.16.09-.22.26-.55.88-.6 1.21-1.25-.62-2.64-1.02-4.04-1.1.03-.17.02-.37.07-.55.61-2.24 2.81-4.7 4.62-6.09.24-.19.62-.51.89-.62.36-.14 3.7-.8 3.86-.69.09.06.14.24.48.38.97.38 1.6.27 2.53-.03.06-.02.17 0 .27-.03.35-.14.9-.42 1.03-.79.32.05.63-.06.92-.07.94-.04 1.94.06 2.88 0 1.16-.07 2.28-.38 3.39-.68.09-.02.26.03.34 0Z" class="cls-14"/><path d="m83.51 76.43-.2.17c1.03 1.51 1.9 3.13 2.56 4.83.04.1.01.22.03.27-.94.34-1.92.6-2.88.89-.6-.83-1.12-1.72-1.72-2.55-.28-.39-.89-1.29-1.22-1.48-.14-.23-.23-.42-.45-.61 0 .12.26.56.32.6.05.03.11 0 .12.01.03.04.03.14.08.23.81 1.29 1.83 2.53 2.25 4.02-2.4.69-4.37 1.18-6.91.62-.65-.75-1.41-1.4-2.09-2.12-2.21-2.36-3.29-3.42-2.14-6.8.39-1.15 1.01-2.71 1.57-3.77.13-.25.2-.49.54-.52.02.05.2.21.28.23.62.18 1.97-.09 2.58-.35.09-.04.14-.15.15-.15.2-.07.51.2.68.32.41.28.88.67 1.27.99 1.79 1.49 3.41 3.26 4.79 5.14.11.09.25.07.38.06Z" class="cls-4"/><path d="M46.13 76.98c-.14 1.43-.12 2.94-.14 4.38-.32 1.01-.85 1.95-1.3 2.91-1.12.06-2.24.03-3.36.03-.02-.18-.36-.32-.51-.41-.33-.2-1.24-.86-1.54-.93-.63-.15-1.38.18-1.99.31 0-.99.05-1.99.14-2.98.08-.88.32-1.93.34-2.77 2.79.67 5.64.25 8.35-.55Z" class="cls-15"/><path d="M54.76 61.78c.49 0 .97.05 1.46.08.12.04.19.23.17.35-.74 1.57-1.57 3.1-2.38 4.64l-6.56 1.56c-.11.01-.34.05-.43.02-.02 0-.31-.28-.34-.34.32.17.88-.38.68-.61-.08-.1-2.05-.54-2.32-.55 0-.1-.12-.07-.21-.07.42-1.28.65-2.86 1.14-4.09.11-.27.19-.3.47-.35.99-.19 2.39-.26 3.42-.35 1.62-.13 3.28-.26 4.89-.27Zm-.35.69c-.6.01-1.21-.02-1.82 0-1.3.04-2.87.12-4.17.29-.58.07-1.41.11-1.7.7-.15.3-.52 1.59-.59 1.95-.05.27-.02.24.25.22.17-.51.39-1.92.72-2.26.22-.22.92-.28 1.25-.33 1.29-.18 2.67-.23 3.96-.29.31-.01 1.97.07 2.06-.06.05-.07.03-.14.03-.21Zm-3.92 1.79c-1.02.21-.69 1.84.38 1.68s.93-1.95-.38-1.68Z" class="cls-12"/><path d="M54 66.85c-.95 1.79-1.85 3.64-2.98 5.33-.11.17-.58.9-.67.97-.08.06-.12.06-.21.07-.84.11-2.28 0-3.19 0-1.18 0-2.35-.08-3.53-.07-.29-.02-.32-.17-.29-.43.08-.7.63-1.71.67-2.38.35.02.71-.01 1.03-.18.08-.04.11-.15.14-.17s.11-.02.17-.07c.15-.12.43-.5.56-.54.31-.09.52.3.91.02.34-.25-.12-.3-.13-.58.29.02.52-.1.55-.41.09.03.32 0 .43-.02l6.56-1.56Z" class="cls-15"/><path d="M96.52 51.51c-.39-.18-1.15.12-1.23.59-.09.54.17.86.25 1.31.19 1.03.3 2.08.49 3.12-.02.11-.09.18-.16.26-.16.18-1.03.75-1.27.89-.22.12-1.45.7-1.61.69-.35-.02-.63-.77-.78-1.08-.26-.56-.82-1.61-.56-2.15.98-.53 3.01.72 2.79-1.11-.05-.43-.62-2.46-.8-2.83-.21-.43-1.04-.5-1.47-.44s-1.12.74-1.68.88c-.6.16-1.28.1-1.59-.5-.63-1.25-.15-3.04 1.49-2.92.78.05.85.68 1.18.75.26.05.37-.16.55-.18.14-.02.29.08.46.06.16-.02.59-.7 1.01-.84.62-.2 1.61 0 1.75.75.05.28-.05.68.05.91.14.31.91.18 1.16.75.16.35.14.76-.03 1.1Z" class="cls-14"/><path d="M80.29 64.31c.11 0 .28.04.34-.07h.27v.14l-.14.07c-.03.02-.05.04-.07.07-.36.12-.73.27-1.1.34l-3.58-.7-.5-.67c-.17-.03-.99 1.02-1.33.96-.04-.34.03-.58-.12-.94-.31-.74-1.26-.47-1.24.21 0 .21.36 1.2-.04 1.21-.06 0-.54-.7-.72-.86-.66-.59-1.47-.95-2.33-.51.04-.1.06-.22.14-.3.64-.7 1.65-1.36 2.33-2.06.35-.35.16-.43-.21-.62a3.99 3.99 0 0 0-.96-.31c1.65-1.11 4.33-.6 5.95.38.94.57 2.19 1.81 2.54 2.87.06.19.13.73.17.79.06.1.44.01.58 0Z" class="cls-15"/><path d="M90.97 71.09c.92 1.13 1.84 2.28 2.74 3.42-.13.2-.81.64-1.05.76-1.33.69-2.62.3-3.41-.92-1.12-1.73-2.16-4.14-3.14-6 .25.06.25-.12.27-.31v-2.43c1.43 1.83 3.1 3.66 4.59 5.48Zm-4.45 12.19c.02.07-.04.2.01.26.03.03.12 0 .12.01v.07c.15.85-.57 1.12-1.1 1.57h-6.71c.24-.38.22-.86-.24-1.03h-7.7c-.09-.2-.18-.42-.27-.62.6-.35 1.01-1 1.55-1.42 1.13.34 2.17 1.03 3.31 1.29 2.55.57 4.51.08 6.91-.62.21-.06.41-.14.62-.21.96-.29 1.93-.55 2.88-.89.19.5.47 1.02.62 1.57ZM60.1 57.74c0 .15-.09.24-.17.34-.84 1.11-2.65 2.34-3.87 3.01-.4-.64-.85-1.25-1.18-1.94-.38-.8-.62-1.66-.88-2.51.53-.16 1.18-.47 1.71-.68 1.35-.55 2.43-1.07 3.63-1.92.21-.15.5-.32.68-.48.1 1.07.1 2.24.07 3.32 0 .2-.06.36-.07.54 0 .1.07.22.07.31Zm14.1 6.71c.04.36.23.45.27.72.03.22.03.83 0 1.06-.1.75-.57 1.64-1 2.25-.12.16-.35.27-.37.49-.46.31-.68.46-1.27.41-1.49-.11-2.77-2.95-2.91-4.25-.03-.3-.01-.67.07-.96.28-.22.43-.45.75-.62.86-.44 1.66-.08 2.33.51.18.16.66.86.72.86.4 0 .05-.99.04-1.21a.634.634 0 0 1 1.24-.21c.15.36.09.59.12.94Z" class="cls-9"/><path d="M86.39 65.61v2.43c-.02.19-.02.36-.27.31-.4-.77-.78-1.56-1.23-2.3-.09-.04-1.65.41-1.92.45-.44.07-1.15.12-1.61.14-.36.02-2.87 0-2.98-.15.02-.33.16-.84.37-1.08.24-.28.6-.31.85-.55.37-.07.73-.22 1.1-.34.03 0 .05-.04.07-.07.03-.02.1-.06.14-.07.08-.03.24.03.27-.14.15-.02 1.56-.5 1.58-.58s-.01-.16-.04-.23c-.25-.61-1.27-.38-1.33-1.48 0-.11-.06-.26.09-.23.43.09 2.2.99 2.65 1.26 1.27.75 1.43 1.58 2.26 2.64Z" class="cls-13"/><path d="M71.05 60.27c.31.05.69.16.96.31.37.19.55.27.21.62-.68.69-1.69 1.35-2.33 2.06-.08.09-.1.2-.14.3-.32.16-.48.4-.75.62-.03.02-.18.03-.27.11-.22.17-.39.42-.62.58-1.32-.65-1.26-1.98-.58-3.14.74-1.26 2.12-1.69 3.52-1.44Z" class="cls-12"/><path d="m91.66 55.14-1.16-3.49c.56-.15 1.24-.82 1.68-.88s1.26 0 1.47.44c.18.37.75 2.4.8 2.83.22 1.83-1.81.58-2.79 1.11Z" class="cls-9"/><path d="M63.79 50.21c-.43 2.5-1.62 5.06-3.19 7.04-.13.17-.29.45-.51.49 0-.09-.08-.21-.07-.31.01-.19.07-.35.07-.54.03-1.09.02-2.25-.07-3.32 1.23-1.02 2.25-2.29 2.74-3.83.04.29.37.73.7.67.12-.02.22-.16.32-.2Zm32.73 1.3c.21.1.4.61.41.85.05.61-.17.9-.33 1.42.38.94.68 1.91 1.02 2.86-.17.05-.35.25-.48.38-.57.55-1.22 1.34-1.81 1.82-.1.08-.15.16-.31.13-.08-.23-.22-.5-.27-.68-.05-.16-.04-.44-.14-.62.24-.14 1.1-.72 1.27-.89.07-.08.14-.15.16-.26-.18-1.03-.3-2.09-.49-3.12-.08-.46-.34-.78-.25-1.31.07-.46.84-.77 1.23-.59Z" class="cls-13"/><path d="M29.49 61.51s.1-.02.14.05c.45.72.38 1.71-.28 2.28-.07.06-.24.14-.34.21-.29.2-.64.42-.96.58-.37.19-1.91.78-2.06 1.02-.3.5.5 1.6.41 1.68-.06.06-.16 0-.22-.09-.22-.33-.43-.88-.94-.71-.31.1-.26.42-.2.66.18.69.87.84.95 1.07.16.52-.1.48-.47.5-.11 0-.24.01-.34 0-.35-.04-1.32-.3-1.22-.77.02-.11.25-.32.2-.39 0-.01-.22-.07-.29-.14-.06-.05-.04-.13-.05-.14l5.68-5.82Z" class="cls-15"/><path d="m66.05 45.35-1.09 1.14c.4.7.8 1.2.46 2.04-.35.86-.79 1.37-1.63 1.69-.1.04-.2.18-.32.2-.33.05-.66-.38-.7-.67s-.03-1.6.08-1.81.68-.82.88-1.04c.65-.72 1.41-1.36 2.12-2.02.05.13.14.3.21.48Z" class="cls-9"/><path d="M76.39 69.93s-.07.11-.15.15c-.61.26-1.95.54-2.58.35-.08-.02-.27-.18-.28-.23-.02-.06.01-.19-.02-.29-.07-.21-.27-.76-.26-.94.02-.21.26-.32.37-.49.43-.61.9-1.51 1-2.25l1.92 3.7Z" class="cls-13"/><path d="M97.61 56.65c.11.32.31.67.41.96.02.04 0 .14.02.22.11.32.27.63.33.97-.83.57-1.84 1.16-2.9.98-.06 0-.21-.04-.24-.06-.03-.03-.18-.61-.22-.74.16.03.21-.05.31-.13.59-.48 1.24-1.26 1.81-1.82.13-.12.31-.33.48-.38Z" class="cls-9"/><path d="M25.04 67.19c.16-.03.21.05.31.13.75.62 1.44 1.55 2.19 2.19l.51.27c-.14.09-.65.84-.75 1.03l-2.53-.96c.12-.14.28-.45.41-.62.11-.15.28-.27.34-.48.36-.02.63.02.47-.5-.07-.23-.77-.38-.95-1.07Z" class="cls-13"/><path d="M27.3 70.82c-.25.44-.43 1.03-.62 1.51-.73-.65-1.75-1.18-2.53-1.78.04-.03.54-.59.62-.68l2.53.96Zm40.33 18c1.42 1.22 2.86 2.53 4.31 3.7-.25-.09-.45 0-.68 0 .04-.22-.11-.12-.24-.13-.83-.11-1.67-.19-2.5-.28 0 1.15-.03 2.54-.45 3.63-.18.48-.93 1.47-.92 1.85-.15 0-.19.09-.26.18-.56.69-1.09 1.61-1.63 2.34-1.33 1.83-2.75 3.6-4.15 5.37-.06.09-.05.17-.04.27.02.14.33 1.13.4 1.29-1.18.51-2.51.77-3.8.89-.38.04-2.04.31-1.47-.34.03-.01.12 0 .2-.04 1.11-.59 2.2-1.37 3.29-2 1.36-4.43 2.75-8.96 4.67-13.18.21-.45.94-1.65.95-2.03.38-.18.56-.81.89-1.06.27-.2 1.08-.37 1.44-.45Z" class="cls-9"/><path d="m46.06 87.66.07 3.8c.2 3.16.33 6.36.77 9.5.07.52.64 3.34.58 3.54-.02.06-.11.12-.11.13-.12.11-.38.09-.48.14.02-.22.03-.28-.14-.41-.3-.24-1.39-.25-1.78-.21-1.38-5.42-2.57-10.91-3.08-16.5h4.18Z" class="cls-6"/><path d="M67.15 97.59c0-.38.74-1.37.92-1.85.41-1.09.44-2.48.45-3.63.83.09 1.67.17 2.5.28.13.02.28-.09.24.13-.62.01-1.24-.01-1.85.1.72.86 1.26 2.03 1.36 3.16.17 1.92-.03 4.06.09 6 .07.48.51 1.08 1.01 1.15-.3 1.25-.45 2.7-.95 3.88-.42.98-.85.99-1.89.9-.16-.01-.31-.12-.38-.13.15-.26.46-.4.58-.68.13-.31.6-2.6.58-2.9-.04-.55-.88-1.89-1.15-2.48-.43-.95-.91-2.01-1.24-3-.09-.26-.27-.68-.27-.93Z" class="cls-13"/><path d="m75.84 87.66.19.25c-.02 1.69.09 3.41-.06 5.09-.99 0-2.39.12-3.32 0-.15-.02-.19-.07-.3-.14-.05-.03-.13-.15-.21-.21.19-.1.19-.25.21-.44.09-1.14.06-2.89 0-4.04 0-.17-.08-.34-.07-.51h3.56Z" class="cls-15"/><path d="M72.28 87.66c0 .18.06.34.07.51.06 1.15.09 2.91 0 4.04-.02.2-.02.34-.21.44-.06-.05-.14-.09-.21-.14-1.45-1.17-2.89-2.48-4.31-3.7-.34-.29-.68-.6-1.03-.89-.1-.08-.22-.14-.27-.27h5.96ZM47.57 105.6l5.32 2.51c.37.36.31.66-.22.71-1.91.18-4.21-.31-6.16-.21-1.65-.14-.74-1.83-.79-2.87.04-.03.1-.04.14-.07-.05.33.43.39.65.41.37.04 1.11.06 1.06-.48Z" class="cls-12"/><path d="M71.87 102.93c.32.04 1.35-.07 1.35.43 0 .89-.64 2.39-1.01 3.22-.19.43-.66 1.49-.92 1.82-.11.14-.16.16-.32.23-.71.32-2.96.37-3.65.05-.33-.15-.11-.32.08-.48.22-.2.98-.66 1.26-.62.08.01.23.12.38.13 1.04.08 1.47.08 1.89-.9.5-1.18.65-2.64.95-3.88Zm-10.41 4.1c.1.22.36.41.41.72.03.21.02.72-.17.85-.14.09-1.24.23-1.51.27-1.98.31-4.05.56-6.05.35-.19-.23.98-1.07 1.17-1.19.29-.18.59-.29.88-.45-.56.65 1.1.38 1.47.34 1.29-.12 2.62-.38 3.8-.89Z" class="cls-8"/><path d="M67.63 88.82c-.35.08-1.17.24-1.44.45-.33.25-.51.88-.89 1.06.02-.5-.23-.82-.01-1.35s.95-.67 1.31-1.05c.34.29.68.6 1.03.89ZM47.57 105.6c.05.54-.69.51-1.06.48-.22-.02-.7-.08-.65-.41.27-.22.71-.74 1.03-.89.1-.05.36-.03.48-.14-.07.27.18.7.21.96Z" class="cls-13"/><path d="M41.47 87.66c-.04.72-.15 1.44-.2 2.16-.35 4.46-.43 8.95-.48 13.42 0 .45-.09.91-.07 1.4-.28-.3-.49-.7-.7-1.05-.68-1.14-1.3-2.32-1.97-3.47-.48-4.13-.81-8.3-.82-12.46 1.33-.1 2.88 0 4.24 0Z" class="cls-8"/><path d="M20.32 87.73c1.3-.06 3.24.26 4.59.41-.02.27-.02.53.2.72 1.6.55 3.3.87 4.93 1.33 0 .01.1.06.14.16.81 2.01 1.55 4.05 2.38 6.05.02.17-.37 1.07-.47 1.32-.18.03-.2-.04-.29-.15-.42-.49-.79-1.31-1.15-1.87-.06-.09-.06-.2-.21-.17 0-.09.01-.19-.03-.27-.34-.42-.54-1.78-.95-2-.09-.05-.17-.03-.25-.05-.37-.09-.59-.06-.96-.07h-.55c-.23-.13-.61-.07-.89-.07h-.62c-.23-.13-.61-.07-.89-.07h-.62c-.5-.14-1.08-.05-1.61-.07-.11 0-.22-.06-.31-.07 0-.16-.1-.18-.18-.26-1.57-1.4-3.18-2.76-4.75-4.15v-.38c.82-.05 1.68-.31 2.47-.34Z" class="cls-12"/><path d="M85.15 87.66c.99 1.94 2.1 4.43-.89 5.07-.28.06-.95.21-1.2.21h-2.67c-.16 0-.48.06-.72.07v-4.97l-.14-.37h5.61Z" class="cls-8"/><path d="M38.05 100.12c.67 1.15 1.3 2.32 1.97 3.47.21.35.42.75.7 1.05v.55c-.39.19-.76.53-1.16.68-.03.01-.06.07-.07.07-.08.02-.19-.01-.27 0-.06 0-.17-.02-.21 0 0-.13-.09-.19-.17-.27-.82-.89-2.1-1.92-2.77-2.87-.08-.12-.15-.23-.22-.36-.9-1.82-1.47-4.04-2.31-5.91.15-.59.41-1.18.63-1.75.09-.23.25-.48.33-.67 1.15 1.97 2.28 3.95 3.43 5.91.04.06.11.09.13.11Z" class="cls-12"/><path d="m79.54 87.66.14.37V93c-1.23.02-2.47 0-3.7 0 .15-1.68.04-3.4.06-5.09l-.19-.25h3.7Z" class="cls-6"/><path d="M34.22 92.04c-.04.56-.21.59-.34.96-.66-1.07-1.23-2.36-2.67-2.46-.22-.55-.47-1.09-.68-1.64.74.23 2.66.38 3.21.86.49.42.53 1.69.48 2.29Zm-3.77 3.49c.15-.03.15.08.21.17.36.56.73 1.38 1.15 1.87.09.11.11.18.29.15-.59 1.57-1.22 3.26-1.88 4.79-.04.1-.07.21-.17.28.2-1.2.27-2.84.34-4.07.05-.97.15-2.23.07-3.18Z" class="cls-8"/><path d="M33.87 93c-.24.68-.42 1.43-.75 2.09-.03.06-.04.16-.14.17-.51-1.49-1.14-2.95-1.72-4.41-.04-.11-.04-.24-.06-.31 1.44.11 2.01 1.4 2.67 2.46Z" class="cls-12"/><path d="M29.22 88.69c.06.01.34.09.35.11.11.39.29.75.44 1.13.04.1.02.23.03.27-1.63-.46-3.33-.78-4.93-1.33-.22-.19-.22-.45-.2-.72 1.32.15 3.05.25 4.31.55Z" class="cls-6"/><path d="M101.31 75.13c-.25 1.66-.67 3.29-1.03 4.93-.24 1.07-.47 2.14-.68 3.22-.82-.01-1.64 0-2.46 0v-1.3c.16.02.44.02.51-.14.1-.21.13-1.13.17-1.44.23-1.87.44-3.74.62-5.61.72.29 2.1.4 2.88.34Z" class="cls-9"/><path d="M25.03 76.03c.22.55.47 1.09.75 1.61.16.3.99 1.44 1.03 1.58.07.29-.17.48-.44.22-.37-.35-1.63-2.58-1.73-3.07-.07-.33.06-.41.39-.35Z" class="cls-12"/><path d="M41.47 106.49c.1.45-.95.93-1.3 1.03-.09-.19-.6-1.23-.68-1.32-.08-.09-.3-.03-.28-.25.09-.01.2.02.27 0l.07-.07c.41-.15.77-.5 1.16-.68 0 .13.66 1.08.75 1.3Z" class="cls-13"/><path d="M47.57 49.39c.38.97.94 1.99 1.16 3.01.06.26.16.84.14 1.1-.06.61-.48.91-1.03 1.03-.32.07-.62.1-.96.07-.21-.02-.59-.12-.82-.17-.6-.14-.82-.56-.89.34-.09 1.11.07 2.34 0 3.46-.93.31-1.56.42-2.53.03-.34-.13-.39-.31-.48-.38.04-.18.08-.45.14-.62.11-.31.23-.64.34-.96.01-.03.09-.09.12-.18.3-.83.55-1.68.9-2.49.08.04.8.27.86.27.42.02.1-.84 0-.96-.13-.15-.99-.12-1.06-.72-.06-.48.15-.5.57-.42.14.03.62.32.67.08.03-.15-.68-1.05-.49-1.3.18-.24 1.88-.57 2.3-.71.29-.1.82-.31 1.06-.48Z" class="cls-9"/><path d="M46.06 47.27s-.06.25-.18.4c-1.24 1.56-2.53 3.07-3.72 4.66-.15-.06-.56.04-.82-.03-.83-.22-.79-1.58.07-1.72.07-.21-.25-.46-.28-.58-.05-.19.01-.69.07-.89.22-.75.71-1.04 1.44-1.1h.61l.07-.07c-.04-.62.46-1.19 1.03-1.37.79-.25 1.19.2 1.71.68Z" class="cls-6"/><path d="M46.06 47.27c.05-.06.55-.53.62-.58 1.07-.7 1.68.84 1.57 1.7-.05.38-.38.79-.68 1-.24.17-.77.38-1.06.48-.42.15-2.12.48-2.3.71-.2.26.52 1.15.49 1.3-.05.24-.52-.06-.67-.08-.41-.08-.62-.05-.57.42.07.6.93.58 1.06.72.1.12.42.98 0 .96-.06 0-.79-.24-.86-.27-.19-.09-.7-.49-.89-.65-.13-.1-.57-.64-.62-.65 1.19-1.59 2.49-3.1 3.72-4.66.12-.15.16-.38.18-.4Z" class="cls-8"/><path d="M46.88 54.59c-.09.24-.04.52-.07.75-.07.52-.19 1.63-.34 2.05-.13.37-.68.65-1.03.79-.1.04-.21.01-.27.03.07-1.12-.09-2.35 0-3.46.07-.9.29-.48.89-.34.23.05.61.15.82.17Z" class="cls-13"/><path d="M36.75 66.91c-.1.78.09 1.3.62 1.85.57.6 1.03.72 1.85.75v2.4c-.6.12-1.14.28-1.78.27-3.47-.02-5.29-3.2-4.72-6.37 1.4.07 2.79.48 4.04 1.1Z" class="cls-9"/><path d="M43.53 68.49c0 .63.23 1.17.27 1.71-.66.18-1.26.6-1.89.88-.93.41-1.71.63-2.69.83v-2.4c1.54.07 2.91-.46 4.31-1.03Z" class="cls-13"/><path d="M44.83 66.91h.21l-.07 3.08s-.05.12-.14.17c-.31.16-.68.2-1.03.18v-.14c-.04-.54-.28-1.08-.27-1.71 0-.39.11-.8.34-1.13.3-.41.48-.43.96-.45Z" class="cls-9"/><path d="M79.61 64.86c-.25.24-.61.27-.85.55-.21.25-.35.76-.37 1.08.1.15 2.62.16 2.98.15.46-.02 1.16-.07 1.61-.14-.08.16-.15.32-.25.47-.12.18-.47.47-.3.62.11.1.31.12.41 0 .88 0 1.36-.05 2.19.27.03.01.09.05.14.07h.07c.02 0 .04.05.07.07.09.05.2.08.27.14.02.02.04.05.07.07 1.33 1.06 1.4 3.45-.25 4.24-.33.16-.71.16-.98.39-.03.11.48.52.58.65.52.75.41 1.91-.34 2.46-.24.18-.84.46-1.13.48-.13 0-.27.02-.38-.06-1.38-1.88-3-3.65-4.79-5.14-.39-.32-.86-.71-1.27-.99-.17-.11-.47-.38-.68-.32l-1.92-3.7c.03-.22.03-.84 0-1.06-.04-.27-.23-.36-.27-.72.34.07 1.16-.98 1.33-.96l.5.67 3.58.7Z" class="cls-8"/><path d="M45.03 66.91c.27.02 2.24.46 2.32.55.2.24-.36.78-.68.61.03.06.32.33.34.34-.03.31-.25.43-.55.41.01.28.48.33.13.58-.39.28-.59-.11-.91-.02-.13.04-.42.42-.56.54-.06.05-.14.05-.17.07l.07-3.08Z" class="cls-13"/><path d="M54.41 62.47c0 .07.02.14-.03.21-.09.13-1.75.05-2.06.06-1.29.05-2.67.11-3.96.29-.33.05-1.03.11-1.25.33-.33.34-.55 1.75-.72 2.26-.28.02-.3.05-.25-.22.07-.35.44-1.65.59-1.95.29-.58 1.13-.62 1.7-.7 1.29-.17 2.86-.25 4.17-.29.6-.02 1.21.02 1.82 0Z" class="cls-3"/><path d="M50.49 64.26c1.3-.27 1.43 1.53.38 1.68s-1.39-1.47-.38-1.68Z" class="cls-10"/><path d="m28.05 69.79-.51-.27c-.75-.64-1.44-1.57-2.19-2.19-.1-.08-.16-.16-.31-.13-.06-.24-.11-.55.2-.66.51-.17.73.37.94.71.06.1.16.15.22.09.09-.08-.71-1.18-.41-1.68.15-.24 1.69-.83 2.06-1.02.32-.16.66-.38.96-.58.6 1.33 1.37 2.65 1.5 4.15.08 1-.56 1.39-1.48 1.51-.28.04-.78-.04-.97.09Z" class="cls-9"/><path d="M97.13 81.98v1.3h-3.77c.51-.36 1.04-.75 1.58-1.06.58-.33.79-.52 1.53-.44.22.02.49.17.66.2Z" class="cls-13"/><path d="M31.53 19.8c-.24.23-1.83.51-2.21.77-.26.02-.38-.26-.27-.48s1.89-.65 2.21-.81c.25-.03.48.32.27.52ZM14.55 33.24c.26-.07.46.24.33.47-.24.27-.78 1.98-.97 2.04-.15.05-.38 0-.42-.18-.05-.19.67-1.84.83-2.09.05-.09.13-.22.24-.25Zm-1.99 5.27c.34-.12.46.03.43.36-.06.63-.4 1.38-.42 2.04-.13.31-.6.25-.59-.11s.29-1.61.41-1.99c.03-.11.05-.26.18-.3Zm13.76-16.59-1.88 1.1c-.34.12-.68-.17-.38-.47.41-.4 1.44-.77 1.94-1.13.27-.1.54.28.32.5Zm-8.76 6.6c.28-.03.34.23.26.46-.17.45-1.04 1.24-1.26 1.75-.33.27-.58-.04-.43-.43.06-.16 1.03-1.48 1.18-1.63.07-.06.16-.15.25-.16Zm18.3-10.15c.39-.04 1.62-.32 1.19.42-.82.11-1.66.24-2.49.27-.56-.66.89-.65 1.3-.68ZM11.62 44.15c.05-.17.36-.21.51-.11.12.09.07 1.41 0 1.51-.13.21-.51.07-.51-.03 0-.3-.06-1.15 0-1.37Zm47.72 9.89c-1.19.85-2.28 1.37-3.63 1.92-.44.04-1.11-.18-1.53-.06-.13.04-.49.58-.53.74-1.11.3-2.23.61-3.39.68-.94.06-1.93-.05-2.88 0-.3.01-.6.13-.92.07.15-.43.27-1.54.34-2.05.38-.21.77-.46 1.03-.82.55-.12.97-.42 1.03-1.03.17-.03.34-.28.45-.41 5.32-6.53 2.06-16.31-5.77-18.88-8.09-2.65-16.42 3.23-15.9 11.86.02.3.1 1.25.32 1.39.19.12.51.07.61-.13.14-.29-.1-1.48-.11-1.88-.12-7.12 6.59-12.21 13.44-10.83 8.05 1.62 12.03 11.21 6.83 17.78-.23-1.02-.78-2.04-1.16-3.01.3-.21.63-.62.68-1 .11-.86-.5-2.4-1.57-1.7-.07.04-.57.52-.62.58-.52-.49-.92-.93-1.71-.68.64-3.6-2.74-6.58-6.24-5.46-1.44.46-2.65 1.74-3.02 3.21-.89 3.57 2.56 6.76 6.04 5.67.03.12.35.37.28.58-.86.14-.91 1.5-.07 1.72.26.07.67-.02.82.03.04.02.49.55.62.65.19.16.7.56.89.65-.36.81-.61 1.66-.9 2.49-.03.09-.11.15-.12.18-2.87.74-5.75.22-8.33-1.15-.34-.18-1.28-1.03-1.5-.36-.16.47.65.83 1.02 1.04 2.53 1.46 5.59 1.97 8.47 1.43-.06.16-.1.44-.14.62-.16-.11-3.5.55-3.86.69-.27.1-.65.43-.89.62-1.81 1.39-4.01 3.85-4.62 6.09l-3.42-1.44c.66-.57.73-1.56.28-2.28-.04-.06-.13-.04-.14-.05-.04-.05-.05-.19-.14-.27l.14-1.34-.04-.24c-1.05-.78-2.07-1.63-2.94-2.6-.18-.19-.99-1.29-1.06-1.34-.21-.12-.8.01-1.06-.04l-3.07.21c-.18-.02-.3-.24-.37-.39l-1.86-4.44c.04-.35 2.76-2.3 3.07-2.82.02-.68-.16-1.36-.19-2.04-.06-1.19.02-2.39.19-3.56-.03-.18-2.35-2.05-2.69-2.37-.18-.18-.47-.38-.45-.65l1.88-4.56c1.42-.19 2.87.24 4.31.13 1.12-1.45 2.39-2.82 3.93-3.84 0-1.35-.15-2.71-.26-4.06l.1-.24 4.67-1.91c.18-.03.69.55.84.71.42.45.78.96 1.2 1.41.14.16.93 1.02 1.02 1.02 1.88-.34 3.79-.21 5.67 0l2.65-2.96c.3-.13.55.04.82.14 1.38.5 2.75 1.25 4.14 1.74.15.15.11.58.11.79-.03.9-.18 1.83-.21 2.73 0 .18-.03.59.04.72 1.17.87 2.26 1.84 3.22 2.94.18.21.59.85.75.96.15.11.93.07 1.17.07.98-.03 1.97-.15 2.94-.2l.27.13 2.01 4.68-.33.42-2.8 2.41c.31 1.83.38 3.7.06 5.53.01.13.3.38.41.48.74.71 1.66 1.34 2.4 2.05.08.08.3.27.33.36.11.39-.93 2.23-1.02 2.76Zm14.58-10.4c.72-1.21 1.69-2.09 2.46-3.35.21-.35.51-.71.68-1.1 5.66.34 9.4-5.87 6.3-10.72-2.67-4.18-8.81-4.26-11.57-.17-1.74-.42-3.95-.31-5.61.34l.42-1.43c.55-.05 1.12.03 1.67-.01.15-.01.68-.07.76-.13.12-.09.72-1.03.92-1.27.34-.39.76-.71 1.08-1.11.05-.45-.41-2.04-.23-2.35l2.54-1.3.14.06 1.5 1.45.21.07c1.01-.19 2.04-.35 3.07-.22l1.31-1.77c.12-.13.29-.07.45-.04.26.05 2.39.72 2.47.82.2.27-.05 1.93.1 2.37.56.37 1.11.75 1.61 1.2.17.15.68.78.75.82.31.19 1.96-.35 2.42-.23.18.32 1.37 2.42 1.33 2.62l-1.61 1.73c.09.46.22.97.26 1.43s-.08 1.21 0 1.64c.06.33 1.8 1.24 1.85 1.58.06.46-.78 2.13-.86 2.7-.21.21-2.06-.1-2.47.2-.32.57-.76 1.13-1.2 1.61-.12.13-.72.64-.74.7-.15.47.4 2.15.23 2.42-.13.21-2.11.97-2.43 1.27h-.2c-.33-.17-1.54-1.6-1.73-1.6-.63.22-1.27.23-1.93.26-.12 0-.23.07-.35.07-.27 0-.56-.17-.85-.04-.31.14-1.13 1.72-1.42 1.8-.32.09-.96-.34-1.32-.33Zm-13.23 19.8c.21-.06.44.05.42.29-.03.29-1.41 1.51-1.66 1.83-.33.21-.68-.08-.41-.41.36-.22 1.39-1.62 1.65-1.7Zm3.35-4.94c.26-.09.52.12.4.4-.25.34-1.02 2-1.34 2.09-.26.07-.44-.22-.31-.46.24-.23 1.11-2 1.25-2.04Zm2.26-5.61c.11-.03.32.07.35.17.07.22-.63 2.43-.81 2.52-.37.18-.44-.08-.4-.39.04-.29.51-1.75.63-2.04.04-.09.11-.24.22-.27Zm-9.72 15.1-1.96 1.29c-.25.11-.46-.08-.42-.35.03-.17.74-.52.93-.65.24-.16 1.09-.84 1.28-.81.29.04.32.31.17.52Zm8.97-44.33c.28-.03.35.23.26.46-.09.24-.56.83-.73 1.12-.12.21-.37.91-.57.94-.72.12-.15-.82 0-1.1s.79-1.4 1.04-1.42Zm4.25-4.04c.23-.05.42.12.35.35s-1.74 1.19-1.98 1.52c-.31.15-.54-.22-.34-.48.46-.26 1.52-1.3 1.97-1.39Zm9.24-2.05c.18-.05.96.1 1.2.15.44.08 2.03.3 1.12.86l-2.39-.49c-.21-.09-.15-.46.07-.52ZM20.43 65.01c.09-.03.21-.02.3.03.24.32 1.85 1.49 1.91 1.72.07.26-.25.34-.47.26-.15-.06-.93-.73-1.1-.89-.15-.14-1.11-.96-.64-1.12Zm65.6-21.36c.37-.09.57.2.29.5-.18.19-1.7 1.14-1.94 1.21-.33.09-.51-.18-.32-.46l1.97-1.25ZM72.98 18.18c.09-.15 2.35-.64 2.61-.55.2.07.15.43-.08.52-.58.23-1.57.19-2.18.49-.31.13-.49-.25-.36-.46Zm5.48 28.35c.16-.15 2.05-.24 2.42-.43.25 0 .41.25.24.45-.18.23-2.32.54-2.61.4-.16-.08-.17-.31-.05-.43Zm13.31-12.74c.09-.03.27-.03.34.05.15.21-.27 2.45-.48 2.61-.26.21-.53-.08-.45-.37.26-.62.23-1.44.43-2.04.03-.1.05-.21.16-.25Zm-1.94 5.56c.24-.2.49-.03.46.28-.02.25-1.19 1.95-1.42 2.01-.22.06-.37.01-.37-.23 0-.27.5-.78.68-1.04.13-.19.55-.94.65-1.03ZM51.24 20.99c.14-.04.22 0 .34.04.21.07 1.7.85 1.83.98.24.24.09.6-.23.51-.51-.41-1.52-.66-1.98-1.04-.2-.16-.2-.43.05-.5Zm4.87 2.94c.13-.04.21.01.32.07.2.1 1.71 1.36 1.75 1.48.09.31-.26.47-.49.28-.39-.5-1.29-.91-1.66-1.35-.14-.17-.14-.41.09-.47Zm-10.28-4.86c.14-.05.3 0 .44.02.3.04 1.66.43 1.89.57.22.13.22.43.02.53-.18.09-1.91-.6-2.27-.6-.21-.04-.28-.45-.08-.52Zm-5.61-.82c.24-.08 2.08.06 2.37.14.23.07.29.48.01.53-.37.07-1.16-.1-1.58-.14-.23-.02-.54.04-.74-.01-.22-.07-.27-.46-.07-.52Zm32.61 28.06c.05-.09.17-.38.21-.48.58.24 1.63.26 2.14.5.26.12.26.44 0 .52-.43.13-1.87-.37-2.35-.53Zm11.89-26.9c.19-.03 1.23.63 1.25.85.07.72-1.1-.09-1.31-.28-.23-.21-.33-.52.05-.57Zm-67.5 41.9c.3-.09 1.05.94 1.05 1.19 0 .21-.1.27-.31.24s-1.32-1.27-.74-1.43Zm74.34-32.25c.51-.17.6.92.58 1.26-.02.44-.42.51-.54.19-.08-.21-.27-1.37-.04-1.45Z" class="cls-10"/><path d="M77.83 34.19c-.19-1.07-.98-2.55-1.71-3.35 1.59-1.46 4.01.22 3.16 2.24-.24.56-.83 1.07-1.45 1.12Z" class="cls-10"/><path d="M77.9 35.08c0-.22-.03-.7-.07-.89.62-.04 1.21-.56 1.45-1.12.85-2.01-1.58-3.7-3.16-2.24-.13-.15-.47-.49-.62-.62 1.4-1.33 3.83-.88 4.58.93.72 1.75-.35 3.61-2.18 3.93Z" class="cls-1"/><path d="M37.43 72.6c0 .23.06.42.07.62-.99.09-1.2-.75-.07-.62Zm-3.98-.15c-.19.12-2.58-.56-2.69-.74-.23-.38.16-.45.46-.4.28.05 1.88.52 2.11.63s.29.4.13.5Zm9.32-24.5c-.06 0-.12 0-.14.07-.73.06-1.22.34-1.44 1.1-2.88 1.13-5.97-1.39-5.31-4.45a3.711 3.711 0 0 1 2.18-2.61c3.69-1.54 7.09 2.69 4.7 5.9Zm45.11-21.41c-1.35.37-2.67.33-4.1.7-.39.1-.86.16-1.25.31-3.83-4.18-10.84-2.31-11.98 3.33-.98 4.86 3.38 9.19 8.21 8.16.95 1.51 2.62 2.97 4.28 3.65l-1.29.74c-.43-.35-.79-.8-1.21-1.15-.11-.09-.54-.42-.64-.43-.15-.02-1.23.25-1.54.27-.51.05-1.04-.02-1.55.05-.35.29-1.12 1.76-1.47 1.85l-2.73-.83-.06-.14-.07-2.08-.1-.2c-.86-.57-1.72-1.17-2.36-1.97l-2.17.36c-.18 0-.26-.16-.35-.28-.15-.22-1.22-2.17-1.21-2.3.04-.33 1.38-1.35 1.58-1.77-.15-.65-.28-1.31-.33-1.98-.02-.22.05-1.03.03-1.11-.09-.35-1.65-1.11-1.9-1.52.09-.35.7-2.7.86-2.81l2.36-.12c.25-.39.51-.85.81-1.21s.9-.82 1.14-1.18c.18-.28-.44-2.14-.23-2.42.28-.38 2.04-.99 2.49-1.35.3 0 1.41 1.5 1.92 1.57.63-.19 1.33-.29 1.98-.33.18-.01.96.04 1.02.01.43-.24 1.21-1.82 1.52-1.9.23-.06 2.19.77 2.63.77l.14.14c.12.34 0 2.22.14 2.35.61.28 1.08.72 1.57 1.15.09.08.21.11.3.19.2.18.29.51.59.62.32.11 2.01-.45 2.27-.31.29.16.45.91.72 1.15Z" class="cls-10"/><path d="M78.51 30.62c-.6.9-1.06 2.52-1.1 3.6-2.16-.05-2.73-2.95-.72-3.81.56-.24 1.34-.19 1.82.2Z" class="cls-10"/><path d="M79.08 29.93c-.15.16-.46.53-.57.69-.48-.4-1.26-.44-1.82-.2-2.01.86-1.43 3.76.72 3.81 0 .2 0 .68.02.87-1.94-.01-3.37-2.03-2.64-3.85.7-1.75 2.76-2.35 4.3-1.31Z" class="cls-1"/><path d="M29.63 61.55s-1.01 1.38-1.13 1.53c-1.24 1.56-3.2 2.47-4.39 4.06-.15-.06-.56.04-.82-.03-.83-.22-.79-1.58.07-1.72.07-.21-.25-.46-.28-.58-.05-.19.01-.69.07-.89.22-.75.71-1.04 1.44-1.1h.61l.07-.07c-.04-.62.46-1.19 1.03-1.37.79-.25 2.81-.33 3.33.16Z" class="cls-6"/><path d="M42.77 47.95c.07 0 .17-.02.21.07h-.34c.02-.07.08-.07.14-.07Zm.48.07.07-.07-.07.07Z" class="cls-3"/><path d="M82.83 67.6c-.1.12-.3.1-.41 0h.41Zm2.32.34s-.11-.06-.14-.07l.14.07Zm.48.28-.07-.07.07.07Zm-.34-.21s-.05-.06-.07-.07l.07.07Z" class="cls-2"/></g><g id="Livello_15" data-name="Livello 15"><path d="M71.8 28.3c.18.04.63.2.82.27.96.35 2.1.98 2.88 1.64.14.12.48.47.62.62.73.81 1.52 2.29 1.71 3.35.03.19.06.67.07.89.03.94-.18 2.39-.48 3.29-.05.15-.27.66-.34.82-.18.38-.47.75-.68 1.1-.15-.24-.51-.21-.75-.21v-.21c-.14-.02-.32.03-.41.14l-3.01-.51c-.17-.14.17-1.19.14-1.51-.03-.3-.24-.38-.33-.05-.09.36-.4 2.92-.54 2.96l-3.31-.52c-.34-.25-.31-1.9-.5-2.38a.4.4 0 0 0-.15-.19c-.11-.02-.15.08-.17.17-.07.37.42 2.2.34 2.29-.12 0-.24.07-.37.06-1.02-.01-2.43-.44-3.5-.54-.21-.02-.46-.03-.65.07-1.16-2.48-1.85-5.66-.48-8.22.16-.29.52-.66.62-.96.84-.83 1.76-1.62 2.88-2.05 1.67-.66 3.88-.77 5.61-.34Zm4.51 4.05a.363.363 0 0 0-.27.02c-.16.11.19.91.24 1.13.35 1.55.31 2.88-.11 4.41-.08.3-.37.89-.39 1.12-.03.3.23.29.39.04.74-1.13.83-3.8.6-5.1-.04-.23-.35-1.55-.47-1.62Zm-6.56 5.54-.59-1.64a.273.273 0 0 0-.33-.13c-.1.03-1.04 1.33-1.01 1.46.02.08.11.12.21.07.18-.09.74-.97.89-.86.12.25.55 1.49.73 1.56.06.02.16.03.22 0 .07-.04.58-1.08.66-1.08.14.1.19.57.35.61.09.02.9-.37 1.04-.45.19-.12.08-.31-.12-.26-.16.04-.68.43-.82.31-.06-.25-.16-.93-.51-.81l-.73 1.22Z" class="cls-14"/><path d="M75.23 40.01c-.17.2-.33.74-.59.96-.1.25.14.38.35.21.11-.09.64-.95.65-1.09.25 0 .6-.04.75.21-.77 1.26-1.75 2.15-2.46 3.35-.53.89-.55 1.28-.89 2.19-.04.1-.16.38-.21.48-.07.14-.47.79-.55.89-1.12 1.34-3.45 1.44-4.79.34-.57-.47-1.17-1.5-1.44-2.19-.07-.17-.16-.35-.21-.48-.09-.23-.11-.57-.22-.84-.6-1.44-1.74-2.63-2.45-4.16.19-.1.44-.09.65-.07 1.07.1 2.48.53 3.5.54.13 0 .24-.06.37-.06.08-.09-.41-1.92-.34-2.29.02-.09.06-.19.17-.17.07.05.12.1.15.19.19.48.16 2.12.5 2.38l3.31.52c.15-.04.45-2.6.54-2.96.08-.33.3-.25.33.05.03.32-.31 1.37-.14 1.51l3.01.51Z" class="cls-14"/><path d="M72.28 47.2c.21-.05.6.16.62.38s-.28.35-.28.41c0 .04.26.18.28.35.02.24-.28.3-.28.47 0 .05.22.06.27.22.08.29-.27.35-.27.53 0 .04.25.07.27.34.02.35-.65.49-.88.58-.04.02-.14.04-.21.07h-.07c.02-.27.01-.17-.17-.21s-.72-.04-.72-.27c.42-.07.9-.16 1.3-.31.09-.03.38-.1.24-.24-1.07.46-2.3.56-3.46.55.05-.19-.21-.16-.33-.18-.57-.1-1.15-.13-1.73-.23-.06-.26.24-.33.27-.41l.07-.03-.07-.1s-.24-.03-.26-.25c-.02-.27.26-.43.26-.46 0-.09-.77-.55.34-.86 1.35 1.1 3.68 1 4.79-.34Zm.14.82c-1.52.5-3.12.7-4.71.43-.14-.02-.12.09-.09.12s.85.13.99.14c.97.06 2.32-.1 3.25-.38.06-.02.71-.18.55-.31Zm0 .75c-1.29.46-2.7.62-4.07.55-.26-.01-.56-.12-.82-.14-.08 0-.25-.05-.24.07 1.4.31 3.68.31 5-.31.1-.05.17.01.14-.17Z" class="cls-12"/><path d="M66.87 49.66c.57.09 1.15.13 1.73.23.11.02.38 0 .33.18-.52 0-.99-.01-1.51-.14-.03.19.04.11.16.15.92.25 2.33.14 3.26 0 0 .23.55.23.72.27s.19-.06.17.21c-1.32.29-2.69.36-4.04.21-.03.21.05.11.17.13 1.22.27 2.79.06 3.94-.34.07-.02.16-.05.21-.07.47 2.18-3.04 2.89-4.11 1.47-.33-.43-.21-.98-.31-1.13-.11-.16-1.29-.22-.45-.85.04-.14-.24-.17-.27-.31Z" class="cls-6"/><path d="M76.31 32.35c.12.07.43 1.39.47 1.62.22 1.31.14 3.97-.6 5.1-.16.24-.42.26-.39-.04.02-.23.31-.82.39-1.12.42-1.53.46-2.86.11-4.41-.05-.23-.41-1.02-.24-1.13.06-.04.21-.05.27-.02Zm-6.56 5.54.73-1.22c.35-.11.44.57.51.81.14.12.66-.27.82-.31.2-.05.31.14.12.26-.13.08-.94.48-1.04.45-.16-.04-.21-.5-.35-.61-.08 0-.59 1.04-.66 1.08a.28.28 0 0 1-.22 0c-.18-.07-.61-1.31-.73-1.56-.15-.11-.71.77-.89.86-.09.05-.19 0-.21-.07-.03-.13.9-1.43 1.01-1.46.14-.04.26 0 .33.13l.59 1.64Zm5.48 2.12c.09-.11.27-.16.41-.14v.21c-.02.14-.54 1-.65 1.09-.21.17-.45.04-.35-.21.26-.21.42-.76.59-.96Z" class="cls-7"/><path d="M68.93 50.07c1.15.01 2.39-.09 3.46-.55.14.14-.15.2-.24.24-.39.15-.88.24-1.3.31-.94.15-2.35.25-3.26 0-.12-.03-.19.05-.16-.15.51.13.98.13 1.51.14Zm3.49-1.3c.03.18-.03.12-.14.17-1.31.62-3.6.62-5 .31-.02-.12.16-.07.24-.07.26.02.57.12.82.14 1.38.08 2.78-.09 4.07-.55Zm0-.75c.16.13-.49.29-.55.31-.93.28-2.28.44-3.25.38-.14 0-.95-.11-.99-.14s-.05-.14.09-.12c1.59.28 3.19.08 4.71-.43Zm-.69 2.53h.07c-1.14.4-2.72.6-3.94.34-.12-.03-.2.08-.17-.13 1.35.16 2.72.09 4.04-.21Z" class="cls-2"/></g></svg>