<svg xmlns="http://www.w3.org/2000/svg" xml:space="preserve" style="enable-background:new 0 0 2475 1650" version="1.0" viewBox="0 0 2475 1650"><style>.st0{fill:#fff}.st7{fill:#bdd0fb}.st9{fill:#fd830d}.st39{fill:#7d97f4}.st40{fill:#91b3fa}</style><path id="Background" d="M0 0h2475v1650H0z" class="st0"/><g id="Illustration"><linearGradient id="SVGID_1_" x1="237.935" x2="2135" y1="816.776" y2="816.776" gradientUnits="userSpaceOnUse"><stop offset="0" style="stop-color:#dae3fe"/><stop offset="1" style="stop-color:#e9effd"/></linearGradient><path d="M2059.8 846.4c-38.4-77.3-41.5-143.6-21.6-228 21.9-93.2 43.1-212.2-9.4-297-46.2-74.7-118.8-127.6-196.7-147.1-98.8-24.7-181.5 15.3-260.7 81.8-108.7 91.3-296.7 165.7-430.7 125.3-117-35.3-203.5-152.9-326.9-175.6-85.1-15.7-211.9 9.3-239.2 119.3-7.2 28.8-6.9 60.3-18.5 87.1-26.9 62.2-95 56.2-146 61.9-151 16.6-246.7 175.5-97.1 275.1 46.3 30.8 100.4 54.2 131.7 100.1 31.5 46.2 33.4 105.8 34.2 161.7.6 46.7 1.3 93.3 1.9 140 .6 43.9 1.3 88.4 13.6 130.6 49.3 170 267.1 207.1 416.7 173.8 160.4-35.7 298.3-151.7 461.4-176.8 67-10.3 138.3-3.7 199.7 30.3 58.7 32.5 106.6 91.1 171.1 109.8 39.5 11.5 81.1 6.1 121.4-.6 71.8-11.9 148-30.5 198.2-90.4 36.2-43.1 53.9-102.2 64.7-160.7 24-129.7-13.3-210.7-67.8-320.6z" style="fill:url(#SVGID_1_)"/><linearGradient id="SVGID_00000163069731057418136120000007556588626848619436_" x1="1340.831" x2="2123.67" y1="1149.374" y2="1149.374" gradientUnits="userSpaceOnUse"><stop offset="0" style="stop-color:#dae3fe"/><stop offset="1" style="stop-color:#e9effd"/></linearGradient><path d="M2123.3 829.7c-25.3 34.2-52 67.2-79.3 99.8-27.4 32.5-55.5 64.3-84.3 95.5-57.6 62.4-118.5 121.9-182.3 178-32.1 27.9-64.9 54.9-98.6 80.8-33.9 25.7-68.6 50.3-104.3 73.5-35.9 22.8-72.7 44.3-110.6 63.8-38.1 19.1-77.2 36.2-117.3 50.6-2.2.8-4.7-.4-5.5-2.6-.8-2.2.4-4.7 2.6-5.5h.1c39.8-14.1 78.7-30.9 116.6-49.6 37.7-19.2 74.4-40.3 110.2-62.9 35.6-22.9 70.3-47.2 104.2-72.7 33.7-25.7 66.6-52.4 98.7-80.1 63.9-55.7 124.9-114.7 182.8-176.7 29-31 57.2-62.6 84.7-94.9 27.4-32.4 54.2-65.2 79.6-99.2.6-.8 1.7-1 2.5-.4.6.6.8 1.7.2 2.6z" style="fill:url(#SVGID_00000163069731057418136120000007556588626848619436_)"/><linearGradient id="SVGID_00000107584571539913735940000006045515545565285763_" x1="1382.096" x2="1804.844" y1="757.225" y2="757.225" gradientUnits="userSpaceOnUse"><stop offset="0" style="stop-color:#dae3fe"/><stop offset="1" style="stop-color:#e9effd"/></linearGradient><path d="M1804.8 238.7c-1.7 23.8-4.2 47.4-7 71.1-2.8 23.6-6 47.2-9.5 70.7-7 47.1-15.4 93.9-25.1 140.5-19.4 93.2-44.1 185.3-75.6 275.2-31.6 89.8-70 177.5-118.6 259.6-24.3 41-51.2 80.6-81.1 117.8-15 18.5-30.7 36.6-47.3 53.8-16.6 17.2-34 33.6-52.1 49.2-1.7 1.4-4.2 1.2-5.6-.4-1.4-1.7-1.2-4.2.4-5.6 18-15.4 35.2-31.6 51.7-48.5 16.5-17 32-34.8 47-53.1 29.8-36.8 56.7-75.9 81-116.6 48.6-81.4 87.3-168.6 119.1-258 31.8-89.5 56.8-181.3 76.5-274.2 9.8-46.5 18.4-93.2 25.6-140.2 3.6-23.5 6.9-47 9.7-70.6 2.8-23.6 5.4-47.2 7.2-70.8.1-.9.9-1.6 1.8-1.6 1.3 0 2 .8 1.9 1.7z" style="fill:url(#SVGID_00000107584571539913735940000006045515545565285763_)"/><ellipse cx="1211.4" cy="874.8" rx="616.9" ry="665.9" style="fill:#607ff2" transform="rotate(-87.486 1211.433 874.79) scale(.99996)"/><g style="opacity:.68"><path d="M1381.5 877.8c-.2 108.8-7.6 217.8-26.8 325.1-4.9 26.8-10.5 53.5-17.2 79.9-6.7 26.4-14.5 52.6-24 78.2-9.6 25.5-20.7 50.7-35.8 73.7-7.6 11.4-16.2 22.3-26.9 31.3-5.3 4.5-11.2 8.4-17.6 11.3-6.4 2.9-13.4 4.7-20.5 4.8-7.1.2-14.2-1.2-20.8-3.8-6.6-2.6-12.5-6.4-18-10.7-10.9-8.7-19.7-19.5-27.5-30.9-15.4-22.8-26.6-47.9-36.3-73.4-9.6-25.5-17.5-51.7-24.3-78.1-6.8-26.4-12.5-53-17.4-79.8-9.8-53.6-16.4-107.7-20.9-161.9-4.5-54.3-6.7-108.7-7-163.1-.1-27.2.6-54.4 1.6-81.6 1-27.2 2.5-54.4 4.5-81.5 4-54.3 10-108.4 19-162.1 4.5-26.8 9.7-53.6 16-80.1 6.3-26.5 13.6-52.8 22.7-78.5 4.6-12.8 9.6-25.5 15.3-38 5.7-12.4 12.1-24.5 19.5-36 7.5-11.4 16.1-22.3 26.9-31 5.4-4.3 11.3-8.1 17.8-10.6 6.5-2.6 13.5-3.9 20.4-3.6 7 .2 13.8 1.9 20.2 4.7 6.3 2.8 12.2 6.6 17.5 10.9 10.7 8.7 19.6 19.3 27.4 30.5 15.6 22.5 27.4 47.3 37.6 72.6 10.1 25.3 18.5 51.3 25.8 77.5 7.3 26.3 13.4 52.8 18.7 79.5 21.3 106.8 29.8 215.8 30.1 324.7zm-8 0c.1-54.2-2-108.4-6.5-162.5-4.4-54-11.2-107.9-21.2-161.2-5-26.6-10.8-53.1-17.8-79.3-7-26.2-15-52.1-24.8-77.3-9.9-25.2-21.3-49.9-36.4-72.2-7.6-11.1-16.2-21.6-26.5-30.2-5.2-4.3-10.8-8-16.8-10.8-6.1-2.7-12.6-4.5-19.2-4.7-6.6-.2-13.2 1.1-19.4 3.6-6.2 2.5-11.8 6.2-16.9 10.4-10.3 8.6-18.6 19.3-25.9 30.6-7.2 11.4-13.4 23.4-18.9 35.8-5.5 12.3-10.3 25-14.7 37.8-8.7 25.6-15.7 51.8-21.7 78.2-6 26.4-10.9 53.1-15.1 79.9-8.3 53.6-13.7 107.6-17.1 161.7-3.5 54.1-4.6 108.4-4.5 162.6-.1 54.2 1.7 108.4 5.7 162.5 4.1 54.1 10.3 108 19.6 161.4 4.7 26.7 10.1 53.2 16.6 79.5 6.5 26.3 14.1 52.3 23.5 77.7 9.4 25.3 20.4 50.2 35.2 72.6 7.5 11.1 16 21.7 26.3 30 5.1 4.1 10.7 7.7 16.8 10.2 6 2.5 12.5 3.8 19 3.6 6.5-.2 12.9-1.9 18.8-4.6 5.9-2.7 11.4-6.5 16.5-10.8 10.1-8.6 18.4-19.3 25.7-30.5 14.6-22.6 25.4-47.5 34.7-72.9 9.2-25.4 16.7-51.5 23.2-77.7 6.5-26.3 11.8-52.9 16.5-79.6 9.2-53.4 15.4-107.3 19.5-161.4 3.9-54 5.8-108.2 5.8-162.4z" class="st0"/><path d="M1656 877.8c-.4 70.1-9.4 140.2-28.1 207.7-19.1 67.4-47.9 132.3-86.9 190.5-19.5 29.1-41.7 56.5-66.4 81.3-24.7 24.8-52 47.1-81.7 65.8-29.7 18.6-61.8 33.5-95.3 43.6-33.6 10.1-68.6 15.4-103.6 15.4-35.1 0-70.1-5.3-103.7-15.4-33.6-10.1-65.7-24.9-95.4-43.5-29.7-18.7-57.1-40.9-81.8-65.7-24.8-24.8-46.9-52.2-66.5-81.3-39.1-58.2-68-123.1-87.1-190.6-9.4-33.8-16.5-68.2-21.1-103-4.6-34.8-6.9-69.8-7.1-104.9.2-35.1 2.5-70.1 7.2-104.9 4.7-34.8 11.7-69.2 21.2-103 19.2-67.4 48.1-132.3 87.3-190.4 19.6-29.1 41.8-56.4 66.5-81.2 24.8-24.8 52.1-47 81.8-65.6 29.7-18.5 61.8-33.3 95.3-43.4 33.5-10.1 68.5-15.4 103.5-15.4 35 .1 70 5.4 103.5 15.5s65.6 24.9 95.3 43.4c29.7 18.6 57 40.9 81.7 65.7 24.7 24.8 46.9 52.1 66.4 81.2 39.1 58.2 67.9 123 87 190.4 18.5 67.6 27.6 137.7 28 207.8zm-9.2 0c-.1-69.3-8.7-138.6-27-205.5-18.4-66.8-46.1-131.2-84.2-189.2-19-29-40.7-56.2-64.9-81.1-24.2-24.8-51-47.2-80.3-65.8-29.3-18.5-60.9-33.4-94.1-43.5-33.2-10.1-67.8-15.4-102.5-15.5-34.7.1-69.3 5.5-102.5 15.6s-64.8 25-94.1 43.6c-29.2 18.6-56 41.1-80.1 65.9-24.2 24.8-45.8 52.1-64.8 81.1-38 58-65.6 122.4-83.9 189.1-9.1 33.4-15.7 67.5-20.2 101.8s-6.7 68.9-6.8 103.5c.1 34.6 2.3 69.2 6.8 103.5s11.1 68.4 20.2 101.8c18.3 66.7 46 131.1 84 189 19 28.9 40.6 56.2 64.8 81 24.2 24.7 50.9 47.1 80.1 65.7 29.3 18.5 60.9 33.3 94 43.4 33.1 10.1 67.6 15.5 102.3 15.7 34.6-.1 69.2-5.5 102.3-15.6 33.1-10.1 64.8-24.9 94.1-43.4 29.3-18.6 56-41 80.2-65.7 24.2-24.8 45.8-52 64.9-81 38.1-57.9 65.8-122.3 84.3-189.1 18.6-66.7 27.2-136.1 27.4-205.3z" class="st0"/><path d="m654.6 638.6 138.8-1.1 138.8-.6 277.6-.5 277.6.6 138.8.7 138.8 1.2c.2 0 .4.2.4.4s-.2.4-.4.4l-138.8 1.2-138.8.7-277.6.6-277.6-.5-138.8-.7-138.8-1.1c-.3 0-.6-.3-.6-.6 0-.4.3-.7.6-.7zm161-232.4c32.8-.5 65.7-.7 98.5-1.1l98.5-.6c32.8-.3 65.7-.2 98.5-.3l98.5-.2 197.1.6 98.5.7c32.8.4 65.7.7 98.5 1.2.2 0 .4.2.4.4s-.2.4-.4.4c-32.8.6-65.7.8-98.5 1.2l-98.5.7-197.1.6-98.5-.2c-32.8-.1-65.7-.1-98.5-.3l-98.5-.6c-32.8-.4-65.7-.6-98.5-1.1-.3 0-.6-.3-.6-.6 0-.6.3-.8.6-.8zM606.4 871.1l150.8-1.1 150.8-.6 301.7-.5 301.7.6 150.8.7 150.8 1.2c.2 0 .4.2.4.4s-.2.4-.4.4l-150.8 1.2-150.8.7-301.7.6-301.7-.5-150.8-.6-150.8-1.1c-.3 0-.6-.3-.6-.6 0-.5.3-.8.6-.8zm48.2 232.4 138.8-1.1 138.8-.6 277.6-.5 277.6.6 138.8.7 138.8 1.2c.2 0 .4.2.4.4s-.2.4-.4.4l-138.8 1.2-138.8.7-277.6.6-277.6-.5-138.8-.6-138.8-1.1c-.3 0-.6-.3-.6-.6 0-.5.3-.8.6-.8zm971.3 233.1c0 1.2-1 2.1-2.1 2.1H835.5c-1.2 0-2.1-1-2.1-2.1s1-2.1 2.1-2.1h788.3c1.1 0 2.1.9 2.1 2.1z" class="st0"/></g><linearGradient id="SVGID_00000043425993251711664110000012309834241515370385_" x1="1749.37" x2="2229.72" y1="570.027" y2="570.027" gradientUnits="userSpaceOnUse"><stop offset="0" style="stop-color:#09005d"/><stop offset="1" style="stop-color:#1a0f91"/></linearGradient><path d="M2228.6 422.5 2107 728.3c-6.2 15.6-22.2 24.9-38.8 22.5l-318.8-22.3L1864.2 402c3.1-8 10.9-13.3 19.5-13.1 55.9 1.3 259.5 6.3 332.3 12.8 10.1 1 16.4 11.4 12.6 20.8z" style="fill:url(#SVGID_00000043425993251711664110000012309834241515370385_)"/><path d="m2078.9 736.9 121.5-308.5c2.5-6.2-2-13-8.7-13.1l-300.2-11.4c-7.7-.3-14.8 4.3-17.6 11.5l-110 300.7 315 20.8z" class="st7"/><linearGradient id="SVGID_00000062150476191206836230000003219893762985604530_" x1="1865.305" x2="1868.585" y1="654.999" y2="816.528" gradientUnits="userSpaceOnUse"><stop offset="0" style="stop-color:#09005d"/><stop offset="1" style="stop-color:#1a0f91"/></linearGradient><path d="M1641 740.8c0 5.7 4.6 10.3 10.3 10.3h419.3c8.7 0 15.7-7 15.7-15.7l6.6-7.7-435.4-3.7c-9.2.1-16.5 7.6-16.5 16.8z" style="fill:url(#SVGID_00000062150476191206836230000003219893762985604530_)"/><path d="M2174.3 538.6c-.2 0-.3 0-.5-.1-.7-.3-1-1-.7-1.7l44.8-112c1.5-3.8 1.1-8-1.1-11.5s-5.9-5.6-10-5.7l-81.2-3.8c-.7 0-1.3-.6-1.2-1.3 0-.7.6-1.3 1.3-1.2l81.2 3.8c5 .2 9.3 2.8 12 6.9 2.7 4.2 3.2 9.2 1.3 13.8l-44.8 112c-.1.5-.6.8-1.1.8z" class="st7"/><path d="M1797.7 453.9c8.7-10.9 16.3-22.6 22.7-34.7 8.9-16.8.7 10.9 3.2-8.1 66.7-48.1 167.2-23.8 206-18.9 12.7 1.6 24.4 7.9 32.8 17.6 33.3 38.5 106.4 144 20.4 250.4-11-6.1-26.6-15.9-37.3-27.2 9.5-26.8 10.3-61.1-9.6-103.1-.7 3.3-1.5 6.6-2.5 9.9-27.5 87.1-29 159.5-28.9 176.2 0 2.3 1.6 10.4-.6 10.6-52.1 3.4-139.7-3.2-139.7-3.2 16.5-82.1-45.8-227.5-61.9-262.8-1.2-2.6-2.7-4.8-4.6-6.7z" class="st9"/><linearGradient id="SVGID_00000101808648754071851380000014418885902141349812_" x1="1928.545" x2="1960.043" y1="455.336" y2="264.846" gradientUnits="userSpaceOnUse"><stop offset="0" style="stop-color:#ff928e"/><stop offset="1" style="stop-color:#feb3b1"/></linearGradient><path d="m1967.1 322.3 7 71.2s-40.1 12.1-69.2-8.5l20.5-64.7 41.7 2z" style="fill:url(#SVGID_00000101808648754071851380000014418885902141349812_)"/><linearGradient id="SVGID_00000015349067732993790830000017915668864009366463_" x1="1985.092" x2="1893.092" y1="248.697" y2="311.697" gradientUnits="userSpaceOnUse"><stop offset="0" style="stop-color:#ff928e"/><stop offset="1" style="stop-color:#feb3b1"/></linearGradient><path d="M1920.6 241.1c-1 .9-40.7 78.9-40.7 78.9l45 21.7 48.7-68.4c0 .1-36.8-47.4-53-32.2z" style="fill:url(#SVGID_00000015349067732993790830000017915668864009366463_)"/><linearGradient id="SVGID_00000052791933936422186040000017339237298887807145_" x1="-7291.966" x2="-7171.957" y1="-8054.352" y2="-8054.352" gradientTransform="scale(-1 1) rotate(-46.73 5080.377 -10027.744)" gradientUnits="userSpaceOnUse"><stop offset="0" style="stop-color:#09005d"/><stop offset="1" style="stop-color:#1a0f91"/></linearGradient><path d="M1953.7 275.3c.8 2.1.6 4.4-.5 6.3l-22.5 37.4c-.3.6-.7 1.1-1.2 1.5-2.7 2.5-11.8 9.7-18.9-.1-6-8.4-11.7-16-17.7-19.2-3.5-1.8-7.9-.4-9.7 3.2-3.7 7.3-10.9 22.3-15.4 36.5-1.1 3.6.7 7.4 4.2 8.8 9.1 3.7 27.1 10.4 43.1 12.6 2.6.4 5.2-.7 6.8-2.9 6.9-9.4 26.3-35.8 32.9-42.4 6.1-6.1 17.5-3.8 22.6-2.3 1.9.6 4 .3 5.7-.8 5.2-3.1 14.2-10.9 6-24.1-2.1-3.3-1-7.6 2.2-9.8 5.8-3.8 12.1-11 6.1-22.5-6.1-11.7-16.9-12.8-24.3-11.9-3.3.4-6.6-1.3-7.8-4.4-.6-1.4-1.7-2.5-3.7-2.9-3.9-.8-6.4-4.3-5.6-8.2 1.3-6.6.3-15.3-10.3-21.1-19.4-10.7-36.5 6.7-40.8 21.4-4.3 14.7 17.4 25.1 31.1 26.8 9.9 1.4 15.5 12.4 17.7 18.1z" style="fill:url(#SVGID_00000052791933936422186040000017339237298887807145_)"/><linearGradient id="SVGID_00000071536801108085081720000009578904192171994261_" x1="-7317.42" x2="-7236.838" y1="-8027.147" y2="-8109.822" gradientTransform="scale(-1 1) rotate(-46.73 5080.377 -10027.744)" gradientUnits="userSpaceOnUse"><stop offset="0" style="stop-color:#ff928e"/><stop offset="1" style="stop-color:#feb3b1"/></linearGradient><path d="M1946.3 330.8s8.6-25.3 19.7-24.4c11.1.9 19.8 11.9 6.1 24.3-17.1 15.5-25.8.1-25.8.1z" style="fill:url(#SVGID_00000071536801108085081720000009578904192171994261_)"/><linearGradient id="SVGID_00000054230986351240886460000002355766085700251792_" x1="1375.512" x2="1311.512" y1="3105.523" y2="3357.523" gradientUnits="userSpaceOnUse"><stop offset="0" style="stop-color:#ff928e"/><stop offset="1" style="stop-color:#feb3b1"/></linearGradient><path d="M2039.5 523.4c14.6-39.9 9.3-88.1 9.2-88.6l-4 .5c.1.5 5.2 47.7-9 86.7l3.8 1.4z" style="fill:url(#SVGID_00000054230986351240886460000002355766085700251792_)"/><path d="M1662.3 476.3c75.5 11.3 124.6-36.3 161.3-65.2 48.4-38.1 86-19.6 86-19.6L1858 490c-77.1 72.7-156.1 56.5-205.9 33-.7-19 4.4-34.9 10.2-46.7z" class="st9"/><linearGradient id="SVGID_00000172412467691345382490000009666500629725551029_" x1="-9240.049" x2="-9586.588" y1="297.263" y2="740.629" gradientTransform="matrix(-1 0 0 1 -7760.49 0)" gradientUnits="userSpaceOnUse"><stop offset="0" style="stop-color:#ff928e"/><stop offset="1" style="stop-color:#feb3b1"/></linearGradient><path d="m1556.2 431.3 25 13.5c30 18.3 56.9 27.9 81 31.6-5.8 11.8-10.9 27.7-10.2 46.7-31.7-15-51.6-33-51.6-33-56.5-33.8-44.2-58.8-44.2-58.8z" style="fill:url(#SVGID_00000172412467691345382490000009666500629725551029_)"/><linearGradient id="SVGID_00000153698806999626254520000014279987872094695344_" x1="-9193.671" x2="-9540.211" y1="333.511" y2="776.878" gradientTransform="matrix(-1 0 0 1 -7760.49 0)" gradientUnits="userSpaceOnUse"><stop offset="0" style="stop-color:#ff928e"/><stop offset="1" style="stop-color:#feb3b1"/></linearGradient><path d="M1482.5 466.6c1.6-5.4 5.6-9.7 10.8-11.8l50.8-20.4s.8-6.5-10.7-10.9-8.8-17.3-8.8-17.3 15.7 7.2 38.7 18.5c13.2 6.5 20.5 18 24.4 26.6l-13.1 17.2c-31.3 9.4-63 11.2-94.9 7.5l2.8-9.4z" style="fill:url(#SVGID_00000153698806999626254520000014279987872094695344_)"/><linearGradient id="SVGID_00000136379927376589980310000009820538059293215898_" x1="-9092.936" x2="-8976.305" y1="680.254" y2="680.254" gradientTransform="matrix(-1 0 0 1 -6992.721 0)" gradientUnits="userSpaceOnUse"><stop offset="0" style="stop-color:#ff928e"/><stop offset="1" style="stop-color:#feb3b1"/></linearGradient><path d="M2045.5 633c10.6 11.3 26.3 21.1 37.3 27.2-16.4 20.3-38.7 40.7-68.1 60.6l-.4 6.7h-48.1s61.5-44.2 79.3-94.5z" style="fill:url(#SVGID_00000136379927376589980310000009820538059293215898_)"/><linearGradient id="SVGID_00000091731732354528547490000000264600424961081778_" x1="428.027" x2="936.312" y1="1296.168" y2="1296.168" gradientUnits="userSpaceOnUse"><stop offset="0" style="stop-color:#09005d"/><stop offset="1" style="stop-color:#1a0f91"/></linearGradient><path d="m429.2 1140.1 128.6 323.5c6.5 16.5 23.5 26.3 41.1 23.8l337.4-24.9-121.5-344.1c-3.2-8.5-11.5-14.1-20.6-13.8-59.1 1.4-274.6 6.7-351.6 13.5-10.7 1-17.4 12-13.4 22z" style="fill:url(#SVGID_00000091731732354528547490000000264600424961081778_)"/><path d="M587.6 1472.7 459 1146.2c-2.6-6.6 2.2-13.7 9.2-13.9l317.7-12.1c8.2-.3 15.7 4.6 18.7 12.2L921 1450.7l-333.4 22z" class="st7"/><linearGradient id="SVGID_00000136369532513538795530000015533432094466659209_" x1="810.444" x2="813.914" y1="1396.623" y2="1567.531" gradientUnits="userSpaceOnUse"><stop offset="0" style="stop-color:#09005d"/><stop offset="1" style="stop-color:#1a0f91"/></linearGradient><path d="M1051 1476.9c0 6-4.9 10.9-10.9 10.9H596.4c-9.2 0-16.6-7.4-16.6-16.6l-7-8.1 460.7-3.9c9.7.1 17.5 8 17.5 17.7z" style="fill:url(#SVGID_00000136369532513538795530000015533432094466659209_)"/><linearGradient id="SVGID_00000129912333392316448980000017831599485757735568_" x1="488.016" x2="559.601" y1="1203.514" y2="1203.514" gradientUnits="userSpaceOnUse"><stop offset="0" style="stop-color:#dae3fe"/><stop offset="1" style="stop-color:#e9effd"/></linearGradient><path d="M526.7 1259.9c-.8 0-1.6-.5-1.9-1.3l-1.9-5.1c-12.7-33-27.1-70.4-33.9-87.7-1.6-4.2-1.1-8.9 1.4-12.7 2.5-3.7 6.8-6 11.3-6h55.9c1.1 0 2 .9 2 2s-.9 2-2 2h-55.9c-3.2 0-6.1 1.5-7.9 4.2-1.8 2.6-2.2 5.9-1 8.9 6.8 17.3 21.2 54.7 33.9 87.8l1.9 5.1c.4 1.1-.1 2.2-1.2 2.6-.2.1-.5.2-.7.2z" style="fill:url(#SVGID_00000129912333392316448980000017831599485757735568_)"/><linearGradient id="SVGID_00000119084624671799176670000006154201666522485634_" x1="-3495.742" x2="-3437.084" y1="889.825" y2="1057.418" gradientTransform="matrix(-1 0 0 1 -2359.398 0)" gradientUnits="userSpaceOnUse"><stop offset="0" style="stop-color:#a22b25"/><stop offset="1" style="stop-color:#c0423c"/></linearGradient><path d="M1110.3 979.7c.9 2.9-9.6 7.2-15.7-4.5-.2-5.6-3.6-29.7-.3-34.3 17.9-24.4 52.6-55 52.6-55 5.9 5.8 1 11.5 1 11.5l-16.8 17.5c3.5 6.4 7.8 11.7 9.8 19.4 1.5 5.8.6 12.1-2.4 17.4-3 5.3-7 12.2-10.8 17.7-7.1 10.2-17.4 10.3-17.4 10.3z" style="fill:url(#SVGID_00000119084624671799176670000006154201666522485634_)"/><linearGradient id="SVGID_00000044896226488168871560000004074954340105831352_" x1="-3450.68" x2="-3494.863" y1="996.9" y2="907.771" gradientTransform="matrix(-1 0 0 1 -2359.398 0)" gradientUnits="userSpaceOnUse"><stop offset="0" style="stop-color:#a22b25"/><stop offset="1" style="stop-color:#c0423c"/></linearGradient><path d="m1123.8 926.3-15.3 13-4.8 12.9 13.7 15.2s4.6-25.7 8-31.3c3.3-5.5 1.5-8.2-1.6-9.8z" style="fill:url(#SVGID_00000044896226488168871560000004074954340105831352_)"/><path d="M853 1106.4c-87.8-1.5-184.7 23.1-184.7 23.1-26.2 152.7-5.6 332.8-5.6 332.8 80.2 1.6 143.7-3.2 143.7-3.2 11.3-63.8 66-255.1 66-255.1 42.9-5.3 78.3-17.7 107.4-34.1-22.2-25.7-32.7-58.5-37.2-77.8-31.1 9.6-62.5 14.8-89.6 14.3z" class="st9"/><path d="M1112.4 977.1c-8.6-10.4-19.5-5.5-19.5-5.5-12.9 54.6-80.7 98.9-150.3 120.5 4.5 19.4 15 52.1 37.2 77.8 115.5-64.9 132.6-192.8 132.6-192.8zM702 1214.5l-33.7-85s-82 55.7-95.5 126.4c15.5 1.1 43.7 5.2 71.3 19.1 6-33.4 57.9-60.5 57.9-60.5z" class="st9"/><linearGradient id="SVGID_00000171699944965029048600000004288845782074246058_" x1="795.745" x2="757.745" y1="994.823" y2="1196.823" gradientUnits="userSpaceOnUse"><stop offset="0" style="stop-color:#a22b25"/><stop offset="1" style="stop-color:#c0423c"/></linearGradient><path d="m764 1035.1-27.9 80.8c-.5 1.3.1 2.8 1.3 3.5 7.6 4.2 35.1 16.4 68.1-4.6 3.4-2.2 5.8-5.7 6.3-9.8l9-69.9H764z" style="fill:url(#SVGID_00000171699944965029048600000004288845782074246058_)"/><linearGradient id="SVGID_00000100362304372719059280000017325455741579731637_" x1="-423.011" x2="-475.011" y1="1989.701" y2="2109.701" gradientTransform="rotate(-41.753 -2157.217 -156.822)" gradientUnits="userSpaceOnUse"><stop offset="0" style="stop-color:#a22b25"/><stop offset="1" style="stop-color:#c0423c"/></linearGradient><path d="M824.8 960.3s30.7 57.8 26.8 81.1c-3.9 23.3-42 21.7-75.2 2.7l-23.2-62.4 71.6-21.4z" style="fill:url(#SVGID_00000100362304372719059280000017325455741579731637_)"/><linearGradient id="SVGID_00000080894992961524050210000002015400394843811763_" x1="-737.296" x2="-710.732" y1="2540.471" y2="2691.984" gradientTransform="rotate(-41.753 -2157.217 -156.822)" gradientUnits="userSpaceOnUse"><stop offset="0" style="stop-color:#09005d"/><stop offset="1" style="stop-color:#1a0f91"/></linearGradient><path d="M777.9 1013.5c1.3-.6 1.8-2.2 1-3.5-2.5-3.8-7.1-11.4-8.5-18.1 0 0-5.5-3.5 14-8.2 19.6-4.7 48.7-11.9 54.8-28.6 6-16.2-9.7-57-34.8-24.5-1 1.2-2.8 1.3-3.8 0-4.1-5.3-14.9-16.4-29.9-9.7-14 6.3-15.6 16.6-15.4 21.8.1 1.5-1.3 2.7-2.8 2.4-7.1-1.4-24.1-2.5-32.1 14.9-6.5 14.4-2.3 22.5 1.6 26.5 1.3 1.3.7 3.4-1 3.9-4.7 1.4-10.7 5.4-10.1 16.3.8 15.1 17.7 13.8 22.5 13.1.8-.1 1.6.2 2.1.7 4.1 4.6 22.7 23.9 42.8 26.3 1.7.2 3.1-1.5 2.5-3.2l-8.7-25.3c-.4-1.2.2-2.5 1.3-3l4.5-1.8z" style="fill:url(#SVGID_00000080894992961524050210000002015400394843811763_)"/><linearGradient id="SVGID_00000057124213010310027390000005821924450974673051_" x1="-454.171" x2="-506.171" y1="1976.2" y2="2096.2" gradientTransform="rotate(-41.753 -2157.217 -156.822)" gradientUnits="userSpaceOnUse"><stop offset="0" style="stop-color:#a22b25"/><stop offset="1" style="stop-color:#c0423c"/></linearGradient><path d="M781.4 1017.1s-21.8-15-23.4-2.4c-1.6 12.6 19.7 18.3 30.2 13.6l-6.8-11.2z" style="fill:url(#SVGID_00000057124213010310027390000005821924450974673051_)"/><linearGradient id="SVGID_00000132063139514730946070000016059260163803767444_" x1="664.768" x2="595.68" y1="1705.8" y2="1209.625" gradientUnits="userSpaceOnUse"><stop offset="0" style="stop-color:#a22b25"/><stop offset="1" style="stop-color:#c0423c"/></linearGradient><path d="M644.1 1275s-28.7 129.3-2.7 202.1c-31.8 14.8-26 12-26 12s-63-184-42.7-233.1c40.1-4.4 60 6.4 71.4 19z" style="fill:url(#SVGID_00000132063139514730946070000016059260163803767444_)"/><linearGradient id="SVGID_00000060008312206228923480000017504219749011593098_" x1="656.541" x2="601.409" y1="1658.07" y2="1262.122" gradientUnits="userSpaceOnUse"><stop offset="0" style="stop-color:#a22b25"/><stop offset="1" style="stop-color:#c0423c"/></linearGradient><path d="M641.4 1477.1s16.4 21.2 15.1 29.7c-1.3 8.5-1.6 11.9-1.6 11.9s-8.2-5.6-7.7-12.8c1.1 22.9 8.8 48.9 1.8 47.6-7-1.3-43-34.5-34.8-69.9 18.4-12.9 23.6-11.5 27.2-6.5z" style="fill:url(#SVGID_00000060008312206228923480000017504219749011593098_)"/><linearGradient id="SVGID_00000055695827187544394910000015373243731792326036_" x1="558.288" x2="914.288" y1="828.852" y2="360.854" gradientUnits="userSpaceOnUse"><stop offset="0" style="stop-color:#09005d"/><stop offset="1" style="stop-color:#1a0f91"/></linearGradient><path d="m470 500.7 117 294.2c6 15 21.4 23.9 37.3 21.6L931 795 820.5 481c-2.9-7.7-10.4-12.8-18.7-12.6-53.8 1.2-249.6 6.1-319.7 12.3-9.7.9-15.8 10.9-12.1 20z" style="fill:url(#SVGID_00000055695827187544394910000015373243731792326036_)"/><path d="M614 803.1 497.1 506.3c-2.4-6 2-12.5 8.4-12.6l288.8-11c7.4-.3 14.2 4.2 17 11.1l105.8 289.3-303.1 20z" class="st7"/><linearGradient id="SVGID_00000058581900381778732470000007925010149615073933_" x1="-1551.998" x2="-1548.843" y1="724.322" y2="879.718" gradientTransform="matrix(-1 0 0 1 -732.515 0)" gradientUnits="userSpaceOnUse"><stop offset="0" style="stop-color:#09005d"/><stop offset="1" style="stop-color:#1a0f91"/></linearGradient><path d="M1035.3 806.8c0 5.5-4.4 9.9-9.9 9.9H622c-8.3 0-15.1-6.8-15.1-15.1l-6.3-7.4 418.8-3.6c8.8.2 15.9 7.4 15.9 16.2z" style="fill:url(#SVGID_00000058581900381778732470000007925010149615073933_)"/><linearGradient id="SVGID_00000160869027393140267770000015755365946057528960_" x1="860.475" x2="768.475" y1="75.729" y2="327.729" gradientUnits="userSpaceOnUse"><stop offset="0" style="stop-color:#09005d"/><stop offset="1" style="stop-color:#1a0f91"/></linearGradient><path d="M873.2 531.3c-8.8-14.5-24.1-24-33.3-38.2-11.6-17.9-12-41.6-4.4-61.6 6.3-16.6 17.6-30.8 24.1-47.3 8.7-22.2 8.8-31.8 4.9-54.1-3.5-19.6-11.1-40.6-30-51.8-23.3-13.9-51.8-16.6-78.5-11.5-27.7 5.2-54.6 17-74.8 36.6-20.3 19.6-33.5 47.1-33.1 75.3.2 19.1 6.4 38.7.3 56.8-4.8 14.1-17.1 25.3-31.6 28.6-16.1 3.7-32.7-1.7-49.2-1.5-16.3.2-32.5 6.3-45 16.8-11 9.4-19.2 22.5-21.1 36.8-1.9 14.4 3.1 29.8 14.2 39.2 7.5 6.4 18.2 10.7 21 20.2 3.1 10.6-6 21.3-16.2 25.6-10.2 4.3-21.7 4.7-32.1 8.5-23.2 8.6-37.3 34.8-35.5 59.5 1.8 24.7 17.4 47.1 38 61 20.5 13.9 45.4 20.2 70.1 22.2 24.7 2 49.5 0 74.3-1.1 28.3-1.3 57.2-1.7 84-10.8 27.2-9.2 50.6-26.8 72.5-45.3 10.4-8.8 20.9-18.4 25.5-31.1 3.4-9.3 3.4-19.5 7.3-28.6 8.3-19.4 31.4-27.7 44.8-44.1 13.2-16.5 14.9-41.8 3.8-60.1z" style="fill:url(#SVGID_00000160869027393140267770000015755365946057528960_)"/><linearGradient id="SVGID_00000173128313396444961770000004005061219783830180_" x1="537.345" x2="745.164" y1="424.36" y2="424.36" gradientUnits="userSpaceOnUse"><stop offset="0" style="stop-color:#dae3fe"/><stop offset="1" style="stop-color:#e9effd"/></linearGradient><path d="M566 566.2h-.2c-11.7-2.2-22-10.7-26.3-21.8-4.3-11.1-2.3-24.4 4.9-33.8 10.8-14 29.8-17.6 48.3-20.1l33.6-4.6c19-2.6 38.4-6.2 49.3-20.3 11.6-14.9 9.3-35.4 7.1-55.1-.3-2.3-.5-4.5-.7-6.7-2.9-28.2 0-52.7 8.8-72.9 10.7-24.6 30.6-42.7 53.3-48.4.5-.1.9.2 1 .6.1.5-.2.9-.6 1-22.2 5.6-41.7 23.3-52.1 47.4-8.6 19.9-11.5 44.1-8.6 72 .2 2.2.5 4.4.7 6.7 2.3 20.1 4.6 40.8-7.4 56.3-11.3 14.5-31.1 18.3-50.4 20.9l-33.6 4.6c-18.2 2.5-36.8 6-47.2 19.5-6.9 9-8.8 21.6-4.7 32.2 4.1 10.6 13.9 18.7 25 20.8.5.1.8.5.7 1-.1.4-.5.7-.9.7z" style="fill:url(#SVGID_00000173128313396444961770000004005061219783830180_)"/><linearGradient id="SVGID_00000031922576915128683200000005863181274163776186_" x1="561.602" x2="703.087" y1="472.012" y2="472.012" gradientUnits="userSpaceOnUse"><stop offset="0" style="stop-color:#dae3fe"/><stop offset="1" style="stop-color:#e9effd"/></linearGradient><path d="M576.6 555.9c-.4 0-.8-.2-1.2-.5-4.1-3.8-8.8-8.2-11.5-13.7-2.5-5-3.8-12.5.3-18.3 2.6-3.8 6.9-6 11.1-7.8 10.3-4.4 21-7.5 32-9.3 7.2-1.2 14.5-1.8 21.6-2.4 9.2-.8 18.6-1.6 27.7-3.5 10.8-2.4 30.3-8.9 38.7-25.9 6.8-13.7 4.3-29.1 1.6-45.3-2.2-13.2-4.4-26.8-1.3-39.7.2-.9 1.1-1.5 2.1-1.3.9.2 1.5 1.1 1.3 2.1-2.9 12.3-.7 25.5 1.4 38.3 2.7 16.1 5.4 32.6-1.9 47.4-9.1 18.3-29.6 25.2-41 27.8-9.3 2-18.9 2.8-28.1 3.6-7 .6-14.3 1.2-21.3 2.3-10.7 1.8-21.3 4.8-31.3 9.1-3.5 1.5-7.4 3.3-9.6 6.6-2.6 3.8-2.6 9.7 0 14.9 2.5 5 6.7 8.9 10.8 12.8.7.6.7 1.7.1 2.4-.6.2-1 .4-1.5.4z" style="fill:url(#SVGID_00000031922576915128683200000005863181274163776186_)"/><path d="M848.7 498.2c-16-5.1-62.6-14.7-107.8 25.6-7.7 6.8-10.9 17.4-8.4 27.3 11.2 44.2 34.1 185.7 5.5 241.6 0 0 8.9-.1 108.4 1 0 0 25.5-103.6 57.5-148.7 22.1-31.2-32.5-118.9-46.3-140.1-2.1-3.1-5.2-5.5-8.9-6.7z" class="st9"/><linearGradient id="SVGID_00000056425969697795768790000012062839923472040865_" x1="808.335" x2="806.335" y1="413.878" y2="767.877" gradientUnits="userSpaceOnUse"><stop offset="0" style="stop-color:#ff928e"/><stop offset="1" style="stop-color:#feb3b1"/></linearGradient><path d="M805.8 410.1s-24.8 66.8-27.1 96.5c0 0 26.1 12.4 51.1-7.4 0 0 3.7-67.1 7.6-79.1l-31.6-10z" style="fill:url(#SVGID_00000056425969697795768790000012062839923472040865_)"/><linearGradient id="SVGID_00000055708405573514985970000003139195385843972254_" x1="-11186.206" x2="-11176.206" y1="1529.017" y2="1631.017" gradientTransform="scale(-1 1) rotate(15.301 2327.688 39664.532)" gradientUnits="userSpaceOnUse"><stop offset="0" style="stop-color:#ff928e"/><stop offset="1" style="stop-color:#feb3b1"/></linearGradient><path d="M840.3 319s60.8 88 23.2 112.7c-37.6 24.7-80.8-37.9-80.8-37.9S769 346 784.4 330c15.3-15.9 55.9-11 55.9-11z" style="fill:url(#SVGID_00000055708405573514985970000003139195385843972254_)"/><linearGradient id="SVGID_00000083795473377359299000000005455990004195609262_" x1="888.629" x2="796.629" y1="86.008" y2="338.008" gradientUnits="userSpaceOnUse"><stop offset="0" style="stop-color:#09005d"/><stop offset="1" style="stop-color:#1a0f91"/></linearGradient><path d="M811.8 297.7s28.4 7.2 32.2 20.2c3.8 13-40.9 24.3-53.4 24.6l-10.9 52S750.8 345 763 316.8c12.3-28.1 48.8-19.1 48.8-19.1z" style="fill:url(#SVGID_00000083795473377359299000000005455990004195609262_)"/><linearGradient id="SVGID_00000137844876995446386740000017763241418727344061_" x1="-11137.185" x2="-11127.185" y1="1524.211" y2="1626.211" gradientTransform="scale(-1 1) rotate(15.301 2327.688 39664.532)" gradientUnits="userSpaceOnUse"><stop offset="0" style="stop-color:#ff928e"/><stop offset="1" style="stop-color:#feb3b1"/></linearGradient><path d="M794.8 387.5s-23.7-28.4-33.7-10.3c-9.9 18.1 21.3 32.3 32.3 23.5l1.4-13.2z" style="fill:url(#SVGID_00000137844876995446386740000017763241418727344061_)"/><linearGradient id="SVGID_00000052796482255266727720000009097366716851722628_" x1="-1423.358" x2="-1452.127" y1="533.907" y2="771.133" gradientTransform="matrix(-1 0 0 1 -732.515 0)" gradientUnits="userSpaceOnUse"><stop offset="0" style="stop-color:#ff928e"/><stop offset="1" style="stop-color:#feb3b1"/></linearGradient><path d="M734.4 532.5s-76.9 61.9-97.2 147.8c-20.2 85.9 109.4 97.2 109.4 97.2s17.9-19.4 38.7-12c20.8 7.4 2.2-34.3-22.3-34.6-24.5-.3-13.4 19.2-47.8 3-33.5-15.8-53.6-63.4 33.6-133.6 5.1-4.1 9.1-9.3 11.6-15.3 17.5-41.9 4.7-69.7-26-52.5z" style="fill:url(#SVGID_00000052796482255266727720000009097366716851722628_)"/><path d="m973.9 754.8-2.1-6.5c-.2-.5.1-1.1.6-1.2.5-.2 1.1.1 1.2.6l2.1 6.5c.2.5-.1 1.1-.6 1.2-.4.2-1-.1-1.2-.6zm-6.7-19.3-2.3-6.4c-.2-.5.1-1.1.6-1.3.5-.2 1.1.1 1.3.6l2.3 6.4c.2.5-.1 1.1-.6 1.3-.5.2-1.1-.1-1.3-.6zm-6.7-19.4-2.1-6.5c-.2-.5.1-1.1.7-1.3.5-.2 1.1.1 1.3.7l2.1 6.5c.2.5-.1 1.1-.7 1.3-.6.2-1.2-.1-1.3-.7zm-6.1-19.6-1.8-6.6c-.2-.6.2-1.2.8-1.3.6-.2 1.2.2 1.3.8l1.7 6.6c.1.6-.2 1.1-.8 1.3-.5.1-1-.3-1.2-.8zm-4.9-20-1.3-6.7c-.1-.6.3-1.2.9-1.3.6-.1 1.2.3 1.3.9l1.3 6.7c.1.6-.3 1.2-.9 1.3-.6.1-1.1-.3-1.3-.9zm-3.4-20.3-.8-6.8c-.1-.6.4-1.2 1-1.2.6-.1 1.2.4 1.2 1l.8 6.8c.1.6-.4 1.2-1 1.2-.6.1-1.2-.3-1.2-1zm-2-20.4-.3-6.8c0-.6.5-1.2 1.1-1.2.6 0 1.2.5 1.2 1.1l.3 6.8c0 .6-.5 1.2-1.1 1.2-.7 0-1.2-.5-1.2-1.1zm-.5-20.6.2-6.9c0-.6.6-1.2 1.2-1.1.6 0 1.2.6 1.1 1.2l-.2 6.8c0 .6-.6 1.1-1.2 1.1-.6.1-1.1-.4-1.1-1.1zm1-20.5.6-6.8c.1-.7.6-1.1 1.3-1.1.7.1 1.1.6 1.1 1.3l-.6 6.8c-.1.7-.6 1.1-1.3 1.1-.7-.1-1.2-.7-1.1-1.3zm2.3-20.5 1.1-6.8c.1-.7.7-1.1 1.4-1 .7.1 1.1.7 1 1.4l-1.1 6.7c-.1.7-.7 1.1-1.4 1-.7 0-1.1-.6-1-1.3zm3.5-20.2 1.4-6.7c.1-.7.8-1.1 1.5-1 .7.1 1.1.8 1 1.5l-1.4 6.7c-.1.7-.8 1.1-1.5 1-.7-.2-1.1-.8-1-1.5zm4.7-20 1.8-6.6c.2-.7.9-1.1 1.6-.9.7.2 1.1.9.9 1.6l-1.8 6.5c-.2.7-.9 1.1-1.6.9-.7-.2-1.1-.9-.9-1.5zm6-19.7 2.3-6.5c.2-.7 1-1 1.7-.8.7.2 1 1 .8 1.7l-2.3 6.4c-.2.7-1 1-1.7.8-.7-.2-1-.9-.8-1.6zm7.4-19.2 2.7-6.3c.3-.7 1.1-1 1.8-.7.7.3 1 1.1.7 1.8l-2.7 6.2c-.3.7-1.1 1-1.7.7-.8-.3-1.1-1.1-.8-1.7zm8.6-18.7 3.2-6.1c.3-.7 1.2-.9 1.8-.6.7.3.9 1.2.6 1.8l-3.2 6c-.3.7-1.2.9-1.8.6s-.9-1.1-.6-1.7zm9.9-18.1 3.6-5.9c.4-.7 1.3-.9 1.9-.5.7.4.9 1.3.5 1.9l-3.6 5.8c-.4.7-1.2.9-1.9.5-.7-.3-.9-1.1-.5-1.8zm11.1-17.3 3.9-5.6c.4-.6 1.3-.8 2-.3.6.4.8 1.3.3 2l-3.9 5.6c-.4.6-1.3.8-2 .3-.6-.5-.7-1.4-.3-2zm12.2-16.6 4.3-5.3c.5-.6 1.4-.7 2-.2.6.5.7 1.4.2 2l-4.3 5.3c-.5.6-1.4.7-2 .2-.6-.5-.7-1.4-.2-2zm13.2-15.7 4.6-5.1c.5-.6 1.4-.6 2-.1.6.5.6 1.4.1 2l-4.6 5c-.5.6-1.4.6-2 .1-.6-.5-.6-1.4-.1-1.9zm14.2-15 4.9-4.8c.6-.6 1.5-.5 2 0 .6.6.5 1.5 0 2l-4.9 4.7c-.6.6-1.5.5-2 0-.6-.4-.6-1.3 0-1.9zm15-14 5.2-4.5c.6-.5 1.5-.5 2 .1s.5 1.5-.1 2l-5.1 4.4c-.6.5-1.5.5-2-.1-.6-.5-.6-1.4 0-1.9zm15.8-13.2 5.4-4.2c.6-.5 1.5-.4 2 .3.5.6.4 1.5-.3 2l-5.4 4.1c-.6.5-1.5.4-2-.3-.4-.5-.3-1.4.3-1.9zm16.6-12.2 5.7-3.9c.7-.5 1.6-.3 2 .4.5.7.3 1.6-.4 2l-5.6 3.8c-.7.5-1.6.3-2-.4-.6-.5-.4-1.4.3-1.9zm17.2-11.3 5.9-3.6c.7-.4 1.6-.2 2 .5.4.7.2 1.6-.5 2l-5.8 3.5c-.7.4-1.6.2-2-.5-.5-.6-.3-1.5.4-1.9zm17.7-10.4 6-3.2c.7-.4 1.6-.1 2 .6.4.7.1 1.6-.6 2l-6 3.2c-.7.4-1.6.1-2-.6-.3-.7-.1-1.6.6-2zm18.3-9.3 6.2-2.9c.7-.3 1.6 0 2 .7.3.7 0 1.6-.7 2l-6.2 2.9c-.7.3-1.6 0-2-.7-.3-.8 0-1.7.7-2zm18.8-8.4 6.4-2.6c.8-.3 1.6.1 1.9.8.3.8-.1 1.6-.8 1.9l-6.3 2.6c-.8.3-1.6-.1-1.9-.8-.4-.8 0-1.6.7-1.9zm19.2-7.4 6.5-2.2c.8-.3 1.6.1 1.9.9.3.8-.1 1.6-.9 1.9l-6.4 2.2c-.8.3-1.6-.1-1.9-.9-.4-.8 0-1.7.8-1.9zm19.6-6.4 6.6-1.9c.8-.2 1.6.2 1.8 1 .2.8-.2 1.6-1 1.8l-6.5 1.9c-.8.2-1.6-.2-1.8-1-.4-.7.1-1.5.9-1.8zm19.9-5.2 6.7-1.5c.8-.2 1.6.3 1.8 1.1.2.8-.3 1.6-1.1 1.8l-6.6 1.5c-.8.2-1.6-.3-1.8-1.1-.4-.9.2-1.7 1-1.8zm20.1-4.2 6.8-1.1c.8-.1 1.6.4 1.7 1.2.1.8-.4 1.6-1.2 1.7l-6.7 1.1c-.8.1-1.6-.4-1.7-1.2-.3-.8.3-1.5 1.1-1.7zm20.4-2.9 6.8-.7c.8-.1 1.6.5 1.7 1.3.1.8-.5 1.6-1.3 1.7l-6.8.7c-.8.1-1.6-.5-1.7-1.3-.1-.9.5-1.6 1.3-1.7zm20.5-1.7 6.9-.3c.8 0 1.5.6 1.6 1.5s-.6 1.5-1.5 1.6l-6.8.3c-.8 0-1.5-.6-1.6-1.5-.1-.9.6-1.6 1.4-1.6zm20.6-.4 6.9.2c.8 0 1.5.7 1.5 1.6 0 .8-.7 1.5-1.6 1.5l-6.8-.2c-.8 0-1.5-.7-1.5-1.6-.1-.9.6-1.5 1.5-1.5zm20.5 1.1 6.8.7c.8.1 1.5.8 1.4 1.7-.1.8-.8 1.5-1.7 1.4l-6.8-.7c-.8-.1-1.4-.8-1.4-1.7.2-.9.9-1.5 1.7-1.4zm20.5 2.4 6.8 1.1c.8.1 1.4.9 1.3 1.8-.1.8-.9 1.4-1.8 1.3l-6.7-1.1c-.8-.1-1.4-.9-1.3-1.8.1-.8.9-1.4 1.7-1.3zm20.2 3.8 6.7 1.5c.8.2 1.3 1 1.2 1.8-.2.8-1 1.3-1.8 1.2l-6.6-1.5c-.8-.2-1.3-1-1.2-1.8s.9-1.4 1.7-1.2zm20 5 6.6 2c.8.2 1.3 1.1 1 1.9-.2.8-1.1 1.3-1.9 1l-6.5-2c-.8-.2-1.3-1.1-1-1.9.1-.8 1-1.2 1.8-1zm19.6 6.3 6.4 2.4c.8.3 1.2 1.2.9 2-.3.8-1.2 1.2-2 .9l-6.4-2.4c-.8-.3-1.2-1.2-.9-2 .3-.7 1.2-1.2 2-.9zm19.1 7.6 6.3 2.8c.8.4 1.1 1.3.8 2.1-.4.8-1.3 1.1-2.1.8l-6.2-2.8c-.8-.4-1.1-1.3-.8-2.1.3-.8 1.2-1.1 2-.8zm18.6 8.9 6.1 3.2c.8.4 1.1 1.3.7 2.1-.4.8-1.3 1.1-2.1.7l-6-3.2c-.8-.4-1.1-1.3-.6-2.1.2-.8 1.2-1.1 1.9-.7zm18 10 5.9 3.6c.7.5 1 1.4.5 2.2-.5.7-1.4 1-2.2.5l-5.8-3.5c-.7-.5-1-1.4-.5-2.2.4-.8 1.4-1.1 2.1-.6zm17.4 11 5.6 3.9c.7.5.9 1.5.4 2.2-.5.7-1.5.9-2.2.4l-5.6-3.9c-.7-.5-.9-1.5-.4-2.2.5-.7 1.5-.9 2.2-.4zm16.7 12 5.4 4.2c.7.5.8 1.5.3 2.2-.5.7-1.5.8-2.2.3l-5.4-4.2c-.7-.5-.8-1.5-.3-2.2.5-.7 1.5-.8 2.2-.3zm16 12.9 5.2 4.5c.7.6.7 1.6.2 2.2-.6.7-1.6.7-2.2.2l-5.2-4.4c-.7-.6-.7-1.6-.2-2.2.6-.8 1.6-.9 2.2-.3zm15.5 13.6 5 4.7c.6.6.7 1.6.1 2.2-.6.6-1.6.7-2.2.1l-5-4.6c-.6-.6-.7-1.6-.1-2.2.5-.8 1.5-.8 2.2-.2zm14.8 14.2 4.8 4.9c.6.6.6 1.6 0 2.3-.6.6-1.6.6-2.3 0l-4.8-4.8c-.6-.6-.6-1.6 0-2.3.7-.7 1.7-.7 2.3-.1zm14.3 14.7 4.7 5c.6.6.6 1.7-.1 2.3-.6.6-1.7.6-2.3-.1l-4.6-5c-.6-.6-.6-1.7.1-2.3.6-.6 1.6-.5 2.2.1zm13.9 15.2 4.5 5.1c.6.7.5 1.7-.1 2.3-.7.6-1.7.5-2.3-.1l-4.5-5.1c-.6-.7-.5-1.7.1-2.3.7-.7 1.7-.6 2.3.1zm13.5 15.5 4.4 5.2c.6.7.5 1.7-.2 2.3-.7.6-1.7.5-2.3-.2l-4.4-5.2c-.6-.7-.5-1.7.2-2.3.7-.6 1.7-.5 2.3.2zm13.1 15.7 4.3 5.3c.6.7.5 1.7-.2 2.3-.7.6-1.7.5-2.3-.2l-4.3-5.3c-.6-.7-.5-1.7.2-2.3.7-.6 1.8-.5 2.3.2zm13 15.9 4.3 5.3c.6.7.5 1.7-.2 2.3-.7.6-1.7.5-2.3-.2l-4.3-5.3c-.6-.7-.5-1.7.2-2.3.7-.6 1.7-.5 2.3.2zm12.9 15.9 4.3 5.3c.6.7.5 1.7-.2 2.3-.7.6-1.7.5-2.3-.2l-4.3-5.3c-.6-.7-.5-1.7.2-2.3.7-.6 1.7-.5 2.3.2zm12.9 15.9 4.3 5.3c.6.7.5 1.7-.2 2.3-.7.6-1.7.5-2.3-.2l-4.3-5.3c-.6-.7-.5-1.7.2-2.3.7-.6 1.7-.5 2.3.2zm13.1 15.8 4.4 5.2c.6.7.5 1.7-.2 2.3-.7.6-1.7.5-2.3-.2l-4.4-5.2c-.6-.7-.5-1.7.2-2.3.6-.6 1.7-.5 2.3.2zm13.4 15.4 4.6 5c.6.7.6 1.7-.1 2.3-.7.6-1.7.6-2.3-.1l-4.6-5.1c-.6-.7-.6-1.7.1-2.3.6-.5 1.6-.5 2.3.2zm13.9 14.9 4.8 4.8c.6.6.6 1.7 0 2.3-.6.6-1.7.6-2.3 0l-4.9-4.9c-.6-.6-.6-1.7 0-2.3.7-.6 1.7-.6 2.4.1zm14.7 14.1 5.1 4.4c.7.6.8 1.7.2 2.3-.6.7-1.7.8-2.3.2l-5.2-4.5c-.7-.6-.8-1.6-.2-2.3.7-.7 1.7-.7 2.4-.1zm15.8 12.8 5.5 3.9h.1c.8.5.9 1.6.4 2.3-.5.8-1.6.9-2.3.4l-5.6-4c-.8-.5-.9-1.6-.4-2.3.5-.7 1.5-.9 2.3-.3zm17.1 10.9c2 1.1 4 2.1 6 3.1.8.4 1.2 1.4.8 2.2-.4.8-1.4 1.2-2.2.8-2.1-1-4.1-2-6.2-3.1-.8-.4-1.1-1.5-.7-2.3.4-.8 1.5-1.1 2.3-.7zm18.5 8.1c2.1.7 4.3 1.3 6.4 1.9.9.2 1.4 1.1 1.2 2-.2.9-1.1 1.4-2 1.2-2.2-.6-4.5-1.2-6.7-2-.9-.3-1.4-1.2-1.1-2.1.3-.8 1.3-1.3 2.2-1zm19.6 4.3c2.2.2 4.5.4 6.7.5.9 0 1.7.8 1.6 1.8 0 .9-.8 1.7-1.7 1.6-2.3-.1-4.6-.3-6.9-.5-.9-.1-1.6-.9-1.5-1.9 0-.9.9-1.6 1.8-1.5zm19.8-.4c2.1-.5 4.2-1.1 6.3-2 .9-.3 1.9.1 2.2.9.3.9-.1 1.9-.9 2.2-2.2.9-4.5 1.6-6.8 2.1-.9.2-1.8-.4-2-1.3-.3-.8.3-1.7 1.2-1.9zm17.6-8.6c1.7-1.4 3.4-2.8 5-4.4.7-.7 1.7-.7 2.4 0s.7 1.7 0 2.4c-1.7 1.6-3.4 3.2-5.3 4.6-.7.6-1.8.4-2.4-.3-.5-.7-.4-1.7.3-2.3zm13.4-14.7c1.2-1.9 2.4-3.8 3.4-5.7.4-.8 1.5-1.2 2.3-.7.8.4 1.2 1.5.7 2.3-1.1 2.1-2.3 4.1-3.6 6-.5.8-1.6 1-2.4.5-.7-.5-.9-1.6-.4-2.4zm8.5-18c.7-2.1 1.2-4.3 1.6-6.5.2-.9 1.1-1.5 2-1.3.9.2 1.5 1.1 1.3 2-.4 2.3-1 4.6-1.7 6.8-.3.9-1.2 1.4-2.1 1.1-.9-.2-1.4-1.2-1.1-2.1zm2.8-19.7c0-2.2-.1-4.5-.3-6.7-.1-.9.6-1.7 1.5-1.7.9-.1 1.7.6 1.7 1.5.2 2.3.3 4.6.3 6.9 0 .9-.7 1.7-1.6 1.7-.8-.1-1.6-.8-1.6-1.7zm-1.8-20.2-1.1-6.7c-.1-.8.4-1.6 1.3-1.8.8-.1 1.6.4 1.8 1.3l1.1 6.8c.1.9-.4 1.7-1.3 1.8s-1.6-.5-1.8-1.4zm-3.7-20-1.5-6.6c-.2-.8.3-1.5 1.1-1.7.8-.2 1.5.3 1.7 1l1.7 6.7c.2.8-.3 1.6-1.1 1.8-.9.1-1.7-.3-1.9-1.2 0 .1 0 .1 0 0zm-5.1-19.8-2-6.5c-.2-.6.2-1.3.8-1.5.6-.2 1.3.2 1.5.8l2.1 6.5c.2.7-.2 1.4-.8 1.6-.6.2-1.3-.1-1.6-.9.1.1 0 .1 0 0zm-6.3-19.4-2.4-6.3c-.2-.5.1-1.1.6-1.3.5-.2 1 .1 1.2.5l2.6 6.3c.2.5 0 1.2-.6 1.4-.5.3-1.1.1-1.4-.6.1.1 0 .1 0 0zm-8-18.7c-1-2-2.2-4-3.4-5.9-.2-.3-.1-.7.2-.9.3-.2.7-.1.9.2 1.3 1.9 2.5 3.8 3.7 5.8.2.4.1.8-.3 1.1-.4.3-.9.1-1.1-.3 0 .1 0 .1 0 0z" class="st0"/><path d="m1780.2 396.9-12.1 18.4-7.2-16.1z" class="st39"/><path d="m1704.6 331.9 20.9 76.2c.4 1.5 1.4 2.7 2.7 3.4s2.9.9 4.3.4l75.7-23.8c.9-.3 1.5-1 1.6-1.9.1-.9-.4-1.8-1.2-2.2l-104-52.1z" class="st40"/><path d="m1780.2 396.9-75.6-65 63.4 68.9-3.2 5.2z" class="st39"/><path d="m1760.7 403.1 7.4 12.2-.1-14.5z" class="st39"/><path d="m1802.3 1369-.3-2.5c0-.4.2-.7.6-.7.4 0 .7.2.7.6l.3 2.5c0 .3-.2.7-.6.7-.3 0-.6-.2-.7-.6zm-2.7-14.6-.6-2.4c-.1-.4.1-.8.5-.9.4-.1.8.1.9.5l.6 2.4c.1.4-.1.8-.5.9-.4.1-.8-.1-.9-.5zm-4.5-14.3-.9-2.3c-.2-.4 0-.9.5-1.1.4-.2.9 0 1.1.5l.9 2.4c.2.4-.1.9-.5 1-.4.2-.9 0-1.1-.5zm-6-13.6-1.2-2.2c-.2-.4-.1-1 .4-1.2.4-.2 1-.1 1.2.4l1.2 2.2c.2.4.1 1-.4 1.2-.4.2-1 .1-1.2-.4zm-7.8-12.7-1.5-2c-.3-.5-.2-1.1.2-1.4.5-.3 1.1-.2 1.4.2l1.5 2.1c.3.4.2 1.1-.2 1.4-.4.3-1 .2-1.4-.3zm-9.5-11.4-1.7-1.7c-.4-.4-.4-1.1 0-1.6.4-.4 1.1-.4 1.6 0l1.8 1.8c.4.4.4 1.1 0 1.5-.5.5-1.2.5-1.7 0zm-11.1-9.7-2-1.4c-.5-.4-.7-1.1-.3-1.7.4-.5 1.1-.7 1.7-.3l2.1 1.5c.5.4.6 1.1.3 1.7-.6.5-1.3.6-1.8.2zm-12.7-7.7-2.2-1.1c-.6-.3-.9-1.1-.6-1.7.3-.6 1.1-.9 1.7-.6l2.3 1.1c.6.3.9 1.1.6 1.7-.4.7-1.1.9-1.8.6zm-13.7-5.4-2.4-.7c-.7-.2-1.2-1-.9-1.7.2-.7 1-1.2 1.7-.9l2.4.7c.7.2 1.1 1 .9 1.7-.2.7-1 1.1-1.7.9zm-14.4-3.3-2.4-.4c-.8-.1-1.3-.8-1.2-1.6.1-.8.8-1.3 1.6-1.2l2.5.4c.8.1 1.3.9 1.2 1.6-.2.7-.9 1.3-1.7 1.2zm-14.8-1.4-2.5-.1c-.8 0-1.5-.7-1.5-1.5s.7-1.5 1.5-1.5l2.5.1c.8 0 1.5.7 1.4 1.5.1.9-.6 1.5-1.4 1.5zm-14.9.3-2.5.2c-.9.1-1.6-.6-1.7-1.4-.1-.9.6-1.6 1.4-1.7l2.5-.2c.8-.1 1.6.6 1.6 1.4.2.9-.4 1.6-1.3 1.7zm-14.7 1.7-2.4.4c-.9.1-1.7-.4-1.8-1.3-.1-.9.4-1.7 1.3-1.8l2.5-.4c.9-.1 1.7.5 1.8 1.3 0 .8-.6 1.6-1.4 1.8zm-14.7 2.8-2.4.6c-.9.2-1.8-.3-2-1.2s.3-1.8 1.2-2l2.5-.6c.9-.2 1.8.3 2 1.2.2.9-.4 1.8-1.3 2zm-14.4 3.8-2.4.7c-.9.3-1.8-.2-2.1-1.1-.3-.9.2-1.8 1.1-2.1l2.4-.7c.9-.3 1.8.3 2.1 1.2.3.8-.2 1.7-1.1 2zm-14.2 4.6-2.3.8c-.9.3-1.9-.2-2.2-1.1-.3-.9.2-1.9 1.1-2.2l2.4-.8c.9-.3 1.9.2 2.2 1.1.2.9-.3 1.9-1.2 2.2zm-14 5.3-2.3.9c-.9.4-2-.1-2.4-1-.4-.9.1-2 1-2.4l2.3-.9c.9-.4 2 .1 2.3 1 .5.9.1 2-.9 2.4zm-13.7 5.8-2.3 1c-.9.4-2 0-2.5-.9-.4-.9 0-2 .9-2.5l2.3-1c.9-.4 2 0 2.4.9.5 1 .1 2.1-.8 2.5zm-13.7 6.2-2.3 1c-1 .4-2.1 0-2.5-1-.4-1 0-2.1 1-2.5l2.3-1c1-.4 2.1 0 2.5 1 .4 1 0 2.1-1 2.5zm-13.9 5.8-2.3.9c-1 .4-2.1-.1-2.5-1.1-.4-1 .1-2.1 1.1-2.5l2.3-.9c1-.4 2.1.1 2.5 1.1.4 1-.1 2.1-1.1 2.5zm-14.2 5.2-2.4.8c-1 .3-2.1-.2-2.5-1.2-.3-1 .2-2.1 1.2-2.5l2.4-.8c1-.3 2.1.2 2.5 1.2.4 1.1-.2 2.2-1.2 2.5zm-14.3 4.7-2.4.7c-1 .3-2.1-.3-2.4-1.3-.3-1 .3-2.1 1.3-2.4l2.4-.7c1-.3 2.1.3 2.4 1.3.3 1-.3 2.1-1.3 2.4zm-14.5 4.3-2.4.7c-1 .3-2.1-.3-2.4-1.4-.3-1 .3-2.1 1.4-2.4l2.4-.7c1-.3 2.1.3 2.4 1.4.3 1-.3 2.1-1.4 2.4zm-14.5 3.9-2.4.6c-1.1.3-2.1-.4-2.4-1.4-.3-1.1.4-2.1 1.4-2.4l2.4-.6c1.1-.3 2.1.4 2.4 1.4.3 1-.3 2.1-1.4 2.4zm-14.6 3.6-2.4.6c-1.1.2-2.1-.4-2.4-1.5-.2-1.1.4-2.1 1.5-2.4l2.4-.6c1.1-.2 2.1.4 2.4 1.5.2 1-.5 2.1-1.5 2.4zm-14.7 3.3-2.5.5c-1.1.2-2.1-.5-2.4-1.5-.2-1.1.5-2.1 1.5-2.4l2.4-.5c1.1-.2 2.1.5 2.4 1.5.4 1.1-.3 2.1-1.4 2.4zm-14.7 3-2.5.5c-1.1.2-2.1-.5-2.4-1.6-.2-1.1.5-2.1 1.6-2.4l2.5-.5c1.1-.2 2.1.5 2.4 1.6.2 1.1-.6 2.2-1.6 2.4zm-14.8 2.8-2.5.4c-1.1.2-2.2-.5-2.3-1.6-.2-1.1.5-2.2 1.6-2.3l2.5-.4c1.1-.2 2.1.5 2.3 1.6.2 1-.5 2.1-1.6 2.3zm-14.9 2.5-2.5.4c-1.1.2-2.2-.6-2.3-1.7s.6-2.2 1.7-2.3l2.5-.4c1.1-.2 2.2.6 2.3 1.7.2 1.1-.6 2.1-1.7 2.3zm-15 2.4-2.5.4c-1.1.2-2.2-.6-2.3-1.7-.2-1.1.6-2.2 1.7-2.3l2.5-.4c1.1-.2 2.2.6 2.3 1.7.2 1-.6 2.1-1.7 2.3zm-15.2 2.1-2.5.3c-1.1.1-2.2-.6-2.3-1.8s.6-2.2 1.8-2.3l2.5-.3c1.1-.2 2.2.6 2.3 1.8.2 1.1-.6 2.1-1.8 2.3zm-15.3 1.9-2.5.3c-1.1.1-2.2-.7-2.3-1.8-.1-1.1.7-2.2 1.8-2.3l2.5-.3c1.1-.1 2.2.7 2.3 1.8.2 1.2-.6 2.2-1.8 2.3zm-14.9 1.7-2.5.3c-1.1.1-2.2-.7-2.3-1.9-.1-1.1.7-2.2 1.9-2.3l2.5-.3c1.1-.1 2.2.7 2.3 1.9.1 1.2-.8 2.2-1.9 2.3zm-15 1.5-2.5.2c-1.2.1-2.2-.7-2.3-1.9-.1-1.2.7-2.2 1.9-2.3l2.5-.2c1.2-.1 2.2.7 2.3 1.9.1 1.1-.7 2.2-1.9 2.3zm-15 1.2-2.5.2c-1.2.1-2.2-.8-2.3-1.9-.1-1.2.8-2.2 1.9-2.3l2.5-.2c1.2-.1 2.2.8 2.3 1.9.2 1.2-.7 2.3-1.9 2.3zm-15 1.1-2.5.2c-1.2.1-2.2-.8-2.3-2-.1-1.2.8-2.2 2-2.3l2.5-.2c1.2-.1 2.2.8 2.3 2 .1 1.2-.8 2.3-2 2.3zm-15 .9-2.5.1c-1.2.1-2.2-.8-2.2-2s.8-2.2 2-2.2l2.5-.1c1.2-.1 2.2.8 2.2 2 .1 1.1-.8 2.1-2 2.2zm-15 .7-2.5.1c-1.2 0-2.2-.9-2.2-2.1 0-1.2.9-2.2 2.1-2.2l2.5-.1c1.2 0 2.2.9 2.2 2.1 0 1.1-.9 2.1-2.1 2.2zm-15.1.4-2.5.1c-1.2 0-2.2-.9-2.2-2.1 0-1.2.9-2.2 2.1-2.2l2.5-.1c1.2 0 2.2.9 2.2 2.1.1 1.2-.9 2.2-2.1 2.2zm-15 .3h-2.5c-1.2 0-2.1-.9-2.1-2.1 0-1.2.9-2.1 2.1-2.1h2.5c1.2 0 2.1.9 2.2 2.1-.1 1.1-1 2.1-2.2 2.1zm-15 0h-2.5c-1.2 0-2.1-1-2.1-2.1 0-1.2 1-2.1 2.1-2.1h2.5c1.2 0 2.1 1 2.1 2.1s-1 2.1-2.1 2.1zm-15.1-.2-2.5-.1c-1.2 0-2.1-1-2.1-2.1 0-1.2 1-2.1 2.2-2.1l2.5.1c1.2 0 2.1 1 2.1 2.1-.1 1.2-1 2.1-2.2 2.1zm-15-.4-2.5-.1c-1.2 0-2.1-1-2-2.2 0-1.2 1-2.1 2.2-2l2.5.1c1.2 0 2.1 1 2 2.2-.1 1.1-1.1 2-2.2 2zm-15.1-.7-2.5-.1c-1.1-.1-2-1-2-2.2.1-1.1 1-2 2.2-2l2.5.1c1.1.1 2 1 2 2.2 0 1.2-1 2.1-2.2 2zm-15-.9-2.5-.2c-1.1-.1-2-1.1-1.9-2.2.1-1.1 1.1-2 2.2-1.9l2.5.2c1.1.1 2 1.1 1.9 2.2 0 1.1-1 2-2.2 1.9zm-15-1.2-2.5-.2c-1.1-.1-2-1.1-1.9-2.2.1-1.1 1.1-2 2.2-1.9l2.5.2c1.1.1 2 1.1 1.9 2.2-.1 1.2-1 2-2.2 1.9zm-15-1.4-2.5-.3c-1.1-.1-1.9-1.1-1.8-2.2.1-1.1 1.1-1.9 2.2-1.8l2.5.3c1.1.1 1.9 1.1 1.8 2.2 0 1.1-1 1.9-2.2 1.8zm-14.9-1.7-2.5-.3c-1.1-.1-1.9-1.2-1.8-2.3.1-1.1 1.2-1.9 2.3-1.8l2.5.3c1.1.1 1.9 1.2 1.8 2.3-.2 1.2-1.2 1.9-2.3 1.8zm-14.9-2-2.5-.4c-1.1-.2-1.9-1.2-1.7-2.3.2-1.1 1.2-1.9 2.3-1.7l2.5.4c1.1.2 1.9 1.2 1.7 2.3-.2 1.1-1.2 1.8-2.3 1.7zm-14.9-2.4-2.5-.4c-1.1-.2-1.8-1.2-1.6-2.3.2-1.1 1.2-1.8 2.3-1.6l2.5.4c1.1.2 1.8 1.2 1.6 2.3-.2 1.1-1.2 1.8-2.3 1.6zm-14.8-2.6-2.5-.5c-1.1-.2-1.8-1.3-1.6-2.3.2-1.1 1.3-1.8 2.3-1.6l2.4.5c1.1.2 1.8 1.3 1.6 2.3-.1 1.1-1.2 1.8-2.2 1.6zm-14.8-3.1-2.5-.5c-1.1-.2-1.7-1.3-1.5-2.4.2-1.1 1.3-1.7 2.4-1.5l2.4.5c1.1.2 1.7 1.3 1.5 2.4-.2 1.1-1.2 1.7-2.3 1.5zm-14.7-3.4-2.4-.6c-1.1-.3-1.7-1.3-1.4-2.4s1.3-1.7 2.4-1.4l2.4.6c1.1.3 1.7 1.3 1.4 2.4-.2 1-1.3 1.6-2.4 1.4zm-14.5-3.9-2.4-.7c-1-.3-1.6-1.4-1.3-2.4.3-1 1.4-1.6 2.4-1.3l2.4.7c1 .3 1.6 1.4 1.3 2.4-.3 1-1.4 1.6-2.4 1.3zm-14.5-4.4-2.4-.8c-1-.3-1.6-1.4-1.2-2.4.3-1 1.4-1.6 2.4-1.2l2.4.8c1 .3 1.6 1.4 1.3 2.4-.3 1-1.4 1.5-2.5 1.2zm-14.2-4.9-2.4-.9c-1-.4-1.5-1.5-1.1-2.5.4-1 1.5-1.5 2.5-1.1l2.3.9c1 .4 1.5 1.5 1.2 2.5-.4 1-1.5 1.5-2.5 1.1zm-14.1-5.4-2.3-1c-1-.4-1.4-1.5-1-2.5.4-1 1.5-1.4 2.5-1l2.3 1c1 .4 1.4 1.5 1 2.5-.4.9-1.5 1.4-2.5 1zm-13.8-6.1-2.3-1.1c-.9-.5-1.3-1.6-.9-2.5.4-.9 1.6-1.3 2.5-.9l2.2 1.1c.9.4 1.4 1.6.9 2.5-.3.9-1.5 1.3-2.4.9zm-13.5-6.8-2.2-1.2c-.9-.5-1.2-1.6-.7-2.5.5-.9 1.6-1.2 2.5-.7l2.2 1.2c.9.5 1.2 1.6.8 2.5-.6.8-1.7 1.1-2.6.7zm-13.1-7.6-2.1-1.3c-.9-.5-1.1-1.7-.6-2.5.5-.9 1.7-1.1 2.5-.6l2.1 1.3c.9.5 1.1 1.7.6 2.5-.5.9-1.7 1.1-2.5.6zm-12.6-8.4-2-1.5c-.8-.6-1-1.7-.4-2.5s1.7-1 2.5-.4l2 1.5c.8.6 1 1.7.4 2.5s-1.7 1-2.5.4zm-11.9-9.3-1.9-1.6c-.7-.6-.8-1.7-.2-2.5s1.7-.8 2.5-.2l1.9 1.6c.7.6.8 1.7.2 2.5-.7.7-1.8.8-2.5.2zm-11.2-10.3-1.8-1.8c-.7-.7-.6-1.8 0-2.4.7-.7 1.8-.6 2.4 0l1.7 1.8c.7.7.7 1.8 0 2.4-.5.7-1.6.6-2.3 0zm-10.1-11.3-1.6-2c-.6-.7-.5-1.8.3-2.3.7-.6 1.8-.5 2.3.3l1.5 1.9c.6.7.5 1.8-.3 2.4-.6.5-1.6.4-2.2-.3zm-8.9-12.3-1.4-2.1c-.5-.8-.3-1.8.5-2.3.8-.5 1.8-.3 2.3.5l1.3 2.1c.5.8.3 1.8-.5 2.3-.7.5-1.7.2-2.2-.5zm-7.5-13.3-1.1-2.3c-.4-.8 0-1.7.7-2.1.8-.4 1.7 0 2.1.7l1.1 2.2c.4.8.1 1.8-.7 2.1-.7.6-1.7.2-2.1-.6zm-5.9-14-.8-2.4c-.3-.8.2-1.7 1-2 .8-.3 1.7.2 2 1l.8 2.3c.3.8-.1 1.7-1 2-.8.4-1.7 0-2-.9zm-4.2-14.5-.5-2.5c-.2-.8.3-1.6 1.2-1.8.8-.2 1.6.3 1.8 1.2l.5 2.4c.2.8-.3 1.6-1.2 1.8-.8.2-1.6-.3-1.8-1.1zm-2.6-15-.3-2.5c-.1-.8.5-1.5 1.3-1.6.8-.1 1.5.5 1.6 1.3l.3 2.5c.1.8-.5 1.6-1.3 1.6-.7.1-1.5-.5-1.6-1.3zm-.9-15.1v-2.5c0-.8.6-1.5 1.4-1.5.8 0 1.5.6 1.5 1.4v2.5c0 .8-.6 1.5-1.4 1.5-.8 0-1.5-.6-1.5-1.4zm.5-15.2.2-2.5c.1-.8.8-1.4 1.5-1.3.8.1 1.4.8 1.3 1.5l-.2 2.5c-.1.8-.7 1.4-1.5 1.3-.7 0-1.3-.7-1.3-1.5zm1.9-15 .4-2.5c.1-.7.8-1.2 1.6-1.1.7.1 1.2.8 1.1 1.6l-.4 2.5c-.1.7-.8 1.3-1.6 1.1-.7-.1-1.2-.8-1.1-1.6zm3-14.8.6-2.4c.2-.7.9-1.1 1.6-1 .7.2 1.1.9 1 1.6l-.6 2.4c-.2.7-.9 1.1-1.6 1-.8-.2-1.2-.9-1-1.6zm4-14.5.7-2.4c.2-.6.9-1 1.5-.8.6.2 1 .9.8 1.5l-.7 2.4c-.2.7-.9 1-1.5.8-.7-.2-1-.9-.8-1.5zm4.8-14.3.9-2.4c.2-.6.9-.9 1.5-.7.6.2.9.9.7 1.5l-.8 2.3c-.2.6-.9.9-1.5.7s-1.1-.8-.8-1.4zm5.5-14 1-2.3c.2-.6.9-.8 1.4-.6.6.2.8.9.6 1.4l-1 2.3c-.2.6-.9.8-1.5.6-.5-.2-.7-.9-.5-1.4zm6.2-13.8 1.1-2.3c.2-.5.9-.7 1.4-.5.5.2.7.9.5 1.4l-1.1 2.3c-.2.5-.9.7-1.4.5-.6-.2-.8-.8-.5-1.4zm6.7-13.5 1.2-2.2c.2-.5.8-.7 1.3-.4.5.2.6.8.4 1.3l-1.1 2.2c-.2.5-.8.7-1.3.4-.6-.2-.8-.8-.5-1.3zm7.2-13.2 1.2-2.2c.2-.4.8-.6 1.2-.3.4.2.6.8.3 1.2l-1.2 2.2c-.2.4-.8.6-1.2.4-.4-.3-.6-.8-.3-1.3zm7.5-13 1.3-2.1c.2-.4.8-.5 1.1-.3.4.2.5.8.3 1.1l-1.3 2.1c-.2.4-.8.5-1.2.3-.3-.1-.4-.6-.2-1.1zm8-12.7 1.4-2.1c.2-.4.7-.5 1.1-.2.4.2.5.7.2 1.1l-1.3 2.1c-.2.4-.7.5-1.1.2-.4-.3-.5-.7-.3-1.1zm8.3-12.5 1.4-2.1c.2-.3.7-.4 1-.2.3.2.4.7.2 1l-1.4 2.1c-.2.3-.7.4-1 .2-.3-.3-.4-.7-.2-1zm8.6-12.4 1.5-2c.2-.3.6-.4.9-.1.3.2.3.6.1.9l-1.4 2c-.2.3-.6.4-.9.2-.4-.3-.4-.7-.2-1z" class="st0"/><path d="m984.2 955.4 8.6 20.3 10-14.6z" class="st39"/><path d="m1070.1 905-34.2 71.2c-.7 1.4-1.8 2.4-3.3 2.9-1.4.5-3 .3-4.3-.4l-70.2-37c-.8-.4-1.3-1.3-1.2-2.2.1-.9.7-1.7 1.6-1.9l111.6-32.6z" class="st40"/><path d="m984.2 955.4 85.9-50.4-74.6 56.5 2.1 5.7z" class="st39"/><path d="m1002.2 965-9.4 10.7 2.7-14.2z" class="st39"/><linearGradient id="SVGID_00000088849442479914870480000016285133714914006698_" x1="12028.282" x2="11761.278" y1="1823.515" y2="2151.758" gradientTransform="scale(-1 1) rotate(-7.163 -1789.948 109349.754)" gradientUnits="userSpaceOnUse"><stop offset="0" style="stop-color:#ff928e"/><stop offset="1" style="stop-color:#feb3b1"/></linearGradient><path d="M1513.5 1032.6c1.7-3.3 6.7-2.8 7.7.8 3.7 13.4 12.7 36.7 31.6 45 1 .4 1.9.8 2.7 1.3.9-2.6.9-5.5-1.2-8.7-5.9-9 4.7-21.2 4.7-21.2s.7 10.8 8.9 17.6c7.1 5.8 10.5 18.9 5.6 29.5-10.2 39.7-25.5 92.1 34.1 130.5 59.6 38.3 143.5-72.3 143.5-72.3l-41.6 132s-64.3 47.4-139-19.3c-74.8-66.7-25.2-163.8-25.2-163.8s-57.2-22.9-31.8-71.4z" style="fill:url(#SVGID_00000088849442479914870480000016285133714914006698_)"/><path d="M1607.1 1226.8c-17.5-11.3-28.6-23.8-35.3-36.8-13.4 5.3-27.8 5.6-42.4 5 3.8 24.5 15 50.3 40.1 72.7 75.6 67.5 140.5 19.5 140.5 19.5l42.1-133.6s-84.8 112-145 73.2z" class="st9"/><linearGradient id="SVGID_00000030450176582606375610000008884431979189807013_" x1="-1261.706" x2="-784.34" y1="1313.238" y2="1313.238" gradientTransform="matrix(-1 0 0 1 842.904 0)" gradientUnits="userSpaceOnUse"><stop offset="0" style="stop-color:#09005d"/><stop offset="1" style="stop-color:#1a0f91"/></linearGradient><path d="m2103.5 1166.6-120.8 303.9c-6.1 15.5-22.1 24.7-38.6 22.3l-316.8-23.4 114.1-323.1c3-8 10.8-13.2 19.3-13 55.6 1.3 257.9 6.3 330.3 12.7 10 .9 16.3 11.3 12.5 20.6z" style="fill:url(#SVGID_00000030450176582606375610000008884431979189807013_)"/><path d="m1954.8 1479 120.7-306.6c2.4-6.2-2-12.9-8.7-13.1l-298.4-11.3c-7.7-.3-14.7 4.3-17.5 11.5l-109.3 298.9 313.2 20.6z" class="st7"/><linearGradient id="SVGID_00000018201972051402388270000013682088037433228210_" x1="-902.552" x2="-899.293" y1="1407.582" y2="1568.094" gradientTransform="matrix(-1 0 0 1 842.904 0)" gradientUnits="userSpaceOnUse"><stop offset="0" style="stop-color:#09005d"/><stop offset="1" style="stop-color:#1a0f91"/></linearGradient><path d="M1519.5 1482.9c0 5.7 4.6 10.3 10.3 10.3h416.7c8.6 0 15.6-7 15.6-15.6l6.6-7.6-432.7-3.7c-9.2.1-16.5 7.5-16.5 16.6z" style="fill:url(#SVGID_00000018201972051402388270000013682088037433228210_)"/><linearGradient id="SVGID_00000039828879227948282600000011911990185818876060_" x1="1981.04" x2="2048.27" y1="1226.219" y2="1226.219" gradientUnits="userSpaceOnUse"><stop offset="0" style="stop-color:#dae3fe"/><stop offset="1" style="stop-color:#e9effd"/></linearGradient><path d="M2011.9 1279.1c.8 0 1.5-.5 1.8-1.2l1.8-4.7c11.9-31 25.5-66.1 31.8-82.4 1.5-3.9 1-8.4-1.3-11.9-2.4-3.5-6.3-5.6-10.6-5.6H1983c-1.1 0-1.9.9-1.9 1.9s.9 1.9 1.9 1.9h52.5c3 0 5.7 1.4 7.4 3.9 1.7 2.5 2 5.5.9 8.3-6.4 16.3-19.9 51.4-31.8 82.4l-1.8 4.7c-.4 1 .1 2.1 1.1 2.5.2.2.4.2.6.2z" style="fill:url(#SVGID_00000039828879227948282600000011911990185818876060_)"/><linearGradient id="SVGID_00000091002119224595405990000014876219052350160000_" x1="-12944.778" x2="-12844.778" y1="3578.901" y2="4074.901" gradientTransform="rotate(16.219 4403.025 54260.171)" gradientUnits="userSpaceOnUse"><stop offset="0" style="stop-color:#09005d"/><stop offset="1" style="stop-color:#1a0f91"/></linearGradient><path d="M1761.5 961.1s-17.3-77.4 71.4-56.9c0 0 43.1-7 45.2 33.6 0 0 27.8 18.3 7.4 53.5 0 0 82.5-31.9 118.4 40.4 35.9 72.3 2.9 112.1-31.7 122.4 0 0 28.1 14.1 14.8 45.9-13.3 31.8-80.5 54.2-120.3 15.5 0 0-113 14.9-110.8-64.9 0 0-52.6-34 2.6-99.9 55.4-66 3-89.6 3-89.6z" style="fill:url(#SVGID_00000091002119224595405990000014876219052350160000_)"/><path d="M1756.6 1140.6c17.8-5.3 69.7-15.2 119.1 30.3 8.4 7.7 11.8 19.5 8.8 30.5-13.3 48.8-44.3 205.4-13.6 267.8 0 0-40 1.1-117-.8 0 0-26.5-115.3-61.1-165.9-23.9-34.9 38.1-131.2 53.9-154.5 2.3-3.6 5.9-6.2 9.9-7.4z" class="st9"/><linearGradient id="SVGID_00000154409774122853987580000013446926868554909575_" x1="1790.572" x2="1807.071" y1="979.274" y2="1159.265" gradientUnits="userSpaceOnUse"><stop offset="0" style="stop-color:#ff928e"/><stop offset="1" style="stop-color:#feb3b1"/></linearGradient><path d="M1805.8 1043.6s26.4 74.6 28.3 107.4c0 0-29.1 13.2-56.6-9.1 0 0-2.9-74.5-7-87.8l35.3-10.5z" style="fill:url(#SVGID_00000154409774122853987580000013446926868554909575_)"/><linearGradient id="SVGID_00000103973243375194536910000007088394520016578699_" x1="-13023.982" x2="-12890.603" y1="3823.066" y2="3976.416" gradientTransform="rotate(16.219 4403.025 54260.171)" gradientUnits="userSpaceOnUse"><stop offset="0" style="stop-color:#ff928e"/><stop offset="1" style="stop-color:#feb3b1"/></linearGradient><path d="M1769.2 942s-68.9 96.5-27.7 124.5 90.3-40.5 90.3-40.5 16-52.8-.7-70.7c-16.8-18-61.9-13.3-61.9-13.3z" style="fill:url(#SVGID_00000103973243375194536910000007088394520016578699_)"/><linearGradient id="SVGID_00000174584659801813418270000017836867257543916431_" x1="-13020.593" x2="-12920.593" y1="3594.186" y2="4090.186" gradientTransform="rotate(16.219 4403.025 54260.171)" gradientUnits="userSpaceOnUse"><stop offset="0" style="stop-color:#09005d"/><stop offset="1" style="stop-color:#1a0f91"/></linearGradient><path d="M1801.1 918.9s-31.7 7.5-36.1 21.8c-4.4 14.3 44.9 27.6 58.7 28.3l11.1 57.8s32.9-54.4 19.9-85.8-53.6-22.1-53.6-22.1z" style="fill:url(#SVGID_00000174584659801813418270000017836867257543916431_)"/><linearGradient id="SVGID_00000085231676660016357510000007208068568695639181_" x1="-12990.658" x2="-12857.282" y1="3794.08" y2="3947.427" gradientTransform="rotate(16.219 4403.025 54260.171)" gradientUnits="userSpaceOnUse"><stop offset="0" style="stop-color:#ff928e"/><stop offset="1" style="stop-color:#feb3b1"/></linearGradient><path d="M1818.4 1018.8s26.8-31.1 37.5-10.8-24.2 35.5-36.2 25.5l-1.3-14.7z" style="fill:url(#SVGID_00000085231676660016357510000007208068568695639181_)"/><linearGradient id="SVGID_00000133511814839961033680000003983294333351102086_" x1="1735.101" x2="1901.101" y1="1347.87" y2="1305.203" gradientUnits="userSpaceOnUse"><stop offset="0" style="stop-color:#ff928e"/><stop offset="1" style="stop-color:#feb3b1"/></linearGradient><path d="M1882.8 1180.7s84.2 70 105.1 165.6c20.9 95.6-123 105.8-123 105.8s-19.5-21.8-42.7-14c-23.2 7.8-1.8-38.1 25.3-38 27.1.1 14.6 21.6 53 4.2 37.4-16.9 60.5-69.3-34.9-148.8-5.5-4.6-9.9-10.5-12.6-17.2-18.7-46.7-4-77.3 29.8-57.6z" style="fill:url(#SVGID_00000133511814839961033680000003983294333351102086_)"/><path d="M1987.8 1345.9c-21-95.6-105.6-165.6-105.6-165.6-33.9-19.6-48.6 11-30 57.6 2.7 6.7 7.1 12.6 12.7 17.2 73.9 61.3 77 106.4 57.3 131.7 9.9 3.1 19.4 8.2 28 13.7 6.7 4.4 12.8 7.8 18.4 12.1 16.3-15.4 25.8-36.9 19.2-66.7z" class="st9"/></g></svg>