<svg xmlns="http://www.w3.org/2000/svg" data-name="Livello 1" viewBox="0 0 400 400"><path d="M250.68 354.53c-.4-.3-.7-18.7-.7-40.71v-40.11l9.4-9.4 9.3-9.3 38.41-.3c21.1-.2 39.41-.1 40.71.2l2.2.5v81.01l-8.7 9.4-8.6 9.4h-40.71c-22.4 0-41.01-.3-41.31-.7Zm78.12-40.51-.3-37.31-37.21-.1-37.31-.1v74.71h75.01l-.2-37.21Zm18.1-15.8c-.1-19.8-.5-36.01-.8-36.01s-3.4 2.8-6.8 6.2l-6.3 6.2v74.11l7.1-7.2 7-7.2-.2-36.11Zm-16.8-26.91c1.3-.5 4.7-3.5 7.5-6.7l5.1-5.9-35.51-.2-35.51-.2-7.1 6.9-7.1 6.9 35.11.1c19.3 0 36.21-.4 37.51-.9Zm-161.43 79.32c-.4-.4-.7-7.4-.7-15.6v-14.8h-7.6c-7.3 0-7.7-.1-11-3.4l-3.4-3.4v-14c0-12.8-.2-14.1-1.8-14.6-4.2-1.4-6.3-5.1-6.7-12-.5-8-3-13.3-8.2-17.1-6.4-4.9-24.2-22.6-30.41-30.41-18.8-23.2-24.9-41.11-22-63.61 4.5-33.61 26.6-62.31 58.01-75.01 7.4-3 22.7-6.5 28.8-6.5h4.2l.3-15.2c.3-12.8.5-15.3 1.8-15.3 1.2 0 1.6 2.5 2 14.4l.5 14.3 6.5-14.5c3.6-8 7.2-15.6 8.1-16.8l1.7-2.3 6.3 2.9c3.5 1.5 13.6 6.2 22.4 10.4 8.8 4.2 25.6 12.2 37.31 17.6 15.3 7.2 21.4 10.6 21.8 12 .7 2.5 4.2 12.4 12.9 36.41l6.6 18.3-2 4.2c-2.4 4.9-16.5 35.91-26.6 58.11-4 8.8-8.4 18.5-9.8 21.5-1.4 3-5.3 11.3-8.6 18.5-3.2 7.1-6.5 13.4-7.3 13.8-.8.6-7.8-2.3-20.1-8.2-10.4-5-19-9.1-19.2-9.1-.1 0-6.8-3.1-14.8-7-8-3.8-14.8-7-15.1-7s-.5 19.5-.3 43.31c.3 50.81-.3 79.91-1.9 80.41-.5.2-1.3 0-1.7-.3Zm-1.2-49.71v-15.2l-8.7-.3-8.8-.3v13.6c0 16.8.4 17.5 10.8 17.5h6.7v-15.3Zm-8.5-52.71V215.2h-7.7c-8.9 0-13-1.8-16.3-7.2-3.8-6.2-1.8-15.8 4.2-20.1 3.8-2.8 11.4-3.3 15.8-1 5.9 3.1 8 7.4 8 16.5 0 7.7.1 7.9 2.3 7.6l2.2-.3V84.18h-2.5c-20 .2-46.91 12.9-61.21 28.9-17.4 19.6-27.1 49.31-22.7 70.31 1.2 5.9 6.9 19.2 10.8 25.3 7.8 12.3 27 33.21 40.31 43.91 5.7 4.5 8.7 10.7 9.2 18.7.5 8.5 2.1 9.9 10.8 9.9h6.8v-33.01Zm8.5 0V215.7l-2.2-.3-2.3-.3v66.21l2.3-.3 2.2-.3V248.2Zm78.51-6.6c3-6.6 6.7-14.7 8.2-18 5.4-11.9 26.2-57.21 30.91-67.21 2.7-5.7 4.9-10.9 4.9-11.5-.1-.7-3.5-2.8-7.8-4.7-16-7.2-27.7-13.6-28-15.1-.2-.9 1.6-5.6 3.8-10.5 2.3-4.9 5-10.8 6.1-13.1 1-2.4 2.8-6.4 4-8.9 1.1-2.5 1.9-4.8 1.7-4.9-.3-.4-5.1-2.7-34.31-16.5-21.5-10.2-44.71-21-45.11-21s-9.4 18.7-9.4 19.5c0 .2-1.8 4.1-4 8.7l-4 8.5-.1 67.71c-.1 37.21 0 67.81.2 67.91.2.2 6.3 3.1 13.4 6.5 7.2 3.5 21.8 10.5 32.51 15.6 10.7 5.2 19.9 9.3 20.5 9.2.5-.1 3.4-5.6 6.5-12.2Zm-87.01-37.91c0-6.7-.3-7.8-2.7-10.5-3.5-3.9-9.9-5.1-13.8-2.6-7.3 4.8-6.8 16.5 1 19.7 1.1.4 5 .8 8.8.8l6.7.1v-7.5Zm130.02-67.01c0-.2-.5-1.7-1.1-3.2-.6-1.5-1.5-3.7-2-4.8-.7-1.9-2.5-6.9-9.1-25.5-1.6-4.7-3.1-8.7-3.3-8.9-.2-.2-1.4 1.9-2.6 4.5-1.2 2.7-3.9 8.5-5.9 12.9-6.1 13-6.5 11.7 4.7 17 5.4 2.5 11.4 5.4 13.3 6.4 3.4 1.9 6 2.6 6 1.6Z"/><path d="M205.98 332.22c-1.1-1.1-2-3.1-2-4.4 0-3.3-3.3-3.9-7.6-1.4l-3.5 2.1-3.5-3.4c-3.6-3.5-3.7-5.6-.7-9.1 2-2.2.3-5.3-3.4-6.3-4.2-1-5.3-2.4-5.3-6.5s1.4-5.9 5.5-6.2c3.6-.3 5.5-4 3.3-6.5-3-3.5-3-5.5-.1-8.5 3-3.2 5.3-3.5 8.8-1.2 3.1 2 6.5 1 6.5-2 0-3.9 2.3-5.9 6.7-5.9 5.2 0 6.3.8 6.3 4.2 0 4.6 4.3 6.9 7 3.6 2-2.4 5.8-1.8 8.5 1.3 3 3.3 3.1 4.6.5 8.1-1.7 2.5-1.8 3-.4 4.9.8 1.2 2.8 2.2 4.7 2.4q3.2.3 3.2 5.7v5.4l-4 1.1c-4.5 1.3-5.5 3.5-3.1 7.1 2.2 3.3 2 5.8-.6 8.2-3.8 3.4-4.7 3.5-8.3 1.3-4.4-2.7-7.5-1.4-7.5 3 0 5-7.1 6.9-11 3Zm7.5-6.1c1.8-5.4 7.8-7.5 12.4-4.3 2 1.4 2.5 1.5 3.7.2 1.3-1.3 1.2-1.8-.4-3.9-1.9-2.6-2.1-3.8-.8-8.2.6-1.8 1.7-2.9 3.5-3.3 4.6-1 5.1-1.3 5.1-3.2 0-1.3-1.1-2.2-3.2-2.8-2-.6-3.9-2.2-5.2-4.3l-2-3.4 2.2-3.8c1.8-3.1 1.9-3.9.8-4.8-1.1-.9-2.2-.7-4.6.8-2.6 1.5-3.8 1.7-6.1.9-3.3-1.1-5.2-3.2-5.6-6.1-.2-1.2-.8-2.6-1.3-3.1-1.3-1.3-4 1.2-4 3.9s-1.3 3.8-5.7 5.3c-2.7.9-3.6.8-5.8-1-2.4-1.9-2.8-1.9-4.2-.5-1.4 1.4-1.4 1.7.1 3.8.9 1.3 1.6 3.2 1.6 4.2 0 3.1-2.9 7.7-4.9 7.7-3.2 0-5.1 1.1-5.1 3s1.9 3 5.1 3c2 0 4.9 4.6 4.9 7.7 0 1-.7 2.9-1.6 4.2-1.5 2.1-1.5 2.4-.1 3.9 1.5 1.4 1.8 1.4 3.6-.3 1.6-1.3 3-1.6 5.8-1.2 4.1.7 6.3 2.9 6.3 6.3 0 2.2 1.5 3.5 3.4 3 .5-.1 1.5-1.8 2.1-3.7Z"/><path d="M200.47 313.82c-2.7-2.7-4.4-5.6-4.7-7.7-2.5-17.1 20-25.1 28-9.8 5.7 10.8-1.6 21.9-14.4 21.9-4.3 0-5.1-.4-8.9-4.4Zm14.91-.6c8-3 7.7-16.6-.4-20-7.3-3-15 2.4-15 10.5 0 3.7.5 4.7 3.5 7.4 3.7 3.2 7.3 3.9 11.9 2.1Zm-106.02-36.31c-.6-1.7 7.3-16.4 9.3-17.1 3-1.2 2.3 2.8-2 10.1-4.5 7.9-6.3 9.6-7.3 7Zm-43.11-43.2c-.7-2-1.2-1.5 8.1-6.9 7.8-4.4 9.6-4.8 9.6-2.1 0 1.1-14.7 10.5-16.5 10.5-.3 0-.8-.7-1.2-1.5Zm-15.3-58.41c-2.6-1.8.1-2.9 8.6-3.5 6.1-.4 8.5-.2 10 .8 1 .8 1.5 1.8 1.1 2.2-1.2 1.2-18 1.6-19.7.5Zm22.5-54.51c-6.9-4.2-9.6-7.7-5.8-7.5 2.8.1 15.7 8.3 16.1 10.2.5 2.8-2.7 1.9-10.3-2.7Zm44.71-32.91c-2.6-3.2-9.2-14.9-9.2-16.3 0-.9.7-1.4 1.7-1.2 1.8.3 10.2 13.4 10.3 16 0 2.2-1.5 3.1-2.8 1.5Z"/></svg>