<svg xmlns="http://www.w3.org/2000/svg" width="423.33mm" height="800.013" data-name="2 omino" viewBox="0 0 1200 600"><path d="M802.96 596.19c-.5-17.79-2.94-35.28-7.81-52.42-.59-1.76-1.21-3.5-1.81-5.26-6.28-19.1-14.83-37.08-26.32-53.61a27.97 27.97 0 0 1-2.51-3.41c-11.64-16-25.51-29.85-40.91-42.2-1.11-.96-2.21-1.94-3.44-2.74-18.23-13.65-38.46-23.4-60.14-30.49 36.94-20.94 61.87-60.61 61.87-106.11 0-67.32-54.57-121.89-121.89-121.89s-121.89 54.57-121.89 121.89c0 45.55 24.99 85.26 62 106.18-22.42 7.17-42.24 16.99-60.21 30.4-1.23.83-2.36 1.78-3.47 2.76-15.44 12.33-29.25 26.23-40.92 42.21-.74 1.21-1.6 2.33-2.52 3.4-11.54 16.53-20 34.56-26.33 53.64-.58 1.76-1.24 3.5-1.82 5.25-3.47 12.47-6.08 25.13-6.94 38.03-.4 5.97-1.69 12.08.13 18.09h403.94c.92-1.09 1.02-2.36.98-3.73Z" style="fill:#fd830e"/></svg>