<svg xmlns="http://www.w3.org/2000/svg" data-name="Livello 1" viewBox="0 0 400 400"><path d="M184.06 354.67c-.8-.2-4.9-.9-9-1.5-13.71-2.2-29.92-7.3-41.22-13.11l-4.1-2.1 2.2 3.5c2.3 3.7 2.7 5.7 1.1 5.7-.5 0-1.9-1.9-3.1-4.2-1.2-2.4-2.8-5.1-3.6-6-2.7-3-.9-4.5 5.9-5 7-.6 12.31.5 7.8 1.6-1.4.3-3.8.7-5.5.8-2.5.3-1.1 1.1 8 5 37.32 15.71 76.44 15.91 113.86.5 31.42-13.01 57.03-36.82 73.24-67.94 11.01-21.31 15.21-37.72 16.11-62.33.7-17.81-.7-29.72-5-45.22-2.9-10.41-9.41-26.31-10.71-26.31-.5 0-.9 1.8-.9 4 0 2.6-.5 4-1.3 4-.9 0-1.1-2-.9-7.7.2-4.3.8-8.2 1.2-8.6.4-.5 4 1 7.9 3.4 4.5 2.7 6.8 4.6 6.2 5.2s-2.3.1-4.7-1.4c-2.5-1.5-3.6-1.8-3.2-.8.4.8 2.3 5.2 4.3 9.81 4.4 10.51 8 22.91 10.11 35.72 2.2 13.41 1.4 41.02-1.6 53.93-10.81 47.33-41.12 85.85-83.05 105.46-20.91 9.81-35.72 13.11-60.03 13.61-10.21.2-19.21.2-20.01 0ZM86.5 318.45c-7.6-4-11.11-10.61-10.31-19.71.7-8.6 5.8-14.31 14.81-16.71 6.5-1.7 12.31.1 17.61 5.5 9.21 9.11 8 21.81-2.7 29.62-3.6 2.6-5.1 3-10.31 3-3.6-.1-7.4-.7-9.11-1.7Zm12.51-2.31c2.9 0 8.1-5 10.21-9.71 4.8-10.91-5.8-23.01-17.81-20.31-11.41 2.6-15.31 18.51-6.4 26.51 2.3 2.1 9.11 4.6 10.81 4 .8-.3 2.2-.5 3.2-.5Z"/><path d="M184.86 305.44c-1-1.1-2.3-6.8-3.4-14.61l-1.9-12.91-8.5-3.2c-4.7-1.8-9.21-3.6-10.11-4-1.1-.5-4.8 1.7-11.71 6.8-7.1 5.3-11.01 7.6-13.01 7.6-2.3 0-4.7-1.9-12.01-9.41-8.8-8.9-9.21-9.51-8.5-12.71.3-1.9 3.6-7.3 7.5-12.41 4.8-6.2 6.8-9.61 6.4-11.01-.2-1.1-2-5.8-3.9-10.51-4-9.61-1.7-8.3-19.71-10.91-12.51-1.8-12.21-1.4-12.21-17.71 0-17.31-.5-16.71 16.01-19.11l12.31-1.8 3.5-8.5c2-4.7 3.8-9.41 4-10.51.3-1.4-1.8-5-6.5-11.41-7.5-10.01-8.6-12.11-7.7-14.91.4-1 4.6-5.8 9.51-10.51 6.6-6.5 9.51-8.7 11.51-8.7 1.6 0 5.9 2.5 11.81 6.8 5.1 3.8 9.91 7.2 10.51 7.6.7.4 4.3-.6 8-2.2 3.8-1.6 8.1-3.4 9.81-3.9 3.2-1 3-.2 5.5-17.71 1.8-12.51 1.9-12.61 17.91-12.61 16.91 0 16.41-.5 18.81 16.41l1.8 12.91 5.4 1.9c3 1 7.3 2.7 9.61 3.8 2.3 1.1 4.5 2 4.9 2s5.1-3.4 10.51-7.5c6.9-5.4 10.51-7.5 12.61-7.5 2.3 0 4.7 1.9 12.21 9.31 8.9 8.9 9.31 9.51 8.7 12.71-.4 1.8-3.8 7.4-7.6 12.41-4.8 6.3-6.8 9.71-6.4 11.11.2 1.1 2 5.8 4 10.51l3.5 8.4 13.51 2.1c7.4 1.1 13.91 2.4 14.31 2.9 1 1 1.7 22.61.9 27.21-.9 4.5-2.2 5-17.01 7.2l-11.91 1.8-1.7 4.9c-1 2.8-2.7 6.9-3.9 9.21-1.1 2.3-2.1 4.8-2.1 5.6s2.9 5.3 6.5 10.01c7 9.31 8.9 13.01 8 15.71-.3.9-4.5 5.6-9.41 10.31-6.7 6.6-9.51 8.7-11.51 8.7-1.8 0-6-2.5-12.61-7.5-10.01-7.6-11.71-8.4-13.71-6.4-.6.6-4.7 2.4-9 3.9l-7.8 2.8-1.8 12.81c-2.4 16.91-1.8 16.41-19.21 16.41-11.31 0-13.41-.2-14.71-1.7Zm28.21-3c0-.5.7-6.2 1.6-12.81 1.9-13.51 2.9-15.41 9.71-17.51 2.3-.7 6.3-2.3 8.9-3.6 2.6-1.3 5.7-2.4 6.9-2.4 1.1 0 6.7 3.4 12.41 7.5 5.6 4.1 10.71 7.5 11.21 7.5.4 0 4.6-3.8 9.21-8.4 5.8-5.8 8.1-8.8 7.5-9.71-.4-.8-3.8-5.5-7.6-10.51-4.6-6.1-6.8-10.01-6.8-11.91 0-1.5 1.4-5.5 3-9 1.7-3.5 3.3-7.7 3.6-9.41.9-4.3 3.7-5.5 17.41-7.5 6.3-.9 11.51-1.8 11.71-2 .6-.6 1.1-25.61.5-25.61-3.8.1-25.11-3.6-26.61-4.6-1-.7-2.9-4.2-4.1-7.9-1.3-3.6-3.1-7.7-3.9-9-3.2-4.8-2.1-8.1 5.9-18.61 4.1-5.3 7.5-10.11 7.5-10.61 0-1.2-16.31-17.31-17.51-17.31-.6 0-5.5 3.4-11.01 7.5-5.7 4.4-10.91 7.5-12.21 7.5s-4.5-1.1-7.1-2.4c-2.6-1.3-6.6-2.9-8.9-3.6-6.8-2.1-7.8-4-9.71-17.51-.9-6.6-1.6-12.31-1.6-12.71 0-.5-5.8-.8-12.91-.8h-12.91l-1.1 7.8c-.6 4.2-1.3 10.01-1.7 12.91-.7 6-2.9 8.4-8.9 10.31-2.2.7-6.1 2.3-8.7 3.6-2.6 1.3-5.8 2.4-7 2.4-1.4 0-6.6-3.2-12.31-7.5-5.4-4.1-10.41-7.5-11.01-7.5s-4.8 3.8-9.41 8.4l-8.4 8.5 1.8 2.8c1 1.5 4.5 6.3 7.7 10.51 6.6 8.7 7 10.61 3.4 18.21-1.4 2.9-3.1 7.1-3.8 9.51-1.9 6.1-2.2 6.3-25.31 9.71-2.2.3-4.1.7-4.3.9-.7.6-.6 25.51 0 25.51 4 0 23.71 3.4 25.81 4.5 1.9 1 3.1 2.9 4.4 7.2 1 3.2 2.7 7.5 3.7 9.51 3.2 6.2 2.6 8.3-5.6 19.01-4.1 5.4-7.5 10.21-7.5 10.51 0 1.2 16.31 17.31 17.51 17.31.6 0 5.3-3.2 10.41-7 5.2-3.9 10.21-7.5 11.11-8 1.2-.7 3.7 0 8.7 2.4 3.8 1.9 8.4 3.7 10.01 4 5.8 1.3 7.4 5.3 9.81 24.91l.6 5.7h13.01c7.1 0 12.91-.3 12.91-.7Z"/><path d="M186.56 253.11c-12.31-3.5-22.11-10.11-29.22-19.51-8.1-10.61-11.61-21.21-11.51-34.42.3-26.81 20.61-49.73 47.23-53.03 14.51-1.9 26.41 1.2 38.82 9.91 18.91 13.31 27.12 38.42 19.81 60.33-6.2 18.41-18.01 30.02-36.82 36.22-8.8 2.9-19.31 3.1-28.32.5Zm21.91-9.41c.3-3.4.4-9.71.3-14.11-.4-7.5-.2-8 2.1-10.01 5.6-4.5 9.31-9.11 10.31-12.91 1.6-6 1.3-11.91-1-16.31-2-3.9-8.3-10.31-10.11-10.31-.6 0-1 4.4-1 10.51 0 8.9-.2 10.61-1.7 11.31-2.2 1-14.31.6-15.41-.5-.5-.5-1-5.8-1.1-11.81l-.3-11.01-5.2 5c-6.2 6.1-8.6 12.51-7.2 19.81 1.1 5.9 5.1 12.31 9.41 14.81 1.8 1.1 3.5 2.5 3.8 3.2.2.7.4 7.2.3 14.41-.1 15.11-.8 14.11 9.61 14.11l6.7-.1.5-6.1Zm-21.01-7.8c.1-11.01-.1-12.41-1.8-13.81-7.9-6.2-11.91-13.51-11.91-22.01 0-6.3 2.9-14.01 7.1-18.31 3.3-3.5 12.11-8.2 13.31-7 .5.5 1 6 1.1 12.31l.3 11.41 4.7.1 4.7.1.3-12.11.3-12.01 2.5.3c3.2.3 9.61 4.8 13.11 9.21 1.6 1.9 3.5 6.2 4.4 9.51 1.3 5.3 1.3 6.6 0 11.71-1.7 6.8-5.3 12.51-9.41 15.31-4 2.6-3.9 2.4-3.2 26.21.1 1.7.5 2.1 1.9 1.6 21.71-7.6 35.22-26.31 35.22-48.83s-14.81-41.72-36.72-48.13c-8-2.4-20.01-2.2-28.42.5-7.6 2.4-19.01 10.01-23.61 15.91-18.11 22.61-14.11 55.23 8.8 72.74 4.7 3.5 15.91 8.9 16.81 8 .2-.3.4-6 .5-12.71Z"/><path d="M65.09 268.62c-6.2-3.8-7.7-5.2-6.8-6.1.3-.4 2.2.3 4.2 1.5 2 1.1 3.8 2.1 4.1 2.1.2 0-.7-2.2-2.1-5-5.9-11.71-11.21-29.52-13.51-46.13-2-13.41-.8-38.82 2.3-51.93 7-29.02 18.61-50.83 38.72-72.44 14.61-15.71 39.52-31.22 62.23-38.72 16.51-5.4 30.72-7.2 50.83-6.6 23.01.7 38.42 4.3 57.83 13.31 4.1 1.8 7.6 3.4 7.8 3.4.1 0-.6-1.8-1.7-4-2.1-4.3-2.3-5-1.1-5 1.1 0 8.2 12.51 8.2 14.51 0 1.2-1.5 1.5-8.6 1.5-5.4 0-8.3-.4-7.9-1 .3-.5 2.4-1 4.6-1s3.9-.4 3.9-.8c0-1-12.01-6.5-20.41-9.41-17.91-6-32.62-8.2-52.33-7.5-23.31.8-40.32 5-59.83 14.91-43.92 22.21-72.64 61.73-80.04 109.86-4.4 28.42.3 58.53 13.61 87.35 1.5 3.3 2.9 1.9 2.9-3 0-1.8.5-3.3 1.1-3.3 1.1 0 .6 14.11-.6 16.01-.9 1.4-1.4 1.2-7.4-2.5Zm230.53-152.49c-12.51-7.6-13.61-23.81-2.2-32.52 9.41-7.2 23.41-3.9 28.82 6.6 3.1 6.2 2.4 15.41-1.7 20.41-1.6 2-4.5 4.5-6.4 5.5-4.7 2.6-14.41 2.6-18.51 0Zm13.6-2.2c6.7-2.3 10.91-8 10.91-14.91s-3.5-11.91-10.71-14.41c-10.71-3.8-21.91 6.5-19.41 17.51 1.7 7.5 6.2 11.31 15.21 12.81.3.1 2.1-.4 4-1Z"/></svg>