<svg xmlns="http://www.w3.org/2000/svg" data-name="Livello 1" viewBox="0 0 400 400"><path d="M60.37 353.67c-8.72-4.51-10.72-9.52-10.32-25.36l.3-11.53 8.32-.3 8.22-.3V102.83l2.41-.6c1.3-.3 23.85-.4 50.01-.2 44.1.3 54.22-.1 41.89-1.8-2.71-.3-5.41-1-6.11-1.4-.7-.4-1.3-3.31-1.4-6.92-.2-7.42.8-8.62 7.82-9.82 4.41-.7 5.01-1.2 6.31-4.51 1.5-3.71 1.4-3.81-1.6-7.52-1.7-2.1-3.11-4.71-3.11-5.91 0-2 7.92-10.42 9.82-10.42.5 0 3.01 1.4 5.61 3.11 4.31 2.91 4.91 3.01 7.92 1.8 4.11-1.6 4.71-2.51 4.71-7.12 0-5.31 2-6.81 9.02-6.81s9.02 1.5 9.02 6.51.8 6.31 4.61 7.52c3.11 1.1 3.81.9 8.12-1.9 2.51-1.7 5.21-3.11 5.81-3.11 1.9 0 9.52 8.22 9.52 10.32 0 1-1.3 3.61-3.01 5.71-2.91 3.61-2.91 3.91-1.6 7.62 1.2 3.61 1.7 4.01 6.41 4.91 6.51 1.3 7.42 2.2 7.72 8.22.3 6.81-1.3 8.92-7.42 9.72-2.81.4-5.21 1-5.51 1.4-.2.4 20.95.6 47 .5 29.06-.2 48.51.1 50.01.7l2.61 1v212.36l8.32.3 8.22.3v13.13c0 12.63-.1 13.23-2.81 17.34-1.8 2.71-4.41 5.01-7.02 6.21-4.11 1.8-8.72 1.9-140.51 1.8-122.37 0-136.6-.1-139.3-1.6Zm279.71-4.91c4.91-3.61 6.71-8.52 6.92-19.14l.2-9.52-19.14.6c-10.52.3-31.27.5-46 .6-24.65 0-26.86.1-27.36 1.8-2.2 6.61-5.81 12.13-9.62 14.83-7.42 5.21-9.92 5.51-45.5 5.41-29.86-.1-33.27-.3-37.98-2.1-2.91-1.1-6.71-3.31-8.52-5.01-3.31-3.21-6.92-10.02-7.02-13.13 0-1.7-2.2-1.8-32.27-1.8-17.84 0-38.78-.3-46.6-.7l-14.23-.6.3 9.42c.2 5.31 1 11.02 1.9 13.03 1.4 3.31 5.11 6.81 8.72 8.22.8.3 62.74.5 137.5.4 135.49-.2 136-.2 138.7-2.31Zm-99.62-13.53c4.01-2.1 8.82-8.52 8.82-11.93 0-2-.5-2-49.51-2h-49.51l.6 2.31c1.8 7.02 8.32 12.73 15.63 13.73 2.31.3 18.94.4 37.08.2 30.37-.3 33.37-.5 36.88-2.31ZM83.92 217.47v-98.31l5.11-.7c2.81-.4 20.54-.6 39.29-.5 28.06.1 34.27-.1 34.68-1.2.2-.8 1.7-3.11 3.41-5.21 1.6-2.1 2.61-4.11 2.31-4.41-.4-.4-22.45-.7-49.01-.8h-48.3l-.3 104.73-.2 104.73h13.03v-98.31Zm245.54-6.31V106.33h-48.51c-26.76 0-48.81.3-49.21.7-.6.5 2.81 6.31 4.61 7.82.3.3.8 1.2 1.1 2 .4 1.3 5.61 1.5 38.58 1.6 20.95.1 38.68.4 39.29.8.8.5 1.1 27.56 1.1 98.71v97.91h13.03V211.14Zm-17.04 7.72v-96.51l-38.38.2-38.28.1-3.31 3.11c-4.21 3.91-6.31 3.91-11.02.2-3.41-2.81-4.01-2.91-7.42-1.8-3.71 1.1-4.81 3.31-4.81 9.02 0 3.91-2.91 5.71-8.82 5.71-6.31 0-9.22-1.8-9.22-5.91 0-5.01-1.2-7.22-4.81-8.62-3.71-1.6-3.81-1.5-8.62 2.81-2.91 2.61-5.91 2.1-9.72-1.6l-3.41-3.31-38.38-.2-38.28-.1V315.3h224.49v-96.41Zm-107.84-87.59c.3-.9.6-2.81.6-4.21.1-3.81 1.8-5.61 7.32-7.72 4.51-1.7 5.01-1.7 8.02-.2 1.8.9 4.01 2.2 4.91 2.91 1.5 1.1 2.2.9 4.41-1.3l2.61-2.71-2.61-3.81c-3.21-4.71-3.31-7.72-.3-12.83 2-3.61 2.81-4.11 7.72-5.01l5.51-1.1v-8.02l-5.51-1c-5.21-1-5.61-1.3-7.72-5.51-2.91-6.01-2.81-7.92.7-12.63l2.91-4.11-3.31-3.21c-2.91-2.81-3.41-3.01-4.61-1.7-.7.9-2.71 2.51-4.51 3.61l-3.21 2-5.61-2.41c-5.51-2.51-5.51-2.61-6.41-7.82l-.8-5.31-4.31-.3c-4.61-.3-4.81-.2-5.61 6.31-.3 2.2-.5 4.11-.6 4.31 0 .1-2.61 1.4-5.71 2.71l-5.71 2.61-4.21-3.11c-2.31-1.6-4.61-3.01-5.11-3.01s-2.1 1.3-3.61 2.81l-2.71 2.81 3.01 4.01c3.51 4.61 3.61 5.81 1 11.83-1.4 3.41-2.61 4.71-4.71 5.21-9.22 2.1-8.72 1.7-8.82 6.11l-.1 4.11 5.51.9c5.11.7 5.71 1.1 7.82 4.81 2.61 4.71 3.01 9.72.7 11.53-3.31 2.81-3.71 5.01-1.3 7.62 2.81 3.01 3.01 3.01 8.02-.3l4.11-2.71 5.11 1.8c6.21 2.2 7.72 3.61 7.72 7.42 0 5.11.9 6.21 5.01 6.21 2.51 0 4.01-.5 4.41-1.6Z"/><path d="M65.08 340.14c-1.9-1.9-1.4-6.31.8-8.32 4.51-4.11 10.82 2.41 7.32 7.42-1.6 2.31-6.21 2.81-8.12.9Zm17.24-1.2c-3.31-5.21 3.11-11.12 7.72-7.02 3.71 3.31 1.7 9.42-3.11 9.42-2 0-3.51-.8-4.61-2.41Zm17.84 1.2c-2-2-1.5-7.62.8-8.82 5.11-2.81 10.62 2.81 7.52 7.62-1.7 2.61-6.21 3.31-8.32 1.2Zm53.41-93.4c-5.21-2.41-11.22-8.22-14.23-13.83-2.71-5.11-2.51-19.04.4-24.35 3.01-5.51 8.92-11.02 14.63-13.53 13.13-5.81 29.86.5 36.28 13.53 2.71 5.51 2.81 19.44.2 24.75-6.71 13.53-23.95 19.74-37.28 13.43Zm20.05-3.01c9.62-4.11 15.53-12.63 15.53-22.75 0-14.83-14.33-26.76-28.56-23.75-14.03 3.01-22.65 18.04-18.14 31.57 1.8 5.61 8.12 12.33 13.63 14.63 4.51 2 13.13 2.1 17.54.3Z"/><path d="M155.18 230.6c-4.81-5.11-5.71-7.52-2.81-7.52.6 0 2.81 1.7 4.91 3.71 2.1 2 3.91 3.51 4.21 3.21.2-.2 3.81-5.71 8.02-12.13 6.92-10.72 10.62-14.33 10.62-10.42 0 .8-3.31 6.61-7.32 12.83-4.11 6.21-7.92 12.33-8.62 13.63-.6 1.2-1.8 2.2-2.51 2.2s-3.71-2.51-6.51-5.51Zm68.55 16.24c-10.62-5.21-16.54-14.53-16.44-25.76.1-7.62 1.2-11.22 5.61-17.34 4.41-6.21 13.83-10.92 22.15-10.92 14.23 0 26.76 11.12 27.96 25.05 1.1 11.73-4.21 21.95-14.53 27.96-6.61 3.91-17.84 4.31-24.75 1Zm18.84-2.81c8.22-2.31 16.74-13.63 16.74-22.55 0-13.63-10.72-24.35-24.35-24.45-13.33 0-23.75 10.52-23.75 24.05 0 16.44 15.13 27.46 31.37 22.95Z"/><path d="M224.93 234.81c-.3-.8 1.3-4.21 3.51-7.52l4.01-6.21-3.91-6.31c-2.2-3.41-3.81-6.81-3.51-7.52.8-2.41 3.01-1.1 6.01 3.81 1.7 2.81 3.51 5.01 4.11 5.01.5 0 1.9-1.6 3.11-3.51 2.61-4.11 4.81-6.51 6.11-6.51 1.9 0 .8 3.71-2.61 8.72-1.9 2.91-3.51 5.61-3.51 6.01 0 .5 1.6 3.21 3.51 6.21 1.9 2.91 3.51 6.11 3.51 7.22 0 3.51-2.71 2-6.41-3.71l-3.71-5.61-3.71 5.31c-4.01 5.61-5.61 6.81-6.51 4.61Zm-29.37-123.97c-4.71-1.1-9.22-4.11-11.93-8.02-2.31-3.41-4.21-10.02-3.61-13.03 2-11.53 10.22-19.14 20.75-19.04 7.32.1 16.54 7.12 18.34 14.03 1.5 5.51 1.5 6.21.7 10.52-2 10.72-13.53 18.14-24.25 15.53Zm10.93-5.51c8.12-3.41 11.42-15.23 6.51-22.55-8.62-12.63-27.86-6.81-27.86 8.32 0 11.53 10.72 18.74 21.35 14.23Z"/></svg>