<svg xmlns="http://www.w3.org/2000/svg" data-name="Livello 1" viewBox="0 0 400 400"><path d="M82.34 354.15c-.3-.7-.4-64.65-.3-142.14l.3-140.84 29.27-.3 29.17-.2.7-3.91c.4-2.31 1.3-4.21 2.31-4.61.9-.3 5.71-.5 10.73-.4l9.02.2.5-8.42.5-8.42 22.05-.3c12.13-.1 23.06 0 24.36.3 2.11.5 2.21 1.1 2.21 9.02v8.52l6.32-.1c3.41-.1 8.32-.1 11.03 0l4.71.1v8.02l29.87.2 29.77.3.5 51.42.5 51.42 27.97-28.67c15.34-15.74 29.27-29.37 30.87-30.17 1.7-.9 4.01-1.3 5.21-1 1.1.3 6.62 5.01 12.13 10.63 15.44 15.44 18.74 9.32-33.38 61.45l-43.3 43.3-.2 62.65-.3 62.65-106.05.3c-84.3.2-106.15 0-106.46-1Zm209-60.94c0-31.98-.2-58.14-.4-58.14s-2.51 2.11-5.21 4.81l-4.91 4.71-.5 46.61-.5 46.61H188.9c-49.92 0-91.12-.3-91.42-.6-.9-.8-1.1-247.29-.3-248.19.4-.3 10.42-.9 22.25-1.1l21.55-.5V74.69H85.85v274.96c0 1.6 5.51 1.7 102.75 1.7h102.75v-58.14Zm-15.04-1.41v-42.1l-20.75 20.55c-12.73 12.53-21.65 20.65-22.85 20.65-1.1 0-9.52 2.71-18.85 5.91-11.53 4.01-17.14 5.41-17.84 4.71-.7-.7 1-7.22 5.61-20.95l6.62-19.95 34.08-34.08 33.98-34.08V92.22h-87.01c-47.81 0-87.41.3-88.01.7-1.7 1.1-1.7 237.87 0 239.57 1 1 19.25 1.3 88.11 1.3h86.91v-42Zm-65.35 1.21c.8-.2 0-1.6-2.21-3.71-3.21-3.11-3.51-3.21-4.41-1.5-.5 1.1-1.3 3.41-1.7 5.21l-.7 3.31 3.91-1.5c2.11-.8 4.41-1.6 5.11-1.8Zm11.82-3.41c2.71-.9 5.31-2.11 5.91-2.51.6-.6-2.71-4.61-8.52-10.42l-9.52-9.52-2.21 6.72-2.31 6.72 5.21 5.31c2.91 2.91 5.51 5.31 5.81 5.31.4 0 2.91-.7 5.61-1.6Zm72.48-65.96 59.54-59.54-3.91-4.61c-2.11-2.51-4.41-4.51-4.91-4.61-.9 0-64.86 63.75-106.25 105.95l-13.93 14.33 3.91 4.01c2.11 2.21 4.41 4.01 5.01 4.01.5 0 27.77-26.86 60.55-59.54Zm-12.23-12.53 59.34-59.94-4.81-4.71-4.71-4.61-13.43 13.73c-7.42 7.62-34.18 34.68-59.44 60.04-32.88 33.08-45.81 46.71-45.21 47.61 1.5 2.41 6.92 7.82 7.92 7.82.6.1 27.67-26.86 60.34-59.94Zm8.32-85.1V74.69h-56.13v13.83l21.65.1c11.83 0 21.95.3 22.55.6.5.4.9 19.95.9 50.12v49.52l5.51-5.81 5.51-5.81v-51.22Zm71.97 29.57 4.21-4.31-11.03-10.93-11.03-10.93-4.01 3.91c-2.21 2.11-4.01 4.41-4.01 4.91 0 1.1 20.05 21.65 21.05 21.65.3 0 2.51-1.9 4.81-4.31Zm11.23-11.33c2.21-2 4.01-4.41 4.01-5.31 0-1-4.21-5.91-9.32-10.93-10.53-10.22-11.83-10.63-17.14-5.21l-3.01 3.01 10.42 10.83c5.81 6.01 10.63 11.03 10.73 11.13.2 0 2.11-1.5 4.31-3.51ZM230.99 76.99l-.3-10.83-8.82.3c-12.23.3-12.73 0-12.73-9.82v-8.02h-41.1v7.92c0 5.21-.4 8.22-1.2 8.72-.7.4-5.61.8-11.03.8-5.41.1-9.82.4-9.82.9v20.75h85.3l-.3-10.73Z"/><path d="M115.62 314.56c-1.2-1.2-.8-54.23.4-55.03 1.4-.9 53.83-.9 54.73 0 .5.5.8 44.11.4 54.03-.1 1.6-2.11 1.7-27.47 1.7-15.14 0-27.77-.3-28.07-.7Zm51.52-4.51c.1-1.7.1-44.01 0-45.91-.1-1.3-3.51-1.5-24.16-1.6l-24.06-.1v48.82h24.06c18.54 0 24.06-.3 24.16-1.2Z"/><path d="M134.46 296.82c-4.41-5.21-5.11-7.62-2-7.62.7 0 2.61 1.6 4.21 3.61l2.91 3.61 6.62-11.83c6.01-10.93 9.82-15.14 9.82-10.93 0 2.51-13.93 27.77-15.64 28.27-.7.2-3.31-2.11-5.91-5.11Zm-17.84-55.94c-1.6-1.2-1.7-3.81-1.5-28.37l.3-27.06h55.13l.3 27.67.2 27.67-3.11.7c-1.7.3-13.63.6-26.36.6-17.04 0-23.76-.3-24.96-1.2Zm49.22-3.61c.9-.6 1.3-6.52 1.3-24.36l.1-23.46-24.16-.3-24.16-.2v23.86c0 13.13.2 24.16.4 24.36.9.8 45.21.9 46.51.1Zm-49.72-70.57c-.9-.9-1.2-8.42-1.2-27.57 0-25.06.1-26.36 2-27.37 2.81-1.5 52.93-.9 53.93.7.4.6.6 13.33.4 28.27l-.3 27.17h-26.76c-19.55 0-27.17-.3-28.07-1.2Zm51.22-27.16.2-23.76-18.54-.1c-17.94-.1-24.56-.1-28.27 0-1.7.1-1.8 1.9-1.8 24.16v24.06l24.16-.2 24.06-.3.2-23.86Z"/></svg>