<svg xmlns="http://www.w3.org/2000/svg" id="Livello_1" data-name="Livello 1" viewBox="0 0 3710.4 3710.4"><defs><style>.cls-1{fill:#bccffb}.cls-2{fill:#4143e2}.cls-3{fill:#7e98f4}.cls-4{fill:#4c51c7}.cls-5{fill:#e1e9fd}.cls-6{fill:#13097a}.cls-7{fill:#fff}.cls-8{fill:#1a0f8b}.cls-9{fill:#e6ecfd}.cls-10{fill:#feaeac}.cls-11{fill:#91b3fa}.cls-12{fill:#0d0468}.cls-13{fill:#fe9b98}.cls-14{fill:#fd820e}.cls-15{fill:#10066f}</style></defs><path d="M3710.4 0v3710.4H0V0h3710.4Zm-497.15 2172.88c2.77-2.3 3.02-5.64 3.59-8.89 28.26-160.07 22.42-357.22-1.99-517.7-89.08-585.55-464.54-1025.38-1049.29-1154.3-334.87-73.83-678.6-39.23-974.1 138.01-3.47 2.08-11.45 4.57-10.97 9.19-11.6 1.08-52.09.72-36.47 19.2-503.39 342.77-779.07 1007.59-661.67 1608.94 16.72 85.64 42.75 171.49 78.14 251.06-2.16 9.13-10.88 57.98-9.55 63.86.44 1.94 3.7 2.78 3.79 3.33.26 1.61-7.07 24.76-7.65 31.7-2.36 28.56 2.05 56.78 23 77.71l-68.21-.07c-59.01 5.84-54.17 86.44 4.9 87.43-20.63 128.29-33.75 257.85-43.56 387.46 1.06 15.13 21.61 18.06 25.77 3.61l59.98-390.15c58.25-.91 116.46 1.44 174.68 1.93 6.42 10.47 15.69 21.68 23.97 30.73 2.91 3.17 5.9 7.25 10.58 7.66 17.31 111.68 30.58 229.87 52.4 340.14 1.31 6.62 1.33 15.45 8.91 17.95 21.87 7.21 17.96-20.68 17.47-34.74-3.11-88.71-20.92-177.27-26.95-265.77 17.9 13.14 33.7 29.77 50.92 44.1 40.5 33.71 93.27 73.43 139.24 98.79 3.14 1.73 5.61 3.43 9.48 2.99-18.42 51.42-40.41 101.54-59.42 152.76-2.55 11.33 6.19 22.44 17.08 15.13 6.64-4.46 15.75-32.06 19.31-41.2 7.28 1.78 8.48 12.57 18.19 11.56 59.02-4.48 126.43 5.79 184.43.07 10.28-1.01 12.39-4.06 8.53-13.55-6.4-15.71-38.45-37.37-54.68-42.26-20.58-6.2-59.67-4.6-81.61-1.89h-7.69v-17.28c2.4-.21 9.92-1.17 11.1-2.35.83-.83 5.21-18.96 6.18-22.61l132.45 55.67c7.35 18.49 17.91 54.42 27.33 69.61 8.03 12.94 22.76 5.03 22.69-7.23-.02-3.82-14.64-41.93-17.39-48.94l17.28 5.76c-7.28 35.85 11.05 32.31 40.31 32.63 2.12 3.3 7.88 1.77 11.52 1.92 3 .13 6.97-.51 9.6 0 .97.19 2.77 1.32 3.84 1.92s1.96 3.75 5.61 4.89c13.33 4.18 21-3.3 30.86-10.65 117.72 31.47 238.16 57.79 359.92 69.09 207.22 19.24 468.18 4.11 665.16-66.25 3.05-1.09 6.82.44 5.7-4.76 41.56-.05 83.21.05 124.77 0-.87-28.71-29.76-22.62-49.91-23.03 51.73-21.83 103.39-44.17 152.93-70.69 24.34-13.03 47.49-28.13 71.37-41.87 2.28-1.31 6.11-5.03 7.96-.69-13.97 35.73-28.81 71.62-42.23 107.49-11.71 3.71-56.22 33.11-57.19 43.49-.33 3.55 3.42 8.63 6.75 9.83 8 2.89 34.53 3.81 44.68 4.27 13.41.6 27.79.2 41.3.03 3.25-.04 8.53 1.23 10.53-1.95 25.08-.3 54.81-.39 79.45-4.05 36.22-5.38 15.92-44.9 16.53-68.89.27-10.39 9.5-24.68 13.44-34.55 3.57.59 4.89.2 7.68-1.92 10.16-7.71 24.29-55.36 34.55-67.18 22.73 57.82 46.93 115.2 69 173.31 9.67 8.62 21.86 4.39 21.4-9.21-22.65-64.18-49.13-127.53-74.1-191.05-1.11-2.82-.43-6.28-.94-7.6 27.92-56.06 55.32-112.51 82.54-168.92.08-.16 1.31-.65 1.92-1.92.25-.52-.25-1.4 0-1.92 5.05-1.28 10.13-8.51 13.38-12.53 52.02-64.38 94.73-138.54 130.58-212.99l3.83 2.86c3.86 35.79 6.67 71.7 9.6 107.49 9.94 121.67 17.52 243.68 11.6 365.74-.37 7.6-6.03 56.43-3.93 58.48h9.61v49.9c-3.42-.13-22.33 24.76-25.39 29.31-10 14.92-32.39 51.62-.56 55.19 17.31 1.94 63.51 2.03 80.7 0 33.68-3.98 6.43-66.53-8.68-80.66 1.39-6.28 7.96-46.17 9.69-47.9.71-.7 5.61.16 7.58-.09 1.8-.23 3.81.46 5.63-.11 17.37-98.46 34.2-197.3 45.96-296.7 6.19-52.3 12.11-105.6 15.59-158.12 5.78-87.06 9.04-182.99-.01-269.68-1.39-13.3-13.08-68.9-11.51-75.83.55-2.41 4.56-4.36 5.35-7.1 4.13-14.2-27.49-124.86-34.15-146.46ZM1059.09 679.04c5.75-5.65-.67-15.38-7.65-14.6-9.04 4.53-58.98 16.81-61.97 22.71s.12 13.97 7.54 13.49c10.67-7.42 55.48-15.12 62.08-21.59Zm-145.93 59.48c6.03-6.13-1.37-16.8-9.08-14.07-13.81 10.14-42.88 20.51-54.25 31.75-8.43 8.33 1.09 16.43 10.59 13.08l52.74-30.76Zm-140.15 73.76c-7.85 8.19-48.13 38.42-48.94 46.98-.66 6.87 7.05 10.81 12.99 7.36 6.59-8.5 47.39-38.92 48.11-46.13.67-6.73-6.25-10.15-12.16-8.21ZM667.32 923.7c-2.64.24-5.15 2.6-7.01 4.39-4.21 4.07-31.29 41.07-33.05 45.62-4.25 11 2.71 19.68 12.08 12.08 6.12-14.46 30.64-36.64 35.29-49.16 2.36-6.36.45-13.64-7.31-12.93ZM582.98 1056c-2.94.73-5.12 4.48-6.64 6.93-4.38 7.08-24.72 53.14-23.25 58.59 1.27 4.71 7.59 6.4 11.88 4.96 5.45-1.83 20.5-49.7 27.26-57.28 3.76-6.52-1.9-15.04-9.26-13.22Zm-55.76 147.84c-3.53 1.22-4.05 5.44-5 8.44-3.38 10.61-11.47 45.81-11.53 55.85s13.12 11.77 16.68 3.05c.77-18.63 10.24-39.65 11.86-57.33.83-9.03-2.52-13.3-12.01-10.01Zm-26.23 158.05c-1.7 6.01 0 29.93 0 38.39 0 2.88 10.83 6.92 14.42.97 1.7-2.81 3.17-39.94-.23-42.43-4.02-2.94-12.81-1.79-14.19 3.06Z" class="cls-7"/><path d="M3213.25 2172.88c-24.27-78.77-56.22-156.51-89.88-231.64-5.73-12.79-21.94-38.81-24.82-50.03-2.61-10.18 1.76-20.26 1.59-30.27-1.19-69.62-71.29-104.29-130.3-117.43-14.45-3.22-32.24-7.86-46.43-4.44-2.85-8.19-8.39-18-11.52-26.87-9.4-26.73-17.92-53.84-28.49-80.17 4.48-14.57 10.65-22.67 9.36-39.89-.5-6.74-5.6-21.08-11.59-23.91a35.07 35.07 0 0 0 .97-30.72c-7.21-16.08-28.75-12.47-32.6-21.14-2.79-6.28-.04-17.68-1.44-25.43-3.77-20.87-31.53-26.71-48.95-21.05-11.78 3.83-24 22.87-28.44 23.54-4.72.71-8.91-2.13-12.93-1.61-4.94.64-8.01 6.49-15.3 5.1-9.12-1.74-11.14-19.41-33.02-20.9-45.81-3.12-59.31 46.88-41.69 81.99 8.49 16.93 27.65 18.5 44.49 14.06l32.63 97.89c-7.49 15.08 8.24 44.57 15.63 60.19 4.05 8.56 11.96 29.64 21.79 30.21 4.59.27 39.01-15.88 45.12-19.38 2.59 4.97 2.42 12.9 3.84 17.28-17.67 6.09-33.66 19.09-41.26 36.48l-64.31 322.47c-41.7-50.95-88.57-102.22-128.61-153.56-23.09-29.61-27.58-52.91-63.31-73.94-12.55-7.38-62.19-32.62-74.18-35.26-4.3-.95-2.79 3.35-2.61 6.47 1.74 30.82 30.24 24.23 37.3 41.4.86 2.1 1.52 4.26 1.16 6.55s-40.01 15.88-44.25 16.39c-2.5.3-5.17-.28-7.68 0s-5.16-.23-7.68 0c-4.16.37-7.51 1.7-9.6 1.92-4.17.43-14.69 2.79-16.39.08-1.11-1.76-2.93-17.03-4.65-22.23-9.84-29.73-44.78-64.39-71.25-80.39-45.39-27.45-120.54-41.97-166.84-10.71-39.17-6.88-77.85 5.16-98.69 40.47-19.26 32.62-20.89 69.87 16.16 88.14 7.11 3.51 14.3 8.37 23.03 7.68 3.79 36.23 39.8 115.86 81.49 119.08 16.48 1.27 22.73-2.98 35.6-11.59-.41 5.14 5.35 20.44 7.22 26.47.85 2.73-.08 6.47.46 8.08-9.38.85-11.36 7.66-15.08 14.67-15.76 29.72-32.99 73.67-43.95 105.78-32.34 94.78-1.89 124.27 59.96 190.54 18.96 20.32 40.36 38.44 58.57 59.48-32.05-7.15-61.21-26.53-92.84-36.08-15.25 11.99-26.76 30.19-43.44 39.92-12.36-26.36-25.99-52.36-38.39-78.7-25.05-53.2-48.34-109.86-75.13-161.93-10.29-20.01-22.01-38.35-46.97-41.33-27.6-3.3-65.86-.05-94.8-.21-36.43-.2-72.98-.13-109.41 0-34.23.12-81.92-3.92-114.26-.04-6.85.82-9.92 2.96-14.35 7.72-8.31 8.93-6.85 16.63-3.93 27.92 40.27 85.62 65.73 186.9 107.25 270.89 3.98 8.05 7.56 15.04 15.68 19.83-104.82.02-211.28 1.88-316.72 1.92v-31.68c33.31-82.57 75.86-161.78 111.67-243.43 2.21-5.04 9.35-19.27 9.37-23.37.05-15.89-21.46-19.46-28.62-5.48-26.03 55.99-51.06 112.49-77.33 168.37-4.32 9.2-9.1 20-15.08 28.1.39-40.3-.18-82.89 3.84-122.85.06-.63-.07-1.29 0-1.92.03-.3 1.47-2.18 1.92-5.76 4.19-33.27 15.65-65.02 21.11-97.89 25.39.21 65.86 3.3 89.35.1 2.45-.33 3.62-.31 5.8-1.88 2.68-1.93 15.79-22.52 18.9-27.17 31.67-47.42 57.05-99.27 83.66-149.56 22.77-43.04 46.02-85.89 66.85-130.02.55-3.35-1.49-8.7-4.78-9.8-13.76-.72-27.13-2.37-40.96-2.23 12.17-6.43 24.39-12.57 36.47-19.2 34.1-18.69 85.03-53.41 108.49-84.41 2.3-3.04 4.7-5.47 4.76-9.64 5.93-1.07 10.48-8.95 14.2-13.63 44.1-55.56 77.52-127.51 89.46-197.51 23.53-8.88 36.12-23.26 45.82-47.28 9.43-23.36-1.83-37.38-12.99-57.06l30.52-31.95c7.64 19.26 24.24 48.34 40.31 61.42-31.2 8.44-9.62 21.48-9.64 23.99 0 1.02-7.88 5.38-7.27 13.03.5 6.37 6.61 6.02 7.31 7.12.13.21.16 3.52 0 3.84-1.08 2.17-9.3 4.09-7.68 11.52.86 3.91 8.68 4.56 7.68 8.62-23.61 17.76 9.56 19.39 12.56 23.93 2.8 4.23-.58 19.59 8.57 31.74 29.97 39.83 128.22 19.95 115.16-41.26 6.44-2.58 25.26-6.42 24.75-16.29-.4-7.64-7.49-8.53-7.51-9.64-.07-5.01 9.83-6.92 7.47-14.95-1.33-4.52-7.46-4.63-7.46-6.17 0-4.82 8.46-6.53 7.8-13.32-.45-4.63-7.75-8.46-7.75-9.7 0-1.48 8.34-5.11 7.74-11.41-.6-6.29-11.37-11.97-17.37-10.66 2.31-2.77 13.46-21.14 15.36-24.95 13.43 4.48 53.71 18.63 65.82 14.98 7.06-2.13 7.23-11.17-.1-14.48-14.41-6.52-43.76-7.25-59.97-13.93 9.56-25.55 10.09-36.37 24.95-61.42 10.21-.17 28.05 11.84 37 9.28 8.04-2.3 31.19-46.6 39.8-50.52 8.05-3.66 16.43 1.18 23.88 1 3.19-.08 6.43-1.84 9.71-1.98 18.4-.79 36.38-1.21 54.13-7.28 5.3.02 39.49 40.21 48.61 44.76l5.69.1c8.88-8.46 64.63-29.89 68.17-35.65 4.71-7.66-10.46-54.62-6.37-67.82.49-1.58 17.39-15.78 20.8-19.5 12.34-13.47 24.61-29.17 33.52-45.18 11.39-8.48 63.3.32 69.18-5.68 2.06-16.17 25.73-62.85 23.98-75.77-1.29-9.51-50.02-35.03-51.84-44.29-2.36-12.01.91-32.43-.06-46.01-.92-12.95-4.73-27.3-7.22-40.1l45.25-48.48c1.06-5.36-32.3-64.4-37.34-73.33-12.97-3.47-59.06 11.72-67.84 6.38-2.12-1.29-16.41-18.83-21.09-23.04-13.94-12.52-29.5-23.3-45.13-33.57-4.15-12.28 3.01-58.95-2.71-66.39-2.22-2.89-61.81-21.47-69.18-22.94-4.28-.85-9.12-2.47-12.55 1.09l-36.83 49.59c-28.78-3.69-57.76.95-86.08 6.21l-5.84-1.99-42.05-40.54-3.85-1.75-71.1 36.41c-5.19 8.57 7.79 53.2 6.43 65.81-9 11.37-20.93 20.29-30.36 31.2-5.71 6.61-22.39 33.16-25.83 35.6-2.3 1.63-17.18 3.38-21.27 3.68-15.24 1.12-31.42-1.03-46.74.29l-11.78 40.04c-31.14 12.26-57.2 34.32-80.62 57.59 1.33-4.28 6.28-34.04 5.78-37.31-1.11-7.36-9.69-9.75-14.32-2.89-7.46 11.06-7.38 52.56-8.73 67.08-38.57 71.56-19.05 160.78 13.44 230.34 19.97 42.76 51.87 76.26 68.64 116.59 3.18 7.64 3.71 17.21 6.22 23.53-20.09 18.42-41.2 36.33-59.56 56.57-5.55 6.13-21.61 23.17-24.66 29.08-3.03 5.88-3.37 42.77-2.16 50.63-13.66 43.16-42.22 78.98-76.78 107.49-5.24 4.33-13.39 9.3-19.2 13.44 2.51-14.68 31.61-66.49 28.48-77.31-.72-2.5-6.91-7.8-9.25-10.05-20.68-19.85-46.36-37.66-67.24-57.53-3.01-2.86-11.16-9.83-11.5-13.5 8.88-51.38 7-103.91-1.7-155.15l78.52-67.45 9.18-11.84-56.32-131.08-7.5-3.68c-27.39 1.3-55.18 4.74-82.55 5.57-6.82.21-28.67 1.2-32.85-1.86-4.47-3.28-15.82-21.19-20.95-27.04-27.02-30.79-57.33-58.09-90.26-82.49-1.88-3.82-1.2-15.3-1.02-20.25.95-25.39 5.11-51.27 5.91-76.61.19-5.9 1.09-17.98-2.98-22.13-39.08-13.86-77.52-34.93-116.17-48.91-7.5-2.71-14.67-7.45-22.96-3.89l-74.31 83.09c-52.81-5.54-106.41-9.23-159.06.23-2.66-.13-24.64-24.21-28.67-28.61-11.59-12.63-21.87-26.9-33.51-39.43-4.2-4.52-18.58-20.54-23.56-19.82l-130.93 53.54-2.89 6.75c3.13 37.79 7.41 75.84 7.2 113.72-43.18 28.38-78.97 66.87-110.29 107.56-40.24 3.11-81.11-9.1-120.79-3.71l-52.72 127.92c-.7 7.45 7.39 13.24 12.54 18.19 9.42 9.05 74.48 61.45 75.42 66.39-4.81 32.8-7.04 66.44-5.4 99.69.94 19.03 5.92 38.11 5.45 57.1-8.65 14.75-85.05 69.38-86.04 79.16l52.11 124.47c2.07 4.14 5.45 10.2 10.44 10.84l86.19-5.89c7.41 1.43 23.96-2.19 29.82 1.05 2.09 1.16 24.79 31.98 29.74 37.44 24.65 27.18 53.09 51.12 82.55 72.93l1.06 6.6-3.92 37.54c-3.39-3.33-14.3-11.11-18.34-7.89-2.17 1.73-2.54 5.77-2.81 5.96-1.98 1.4-5.82-3.49-6.7-3.49-1.14 0-11.94 14.07-15.3 16.98-20.03 17.35-52.07 21.61-75.9 35.43-23.86 13.83-41 33.01-38.37 62.41-24.16-6.03-30.19 18.45-21.43 37.77 5.6 12.37 14.89 16.24 23.37 23.66.15.13-.33 2.45 1.35 3.87 2.2 1.87 7.98 3.47 8.24 3.84 1.47 2.08-4.82 7.75-5.48 10.97-2.69 13.09 24.6 20.51 34.28 21.63v13.44c-3.66 4.78-8.16 13.29-11.52 17.28-2.19 2.6-16.22 18.45-17.28 19.2-5.93 4.15-17.39 8.06-25.56 13.79-131.64 92.38-229.3 246.88-266.21 402.74-35.39-79.56-61.42-165.41-78.14-251.06C364.94 1666 640.62 1001.18 1144.01 658.41c23.26-.8 46.62-4.41 69.73-7.53 12.13-20.51-22.19-12.69-33.26-11.67-.48-4.62 7.5-7.11 10.97-9.19 295.5-177.24 639.23-211.84 974.1-138.01 584.74 128.93 960.21 568.76 1049.29 1154.3 24.41 160.48 30.25 357.62 1.99 517.7-.57 3.25-.82 6.59-3.59 8.89Zm-822.1-1556.37c-6.02 1.78-7.84 12.22-1.95 14.63l66.92 13.69c25.56-15.86-18.98-21.98-31.45-24.22-6.69-1.2-28.6-5.56-33.53-4.1Zm-169.95 17.24c-3.72 6.1 1.2 16.59 10.02 13.01 17.25-8.51 44.88-7.23 61.13-13.82 6.42-2.6 7.78-12.72 2.14-14.58-7.36-2.43-70.75 11.22-73.29 15.39Zm-918.54 1.88c-5.48 1.81-4.22 12.84 2.03 14.69 5.62 1.66 14.34-.19 20.71.41 11.63 1.09 33.78 5.77 44.17 3.81 7.85-1.48 6-13.06-.41-14.94-8.18-2.41-59.88-6.15-66.5-3.97Zm157.4 23.03c-5.84 1.96-3.75 13.53 2.13 14.6 10.24.2 58.81 19.4 63.78 16.9 5.79-2.91 5.6-11.27-.49-14.93-6.52-3.91-44.57-14.73-53.12-15.97-3.91-.57-8.38-1.92-12.3-.6Zm1090.45 9.65c-10.73 1.54-8.04 10.25-1.46 16.04 5.81 5.12 38.51 27.79 36.61 7.73-.57-5.97-29.8-24.54-35.15-23.77Zm-418.45 5.72c-12.72 2.58-42.35 31.72-55.29 38.92-5.49 7.41.82 17.78 9.65 13.56 6.7-9.38 53.73-36.32 55.47-42.62s-3.37-11.17-9.83-9.86Zm-520.22 38.43c-6.79 1.99-6.82 9.51-1.3 14.01 12.97 10.57 41.28 17.56 55.59 29.02 9.05 2.45 13.19-7.64 6.5-14.35-3.52-3.53-45.3-25.65-51.17-27.5-3.47-1.09-5.65-2.34-9.61-1.18Zm401.05 74.96c-7.09.65-25.12 32.29-29.13 39.85s-20.1 34.12-.02 30.86c5.77-.94 12.55-20.37 16.04-26.35 4.76-8.15 17.92-24.75 20.41-31.42s.44-13.65-7.31-12.94Zm-264.76 7.53c-6.39 1.77-6.41 8.57-2.48 13.31 10.31 12.43 35.52 24.08 46.45 37.98 6.58 5.13 16.31.68 13.88-7.96-.96-3.41-43.43-38.57-48.94-41.4-3.06-1.57-5.23-2.94-8.91-1.92Zm133.53 145.02c6.52 5.34 16.24 2.24 14.01-7.09-.99-4.15-19.33-26.68-23.13-28.93-7.33-4.33-14.45 1.27-11.73 9.83.57 1.8 18.83 24.53 20.85 26.19Zm860.61-1.12c-6.41 2.14-1 34.69 1.15 40.61 3.32 9.14 14.4 6.99 15.07-5.25.53-9.63-1.96-40.1-16.22-35.35Zm5.81 132.51c-3.09 1.01-3.72 4.31-4.58 6.97-5.48 17.01-4.76 39.82-11.92 57.31-2.34 8.18 5.2 16.25 12.52 10.46 5.71-4.52 17.59-67.2 13.38-73.22-1.71-2.45-6.81-2.38-9.4-1.53Zm-54.46 155.79c-2.71 2.32-14.56 23.4-18.18 28.81-4.84 7.21-18.98 21.57-18.98 29.19 0 6.66 4.23 8.15 10.3 6.33 6.42-1.92 39.06-49.45 39.74-56.47.84-8.65-6.16-13.59-12.88-7.85Zm-106.6 120.74-55.17 35.12c-5.43 7.85-.4 15.61 8.94 12.97 6.81-1.93 49.54-28.75 54.44-34.01 7.83-8.4 2.12-16.68-8.22-14.08Zm-212.11 80.69c-3.3 3.24-3.03 9.86 1.45 12.01 7.94 3.81 68.11-5.03 73.1-11.34 4.57-5.79.27-12.95-6.78-12.74-10.15 5.23-63.36 7.75-67.76 12.07Zm-340.82 178.29c-3.01.76-4.98 4.78-6.14 7.43-3.55 8.13-16.59 48.99-17.79 57.09-1.31 8.9.75 16.07 11.08 11.06 5.22-2.53 24.83-64.41 22.78-70.69-1-3.06-6.86-5.67-9.94-4.9Zm-63.4 157.41c-3.79 1.28-28.37 50.85-34.96 57.25-3.47 6.66 1.42 14.86 8.8 12.76 8.95-2.55 30.59-49.05 37.49-58.71 3.36-7.96-3.91-13.79-11.33-11.3Zm-1312.85 78.71c-16.19 4.56 15.24 39.21 20.79 40.08s8.68-.72 8.69-6.72c0-7.08-20.97-35.76-29.48-33.36Zm1218.88 59.59c-7.41 2.23-36.16 41.59-46.36 47.74-7.62 9.27 2.19 17.28 11.51 11.51 7.06-8.87 45.71-42.99 46.5-51.25.63-6.55-5.63-9.82-11.66-8ZM747.91 1946.6c-13.31 4.48 13.62 27.46 17.94 31.48 4.81 4.47 26.5 23.27 30.83 24.85 6.13 2.24 15.04 0 13.13-7.22-1.73-6.58-46.72-39.3-53.56-48.34-2.47-1.27-5.74-1.65-8.34-.77Zm1013.63 83.7c4.37-5.94 3.31-13.31-4.68-14.49-5.52-.81-29.26 18.22-35.98 22.75-5.45 3.66-25.28 13.49-26.06 18.25-1.2 7.33 4.67 12.69 11.69 9.69l55.03-36.2Z" class="cls-9"/><path d="M2034.67 2581.73c1.46 3.8 4.9 5.3 7.68 7.68-10.26 10.59-30.76 15.15-36.8 29.39-6.21 14.67.81 23.74.33 37.79-.36 10.68-20.82 44.19-26.6 56.9-53.84 118.31-92.66 245.49-130.84 369.65-30.67 17.67-61.13 39.55-92.27 56.11-2.18 1.16-4.83.66-5.58 1.06-8.29 4.38-16.7 7.45-24.79 12.64-5.38 3.44-38.2 27.05-32.8 33.41 55.97 5.67 114.06-1.31 169.56-9.9 7.62-1.18 38.43-4.84 42.41-7.5 5.47-3.65 5.75-17.82 4.81-23.74-1.4-8.8-8.55-13.97-11.39-20.26-1.95-4.32-10.73-32.05-11.17-36.03-.31-2.75-.5-5.15 1.08-7.61 39.45-49.6 79.03-99.25 116.42-150.44 15.09-20.66 30.02-46.45 45.62-65.71 2.16-2.67 3.23-5.17 7.37-5.1.16 7.02 5.23 18.79 7.64 25.95 9.36 27.73 22.71 57.4 34.86 84.15 7.58 16.68 30.97 54.2 32.2 69.63.67 8.4-12.49 72.68-16.15 81.32-3.38 7.98-12.09 11.9-16.32 19.19-8.09-1.09-29.17 11.66-35.46 17.33-5.17 4.66-11.4 9.22-2.11 13.53 19.36 8.98 82.64 7.41 102.45-1.49 4.38-1.97 5.82-2.41 8.91-6.44 7.15-9.35 20.31-38.89 25.76-51.02 10.51-23.42 28.36-65.29 28.39-90.37.02-14.1-28.81-10.86-37.72-12.05-14.07-1.87-26.27-18.78-28.33-32.13-3.5-54.45 2.09-114.31-2.63-168.21-2.76-31.54-18.05-64.48-38.13-88.55 17.16-3.23 34.45-2.46 51.82-2.87 6.71-.16 12.24-2.64 19.2 0 1.77 1.43 3.94 2.45 5.76 3.84 2.14 1.63 4.42 4.86 5.76 5.76-6.83 5.1-13.43 13.89-14.9 22.53-2.04 11.98-1.75 44.92 3.05 55.54 3.19 7.06 16.75 19.82 24.33 19.82h130.53c.2 0 2.88 2.68 2.88 2.88v317.68h-110.37c-8.39 0-21.61 13.45-18.24 23.03 55-.05 110.09.07 165.09 0 1.12 5.2-2.65 3.67-5.7 4.76-196.98 70.36-457.94 85.49-665.16 66.25-121.76-11.31-242.19-37.63-359.92-69.09 34.08-25.42 67.9-55.91 101.73-82.54 1.25 29.38-24.14 76.76 22.1 80.6 54.56-2.93 119.27 10.83 172.71 5.75 14.81-1.41 16.47-9.85 6.22-19.82l-149.2-70.37c-.7-7.15-7.69-19.24-5.76-26.87.12-.48 2.56-1.93 3.07-3.71 1.59-5.65-14.24-84.76-16.23-99.26-12.14-88.28-15.78-177.77-21.47-266.46l-1.84-106.61c189.36-.15 378.81-.05 568.17 0Z" class="cls-5"/><path d="M1992.44 2512.63h249.54c47.96.01 96-.02 143.96 0 62.67.03 125.44-.04 188.11 0h26.87c133.7.1 267.48-.07 401.18 0 8.36-.69 20.46 3.05 21.28 12.45.62 7.08-11.37 46.48-16.73 50.64-3.65 2.82-12.3 5.48-17.02 6.02-26.15 2.95-58.27-1.4-85.42 0-2.47.13-5.01-.54-7.43.23l-95.46 243.48c-1.86 9.74 8.94 26.79 12.67 36.54 15.82 41.3 33.99 82.35 49.91 122.85.52 1.32-.16 4.79.94 7.6 24.97 63.52 51.45 126.87 74.1 191.05.46 13.59-11.73 17.82-21.4 9.21-22.07-58.11-46.26-115.49-69-173.31-15.56-39.57-30.23-79.52-46.07-119.01-4.03-10.04-8.03-25.1-13-34.02-1.21-2.17.14-3.26-4.26-2.46-16.46 45.69-34.06 91.12-51.85 136.29-15.01 38.1-32.15 75.84-45.85 114.45-1.22 3.45-2.81 6.45-2.14 10.31-1.35.93-2.78 1.55-3.39 3.25-8.86 19.13-14.75 45.56-24.78 63.49-1.65 2.95-4.8 1.29-4.45 4.26 14.69-.09 29.45.19 44.14.02-2 3.18-7.28 1.91-10.53 1.95-13.51.17-27.89.57-41.3-.03-4.75-3.95-9.83-7.15-9.53-14.21.24-5.72 12.26-35.28 15.28-43.37 13.42-35.87 28.25-71.76 42.23-107.49 25.94-66.33 54.28-132.75 79.77-199.65l.09-7.73-95.48-243.44c-38.26-.57-76.63-.17-114.9-.27-52.44-.14-104.96.04-157.4 0-34.52-.03-69.13.02-103.65 0-33.24-.02-66.57.01-99.81 0-55.64-.02-111.36.01-167 0-189.36-.05-378.81-.15-568.17 0-39 .03-78.09-.07-117.09 0h-11.52c-38.16.08-81.6-2.69-119.01 0-2.58.19-6.04-1.21-7.87 1.19-21.67 57.12-45.04 113.6-67.09 170.57-1.18 3.06-1.04 6.64-1.82 8.67-2.02 5.23-6.63 12.22-9.12 18.71-6.21 16.21-13.49 32.63-17.7 49.19 23.6 52.5 39.51 114.62 64.85 165.67 1.8 3.63 3.79 6.93 6.12 10.21l4.33 17.75c13.41 37.5 31.19 74.16 45.58 110.86 2.75 7.01 17.37 45.12 17.39 48.94.07 12.27-14.67 20.18-22.69 7.23-9.42-15.19-19.98-51.12-27.33-69.61-23.12-58.16-45.27-116.8-69.1-174.67l-30.73-82.54c-4.43-.92-3.07.53-4.3 2.46-4.55 7.14-6.05 18.71-9.12 26.34-25.69 63.84-50.35 128.04-74.86 191.95-.09.25-2.58 1.26-3.35 3.3-1.79 4.74-10.82 23.98-8.01 27.27 11.32 3.18 37.07 7.63 46.68.32 2.54-1.93-1.97-6.28 10.75-7.85 21.94-2.71 61.03-4.31 81.61 1.89 16.23 4.89 48.27 26.55 54.68 42.26-8.74 6.44-21.29 3.25-31.65 3.86-49.81 2.93-109.52 7.01-158.8-.56-6.75-1.04-13.29-2.95-19.7-5.25-2.04-.05-.5 2.62-.99 3.87-3.57 9.13-12.67 36.73-19.31 41.2-10.88 7.31-19.63-3.8-17.08-15.13 19.02-51.21 41-101.34 59.42-152.76 2.83-7.9 6.05-11.46 7.68-21.11 2.7-1.89 3.5-4.9 4.74-7.73 18.69-42.87 36.2-90.39 52.85-134.31 2.6-6.85 13.69-32.17 13.06-36.98-23.37-56.05-43.97-113.25-66.7-169.56-1.19-2.95-3.83-4.32-3.95-4.6-.52-1.29.18-4.8-.94-7.6-4.21-10.47-9.09-20.71-12.25-31.58-.31-.42-8.11-2.65-9.84-3.05 2.28-.53 8.93 2.06 7.6-2.78-1.02-3.71-10.42-24.92-12.7-25.7-36.62-2.95-76.84 2.86-113.01-.24-14.35-1.23-21.27-5-30.48-15.59-3.55-4.08-22.38-30.82-23.38-34.37-2.84-10.05 11.7-20.25 21.22-19.29 89.28.06 178.59.17 267.84.07 117.7-.13 235.49.05 353.19 0 105.43-.04 211.89-1.9 316.72-1.92 69.77-.01 140.88 1.91 211.15 1.92Zm-961.67 103.65c6.06 15.49 13.15 30.7 19.2 46.07.79 2 .62 5.61 1.82 8.67 16.19 41.18 33.68 81.91 48.11 123.77 2.77-.19 2.95-2.93 3.87-4.75 9.4-18.49 14.25-39.48 21.06-58.6 3.73-10.46 8.48-11.08 9.6-26.87 4.91 1.02 3.95-2.35 5.21-5.25 12.91-29.76 35.88-80.19 43.76-109.9.69-2.59 1.36-4.98.94-7.7h-167c2.9 12.05 8.97 23.12 13.44 34.55Zm1840.81-34.55h-167l83.48 211.16 83.52-211.16Zm341.67-408.85c6.65 21.6 38.27 132.26 34.15 146.46-.8 2.74-4.81 4.69-5.35 7.1l-255.29 42.23c10.08-45.89 21.89-91.73 28.79-138.2 3.42-.26 7.85 1.19 9.24-3.24l67.53-317.31-5.74-.02-67.07 313.98c-30.48 2.32-63.5 2.41-90.45-13.89 16.79-91.93 38.72-182.88 57.56-274.42.07-3.39-8.4-19.31-10.87-23.25-1.74-2.77-4.59-3.96-6.26-2.4-2.05 1.91 12.49 22.42 11.4 27.6l-57.3 265.34c-.31 3.27-1.03 7.49.75 10.38.34.56 9.98 7.39 10.58 7.64-5.05 52.51-10.9 105.04-17.28 157.4l-7.72-4.75c-26.7-95.61-51.53-192.27-74.83-288.94-4.95-.53-3.06 0-3.89 2.81-10.43 35.45-13.76 76.53-23.91 112.39-1.5 5.29-1.59 8.49-4.82 13.42-25.33-32.14-50.87-64.31-76.78-95.98l64.31-322.47c7.6-17.38 23.59-30.39 41.26-36.48 1.64 5.06 5.51 12.82 7.68 19.2 1.18 3.49 5.25 19.72 6.19 20.68.8.82 5.09 1.53 6.76 1.8 29.55 4.87 57.97-11.64 81.25-27.57-1.75-9.48-6.2-18.12-9.29-27.13-.74-2.16-.03-4.93-.46-6.18 14.19-3.43 31.99 1.22 46.43 4.44 59.01 13.14 129.11 47.81 130.3 117.43.17 10.01-4.2 20.09-1.59 30.27 2.88 11.22 19.09 37.25 24.82 50.03 33.66 75.13 65.61 152.87 89.88 231.64Zm-405.06-228.42-5.64 2.76c10.04 35.78 14.39 74.54 24.25 110.15.99 3.56 1.02 11.38 6.38 9.92l-24.99-122.83Z" class="cls-4"/><path d="M852.26 2101.86c22.06 16.82 50.58 31.63 71.02 49.91 45.39 40.58 65.7 123.58 94.97 176.64 25.76 46.68 73.3 87.77 117.49 116.69 6.83 4.47 35.19 22.9 40.91 23.4l11.52 19.2c-23.38-.16-52.38 2.27-74.86 0-12.2-1.23-33.18-10.41-44.83-15.63-55.66-24.93-106.47-65.66-142.31-114.86-52.14 53.67-98.41 113.38-143.77 172.92-12.97 17.03-27.7 34.9-37.63 53.55-22.21.97-46.15 8.29-69.1 9.6-40.63 2.31-80.71-3.62-120.93-7.68-.09-.55-3.35-1.38-3.79-3.33-1.32-5.87 7.39-54.73 9.55-63.86 36.91-155.86 134.56-310.36 266.21-402.74 8.17-5.73 19.63-9.64 25.56-13.79Zm24.66 153.88c-9.01-1.74-12.72.4-10.82 9.77 2.78 13.66 38.2 76.08 48.47 85.95 7.4 7.11 14.22 1.75 12.21-6.28-1-3.97-24.19-36.01-28.78-44.32-7.99-14.48-14.91-29.77-21.08-45.11Z" class="cls-4"/><path d="M2562.54 2581.73c38.27.1 76.64-.3 114.9.27l95.48 243.44-.09 7.73c-25.49 66.89-53.83 133.31-79.77 199.65-1.85-4.35-5.68-.63-7.96.69-23.88 13.75-47.03 28.84-71.37 41.87-49.54 26.53-101.2 48.86-152.93 70.69-26.18-.53-52.51.39-78.7 0v-320.56h144.92c8.21 0 22.23-15.31 24.94-23.05 7.97-22.75 5.41-56.77-12.67-73.75-2.18-2.05-5.74.56-1.71-4.94 83.96-17.95 52.64-87.66 24.95-142.04Z" class="cls-5"/><path d="M3242.04 2326.44c-1.58 6.93 10.12 62.53 11.51 75.83 9.05 86.69 5.79 182.62.01 269.68l-147.8 24.95c-2.92-35.8-5.74-71.7-9.6-107.49-1.98-18.33-3.07-38.33-6.02-56.37-.37-2.24-.59-8.94-3.56-8.88-21.57 48.02-46.18 94.69-69.13 142.03l-21.41 10.27-128.32 26.2c11.25-34.22 26.18-75.48 35.12-109.82.97-3.71 1.88-7.22 1.35-11.11 27.15-1.39 59.27 2.95 85.42 0 4.72-.53 13.37-3.19 17.02-6.02 5.36-4.15 17.35-43.56 16.73-50.64-.82-9.4-12.92-13.15-21.28-12.45.07-6.73 4.94-9.13 5.81-16.27.62-5.06.59-16.12 0-21.21-2.55-21.55-24.41-15.98-40.35-16.27 5.98-30.14 12.61-60.22 19.2-90.22l255.29-42.23ZM3080.8 2441.6l-5.78 2.88c4.53 20.99 4.37 43.86 8.27 64.77.6 3.21.25 8.58 5.19 7.21l-7.68-74.86Z" class="cls-6"/><path d="M570.09 2694.98c31.51 31.48 73.76 24.72 114.19 26.89 43.18 2.32 86.26 4.02 129.59 5.74 2.46.1 5.53 1.8 8.6 1.89 14.73.47 31.11-1.91 45.14 1.94-8.94.09-17.95-.06-26.88 0 4.56 30.98-13.17 52.74-43.96 55.84l13.25 93.89c6.03 88.5 23.84 177.07 26.95 265.77.49 14.06 4.4 41.94-17.47 34.74-7.59-2.5-7.6-11.33-8.91-17.95-21.82-110.27-35.09-228.46-52.4-340.14-1.97-12.74-4.92-25.46-5.78-38.37-9.57-.1-19.21.06-28.77-.02-58.22-.49-116.43-2.84-174.68-1.93l-59.98 390.15c-4.16 14.45-24.71 11.52-25.77-3.61 9.81-129.61 22.92-259.18 43.56-387.46-59.06-.99-63.91-81.6-4.9-87.43l68.21.07Zm1967.49 28.8c-4.03 5.49-.47 2.89 1.71 4.94 18.08 16.97 20.64 51 12.67 73.75-2.71 7.74-16.73 23.05-24.94 23.05H2382.1v320.56c26.19.39 52.52-.53 78.7 0 20.16.41 49.04-5.68 49.91 23.03-41.56.05-83.21-.04-124.77 0-55 .07-110.09-.05-165.09 0-3.37-9.58 9.85-23.03 18.24-23.03h110.37V2828.4c0-.2-2.68-2.88-2.88-2.88h-130.53c-7.57 0-21.14-12.77-24.33-19.82-4.8-10.62-5.08-43.56-3.05-55.54 1.47-8.64 8.06-17.43 14.9-22.53 3.14 2.1 4.31 3.41 8.54 3.93 26.26 3.19 65.31-.21 93.19-.09 34.48.15 69.19.61 103.65 0 6.75-.12 15.61-1.92 20.15-1.92h74.86c7.01 0 25.69-4.07 33.59-5.76Z" class="cls-3"/><path d="M3253.56 2671.95c-3.48 52.52-9.41 105.82-15.59 158.12-11.76 99.4-28.59 198.23-45.96 296.7-1.82.56-3.83-.12-5.63.11l-63.34-5.76h-9.61c-2.1-2.04 3.56-50.87 3.93-58.47 5.93-122.06-1.66-244.07-11.6-365.74l147.8-24.95Z" class="cls-8"/><path d="M867.62 2731.45c5.74-.06 11.53-.02 17.28 0 6.38 3.55 17.07 1.89 24.95 1.92 5.75.02 11.53-.02 17.28 0 6.38 3.55 17.07 1.89 24.95 1.92 5.1.02 10.26-.16 15.36 0 7.34 4.3 18.38.88 26.87 1.92 2.28.54 4.62.08 7.11 1.44 11.42 6.22 17.05 44.44 26.54 56.17 1.23 2.46.67 5.1.9 7.66 2.38 26.64-.43 61.96-1.94 89.24-1.92 34.64-3.94 80.72-9.58 114.23-1.62 9.65-4.85 13.21-7.68 21.11-3.87.44-6.34-1.26-9.48-2.99-45.97-25.36-98.73-65.09-139.24-98.79-17.22-14.33-33.02-30.95-50.92-44.1l-13.25-93.89c30.78-3.1 48.51-24.86 43.96-55.84 8.94-.05 17.95.1 26.88 0Z" class="cls-5"/><path d="M3017.46 2666.19c-23.44 48.37-45.75 97.46-69.1 145.88-.25.52.25 1.4 0 1.92l-1.92 1.92c-27.22 56.41-54.62 112.85-82.54 168.92-15.92-40.5-34.08-81.54-49.91-122.85 17.37-50.64 33.09-101.88 49.8-152.77 1.01-3.09 3.63-5.59 3.94-6.55l128.32-26.2 21.41-10.27Z" class="cls-8"/><path d="m675.67 2593.25-.17 10.66c44.16 39.04 89.27 77.12 133.23 116.38 2.47 2.2 5.33 2.97 5.15 7.33-43.33-1.72-86.41-3.42-129.59-5.74-40.43-2.17-82.68 4.59-114.19-26.89-20.96-20.93-25.36-49.15-23-77.71.57-6.94 7.91-30.09 7.65-31.7 40.22 4.06 80.3 9.98 120.93 7.68Z" class="cls-15"/><path d="M1134.43 2946.44c23.83 57.88 45.98 116.51 69.1 174.67l-132.45-55.67c13.28-49.98 24.34-100.93 34.55-151.64 8.83 11.16 19.53 21.75 28.79 32.63Z" class="cls-5"/><path d="M2848.54 3019.38c-10.26 11.83-24.39 59.47-34.55 67.18-2.53-.18-5.17.26-7.68 0-11.65-1.2-39.53-14.6-49.91-21.11-1.22-.77-3.93-4.12-5.84-5.2-1.55-6.34 20.42-65.72 24.16-77.34.89-2.75.32-6 .87-7.68 8.19-25.03 17.98-50.04 26.87-74.86 15.84 39.49 30.51 79.43 46.07 119.01Z" class="cls-8"/><path d="M2746.81 3109.6c.6 21.84 32.4 27.97 46.07 13.44-.61 23.99 19.69 63.51-16.53 68.89-24.64 3.66-54.36 3.76-79.45 4.05-14.68.17-29.45-.11-44.14-.02-.34-2.96 2.8-1.31 4.45-4.26 10.03-17.93 15.92-44.37 24.78-63.49.62-1.7 2.05-2.32 3.39-3.25 12.4-8.57 46.06-12.17 61.42-15.36Z" class="cls-12"/><path d="M1485.7 3050.09c-36.68 32.57-73.75 67.85-113.42 96.77-15.61 11.38-34.44 26.36-53.58 29.92-1.07-.6-2.87-1.73-3.84-1.92-4.32-11.99-8.12-24.92-13.44-36.47 9.82-2.77 39.35-16.29 36.47-28.79 3.76.05 5.33-2.59 7.71-4.76 24.37-22.25 56.17-56.71 90.19-60.5 11.07-1.23 41.48-.86 49.91 5.76Z" class="cls-4"/><path d="M3123.03 3171.02c.8.03 3.28 3.08 5.21 3.35 4.9.69 9.71.09 14.46.97 9.49 1.76 20.25 9.94 26.4-.49 15.12 14.13 42.36 76.68 8.68 80.66-17.2 2.03-63.4 1.95-80.7 0-31.82-3.57-9.44-40.28.56-55.19 3.06-4.56 21.97-29.44 25.39-29.31Z" class="cls-12"/><path d="M1105.63 2913.81c-10.22 50.71-21.27 101.66-34.55 151.64-.97 3.65-5.35 21.78-6.18 22.61-1.17 1.18-8.69 2.13-11.1 2.35-11.89 1.06-27.33-1-38.39-5.76 24.51-63.91 49.17-128.11 74.86-191.95 4.31 5.51 9.19 10.82 13.48 16.34 1.35 1.74 1.42 4.2 1.87 4.77Z" class="cls-8"/><path d="m3096.16 2589.41-3.83-2.86c-35.85 74.46-78.56 148.61-130.58 212.99-3.25 4.02-8.33 11.25-13.38 12.53 23.35-48.42 45.66-97.51 69.1-145.88 22.94-47.34 47.56-94.01 69.13-142.03 2.97-.06 3.19 6.64 3.56 8.88 2.95 18.04 4.04 38.04 6.02 56.37Zm-1827.37 504.83c-2.18 1.07-14.27 40.71-15.36 46.07l-17.28-5.76c-14.4-36.7-32.17-73.36-45.58-110.86l-4.33-17.75c18.93 26.65 54.83 55.63 77.78 80.59 2.18 2.37 4.81 3.95 4.76 7.71Z" class="cls-5"/><path d="M1274.55 3094.24c-.68 6.22 5.69 4.54 7.81 7.06 2.25 2.67 16.55 31.65 19.06 37.09 5.31 11.55 9.11 24.49 13.44 36.47-2.62-.51-6.6.13-9.6 0-2.09-3.22-7.9-1.88-11.52-1.92-29.26-.32-47.59 3.22-40.31-32.63 1.09-5.36 13.18-45 15.36-46.07.92-.45 4.07.23 5.76 0Z" class="cls-15"/><path d="M3186.38 3126.87c-1.97.25-6.88-.61-7.58.09-1.73 1.73-8.3 41.62-9.69 47.9-6.15 10.43-16.91 2.25-26.4.49-4.75-.88-9.56-.29-14.46-.97-1.92-.27-4.4-3.32-5.21-3.35v-49.91l63.34 5.76Zm-380.07-40.31v1.92c-3.94 9.87-13.17 24.16-13.44 34.55-13.67 14.53-45.47 8.4-46.07-13.44-.4-14.6 9.36-29.24 9.6-44.15 10.37 6.51 38.26 19.92 49.91 21.11Z" class="cls-10"/><path d="M1489.53 3061.61c-9.01 4.2-21.09 18.91-28.79 24.95-1.02.8-2.81 1.11-3.84 1.92-33.84 26.63-67.65 57.12-101.73 82.54-9.86 7.35-17.53 14.83-30.86 10.65-3.65-1.14-4.54-4.3-5.61-4.89 19.14-3.55 37.97-18.54 53.58-29.92 39.67-28.92 76.73-64.2 113.42-96.77 4.67 3.67 4.31 5.41 3.84 11.52Zm-291.76 90.21c3.87 9.49 1.75 12.53-8.53 13.55-58 5.73-125.41-4.55-184.43-.07-9.71 1.01-10.92-9.78-18.19-11.56.49-1.25-1.06-3.92.99-3.87 6.41 2.3 12.95 4.22 19.7 5.25 49.28 7.57 109 3.49 158.8.56 10.36-.61 22.92 2.58 31.65-3.86Z" class="cls-11"/><path d="M2650.83 3140.31c-3.03 8.09-15.04 37.66-15.28 43.37-.3 7.06 4.78 10.26 9.53 14.21-10.15-.46-36.68-1.38-44.68-4.27-3.33-1.2-7.08-6.28-6.75-9.83.97-10.37 45.48-39.78 57.19-43.49Z" class="cls-12"/><path d="M1053.81 3090.4v17.29l7.68-.01c-12.71 1.57-8.21 5.92-10.75 7.85-9.61 7.31-35.36 2.87-46.68-.32-2.81-3.3 6.22-22.54 8.01-27.27.77-2.04 3.26-3.05 3.35-3.3 11.06 4.75 26.5 6.82 38.39 5.76Z" class="cls-10"/><path d="M1059.09 679.04c-6.59 6.47-51.4 14.17-62.08 21.59-7.42.48-10.64-7.39-7.54-13.49s52.93-18.17 61.97-22.71c6.98-.78 13.4 8.95 7.65 14.6ZM582.98 1056c7.35-1.83 13.02 6.7 9.26 13.22-6.75 7.58-21.81 55.45-27.26 57.28-4.29 1.44-10.61-.25-11.88-4.96-1.47-5.45 18.87-51.51 23.25-58.59 1.52-2.45 3.7-6.2 6.64-6.93Zm-55.76 147.84c9.49-3.29 12.84.97 12.01 10.01-1.62 17.68-11.09 38.7-11.86 57.33-3.56 8.71-16.74 7.02-16.68-3.05s8.15-45.24 11.53-55.85c.95-3 1.47-7.22 5-8.44Zm245.79-391.56c5.91-1.93 12.83 1.48 12.16 8.21-.72 7.21-41.52 37.63-48.11 46.13-5.94 3.45-13.65-.49-12.99-7.36.82-8.56 41.1-38.8 48.94-46.98Zm140.15-73.76-52.74 30.76c-9.5 3.35-19.02-4.75-10.59-13.08 11.38-11.25 40.44-21.61 54.25-31.75 7.71-2.73 15.1 7.94 9.08 14.07ZM667.32 923.7c7.76-.71 9.67 6.57 7.31 12.93-4.65 12.52-29.17 34.7-35.29 49.16-9.37 7.61-16.33-1.07-12.08-12.08 1.76-4.55 28.84-41.56 33.05-45.62 1.85-1.79 4.37-4.15 7.01-4.39Zm513.17-284.51c11.07-1.03 45.39-8.84 33.26 11.67-23.11 3.11-46.47 6.73-69.73 7.53-15.62-18.48 24.87-18.12 36.47-19.2Zm-679.5 722.7c1.38-4.86 10.17-6 14.19-3.06 3.41 2.49 1.93 39.61.23 42.43-3.59 5.95-14.42 1.91-14.42-.97 0-8.46-1.7-32.38 0-38.39Z" class="cls-11"/><path d="M723.65 2785.2c9.57.08 19.21-.08 28.77.02.86 12.92 3.8 25.63 5.78 38.37-4.68-.41-7.67-4.49-10.58-7.66-8.28-9.05-17.55-20.26-23.97-30.73Z" class="cls-5"/><path d="M1305.26 3174.86c-3.64-.15-9.39 1.38-11.52-1.92 3.62.04 9.43-1.3 11.52 1.92Z" class="cls-2"/><path d="M2813.99 3086.56c-2.79 2.12-4.11 2.51-7.68 1.92v-1.92c2.51.26 5.15-.18 7.68 0Z" class="cls-11"/><path d="m2946.44 2815.91 1.92-1.92c-.61 1.27-1.84 1.76-1.92 1.92Z" class="cls-5"/><path d="M1838.88 1639.26c-33.47 23.84-63.87 38.39-101.73 53.75-12.43 1.26-31.06-5.17-42.83-1.56-3.59 1.1-13.62 16.17-14.76 20.76-31.11 8.51-62.49 17.19-95.03 19.18-26.38 1.61-54.21-1.3-80.68-.06-8.3.39-16.95 3.51-25.83 2 4.17-12 7.51-43.15 9.6-57.59 10.66-5.99 21.54-13.02 28.79-23.03 15.44-3.4 27.23-11.64 28.79-28.79 4.84-.96 9.42-7.72 12.49-11.5 149.05-182.98 57.88-457.34-161.81-529.25-226.9-74.27-460.26 90.49-445.81 332.56.5 8.3 2.7 34.99 8.92 39.06 5.28 3.46 14.44 1.92 17.08-3.63 3.89-8.16-2.76-41.4-2.96-52.71-3.48-199.6 184.65-342.31 376.69-303.76 225.64 45.29 337.19 314.23 191.56 498.5-6.37-28.69-21.94-57.19-32.63-84.46 8.44-5.86 17.63-17.43 19.02-28 3.19-24.24-13.92-67.28-43.88-47.73-1.93 1.26-16.03 14.48-17.37 16.23-14.68-13.71-25.83-26.17-47.99-19.2 17.93-100.99-76.78-184.35-175.09-153.02-40.46 12.9-74.38 48.88-84.59 90.09-24.83 100.22 71.66 189.48 169.46 158.9.81 3.39 9.79 10.27 7.76 16.25-24.2 3.9-25.39 42.06-2.06 48.11 7.3 1.89 18.8-.65 23.09.9 1.18.43 13.72 15.34 17.25 18.26 5.28 4.37 19.63 15.6 24.98 18.21-9.97 22.65-17.05 46.45-25.37 69.74-.89 2.48-3.13 4.3-3.43 5.12-80.42 20.7-161.33 6.24-233.55-32.3-9.67-5.16-35.83-28.78-42.03-10.03-4.4 13.31 18.24 23.27 28.59 29.23 70.94 40.89 156.77 55.32 237.39 39.98-1.64 4.63-2.68 12.21-3.84 17.28-4.6-3.03-98.21 15.42-108.35 19.3-7.67 2.93-18.12 12-24.97 17.25-50.84 39-112.44 108-129.65 170.76l-95.98-40.31c18.46-16 20.39-43.68 7.74-63.96-1.13-1.81-3.77-1.14-3.9-1.3-1.06-1.41-1.39-5.28-3.84-7.68l3.92-37.54-1.06-6.6c-29.46-21.81-57.9-45.74-82.55-72.93-4.95-5.46-27.65-36.28-29.74-37.44-5.86-3.24-22.41.38-29.82-1.05l-86.19 5.89c-4.99-.64-8.37-6.69-10.44-10.84l-52.11-124.47c.98-9.78 77.38-64.41 86.04-79.16.47-19-4.51-38.07-5.45-57.1-1.65-33.24.58-66.89 5.4-99.69-.93-4.94-66-57.34-75.42-66.39-5.16-4.95-13.25-10.74-12.54-18.19l52.72-127.92c39.69-5.4 80.55 6.81 120.79 3.71 31.32-40.69 67.11-79.18 110.29-107.56.21-37.88-4.07-75.94-7.2-113.72l2.89-6.75 130.93-53.54c4.97-.72 19.36 15.3 23.56 19.82 11.65 12.53 21.92 26.8 33.51 39.43 4.04 4.4 26.01 28.47 28.67 28.61 52.65-9.46 106.25-5.77 159.06-.23l74.31-83.09c8.29-3.57 15.47 1.17 22.96 3.89 38.65 13.98 77.09 35.05 116.17 48.91 4.07 4.15 3.16 16.23 2.98 22.13-.8 25.34-4.96 51.22-5.91 76.61-.18 4.95-.86 16.43 1.02 20.25 32.93 24.41 63.24 51.7 90.26 82.49 5.13 5.85 16.47 23.76 20.95 27.04 4.18 3.06 26.03 2.07 32.85 1.86 27.37-.83 55.16-4.27 82.55-5.57l7.5 3.68 56.32 131.08-9.18 11.84-78.52 67.45c8.71 51.25 10.58 103.78 1.7 155.15.34 3.67 8.5 10.64 11.5 13.5 20.88 19.87 46.55 37.68 67.24 57.53 2.35 2.25 8.53 7.55 9.25 10.05 3.14 10.82-25.97 62.63-28.48 77.31Z" class="cls-11"/><path d="M2188.23 917.52c4.97 1.21 17.54 5.69 23.03 7.68 26.88 9.73 58.87 27.5 80.62 46.07 4.01 3.42 13.56 13.15 17.28 17.28 20.38 22.62 42.61 64.13 47.99 94.06.96 5.35 1.71 18.84 1.92 24.95.91 26.47-5.05 66.99-13.44 92.14-1.36 4.09-7.49 18.43-9.6 23.03-4.91 10.73-13.25 20.99-19.2 30.71-4.26-6.84-14.18-5.77-21.11-5.76.21-1.87-.1-3.87 0-5.75-3.9-.61-8.94.85-11.51 3.84l-84.47-14.38c-4.68-3.89 4.88-33.25 4-42.29-.81-8.29-6.8-10.55-9.14-1.35-2.59 10.18-11.14 81.95-15.22 83.08l-92.88-14.51c-9.48-7.13-8.7-53.27-13.95-66.67-.93-2.36-2.36-3.8-4.32-5.3-2.96-.62-4.31 2.27-4.77 4.81-1.91 10.41 11.66 61.75 9.52 64.19-3.49.23-6.71 1.86-10.26 1.82-28.58-.34-68.01-12.3-98.13-15.12-5.81-.54-12.88-.83-18.21 1.88-32.49-69.56-52-158.78-13.44-230.34 4.44-8.24 14.71-18.61 17.28-26.87 23.42-23.27 49.47-45.32 80.62-57.59 46.79-18.43 108.67-21.51 157.4-9.6Zm126.46 113.52c-1.58-.96-5.96-.51-7.55.58-4.58 3.13 5.4 25.43 6.84 31.78 9.83 43.45 8.75 80.83-3.04 123.66-2.34 8.49-10.35 25.03-11.04 31.35-.92 8.4 6.43 8.01 10.92 1.16 20.73-31.64 23.23-106.47 16.94-143.08-1.11-6.47-9.69-43.39-13.07-45.44Zm-184.02 155.2-16.43-45.95c-1.9-3.48-5.3-4.82-9.12-3.69-2.94.87-29.12 37.42-28.22 40.98.55 2.16 3.17 3.35 5.79 1.99 4.99-2.58 20.64-27.14 24.9-24.03 3.4 7.04 15.56 41.82 20.5 43.87 1.62.67 4.51.81 6.07-.09 2.02-1.17 16.3-30.29 18.56-30.31 3.92 2.87 5.23 15.9 9.79 16.99 2.59.61 25.3-10.41 29.03-12.71 5.36-3.3 2.27-8.76-3.4-7.33-4.4 1.11-18.93 12.08-22.88 8.7-1.74-6.89-4.45-25.96-14.2-22.74l-20.41 34.32Zm-441.51 525.96c7.12 23.79 13.93 47.9 24.61 70.4 9.17 19.32 21.74 36.36 32.97 54.37-12.08 6.62-24.3 12.77-36.47 19.2-45.35.47-91.93 3.92-137.23 7.69-28.93 2.4-68.14 4.48-95.81 9.76-7.83 1.49-10.23 2.27-13.23 9.8-13.75 34.48-20.36 78.96-32.05 114.79v1.92c-13.29.33-18.51 1-26.86 12.49-6.64 9.14-9.44 20.61-9.61 31.66-39.33 15.82-77.63 30.72-120.93 28.79-22.83-1.01-35.77-4.34-51.83-21.11l3.83-88.29c-4.47-1.22-3.22 1.09-4.39 2.43-6.31 7.25-15.51 24.54-16.72 34.03-34.91-17.3-74.09-28.73-113.25-30.71.84-4.7.53-10.31 1.92-15.36 17.21-62.76 78.81-131.76 129.65-170.76 6.85-5.26 17.3-14.32 24.97-17.25 10.14-3.88 103.76-22.33 108.35-19.3 2.65 1.75 3.92 6.78 13.46 10.53 27.31 10.74 44.96 7.65 71-.93 1.69-.56 4.8.24 7.64-.91 9.74-3.92 25.26-11.87 28.83-22.13 8.88 1.51 17.53-1.61 25.83-2 26.47-1.24 54.3 1.67 80.68.06 32.54-1.99 63.92-10.66 95.03-19.18 2.53-.69 7.15.72 9.6 0Z" class="cls-14"/><path d="M2247.74 1347.49c20.06-33.82 47.43-58.65 69.1-94.06 5.95-9.72 14.28-19.98 19.2-30.71 158.64 9.58 263.5-164.56 176.64-300.44-74.9-117.17-247.01-119.5-324.44-4.76-48.72-11.91-110.61-8.83-157.4 9.6l11.78-40.04c15.32-1.31 31.5.83 46.74-.29 4.1-.3 18.97-2.05 21.27-3.68 3.43-2.44 20.11-28.99 25.83-35.6 9.43-10.91 21.36-19.83 30.36-31.2 1.36-12.62-11.63-57.24-6.43-65.81l71.1-36.41 3.85 1.75 42.05 40.54 5.84 1.99c28.32-5.26 57.3-9.9 86.08-6.21l36.83-49.59c3.43-3.55 8.27-1.94 12.55-1.09 7.37 1.47 66.96 20.05 69.18 22.94 5.72 7.44-1.44 54.12 2.71 66.39 15.62 10.27 31.19 21.05 45.13 33.57 4.68 4.21 18.97 21.75 21.09 23.04 8.78 5.34 54.87-9.85 67.84-6.38 5.05 8.93 38.4 67.97 37.34 73.33l-45.25 48.48c2.49 12.8 6.3 27.15 7.22 40.1.97 13.58-2.3 34 .06 46.01 1.82 9.26 50.55 34.78 51.84 44.29 1.75 12.92-21.92 59.61-23.98 75.77-5.89 6-57.8-2.8-69.18 5.68-8.91 16-21.18 31.71-33.52 45.18-3.41 3.72-20.31 17.92-20.8 19.5-4.08 13.19 11.08 60.16 6.37 67.82-3.54 5.75-59.29 27.19-68.17 35.65l-5.69-.1c-9.12-4.56-43.31-44.75-48.61-44.76-17.75 6.07-35.73 6.48-54.13 7.28-3.29.14-6.52 1.9-9.71 1.98-7.46.18-15.83-4.67-23.88-1-8.61 3.92-31.76 48.22-39.8 50.52-8.95 2.56-26.79-9.45-37-9.28Z" class="cls-11"/><path d="m2516.47 2266.93-5.63 4.64c28.88 42.46 53.21 87.66 71.87 135.55 1.1 2.83.41 6.21.94 7.61-26.45 9.57-53.7 16.86-80.62 24.95-16.93-23.3-31.44-48.27-48.34-71.63-7.93-10.96-24.81-36.08-34.19-41.63-3.89-6.47-6.56-11.68-12.5-17.24.04 3.4 7.31 15.6 9.11 16.82 1.36.92 2.97.17 3.38.41.72 1.2.76 4.03 2.21 6.34 22.77 36.21 51.17 70.86 63.05 112.67-67.38 19.39-122.5 33.2-193.87 17.28-18.21-21.04-39.61-39.16-58.57-59.48-61.84-66.26-92.29-95.76-59.96-190.54 10.95-32.11 28.18-76.06 43.95-105.78 3.72-7.01 5.69-13.82 15.08-14.67.45 1.34 5.54 5.77 7.91 6.46 17.52 5.1 55.26-2.61 72.24-9.9 2.45-1.05 4.03-4.14 4.32-4.23 5.72-1.92 14.19 5.65 18.99 8.85 11.62 7.74 24.79 18.66 35.67 27.67 50.28 41.65 95.73 91.41 134.28 144.05 3.06 2.4 7.06 2.05 10.69 1.78Z" class="cls-4"/><path d="M2284.21 1245.76c-4.8 5.58-9.32 20.78-16.48 26.78-2.93 7 3.94 10.61 9.73 5.8 3.13-2.6 17.82-26.7 18.27-30.67 6.94-.01 16.85-1.08 21.11 5.76-21.67 35.4-49.04 60.24-69.1 94.06-14.86 25.05-15.39 35.87-24.95 61.42-1.08 2.88-4.44 10.78-5.76 13.44-1.9 3.82-13.05 22.18-15.36 24.95-31.27 37.6-96.62 40.34-134.37 9.6-16.07-13.09-32.67-42.16-40.31-61.42-1.94-4.89-4.36-9.9-5.76-13.44-2.5-6.33-3.04-15.9-6.22-23.53-16.78-40.33-48.67-73.83-68.64-116.59 5.34-2.71 12.41-2.42 18.21-1.88 30.12 2.82 69.56 14.78 98.13 15.12 3.55.04 6.77-1.58 10.26-1.82 2.15-2.44-11.43-53.78-9.52-64.19.47-2.54 1.81-5.43 4.77-4.81 1.95 1.5 3.39 2.94 4.32 5.3 5.26 13.4 4.47 59.54 13.95 66.67l92.88 14.51c4.07-1.13 12.63-72.91 15.22-83.08 2.34-9.2 8.33-6.95 9.14 1.35.88 9.03-8.68 38.4-4 42.29l84.47 14.38Z" class="cls-14"/><path d="M1790.9 2184.39c1.54 9.33 13.23 18.39 20.1 25 96.83 93.11 196.94 183.06 293.79 276.31 7.47 7.2 19.92 16.96 22.02 26.92h-134.37c-2.1-9.97-14.55-19.73-22.02-26.92-95.6-92.05-194.12-181.11-289.95-272.47-6.53-6.22-14.33-13.06-18.18-21.17 4.43-4.76 7.5-6.9 14.35-7.72 32.34-3.87 80.03.16 114.26.04Zm72.44 121.33c-32.97 3.16-14.06 83.48 20.22 76.01 28.89-6.3 10.26-78.93-20.22-76.01Z" class="cls-6"/><path d="M1468.42 2282.29c-4.02 39.96-3.45 82.55-3.84 122.85-8.98 28.23-23.84 54.68-36.45 81.6-31.3 1.79-62.76.84-94.08.94-.62-4.94-10.22-8.98-14.35-11.56-9.17-5.75-34.84-24.07-43.1-26-17.67-4.13-38.59 4.98-55.8 8.77.17-27.77 1.43-55.78 3.85-83.49 2.15-24.63 9.07-54.07 9.59-77.75 78.29 18.85 158.08 6.98 234.18-15.36Z" class="cls-15"/><path d="M1403.16 2092.26c.09 1.24.07 2.59 0 3.84-1.01 18.81-16.56 47.13-18.77 66.77-.81 7.16 0 11.41 8.13 12.02 33.05-.39 65.92 1.56 98.94 1.83-5.46 32.87-16.93 64.62-21.11 97.89l-1.92 5.76c-.07.63.06 1.29 0 1.92-76.1 22.34-155.89 34.21-234.18 15.36.78-35.78-5.73-83.34-7.68-120.93-.29-5.64-1.69-10.92-1.92-17.28-.14-3.83.1-7.69 0-11.52 17.9.11 33.07-4.25 49.91-7.68 27.56-5.61 49.43-11.87 75.55-23.31 17.64-7.72 34.45-19.73 53.06-24.68Z" class="cls-14"/><path d="M1710.28 1856.16c13.83-.14 27.2 1.5 40.96 2.23 3.29 1.1 5.33 6.45 4.78 9.8-20.83 44.13-44.08 86.98-66.85 130.02l-183.81 43.66c-3.01.4-9.54 1.29-11.98.49-.64-.21-8.68-7.79-9.6-9.58 9 4.79 24.62-10.54 19.02-17.14-2.32-2.73-57.5-15.09-65.09-15.51-.11-2.67-3.47-1.98-5.76-1.92 11.69-35.83 18.3-80.31 32.05-114.79 3.01-7.53 5.4-8.31 13.23-9.8 27.67-5.28 66.89-7.36 95.81-9.76 45.3-3.76 91.89-7.22 137.23-7.69Zm-9.61 19.2c-16.93.42-34-.57-50.94-.09-36.52 1.03-80.57 3.35-116.77 7.99-16.13 2.07-39.66 3.12-47.68 19.5-4.14 8.45-14.58 44.68-16.41 54.62-1.42 7.69-.61 6.67 7.12 6.16 4.82-14.17 10.83-53.8 20.15-63.36 6.13-6.29 25.67-7.96 34.91-9.23 36.04-4.97 74.75-6.59 111.01-8 8.81-.34 55.14 1.88 57.77-1.73 1.37-1.88.83-3.81.84-5.86Zm-109.93 50.35c-28.53 5.93-19.3 51.6 10.58 47.18 29.5-4.36 25.94-54.77-10.58-47.18Z" class="cls-12"/><path d="M1662.29 2192.07c3.85 8.11 11.66 14.94 18.18 21.17 95.82 91.36 194.35 180.42 289.95 272.47 7.47 7.2 19.92 16.96 22.02 26.92-70.26-.01-141.37-1.93-211.15-1.92-8.12-4.78-11.7-11.78-15.68-19.83-41.52-83.99-66.99-185.27-107.25-270.89-2.92-11.29-4.38-18.99 3.93-27.92Z" class="cls-8"/><path d="m1900.31 2184.39 4.51 8.93c59.85 54.22 116.82 111.69 175.89 166.73 6.86 6.4 20.5 20.39 26.99 24.84 3 2.06 5.81 3.18 9.5 2.96 12.4 26.34 26.03 52.34 38.39 78.7 2.64 5.63 5.04 11.59 7.68 17.28 4.24 9.13 9.72 18.77 11.52 28.79h-47.99c-2.1-9.97-14.55-19.73-22.02-26.92-96.84-93.25-196.96-183.2-293.79-276.31-6.87-6.61-18.56-15.68-20.1-25 36.44-.13 72.98-.2 109.41 0Zm-211.15-186.19c-26.61 50.29-51.99 102.14-83.66 149.56-3.11 4.65-16.22 25.24-18.9 27.17-2.18 1.57-3.35 1.55-5.8 1.88-23.49 3.21-63.96.11-89.35-.1-33.03-.27-65.89-2.22-98.94-1.83-8.13-.61-8.93-4.86-8.13-12.02 2.22-19.64 17.76-47.96 18.77-66.77 9.78.65 19.95-.32 28.75-4.93 2.38-1.24 3.09-4.11 3.89-4.67s3.08-.48 4.79-1.85c4.07-3.27 12.05-14 15.78-15.1 8.81-2.59 14.49 8.53 25.42.56 9.66-7.05-3.36-8.3-3.75-16.23 8.22.6 14.51-2.81 15.35-11.53 2.44.8 8.97-.09 11.98-.49l183.81-43.66Z" class="cls-15"/><path d="M2881.17 1568.23c-10.97-5.17-32.34 3.43-34.43 16.42-2.43 15.09 4.74 24.01 7.07 36.85 5.24 28.88 8.49 58.42 13.6 87.34-.66 3.01-2.47 5.02-4.49 7.18-4.61 4.91-28.78 21.11-35.5 24.96-6.11 3.5-40.52 19.65-45.12 19.38-9.83-.57-17.75-21.65-21.79-30.21-7.39-15.62-23.11-45.11-15.63-60.19 27.43-14.84 84.39 20.17 78.2-31.18-1.45-12.04-17.28-68.89-22.44-79.29-5.92-11.96-29.26-13.93-41.2-12.21-12.49 1.8-31.37 20.61-47.19 24.79-16.84 4.44-35.99 2.87-44.49-14.06-17.62-35.11-4.12-85.11 41.69-81.99 21.88 1.49 23.9 19.16 33.02 20.9 7.29 1.39 10.36-4.46 15.3-5.1 4.02-.52 8.21 2.32 12.93 1.61 4.43-.67 16.66-19.71 28.44-23.54 17.42-5.66 45.18.17 48.95 21.05 1.4 7.75-1.35 19.15 1.44 25.43 3.85 8.68 25.4 5.07 32.6 21.14 4.44 9.9 4.03 21.19-.97 30.72Z" class="cls-14"/><path d="M2426.25 1927.18c3.08-.11 7.96 1.19 9.6-1.92 2.52-.23 5.17.28 7.68 0v3.84c-.91.37-2.86 1.38-3.84 1.92-.77.42-1.36 1.25-1.92 1.92-10.18 3.38-20.43 7.58-30.71 9.6l-100.35-19.62-14.08-18.68c-4.78-.82-27.81 28.6-37.21 26.78-1.02-9.63.74-16.25-3.47-26.29-8.76-20.88-35.38-13.07-34.77 5.94.19 5.9 10.19 33.67-1.14 33.79-1.57.02-15.02-19.49-20.1-24.02-18.62-16.59-41.26-26.66-65.29-14.37 1.23-2.91 1.7-6.06 3.95-8.52 17.92-19.64 46.2-38.25 65.23-57.63 9.68-9.86 4.58-12.15-5.76-17.42-7.74-3.95-18.35-7.05-26.95-8.56 46.31-31.26 121.46-16.74 166.84 10.71 26.46 16.01 61.41 50.66 71.25 80.39 1.72 5.2 3.54 20.47 4.65 22.23 1.7 2.7 12.23.35 16.39-.08Z" class="cls-15"/><path d="M2725.69 2117.21c25.91 31.66 51.45 63.84 76.78 95.98-3.62 5.53-22.76 17.95-29.43 21.44-37.16 19.46-73.55 8.27-95.67-25.91-31.34-48.45-60.69-116.01-87.97-168.28 7.01 1.58 6.98-3.32 7.68-8.62v-68.16c40.04 51.34 86.91 102.61 128.61 153.56Zm-124.76 341.67c.5 1.92-1.06 5.68.4 7.33.8.9 3.23.12 3.44.35.22.25-.12 1.23 0 1.92 4.13 23.96-15.91 31.5-30.71 44.15-62.67-.04-125.44.03-188.11 0 6.71-10.56 6.08-24.16-6.76-28.75-48.29-.08-96.61-.04-144.88-.04h-71.02c-2.64-5.69-5.04-11.64-7.68-17.28 16.69-9.73 28.2-27.93 43.44-39.92 31.63 9.55 60.79 28.93 92.84 36.08 71.37 15.93 126.49 2.11 193.87-17.28 5.86-1.69 11.55-4.04 17.28-5.76 26.92-8.09 54.17-15.38 80.62-24.95 5.31 14.11 13.24 28.59 17.28 44.15ZM1860 1742.91c-.06 4.17-2.46 6.61-4.76 9.64-23.46 31-74.39 65.72-108.49 84.41-11.23-18.01-23.8-35.05-32.97-54.37-10.68-22.5-17.49-46.61-24.61-70.4 14.98-4.39 32.96-13.1 47.99-19.2 37.87-15.36 68.26-29.9 101.73-53.75 5.8-4.13 13.95-9.11 19.2-13.44 2.7 30.08 2.9 62.72 2.01 93.19-.16 5.47-1.75 9.97-2.08 15.22-.18 2.9 2.02 6.27 1.99 8.68Zm395.42 188.11c1.08 10.13 6.35 12.61 7.55 20.28.96 6.16.97 23.37.12 29.63-2.84 20.95-15.89 46.04-28 63.18-3.24 4.6-9.92 7.62-10.39 13.6-12.87 8.61-19.11 12.86-35.6 11.59-41.7-3.22-77.7-82.84-81.49-119.08-.88-8.4-.34-18.77 1.92-26.87 7.78-6.03 12.15-12.69 21.11-17.28 24.02-12.28 46.67-2.22 65.29 14.37 5.08 4.53 18.54 24.04 20.1 24.02 11.32-.12 1.32-27.89 1.14-33.79-.6-19.01 26.02-26.82 34.77-5.94 4.21 10.03 2.44 16.66 3.47 26.29Z" class="cls-10"/><path d="M1464.58 2512.63c-117.7.05-235.49-.13-353.19 0-7.37-10-2.41-15.63 1.92-24.95 22.48 2.27 51.48-.16 74.86 0 48.58.34 97.3.15 145.88 0 31.32-.1 62.78.86 94.08-.94 12.6-26.92 27.47-53.37 36.45-81.6 5.99-8.11 10.76-18.91 15.08-28.1 26.27-55.87 51.3-112.38 77.33-168.37 7.16-13.98 28.68-10.4 28.62 5.48-.01 4.1-7.16 18.33-9.37 23.37-35.81 81.65-78.36 160.87-111.67 243.43v31.68Z" class="cls-8"/><path d="M2597.09 1963.65v68.16c-.7 5.3-.66 10.19-7.68 8.62-11.25-21.57-21.82-43.65-34.57-64.42-2.46-1.24-46.24 11.47-53.73 12.59-12.44 1.86-32.23 3.32-45.03 3.92-10.08.47-80.52.08-83.41-4.1.59-9.14 4.62-23.53 10.51-30.41 6.75-7.89 16.86-8.83 23.88-15.47 10.28-2.01 20.53-6.22 30.71-9.6.77-.25 1.43-1.24 1.92-1.92.98-.54 2.92-1.55 3.84-1.92 2.23-.9 6.7.8 7.68-3.84 4.24-.52 43.88-14.06 44.25-16.39s-.29-4.45-1.16-6.55c-7.06-17.17-35.57-10.59-37.3-41.4-.18-3.12-1.69-7.42 2.61-6.47 11.99 2.65 61.63 27.88 74.18 35.26 35.73 21.02 40.22 44.33 63.31 73.94Z" class="cls-13"/><path d="M1900.31 2184.39c28.95.16 67.2-3.08 94.8.21 24.96 2.98 36.68 21.32 46.97 41.33 26.79 52.06 50.08 108.73 75.13 161.93-3.7.22-6.5-.9-9.5-2.96-6.49-4.45-20.13-18.45-26.99-24.84-59.08-55.04-116.05-112.5-175.89-166.73l-4.51-8.93ZM998.14 1840.8c2.45 2.4 2.78 6.27 3.84 7.68l-159.32 163.16c-8.48-7.42-17.76-11.29-23.37-23.66-8.75-19.31-2.73-43.8 21.43-37.77-2.63-29.4 14.51-48.58 38.37-62.41 23.83-13.82 55.87-18.08 75.9-35.43 3.36-2.91 14.15-16.98 15.3-16.98.88 0 4.72 4.89 6.7 3.49.27-.19.64-4.23 2.81-5.96 4.04-3.22 14.95 4.56 18.34 7.89Zm1168.98-26.87c8.6 1.51 19.21 4.61 26.95 8.56 10.33 5.28 15.43 7.57 5.76 17.42-19.03 19.38-47.31 37.99-65.23 57.63-2.24 2.46-2.71 5.61-3.95 8.52-8.96 4.58-13.33 11.24-21.11 17.28-.9.7-4.92.9-7.56 2.95-6.2 4.8-10.83 11.78-17.39 16.25-37.04-18.26-35.41-55.52-16.16-88.14 20.85-35.31 59.52-47.35 98.69-40.47Z" class="cls-12"/><path d="m2744.89 1669.97-32.63-97.89c15.83-4.17 34.71-22.99 47.19-24.79 11.95-1.72 35.28.25 41.2 12.21 5.15 10.4 20.99 67.25 22.44 79.29 6.18 51.35-50.77 16.34-78.2 31.18Z" class="cls-10"/><path d="M1963.65 1531.76c-11.94 70-45.35 141.95-89.46 197.51-3.72 4.69-8.27 12.56-14.2 13.63.03-2.4-2.17-5.78-1.99-8.68.33-5.25 1.92-9.76 2.08-15.22.89-30.47.69-63.11-2.01-93.19 34.56-28.51 63.13-64.34 76.78-107.49 1.26 8.14 10.36 20.44 19.73 18.91 3.41-.56 6.16-4.38 9.07-5.47Z" class="cls-13"/><path d="M2201.67 1447.31c6-1.31 16.77 4.37 17.37 10.66.6 6.3-7.74 9.94-7.74 11.41 0 1.24 7.3 5.07 7.75 9.7.65 6.78-7.81 8.5-7.8 13.32 0 1.53 6.13 1.65 7.46 6.17 2.36 8.04-7.54 9.94-7.47 14.95.02 1.11 7.11 1.99 7.51 9.64.52 9.88-18.31 13.71-24.75 16.29-1.2.48-3.87 1.26-5.76 1.92h-1.92c.61-7.54.35-4.74-4.64-5.83s-20.31-1.11-20.31-7.61c11.7-1.92 25.36-4.58 36.42-8.72 2.51-.94 10.77-2.77 6.74-6.67-29.89 12.83-64.62 15.71-96.9 15.39 1.42-5.24-6.01-4.62-9.2-5.17-16.05-2.74-32.35-3.76-48.39-6.35-1.62-7.42 6.6-9.34 7.68-11.52l1.91-.97-1.91-2.87c-.7-1.1-6.81-.75-7.31-7.12-.61-7.65 7.27-12.02 7.27-13.03.01-2.51-21.57-15.55 9.64-23.99 37.74 30.74 103.09 28 134.37-9.6Zm3.83 23.04c-42.6 14.15-87.46 19.67-131.94 11.94-3.86-.67-3.39 2.45-2.41 3.39s23.96 3.72 27.75 3.94c27.21 1.57 65.17-2.75 91.25-10.64 1.74-.53 19.83-4.97 15.35-8.63Zm0 21.11c-36.3 12.93-75.61 17.51-114.17 15.32-7.18-.41-15.84-3.25-23.1-3.79-2.13-.16-7.15-1.42-6.67 1.87 39.2 8.76 103.29 8.6 140.12-8.69 2.85-1.34 4.76.31 3.82-4.71Z" class="cls-12"/><path d="M2881.17 1568.23c5.99 2.83 11.08 17.17 11.59 23.91 1.29 17.22-4.88 25.32-9.36 39.89 10.57 26.33 19.08 53.44 28.49 80.17-4.65 1.29-9.76 7.06-13.36 10.55-15.98 15.51-34.25 37.53-50.88 50.95-2.85 2.3-4.33 4.51-8.71 3.76-2.16-6.37-6.04-14.13-7.68-19.2-1.42-4.38-1.25-12.31-3.84-17.28 6.72-3.86 30.89-20.05 35.5-24.96 2.02-2.16 3.83-4.17 4.49-7.18-5.11-28.92-8.37-58.46-13.6-87.34-2.33-12.85-9.51-21.77-7.07-36.85 2.1-12.99 23.47-21.59 34.43-16.42Z" class="cls-13"/><path d="M1001.98 1848.48c.12.16 2.77-.5 3.9 1.3 12.65 20.28 10.72 47.96-7.74 63.96-1.91 1.66-6.82 3.82-9.6 5.76-8.2 5.73-17.96 11.73-26.83 16.36-10.3 5.37-53.68 21.84-57.75 28.62-8.41 14.02 14.04 44.81 11.63 47.15-1.74 1.69-4.48.28-6.24-2.42-6.07-9.29-12.15-24.58-26.48-19.79-8.74 2.93-7.36 11.74-5.66 18.38 4.96 19.35 24.5 23.64 26.5 30.11 4.51 14.55-2.85 13.59-13.07 14.04-2.95.13-6.77.32-9.6 0-9.68-1.11-36.97-8.53-34.28-21.63.66-3.22 6.95-8.89 5.48-10.97-.26-.37-6.04-1.98-8.24-3.84-1.68-1.42-1.19-3.74-1.35-3.87l159.32-163.16Z" class="cls-15"/><path d="M2050.03 1516.41c16.04 2.59 32.33 3.62 48.39 6.35 3.18.54 10.62-.08 9.2 5.17-14.65-.15-27.83-.31-42.22-3.83-.9 5.45 1.11 3.21 4.43 4.1 25.74 6.88 65.19 4.06 91.54-.27 0 6.5 15.42 6.54 20.31 7.61s5.24-1.71 4.64 5.83c-37.1 8.22-75.48 10.23-113.24 5.77-.94 5.92 1.54 3.05 4.8 3.76 34.18 7.43 78.36 1.72 110.36-9.53 1.88-.66 4.56-1.44 5.76-1.92 13.06 61.21-85.19 81.09-115.16 41.26-9.15-12.16-5.77-27.51-8.57-31.74-3.01-4.54-36.17-6.17-12.56-23.93 1-4.06-6.82-4.71-7.68-8.62Z" class="cls-6"/><path d="m2027 1395.48-30.52 31.95c11.16 19.68 22.42 33.7 12.99 57.06-9.69 24.02-22.29 38.4-45.82 47.28-2.9 1.09-5.66 4.91-9.07 5.47-9.37 1.53-18.47-10.77-19.73-18.91-1.21-7.86-.88-44.75 2.16-50.63 3.05-5.91 19.11-22.95 24.66-29.08 18.35-20.25 39.47-38.15 59.56-56.57 1.4 3.53 3.82 8.55 5.76 13.44Z" class="cls-10"/><path d="M2316.84 2084.58c-.29.1-1.86 3.18-4.32 4.23-16.98 7.29-54.72 15-72.24 9.9-2.36-.69-7.46-5.12-7.91-6.46-.54-1.61.39-5.35-.46-8.08-1.87-6.02-7.62-21.33-7.22-26.47.48-5.97 7.15-9 10.39-13.6 12.1-17.14 25.16-42.23 28-63.18l53.75 103.65Z" class="cls-13"/><path d="M2911.89 1712.2c3.12 8.88 8.67 18.69 11.52 26.87.44 1.25-.28 4.02.46 6.18 3.08 9.01 7.53 17.65 9.29 27.13-23.29 15.93-51.7 32.43-81.25 27.57-1.67-.27-5.96-.98-6.76-1.8-.94-.96-5.01-17.2-6.19-20.68 4.38.75 5.86-1.46 8.71-3.76 16.62-13.42 34.89-35.44 50.88-50.95 3.59-3.49 8.71-9.26 13.36-10.55Z" class="cls-10"/><path d="M877.21 2007.8c4.35-.72 5.86 1.4 8.71 3.76 20.92 17.34 40.25 43.53 61.35 61.5l14.4 7.68c-3.8 2.56-18.27 23.67-21.11 28.79l-71.02-26.87c3.36-3.99 7.86-12.5 11.52-17.28 3.17-4.14 7.97-7.69 9.6-13.44 10.22-.45 17.57.51 13.07-14.04-2.01-6.47-21.55-10.76-26.5-30.11Z" class="cls-13"/><path d="M940.56 2109.53c-6.91 12.42-12.19 28.82-17.28 42.23-20.44-18.27-48.96-33.09-71.02-49.91 1.06-.74 15.09-16.59 17.28-19.2l71.02 26.87Z" class="cls-10"/><path d="M1876.72 1902.58c6.03-1.81 12.29 1.46 11.66 8-.79 8.26-39.44 42.38-46.5 51.25-9.33 5.77-19.14-2.25-11.51-11.51 10.2-6.15 38.95-45.51 46.36-47.74Zm93.97-138.3c7.42-2.49 14.69 3.34 11.33 11.3-6.9 9.66-28.53 56.17-37.49 58.71-7.39 2.1-12.27-6.1-8.8-12.76 6.6-6.4 31.17-55.97 34.96-57.25Zm63.4-157.41c3.08-.77 8.94 1.83 9.94 4.9 2.05 6.28-17.56 68.16-22.78 70.69-10.34 5.02-12.4-2.16-11.08-11.06 1.2-8.1 14.24-48.96 17.79-57.09 1.16-2.66 3.13-6.68 6.14-7.43Zm-272.55 423.43-55.03 36.2c-7.02 3-12.89-2.36-11.69-9.69.78-4.76 20.61-14.59 26.06-18.25 6.72-4.52 30.46-23.56 35.98-22.75 7.99 1.18 9.05 8.55 4.68 14.49Zm251.35-1242.88c7.75-.71 9.68 6.58 7.31 12.94-2.49 6.68-15.65 23.27-20.41 31.42-3.49 5.98-10.27 25.41-16.04 26.35-20.08 3.26-4.1-23.11.02-30.86s22.04-39.2 29.13-39.85Zm119.17-113.39c6.46-1.31 11.65 3.25 9.83 9.86s-48.77 33.24-55.47 42.62c-8.83 4.23-15.14-6.15-9.65-13.56 12.94-7.2 42.57-36.34 55.29-38.92Zm259.09-57.52c4.94-1.46 26.84 2.9 33.53 4.1 12.47 2.24 57 8.35 31.45 24.22l-66.92-13.69c-5.89-2.41-4.07-12.84 1.95-14.63ZM747.91 1946.6c2.6-.87 5.87-.5 8.34.77 6.84 9.04 51.83 41.76 53.56 48.34 1.9 7.23-7.01 9.46-13.13 7.22-4.33-1.58-26.02-20.39-30.83-24.85-4.32-4.02-31.25-27-17.94-31.48Zm1839.11-598.71c10.34-2.6 16.05 5.68 8.22 14.08-4.91 5.27-47.63 32.09-54.44 34.01-9.34 2.64-14.37-5.11-8.94-12.97l55.17-35.12ZM2221.2 633.75c2.54-4.17 65.93-17.82 73.29-15.39 5.64 1.86 4.28 11.98-2.14 14.58-16.25 6.58-43.88 5.3-61.13 13.82-8.82 3.58-13.74-6.91-10.02-13.01Zm153.71 794.83c4.4-4.32 57.62-6.84 67.76-12.07 7.05-.21 11.36 6.95 6.78 12.74-4.99 6.32-65.16 15.16-73.1 11.34-4.48-2.15-4.75-8.77-1.45-12.01Zm373.17-357.22c2.6-.85 7.69-.92 9.4 1.53 4.21 6.02-7.67 68.7-13.38 73.22-7.32 5.79-14.86-2.28-12.52-10.46 7.16-17.49 6.44-40.3 11.92-57.31.86-2.67 1.49-5.97 4.58-6.97Zm-54.46 155.79c6.72-5.74 13.71-.8 12.88 7.85-.68 7.02-33.32 54.55-39.74 56.47-6.07 1.82-10.3.33-10.3-6.33 0-7.62 14.15-21.98 18.98-29.19 3.63-5.4 15.47-26.49 18.18-28.81ZM1611.84 712.46c3.96-1.16 6.14.08 9.61 1.18 5.87 1.85 47.65 23.97 51.17 27.5 6.69 6.71 2.55 16.8-6.5 14.35-14.31-11.46-42.62-18.45-55.59-29.02-5.52-4.5-5.49-12.01 1.3-14.01Zm136.29 82.49c3.68-1.02 5.85.35 8.91 1.92 5.52 2.83 47.98 37.99 48.94 41.4 2.43 8.65-7.29 13.1-13.88 7.96-10.93-13.9-36.14-25.55-46.45-37.98-3.93-4.74-3.91-11.54 2.48-13.31Zm-288.07-136.29c3.92-1.31 8.39.04 12.3.6 8.55 1.24 46.59 12.05 53.12 15.97 6.1 3.66 6.28 12.02.49 14.93-4.97 2.5-53.54-16.7-63.78-16.9-5.88-1.07-7.97-12.64-2.13-14.6Zm-157.4-23.03c6.63-2.18 58.33 1.56 66.5 3.97 6.41 1.89 8.26 13.47.41 14.94-10.39 1.96-32.55-2.73-44.17-3.81-6.37-.6-15.09 1.25-20.71-.41-6.25-1.85-7.51-12.89-2.03-14.69Zm914.37 786.72c1.32-2.66 4.68-10.56 5.76-13.44 16.21 6.68 45.56 7.41 59.97 13.93 7.33 3.31 7.16 12.35.1 14.48-12.12 3.65-52.39-10.5-65.82-14.98Zm-266.81-437.64c-2.56 8.26-12.83 18.63-17.28 26.87 1.36-14.52 1.28-56.02 8.73-67.08 4.63-6.86 13.21-4.47 14.32 2.89.49 3.27-4.46 33.04-5.78 37.31Zm-68.56-44.74c-2.03-1.66-20.28-24.39-20.85-26.19-2.72-8.55 4.4-14.16 11.73-9.83 3.8 2.25 22.14 24.78 23.13 28.93 2.23 9.33-7.49 12.43-14.01 7.09Zm668.85-271.66c5.34-.77 34.58 17.8 35.15 23.77 1.9 20.06-30.8-2.61-36.61-7.73-6.58-5.8-9.27-14.51 1.46-16.04ZM657.84 1842.99c8.51-2.4 29.49 26.28 29.48 33.36 0 6-2.89 7.63-8.69 6.72s-36.98-35.52-20.79-40.08Zm2084.43-904.14c14.26-4.75 16.76 25.72 16.22 35.35-.68 12.24-11.76 14.4-15.07 5.25-2.15-5.92-7.56-38.47-1.15-40.61Z" class="cls-11"/><path d="M2109.53 1923.34c-2.26 8.11-2.8 18.47-1.92 26.87-8.74.69-15.92-4.17-23.03-7.68 6.56-4.47 11.19-11.45 17.39-16.25 2.64-2.05 6.66-2.25 7.56-2.95Z" class="cls-15"/><path d="M890.65 2051.95c-1.62 5.75-6.43 9.3-9.6 13.44v-13.44c2.82.32 6.65.13 9.6 0Z" class="cls-11"/><path d="M2451.21 1925.26c-.98 4.64-5.45 2.94-7.68 3.84v-3.84c2.5-.28 5.18.3 7.68 0Zm-15.36 0c-1.64 3.11-6.52 1.81-9.6 1.92 2.08-.22 5.44-1.55 9.6-1.92Z" class="cls-8"/><path d="m1468.42 2280.37 1.92-5.76c-.45 3.58-1.89 5.46-1.92 5.76Z" class="cls-3"/><path d="M2057.71 1504.89c.16-.32.13-3.63 0-3.84l1.91 2.87-1.91.97Z" class="cls-6"/><path d="M2071.14 2614.36c39.84 34.18 80.3 70.79 120.93 103.65-6.96-2.64-12.48-.16-19.2 0 1.08-6.2-3.14-3.27-6.72-3.75-23.26-3.1-46.73-5.29-70.07-7.78-.19 32.31-.95 71.22-12.49 101.72-5.08 13.41-26.13 41.19-25.89 51.85-4.14-.07-5.21 2.43-7.37 5.1-15.6 19.26-30.53 45.05-45.62 65.71-37.39 51.19-76.97 100.84-116.42 150.44-1.57 2.46-1.39 4.86-1.08 7.61.45 3.98 9.22 31.71 11.17 36.03-33.21 14.3-70.46 21.46-106.55 24.94-10.54 1.01-57.09 8.69-41.25-9.58.75-.4 3.4.1 5.58-1.06 31.14-16.55 61.6-38.43 92.27-56.11 38.19-124.16 77-251.34 130.84-369.65 5.78-12.71 26.24-46.22 26.6-56.9 10.71-5 15.77-22.83 24.99-29.72 7.56-5.65 30.41-10.38 40.28-12.51Z" class="cls-10"/><path d="m1466.5 2581.73 1.84 106.61c5.69 88.69 9.33 178.18 21.47 266.46 1.99 14.5 17.82 93.6 16.23 99.26-.5 1.78-2.94 3.23-3.07 3.71-3.45 2.95-10.58 2.51-13.44 3.84.47-6.11.83-7.85-3.84-11.52-8.42-6.62-38.84-6.99-49.91-5.76-38.57-151.95-72.14-305.97-86.38-462.6 39-.07 78.09.03 117.09 0Z" class="cls-6"/><path d="M2057.71 2860.06c-.24-10.66 20.81-38.44 25.89-51.85 11.55-30.5 12.3-69.41 12.49-101.72 23.33 2.49 46.81 4.68 70.07 7.78 3.58.48 7.8-2.45 6.72 3.75-17.37.41-34.65-.36-51.82 2.87 20.08 24.08 35.37 57.02 38.13 88.55 4.72 53.89-.87 113.76 2.63 168.21 2.07 13.35 14.27 30.26 28.33 32.13-8.43 34.91-12.56 75.71-26.53 108.8-11.65 27.59-23.8 27.63-52.92 25.35-4.44-.35-8.63-3.34-10.77-3.63 4.23-7.29 12.94-11.21 16.32-19.19 3.66-8.64 16.83-72.93 16.15-81.32-1.23-15.43-24.62-52.95-32.2-69.63-12.15-26.75-25.5-56.42-34.86-84.15-2.42-7.16-7.48-18.93-7.64-25.95Z" class="cls-13"/><path d="m2301.48 2581.73 5.47 6.95c-.52 47.42 2.57 95.7-1.63 142.77-27.88-.12-66.94 3.28-93.19.09-4.23-.51-5.4-1.82-8.54-3.93-1.34-.9-3.62-4.12-5.76-5.76 5.3-2.89 5.39-6.91 5.83-12.39 2.58-31.86 1.78-81.07 0-113.4-.27-4.88-2.21-9.41-2-14.33 33.24.01 66.57-.02 99.81 0Z" class="cls-15"/><path d="M2201.67 2581.73c-.21 4.92 1.73 9.44 2 14.33 1.78 32.34 2.57 81.54 0 113.4-.44 5.48-.53 9.5-5.83 12.39-1.82-1.39-3.99-2.41-5.76-3.84-40.63-32.86-81.09-69.48-120.93-103.65-9.62-8.25-19.16-16.71-28.79-24.95-2.78-2.38-6.22-3.88-7.68-7.68 55.64.01 111.36-.02 167 0Zm-692.94 502.91 149.2 70.37c10.25 9.97 8.59 18.41-6.22 19.82-53.45 5.08-118.15-8.68-172.71-5.75-46.23-3.84-20.85-51.21-22.1-80.6 1.03-.81 2.82-1.12 3.84-1.92-1.46 9.22 12.02 10.9 18.25 11.49 10.42.99 31.2 1.69 29.73-13.41Z" class="cls-12"/><path d="M2190.15 3009.78c8.91 1.19 37.74-2.05 37.72 12.05-.03 25.08-17.89 66.95-28.39 90.37-5.44 12.13-18.6 41.67-25.76 51.02-3.09 4.04-4.53 4.48-8.91 6.44-19.81 8.91-83.09 10.48-102.45 1.49-9.29-4.31-3.06-8.87 2.11-13.53 6.29-5.67 27.37-18.41 35.46-17.33 2.14.29 6.33 3.28 10.77 3.63 29.12 2.28 41.27 2.24 52.92-25.35 13.97-33.09 18.1-73.89 26.53-108.8Zm-291.76 115.17c2.84 6.29 10 11.46 11.39 20.26.94 5.93.66 20.09-4.81 23.74-3.98 2.66-34.78 6.32-42.41 7.5-55.5 8.59-113.59 15.57-169.56 9.9-5.4-6.36 27.42-29.97 32.8-33.41 8.09-5.19 16.51-8.25 24.79-12.64-15.84 18.27 30.71 10.59 41.25 9.58 36.09-3.47 73.34-10.63 106.55-24.94Z" class="cls-8"/><path d="M2071.14 2614.36c-9.86 2.13-32.72 6.86-40.28 12.51-9.22 6.89-14.28 24.72-24.99 29.72.48-14.05-6.54-23.12-.33-37.79 6.03-14.25 26.53-18.8 36.8-29.39 9.63 8.24 19.17 16.7 28.79 24.95Zm-562.41 470.28c1.47 15.1-19.31 14.4-29.73 13.41-6.24-.59-19.71-2.27-18.25-11.49 7.7-6.05 19.78-20.75 28.79-24.95 2.86-1.33 9.99-.88 13.44-3.84-1.93 7.64 5.06 19.72 5.76 26.87Z" class="cls-13"/><path d="M1337.89 2581.73c-1.08 20.18-4.18 40.35-5.74 60.48-9.71 125.05-12.04 250.9-13.38 376.28-.14 12.65-2.62 25.42-2 39.27-7.86-8.33-13.69-19.55-19.53-29.42-18.97-32.1-36.52-65.13-55.33-97.27-13.42-115.87-22.71-232.64-23.03-349.35 37.41-2.69 80.85.08 119.01 0Z" class="cls-8"/><path d="M744.77 2583.65c36.32-1.59 90.9 7.37 128.61 11.52-.43 7.6-.64 15 5.64 20.27 44.82 15.35 92.49 24.3 138.32 37.31.11.28 2.76 1.65 3.95 4.6 22.73 56.31 43.33 113.51 66.7 169.56.63 4.81-10.47 30.14-13.06 36.98-4.99.85-5.58-1.25-8.17-4.31-11.71-13.84-22.15-36.6-32.14-52.41-1.58-2.5-1.65-5.6-5.75-4.71-.23-2.56.33-5.2-.9-7.66-9.5-11.72-15.13-49.95-26.54-56.17-2.49-1.36-4.84-.9-7.11-1.44-10.24-2.42-16.51-1.6-26.87-1.92-5.1-.16-10.25.02-15.36 0-6.38-3.55-17.07-1.89-24.95-1.92-5.75-.02-11.53.02-17.28 0-6.38-3.55-17.07-1.89-24.95-1.92-5.74-.02-11.53-.06-17.28 0-14.04-3.85-30.41-1.47-45.14-1.94-3.08-.1-6.14-1.8-8.6-1.89.18-4.35-2.68-5.12-5.15-7.33-43.96-39.26-89.07-77.34-133.23-116.38l.17-10.66c22.95-1.3 46.89-8.62 69.1-9.6Z" class="cls-12"/><path d="M1113.31 2487.68c-4.33 9.32-9.29 14.95-1.92 24.95-89.26.1-178.57-.01-267.84-.07-9.53-.96-24.06 9.24-21.22 19.29 1 3.54 19.83 30.29 23.38 34.37 9.21 10.58 16.13 14.35 30.48 15.59 36.17 3.1 76.4-2.71 113.01.24 2.28.78 11.68 22 12.7 25.7 1.33 4.84-5.32 2.25-7.6 2.78-35.35-8.21-83.9-11.28-120.93-15.36-37.71-4.15-92.29-13.11-128.61-11.52 9.93-18.65 24.66-36.51 37.63-53.55 45.35-59.55 91.63-119.25 143.77-172.92 35.84 49.2 86.65 89.93 142.31 114.86 11.66 5.22 32.64 14.4 44.83 15.63Zm236.1 94.05c14.24 156.63 47.81 310.65 86.38 462.6-34.02 3.79-65.82 38.25-90.19 60.5-2.37 2.17-3.94 4.81-7.71 4.76-2.63-6.16-20.9-32.74-21.11-36.47-.2-3.48.24-10.05 0-15.36-.62-13.85 1.86-26.62 2-39.27 1.34-125.38 3.67-251.23 13.38-376.28 1.56-20.13 4.66-40.31 5.74-60.48h11.52Z" class="cls-5"/><path d="M2562.54 2581.73c27.69 54.38 59.01 124.09-24.95 142.04-7.9 1.69-26.58 5.76-33.59 5.76h-74.86c-4.54 0-13.4 1.8-20.15 1.92l.1-139.26-3.94-10.47c52.44.04 104.96-.14 157.4 0Z" class="cls-8"/><path d="M1241.92 2931.08c18.82 32.13 36.37 65.17 55.33 97.27 5.84 9.88 11.66 21.09 19.53 29.42.24 5.31-.2 11.87 0 15.36-11.02 5.3-21.18 14.91-32.63 19.2-.95.35-1.64 1.86-1.92 1.92-2.18.47-5.28-.33-7.68 0-1.68.23-4.84-.45-5.76 0 .04-3.76-2.58-5.34-4.76-7.71-22.95-24.96-58.85-53.94-77.78-80.59a73.958 73.958 0 0 1-6.12-10.21c-25.34-51.06-41.25-113.17-64.85-165.67 4.21-16.55 11.49-32.97 17.7-49.19 2.49-6.49 7.09-13.49 9.12-18.71 32.18 55.19 63.99 110.65 96.29 165.79 1.01 1.72 3.21 2.58 3.52 3.12Z" class="cls-12"/><path d="m2871.58 2581.73-83.52 211.16-83.48-211.16h167z" class="cls-5"/><path d="m2405.14 2581.73 3.94 10.47-.1 139.26c-34.46.61-69.18.15-103.65 0 4.2-47.06 1.11-95.35 1.63-142.77l-5.47-6.95c34.52.02 69.13-.03 103.65 0Z" class="cls-6"/><path d="M1218.88 2581.73c.33 116.71 9.62 233.48 23.03 349.35-.32-.54-2.52-1.41-3.52-3.12-32.3-55.14-64.11-110.6-96.29-165.79.79-2.03.64-5.61 1.82-8.67 22.04-56.98 45.42-113.46 67.09-170.57 1.84-2.4 5.29-1 7.87-1.19Zm-188.11 34.55c-4.47-11.43-10.53-22.5-13.44-34.55h167c.42 2.71-.25 5.1-.94 7.7-7.88 29.71-30.84 80.14-43.76 109.9-1.26 2.9-.3 6.27-5.21 5.25 1.2-16.87.15-52.37-13.58-64.16-15.64-13.44-69.38-17.65-90.08-24.13Z" class="cls-5"/><path d="M2792.88 2458.88c35.16 0 70.42-.15 105.57 0 22.99.1 46.12-.42 69.1 0 15.95.29 37.8-5.28 40.35 16.27.6 5.08.62 16.15 0 21.21-.87 7.14-5.74 9.54-5.81 16.27-133.7-.07-267.48.1-401.18 0-.24-3.15-.71-5.26 1.92-7.68l368.54-2.88v-32.63l-366.63-2.88c-.21-.23-2.64.55-3.44-.35-1.46-1.65.09-5.41-.4-7.33h191.95Z" class="cls-8"/><path d="M2775.6 2975.23c-.55 1.68.02 4.93-.87 7.68-3.74 11.62-25.72 71-24.16 77.34 1.91 1.08 4.62 4.43 5.84 5.2-.24 14.91-10 29.55-9.6 44.15-15.36 3.19-49.02 6.79-61.42 15.36-.67-3.86.92-6.87 2.14-10.31 13.7-38.62 30.84-76.35 45.85-114.45 12.45-5.29 24.42-15.01 35.4-23.14 1.65-1.22 5.26-6.35 6.83-1.82Z" class="cls-7"/><path d="M1134.43 2704.58c-1.12 15.8-5.87 16.42-9.6 26.87-18.47-29.9-34.53-66.16-74.86-69.1-6.04-15.37-13.14-30.58-19.2-46.07 20.7 6.49 74.44 10.69 90.08 24.13 13.72 11.79 14.77 47.29 13.58 64.16Zm-105.58 97.89c4.1-.9 4.17 2.2 5.75 4.71 9.99 15.81 20.43 38.58 32.14 52.41 2.59 3.06 3.19 5.16 8.17 4.31-16.65 43.92-34.15 91.45-52.85 134.31-1.23 2.83-2.04 5.84-4.74 7.73 5.64-33.51 7.66-79.59 9.58-114.23 1.51-27.28 4.32-62.6 1.94-89.24Z" class="cls-8"/><path d="M2904.21 2581.73c.54 3.89-.38 7.39-1.35 11.11-8.94 34.34-23.87 75.6-35.12 109.82-.32.97-2.93 3.47-3.94 6.55-16.71 50.88-32.43 102.13-49.8 152.77-3.73-9.75-14.53-26.8-12.67-36.54l95.46-243.48c2.42-.78 4.96-.11 7.43-.23Z" class="cls-5"/><path d="M2385.94 2512.63c-47.96-.02-96 .01-143.96 0l-7.68-28.79c48.27 0 96.59-.04 144.88.04 12.84 4.59 13.47 18.19 6.76 28.75Z" class="cls-6"/><path d="M1124.83 2731.45c-6.81 19.12-11.67 40.11-21.06 58.6-.92 1.81-1.1 4.55-3.87 4.75-14.42-41.86-31.92-82.59-48.11-123.77-1.2-3.06-1.04-6.67-1.82-8.67 40.33 2.94 56.39 39.2 74.86 69.1Z" class="cls-12"/><path d="M994.3 2610.52c1.73.4 9.52 2.63 9.84 3.05 3.17 10.87 8.05 21.11 12.25 31.58 1.13 2.8.43 6.31.94 7.6-45.83-13.02-93.5-21.96-138.32-37.31-6.28-5.28-6.07-12.67-5.64-20.27 37.02 4.07 85.57 7.14 120.93 15.36Z" class="cls-6"/><path d="M2733.37 3000.18c17.79-45.17 35.39-90.6 51.85-136.29 4.4-.81 3.05.29 4.26 2.46 4.97 8.92 8.97 23.98 13 34.02-8.89 24.82-18.68 49.83-26.87 74.86-1.56-4.53-5.18.6-6.83 1.82-10.99 8.13-22.95 17.84-35.4 23.14Z" class="cls-5"/><path d="m2234.3 2483.84 7.68 28.79h-67.18c-1.79-10.02-7.28-19.66-11.52-28.79h71.02Z" class="cls-8"/><path d="M1090.28 2892.69c3.07-7.63 4.56-19.2 9.12-26.34 1.23-1.93-.14-3.38 4.3-2.46l30.73 82.54c-9.26-10.88-19.96-21.47-28.79-32.63-.46-.58-.52-3.03-1.87-4.77-4.29-5.52-9.17-10.83-13.48-16.34Z" class="cls-15"/><path d="M2604.77 2468.48c14.74-4.6 12.5 15.85 11.52 25.93-1.44 14.8-7.39 4.98-13.44 10.54-2.63 2.41-2.16 4.53-1.92 7.68h-26.87c14.81-12.65 34.84-20.19 30.71-44.15Zm-15.36-428.05c27.28 52.27 56.63 119.83 87.97 168.28 22.11 34.19 58.51 45.38 95.67 25.91 6.67-3.49 25.8-15.91 29.43-21.44 3.23-4.93 3.33-8.13 4.82-13.42 10.15-35.86 13.48-76.94 23.91-112.39.83-2.81-1.06-3.33 3.89-2.81 23.3 96.66 48.13 193.33 74.83 288.94l7.72 4.75c-1.06 8.68-2 34.5-4.78 40.33-2.13 4.46-10.06 4.48-14.41 3.82-4.68-.71-12.16-4.89-18.43-5.55-20.57-2.19-26.51 3.08-42.83 12.43-15.13 8.67-30.09 19.47-44.31 29.59h-191.95c-4.03-15.56-11.96-30.03-17.28-44.15-.53-1.4.17-4.77-.94-7.61-18.66-47.89-42.99-93.09-71.87-135.55l5.63-4.64c8.13-.59 24.95-8.46 31.67-13.44 20.97-15.54 24.14-47.97 9.48-68.98-2.7-3.88-16.94-15.12-16.2-18.31 7.58-6.22 18.43-6.45 27.6-10.84 46.3-22.14 44.35-89.04 6.96-118.77l-1.92-1.92c-2.11-1.48-5.29-2.48-7.68-3.84l-1.92-1.92c-.51-.25-1.38.24-1.92 0l-3.84-1.92c-23.25-9.13-36.89-7.68-61.42-7.68h-11.52c-4.69-4.36 5.1-12.27 8.48-17.43 2.73-4.17 4.56-8.9 6.88-13.28 7.49-1.12 51.27-13.84 53.73-12.59 12.74 20.77 23.31 42.86 34.57 64.42Z" class="cls-5"/><path d="M3015.54 2230.46c-6.9 46.47-18.71 92.32-28.79 138.2-6.59 30-13.21 60.08-19.2 90.22-22.98-.42-46.11.1-69.1 0v-36.47c4.35.66 12.28.64 14.41-3.82 2.79-5.82 3.73-31.64 4.78-40.33 6.37-52.35 12.22-104.88 17.28-157.4 20.07 8.27 59 11.24 80.62 9.6Z" class="cls-10"/><path d="M2934.92 2220.87c-.6-.25-10.24-7.09-10.58-7.64-1.78-2.88-1.06-7.1-.75-10.38l57.3-265.34c1.08-5.17-13.46-25.69-11.4-27.6 1.68-1.56 4.52-.38 6.26 2.4 2.47 3.94 10.94 19.86 10.87 23.25-18.84 91.53-40.77 182.49-57.56 274.42 26.95 16.31 59.97 16.22 90.45 13.89l67.07-313.98 5.74.02-67.53 317.31c-1.39 4.44-5.82 2.98-9.24 3.24-21.62 1.65-60.55-1.33-80.62-9.6Z" class="cls-11"/><path d="m2808.19 1944.46 24.99 122.83c-5.36 1.46-5.4-6.36-6.38-9.92-9.85-35.61-14.21-74.37-24.25-110.15l5.64-2.76Z" class="cls-3"/><path d="M1094.12 1954.05c-1.39 5.05-1.08 10.66-1.92 15.36-15.84 88.92 35.1 177.91 132.45 178.51.1 3.83-.14 7.69 0 11.52-31.73-3.66-25.78 19.89 1.92 17.28 1.95 37.58 8.46 85.15 7.68 120.93-.52 23.68-7.43 53.12-9.59 77.75-2.42 27.71-3.68 55.72-3.85 83.49-9.7 2.14-36.74 10.24-44.15 9.6-5.72-.49-34.08-18.93-40.91-23.4-44.19-28.92-91.74-70.01-117.49-116.69-29.27-53.05-49.58-136.05-94.97-176.64 5.08-13.4 10.36-29.81 17.28-42.23 2.85-5.12 17.32-26.24 21.11-28.79 5.46-3.67 19.56-1.38 27.34-2.42 25.89-3.46 43.84-14.46 41.52-42.47-3.48-41.97-25.18-78.98-41.99-116.36 2.78-1.94 7.68-4.1 9.6-5.76l95.98 40.31Zm18.91 201.27c4.61-2.9 2.63-11.01-3.53-14.13s-51.25-16.47-59.02-17.75c-8.6-1.41-19.49.43-13 11.08 3.09 5.08 70.25 24.14 75.56 20.8Z" class="cls-9"/><path d="M1220.8 2458.88c17.2-3.79 38.13-12.9 55.8-8.77 8.26 1.93 33.93 20.25 43.1 26 4.13 2.59 13.73 6.62 14.35 11.56-48.59.15-97.3.34-145.88 0l-11.52-19.2c7.41.64 34.45-7.46 44.15-9.6Z" class="cls-10"/><path d="M876.92 2255.74c6.17 15.34 13.09 30.63 21.08 45.11 4.59 8.31 27.78 40.34 28.78 44.32 2.01 8.03-4.81 13.39-12.21 6.28-10.27-9.87-45.69-72.29-48.47-85.95-1.91-9.37 1.8-11.5 10.82-9.77Z" class="cls-12"/><path d="m3080.8 2441.6 7.68 74.86c-4.95 1.37-4.59-4.01-5.19-7.21-3.9-20.91-3.74-43.78-8.27-64.77l5.78-2.88Z" class="cls-2"/><path d="M994.3 2737.21c-8.49-1.04-19.54 2.38-26.87-1.92 10.36.32 16.63-.5 26.87 1.92Zm-84.46-3.84c-7.89-.03-18.57 1.63-24.95-1.92 7.89.03 18.57-1.63 24.95 1.92Zm42.23 1.92c-7.88-.03-18.57 1.63-24.95-1.92 7.88.03 18.57-1.63 24.95 1.92Z" class="cls-3"/><path d="M1337.89 3109.6c2.87 12.5-26.65 26.02-36.47 28.79-2.5-5.44-16.81-34.42-19.06-37.09-2.12-2.52-8.5-.84-7.81-7.06 2.4-.33 5.49.47 7.68 0l1.92-1.92c11.45-4.29 21.61-13.89 32.63-19.2.21 3.73 18.48 30.31 21.11 36.47Z" class="cls-13"/><path d="M1545.2 1623.9c.64-7.05-2.2-23.32-3.84-30.71 145.63-184.28 34.08-453.21-191.56-498.5-192.04-38.55-380.17 104.16-376.69 303.76.2 11.31 6.85 44.55 2.96 52.71-2.64 5.54-11.8 7.08-17.08 3.63-6.21-4.07-8.42-30.76-8.92-39.06-14.44-242.07 218.91-406.84 445.81-332.56 219.69 71.91 310.85 346.27 161.81 529.25-3.08 3.78-7.65 10.53-12.49 11.5Z" class="cls-1"/><path d="M1508.73 1508.73c10.69 27.26 26.26 55.76 32.63 84.46 1.64 7.39 4.48 23.66 3.84 30.71-1.57 17.15-13.35 25.39-28.79 28.79-9 1.98-17.47 2.77-26.87 1.92-6.01-.55-16.67-3.29-23.05-4.78-16.9-3.96-22.91-15.61-25 9.51-2.59 31.04 2.07 65.59.07 97-26.04 8.58-43.69 11.68-71 .93-9.54-3.75-10.81-8.78-13.46-10.53 1.16-5.07 2.2-12.65 3.84-17.28 3.04-8.56 6.45-18.08 9.6-26.87.29-.82 2.54-2.64 3.43-5.12 8.32-23.29 15.4-47.09 25.37-69.74 2.13 1.04 22.46 7.55 24.2 7.65 11.7.62 2.68-23.58-.18-26.88-3.61-4.16-27.7-3.48-29.76-20.29-1.63-13.33 4.29-14.1 15.85-11.85 4.01.78 17.32 9.11 18.69 2.38.85-4.2-19.12-29.31-13.65-36.51 5.1-6.7 52.63-15.85 64.54-20.04 8.17-2.88 22.9-8.73 29.72-13.47Z" class="cls-10"/><path d="M1418.51 1430.03c-15.97 5.03-30.04 21-28.79 38.39l-1.92 1.92c-2.55.11-5.14-.16-7.68 0-.91-2.41-3.66-1.99-5.76-1.92 66.9-90.13-28.31-208.47-131.83-165.42-30.65 12.75-54.14 40.75-61.14 73.22-18.52 85.85 68.11 156.53 148.83 124.83-1.62 5.63-3.19 19.67-1.92 24.95-97.8 30.58-194.29-58.68-169.46-158.9 10.21-41.21 44.13-77.19 84.59-90.09 98.31-31.33 193.02 52.03 175.09 153.02Z" class="cls-1"/><path d="M1466.5 1449.23c-.58.76-1.61 7.11-4.98 11.35-34.64 43.68-70.94 86.12-104.43 130.7-4.29-1.55-15.79.99-23.09-.9-23.33-6.05-22.14-44.21 2.06-48.11 2.03-5.98-6.95-12.86-7.76-16.25-1.27-5.28.3-19.32 1.92-24.95 6.08-21.09 19.79-29.05 40.31-30.71 3.16-.26 6.43.2 9.6 0 2.54-.16 5.13.11 7.68 0l1.92-1.92c-1.25-17.39 12.82-33.36 28.79-38.39 22.16-6.97 33.31 5.49 47.99 19.2Z" class="cls-6"/><path d="M1466.5 1449.23c1.33-1.75 15.43-14.96 17.37-16.23 29.96-19.54 47.07 23.49 43.88 47.73-1.39 10.56-10.57 22.14-19.02 28-6.82 4.73-21.55 10.59-29.72 13.47-11.9 4.2-59.44 13.35-64.54 20.04-5.48 7.2 14.5 32.31 13.65 36.51-1.36 6.73-14.67-1.6-18.69-2.38-11.56-2.25-17.48-1.48-15.85 11.85 2.06 16.81 26.15 16.13 29.76 20.29 2.86 3.29 11.88 27.5.18 26.88-1.75-.09-22.08-6.61-24.2-7.65-5.35-2.61-19.69-13.85-24.98-18.21-3.53-2.92-16.07-17.83-17.25-18.26 33.49-44.57 69.79-87.02 104.43-130.7 3.36-4.24 4.4-10.59 4.98-11.35Z" class="cls-8"/><path d="M1370.53 1702.6c-3.15 8.8-6.56 18.31-9.6 26.87-80.62 15.34-166.45.91-237.39-39.98-10.35-5.96-32.99-15.92-28.59-29.23 6.2-18.75 32.36 4.87 42.03 10.03 72.22 38.54 153.13 53 233.55 32.3Z" class="cls-1"/><path d="M1489.53 1654.61c-2.44 6.86-.99 14.67-1.92 21.11-2.08 14.44-5.42 45.58-9.6 57.59-3.56 10.25-19.09 18.21-28.83 22.13-2.85 1.14-5.96.35-7.64.91 2-31.41-2.66-65.97-.07-97 2.1-25.13 8.1-13.47 25-9.51 6.38 1.49 17.05 4.24 23.05 4.78Z" class="cls-13"/><path d="M1737.15 1693c-15.03 6.1-33.01 14.8-47.99 19.2-2.44.72-7.07-.69-9.6 0 1.14-4.58 11.17-19.65 14.76-20.76 11.77-3.61 30.4 2.82 42.83 1.56Z" class="cls-5"/><path d="M1487.62 1675.73c.93-6.45-.52-14.26 1.92-21.11 9.41.85 17.88.06 26.87-1.92-7.25 10.01-18.14 17.05-28.79 23.03Z" class="cls-1"/><path d="M2345.63 1199.69c8.39-25.15 14.34-65.67 13.44-92.14 51.22-8.98 81.23-61.14 61.14-110.09-20.84-50.8-89.03-63.61-128.32-26.2-21.75-18.57-53.74-36.34-80.62-46.07 52.88-70 148.05-89 224.62-45.14 69.11 39.59 99.04 125.22 75.78 200.62-22.23 72.05-91.18 119.3-166.03 119.02Z" class="cls-11"/><path d="M2336.04 1222.72c2.11-4.6 8.23-18.94 9.6-23.03 74.85.29 143.8-46.97 166.03-119.02 23.26-75.4-6.67-161.03-75.78-200.62-76.56-43.86-171.74-24.86-224.62 45.14-5.5-1.99-18.07-6.46-23.03-7.68 77.43-114.74 249.54-112.41 324.44 4.76 86.86 135.89-17.99 310.02-176.64 300.44Z" class="cls-1"/><path d="M2357.15 1082.6c-5.37-29.93-27.61-71.44-47.99-94.06 44.47-40.94 112.43 6.26 88.66 62.75-6.61 15.71-23.31 30.09-40.67 31.31Z" class="cls-11"/><path d="M2359.07 1107.55c-.21-6.11-.96-19.6-1.92-24.95 17.36-1.22 34.06-15.6 40.67-31.31 23.77-56.49-44.19-103.68-88.66-62.75-3.72-4.13-13.27-13.85-17.28-17.28 39.3-37.41 107.48-24.6 128.32 26.2 20.09 48.95-9.92 101.11-61.14 110.09Z" class="cls-1"/><path d="M2314.69 1031.04c3.38 2.05 11.95 38.97 13.07 45.44 6.29 36.61 3.79 111.45-16.94 143.08-4.49 6.86-11.84 7.25-10.92-1.16.69-6.32 8.7-22.86 11.04-31.35 11.79-42.83 12.87-80.21 3.04-123.66-1.44-6.35-11.41-28.65-6.84-31.78 1.6-1.09 5.97-1.54 7.55-.58Zm-184.02 155.2 20.41-34.32c9.74-3.22 12.46 15.86 14.2 22.74 3.95 3.38 18.48-7.59 22.88-8.7 5.66-1.43 8.76 4.03 3.4 7.33-3.74 2.3-26.44 13.32-29.03 12.71-4.57-1.08-5.87-14.11-9.79-16.99-2.26.02-16.54 29.15-18.56 30.31-1.56.9-4.45.75-6.07.09-4.95-2.05-17.11-36.82-20.5-43.87-4.26-3.11-19.91 21.45-24.9 24.03-2.62 1.36-5.25.17-5.79-1.99-.9-3.56 25.28-40.11 28.22-40.98 3.82-1.13 7.22.21 9.12 3.69l16.43 45.95Zm153.54 59.52c2.57-2.99 7.61-4.44 11.51-3.84-.09 1.88.22 3.88 0 5.75-.45 3.97-15.14 28.06-18.27 30.67-5.79 4.81-12.65 1.19-9.73-5.8 7.16-6 11.68-21.21 16.48-26.78Z" class="cls-7"/><path d="M1205.45 2000.12c-2.77 21.8 2.56 36.45 17.28 51.83 16.06 16.78 29 20.1 51.83 21.11v67.18c-16.84 3.43-32.01 7.79-49.91 7.68-97.34-.61-148.28-89.6-132.45-178.51 39.16 1.98 78.34 13.41 113.25 30.71Z" class="cls-10"/><path d="M1395.48 2044.27c-.26 17.65 6.57 32.81 7.68 47.99-18.61 4.95-35.42 16.96-53.06 24.68-26.12 11.44-47.99 17.7-75.55 23.31v-67.18c43.3 1.92 81.6-12.98 120.93-28.79Z" class="cls-13"/><path d="M1431.95 2000.12c1.9-.05 3.87-.11 5.76 0l-1.92 86.38c-.8.55-1.51 3.42-3.89 4.67-8.8 4.61-18.96 5.58-28.75 4.93.07-1.24.09-2.6 0-3.84-1.11-15.18-7.94-30.34-7.68-47.99.16-11.05 2.96-22.53 9.61-31.66 8.35-11.48 13.58-12.16 26.86-12.49Z" class="cls-10"/><path d="M1205.45 2000.12c1.2-9.48 10.41-26.78 16.72-34.03 1.17-1.34-.08-3.65 4.39-2.43l-3.83 88.29c-14.72-15.37-20.04-30.03-17.28-51.83Z" class="cls-9"/><path d="M1437.71 2000.12c-1.89-.11-3.86-.05-5.76 0v-1.92c2.29-.06 5.65-.75 5.76 1.92Z" class="cls-2"/><path d="M2407.06 1942.54c-7.02 6.64-17.13 7.58-23.88 15.47-5.89 6.88-9.92 21.27-10.51 30.41 2.89 4.18 73.33 4.57 83.41 4.1 12.8-.6 32.59-2.06 45.03-3.92-2.32 4.38-4.14 9.11-6.88 13.28-3.38 5.16-13.17 13.07-8.48 17.43 3.01 2.8 8.8 3.48 11.52 0 24.54 0 38.17-1.45 61.42 7.68.83.33 2.49 1.31 3.84 1.92.54.24 1.41-.25 1.92 0s1.08 1.44 1.92 1.92c2.39 1.36 5.57 2.36 7.68 3.84.62.44 1.19 1.34 1.92 1.92 37.4 29.73 39.34 96.63-6.96 118.77-9.17 4.39-20.03 4.61-27.6 10.84-.74 3.19 13.5 14.44 16.2 18.31 14.66 21.01 11.49 53.44-9.48 68.98-6.72 4.98-23.54 12.85-31.67 13.44-3.63.26-7.62.62-10.69-1.78-38.55-52.64-84-102.4-134.28-144.05-10.88-9.01-24.05-19.93-35.67-27.67-4.79-3.19-13.27-10.77-18.99-8.85l-53.75-103.65c.85-6.26.84-23.47-.12-29.63-1.2-7.67-6.48-10.15-7.55-20.28 9.4 1.82 32.43-27.6 37.21-26.78l14.08 18.68 100.35 19.62Z" class="cls-8"/><path d="M2420.49 2326.44c9.38 5.54 26.26 30.67 34.19 41.63 16.9 23.35 31.42 48.32 48.34 71.63-5.73 1.72-11.42 4.07-17.28 5.76-11.88-41.8-40.28-76.46-63.05-112.67-1.45-2.31-1.49-5.15-2.21-6.34Z" class="cls-5"/><path d="M2420.49 2326.44c-.41-.24-2.02.51-3.38-.41-1.8-1.22-9.07-13.42-9.11-16.82 5.93 5.55 8.61 10.76 12.5 17.24Zm-557.15-20.72c30.48-2.92 49.11 69.71 20.22 76.01-34.29 7.47-53.19-72.85-20.22-76.01Z" class="cls-3"/><path d="M1224.64 2159.44c.23 6.35 1.63 11.64 1.92 17.28-27.7 2.62-33.65-20.94-1.92-17.28Z" class="cls-11"/><path d="M1437.71 2000.12c7.59.42 62.77 12.79 65.09 15.51 5.6 6.6-10.02 21.92-19.02 17.14.92 1.79 8.95 9.37 9.6 9.58-.84 8.72-7.12 12.13-15.35 11.53.4 7.93 13.42 9.18 3.75 16.23-10.93 7.97-16.6-3.15-25.42-.56-3.73 1.1-11.71 11.83-15.78 15.1-1.71 1.37-3.98 1.29-4.79 1.85l1.92-86.38Z" class="cls-13"/><path d="M1700.67 1875.36c0 2.05.53 3.98-.84 5.86-2.63 3.61-48.97 1.39-57.77 1.73-36.26 1.42-74.97 3.03-111.01 8-9.24 1.27-28.79 2.95-34.91 9.23-9.32 9.56-15.33 49.18-20.15 63.36-7.73.52-8.54 1.54-7.12-6.16 1.83-9.94 12.27-46.17 16.41-54.62 8.02-16.38 31.56-17.43 47.68-19.5 36.2-4.64 80.25-6.97 116.77-7.99 16.94-.48 34.01.51 50.94.09Z" class="cls-3"/><path d="M1590.74 1925.71c36.52-7.59 40.08 42.81 10.58 47.18-29.88 4.42-39.11-41.25-10.58-47.18Z" class="cls-11"/><path d="M2437.77 1932.94c.56-.67 1.15-1.5 1.92-1.92-.49.68-1.15 1.66-1.92 1.92Z" class="cls-8"/><path d="M2602.85 2504.95c6.05-5.56 11.99 4.27 13.44-10.54.98-10.08 3.22-30.53-11.52-25.93-.12-.69.22-1.67 0-1.92l366.63 2.88v32.63l-368.54 2.88Z" class="cls-11"/><path d="M2107.61 1527.92c32.28.32 67.01-2.56 96.9-15.39 4.03 3.9-4.23 5.72-6.74 6.67-11.06 4.15-24.72 6.8-36.42 8.72-26.35 4.33-65.8 7.14-91.54.27-3.31-.89-5.33 1.35-4.43-4.1 14.38 3.52 27.57 3.68 42.22 3.83Zm97.89-36.46c.94 5.02-.96 3.37-3.82 4.71-36.83 17.29-100.92 17.46-140.12 8.69-.48-3.3 4.54-2.03 6.67-1.87 7.26.55 15.92 3.38 23.1 3.79 38.57 2.19 77.88-2.4 114.17-15.32Zm0-21.11c4.48 3.66-13.61 8.1-15.35 8.63-26.08 7.89-64.04 12.21-91.25 10.64-3.79-.22-26.74-2.97-27.75-3.94s-1.45-4.06 2.41-3.39c44.49 7.72 89.34 2.21 131.94-11.94Zm-19.19 71.01h1.92c-32 11.25-76.18 16.96-110.36 9.53-3.26-.71-5.73 2.16-4.8-3.76 37.76 4.46 76.14 2.45 113.24-5.77Z" class="cls-2"/><path d="m961.67 2080.74-14.4-7.68c-21.11-17.97-40.43-44.16-61.35-61.5-2.85-2.36-4.36-4.48-8.71-3.76-1.7-6.64-3.09-15.45 5.66-18.38 14.33-4.79 20.41 10.5 26.48 19.79 1.77 2.7 4.5 4.12 6.24 2.42 2.41-2.34-20.04-33.13-11.63-47.15 4.07-6.78 47.45-23.25 57.75-28.62 8.87-4.62 18.63-10.62 26.83-16.36 16.81 37.37 38.51 74.39 41.99 116.36 2.32 28-15.63 39-41.52 42.47-7.78 1.04-21.88-1.26-27.34 2.42Z" class="cls-10"/><path d="M1282.23 3094.24c.28-.06.97-1.56 1.92-1.92l-1.92 1.92Z" class="cls-15"/><path d="M2898.45 2422.41v36.47c-35.16-.15-70.41 0-105.57 0 14.22-10.12 29.18-20.92 44.31-29.59 16.32-9.36 22.26-14.62 42.83-12.43 6.27.67 13.76 4.85 18.43 5.55Z" class="cls-13"/><path d="M1113.03 2155.32c-5.31 3.34-72.47-15.72-75.56-20.8-6.48-10.66 4.4-12.49 13-11.08 7.77 1.27 52.74 14.57 59.02 17.75s8.14 11.23 3.53 14.13Zm261.33-686.9c-1.65.06-3.3.07-3.84 1.92-20.52 1.66-34.23 9.62-40.31 30.71-80.72 31.69-167.35-38.98-148.83-124.83 7.01-32.47 30.49-60.47 61.14-73.22 103.52-43.05 198.73 75.3 131.83 165.42Z" class="cls-11"/><path d="M1374.36 1468.42c2.1-.08 4.85-.49 5.76 1.92-3.17.2-6.44-.26-9.6 0 .54-1.85 2.19-1.86 3.84-1.92Zm13.44 1.92 1.92-1.92-1.92 1.92Z" class="cls-3"/><path d="M2497.27 2019.32c-2.72 3.48-8.5 2.8-11.52 0h11.52Zm65.27 9.6c-1.35-.61-3.01-1.59-3.84-1.92l3.84 1.92Zm13.43 7.67c-.73-.58-1.3-1.48-1.92-1.92l1.92 1.92Zm-9.59-5.76c-.84-.48-1.41-1.67-1.92-1.92l1.92 1.92Z" class="cls-2"/></svg>