<svg xmlns="http://www.w3.org/2000/svg" data-name="Livello 1" viewBox="0 0 400 400"><path d="M328.59 367.97c-1.1-.6-5.4-4.4-9.61-8.51l-7.61-7.51-129.5.1c-71.26.1-130.1-.3-130.8-.7-1-.7-1.2-28.92-1-137.91l.3-137.01 8.51-.5 8.51-.5.1-6.51c.1-3.6.2-7.31.3-8.21.1-1.7 3.7-1.8 60.55-1.8s60.45.1 62.75 1.9c2.4 1.9 2.5 1.9 4.8 0 2.2-1.8 4.9-1.9 62.25-1.9 68.55 0 61.45-1.2 61.35 10.31l-.1 6.71H327c4.7 0 8.21.5 8.91 1.2.9.9 1.2 31.02 1.2 129.4v128.2l5.1 4.9c6.91 6.81 8.21 9.61 7.71 16.21-.5 5.7-2.8 9.21-8.01 11.91-3.2 1.7-10.51 1.8-13.31.2Zm14.11-6.21c2.6-2.6 3.4-4.2 3.4-7.11 0-2-.4-4.4-1-5.4-.5-1-5.8-6.3-11.81-11.91l-10.81-10.11-7.91 7.41c-4.4 4.1-7.71 7.51-7.51 7.71.3.2 5.7 5.4 12.11 11.61 11.11 10.71 11.81 11.21 15.81 11.21 3.6 0 4.9-.6 7.71-3.4Zm-38.13-14.91c.5-.2-.1-1.3-1.4-2.4-1.9-1.6-2.2-2.3-1.3-3.9.7-1.4.7-2.4-.3-3.8-1.3-1.7-5.8-1.8-115.79-1.8-63.75 0-115.39-.4-116.59-.9l-2.3-.8V79.94H53.38l.3 133.3c.1 73.36.2 133.6.2 133.9 0 .6 249.09.2 250.7-.3Zm6.7-15.41c2.1-2 3.8-4.2 3.8-4.8s-4.9-5.9-10.81-11.81l-10.81-10.71-4.4 4.5-4.4 4.5 10.91 11.01c6 6.1 11.21 11.01 11.41 11.01.3 0 2.2-1.7 4.3-3.7Zm-120.29-9.91v-7.61l-6.51-7.01c-13.11-14.21-18.51-27.02-19.22-45.84-.4-8.21 0-13.61 1.1-19.01 2.8-13.11 11.11-27.82 20.42-36.23l4.2-3.8v-67.55c0-66.25 0-67.55-2-69.55s-3.3-2-60.15-2H70.57l.7 9.21c.3 5 .6 64.85.6 133 0 114.99.1 123.9 1.7 124.2.9.2 27.72.2 59.55 0l57.85-.2v-7.61Zm32.63 7.31c.4-.4-.2-.7-1.3-.7-3 0-15.71-4.5-20.62-7.41-2.4-1.4-4.7-2.6-5-2.6-1.1 0-.8 10.81.3 11.21 2 .6 25.92.2 26.62-.5Zm63.85-5.81-6.51-6.61-9.71 4.9c-5.3 2.6-12.21 5.4-15.21 6.2-7.61 1.9-4.9 2.2 18.21 2.1h19.72l-6.51-6.61Zm45.63-117.99V79.94h-13.01v120.99c0 114.79.1 120.99 1.8 120.59 1.1-.3 3.3 1.1 6.2 4.1 2.4 2.5 4.5 4.5 4.7 4.5s.3-56.24.3-125.1Zm-78.56 118.49c3.3-.8 9.81-3.3 14.51-5.6 6.71-3.3 10.11-5.8 16.51-12.21 9.01-9.11 13.41-16.01 17.31-26.82 2.3-6.41 2.6-8.91 2.6-20.82.1-11.81-.2-14.41-2.3-20.52-7.61-22.02-22.72-37.03-44.84-44.73-5.9-2-8.71-2.3-20.82-2.3s-15.01.4-20.52 2.2c-23.42 7.81-41.53 27.32-46.54 49.84-2.3 10.21-1.6 27.32 1.4 35.83 4 11.31 8.21 17.91 17.11 26.72 18.11 18.01 40.63 24.32 65.55 18.41Zm60.55-133.1.1-127-57.75-.3c-52.64-.2-57.95-.1-59.65 1.4-1.7 1.6-1.8 4.9-1.8 67.65 0 36.23.3 65.85.6 65.85s1.7-.9 3-1.9c4.4-3.5 16.81-8.01 26.62-9.61 11.51-2 21.62-1.1 34.33 2.9 11.11 3.5 19.62 8.81 28.52 17.61 8.71 8.81 13.91 17.21 17.71 28.52 2.4 7.11 2.7 9.51 2.7 22.02.1 16.31-1.1 21.32-8.01 34.43l-4.5 8.51 8.81 8.81c4.8 4.8 8.81 8.61 9.01 8.51.1-.2.3-57.44.3-127.4Z"/><path d="M124.13 166.71c-.6-.7-1.4-3.5-1.7-6.41-.7-4.8-.9-5.1-4.6-6.3-3.5-1.2-4.1-1.1-7.11 1.2-5.6 4.2-6.51 4.2-11.31-.3-5.2-4.8-5.5-6.81-1.9-12.01 2.4-3.4 2.5-4.1 1.4-7.31-.8-2.4-1.9-3.8-3.3-4-10.51-2.1-10.71-2.3-10.71-9.61 0-6.61.9-7.81 6.71-8.71 5.5-.8 7.11-1.9 7.81-5.4.6-2.5.1-3.9-2.3-7.21-3.4-4.9-3.1-6.61 1.9-11.31 4.9-4.5 6.3-4.7 10.51-1.3 4.2 3.3 4.5 3.4 9.01 1.7 3-1.1 3.4-1.6 4-6.51.3-2.9 1.1-5.6 1.6-5.9 1.8-1.1 14.11-.5 14.91.8.4.7 1.1 3.4 1.4 6 .6 4.5.9 4.8 4.5 5.9 3.5 1.1 4.1.9 7.21-1.5 4.8-3.6 7.71-3.3 12.11 1.2 4.5 4.6 4.6 6.61.8 11.81-2.9 3.8-2.9 3.9-1.2 7.41 1.4 3.1 2.1 3.6 6.2 4 6.71.8 7.51 1.8 7.31 9.21-.3 7.21-1.7 8.81-7.51 8.81-3.8 0-4.8.7-6.71 5.2-1 2.3-.7 3.1 1.9 6.41 4 5.1 3.7 7.41-1.6 12.31-4.8 4.5-5.7 4.5-11.31.3-3.1-2.3-3.7-2.4-7.21-1.2-3.6 1.2-3.9 1.6-4.5 6.2-.4 2.7-1.4 5.5-2.2 6.3-1.8 1.9-12.61 2.1-14.11.2Zm11.81-4.9c0-1.3.5-3.9 1-5.9.8-3 1.8-3.9 5.3-5.3 5.8-2.2 7.61-2 12.11 1l3.8 2.6 3.1-3.1 3.1-3.1-2.6-2.7c-3.8-4-4.3-7.31-1.9-12.11 2.3-4.5 3.5-5.5 7.11-5.9 6.81-.8 7.11-1.1 6.81-5.6q-.3-4.2-4.8-4.7c-5.9-.7-6.81-1.4-9.11-6.71-2.2-5.1-1.9-7.01 1.8-11.41l2.6-3.1-3.1-3-3.1-3.1-3.5 2.6c-4 3.1-8.41 3.4-13.61.9-3.1-1.5-3.6-2.3-4.4-7.21l-.9-5.5h-8.71l-.6 4.6c-.8 6-1.1 6.41-6.71 8.81-5.1 2.2-6.51 2-11.51-1.7l-3.3-2.5-3.1 3-3.1 3.1 3.2 4.4 3.2 4.4-2.2 5.7c-2.3 6-2.2 5.9-10.91 7.11-2.2.3-2.5.8-2.8 4.9q-.3 4.7 3 4.8c7.51.1 8.81 1.1 11.31 7.51l1.7 4.6-3.2 4.5-3.2 4.6 2.9 2.9 3 2.9 4.9-3.1 5-3.1 4.6 2.1c5.7 2.5 6.41 3.4 7.21 9.31l.7 4.7h4.5c3.9 0 4.4-.3 4.4-2.2Z"/><path d="M121.93 139.09c-1.9-1-4.8-3.5-6.41-5.5-2.5-3-3.1-4.8-3.4-10.01-.8-12.31 7.21-20.92 19.42-20.82 10.61.1 18.31 7.21 19.22 17.71 1 11.71-7.31 20.52-19.32 20.52-4 0-7.21-.6-9.51-1.9Zm14.71-2.6c4.9-2.1 7.11-4.2 8.91-8.41 2-4.7 1.7-9.01-.9-13.51-4.3-7.71-13.71-10.21-21.02-5.7-12.21 7.51-9.41 24.82 4.6 28.12 4.6 1.1 4.4 1.1 8.41-.5Zm85.86 173.73c-24.92-7.11-41.83-30.92-39.93-56.24 1.4-19.21 12.31-35.83 29.32-44.33 9.71-4.9 18.71-6.91 28.12-6.3 15.11 1 26.82 6.3 37.03 16.71 12.81 13.11 18.01 30.52 14.41 47.94-4.3 20.72-20.62 37.93-40.53 42.63-8.41 1.9-20.92 1.8-28.42-.4Zm27.43-3.6c9.21-2.4 16.31-6.51 23.22-13.41 16.01-15.91 19.72-37.13 10.21-57.14-6.51-13.61-19.52-23.92-34.53-27.52-8.51-2-15.01-1.9-23.92.4-27.22 7.01-44.03 34.93-36.83 61.45 4.5 16.91 19.92 32.13 36.53 36.13 7.71 1.9 18.51 1.9 25.32.1Z"/></svg>