<svg xmlns="http://www.w3.org/2000/svg" id="Livello_1" data-name="Livello 1" viewBox="0 0 3710.4 3710.4"><defs><style>.cls-1{fill:#e5ecfd}.cls-2{fill:#4c51c7}.cls-3{fill:#fff}.cls-4{fill:#e3eafd}.cls-6{fill:#484bf1}.cls-7{fill:#feaead}.cls-8{fill:#160c81}.cls-9{fill:#91b3fa}.cls-10{fill:#ff8c86}.cls-12{fill:#bdd0fb}.cls-13{fill:#100670}.cls-14{fill:#fd820e}</style></defs><path d="M3729.41 0v3710.4H19.01V0h3710.4ZM2522.05 620c-1.15 3.85-5.75 0-7.7-.94-375.52-180.91-826.24-204.7-1205.48-21.19-9.36 4.53-36.39 22.18-43.58 23.67s-22.26-8.89-15.88 9.89l-99.81 59.58c-3.49-2.56-10.06-8.01-13.95-7.43-1.59.24-26.31 15.75-27.41 16.92-4.25 4.54-2.06 18.65-.86 25.06-39.72 27.55-76.98 60.09-111.33 94.06-.61-1.03-4.59-3.31-6.29-3.34-9.01-.19-40.39 12.25-45.49 10.12-14.77-14.91-32.31-27.37-51.57-35.86-1.19-15.56-2.55-31.89-5.99-46.8-3.17-3.12-55.91-14.2-59.27-12.09-3.58 5.76-19.36 36.28-22.94 37.99-6.28 3-17.34 1.14-24.17 2.22-8.13 1.28-33.82 9.36-38.38 8.86-7.53-.83-28.39-25.58-38.29-27.91-2.85.16-46.9 27.96-48.42 30.38-3.86 6.19 12.43 39.66 7.74 49.84-1.18 2.56-14.2 15.42-17.85 20.55-3.5 4.91-15.46 27.45-17.61 28.46-8.65 4.08-41.32 1.64-46.24 7.51-1.83 2.19-13.87 52.78-13.07 55.52l40.18 25.56c.16 21.43 4.91 42.4 11.04 62.76-8.64 13.26-21.63 24.63-28.32 38.68.09 2.64 25.01 41.99 27.87 44.97 1.8 1.88 2.18 3.65 5.52 3.84 8.35.46 28.22-9.03 38.84-9.38 9.49-.31 20.47 13.04 28.83 18.74 4.77 3.25 27.25 15.67 28.43 17.64 2.49 4.16.27 12.26.97 17.27l-42.26 74.86c-7.64-4.42-27.07-19.3-35.07-16.96-4.8 1.41-6.41 7.54-4.96 11.84.91 2.71 26.87 17.04 32.38 16.65-27.13 56.9-54.15 114.71-76.3 174.18-146.59 393.57-153.06 869.67 67.07 1237.23 9.68 16.17 23.01 39.64 34.49 53.81 2.16 2.67 3.23 5.17 7.37 5.1 1.36 18.45 4.14 37.19 5.76 55.67.02.25-.24 1.13 0 3.84.52 5.83 1.38 11.48 1.92 17.28.02.25-.27 1 0 3.84.5 5.17 1.4 10.18 1.92 15.36.03.25-.3.92 0 3.84.52 5.16 1.37 10.2 1.92 15.36.03.25-.33.8 0 3.84 2.94 26.9 6.29 53.78 9.6 80.62.03.26-.42.48 0 3.84 2.26 17.93 5.19 35.87 7.68 53.75.04.26-.51.26 0 3.84.48 3.37 1.46 6.5 1.92 9.6.04.26-.56.15 0 3.84 3.33 22.11 5.61 45.28 9.6 67.18.58 3.16 1.88 3.63 1.92 3.84 1.47 7.75 2.27 18.32 3.84 24.95.48 2.01 1.7 3.11 1.92 3.84 1.57 5.29 2.06 7.15 5.76 11.52 1.29 1.52 1.29 2.86 3.84 3.84.53.2 1.3-.17 1.92 0 .37 10.71 5.02 18.27 1.92 28.79-4 13.57-10.82 26.93-14.81 41.82-4.12 15.38-17.14 50.52 1.86 58.47 10.73 4.5 68.54 7.08 81.18 5.37 25.61-3.46 12.14-42.9 6.66-58.66-3.71-10.66-8.53-20.08-14.59-29.56-2.61-4.09-7.05-12.91-12.32-13.6-.59-10.26-2.23-22.39-3.84-32.63 8.64-2.36 12.48-7.24 13.49-16.27 1.54-73.86.32-147.92 1.87-221.75 3.76-.04 5.34 2.58 7.71 4.76 24.39 22.43 48.05 45.39 73.92 66.21 10.15 8.17 21.61 18.29 33.54 23.08 3.01 12.22 6.46 24.32 9.6 36.47 6.95 26.9 14.81 72.27 25.89 96 3.52 7.53 8.1 10.75 16.34 11.49 4.27 15.78.84 33.58 1.92 49.91-1.84 12.75-5.73 40.9-3.4 52.35 1.99 9.78 14.2 20.4 24.02 22.05s27.12 1.91 37.85 2.46c35.11 1.81 70.52 1 105.73 1.76 26.56.58 59.91 6 86.18 1.88 13.43-2.11 12.29-15.14 4.01-22.96-2.58-2.43-7.32-4.03-10.61-5.72v-3.84c88.17 5.1 187.11.29 276.41 0 3.2-.01 6.4.01 9.6 0-1.13 5.83 2.83 3.37 6.36 4.1 16.96 3.51 33.86 7.43 50.87 10.65 213.21 40.4 435.8 42.87 649.15 2.52 22.68 18.14 41.97 13.95 68.22 15.28 107.48 5.43 216.52 1.4 324.41 1.91 66.65.32 145.43 7.75 211.12 2.08 14.91-1.29 30.02-8.38 39.28-20.23 1.21-1.54 9.3-13.58 9.6-14.39h378.15c.02-99.78-.05-199.66 0-299.44.16-363.75-.21-727.56.1-1091.34.82-5.35-3.53-9.51-3.94-14.3-5.73-66.03-11.77-128.88-23.64-194.23-36.21-199.3-110.08-390.7-220.14-560.14 18.87-12.33 45.1-35.7 58.38-53.91 45.26-62.07 29.39-129.43-12.31-187.95 2.04-8.42-2.36-33.73-8.55-40.4-18.33-19.75-45.87 12.75-38.44 28.85 3.36 7.28 27.23 23.69 35.47 23.07 13.56 57.1 5.24 119-54.36 144.31-21.36 9.07-22.36 6.49-43.53 3.49-.66-4.13-3.34-7.35-5.81-10.51-5.73-7.33-41.45-45.84-42.18-48.99-1.12-4.83.77-12.67-.02-18.22-2.73-19.28-12.6-39.34-21.1-56.64 13.97-9.68 15.65-32.39 3.91-44.65-10.23-10.69-23.46-.77-30.79 8.18-7.28-15.01-30.65-15.59-40.35-2.92-3.48 4.54-3.67 13.57-5.72 14.43-1.13.47-4.05-.3-5.76 0-1.2.21-2.71-.25-3.84 0-.09-3.54-2.37-5.56-4.72-7.76-22.62-21.2-76.25-65.55-102.78-78.62 2.89-3.25 4-6.06 4.03-10.52.17-24.27-16.97-61.9-10.81-85.52 3.84-14.73 48.08-47.73 58.7-62.22 4.24-7.26 2.35-11.76-5.39-14.01-20.86-6.07-66.6-4.24-82.91-14.99s-28.27-55.83-40.04-73.21c-3.48-5.13-5.15-7.91-12.46-6.03-16.37 14.81-29.04 68.38-45.59 79.25-15.04 9.88-84.74 10.86-89.19 18.3-1.24 2.07-1.29 4.34-.98 6.65 13.87 21.16 41.54 38.1 55.72 58.64Zm524.98-3.84c-10.65 2.31-38.89 0-51.83 0-2.04 0-2.81 3.39-2.1 5.9 1.99 6.98 20.26 25.79 25.01 34.53 12.2 22.45-11.98 41.8-10.43 65.15 3.62 3.61 44.71-15.39 56.49-13.39 10.51 1.79 36.17 30.82 44.37 30.69 3.38-.05 4.17-1.92 4.7-4.83 3.77-20.84-8.67-43.59 9.77-59.33 8.11-6.92 28.51-16.49 34.35-23.23 1.57-1.81 2.78-2.99 1.92-5.66-1.6-4.98-44.84-12.51-52.88-22-6.61-7.8-13.25-50.63-19.11-51.96-7.17-1.63-29.19 41.76-40.27 44.16Zm-1846.56-1.92c-11.04 15.51 18.42 6.63 27.06 11.42 7.23-.11 4.85-11.42 1.73-11.42h-28.79Zm-18.23 1.93c-1.32-1.38-35.9 2.15-34.44 10.32.35 1.95 3.81 4.59 6.2 4.6 1.28 0 23.85-5.11 24.99-5.7 3.32-1.75 4.75-7.66 3.26-9.22Zm-48 13.44c-3.11-3.12-24.37 6.62-28.23 9.19-7.96 5.31-4.8 11.16 3.78 9.66 1.22-.21 21.59-9.42 22.54-10.21 2.8-2.31 1.9-5.62 1.91-8.64Zm-342.15 34.07c4.59-4.55.89-13.42-4.54-14.43-2.32-.43-25.38 2.23-28.5 3.44-9.63 3.73-9.07 13.51 0 15.25 4.02.77 31.03-2.27 33.04-4.26Zm32.55-12.58c-8.49 2.53-4.89 12.59 1.92 14.56 5.14 1.49 33.04 4.73 34.9-.82 5.22-15.53-27.81-16.43-36.82-13.74Zm259.08 1.84c-2.83.79-27.76 18.77-20.56 23.75 6.01 4.17 28.35-15.84 26.94-21.15-.6-2.26-3.79-3.32-6.38-2.6Zm-368.34 9.71c-7.94.89-35.82 9.16-27.55 20.82 4 5.64 37.63-5.5 39.23-11.07 2.41-8.41-4.72-10.52-11.68-9.74Zm176.38-.14c-5.54 1.87-6.04 10.4-1.19 14.02 4.13 3.09 32.11 11.77 35.54 6.94 9-12.69-26.86-23.49-34.35-20.96Zm146.2 53.11c1.17-.67 15-20.77 15.36-22.06 1.88-6.82-4.06-7.68-9.4-3.6-2.34 1.79-14.31 17.4-14.9 19.71-1.48 5.74 5.04 8.19 8.94 5.95ZM651.9 689.5c-2.64.6-23.14 13.71-24.57 15.83-4.94 7.34 1.99 15.12 11.6 11.54 1.53-.57 22.44-14.01 23.26-15.12 6.33-8.63.08-14.58-10.29-12.24Zm303.29-.08c-20.35 5.97 20.13 29.11 26.37 28.52 22.16-2.09-13.1-32.41-26.37-28.52Zm-357.03 38.35c-1.58.44-22.83 21.29-23.52 22.8-2.91 6.38 5.58 13.78 12.5 10.53 1.29-.61 19.57-18.91 20.17-20.2 3.36-7.25-1.2-15.34-9.16-13.13Zm412.69-.01c-18.81 5.22 14.71 36.6 19.48 19.48 1.86-6.66-12.81-21.33-19.48-19.48Zm-458.79 51.86c-4.33 1.33-19.79 25.69-18.34 30.95 5.41 19.56 30.5-18.56 30.4-24.57-.1-5.6-7.07-7.91-12.06-6.38Zm-32.64 59.54c-5.98 1.81-25.68 44.73-2.68 37.74 5.19-1.58 16.72-33.24 11.07-37.25-2.01-1.43-6-1.22-8.39-.5Zm-17.34 63.45c-8.23.68-10.85 24.29-10.95 31.35-.19 12.69 13.41 14.4 16.5 4.78 1.35-4.19 3.7-29.65 1.83-32.75-1.11-1.85-5.13-3.57-7.39-3.38Zm-7.73 68.87c-4.9 1.64-7.39 32.31 7.01 28.31 8.41-2.33 9.43-33.8-7.01-28.31Zm103.67 218.82c-11.27 3.78 7.97 29.8 19.09 21.07 9.84-7.72-10.37-24-19.09-21.07Z" class="cls-3"/><path d="M2522.05 620c2.08 3.01 4.49 4.94 5.32 9.08 4.28 21.36-9.98 59.11-11.1 82.18-.37 7.59.87 12.4 9.64 11.58 20.56-6.74 59.6-37.73 79.64-37.73 13.61 0 62.63 29.2 78.34 37.06 2.65 1.33 5.94.92 7.07 1.48 26.52 13.08 80.16 57.43 102.78 78.62 2.35 2.2 4.62 4.22 4.72 7.76-14.46 3.22-27.83 14.73-26.03 30.82.45 4.02 6.35 13.31 4.92 15.22-.96 1.29-11.82.92-11.44 14.22.22 7.67 3.51 10.12 9.53 12.68 2.3.98 2.17 1.67 5.76 1.92 1.5.1 4.7.33 5.76 0 8.62 3.57 14.35 11.86 22.42 16.93 1.91 1.2 13.27 7.83 14.06 8.02l-5.76 51.83c-18.17-3.98-52.65 6.05-75.28 3.3-78.08-9.48-105.54-83.72-85.95-153.02 7.1.28 32.46-16.53 35.48-23.07 7.97-17.26-22.34-50.53-39.32-27.8-5.35 7.16-9.68 30.96-7.67 39.35-8.34 12.61-17.11 25.13-23.37 39.02-45.75 101.52 10.79 169.15 96.27 217.28 5.43 3.06 31.3 13.88 32.79 15.7 7.23 8.83 16.85 50.69 20.06 63.89 9.6 39.42 29.76 121.54 29.73 159.34-.03 39.96-8.67 87.61-11.52 128.61-.51 7.34-1.92 19.9-1.92 25.91v30.71c0 4.96-1.61 15.31-1.92 22.07-.08 1.79.03 3.16 0 3.84-.68 15.39-1.46 30.63-1.92 46.07-.04 1.19.03 2.91 0 3.84-1.76 63.49-2.59 127.39 3.75 190.78.72 2.14 4.12 1.29 5.85 1.17.46 2.85-.68 7.16 0 9.6-13.5 7.74-29.83 26.6-32.63 42.23l-263.97-.04c-10.9 1.09-18.44 11.19-18.27 22.04.06 105.27.18 210.58.07 315.83-.16 161.2.12 322.51 0 483.71-20.68 2.95-79.74 12.05-94.06 24.95l.08-246.73c-.34-11.62-6.23-21.91-18.44-23.79-20.69-3.19-56.96-.12-79.54-.12h-63.34c1.44-3.35 6.42-17.29 5.6-19.88-2.08-6.51-7.66-1.52-9.43-1.24-16.96 2.75-39.38 11.77-53.75 21.11h-38.39l-93.3-151.44c-10.88-10.59-21.82-10.67-36.24-9.78-35.21 2.17-72.41 12.53-108.48 13.41-3.83.09-7.68-.07-11.52 0l98.86-142.01c15.54 22.34 31.39 40.7 56.62 51.79 57.8 25.41 101.93-11.02 143.76-45.3 1.82-1.49 2.7-4.78 4.07-5.67 3.29-2.12 20.88 6.71 34.5-7.6 12-12.61 9.75-37.85-2.9-48.94-5.37-4.71-21.11 3.94-22.03 11.53-.6-.46-3.31.46-3.84 0-1.56-1.35-1.1-9.97-11.54-4.81-11.63 5.75-7.92 26.31-9.89 29.47-1.32 2.12-34.96 15.4-40.01 16.6-18.97 4.51-45.78 5.08-63.33-4.78-2.92-1.64-15.51-12.41-18.28-15.31-18.45-19.34-27.11-47.29-35.5-71.99l-61.39-20.19c1.33-8.08 2.03-16.72 1.92-24.95 54.9 4.7 22.95-51.36 11.52-78.7 18.94-13.53 8.49-50.37-11.42-43.13-4.01 1.46-9.05 8.65-12.58 8.65-5.54 0-9.72-12.88-25.58-8.38-16.92 4.8-13.44 19.35-15.77 21.66-1.02 1.01-17.77-2.85-26.83 7.31-5.7 6.39-7.11 16.16-5.65 24.39.47 2.67 4.91 7.06 3.76 8.66-.35.49-7.52 1.62-9.18 7.15-6.64 22.23 11.5 16.65 20.68 20.74 6.76 3.02 17.06 16.47 26.9 20.13-3.92 6.86-10.37 16.14-13.44 23.03-58.14-8.41-123.31 5.45-167 46.07-49.38 45.92-36.51 96.74-2.34 147.27 3.26 4.82 16.13 18.53 16.9 21.56s-1.31 6.01-.88 8.49c1.33 7.72 4.74 24.1 9.36 29.99-.87 4.29-5.61 10.56-5.63 14.41-.02 3.48 3.42 6.36 3.71 8.63.21 1.66-1.38 11.06-1.92 13.44-5.6 24.85-18.25 58.71-26.84 83.53-7.4 21.41-15.75 42.54-23.53 63.79-30.57 7.87-56.2 11.23-80.16 33.11-18.3 16.71-37.38 42.15-51.47 62.74-5.11 7.47-18.22 21.47-13.79 29.4-5.91 6.06-7.1 12.69-15.36 13.44-11.28 1.01-15.5-1.9-26.87 3.84-8.96 4.52-8.45 7.38-7.2 17.73 2.55 21.01 19.82 66.67 32.15 84h-522.1c-4.47-90.24-8.53-181.21-9.68-271.53-.99-78.3-2.37-161.44 5.84-239.06 5.45-51.51 24.4-100.77 32.63-151.64 40.19.42 80.92.52 120.89-1 37.86-48.64 68.49-104.81 98.27-158.95 40.08-72.88 78.38-147.73 113.03-223.08.48-14.08-10.56-9.4-19.97-10.84-2.88-.44-4.44-3.26-5.09-3.46 78.54-40.01 140.65-106.99 188.11-180.43l559.79 114.96c12.57.96 20.1-1.56 29.5-9.38 9.78-8.13 11.84-14.31 14.78-26.49l127.34-738.36c4.18-70.58-65.95-61.51-113.32-75.89-6.89-2.09-8.06-9.58-16.71-13.04-12.68-5.07-36.02-8.52-50.47-11.91 2.6-8.57 4.44-21.85-3.87-27.8-9.04-6.47-58.71-13.73-61.39-16.37 9.74-16.05 21.23-30.57 14.8-50.31-6.94-21.31-38.21-40.93-60.05-32.35-20.07 7.88-15.08 47.84-20.03 65.4-16.03-2.12-51.52-18.24-65.76-16.86s-18.13 18.72-16.76 30.3c-15.71-3.56-46.59-12.74-60.77-13.32-6.54-.27-9.68 3.44-16.01 3.72-5.03.23-17.48-2.55-23.03-3.84-16.84-3.9-45.67-19.16-60.34-17.18-3.42.46-6.8 2.88-10.68 3.74-.61.14-1.32-.14-1.92 0l-3.84 1.92c-24.57 7.36-37.56 13.82-47.46 39.87-26.1 109.82-48.54 220.52-73.47 330.59-.99 4.37-3.63 10.05-4.82 15.34-26.67 118.35-52.84 236.83-79.63 355.13-61.64 54.93-139.69 94.59-218.82 119.01-89.12 27.51-169.57 27.99-261.05 30.71l11.52-97.89c5.5.63 14.5.43 20.13-.03 97.78-7.99 20.9-133.35 2.91-182.32 17.55-12.62 21.16-21.59 23.03-42.23 4.18-.14 8.94 1.29 12.51-1.9 4.41-3.92 19.41-31.1 10.52-35.58-11.87-5.99-15.49 17.25-23.03 22.12-10.07-33.43-30.93-56.83-63.42-27.91-2.04 1.82-12.85 11.76-13.36 12.55-7.72-4.6-13.55-14.87-21.11-19.2 5.18-4.69 14.79-27.7 19.17-29.78 9.52-4.5 34.17-.58 45.2-6.62 2.76-2.71 13.37-52.04 12.07-56.3-4.72-7.94-37.59-20.96-39.61-27.64-1.64-5.42.2-14.06-.62-20.5-.95-7.44-9.54-37.48-8.99-40.09 1.65-7.93 28.65-32.62 28.11-38.54-7.63-13.26-16.61-25.73-24.77-38.64-1.68-2.66-1.29-5.95-1.78-6.77 34.35-33.96 71.62-66.5 111.33-94.06.19 1.04 4.65 2.93 3.51 8.16-.6 2.76-14.56 19.72-17.75 24.62-1.6 2.46-4.81 10.67-5.32 11-5.45 3.52-29.3.16-33.25 6.1-2.13 3.21-8.07 34.7-5.76 38.45 1.92 3.12 19.08 9.61 22.66 13.3 4.4 4.53 2.64 15.44 3.81 21.65.96 5.14 5.6 18.44 5.27 21.59-.57 5.5-19.7 21.49-18.93 26.58 5.59 5.67 16.68 31.5 23.56 31.89 5.1.29 16.95-5.32 23.48-5.54 10.02-.33 29.32 20.2 40.01 24.84 1.91 5.67.77 26.39 4.74 29.81 1.32 1.14 30.84 8.43 33.89 8.55 8.35.33 14.33-21.39 21.15-26.53 11.8 2.33 31.9-7.7 41.84-6.09 6.54 1.06 18.08 17.5 25.07 17.24 1.74-.07 28.18-16.37 29.71-18.17 6.27-7.36-5.65-26.21-3.54-34.11.72-2.7 8.32-8.67 10.9-12.27 2.99-4.18 11.1-20.79 12.16-21.43 6.09-3.69 30.24 1.42 33.83-7.45 1.57-3.87 7.01-32.47 6.23-35.66-4.31-4.95-23.78-12.1-25.99-16.7s-.28-10.98-1.17-16.11c-1.19-6.84-6.74-23.04-4.58-27.95 2.95-6.69 16.77-15.97 16.35-23.94-.13-2.52-17.45-30.04-19.26-30.98-5.41-2.81-23.19 7.54-33.16 4.53-2.01-.61-13.23-11.22-16.89-13.84-3.08-2.21-16.29-8.3-16.79-9.11-1.19-1.91-.77-23.79-2.5-29.18-1.65-5.12-32.23-8.8-38.79-10.63-3.69 1.05-13.34 23.81-16.56 25.75-5.68 3.41-33.37 1.54-41.69 8.24-3.58.06-10.8-8.81-14.02-11.16l99.81-59.58c-6.38-18.78 8.83-8.43 15.88-9.89s34.22-19.14 43.58-23.67c379.24-183.51 829.95-159.72 1205.48 21.19 1.95.94 6.56 4.79 7.7.94ZM1114.46 961.86c-7.27 1.78-9.94 35.77-4.39 40.29 14.52 11.84 17.73-29.59 11.86-36.79-1.83-2.24-4.29-4.28-7.46-3.51Zm-9.57 69.17c-2.58.73-3.69 2.78-4.7 5.03s-7.62 24.71-7.86 26.88c-.79 7.16 7.72 10.55 13.17 7.22 4.37-2.67 18.39-44.53-.61-39.13Z" class="cls-1"/><path d="M1500.87 2639.32c11.32 6.74 12.63 17.37 13.51 29.68 4.9 68.24-.17 148.32-.08 217.94.02 13.88.08 30.14.08 45.03.02 92.48-.18 184.99-.08 277.45-89.3.29-188.24 5.1-276.41 0-1.91-.11-3.85.07-5.76 0l-7.07-1.48-163.77-75.3c-.27-1.31-3.07-3.98-3.74-6.77-2.04-8.6-3.4-17.38-5.86-25.86 5.9-2.92 6.13-6.11 5.81-12.39-32.59-146.97-42.52-298.05-49.96-448.29h493.31Z" class="cls-14"/><path d="M721.55 1165.14c1.25 8.95 4.63 18.88 4.08 28.55 1.49 2.25 48.21 11.99 52.59 11.93 3.8-.05 5.87-.04 8.71-2.95 5.1-5.22 17.57-32.63 20.97-34.68 3.47-2.1 9.45-.57 13.47-.93-1.38 4.02-3.93 19.58-3.73 23.72.53 10.79 8.6 18.94 11.36 28.9-21.77 8.29-26.8 25.37-21.07 47.19-3.4-.73-32.58-.6-35.23.28-4.61 1.51-4.05 9.05-1.41 12.39 1.78 2.25 27.41 5.06 31.65 4.57 6.72-.78 7.78-4.38 10.76-9.55 14.08 11.41 37.33 4.59 42.23 7.68 3.39 2.13 12.48 14.22 17.25 18.26 7.32 6.2 14.68 11.54 23.06 16.29.6 2.14 2.22 2.75 3.84 3.84 1.5 1.01 4.62 3.27 5.76 3.84-3.93 21.76-13.03 42.46-20.24 63.35-.94 2.72-.32 6.06-.87 7.67-2.19 6.36-7.14 14.8-9.63 22.04-6.5 18.84-12.14 38.02-19.16 56.66-2.34-1.53-36.5 5.26-42.59 6.36-24.13 4.36-70.82 10.98-91.76 19.57-11.95 4.9-40.86 30.57-51.87 40.27-47.63 41.98-97.01 99.05-122.55 157.7-7.35 16.87-15.01 35.94-15.63 54.43-1.32.33-1.38.96-1.92 1.92-3.48 6.2-4.28 36.82-3.92 45.19 4.16 96.81 73.82 173.46 172.84 173.64.4 30.33 1.66 60.86 3.86 91.16 2.05 28.27 10.39 68.74 9.58 95.03-.65 21.04-7.74 49.47-9.59 71.99-13.31 162.11-10.04 328.38 1.91 490.42-4.14.07-5.21-2.43-7.37-5.1-11.48-14.17-24.8-37.65-34.49-53.81-220.13-367.56-213.67-843.66-67.07-1237.23 22.15-59.47 49.18-117.27 76.3-174.18-5.51.39-31.47-13.94-32.38-16.65-1.45-4.31.16-10.43 4.96-11.84 7.99-2.35 27.43 12.53 35.07 16.96l42.26-74.86Zm-13.97 86.65c-5.39 1.45-7.49 10.68-3.32 14.15 5.08 4.23 43.23 16.13 38.16-1.56-1.46-5.1-30.31-13.81-34.84-12.59Z" class="cls-1"/><path d="m859.76 2167.12 1.93 170.83c3.58.7 4.76-1.66 6.16-4.38 4.97-9.66 4.23-24.37 10.71-35.36 11.99-20.34 50.63-36.04 68.11-52.84 3.92-2.67 6.3-1.35 7.15 3.33v748.69l-3.83 6.63c-3.14-12.15-6.59-24.25-9.6-36.47-41.55-168.77-74.23-340.78-88.31-514.42-2.33-3.03-3.5-.03-3.83 2.83-15.99 136.22-20.14 280.32-23.03 417.53-1.55 73.83-.33 147.88-1.87 221.75-1.01 9.03-4.84 13.92-13.49 16.27-11.11 3.03-35.04 3.09-46.07 0-.62-.17-1.39.2-1.92 0l-3.84-3.84c-3.69-4.36-4.19-6.22-5.76-11.52l1.9-.98c.67-3.55-.56-3.05-3.82-2.86-1.57-6.63-2.37-17.2-3.84-24.95 3.28-3.32 2.62-4.42-1.92-3.84-3.99-21.9-6.27-45.07-9.6-67.18l1.88-1.14-1.88-2.7c-.46-3.1-1.44-6.22-1.92-9.6l1.89-1.14-1.89-2.7c-2.49-17.88-5.42-35.82-7.68-53.75l1.7-1.21-1.7-2.63c-3.31-26.84-6.66-53.72-9.6-80.62l1.63-1.2-1.63-2.64c-.55-5.16-1.4-10.19-1.92-15.36l1.63-1.2-1.63-2.64c-.52-5.17-1.42-10.18-1.92-15.36l1.63-1.2-1.63-2.64c-.54-5.79-1.4-11.45-1.92-17.28l1.63-1.2-1.63-2.64c-1.62-18.48-4.4-37.22-5.76-55.67-11.95-162.04-15.22-328.31-1.91-490.42 1.85-22.52 8.94-50.95 9.59-71.99 49.07 9.44 97.96 12.46 147.8 7.68Z" class="cls-13"/><path d="M3013.44 1051.89c110.06 169.44 183.93 360.84 220.14 560.14 11.87 65.34 17.91 128.2 23.64 194.23-5.67-1.49-7.87-5.02-14.35-5.81-21-2.57-51.66.2-73.95.05-45.26-.29-91.06-1.17-136.28 0-.64.02-1.28-.02-1.92 0-4.11-15.31-53.05-44.83-65.26-42.23.76-4.29-1.09-11.77 0-15.36.45-1.5 4.18-1.36 3.99-10.57-1.78-83.83-15.7-181.64-25.1-265.84-2.81-25.14-4.63-50.44-7.95-75.55-3.34-25.29-14.68-67.24-15.08-89.53-.34-18.56 22.76-93.75 28.2-118.64 7.71-35.25 15.19-70.77 20.11-106.58 1.16-3.34 37.26-20.02 43.83-24.32Z" class="cls-4"/><path d="M2481.74 3048.17c2.83 20.1.14 45.62 25.82 48.08 30.31 2.91 66.29-1.66 97.14-.95 18.08-8.47 15.46-28.21 17.17-45.21 91.78-15.3 183.34-33.14 274.49-51.83.76 51.63-.26 103.18-5.78 154.5-1.31 12.19-4.36 49.63-7.66 58.56-.3.81-8.39 12.85-9.6 14.39-9.26 11.85-24.37 18.94-39.28 20.23-65.7 5.67-144.48-1.76-211.12-2.08-107.88-.51-216.93 3.53-324.41-1.91-26.25-1.33-45.54 2.86-68.22-15.28-3.39-2.71-10.33-11.48-13.44-15.36-1.17-1.46-1.89-3.15-3.84-3.84-1.33-9.3-8.43-18.43-9.57-29.78-4.01-39.86-2.49-85.17-3.86-125.7-.67-19.84-2.56-39.61-1.92-59.5 94.53 18.97 189.14 39.34 284.09 55.67Zm-264.9-42.22c-7.13-1.59-2.74 9.35-3.82 13.42 7.13 1.59 2.74-9.35 3.82-13.42Zm666.07 19.18h-5.74v13.46h5.74v-13.46Zm-664.15 13.43h-5.74c-1.91 19.81 7.65 19.81 5.74 0Zm662.22 34.55-.94-15.34c-5.11 1.72-3.42 21.07.94 15.34Zm-662.23 0c-7.12-1.54-2.73 9.36-3.82 13.44 9.04-.14 3.43-7.69 3.82-13.44Zm660.31 19.22c-7.13-1.59-2.74 9.35-3.82 13.42 7.13 1.59 2.74-9.35 3.82-13.42Zm-658.39 13.44c-9.53.17-2.72 9.2-3.81 15.35 5.98-2.42 3.42-10.39 3.81-15.35Zm656.48 19.19c-8.23-.13-5.47 9.68-5.74 15.34 8.23.13 5.47-9.68 5.74-15.34Zm-654.55 15.34h-5.74v13.46h5.74v-13.46Zm650.71 19.21c-7.57-.29-5.77 8.12-5.74 13.44h5.74v-13.44Zm-648.81 13.43c-6.68-6.84-3.74 20.79 3.86 13.42.5-.49-3.37-12.92-3.86-13.42Zm643.05 19.2c-4.92-.96-3.37.99-4.8 3.74-8.66 16.55 7.93 11.49 4.8-3.74Zm-620 21.1c2.21-2.04-9.47-13.71-11.5-11.5-.8 6.27 5.12 12.28 11.5 11.5Zm600.8 5.78c-1.41-1.52-16.81 6.63-13.42 9.58 2.78 2.42 17.87-4.78 13.42-9.58Zm-570.09 9.57c1.77-6.19-13.88-8.89-15.34-7.66-1.77 6.19 13.88 8.89 15.34 7.66Zm32.63 1.92c.3-7.52-9.86-7.61-13.41-2.84l13.41 2.84Zm34.55-3.81c-4.19 1.26-16.87-3.54-15.34 3.82 4.19-1.26 16.87 3.54 15.34-3.82Zm32.63 0c-4.06 1.08-15.01-3.31-13.42 3.82 4.06-1.08 15.01 3.31 13.42-3.82Zm34.56 0c-4.19 1.26-16.87-3.54-15.34 3.82 4.19-1.26 16.87 3.54 15.34-3.82Zm32.63 0c-4.06 1.08-15.01-3.31-13.42 3.82 4.06-1.08 15.01 3.31 13.42-3.82Zm34.55 0c-4.06 1.08-15.01-3.31-13.42 3.82 4.06-1.08 15.01 3.31 13.42-3.82Zm32.65-.01c-3.02 1.12-13.92-3-13.43 2.84l13.43 2.9v-5.74Zm34.55 0h-13.46v5.74h13.46v-5.74Zm34.55 0h-15.38v5.74h15.38v-5.74Zm32.63 0h-13.46v5.74h13.46v-5.74Zm34.53 5.74c.32-7.79-11.45-7.62-15.33-2.84-.1 6.05 12.03 1.53 15.33 2.84Zm32.64-3.82c-4.06 1.08-15.01-3.31-13.42 3.82 4.06-1.08 15.01 3.31 13.42-3.82Zm34.55 0c-4.06 1.08-15.01-3.31-13.42 3.82 4.06-1.08 15.01 3.31 13.42-3.82Zm32.63 0c-4.06 1.08-15.01-3.31-13.42 3.82 4.06-1.08 15.01 3.31 13.42-3.82Zm34.55 0c-4.06 1.08-15.01-3.31-13.42 3.82 4.06-1.08 15.01 3.31 13.42-3.82Zm32.65 0c-28.77-2.01-3.71 9.58 0 5.74.38-.39-.23-4.19 0-5.74Z" class="cls-2"/><path d="M721.55 1165.14c-.7-5.01 1.52-13.1-.97-17.27-1.18-1.97-23.66-14.39-28.43-17.64-8.35-5.7-19.33-19.06-28.83-18.74-10.62.35-30.49 9.83-38.84 9.38-3.34-.18-3.71-1.96-5.52-3.84-2.85-2.98-27.78-42.33-27.87-44.97 6.7-14.05 19.68-25.42 28.32-38.68-6.13-20.36-10.88-41.33-11.04-62.76l-40.18-25.56c-.79-2.74 11.24-53.33 13.07-55.52 4.91-5.87 37.58-3.43 46.24-7.51 2.15-1.01 14.12-23.55 17.61-28.46 3.65-5.13 16.67-17.98 17.85-20.55 4.69-10.18-11.6-43.65-7.74-49.84 1.51-2.42 45.56-30.23 48.42-30.38 9.91 2.33 30.76 27.08 38.29 27.91 4.56.5 30.25-7.57 38.38-8.86 6.83-1.08 17.89.78 24.17-2.22 3.58-1.71 19.35-32.23 22.94-37.99 3.36-2.11 56.1 8.97 59.27 12.09 3.44 14.91 4.8 31.24 5.99 46.8 19.26 8.49 36.81 20.95 51.57 35.86 5.1 2.13 36.48-10.31 45.49-10.12 1.7.04 5.68 2.32 6.29 3.34.49.82.09 4.11 1.78 6.77 8.16 12.92 17.14 25.38 24.77 38.64.54 5.92-26.46 30.61-28.11 38.54-.54 2.61 8.05 32.66 8.99 40.09.82 6.43-1.02 15.08.62 20.5 2.02 6.68 34.89 19.69 39.61 27.64 1.29 4.26-9.32 53.59-12.07 56.3-11.03 6.04-35.68 2.12-45.2 6.62-4.39 2.07-13.99 25.08-19.17 29.78-32.27-18.45-75.92 9.14-72.93 46.08-21.02-.24-42.45-2.72-58.35 13.63-3.21 3.31-13.26 18.91-14.61 22.82-4.02.36-10-1.17-13.47.93-3.4 2.06-15.87 29.46-20.97 34.68-2.84 2.91-4.91 2.9-8.71 2.95-4.38.06-51.09-9.69-52.59-11.93.55-9.67-2.83-19.6-4.08-28.55Zm142.04-310.97c7.07-7.12-25.63-15.25-29.09-16-114-24.72-203.47 98.41-143.99 199.65 66.83 113.75 243.23 69.46 249.83-61.77.37-7.26-3.38-49.12-8.6-50.89-2.78-.94-5.01-1.01-4.83 2.9.38 8.04 4.95 18.11 5.75 26.92 11.61 127.34-145.91 192.14-225.54 95.01-74-90.28 1-219.2 116.88-207.09 7.6.79 38.13 12.73 39.58 11.27Zm-63.81 60.02c-80.59 10.5-48.57 137.2 29.33 104.17 57.31-24.3 31.93-112.16-29.33-104.17Z" class="cls-9"/><path d="M1698.58 2739.13v472.21c171.45-.02 342.99 0 514.44 0h3.84c3.1 3.88 10.05 12.64 13.44 15.36-213.35 40.35-435.94 37.88-649.15-2.52-17.01-3.22-33.91-7.14-50.87-10.65-3.53-.73-7.49 1.73-6.36-4.1 22.37-.1 44.82.06 67.19 0 .02-81.23-.06-162.56 0-243.79.07-103.27.04-206.6-.11-309.89-4.75-16.85-19.12-17.79-34.44-16.43.92-4.04 3.84-17.31 3.84-20.15v-34.55c0-6.59-5.47-20.89-7.68-27.83 5.76-2.73 9.48-10.44 15.36-13.44 2.19 1.34 7.21 3.5 9.65 2.77 29.77-20.24 58.84-41.56 88.24-62.27 10.45-7.36 22.26-13.7 32.63-21.11v276.41Z" class="cls-4"/><path d="M2656.41 811.95c-19.58 69.31 7.88 143.55 85.95 153.02 22.63 2.75 57.12-7.29 75.28-3.3 17.59 3.86 23.28 11.17 46.57 7.22 6.2-1.05 12.46-6.45 16.77-7.22 12.92-2.3 53.63 5.49 69.1 7.68 21.18 3 22.18 5.58 43.53-3.49 59.6-25.31 67.92-87.21 54.36-144.31 4.39-.33 10.72-8.23 11.52-11.52 41.7 58.51 57.57 125.88 12.31 187.95-13.28 18.21-39.51 41.58-58.38 53.91-6.57 4.29-42.66 20.98-43.83 24.32-4.92 35.81-12.4 71.32-20.11 106.58-5.44 24.89-28.54 100.09-28.2 118.64-30.69 2.19-59.88 6.63-90.64 1.38-10.56-1.8-19.77-6.32-30.29-7.14.03-37.8-20.12-119.92-29.73-159.34-3.22-13.2-12.83-55.06-20.06-63.89-1.49-1.82-27.36-12.64-32.79-15.7-85.48-48.13-142.02-115.76-96.27-217.28 6.26-13.88 15.02-26.41 23.37-39.02.77 3.24 7.19 11.34 11.52 11.52Z" class="cls-2"/><path d="m3182.36 2837.03 69.99 71.1 8.71 3.76c-.04 99.79.03 199.67 0 299.45h-378.15c3.3-8.95 6.35-46.39 7.66-58.57 5.52-51.32 6.54-102.87 5.78-154.5 4.75-3.38 8.56-8.58 9.47-14.52 2.75-17.89-.68-44.1-1.79-62.26l272.56 165.07c0-16.9.55-34.07 1.87-50.92 5.13-65.85 3.68-131.99 3.9-198.61Z" class="cls-14"/><path d="M3257.22 1806.25c.42 4.78 4.76 8.95 3.94 14.3-.31 363.78.06 727.58-.1 1091.34l-8.71-3.76-69.99-71.1c.36-108.1-.1-216.3 0-324.4.22-230.02-.23-460.09.07-690.14.38-10.59-5.85-16.22-13.51-22 22.29.15 52.95-2.62 73.95-.05 6.47.79 8.68 4.32 14.35 5.81Z" class="cls-14"/><path d="M1007.56 2639.32c7.44 150.23 17.37 301.32 49.96 448.29.32 6.28.08 9.48-5.81 12.39-11.11 5.49-47.32 12.62-59.5 11.52-8.24-.75-12.82-3.96-16.34-11.49-11.08-23.73-18.94-69.1-25.89-96l3.84-6.63v-748.69c-.85-4.68-3.23-6.01-7.15-3.33-17.47 16.79-56.12 32.5-68.11 52.84-6.48 10.99-5.74 25.7-10.71 35.36-1.4 2.71-2.58 5.08-6.16 4.38l-1.93-170.83c29.47-2.83 63.31-9.25 92.15-16.31 9.72-2.38 41.81-10.2 48.6-14.32 2.7-1.64.24-6.23 3.22-7.77-8.21 77.62-6.83 160.75-5.84 239.06 1.15 90.32 5.21 181.29 9.68 271.53Z" class="cls-8"/><path d="M1149.6 691.02c3.21 2.35 10.43 11.22 14.02 11.16 8.32-6.7 36.01-4.83 41.69-8.24 3.23-1.93 12.87-24.7 16.56-25.75 6.56 1.83 37.14 5.51 38.79 10.63 1.73 5.39 1.31 27.27 2.5 29.18.51.81 13.71 6.9 16.79 9.11 3.66 2.62 14.88 13.23 16.89 13.84 9.97 3.02 27.75-7.33 33.16-4.53 1.81.94 19.13 28.46 19.26 30.98.42 7.97-13.4 17.25-16.35 23.94-2.16 4.91 3.39 21.12 4.58 27.95.89 5.13-1.03 11.55 1.17 16.11s21.68 11.76 25.99 16.7c.78 3.18-4.67 31.79-6.23 35.66-3.59 8.87-27.74 3.75-33.83 7.45-1.05.64-9.16 17.25-12.16 21.43-2.58 3.6-10.18 9.57-10.9 12.27-2.12 7.9 9.81 26.76 3.54 34.11-1.54 1.8-27.97 18.11-29.71 18.17-6.99.26-18.53-16.18-25.07-17.24-9.94-1.61-30.04 8.42-41.84 6.09-6.82 5.14-12.8 26.86-21.15 26.53-3.05-.12-32.57-7.4-33.89-8.55-3.96-3.43-2.83-24.15-4.74-29.81-10.68-4.64-29.99-25.17-40.01-24.84-6.53.22-18.38 5.83-23.48 5.54-6.88-.39-17.97-26.22-23.56-31.89-.77-5.09 18.36-21.08 18.93-26.58.33-3.16-4.31-16.45-5.27-21.59-1.16-6.21.59-17.12-3.81-21.65-3.58-3.68-20.73-10.18-22.66-13.3-2.31-3.75 3.62-35.24 5.76-38.45 3.95-5.94 27.8-2.58 33.25-6.1.51-.33 3.73-8.54 5.32-11 3.18-4.9 17.15-21.87 17.75-24.62 1.14-5.23-3.32-7.12-3.51-8.16-1.2-6.41-3.39-20.53.86-25.06 1.1-1.18 25.82-16.69 27.41-16.92 3.89-.57 10.46 4.88 13.95 7.43Zm45.64 44.68c-66.45 7.32-103.3 81.65-69.48 139.44 49.46 84.5 182.73 42.62 171.4-60.07-.35-3.18-5.85-28.28-12.29-18.53-1.56 2.36 3.52 29.69 3 37.56-3.56 54.17-58.98 89.37-110 71.48-93.79-32.9-59.38-179.63 48.24-157.65 4.06.83 19.91 8.84 21.38 1.61 2.44-12.01-44.05-14.74-52.24-13.84Zm1.85 55.6c-12.83 2.19-25.78 17.09-27.83 29.74-6.36 39.21 46.62 60.26 68.33 26.11 18.52-29.13-7.07-61.57-40.5-55.85Z" class="cls-9"/><path d="M2690.96 723.65c-1.13-.56-4.42-.15-7.07-1.48-15.72-7.87-64.74-37.06-78.34-37.06-20.04 0-59.08 31-79.64 37.73-8.77.82-10.01-3.99-9.64-11.58 1.13-23.08 15.38-60.82 11.1-82.18-.83-4.13-3.24-6.07-5.32-9.08-14.18-20.54-41.85-37.49-55.72-58.64-.31-2.31-.25-4.58.98-6.65 4.45-7.44 74.15-8.42 89.19-18.3 16.55-10.87 29.22-64.44 45.59-79.25 7.31-1.88 8.98.9 12.46 6.03 11.77 17.38 24.52 62.98 40.04 73.21 16.3 10.75 62.05 8.92 82.91 14.99 7.74 2.25 9.63 6.75 5.39 14.01-10.62 14.49-54.85 47.49-58.7 62.22-6.16 23.61 10.98 61.24 10.81 85.52-.03 4.45-1.14 7.27-4.03 10.52Zm-32.62-24.96c15.31 2.12 21.81-4.93 20.9-19.86-1.75-28.59-16.82-43.18 4.99-70.37 9.74-12.14 43.75-29.53 27.9-47.05-11.43-12.64-52.89-1.01-71.56-24.42-10.88-13.65-18.76-55.52-40.39-49.03-14.74 4.42-19.02 52.54-49.28 62.04-13.7 4.3-33.79 2.67-46.15 7.6-2.21.88-8.22 4.48-5.73 6.73 1.49 1.34 6.61-2.85 9.09-3.37 22.47-4.67 49.45-1.37 65.47-20.91 9.55-11.65 23.59-65.77 41.43-42.77 18.38 23.68 10.6 49.09 49.37 58.12 11.2 2.61 55.45 1.59 46.76 20.4-3.24 7.01-27.12 24.87-33.61 33.65s-10.01 20.15-9.73 30.73c.32 11.98 8.81 36.18 7.44 45.65-1.08 7.46-6.96 7.46-12.18 9.04-2.92.89-5.74-2.18-4.72 3.82Zm-117.11-72.94c4.54-4.21-23.65-33.03-27.82-36.46-2.16-1.78-3.1-4.66-6.71-3.83-3.74 4.08 19.51 23.75 22.97 27.87 4.42 5.27 4.42 14.05 11.56 12.42Zm86.39 49.94c-.47-.47-10.91-3.49-12.64-3.71-13.07-1.63-24.08-.08-35.4 6.59-2.49 1.46-4.84-.34-3.78 4.76 14.24-4.1 21.36-9.28 37.27-7.51 1.13.13 21.91 7.23 14.54-.13Z" class="cls-14"/><path d="M825.21 2873.5c2.88-137.2 7.04-281.31 23.03-417.53.34-2.86 1.51-5.87 3.83-2.83 14.08 173.64 46.75 345.64 88.31 514.42-11.93-4.79-23.4-14.91-33.54-23.08-25.87-20.82-49.53-43.78-73.92-66.21-2.37-2.18-3.95-4.8-7.71-4.76Z" class="cls-4"/><path d="M1591.09 2965.63c-.05 81.23.03 162.56 0 243.79-22.37.05-44.83-.11-67.19 0-3.2.01-6.4-.01-9.6 0-.1-92.45.09-184.97.08-277.45 0-14.89-.06-31.15-.08-45.03 22.1 21.28 40.29 48.21 61.38 70.11 4.42 4.59 8.05 9.99 15.4 8.59Z" class="cls-14"/><path d="M1232.14 3209.41c1.35 2.23 3.64 2.76 5.76 3.84 3.29 1.68 8.03 3.28 10.61 5.72 8.28 7.82 9.41 20.85-4.01 22.96-26.27 4.12-59.62-1.3-86.18-1.88-35.21-.76-70.62.05-105.73-1.76-10.73-.55-28.28-.85-37.85-2.46s-22.02-12.27-24.02-22.05c-2.33-11.45 1.56-39.6 3.4-52.35 1.24-8.59 5.22-17.64 3.86-26.87 5.11.93 2.27 8.18 5.08 9.7 3.04 1.65 18.87 5.03 22.96 5.41 11.64 1.09 38.84.16 35.28-17.03l163.77 75.3 7.07 1.48Z" class="cls-8"/><path d="M3047.03 616.16c11.08-2.4 33.1-45.79 40.27-44.16 5.86 1.34 12.5 44.16 19.11 51.96 8.04 9.49 51.28 17.02 52.88 22 .86 2.68-.36 3.86-1.92 5.66-5.83 6.74-26.24 16.32-34.35 23.23-18.44 15.74-6 38.48-9.77 59.33-.53 2.92-1.32 4.78-4.7 4.83-8.2.13-33.85-28.9-44.37-30.69-11.78-2-52.87 17.01-56.49 13.39-1.55-23.34 22.63-42.7 10.43-65.15-4.75-8.74-23.02-27.55-25.01-34.53-.72-2.51.06-5.9 2.1-5.9 12.93 0 41.18 2.31 51.83 0Zm29.75-21.11c-.22.2-2.22-.54-3.93 1.33-.9.99-.8 3.69-1.82 4.93-4.03 4.87-16.55 20.62-22.08 20.62h-35.51v3.84h33.59c7.08 0 12.11-9.02 17.69-12.07 1.76-2.43 11.03-18.23 12.06-18.64.91-.36 11.02-.3 11.44.09 1.12 1.05 2.75 26.63 9.66 28.7-3.08-10.03-4.03-34.11-18.29-32.84-4.48.4-2.39 3.68-2.81 4.05Zm54.6 66.14c3-2.14 7.07-1.74 8.45-6.06 4.9-15.34-21.02-16.49-29.85-21.3-2.65-1.44-10.22-9.96-12.07-8.06-6.39 6.54 28.06 17.47 30.69 18.3 6.1 1.93 12.66.22 5.9 11.58-2.68 4.51-12.26 7.13-13.55 8.54-1.84 2.01 1.22 5.8 3.78 3.76.15-.12-.62-1.99 1.71-3.57 1.53-1.04 3-1.78 4.95-3.17Zm-109.53-13.05c-1.91-3.11-1.96-7.72-6.47-8.95-.93 2.23 5.16 12.88 5.78 13.42 1.25 1.1 4.81.56 3.81-2.85-.51-1.75-2.47-.57-3.12-1.63Zm6.92 6.42c-5.67-5.45-3.08 11.56 1.93 11.51.2-2.24-.95-10.56-1.93-11.51Zm74.89 63.33c-.48.73-8.5.93-9.59 2.87 6.86 7.11 7.81-.8 9.59-2.87.19-.23 3.31.89 3.88-1.26 2.12-8.07-2.26-22.52.79-31.5l10.68-17.13-10.42 7.8c-8.92 13.14-2.32 38.11-4.92 42.1Zm-26.88-11.53c-7.53-9.89-20.05-7.56-30.72-5.73-1.43 7.06 10.6 1.29 16.33 1.8 5.42.47 8.98 4.32 14.39 3.93Z" class="cls-14"/><path d="M765.7 3140.31c7.26-.84 1.33 6.91 6.6 11.64 5.87 5.27 37.67 6.87 41.13 1.51.85-1.31.39-7.07.26-9.32 5.27.69 9.7 9.51 12.32 13.6 6.05 9.48 10.88 18.9 14.59 29.56 5.48 15.76 18.94 55.2-6.66 58.66-12.64 1.71-70.44-.87-81.18-5.37-18.99-7.96-5.98-43.09-1.86-58.47 3.99-14.89 10.81-28.24 14.81-41.82Z" class="cls-8"/><path d="M2880.99 834.98c8.5 17.3 18.37 37.36 21.1 56.64.79 5.56-1.1 13.39.02 18.22-2.43 10.13-23.93 10.54-24.94 11.53-1.45 1.41 3.09 35.15 3.83 40.3-4.32.77-10.57 6.17-16.77 7.22-23.29 3.95-28.98-3.36-46.57-7.22l5.76-51.83c3.06.75 8.06-.52 11.51-.01.66-.57-4.14-15.16-5.76-16.3-2.71-1.91-7.8-1.04-12.5-4.77-5.12-4.06-8.2-12.06.08-13.52 5.26-.93 15.43 5.67 16.27.97.36-2.02-10.91-16.6-9.56-21.92 12.52-5.4 26.69-6.91 39.39-11.55 3.26-1.19 16.19-6.39 18.16-7.76Z" class="cls-7"/><path d="M2854.12 798.51c-.62.76-.87 4.97-2.94 7.56-17.5 21.89-38.15 52.71-56.58 72.08-1.33 1.4-6.56 6.39-7.66 6.74s-4.26.1-5.76 0l-5.76-1.92c-6.01-2.56-9.31-5.01-9.53-12.68-.38-13.3 10.48-12.93 11.44-14.22 1.44-1.91-4.47-11.21-4.92-15.22-1.8-16.09 11.57-27.6 26.03-30.82 1.13-.25 2.64.21 3.84 0 .39 2.86 5.3 2.88 5.76 0 2.05-.86 2.24-9.89 5.72-14.43 9.7-12.68 33.07-12.09 40.35 2.92Z" class="cls-13"/><path d="M2854.12 798.51c7.32-8.95 20.56-18.87 30.79-8.18 11.73 12.26 10.05 34.97-3.91 44.65-1.97 1.36-14.9 6.57-18.16 7.76-12.69 4.64-26.86 6.15-39.39 11.55-1.35 5.31 9.93 19.9 9.56 21.92-.85 4.7-11.01-1.9-16.27-.97-8.29 1.46-5.2 9.46-.08 13.52 4.71 3.74 9.79 2.86 12.5 4.77 1.61 1.14 6.42 15.73 5.76 16.3-3.45-.51-8.44.77-11.51.01-.79-.19-12.15-6.82-14.06-8.02-8.06-5.07-13.8-13.37-22.42-16.93 1.1-.34 6.33-5.34 7.66-6.74 18.43-19.37 39.08-50.18 56.58-72.08 2.07-2.59 2.32-6.8 2.94-7.56Z" class="cls-8"/><path d="M1051.71 3100c2.47 8.48 3.82 17.26 5.86 25.86.66 2.79 3.46 5.46 3.74 6.77 3.56 17.19-23.64 18.12-35.28 17.03-4.1-.38-19.92-3.77-22.96-5.41-2.81-1.52.03-8.77-5.08-9.7 1.36 9.23-2.62 18.28-3.86 26.87-1.08-16.32 2.35-34.13-1.92-49.91 12.19 1.11 48.39-6.02 59.5-11.52Z" class="cls-7"/><path d="M2950.1 969.35c-15.48-2.19-56.19-9.98-69.1-7.68-.74-5.14-5.27-38.88-3.83-40.3 1.02-.99 22.51-1.4 24.94-11.53.73 3.15 36.45 41.66 42.18 48.99 2.47 3.16 5.16 6.38 5.81 10.51Z" class="cls-4"/><path d="M3059.51 810.03c-.8 3.29-7.13 11.19-11.52 11.52-8.24.62-32.11-15.79-35.47-23.07-7.43-16.1 20.12-48.61 38.44-28.85 6.18 6.67 10.58 31.99 8.55 40.4ZM809.85 3111.51c1.61 10.24 3.25 22.37 3.84 32.63.13 2.25.59 8.01-.26 9.32-3.46 5.35-35.26 3.75-41.13-1.51-5.27-4.73.66-12.49-6.6-11.64 3.1-10.52-1.55-18.09-1.92-28.79 11.03 3.09 34.95 3.03 46.07 0Z" class="cls-7"/><path d="M502.08 902.61c2.25-.19 6.27 1.53 7.39 3.38 1.87 3.1-.49 28.56-1.83 32.75-3.09 9.62-16.7 7.9-16.5-4.78.11-7.06 2.72-30.66 10.95-31.35ZM651.9 689.5c10.36-2.34 16.62 3.61 10.29 12.24-.82 1.12-21.73 14.55-23.26 15.12-9.61 3.58-16.54-4.19-11.6-11.54 1.42-2.11 21.92-15.23 24.57-15.83Zm-53.74 38.27c7.96-2.21 12.52 5.87 9.16 13.13-.6 1.3-18.88 19.6-20.17 20.2-6.92 3.25-15.41-4.15-12.5-10.53.69-1.51 21.94-22.36 23.52-22.8Zm357.03-38.35c13.27-3.89 48.53 26.43 26.37 28.52-6.24.59-46.72-22.55-26.37-28.52Zm-163.1-25.74c-2.01 2-29.02 5.04-33.04 4.26-9.07-1.74-9.64-11.53 0-15.25 3.12-1.21 26.18-3.87 28.5-3.44 5.44 1.01 9.14 9.87 4.54 14.43Zm99.67-1.17c7.49-2.53 43.35 8.27 34.35 20.96-3.43 4.83-31.4-3.85-35.54-6.94-4.85-3.63-4.35-12.15 1.19-14.02Zm-176.38.14c6.96-.78 14.09 1.33 11.68 9.74-1.6 5.57-35.23 16.71-39.23 11.07-8.27-11.66 19.61-19.93 27.55-20.82Zm109.26-11.55c9.01-2.68 42.04-1.79 36.82 13.74-1.86 5.55-29.77 2.31-34.9.82-6.81-1.97-10.4-12.04-1.92-14.56ZM552.06 779.62c4.99-1.53 11.96.77 12.06 6.38.1 6.01-24.99 44.13-30.4 24.57-1.45-5.25 14.01-29.62 18.34-30.95Zm-32.64 59.54c2.39-.72 6.38-.93 8.39.5 5.64 4.01-5.88 35.67-11.07 37.25-23 6.98-3.3-35.94 2.68-37.74Zm491.43-111.4c6.66-1.85 21.33 12.82 19.48 19.48-4.77 17.12-38.29-14.26-19.48-19.48Zm-516.5 243.72c16.44-5.49 15.42 25.98 7.01 28.31-14.4 4-11.91-26.68-7.01-28.31Zm103.67 218.82c8.72-2.93 28.93 13.35 19.09 21.07-11.12 8.73-30.36-17.29-19.09-21.07Zm584.22-574.13c1.5 1.55.07 7.47-3.26 9.22-1.13.6-23.71 5.71-24.99 5.7-2.38-.02-5.85-2.66-6.2-4.6-1.46-8.16 33.12-11.69 34.44-10.32Zm-48 13.44c0 3.02.89 6.33-1.91 8.64-.95.79-21.32 9.99-22.54 10.21-8.58 1.51-11.74-4.35-3.78-9.66 3.86-2.57 25.12-12.31 28.23-9.19Zm66.23-15.37h28.79c3.12 0 5.49 11.31-1.73 11.42-8.64-4.79-38.1 4.09-27.06-11.42Zm-162.51 101.38c-3.9 2.24-10.41-.21-8.94-5.95.6-2.32 12.56-17.93 14.9-19.71 5.33-4.08 11.28-3.22 9.4 3.6-.36 1.3-14.2 21.39-15.36 22.06Zm45.76-62.68c2.59-.72 5.78.35 6.38 2.6 1.41 5.31-20.93 25.32-26.94 21.15-7.19-4.99 17.73-22.97 20.56-23.75Z" class="cls-4"/><path d="M715.79 2840.86c-.33-3.04.03-3.58 0-3.84l1.63 2.64-1.63 1.2Zm9.6 84.46c-.42-3.36.03-3.58 0-3.84l1.7 2.63-1.7 1.21Z" class="cls-8"/><path d="M1237.9 3209.41v3.84c-2.11-1.08-4.4-1.6-5.76-3.84 1.91.07 3.85-.11 5.76 0Z" class="cls-7"/><path d="M733.07 2982.91c-.51-3.58.04-3.58 0-3.84l1.89 2.7-1.89 1.14Zm-21.11-180.44c-.27-2.84.02-3.58 0-3.84l1.63 2.64-1.63 1.2Zm-1.92-21.11c-.24-2.71.02-3.58 0-3.84l1.63 2.64-1.63 1.2Zm34.55 282.17c4.54-.58 5.2.52 1.92 3.84-.04-.21-1.34-.68-1.92-3.84Zm-9.6-67.19c-.56-3.69.04-3.58 0-3.84l1.88 2.7-1.88 1.14Zm15.36 95.98c3.26-.19 4.49-.69 3.82 2.86l-1.9.98c-.22-.73-1.44-1.83-1.92-3.84Zm-36.48-270.65c-.3-2.92.03-3.58 0-3.84l1.63 2.64-1.63 1.2Z" class="cls-8"/><path d="M2808.05 810.03c-.46 2.88-5.36 2.86-5.76 0 1.71-.3 4.63.47 5.76 0Z" class="cls-1"/><path d="M761.86 3111.51c-2.55-.98-2.55-2.32-3.84-3.84l3.84 3.84Z" class="cls-8"/><path d="M2760.07 1800.49c-.11.59 0 1.31 0 1.92.01 1.98-.96 4.57 1.12 5.96 5.69 3.79 50.63 4.66 58.87 3.17 7.39-1.34 6.58-1.83 9.11-7.21.51-1.08 1.9-1.69 1.92-3.84 33.82.87 67.93-1.17 101.73 0 .15 6.25.18 6.99 6.62 7.78 27.66 3.35 61.95-2.7 90.37-.08l2.82-7.69c45.22-1.17 91.03-.29 136.28 0 7.66 5.78 13.89 11.41 13.51 22-.3 230.04.15 460.12-.07 690.14-5.82-1.07-3.69 2.94-3.84 6.63-.65 16.36-1.13 32.7-1.93 49.02l-5.65-1.05-682.38-427.1-10.66-1.81c.1-105.25-.02-210.56-.07-315.83-.18-10.86 7.36-20.95 18.27-22.04l263.97.04Z" class="cls-14"/><path d="m2477.9 2138.33 10.66 1.81 682.38 427.1 5.65 1.05c.8-16.33 1.28-32.67 1.93-49.02.15-3.69-1.98-7.7 3.84-6.63-.1 108.1.36 216.3 0 324.4-.22 66.61 1.23 132.75-3.9 198.61-1.31 16.85-1.86 34.02-1.87 50.92l-272.56-165.07c-2.2-35.99-6.75-95.15-18.17-128.67-3.79-11.11-9.5-14.36-20.22-17.21-.21-.06-.84-1.29-3.84-1.92-3.21-.67-7.94.41-11.52 0-.7-.08-4-1.57-7.68-1.92-38.01-3.58-78.81-4.55-117.09-5.76 4.06-17.89-17.54-20.73-30.72-21.11v-51.83c6.69-1.05 11.61-6.45 12.99-12.92 5.3-24.75 3.64-57.84-24.5-65.78-.13-.04-.45-1.7-1.92-1.92-35.73 1-71.79-1.35-107.49 0-.64.02-1.28-.03-1.92 0-2.36.1-5.29 1.8-7.68 1.92l-.96-1.88-.96 1.88c-28.96 1.59-55.71 3.58-84.46 7.68.12-161.2-.16-322.51 0-483.71Zm-424.21 238.02c16.29 12.5 34.18 21.5 51.83 30.71 4.76 2.48 19.9 13.14 21.11 13.44.03 13.09 8.92 28.09 21.11 32.63 4.81 1.79 4.88 3.17 11.04.46 2.88-1.27 18.41-15.39 21.65-18.64 13.72-13.78 34.59-40.96 42.17-58.6h63.34c2.44 7.83 10.58 12.71 9.69 21.98l-.1 365.76c-27.15.29-58.78-2.01-85.3 2.03-17.81 2.72-19.78 21.17-21.92 35.67-6.52 44.26-7.12 112.22-4.19 157.21.78 11.94 1.37 27.79 13.52 33.51-.64 19.89 1.25 39.67 1.92 59.5l-490.48-355.09c-8.46-1.97-6.49 30.99-6.67 35.58-.14 3.69 1.98 7.7-3.84 6.63v-276.41c37.97-27.17 58.24-51.15 88.3-86.38h266.81Z" class="cls-14"/><path d="M1268.61 1426.19c14.93 55.53 36.29 108.73 72.94 153.56-.59.05-2.83 2.11-6.49 2.06-20.23-.3-40.48-.07-60.69-.14 3.74-19.86-29.34-8.38-40.3-9.61.03-5.87 9.61-20.11 3.93-24.12-3.98-2.81-67.8 11.47-78.37 11.96-5.98 2.59-4.34 18.38-7.99 20.92-2.76 1.92-28.34 1.84-34.84 3.6-4.98 1.34-4.45 4.61-5.58 8.76l-1.92 1.92c-28.23 2.63-61.44 2.71-89.15 7.79-3.48.64-6.43 1.97-8.85 4.59l-45.97 150.78c-14.65.83-23.08 5.06-31.08 17.86-11.63 18.62-11.61 36.17-9.23 57-26.97 13.28-55.5 27.91-84.46 36.47-26.45 7.82-66.82 14.4-94.06 11.52-.13-.01-.39-1.68-1.92-1.92-21.46-3.29-34.22-7.7-49.91-23.03l1.9-111.33c-10.93 8.95-23.21 32.46-24.93 46.07-29.68-14.51-61.34-25.94-94.06-30.71-.19-.93-1.02-1.79-1.92-1.92-11.9-1.71-24.42-3.68-36.47-3.84-.97-2.44-5.69-2.41-7.68-1.92.62-18.49 8.28-37.56 15.63-54.43 25.53-58.65 74.92-115.72 122.55-157.7 11-9.7 39.92-35.37 51.87-40.27 20.95-8.59 67.63-15.21 91.76-19.57 6.09-1.1 40.25-7.89 42.59-6.36.32.21.54 3.9 3.87 6.65 21.35 17.73 72.96 15.81 98.28 8.16 15.1-4.56 43-15.61 47.57-32.09.63.04 1.29.02 1.92 0 91.48-2.72 171.93-3.21 261.05-30.71Z" class="cls-2"/><path d="M1036.35 1977.09c-33.41-.35-84.5 1.74-116.16-1.89-6.32-.72-10.08-1.74-10.7-8.64-1.2-13.4 15.51-55.6 19.37-72.02 1.29-5.47 3.71-11.8 3.84-17.28 17.5 1.57 29.36-.81 43.14-11.56 6.36-4.96 17.63-20.26 24-22.23 8.59-2.66 14.68 10.93 28.73 2.03 12.6-7.98-.74-14.28-5.66-21.96 6.49-.19 15.28 1.93 19.3-4.69 7.55-12.42-6.18-12.08-11.62-20.26 5.6-.49 11.82 1.25 17.23-1.02 4.69-1.97 13.47-14.49 7.74-19.18-2.45-2.01-30.88-10-36.49-11.49-16.68-4.43-36.58-9.61-53.74-8.65l45.97-150.78c2.42-2.61 5.38-3.95 8.85-4.59 27.71-5.08 60.92-5.16 89.15-7.79h1.92c-9.65 37.78-8.72 35.81 29.83 34.63 34.83-1.06 78.95-2.17 113.2-5.84 2.88-.31 6.92-.52 8.74-3.23l11.39-39c20.21.07 40.46-.16 60.69.14 3.67.05 5.91-2.01 6.49-2.06s1.48-.14 1.92 0c.65.2 2.22 3.02 5.09 3.46 9.41 1.45 20.45-3.23 19.97 10.84-34.65 75.36-72.95 150.2-113.03 223.08-29.78 54.14-60.4 110.31-98.27 158.95-39.97 1.52-80.7 1.42-120.89 1Z" class="cls-9"/><path d="M928.86 1894.55c-3.86 16.42-20.58 58.61-19.37 72.02.62 6.9 4.38 7.91 10.7 8.64 31.67 3.62 82.75 1.53 116.16 1.89-8.23 50.87-27.18 100.13-32.63 151.64-2.98 1.53-.52 6.13-3.22 7.77-6.79 4.12-38.88 11.94-48.6 14.32-28.84 7.06-62.68 13.48-92.15 16.31-49.84 4.78-98.73 1.76-147.8-7.68.81-26.29-7.52-66.76-9.58-95.03-2.2-30.3-3.45-60.83-3.86-91.16 51.51.09 97.88-17.01 143.96-36.47 1.17-.49 3.72-.06 5.72-.93 27.79-12.1 53.83-27.36 80.66-41.3Zm961.67 63.34c-.4.89.39 2.91 0 3.84-4.41 10.5-11.74 11.83 1.02 22.98 11.02 9.64 32.05 13.19 45.49 7.21 9.07-4.04 5.89-8.28 7.24-14.83.44-2.14 1.68-4.32 1.92-5.76l61.39 20.19c8.39 24.7 17.05 52.65 35.5 71.99 2.76 2.9 15.36 13.67 18.28 15.31-13.62 17.27-27.11 36.68-28.79 59.5-25.24-11.09-41.08-29.45-56.62-51.79l-98.86 142.01v1.92c-9.67 1.58-17.21 6.53-26.46 9.05-36.6 10.01-70.02 1.77-105.99-5.21-.29-2.27-3.72-5.14-3.71-8.63.02-3.85 4.76-10.12 5.63-14.41 8.4 10.7 21.96 1.94 29.74-5.77 16.53-16.39.88-25.67-11.79-35.28-.9-.69-.52-3-.67-3.1l44.18-137.22c-4.7-1.76-12.58 1.95-17.27 3.84-5.26 2.12-27.59 13.29-30.74 16.28-10.23-16.72-23.14-31.78-36.47-46.07 43.68-40.62 108.86-54.47 167-46.07Z" class="cls-2"/><path d="M1650.59 1161.3c-.82 1.12-2.44 5.35-3.84 7.68s-2.31 5.59-3.84 7.68c-8.82 12.02-19.76 21.07-34.66 24.28-9.07 52.76-28.75 102.1-50.79 150.44-.9 1.98-.45 4.69-.93 5.71-.9 1.92-7.69 5.55-5.76 11.52-6.63-1.87-6.41 11.85-7.68 13.44-4.44 5.53-1.35 1.91-3.84 7.68-.26.6-4.82 5.17-7.68 9.6-47.46 73.44-109.57 140.43-188.11 180.43-.44-.14-1.34-.05-1.92 0-36.65-44.83-58.01-98.03-72.94-153.56 79.13-24.42 157.19-64.08 218.82-119.01 7.79-6.94 16.56-9.54 21.11-21.11 6.1-1.01 9.81-5.87 11.52-11.52 15.06-13.06 25.87-32.18 34.55-49.91 15.35-31.35 16.03-36.66 15.36-71.02-.31-15.67-1.58-24.94 7.68-38.39.85-1.23 4.82-2.56 5.76-3.84 11.06 23.86 32.43-5.2 44.09-14.47 2.12-1.69 2.48-3.68 5.84-1.97 10.43 5.31-1.27 22.28-3.29 29.48-6.73 23.99 1.22 26.14 20.55 36.86Z" class="cls-7"/><path d="M1769.6 577.77c4.92 3.62 13.2 7.18 19 8.85 6.1 1.76 3.77-.68 4.03-5.01 6.33-.29 9.47-3.99 16.01-3.72 14.18.58 45.06 9.76 60.77 13.32 1.55.35 3.45 2.5 5.74 1.92.96-11.27 4.28-22.41 17.2-24.12 2.49-.33 33.51 5.53 34.64 6.89.19.22.79 5.66-.98 5.74-20.49-2.85-44.01-19.14-45.09 13.4 67.22 14.33 134.67 28.44 201.56 44.16 14.45 3.4 37.79 6.84 50.47 11.91 8.65 3.46 9.82 10.95 16.71 13.04l-3.84 21.1c2.69 2.54 62.36 8.37 72.98 12.46 6.75 2.6 12.2 9.8 11.55 17.2l-125.41 738.54c-.68 9.19-5.36 14.22-10.94 20.73-32.85-1.82-65.73-8.43-98.25-14.04-149.23-25.74-298.62-52.89-444.97-91.53-1.93-5.97 4.86-9.6 5.76-11.52 167.63 46.96 340.44 73.15 511.81 103.41 9.5 1.88 17.68-1.35 22.22-9.92l122.19-712.78c.8-9.73 2.28-21.15-9.24-24.82s-33.1-4.64-46.53-7.22c-120.63-23.12-238.19-58.76-358.63-82.86-16.51-5.9-9.87-15.88-17.74-20.65-3.96-2.4-51.56-19.36-56.57-20.19-8.69-1.44-17.77-1.04-22.05 7.76l-110.91 508.13c-1.94 2.34-5.72 10.77-7.68 13.44-.93 1.27-4.91 2.61-5.76 3.84 11.71-47.63 20.24-96.06 30.71-143.96 29.66-135.68 61.12-271.12 90.22-406.93 3.88-.86 7.26-3.28 10.68-3.74 14.67-1.98 43.5 13.28 60.34 17.18Z" class="cls-9"/><path d="M2383.84 2647c-11.28 10.17-15.74 51.59 0 55.67v42.23c-14.07.25-27.6 1.32-24.95 19.2-21.08.1-42.26-.23-63.34 0l.1-365.76c.88-9.27-7.25-14.15-9.69-21.98 22.58 0 58.85-3.07 79.54.12 12.2 1.88 18.09 12.17 18.44 23.79l-.08 246.73Z" class="cls-14"/><path d="M2126.63 2376.35c-2.17 12.88-12.57 21.87-21.11 30.71-17.64-9.21-35.53-18.21-51.83-30.71-29.3-22.49-59.14-53.69-63.36-92.14-17.27 9.56-36.3 15.81-55.58 20.22-29.47 6.74-69.99 13.51-99.88 12.41-47.85-1.76-76.64-23.94-92.14-69.1.54-2.37 2.13-11.78 1.92-13.44 35.97 6.99 69.39 15.22 105.99 5.21 9.25-2.53 16.79-7.47 26.46-9.05 3.45-.57 9.37 1.68 11.52-1.92 36.07-.88 73.27-11.24 108.48-13.41 14.43-.89 25.36-.81 36.24 9.78l93.3 151.44Z" class="cls-8"/><path d="M2120.87 1504.89c-11.1-5.45-20.78-19.97-26.87-30.71 5.58-6.51 10.26-11.54 10.94-20.73l125.41-738.54c.65-7.4-4.81-14.6-11.55-17.2-10.62-4.09-70.28-9.92-72.98-12.46l3.84-21.1c47.38 14.38 117.5 5.32 113.32 75.89l-127.34 738.36c-2.94 12.18-5 18.36-14.78 26.49Z" class="cls-13"/><path d="m2571.95 2612.44.96 1.88.96-1.88c35.7-1.35 71.76 1 107.49 0l1.92 1.92c28.14 7.95 29.8 41.03 24.5 65.78-1.39 6.47-6.3 11.87-12.98 12.92-8.23 1.29-19.86-.47-28.79 0-62.48 3.28-125.85 5.82-188.11 7.68-18.92.56-39.1 1.5-57.59 1.92-9.24.21-19.67.55-28.79 0-2.36-.14-5.8.49-7.68 0-15.74-4.08-11.28-45.5 0-55.67 14.31-12.9 73.38-22 94.06-24.95 28.75-4.1 55.5-6.08 84.46-7.68.64-.04 1.28.03 1.92 0 2.39-.12 5.31-1.82 7.68-1.92Zm-92.14 23.03c2.33-2.27-.79-7.89-6.43-7.57-14.71.81-34.72 5.02-49.25 8.52-22.23 5.36-41.98 7.5-44.2 34.49-.48 5.85-2 18.91 5.82 18.31.25-13.56-.26-31.97 13.99-38.79 10.28-4.92 40.36-10.44 52.77-12.5 4.55-.75 26.32-1.5 27.3-2.46Z" class="cls-6"/><path d="M1019.08 1359.01c-20.05-2.29-65.32-24.58-72.94-24.95.09-5.47-5.64-29.22-8.11-32.19-2.95-3.55-25.29-4.03-33.79-17.08-9.18-14.08-4.19-25.85 13.58-23.27 5.59.81 21.89 11.98 24.35 4.17.09-8.05-21.43-38.67-18.24-44.87 3.97-7.72 70.22-22.13 84.12-27.37 10.92-4.12 24.66-10.02 34.08-16.79 17.99 48.97 94.87 174.33-2.91 182.32-5.63.46-14.63.66-20.13.03Z" class="cls-7"/><path d="M1529.66 2639.32c3.92 5.51 15.38 19.96 21.11 15.36 4-3.22 4.61-10.32 5.76-15.36 15.32-1.37 29.69-.42 34.44 16.43.15 103.29.18 206.62.11 309.89-7.35 1.4-10.98-4-15.4-8.59-21.09-21.9-39.28-48.82-61.38-70.11-.09-69.62 4.97-149.7.08-217.94-.88-12.31-2.19-22.94-13.51-29.68h28.79Z" class="cls-14"/><path d="M2921.3 1301.42c.4 22.29 11.74 64.24 15.08 89.53 3.32 25.11 5.14 50.41 7.95 75.55-6.17.08-12.4-3.77-18.32-3.91-4.56-.11-8.73 2.13-13.27 2.07-11.31-.13-20.6-2.9-31.75-.08-4.84-24.19-9.02-48.67-13.45-72.95h-5.74c-1.28 11.47-2.32 23.12-3.85 34.56l-69.1-1.92c2.85-41 11.48-88.65 11.52-128.61 10.51.82 19.73 5.34 30.29 7.14 30.76 5.25 59.95.81 90.64-1.38Z" class="cls-8"/><path d="M967.25 1084.52c7.57 4.33 13.39 14.6 21.11 19.2-.53.82-.92 9.12-6.88 17.12-38.65 51.88-81.31 102.14-121.81 152.69-2.29 2.86-4.51 4.32-3.76 8.71-4.9-3.08-28.14 3.73-42.23-7.68-.77-.62-2.56-6.99-5.76-7.68-5.73-21.81-.7-38.9 21.07-47.19-2.76-9.97-10.83-18.11-11.36-28.9-.2-4.14 2.35-19.7 3.73-23.72s11.39-19.52 14.61-22.82c15.89-16.36 37.33-13.87 58.35-13.63-2.99-36.94 40.66-64.53 72.93-46.08Z" class="cls-13"/><path d="M1550.78 1368.61c146.35 38.65 295.74 65.79 444.97 91.53 32.52 5.61 65.4 12.22 98.25 14.04 6.09 10.75 15.77 25.26 26.87 30.71-9.4 7.82-16.93 10.34-29.5 9.38l-559.79-114.96c2.86-4.43 7.42-8.99 7.68-9.6 16.86.85 37.94 11.37 53.7 12.68 6.37.53 8.67-4.78 3.37-7.37-13.87-6.78-38.14-6.98-53.23-12.99 1.27-1.58 1.05-15.31 7.68-13.44Z" class="cls-8"/><path d="m1834.86 2316.84-47.99 59.5c-30.06 35.23-50.32 59.21-88.3 86.38-10.37 7.42-22.18 13.75-32.63 21.11-4.42 1.49-4.09 2.27-7.36-1.16-15.93-16.74-33.43-35.75-46.39-54.51 23.96-21.88 49.6-25.24 80.16-33.11 7.78-21.25 16.12-42.39 23.53-63.79 8.59-24.82 21.23-58.68 26.84-83.53 15.5 45.16 44.28 67.34 92.14 69.1Zm1023.1-890.65c-14.07 105.58-26.64 211.45-38.31 317.36-.29 1.33-4.63 3.03-5.84 3.2-5.88.82-14.93 1.49-21.11 1.92-1.72.12-5.12.98-5.85-1.17-6.34-63.39-5.52-127.29-3.75-190.78l1.91-2.86-1.91-.98c.46-15.44 1.24-30.68 1.92-46.07l1.91-2.86-1.91-.98c.31-6.77 1.92-17.12 1.92-22.07v-30.71c0-6.01 1.41-18.57 1.92-25.91l69.1 1.92Zm-1249.6-454.92c-5.66 1.49-4.82-1.36-7-3.53-9.94-9.9-17.47-24.54-29.47-31.02 24.92-110.07 47.36-220.77 73.47-330.59 9.9-26.05 22.9-32.52 47.46-39.87 1.69-.51 3.27-1.78 3.84-1.92.6-.14 1.31.14 1.92 0-29.1 135.82-60.56 271.26-90.22 406.93Z" class="cls-13"/><path d="M1065.14 1119.07c-.32 5.06.46 10.32 0 15.36-1.87 20.64-5.49 29.61-23.03 42.23-9.41 6.77-23.15 12.67-34.08 16.79-13.9 5.24-80.15 19.65-84.12 27.37-3.19 6.2 18.34 36.82 18.24 44.87-2.46 7.81-18.76-3.35-24.35-4.17-17.77-2.58-22.75 9.18-13.58 23.27 8.5 13.05 30.84 13.53 33.79 17.08 2.47 2.97 8.2 26.72 8.11 32.19-16.36-.81-24.57-1.67-40.31-9.6-1.14-.57-4.26-2.83-5.76-3.84-.66-2.12-2.07-2.84-3.84-3.84-8.38-4.75-15.74-10.09-23.06-16.29-4.77-4.04-13.86-16.13-17.25-18.26-.75-4.39 1.47-5.86 3.76-8.71 40.5-50.55 83.16-100.81 121.81-152.69 5.96-8 6.34-16.29 6.88-17.12s11.32-10.73 13.36-12.55c32.49-28.92 53.35-5.52 63.42 27.91Zm506.75-182.35c12 6.48 19.53 21.12 29.47 31.02 2.18 2.17 1.34 5.02 7 3.53-10.47 47.9-19.01 96.33-30.71 143.96-9.26 13.45-7.98 22.72-7.68 38.39l-15.36 71.02c-8.68 17.73-19.49 36.85-34.55 49.91 1.39-4.59 7.83-36.77 6.75-38.41-1.74-2.07-2.38-2.61-4.89-1-4.52 2.9-10 42.34-13.38 50.93-4.56 11.57-13.33 14.18-21.11 21.11 26.8-118.3 52.97-236.78 79.63-355.13 1.19-5.29 3.83-10.97 4.82-15.34Zm-38.41 274.48c.99-.68 6.87-21.78.96-23.02-4.55-.95-8.76 18.51-8.45 20 .57 2.7 5.93 4.1 7.49 3.02Z" class="cls-8"/><path d="M946.13 1334.05c7.62.37 52.89 22.66 72.94 24.95l-11.52 97.89c-.63.02-1.29.04-1.92 0-6.86-.45-61.03-29.26-71.71-34.82-16.53-8.61-32.46-18.45-49.22-26.6.55-1.61-.07-4.95.87-7.67 7.21-20.88 16.32-41.59 20.24-63.35 15.74 7.93 23.95 8.79 40.31 9.6Z" class="cls-10"/><path d="M1869.42 591.21c-1.37-11.58 3.16-28.98 16.76-30.3s49.73 14.74 65.76 16.86c4.95-17.57-.04-57.53 20.03-65.4 21.84-8.58 53.12 11.05 60.05 32.35 6.43 19.73-5.06 34.26-14.8 50.31 2.68 2.64 52.35 9.9 61.39 16.37 8.31 5.95 6.48 19.23 3.87 27.8-66.89-15.72-134.34-29.83-201.56-44.16 1.08-32.54 24.6-16.25 45.09-13.4 1.77-.08 1.16-5.52.98-5.74-1.13-1.36-32.15-7.22-34.64-6.89-12.91 1.72-16.24 12.85-17.2 24.12-2.29.57-4.19-1.57-5.74-1.92Zm138.03-68.92c-3.63-5.67-26.95-4.43-33.8-.57-15.46 8.71-13.55 32.35-6.35 27.25 2.65-1.88-.79-24.91 20.16-24.95 4.1 0 26.89 9.03 20-1.72Zm-17.63 15.55c-19.07 2.51-16.4 31.6 3.29 30.28 17.93-1.21 16.38-32.87-3.29-30.28Zm-22.52 13.07c-1.03-1.09-6.3-.19-7.37 3.17-.93 2.92-.52 12.31 2.58 12.14s6.43-13.57 4.79-15.31Z" class="cls-13"/><path d="M2032.57 2138.33c1.68-22.83 15.17-42.24 28.79-59.5 17.55 9.87 44.36 9.3 63.33 4.78 5.05-1.2 38.69-14.48 40.01-16.6 1.96-3.16-1.75-23.72 9.89-29.47 10.44-5.16 9.98 3.46 11.54 4.81l1.9 17.28-6.72-7.68c-9.38-2.32-3.46 21.27 12 13.95 7.56-3.58 1.07-20.2-3.35-23.55.92-7.59 16.66-16.24 22.03-11.53 12.66 11.09 14.9 36.33 2.9 48.94-13.62 14.31-31.21 5.48-34.5 7.6-1.38.88-2.25 4.17-4.07 5.67-41.83 34.27-85.96 70.7-143.76 45.3Zm-272.57-88.3c-4.76 4.52-17.06 29.43-18.33 36.38-3.11 17.05 1.47 63.89 12.44 77.44 3.09 3.82 8.03 2.22 9.72 3.27.15.09-.23 2.41.67 3.1 12.67 9.61 28.32 18.89 11.79 35.28-7.78 7.71-21.34 16.47-29.74 5.77-4.62-5.89-8.03-22.27-9.36-29.99-.43-2.48 1.66-5.43.88-8.49s-13.64-16.74-16.9-21.56c-34.17-50.53-47.04-101.35 2.34-147.27 13.33 14.29 26.24 29.35 36.47 46.07Z" class="cls-7"/><path d="M1665.95 2483.84c-29.41 20.71-58.48 42.04-88.24 62.27-2.44.73-7.46-1.43-9.65-2.77-3.21-1.97-19.3-19.78-21.11-23.03-4.43-7.93 8.68-21.93 13.79-29.4 14.09-20.58 33.18-46.03 51.47-62.74 12.95 18.76 30.45 37.77 46.39 54.51 3.27 3.43 2.94 2.65 7.36 1.16Zm293.68-616.16c-13.33 9.52-36.46 11.39-51.75 17.4l7.59 22.9c-.95.98-20.65-10.99-18.69 2.6 1.55 10.73 12.83 8.37 16.33 11.29 1.97 1.65 4.03 11.64 4.29 14.91-2.85-.95-8.71-.16-13.44-1.92-9.84-3.66-20.14-17.11-26.9-20.13-9.18-4.09-27.32 1.49-20.68-20.74 1.65-5.54 8.83-6.67 9.18-7.15 1.15-1.6-3.29-5.99-3.76-8.66-1.45-8.23-.05-17.99 5.65-24.39 9.06-10.15 25.81-6.29 26.83-7.31 2.33-2.32-1.15-16.86 15.77-21.66 15.86-4.5 20.03 8.39 25.58 8.38 3.52 0 8.57-7.19 12.58-8.65 19.91-7.25 30.36 29.6 11.42 43.13Z" class="cls-8"/><path d="M1948.12 1946.38c-11.88-1.02-20.23-6.1-30.71-9.6-.26-3.28-2.32-13.26-4.29-14.91-3.5-2.92-14.78-.56-16.33-11.29-1.96-13.59 17.74-1.62 18.69-2.6l-7.59-22.9c15.28-6.01 38.42-7.88 51.75-17.4 11.43 27.34 43.38 83.4-11.52 78.7Z" class="cls-7"/><path d="M2218.77 2355.23c5.67-.86 4.19 2.15 2.96 5.84-10.36 31.23-46.62 73.82-73.99 92.06-12.2-4.54-21.09-19.54-21.11-32.63 7.32 1.76 12.99-.87 17.25-6.73 8.28-11.38-2.18-13.09.92-20.07.67-1.52 17.69-15.7 20.22-17.35 14.36-9.34 36.79-18.36 53.75-21.11Z" class="cls-13"/><path d="M2831.09 1800.49c-.02 2.15-1.41 2.76-1.92 3.84l-69.1-1.92c0-.61-.11-1.33 0-1.92 2.8-15.63 19.13-34.49 32.63-42.23 4 14.31 26.54 12.2 23.03-3.84 4 9.25 15.42 37.45 15.36 46.07Z" class="cls-2"/><path d="M2656.41 811.95c-4.33-.17-10.75-8.28-11.52-11.52-2-8.4 2.32-32.19 7.67-39.35 16.98-22.73 47.29 10.54 39.32 27.8-3.02 6.54-28.37 23.35-35.48 23.07Z" class="cls-7"/><path d="M1531.58 2533.74c2.16 3.83-.65 7.65.3 12.02.87 4.01 5.6 6.78 5.46 11.02-.61 18.82.23 41.71-1.83 60.56-.39 3.62-1.62 5.89-3.93 8.54-9.67-16.9-18.72-34.84-23.98-53.76-2.91-10.46-7.28-24.22-2.89-34.54 11.37-5.74 15.59-2.83 26.87-3.84Z" class="cls-13"/><path d="M1917.4 1936.78c10.48 3.5 18.84 8.58 30.71 9.6.11 8.23-.59 16.88-1.92 24.95-.24 1.43-1.48 3.62-1.92 5.76-18.66-.61-35.16-12.97-53.75-15.36.39-.92-.4-2.95 0-3.84 3.07-6.89 9.51-16.18 13.44-23.03 4.73 1.76 10.59.97 13.44 1.92Zm247.62 439.57c-2.53 1.64-19.54 15.83-20.22 17.35-3.1 6.98 7.35 8.69-.92 20.07-4.26 5.86-9.93 8.48-17.25 6.73-1.22-.29-16.36-10.95-21.11-13.44 8.54-8.84 18.95-17.83 21.11-30.71h38.39Z" class="cls-10"/><path d="M2222.6 2376.35c-7.58 17.64-28.46 44.82-42.17 58.6-3.24 3.25-18.77 17.37-21.65 18.64-6.15 2.71-6.23 1.33-11.04-.46 27.37-18.24 63.63-60.82 73.99-92.06 1.22-3.69 2.71-6.7-2.96-5.84 1.78-.29 7.35-5.28 9.43 1.24.83 2.59-4.16 16.53-5.6 19.88Z" class="cls-6"/><path d="M1568.05 2543.34c-5.87 2.99-9.6 10.7-15.36 13.44-5.82 2.76-9.43 2.08-15.36 0 .14-4.24-4.59-7-5.46-11.02-.95-4.37 1.86-8.19-.3-12.02 8.25-.74 9.44-7.37 15.36-13.44 1.82 3.26 17.91 21.07 21.11 23.03Z" class="cls-7"/><path d="M1531.58 2625.88c5.81 10.15 11.03 20.23 19.2 28.79-5.73 4.6-17.19-9.85-21.11-15.36-12.33-17.33-29.61-62.99-32.15-84-1.26-10.36-1.76-13.21 7.2-17.73-4.39 10.31-.02 24.08 2.89 34.54 5.26 18.92 14.31 36.86 23.98 53.76Z" class="cls-6"/><path d="M1065.14 1134.43c.46-5.03-.32-10.3 0-15.36 7.54-4.87 11.16-28.11 23.03-22.12 8.89 4.48-6.12 31.66-10.52 35.58-3.57 3.18-8.33 1.75-12.51 1.9Zm39.75-103.4c19-5.4 4.98 36.47.61 39.13-5.45 3.33-13.97-.06-13.17-7.22.24-2.17 6.84-24.61 7.86-26.88s2.12-4.3 4.7-5.03Zm9.57-69.17c3.17-.78 5.63 1.27 7.46 3.51 5.87 7.2 2.67 48.63-11.86 36.79-5.55-4.52-2.87-38.51 4.39-40.29Z" class="cls-12"/><path d="M2813.81 1746.75c-.37 2.96.81 5.12 1.92 7.68 3.5 16.04-19.03 18.15-23.03 3.84-.68-2.43.46-6.75 0-9.6 6.18-.43 15.23-1.1 21.11-1.92Z" class="cls-7"/><path d="M2189.97 2042.35c4.41 3.34 10.9 19.97 3.35 23.55-15.47 7.33-21.39-16.27-12-13.95l6.72 7.68-1.9-17.28c.53.46 3.24-.46 3.84 0Z" class="cls-10"/><path d="M1792.64 581.61c-.26 4.32 2.07 6.76-4.03 5.01-5.8-1.67-14.09-5.22-19-8.85 5.55 1.28 18 4.07 23.03 3.84Zm95.97 1646.93c-2.15 3.6-8.06 1.35-11.52 1.92v-1.92c3.83-.07 7.68.09 11.52 0Z" class="cls-6"/><path d="M2783.1 1556.72c.03-.93-.04-2.65 0-3.84l1.91.98-1.91 2.86Zm1.92-49.91c.03-.68-.08-2.05 0-3.84l1.91.98-1.91 2.86Zm-3.84-621.92c-3.59-.25-3.46-.94-5.76-1.92l5.76 1.92Z" class="cls-8"/><path d="M1696.66 564.33c-.57.14-2.15 1.41-3.84 1.92l3.84-1.92Z" class="cls-9"/><path d="M539.2 1754.43c12.05.16 24.57 2.13 36.47 3.84.19.93 1.02 1.79 1.92 1.92 32.72 4.77 64.38 16.2 94.06 30.71-3.16 24.88 5.36 48 23.03 65.26 15.69 15.33 28.45 19.74 49.91 23.03l1.92 1.92c27.24 2.88 67.6-3.69 94.06-11.52l1.92 67.18c-46.08 19.46-92.46 36.56-143.96 36.47-99.02-.17-168.67-76.82-172.84-173.64-.36-8.37.44-38.99 3.92-45.19 3.2.03 6.4-.04 9.6 0Zm466.44-297.53c-4.57 16.48-32.47 27.53-47.57 32.09-25.32 7.65-76.93 9.57-98.28-8.16-3.32-2.76-3.54-6.44-3.87-6.65 7.02-18.64 12.66-37.82 19.16-56.66 2.5-7.24 7.44-15.68 9.63-22.04 16.76 8.16 32.69 18 49.22 26.6 10.68 5.56 64.85 34.37 71.71 34.82Z" class="cls-7"/><path d="M807.93 1266.87c3.2.68 4.99 7.05 5.76 7.68-2.98 5.18-4.04 8.78-10.76 9.55-4.24.49-29.87-2.32-31.65-4.57-2.64-3.34-3.19-10.88 1.41-12.39 2.66-.87 31.84-1 35.23-.28Zm-100.35-15.08c4.53-1.22 33.38 7.49 34.84 12.59 5.07 17.69-33.08 5.79-38.16 1.56-4.17-3.47-2.07-12.7 3.32-14.15Z" class="cls-12"/><path d="M539.2 1754.43c-3.2-.04-6.4.03-9.6 0 .54-.96.6-1.59 1.92-1.92 1.98-.49 6.71-.52 7.68 1.92Z" class="cls-4"/><path d="M900.07 1320.62c-1.62-1.09-3.24-1.7-3.84-3.84 1.76 1 3.18 1.72 3.84 3.84Z" class="cls-6"/><path d="M2944.34 1466.5c9.4 84.2 23.32 182.01 25.1 265.84.2 9.21-3.53 9.07-3.99 10.57-8.96 2.8-16.01 1.27-24.95 0-25.86-88.69-41.11-186.41-59.5-278.33 11.15-2.82 20.44-.05 31.75.08 4.54.05 8.71-2.18 13.27-2.07 5.93.14 12.16 3.99 18.32 3.91Z" class="cls-13"/><path d="M2942.42 1758.27c1.17 5.73 4.12 5.98 10.56 5.92 9.68-.1 11.01-5.6 12.48-5.92 12.21-2.61 61.15 26.92 65.26 42.23-7.32.2-22.46 3.84-29.75 3.84h-47.99c-4.34 0-14.32-3.64-20.15-3.84-.3-12.46 3.76-31.06 9.6-42.23Z" class="cls-2"/><path d="M3030.72 1800.49c.64-.02 1.28.02 1.92 0l-2.82 7.69c-28.42-2.62-62.71 3.43-90.37.08-6.45-.78-6.48-1.53-6.62-7.78 5.84.2 15.81 3.84 20.15 3.84h47.99c7.3 0 22.44-3.64 29.75-3.84Z" class="cls-13"/><path d="M2965.45 1742.91c-1.09 3.58.76 11.06 0 15.36-1.47.31-2.8 5.82-12.48 5.92-6.44.06-9.39-.19-10.56-5.92-.9-4.43-.49-10.46-1.92-15.36 8.94 1.27 15.99 2.8 24.95 0Z" class="cls-7"/><path d="M2295.55 2764.08c21.08-.23 42.26.1 63.34 0 30.68-.14 61.46-.02 92.14 0 8.94 0 17.94-.02 26.87 0 51.77.14 103.72-.77 155.48 0 30.45.45 61.6.95 92.14 1.92 38.28 1.21 79.08 2.18 117.09 5.76l7.68 1.92c3.58.41 8.3-.67 11.52 0l3.84 1.92c10.72 2.85 16.43 6.1 20.22 17.21 11.42 33.52 15.97 92.68 18.17 128.67 1.11 18.16 4.55 44.37 1.79 62.26-.91 5.94-4.72 11.14-9.47 14.52-91.15 18.69-182.71 36.53-274.49 51.83 1.69-16.74 6.13-46.64 5.29-61.9-.64-11.65-8.78-20.18-20.15-22.1-20.72-3.49-82.82-2.43-105.18-.53-10.19.87-22.91 5.62-25.44 16.79-1.86 8.22.6 29.43 1.52 38.95l-15.38-.94 15.38 4.78c.63 6.26 2.8 15.69 3.84 23.03-94.94-16.32-189.55-36.7-284.09-55.67-12.15-5.72-12.74-21.57-13.52-33.51-2.93-44.98-2.33-112.95 4.19-157.21 2.14-14.5 4.11-32.95 21.92-35.67 26.52-4.05 58.15-1.74 85.3-2.03Zm53.73 26.87c-.14-9.04-7.69-3.43-13.44-3.82-1.54 7.12 9.36 2.73 13.44 3.82Zm32.65-5.74c-5.31-.03-13.72-1.83-13.44 5.74h13.44v-5.74Zm34.55 0h-13.46v5.74h13.46v-5.74Zm34.56 0h-15.38v5.74h15.38v-5.74Zm32.61 0c-2.54-.38-13.45-.51-13.39 2.87.07 3.97 14.93 5.09 13.39-2.87Zm34.57 0h-13.46v5.74h13.46v-5.74Zm32.63 0h-13.46v5.74h13.46v-5.74Zm-303.3 1.92c-4.06 1.08-15.01-3.31-13.42 3.82 4.06-1.08 15.01 3.31 13.42-3.82Zm34.55 0c-4.19 1.26-16.87-3.54-15.34 3.82 4.19-1.26 16.87 3.54 15.34-3.82Zm32.63 0c-4.06 1.08-15.01-3.31-13.42 3.82 4.06-1.08 15.01 3.31 13.42-3.82Zm270.65 0c-4.06 1.08-15.01-3.31-13.42 3.82 4.06-1.08 15.01 3.31 13.42-3.82Zm32.63 0c-4.06 1.08-15.01-3.31-13.42 3.82 4.06-1.08 15.01 3.31 13.42-3.82Zm34.55 0c-4.06 1.08-15.01-3.31-13.42 3.82 4.06-1.08 15.01 3.31 13.42-3.82Zm34.55 0c-3.3 1.31-15.43-3.21-15.33 2.84 3.88 4.78 15.64 4.95 15.33-2.84Zm32.64 1.92c-4.06 1.08-15.01-3.31-13.42 3.82 4.06-1.08 15.01 3.31 13.42-3.82Zm34.55 0c-3.3 1.31-15.43-3.21-15.33 2.84 3.88 4.78 15.64 4.95 15.33-2.84Zm-537.46 1.92-5.74 13.42c6.77 1.18 5.51-9.44 5.74-13.42Zm570.09 0c-4.06 1.08-15.01-3.31-13.42 3.82 4.06-1.08 15.01 3.31 13.42-3.82Zm34.55 1.92c-4.06 1.08-15.01-3.31-13.42 3.82 4.06-1.08 15.01 3.31 13.42-3.82Zm32.65 1.92c-29.16-1.73-2.96 8.8-.02 5.74.39-.41-.22-4.18.02-5.74Zm13.41 15.34c-4.95-5.23-6.95 17.33 1.93 15.35.24-2.46-1.2-14.58-1.93-15.35ZM2213 2823.6c-8.23-.13-5.47 9.68-5.74 15.34 8.23.13 5.47-9.68 5.74-15.34Zm660.29 21.11c-5.06-4.88-6.64 15.28 1.94 13.42.27-2.63-.62-12.15-1.94-13.42Zm-662.21 13.42h-5.74v13.46h5.74v-13.46Zm667.99 19.2c-1.55.24-5.35-.37-5.74 0-3.84 3.7 7.75 28.76 5.74 0Zm-667.99 15.35h-5.74v13.46h5.74v-13.46Zm671.83 32.65c-.26-5.67 2.48-15.49-5.74-15.36v15.36h5.74Zm-671.83-.02h-5.74c.3 5.16-1.84 11.58 2.9 15.35 6.02.11 1.57-12.02 2.84-15.35Zm673.74 19.2h-5.74c-1.91 19.81 7.65 19.81 5.74 0ZM2213 2973.32c.03-5.31 1.83-13.72-5.74-13.44v13.44h5.74Zm32.63 1.94c-1.58-1.65-12.31-2.21-15.34-1.94-1.97 8.7 20.3 7.1 15.34 1.94Zm635.35-.02c-.86-.9-17.94.59-13.41 7.66l13.44-1.92c-.25-1.56.37-5.33-.02-5.74Zm-602.7 5.76c-.47-.49-12.98-2.42-13.44-1.92-.19.21-.22 5.53-.02 5.74.47.49 12.98 2.42 13.44 1.92.19-.21.22-5.53.02-5.74Zm570.08 5.73c2.7-7.63-12.86-4.41-13.44-3.81-.2.21-.18 5.53.02 5.74 1.28 1.34 10.63-2.22 13.42-1.92Zm-537.47 5.77-13.42-5.74c-1.18 6.77 9.44 5.51 13.42 5.74Zm504.83-3.82c-5.39.33-15.39-2.61-15.34 5.74 4.55-.23 16.4 1.44 15.34-5.74Zm-472.21 5.81c-.43-.53-11.22-2.05-13.4-1.97-.45 6.74 8.2 5.92 12.44 7.7 1.69.06 1.24-5.38.96-5.72Zm437.66-.05c-3.98.23-14.6-1.03-13.42 5.74l13.42-5.74Zm-403.09 11.49c.05-8.35-9.95-5.41-15.34-5.74-1.03 6.73 11.59 5.22 15.34 5.74Zm370.46-5.74c-1.33-1.39-18.91 1.78-13.42 7.66.46.5 12.97-1.43 13.44-1.92.2-.21.18-5.53-.02-5.74Zm-337.82 7.69c-1.47-1.39-18.35-4.9-13.45 3.81 1.5.27 18.72 1.15 13.45-3.81Zm305.19-.01c-5.39.33-15.39-2.61-15.34 5.74 3.74-.52 16.37.99 15.34-5.74Zm-272.55 5.76c-29.16-1.73-2.96 8.8-.02 5.74.39-.41-.22-4.18.02-5.74Zm239.92 0c-5.39.33-15.39-2.61-15.34 5.74 4.55-.23 16.4 1.44 15.34-5.74Zm-34.56 5.76c-.53-.56-15.68.14-13.42 5.74h13.44c-.24-1.55.37-5.33-.02-5.74Z" class="cls-2"/><path d="M2199.57 3052.01c1.37 40.54-.15 85.84 3.86 125.7 1.14 11.35 8.25 20.48 9.57 29.78.17 1.22-.12 2.59 0 3.84h-514.44c.02-157.37 0-314.84 0-472.21 5.81 1.07 3.7-2.94 3.84-6.63.18-4.59-1.79-37.55 6.67-35.58L2199.55 3052Z" class="cls-14"/><path d="M2621.86 3050.09c-1.72 17 .9 36.74-17.17 45.21-30.84-.71-66.83 3.86-97.14.95-25.67-2.47-22.98-27.98-25.82-48.08-1.03-7.34-3.21-16.77-3.84-23.03-.13-1.26.12-2.58 0-3.84-.91-9.52-3.38-30.73-1.52-38.95 2.53-11.17 15.25-15.92 25.44-16.79 22.36-1.9 84.46-2.96 105.18.53 11.37 1.91 19.51 10.45 20.15 22.1.84 15.26-3.6 45.16-5.29 61.9Zm-69.1 30.71c16.44-.06 45.56 5.9 49.77-14.53 2.93-14.18 6.05-48.57 6.06-63.2 0-5.35-1.35-12.26-5.07-16.22-6.18-6.57-39.83-3.9-50.76-3.94s-40.21-2.04-48.55.4c-4.84 1.41-11.01 10.65-11.01 15.87 0 13.99 5.1 52.63 8.18 66.78 4.63 21.25 33.88 14.91 51.37 14.85Z" class="cls-8"/><path d="M2566.19 3226.69h15.38v5.74h-15.38zm-287.93 1.9c-1.45 1.24-17.11-1.47-15.34-7.66 1.45-1.24 17.11 1.47 15.34 7.66Zm598.89-103.63c-.27 5.66 2.49 15.46-5.74 15.34.27-5.66-2.49-15.46 5.74-15.34Zm-658.39-86.4c1.91 19.81-7.65 19.81-5.74 0h5.74Z" class="cls-12"/><path d="M2648.72 3232.43c-3.3-1.31-15.43 3.21-15.33-2.84 3.88-4.78 15.64-4.95 15.33 2.84Z" class="cls-4"/><path d="M2600.74 3226.69h13.46v5.74h-13.46zm-67.19 0h13.46v5.74h-13.46zm-316.7-86.39h5.74v13.46h-5.74zm631.5 78.72c4.45 4.79-10.64 12-13.42 9.58-3.39-2.95 12.01-11.09 13.42-9.58Zm28.81-193.89h5.74v13.46h-5.74zm-629.61 188.11c-6.38.79-12.3-5.23-11.5-11.5 2.03-2.21 13.71 9.46 11.5 11.5Zm264.91 13.45v5.74l-13.43-2.9c-.49-5.84 10.41-1.72 13.43-2.84Zm360.85-67.18v13.44h-5.74c-.03-5.31-1.83-13.72 5.74-13.44Zm-5.76 32.63c3.12 15.22-13.47 20.28-4.8 3.74 1.44-2.75-.11-4.7 4.8-3.74Zm-51.81 36.47c-.24 1.55.37 5.35 0 5.74-3.7 3.84-28.76-7.75 0-5.74Zm-504.85 1.9-13.41-2.84c3.54-4.77 13.71-4.68 13.41 2.84Zm-86.39-57.57c.49.5 4.36 12.93 3.86 13.42-7.6 7.37-10.54-20.27-3.86-13.42Z" class="cls-12"/><path d="M2220.67 3105.77c-.39 4.96 2.17 12.92-3.81 15.35 1.09-6.14-5.72-15.18 3.81-15.35Zm-1.92-32.66c-.39 5.74 5.22 13.3-3.82 13.44 1.08-4.08-3.31-14.98 3.82-13.44Z" class="cls-4"/><path d="M2412.63 3226.7c1.53 7.35-11.14 2.56-15.34 3.82-1.53-7.35 11.14-2.56 15.34-3.82Z" class="cls-12"/><path d="M2345.44 3226.7c1.53 7.35-11.14 2.56-15.34 3.82-1.53-7.35 11.14-2.56 15.34-3.82Z" class="cls-4"/><path d="M2880.98 3073.11c-4.36 5.73-6.05-13.62-.94-15.34l.94 15.34Z" class="cls-12"/><path d="M2445.26 3226.7c1.59 7.13-9.35 2.74-13.42 3.82-1.59-7.13 9.35-2.74 13.42-3.82Zm-228.42-220.75c-1.08 4.06 3.31 15.01-3.82 13.42 1.08-4.06-3.31-15.01 3.82-13.42Zm662.22 86.38c-1.08 4.06 3.31 15.01-3.82 13.42 1.08-4.06-3.31-15.01 3.82-13.42Zm-500.99 134.37c1.59 7.13-9.35 2.74-13.42 3.82-1.59-7.13 9.35-2.74 13.42-3.82Z" class="cls-4"/><path d="M2479.81 3226.7c1.59 7.13-9.35 2.74-13.42 3.82-1.59-7.13 9.35-2.74 13.42-3.82Z" class="cls-12"/><path d="M2681.36 3228.61c1.59 7.13-9.35 2.74-13.42 3.82-1.59-7.13 9.35-2.74 13.42-3.82Zm34.55 0c1.59 7.13-9.35 2.74-13.42 3.82-1.59-7.13 9.35-2.74 13.42-3.82Zm32.63 0c1.59 7.13-9.35 2.74-13.42 3.82-1.59-7.13 9.35-2.74 13.42-3.82Z" class="cls-4"/><path d="M2783.09 3228.61c1.59 7.13-9.35 2.74-13.42 3.82-1.59-7.13 9.35-2.74 13.42-3.82Z" class="cls-12"/><path d="M2216.85 3211.33h-3.84c-.12-1.25.17-2.62 0-3.84 1.95.69 2.67 2.38 3.84 3.84Z" class="cls-10"/><path d="M863.59 854.17c-1.45 1.46-31.98-10.48-39.58-11.27-115.88-12.1-190.88 116.82-116.88 207.09 79.62 97.13 237.15 32.33 225.54-95.01-.8-8.8-5.38-18.87-5.75-26.92-.18-3.92 2.05-3.84 4.83-2.9 5.23 1.77 8.97 43.62 8.6 50.89-6.61 131.23-183 175.52-249.83 61.77-59.49-101.25 29.99-224.37 143.99-199.65 3.45.75 36.16 8.88 29.09 16Z" class="cls-12"/><path d="M799.78 914.19c61.26-7.98 86.64 79.88 29.33 104.17-77.9 33.03-109.92-93.67-29.33-104.17Zm-1.96 13.39c-49.01 8.36-40.98 91.69 18.29 81.62 48.89-8.31 39.9-91.55-18.29-81.62Z" class="cls-12"/><path d="M1552.7 2556.78c2.21 6.94 7.68 21.25 7.68 27.83v34.55c0 2.85-2.92 16.11-3.84 20.15-1.15 5.04-1.75 12.14-5.76 15.36-8.17-8.56-13.38-18.64-19.2-28.79 2.31-2.65 3.53-4.92 3.93-8.54 2.06-18.85 1.22-41.74 1.83-60.56 5.93 2.08 9.54 2.76 15.36 0Z" class="cls-8"/><path d="M1195.24 735.7c8.19-.9 54.69 1.83 52.24 13.84-1.47 7.23-17.32-.78-21.38-1.61-107.62-21.98-142.03 124.75-48.24 157.65 51.02 17.89 106.44-17.31 110-71.48.52-7.87-4.56-35.21-3-37.56 6.45-9.74 11.94 15.36 12.29 18.53 11.33 102.69-121.94 144.57-171.4 60.07-33.82-57.79 3.02-132.12 69.48-139.44Z" class="cls-12"/><path d="M1197.09 791.3c33.44-5.72 59.03 26.72 40.5 55.85-21.71 34.15-74.69 13.1-68.33-26.11 2.05-12.65 15-27.55 27.83-29.74Zm1.89 9.58c-27.39 5.7-26.51 48.81 1.61 53.17 44.01 6.82 42.41-62.33-1.61-53.17Z" class="cls-12"/><path d="M2658.34 698.69c-1.02-6 1.8-2.93 4.72-3.82 5.22-1.59 11.09-1.59 12.18-9.04 1.37-9.48-7.12-33.67-7.44-45.65-.28-10.58 3.49-22.29 9.73-30.73s30.38-26.64 33.61-33.65c8.69-18.81-35.56-17.79-46.76-20.4-38.77-9.03-30.99-34.44-49.37-58.12-17.84-22.99-31.88 31.12-41.43 42.77-16.02 19.54-43 16.24-65.47 20.91-2.48.52-7.6 4.71-9.09 3.37-2.5-2.25 3.52-5.85 5.73-6.73 12.36-4.93 32.45-3.3 46.15-7.6 30.26-9.5 34.55-57.62 49.28-62.04 21.62-6.49 29.5 35.38 40.39 49.03 18.67 23.41 60.13 11.78 71.56 24.42 15.85 17.52-18.16 34.91-27.9 47.05-21.8 27.19-6.74 41.78-4.99 70.37.91 14.93-5.58 21.98-20.9 19.86Zm-117.11-72.94c-7.14 1.63-7.14-7.14-11.56-12.42-3.46-4.12-26.71-23.8-22.97-27.87 3.61-.83 4.55 2.04 6.71 3.83 4.17 3.43 32.36 32.25 27.82 36.46Zm86.39 49.94c7.37 7.36-13.41.26-14.54.13-15.91-1.77-23.03 3.41-37.27 7.51-1.06-5.1 1.29-3.3 3.78-4.76 11.32-6.66 22.32-8.22 35.4-6.59 1.73.22 12.17 3.24 12.64 3.71Zm476.04 42.2c2.6-3.98-4-28.96 4.92-42.1l10.42-7.8-10.68 17.13c-3.05 8.99 1.33 23.43-.79 31.5-.57 2.15-3.68 1.04-3.88 1.26-1.78 2.07-2.73 9.98-9.59 2.87 1.09-1.94 9.11-2.14 9.59-2.87Zm-26.88-122.84c.42-.37-1.67-3.65 2.81-4.05 14.26-1.27 15.2 22.82 18.29 32.84-6.91-2.08-8.54-27.65-9.66-28.7-.42-.39-10.53-.45-11.44-.09-1.03.41-10.3 16.21-12.06 18.64-5.58 3.05-10.61 12.07-17.69 12.07h-33.59v-3.84h35.51c5.53 0 18.05-15.75 22.08-20.62 1.03-1.24.92-3.94 1.82-4.93 1.7-1.87 3.7-1.13 3.93-1.33Zm54.6 66.14c-1.95 1.39-3.42 2.13-4.95 3.17-2.32 1.59-1.55 3.45-1.71 3.57-2.56 2.04-5.62-1.75-3.78-3.76 1.29-1.41 10.87-4.03 13.55-8.54 6.76-11.36.2-9.65-5.9-11.58-2.63-.83-37.08-11.77-30.69-18.3 1.86-1.9 9.42 6.62 12.07 8.06 8.83 4.81 34.74 5.96 29.85 21.3-1.38 4.33-5.45 3.92-8.45 6.06Z" class="cls-7"/><path d="M3076.78 706.36c-5.41.39-8.97-3.46-14.39-3.93-5.73-.5-17.76 5.26-16.33-1.8 10.67-1.83 23.19-4.17 30.72 5.73Z" class="cls-14"/><path d="M3028.77 654.56c.98.95 2.13 9.27 1.93 11.51-5 .05-7.6-16.96-1.93-11.51Zm-6.92-6.42c.65 1.05 2.61-.12 3.12 1.63.99 3.4-2.56 3.95-3.81 2.85-.62-.54-6.7-11.19-5.78-13.42 4.51 1.23 4.56 5.84 6.47 8.95Z" class="cls-7"/><path d="M2857.96 1426.19c1.52-11.44 2.57-23.09 3.85-34.57h5.74c4.43 24.29 8.61 48.76 13.45 72.96 18.4 91.92 33.64 189.64 59.5 278.33 1.43 4.9 1.02 10.93 1.92 15.36-5.84 11.17-9.89 29.77-9.6 42.23-33.8-1.17-67.91.87-101.73 0 .07-8.62-11.36-36.82-15.36-46.07-1.11-2.56-2.29-4.72-1.92-7.68 1.21-.17 5.54-1.87 5.84-3.2 11.67-105.91 24.24-211.78 38.31-317.36Z" class="cls-4"/><path d="M2829.17 1804.33c-2.54 5.38-1.73 5.87-9.11 7.21-8.24 1.49-53.18.62-58.87-3.17-2.08-1.39-1.11-3.98-1.12-5.96l69.1 1.92Z" class="cls-8"/><path d="M2694.8 2693.06v51.83c13.17.37 34.77 3.21 30.71 21.11-30.53-.97-61.69-1.47-92.14-1.92-3.19-22.18 17.32-16.99 31.79-20.99l.84-50.03c8.93-.47 20.57 1.29 28.79 0Z" class="cls-13"/><path d="m2850.28 2773.68-7.68-1.92c3.68.35 6.98 1.84 7.68 1.92Zm15.36 1.92-3.84-1.92c3 .63 3.63 1.86 3.84 1.92Zm-182.35-161.24-1.92-1.92c1.47.22 1.79 1.88 1.92 1.92Zm-111.34-1.92c.64-.03 1.28.02 1.92 0l-.96 1.88-.96-1.88Zm-7.67 1.92c-.64.03-1.28-.04-1.92 0l.96-1.88.96 1.88Z" class="cls-10"/><path d="M2053.69 2376.35h-266.81l47.99-59.5c29.89 1.1 70.41-5.67 99.88-12.41 19.28-4.41 38.31-10.66 55.58-20.22 4.22 38.45 34.06 69.64 63.36 92.14Z" class="cls-4"/><path d="M965.33 1758.27c17.15-.97 37.06 4.22 53.74 8.65 5.62 1.49 34.04 9.48 36.49 11.49 5.74 4.69-3.04 17.21-7.74 19.18-5.41 2.27-11.63.52-17.23 1.02 5.44 8.19 19.17 7.84 11.62 20.26-4.02 6.63-12.81 4.5-19.3 4.69 4.92 7.69 18.26 13.98 5.66 21.96-14.05 8.9-20.14-4.69-28.73-2.03-6.37 1.97-17.64 17.27-24 22.23-13.78 10.75-25.64 13.13-43.14 11.56.29-12.13-6.15-30.79-7.68-44.15-2.38-20.83-2.41-38.38 9.23-57 8-12.8 16.43-17.04 31.08-17.86Z" class="cls-7"/><path d="M1111.21 1593.19c1.13-4.16.6-7.42 5.58-8.76 6.51-1.76 32.08-1.67 34.84-3.6 3.65-2.54 2.01-18.33 7.99-20.92 10.57-.5 74.38-14.77 78.37-11.96 5.68 4.01-3.89 18.25-3.93 24.12 10.96 1.23 44.04-10.26 40.3 9.61l-11.39 39c-1.81 2.71-5.86 2.92-8.74 3.23-34.26 3.67-78.37 4.77-113.2 5.84-38.55 1.18-39.48 3.15-29.83-34.63.15-.6-.16-1.32 0-1.92Z" class="cls-8"/><path d="M932.7 1877.27c-.13 5.48-2.55 11.8-3.84 17.28-26.83 13.95-52.86 29.2-80.66 41.3-2 .87-4.55.43-5.72.93l-1.92-67.18c28.95-8.56 57.49-23.19 84.46-36.47 1.53 13.36 7.96 32.02 7.68 44.15Z" class="cls-10"/><path d="M694.68 1856.16c-17.67-17.26-26.19-40.38-23.03-65.26 1.73-13.6 14-37.12 24.93-46.07l-1.9 111.33Z" class="cls-4"/><path d="m746.51 1881.11-1.92-1.92c1.53.23 1.78 1.91 1.92 1.92Z" class="cls-9"/><path d="M1111.21 1595.11h-1.92l1.92-1.92c-.16.6.15 1.32 0 1.92Z" class="cls-6"/><path d="M577.59 1760.18c-.9-.13-1.73-.99-1.92-1.92.9.13 1.73.99 1.92 1.92Z" class="cls-9"/><path d="M1760 2050.03c3.15-3 25.49-14.16 30.74-16.28 4.69-1.89 12.58-5.6 17.27-3.84l-44.18 137.22c-1.69-1.05-6.63.55-9.72-3.27-10.97-13.56-15.56-60.39-12.44-77.44 1.27-6.95 13.56-31.86 18.33-36.38Z" class="cls-4"/><path d="M1944.28 1977.09c-1.35 6.55 1.83 10.79-7.24 14.83-13.43 5.98-34.46 2.42-45.49-7.21-12.75-11.15-5.43-12.48-1.02-22.98 18.59 2.38 35.08 14.75 53.75 15.36Z" class="cls-7"/><path d="M1556.54 1357.09c.48-1.02.03-3.74.93-5.71 22.04-48.34 41.73-97.68 50.79-150.44 14.9-3.21 25.84-12.26 34.66-24.28-.06 7.94 4.61 13.31 11.86 15.97 8.26 3.04 52.13 12.07 60.64 12.35 7.57.25 12.95-3.13 15.74-10.14 4.59-11.54 9.92-47.68 7.7-59.41-.73-3.88-3.97-5.53-5.73-8.68 1.19-3.7 5.76-20.06.93-21.1-4.08-.88-11.81 13.71-14.37 17.27l-51.83-5.76c-.99-16.78-15.23-31.6-20.8-46.76.64-3.31 20.68-20.25 24.64-24.27.57 8.68-2.82 22.26 5.86 27.74 4.82 3.04 56.83 13.87 64.5 14.34 5.68.35 10.18-.09 14.15-4.59 3.92-4.44 10.98-42.13 11.43-49.99.49-8.54 1.08-17.57-7.64-22.05 9.37-28.86 1.45-25.92-13.44-5.76l-60.31-5.7c-7.19 1.36-11.97 5.64-10.71 13.38-26.38 28.25-59.94 54.78-84.46 84.46l110.91-508.13c4.28-8.8 13.36-9.2 22.05-7.76 5.02.83 52.62 17.8 56.57 20.19 7.87 4.77 1.24 14.75 17.74 20.65 120.44 24.1 238 59.74 358.63 82.86 13.43 2.57 34.81 3.49 46.53 7.22s10.04 15.08 9.24 24.82l-122.19 712.78c-4.54 8.56-12.72 11.8-22.22 9.92-171.36-30.26-344.18-56.45-511.81-103.41Zm423.55-640.8c-8.6 2.73 4.86 13.81 10.22 14.12 52.72 7.71 110.75 30.51 162.71 36.9 5.22.64 12.08 2.28 15.82-2.41.94-4.43-9.64-7.45-12.58-8.49-50.07-17.63-112.36-22.76-163.53-39.92-3.9-.48-8.93-1.37-12.65-.19Zm181 72.74c-.47-.73-13.85-4.99-16.37-5.73-46.4-13.66-106.89-28.47-154.35-37.59-6.74-1.3-25.49-6.17-17.42 5.89 4.09 6.12 14.54 7.62 21.21 9.5 50.71 14.34 105.65 21.3 156.71 35.33 4.92 2.22 13.61-2.23 10.22-7.41Zm-192.53-17.22c-7.51 5.19-1.33 13.09 5.97 14.69 54.81 8.26 114.78 31.74 168.92 38.41 4.41.54 8.88 1.91 11.97-2.43.96-4.56-9.68-8.93-13.39-9.61l-173.46-41.06Zm-241.18 9.44c.35 12.92 15.25 15.09 25.28 17.89 128.48 35.96 267.2 54.31 396.6 89.11 17.95 1.8 7.79-10.35-3.4-12.03l-404.58-94.49-13.9-.48Zm426.12 134.34-1.92-6.7c-140.85-36.23-283.68-66.78-425.25-100.87-12.99.05-2.8 10.38 3.53 13.93s13.64 4.52 20.53 6.34c127.01 33.6 258.15 53.71 385.38 86.82l17.74.48Zm-383.9-32.62-56.84-5.58c-15.14-.07-14.51 11.89-16.08 23.83-1.18 9-2.99 29.99-1.98 38.41.79 6.58 3.25 10.95 9.6 13.42 7.21 2.81 54.82 12.35 62.53 12.51 6.26.13 13.26-3.04 15.71-9.2 3.99-10.04 10.05-48.89 8.14-58.97-.74-3.88-3.97-5.52-5.73-8.68.48-1.4 2.94-13.65 3.09-15.31.64-7.3-3.92-7.53-8.6-2.68-1.74 1.81-8 9.76-9.84 12.23Zm57.01 44.54c-11.42 3.41-3.45 26.44 7.34 28.36l266.99 51.63c22.43 5.02 29.8-14.82 6.53-21.87-84.38-25.54-182.63-33.5-268.29-58.01-4-.61-8.66-1.28-12.57-.11Zm-21.08 120.92c-13.84 1.92-7.39 27.75 5.38 30.29l268.93 51.63c23.57 3.36 23.8-20.07 1.54-22.65l-275.85-59.27Zm-28.77 117.03c-13.49 6.56-6.28 26.18 5.83 29.87l272.35 52.19c18.81 2.34 18.95-17.4 3.04-22.38-93.83-19.27-187.34-41.71-281.22-59.68Zm-87.78 78.38-58.59-7.35c-2.93.06-8.94 2.05-10.68 4.3-3.69 4.79-6.73 51.85-5.69 59.77.71 5.42 3.43 8.52 8.33 10.86 7.17 3.42 51.14 12.21 60.17 12.84 11.51.81 16-1.32 19.79-12.38 3.56-10.39 9.94-47.19 6.92-56.63-1.06-3.31-2.99-5.73-6.82-5.66 1.14-3.53 5.43-21.38 3.83-23.02-4.37-4.47-14.99 14.17-17.27 17.27Zm57.02 42.6c-11.75 3.51-4.21 30.44 10.13 29.41 85.85 10.14 179.28 42.77 264.19 50.59 22.08 2.03 28.65-8.86 9.33-20.83-87.86-16.18-175.76-41.53-263.53-57.03-6.12-1.08-14.11-3.94-20.12-2.14Z" class="cls-12"/><path d="M1679.39 1013.5c1.48 1.3 3.5 7.27 3.84 9.6.4 2.82-.03 6.55 0 9.6-2.74 1.86-3.82 5.48-5.76 7.68-1.31 1.48-4.03 4.01-5.76 5.76-3.96 4.02-24.01 20.95-24.64 24.27 5.57 15.15 19.82 29.97 20.8 46.76.28 4.81-1.03 14.21-1.92 19.2-.33 1.87-3.86 3.74-3.84 11.52-4.49-1.47-7.19 7.69-7.68 11.52-.95.73-3.34 1.24-3.84 1.92-19.32-10.72-27.27-12.87-20.55-36.86 2.02-7.2 13.73-24.17 3.29-29.48-3.37-1.71-3.72.28-5.84 1.97-11.66 9.27-33.03 38.33-44.09 14.47 1.96-2.67 5.74-11.09 7.68-13.44 24.52-29.67 58.07-56.21 84.46-84.46 1.08.24 3.43-.36 3.84 0Z" class="cls-10"/><path d="M1646.75 1168.98c1.4-2.33 3.02-6.56 3.84-7.68.5-.68 2.89-1.19 3.84-1.92-3.41 26.57 6 23.95 26.87 28.79 1.64.38 4.02-.34 5.76 0 32.45 6.29 32.5 12.49 38.16-26.15.7-4.76 1.68-13.44.23-18 1.16-2.14 5.1-9.81 5.76-11.52 6.58 10.65 1.83 28.42-.61 40.66-2.24 11.27-1.91 27.23-17.04 26.11-8.35-.62-52.21-9.47-58.58-12.62-9.74-4.82-3.79-10.18-8.24-17.68Z" class="cls-12"/><path d="M1642.91 1176.66c1.53-2.08 2.43-5.34 3.84-7.68 4.44 7.5-1.5 12.86 8.24 17.68 6.37 3.15 50.22 12 58.58 12.62 15.13 1.13 14.8-14.84 17.04-26.11 2.44-12.24 7.19-30.01.61-40.66.55-1.4 1.38-4.09 1.92-5.76 1.75 3.15 4.99 4.8 5.73 8.68 2.22 11.72-3.11 47.87-7.7 59.41-2.79 7.02-8.17 10.39-15.74 10.14-8.5-.28-52.38-9.31-60.64-12.35-7.25-2.66-11.92-8.03-11.86-15.97Z" class="cls-3"/><path d="M1543.1 1382.04c15.09 6.01 39.36 6.21 53.23 12.99 5.3 2.59 3 7.9-3.37 7.37-15.76-1.31-36.85-11.84-53.7-12.68 2.49-5.76-.6-2.15 3.84-7.68Z" class="cls-4"/><path d="M1520.07 1274.55c-1.71 5.65-5.42 10.5-11.52 11.52 3.38-8.58 8.86-48.02 13.38-50.93 2.5-1.61 3.14-1.07 4.89 1 1.08 1.64-5.36 33.82-6.75 38.41Z" class="cls-1"/><path d="m1554.62 1224.64 15.36-71.02c.67 34.36 0 39.68-15.36 71.02Z" class="cls-9"/><path d="M2383.84 2744.89c2.56-.04 5.12.03 7.68 0 2.36 17.1 26.18 13.12 28.79 0 12 1.04 33.84 2.54 30.71 19.2-30.68-.02-61.46-.14-92.14 0-2.64-17.87 10.89-18.95 24.95-19.2Z" class="cls-8"/><path d="M2391.52 2702.66c.74 13.16-1.01 27.29 0 40.31h-7.68v-40.31c1.88.49 5.32-.14 7.68 0Z" class="cls-4"/><path d="M2391.52 2742.97c.05.63-.09 1.3 0 1.92-2.56.03-5.12-.04-7.68 0v-1.92h7.68Z" class="cls-7"/><path d="m2666.01 2693.06-.84 50.03c-14.47 4.01-34.98-1.19-31.79 20.99-51.76-.77-103.71.14-155.48 0v-63.34c62.26-1.86 125.64-4.4 188.11-7.68Z" style="fill:#ff847c"/><path d="M2477.9 2700.74v63.34c-8.94-.02-17.94 0-26.87 0 3.13-16.66-18.72-18.15-30.71-19.2 2.31-11.57-1.69-29.79 0-42.23 18.48-.42 38.67-1.36 57.59-1.92Z" class="cls-4"/><path d="M2420.31 2702.66c-1.69 12.44 2.31 30.66 0 42.23-2.62 13.12-26.44 17.1-28.79 0-.09-.62.05-1.29 0-1.92-1.01-13.02.74-27.15 0-40.31 9.13.55 19.56.21 28.79 0Z" class="cls-13"/><path d="M2479.81 2635.47c-.98.96-22.75 1.7-27.3 2.46-12.4 2.06-42.48 7.57-52.77 12.5-14.26 6.83-13.75 25.23-13.99 38.79-7.82.6-6.3-12.47-5.82-18.31 2.22-26.99 21.97-29.13 44.2-34.49 14.53-3.51 34.54-7.71 49.25-8.52 5.64-.31 8.76 5.3 6.43 7.57Z" class="cls-9"/><path d="M1533.48 1211.2c-1.56 1.08-6.92-.32-7.49-3.02-.31-1.49 3.89-20.95 8.45-20 5.92 1.24.03 22.34-.96 23.02Zm456.34-673.36c19.67-2.59 21.22 29.07 3.29 30.28-19.69 1.32-22.37-27.77-3.29-30.28Z" class="cls-4"/><path d="M2007.45 522.29c6.89 10.75-15.9 1.71-20 1.72-20.95.04-17.51 23.08-20.16 24.95-7.19 5.1-9.1-18.54 6.35-27.25 6.85-3.86 30.17-5.09 33.8.57Z" class="cls-9"/><path d="M1967.3 550.91c1.65 1.74-1.67 15.14-4.79 15.31s-3.51-9.22-2.58-12.14c1.07-3.36 6.34-4.25 7.37-3.17Z" class="cls-9"/><path d="M2435.66 2785.21h15.38v5.74h-15.38zm-224.58 140.1c-1.27 3.33 3.18 15.46-2.84 15.35-4.74-3.77-2.6-10.19-2.9-15.35h5.74Zm671.83.02h-5.74v-15.36c8.22-.14 5.48 9.69 5.74 15.36Zm-128.61-136.28c.32 7.79-11.45 7.62-15.33 2.84-.1-6.05 12.03-1.53 15.33-2.84ZM2213 2823.6c-.27 5.66 2.49 15.46-5.74 15.34.27-5.66-2.49-15.46 5.74-15.34Zm474.11-36.47c.32 7.79-11.45 7.62-15.33 2.84-.1-6.05 12.03-1.53 15.33-2.84Zm197.71 157.38c1.91 19.81-7.65 19.81-5.74 0h5.74Zm-201.54 69.12c1.07 7.18-10.79 5.51-15.34 5.74-.05-8.35 9.95-5.41 15.34-5.74Zm-145.89-228.42h13.46v5.74h-13.46zm-32.63 0h13.46v5.74h-13.46zm-299.42 107.47h5.74v13.46h-5.74zm0-34.55h5.74v13.46h-5.74zm197.69-72.92h13.46v5.74h-13.46zm-157.4 190.05c4.96 5.17-17.31 6.76-15.34-1.94 3.03-.27 13.76.29 15.34 1.94Zm570.09 13.42c1.07 7.18-10.79 5.51-15.34 5.74-.05-8.35 9.95-5.41 15.34-5.74Zm-67.18 11.51c.2.21.22 5.53.02 5.74-.47.49-12.97 2.42-13.44 1.92-5.49-5.88 12.08-9.05 13.42-7.66Zm-366.61-214.98v5.74h-13.44c-.29-7.57 8.12-5.77 13.44-5.74ZM2213 2973.32h-5.74v-13.44c7.57-.29 5.77 8.12 5.74 13.44Zm654.54-163.17c.73.77 2.17 12.89 1.93 15.35-8.87 1.99-6.88-20.58-1.93-15.35Zm13.44 165.09c.4.41-.22 4.18.02 5.74l-13.44 1.92c-4.52-7.08 12.55-8.56 13.41-7.66Z" class="cls-12"/><path d="M2278.28 2981c.2.21.17 5.53-.02 5.74-.46.5-12.97-1.43-13.44-1.92-.2-.21-.17-5.53.02-5.74.46-.5 12.97 1.43 13.44 1.92Z" class="cls-4"/><path d="M2848.36 2986.73c-2.8-.3-12.14 3.26-13.42 1.92-.2-.21-.22-5.53-.02-5.74.58-.6 16.15-3.81 13.44 3.81Zm-470.28 19.2c-3.74-.52-16.37.99-15.34-5.74 5.39.33 15.39-2.61 15.34 5.74Zm337.83 1.94c1.03 6.73-11.59 5.22-15.34 5.74-.05-8.35 9.95-5.41 15.34-5.74Zm-238.01 13.43c.12 1.26-.13 2.58 0 3.84l-15.38-4.78 15.38.94Z" class="cls-12"/><path d="M2879.07 2877.33c2.01 28.77-9.58 3.71-5.74 0 .39-.38 4.19.23 5.74 0Z" class="cls-4"/><path d="M2343.51 2994.49c.28.35.73 5.78-.96 5.72-4.25-1.78-12.9-.95-12.44-7.7 2.18-.08 12.97 1.45 13.4 1.97Z" class="cls-12"/><path d="M2483.65 2785.21c1.54 7.96-13.32 6.84-13.39 2.87-.06-3.38 10.85-3.24 13.39-2.87Z" class="cls-3"/><path d="M2854.13 2794.81c-.24 1.56.37 5.33-.02 5.74-2.94 3.06-29.14-7.47.02-5.74Zm-637.29-3.84c-.23 3.98 1.03 14.6-5.74 13.42l5.74-13.42Zm431.88 228.42c.39.41-.22 4.18.02 5.74h-13.44c-2.26-5.6 12.88-6.3 13.42-5.74Zm-238-11.51c5.27 4.96-11.95 4.09-13.45 3.81-4.9-8.71 11.97-5.2 13.45-3.81Z" class="cls-12"/><path d="M2443.36 3013.63c-.24 1.56.37 5.33-.02 5.74-2.94 3.06-29.14-7.47.02-5.74Z" class="cls-4"/><path d="M2310.89 2992.5c-3.98-.23-14.6 1.03-13.42-5.74l13.42 5.74Zm562.4-147.79c1.32 1.27 2.21 10.79 1.94 13.42-8.58 1.86-7-18.31-1.94-13.42Zm-92.12 149.73-13.42 5.74c-1.18-6.77 9.44-5.51 13.42-5.74Z" class="cls-12"/><path d="M2349.28 2790.95c-4.08-1.08-14.98 3.31-13.44-3.82 5.74.39 13.3-5.22 13.44 3.82Zm-67.18-3.82c1.53 7.35-11.14 2.56-15.34 3.82-1.53-7.35 11.14-2.56 15.34-3.82Z" class="cls-4"/><path d="M2719.75 2789.05c1.59 7.13-9.35 2.74-13.42 3.82-1.59-7.13 9.35-2.74 13.42-3.82Z" class="cls-12"/><path d="M2786.93 2790.97c1.59 7.13-9.35 2.74-13.42 3.82-1.59-7.13 9.35-2.74 13.42-3.82Z" class="cls-4"/><path d="M2821.48 2792.89c1.59 7.13-9.35 2.74-13.42 3.82-1.59-7.13 9.35-2.74 13.42-3.82Z" class="cls-12"/><path d="M2618.01 2787.13c1.59 7.13-9.35 2.74-13.42 3.82-1.59-7.13 9.35-2.74 13.42-3.82Zm34.55 0c1.59 7.13-9.35 2.74-13.42 3.82-1.59-7.13 9.35-2.74 13.42-3.82Zm-67.18 0c1.59 7.13-9.35 2.74-13.42 3.82-1.59-7.13 9.35-2.74 13.42-3.82Z" class="cls-4"/><path d="M2314.73 2787.13c1.59 7.13-9.35 2.74-13.42 3.82-1.59-7.13 9.35-2.74 13.42-3.82Zm-67.18 0c1.59 7.13-9.35 2.74-13.42 3.82-1.59-7.13 9.35-2.74 13.42-3.82Z" class="cls-12"/><path d="M2552.76 2982.91v97.89c-17.49.06-46.75 6.4-51.37-14.85-3.08-14.16-8.18-52.79-8.18-66.78 0-5.22 6.17-14.45 11.01-15.87 8.34-2.44 37.58-.44 48.55-.4Z" style="fill:#4a4df5"/><path d="M2552.76 3080.8v-97.89c10.93.05 44.58-2.63 50.76 3.94 3.72 3.96 5.08 10.87 5.07 16.22-.01 14.63-3.13 49.02-6.06 63.2-4.22 20.43-33.33 14.47-49.77 14.53Z" class="cls-6"/><path d="M797.82 927.58c58.19-9.93 67.18 73.31 18.29 81.62-59.27 10.07-67.3-73.25-18.29-81.62Zm401.16-126.7c44.02-9.16 45.62 59.99 1.61 53.17-28.11-4.36-29-47.47-1.61-53.17Z" class="cls-9"/><path d="M1776.76 1165.46c93.88 17.97 187.39 40.41 281.22 59.68 15.91 4.98 15.77 24.72-3.04 22.38l-272.35-52.19c-12.11-3.7-19.32-23.31-5.83-29.87Zm28.77-117.03 275.85 59.27c22.26 2.58 22.04 26.01-1.54 22.65l-268.93-51.63c-12.77-2.54-19.22-28.38-5.38-30.29Zm21.08-120.92c3.91-1.17 8.57-.5 12.57.11 85.65 24.52 183.91 32.47 268.29 58.01 23.27 7.04 15.91 26.89-6.53 21.87l-266.99-51.63c-10.78-1.92-18.76-24.95-7.34-28.36ZM1746 1286.44c6.01-1.8 14 1.06 20.12 2.14 87.77 15.49 175.67 40.85 263.53 57.03 19.31 11.97 12.75 22.87-9.33 20.83-84.91-7.82-178.34-40.45-264.19-50.59-14.34 1.03-21.88-25.9-10.13-29.41Z" class="cls-1"/><path d="m2153.5 915.59-17.74-.48c-127.22-33.11-258.36-53.23-385.38-86.82-6.89-1.82-14.23-2.8-20.53-6.34s-16.51-13.88-3.53-13.93c141.57 34.1 284.41 64.65 425.25 100.87l1.92 6.7Zm-426.12-134.34 13.9.48 404.58 94.49c11.18 1.68 21.34 13.84 3.4 12.03-129.4-34.8-268.12-53.15-396.6-89.11-10.03-2.81-24.93-4.98-25.28-17.89Zm241.18-9.44 173.46 41.06c3.71.68 14.35 5.04 13.39 9.61-3.09 4.34-7.56 2.98-11.97 2.43-54.14-6.67-114.11-30.15-168.92-38.41-7.3-1.6-13.48-9.5-5.97-14.69Zm192.53 17.22c3.39 5.18-5.3 9.63-10.22 7.41-51.06-14.03-106-21-156.71-35.33-6.67-1.89-17.11-3.39-21.21-9.5-8.07-12.06 10.68-7.19 17.42-5.89 47.46 9.12 107.95 23.93 154.35 37.59 2.52.74 15.89 5 16.37 5.73Zm-181-72.74c3.72-1.18 8.75-.29 12.65.19 51.16 17.16 113.46 22.29 163.53 39.92 2.94 1.04 13.53 4.06 12.58 8.49-3.75 4.69-10.6 3.05-15.82 2.41-51.97-6.39-110-29.19-162.71-36.9-5.36-.31-18.82-11.39-10.22-14.12Z" class="cls-4"/><path d="M1784.96 888.73c-.11.33-2.35 2.3-3.84 5.76-1.22 2.83-2.72 7.52-3.84 9.6-8.75 16.15-24.93 34.3-40.31 44.15-1.17-.24-2.72.26-3.84 0-8.75-6.39-32.53-49.33-14.28-51.88 12.45-1.74 13.43 16.47 17.24 25.01 1.08 2.43-.26 4.57 3.79 3.89 6.09-1.02 18.07-25.18 22.04-30.77 1.5-2.12 2.66-4.09 3.84-5.76 1.4-1.98 2.86-4.44 3.84-5.76 1.84-2.47 8.1-10.43 9.84-12.23 4.68-4.86 9.24-4.63 8.6 2.68-.14 1.66-2.61 13.92-3.09 15.31Zm-95.98 355.11c2.28-3.1 12.89-21.74 17.27-17.27 1.61 1.64-2.69 19.5-3.83 23.02-.26.8-1.34 2.42-1.92 3.84-1.05 2.6-2.95 7.92-3.84 9.6-2.71 5.12-12.27 18.15-16.29 23.06-6.96 8.49-16.39 15.19-24.02 23.01-2.25-.4-4.02-1.52-5.76-1.92-7.04-7.57-31.15-49.26-12.36-51.88 12.3-1.72 13.29 17.92 17.24 26.93.73 1.65.31 5.24 3.73 3.82 4.45-1.86 18.29-27.24 22.1-32.62 1.49-2.1 2.71-4.19 3.84-5.76.59-.82 2.48-2 3.84-3.84Zm44.15-117.09c-.54 1.67-1.37 4.36-1.92 5.76-.66 1.7-4.6 9.37-5.76 11.52-9.25 17.09-24.02 31.39-38.39 44.15-1.73-.34-4.12.38-5.76 0-8.18-10.93-19.16-26.12-19.2-40.31-.02-7.78 3.5-9.64 3.84-11.52 16.58-7.44 15.13 31 23.97 28.79 2.51-.62 25.8-36.7 29.77-42.23 2.56-3.56 10.29-18.15 14.37-17.27 4.82 1.04.26 17.41-.93 21.1Zm13.44-120.93c14.89-20.17 22.81-23.1 13.44 5.76-.58 1.78-1.27 4.2-1.92 5.76-.61 1.48-2.87 5.79-3.84 7.68-9.28 18.1-23.46 34.65-40.31 46.07-1.18-.23-2.71.26-3.84 0-8.75-6.39-32.53-49.33-14.28-51.88 16.56-2.32 10.81 31.16 22.88 28.92 1.81-.34 17.35-26.77 20.19-30.79 1.35-1.91 2.53-3.91 3.84-5.76 1.45-2.04 2.83-4.39 3.84-5.76Z" class="cls-14"/><path d="M1769.6 882.97c-.98 1.32-2.44 3.78-3.84 5.76-9.97 1.29-54.22-8.69-59.62-4.9-3.82 2.68-7.13 53.02-5.27 59.23.81 2.71 2.53 3.61 4.91 4.69 7.4 3.33 46.53 11.16 55.45 11.81 4.41.32 9.15.76 13.02-1.88 6.51-4.45 11.33-45.56 10.81-54.66-.21-3.58.45-7.18-3.94-8.53 1.49-3.46 3.73-5.43 3.84-5.76 1.75 3.15 4.99 4.8 5.73 8.68 1.91 10.08-4.15 48.93-8.14 58.97-2.45 6.15-9.45 9.33-15.71 9.2-7.71-.16-55.32-9.7-62.53-12.51-6.35-2.48-8.82-6.84-9.6-13.42-1.01-8.42.8-29.42 1.98-38.41 1.57-11.95.94-23.9 16.08-23.83l56.84 5.58Zm-80.62 360.87c-1.35 1.84-3.25 3.02-3.84 3.84-17.29.51-36.02-5.16-52.89-5.84-2.98-.12-5.29-.34-7.63 1.96-5.49 5.41-2.87 43.09-6.6 52.73.8 5.28 3.53 8.77 8.42 10.8 8.09 3.37 44.46 10.27 54.13 11.13 17.65 1.58 15.45-4.41 18.98-18.94 2.76-11.38 5.47-25.95 4.88-37.56-.18-3.58.42-7.19-3.94-8.52.58-1.42 1.66-3.04 1.92-3.84 3.83-.07 5.77 2.35 6.82 5.66 3.02 9.45-3.36 46.24-6.92 56.63-3.79 11.06-8.28 13.18-19.79 12.38-9.04-.63-53-9.42-60.17-12.84-4.91-2.34-7.62-5.44-8.33-10.86-1.04-7.92 2-54.98 5.69-59.77 1.74-2.25 7.75-4.25 10.68-4.3l58.59 7.35Z" class="cls-3"/><path d="M1719.69 1122.91c-3.97 5.53-27.27 41.6-29.77 42.23-8.85 2.21-7.39-36.23-23.97-28.79.89-4.98 2.2-14.39 1.92-19.2l51.83 5.76Z" class="cls-4"/><path d="M1671.71 1046.13c1.73-1.75 4.45-4.28 5.76-5.76 2.33 8.95-6.59 22.2 3.09 28.59 4.34 2.86 52.08 12.81 59.55 13.44s11.08 1.37 14.09-6.56c3.73-9.83 8.26-39.39 7.84-49.96-.14-3.58.37-7.21-3.95-8.53.65-1.56 1.34-3.97 1.92-5.76 8.73 4.48 8.13 13.51 7.64 22.05-.45 7.86-7.51 45.54-11.43 49.99-3.97 4.5-8.48 4.94-14.15 4.59-7.68-.47-59.68-11.3-64.5-14.34-8.67-5.48-5.29-19.05-5.86-27.74Zm74.86-40.31c-1.01 1.37-2.39 3.72-3.84 5.76l-54.76-5.92c-5.35-.32-6.95 3.47-8.58 7.84-.41-.36-2.76.24-3.84 0-1.26-7.74 3.52-12.02 10.71-13.38l60.31 5.7Z" class="cls-3"/><path d="M1738.89 1017.34c-2.84 4.02-18.38 30.45-20.19 30.79-12.07 2.24-6.31-31.24-22.88-28.92-18.25 2.55 5.53 45.48 14.28 51.88-7.53-1.73-24.04-1.35-27.8-9.63-2.02-4.44 1.01-21.32.93-28.76-.03-3.05.4-6.78 0-9.6 3.44-4.65 1.47-10.3 8.73-11.51l46.94 5.75Z" class="cls-4"/><path d="M1677.47 1040.37c1.94-2.2 3.02-5.81 5.76-7.68.08 7.44-2.95 24.32-.93 28.76 3.77 8.29 20.27 7.9 27.8 9.63 1.13.26 2.66-.23 3.84 0 7.68 1.49 18.98 7.81 27.4 5.39 10.12-2.9 13.17-41.35 12.91-51.46.97-1.89 3.23-6.2 3.84-7.68 4.32 1.32 3.81 4.95 3.95 8.53.42 10.57-4.11 40.13-7.84 49.96-3.01 7.93-6.42 7.2-14.09 6.56s-55.22-10.58-59.55-13.44c-9.68-6.38-.76-19.63-3.09-28.59Z" class="cls-12"/><path d="M1662.11 1147.86c.03 14.19 11.01 29.38 19.2 40.31-20.87-4.84-30.29-2.22-26.87-28.79.49-3.83 3.19-12.98 7.68-11.52Z" class="cls-4"/><path d="M1742.73 1011.58c-1.31 1.85-2.49 3.85-3.84 5.76l-46.94-5.75c-7.26 1.21-5.29 6.86-8.73 11.51-.33-2.33-2.36-8.3-3.84-9.6 1.63-4.37 3.23-8.17 8.58-7.84l54.76 5.92Z" class="cls-12"/><path d="M1687.06 1188.17c14.37-12.76 29.14-27.06 38.39-44.15 1.45 4.56.47 13.24-.23 18-5.66 38.64-5.71 32.44-38.16 26.15Z" class="cls-4"/><path d="M1765.76 888.73c-1.18 1.67-2.33 3.64-3.84 5.76l-45.12-5.93-7.68 3.99c.53 12.59-10.25 44.97 2.33 51.44 6.3 3.24 14.98 2.67 21.67 4.24 1.12.26 2.67-.24 3.84 0 .84.17 2.99 2.49 5.6 2.95 26.5 4.71 27.26 7.64 32.19-19.87 1.61-9.01 3.24-18 2.52-27.23 1.12-2.07 2.62-6.77 3.84-9.6 4.39 1.34 3.74 4.95 3.94 8.53.52 9.1-4.3 50.21-10.81 54.66-3.87 2.65-8.61 2.2-13.02 1.88-8.92-.65-48.05-8.48-55.45-11.81-2.39-1.07-4.1-1.97-4.91-4.69-1.86-6.22 1.45-56.56 5.27-59.23 5.4-3.79 49.65 6.19 59.62 4.9Z" class="cls-12"/><path d="M1761.92 894.49c-3.96 5.6-15.94 29.76-22.04 30.77-4.05.68-2.71-1.46-3.79-3.89-3.81-8.54-4.79-26.75-17.24-25.01-18.25 2.55 5.53 45.49 14.28 51.88-6.69-1.57-15.37-.99-21.67-4.24-12.58-6.48-1.81-38.86-2.33-51.44l7.68-3.99 45.12 5.93Zm-24.95 53.74c15.38-9.85 31.56-28 40.31-44.15.71 9.23-.91 18.22-2.52 27.23-4.93 27.51-5.69 24.58-32.19 19.87-2.61-.46-4.76-2.78-5.6-2.95Z" class="cls-4"/><path d="M1685.14 1247.68c-1.13 1.57-2.35 3.66-3.84 5.76l-46.99-5.76c-2.35.2-4.81 1.72-5.81 3.84-1.66 3.51-4.69 33.71-4.86 39.45-.51 16.78 15.51 13.58 26.95 16.22 1.74.4 3.51 1.52 5.76 1.92 29.97 5.32 31.81 11.66 37.78-20.76 1.54-8.34 3.12-16.75 2.52-25.31.89-1.68 2.78-7 3.84-9.6 4.37 1.34 3.76 4.94 3.94 8.52.59 11.62-2.12 26.18-4.88 37.56-3.52 14.54-1.33 20.52-18.98 18.94-9.67-.86-46.04-7.76-54.13-11.13-4.89-2.04-7.62-5.53-8.42-10.8 3.73-9.64 1.11-47.32 6.6-52.73 2.33-2.3 4.65-2.09 7.63-1.96 16.87.68 35.6 6.35 52.89 5.84Z" class="cls-12"/><path d="M1681.3 1253.44c-3.81 5.37-17.65 30.76-22.1 32.62-3.42 1.42-3-2.17-3.73-3.82-3.96-9.01-4.94-28.64-17.24-26.93-18.79 2.62 5.32 44.31 12.36 51.88-11.44-2.64-27.46.56-26.95-16.22.17-5.73 3.2-35.94 4.86-39.45 1-2.12 3.46-3.64 5.81-3.84l46.99 5.76Zm-24.95 55.66c7.63-7.82 17.06-14.52 24.02-23.01 4.02-4.91 13.58-17.94 16.29-23.06.59 8.56-.99 16.97-2.52 25.31-5.97 32.42-7.82 26.08-37.78 20.76Zm57.59-238.02c16.85-11.42 31.03-27.97 40.31-46.07.26 10.11-2.79 48.56-12.91 51.46-8.42 2.42-19.72-3.9-27.4-5.39Z" class="cls-4"/></svg>