<svg xmlns="http://www.w3.org/2000/svg" data-name="Livello 1" viewBox="0 0 400 400"><path d="M262.95 353.79c-1.1-1.3-2.7-9.02-3.31-15.43-.3-3.11-.8-3.51-7.21-6.31-7.91-3.31-7.11-3.51-16.93 4.31-2.7 2.1-5.61 3.81-6.61 3.81-2.8 0-15.13-13.12-15.13-16.13 0-1.6 2-5.31 5.11-9.32l5.01-6.71-2.7-6.91c-1.5-3.91-2.8-7.01-2.8-7.01-.1-.1-4.01-.7-8.91-1.4-4.81-.8-9.42-1.9-10.22-2.6-1.1-.9-1.5-3.61-1.5-11.02 0-12.02.4-12.42 12.12-14.12l8.61-1.2 2.7-6.91 2.7-6.91-5.01-6.81c-7.01-9.42-6.91-11.12 1.3-18.93 3.81-3.71 7.31-6.21 8.61-6.21 1.1 0 5.11 2.3 8.71 5.01 3.61 2.8 7.31 5.01 8.21 5.01 3.31-.1 12.52-4.81 13.22-6.81.4-1.1 1.1-4.91 1.5-8.41 1-9.62 2.4-10.62 14.02-10.42 5.41.1 9.92.7 10.52 1.3.7.7 1.9 5.31 2.8 10.42l1.6 9.22 6.61 2.7 6.71 2.7 7.01-5.41c3.91-2.9 8.11-5.31 9.22-5.31 2.8 0 14.62 11.32 15.53 14.72.5 2.1-.5 3.91-5.11 10.02l-5.71 7.41 1.6 3.21c.9 1.8 2.3 4.81 3.11 6.81 1.4 3.61 1.5 3.61 9.72 4.91 11.62 1.7 11.92 2.1 11.92 14.02 0 9.82-.8 12.12-4.41 12.62-.6.1-3.81.5-7.11 1-3.31.4-6.61.8-7.41.9-.7 0-2.1 2.3-3.21 5.01-1 2.8-2.3 5.81-2.9 6.81-.9 1.6-.3 3.01 3.81 8.71 7.61 10.32 7.61 10.02-1 18.63-4.11 4.11-8.11 7.41-9.02 7.41-.8 0-4.71-2.5-8.71-5.61l-7.21-5.61-4.31 2.1c-2.4 1.1-5.51 2.3-6.91 2.6-2.7.7-2.7.8-4.31 13.02-1 7.81-2.1 8.51-13.42 8.51-7.01 0-10.12-.4-10.92-1.4Zm20.04-5.11c.1-1.4.2-2.8.3-3.21.1-.5.5-3.41 1-6.51.8-6.41 1.5-7.21 9.42-10.62 9.52-4.01 9.92-4.01 18.13 2.3l7.41 5.71 5.91-5.91 6.01-6.01-5.61-7.81c-3.11-4.31-5.61-8.31-5.61-8.81 0-2.2 5.31-14.32 6.91-16.03 1.2-1.2 4.41-2.2 9.72-2.9 4.31-.6 8.41-1.4 8.91-1.8 1-.8 1.4-15.43.5-16.43-.3-.2-4.31-1-9.02-1.6-9.02-1.2-11.42-2.5-12.52-6.81-.3-1.4-1.5-4.41-2.6-6.61-1-2.2-1.9-4.71-1.9-5.71 0-.9 2.5-4.91 5.51-8.91l5.61-7.11-5.91-6.11-6.01-6.21-6.81 5.11c-3.81 2.7-7.71 5.31-8.61 5.61-1.7.6-15.43-4.61-17.53-6.71-.9-.9-3.31-13.62-3.31-17.63 0-.5-3.81-1-8.51-1.2-9.82-.3-8.81-1.3-10.42 10.62-1 6.91-3.01 10.62-6.01 10.62-.9 0-4.01 1.1-6.91 2.5-2.9 1.4-6.01 2.1-7.01 1.8-.9-.4-4.61-2.8-8.11-5.51-3.51-2.6-6.71-4.81-7.01-4.81-.4 0-3.21 2.6-6.31 5.81l-5.71 5.71 5.41 7.21c5.41 7.01 6.81 11.52 4.61 13.82-.4.6-1.6 3.11-2.6 5.71-.9 2.6-2.5 5.41-3.41 6.21-1.3 1.1-13.62 3.61-18.23 3.61-.6 0-.9 3.61-.7 8.71l.3 8.71 8.91 1.3c5.01.7 9.42 1.7 9.92 2.2 1.4 1.4 6.71 14.92 6.71 17.03 0 1-2.2 4.81-5.01 8.41-2.7 3.61-5.01 7.01-5.01 7.41s2.5 3.31 5.61 6.41l5.71 5.71 7.21-5.41c3.91-3.01 7.81-5.41 8.61-5.41s4.91 1.4 9.12 3.21c8.71 3.51 9.12 4.11 10.32 15.33.4 3.31.9 6.31 1.2 6.81.2.4 4.21.7 8.91.7 8.31 0 8.41 0 8.51-2.5Z"/><path d="M267.56 310.11c-8.61-2.2-18.03-9.02-21.64-15.83-2.8-5.21-4.01-13.12-3.01-19.73 1.1-8.01 3.41-12.72 8.81-18.13 15.23-15.23 40.37-11.22 50.18 8.01 3.01 6.01 3.41 7.71 3.41 14.42 0 9.42-3.01 16.63-9.52 22.94-7.51 7.21-19.03 10.62-28.25 8.31Zm15.53-5.11c5.51-1.4 14.22-9.72 16.53-15.83 4.01-10.42.7-24.34-7.51-31.15-4.61-3.81-13.02-7.01-18.23-7.01-15.93 0-30.05 16.63-27.15 31.75 3.51 18.03 18.43 27.15 36.36 22.24Zm-113.39 9.92c0-.8 1.7-2.4 3.81-3.61l3.71-2.2-5.01-.1c-9.72-.2-15.33-1.6-23.24-6.11-9.22-5.11-18.03-17.23-19.93-27.25l-.7-3.91-1.8 3.51c-2.1 4.01-4.91 6.81-4.91 4.81 0-1.6 6.71-13.72 8.01-14.52.7-.4 5.91 6.21 9.42 12.32 1.7 2.8-2.4 1-4.31-2l-2.2-3.31.7 3.01c2.1 9.42 11.52 21.04 20.53 25.34 5.31 2.6 14.52 4.41 19.73 4.01l3.71-.3-4.31-2.4c-2.7-1.6-3.91-2.8-3.31-3.41 1-1 14.12 6.71 14.12 8.31 0 .6-8.51 6.21-13.22 8.71-.5.2-.8-.2-.8-.9Zm-56.59-67.11c-3.21-2.8-4.41-7.91-4.51-18.73 0-8.21-.1-8.51-3.11-11.02-2.5-2.1-3.21-3.61-3.61-7.61-.2-2.8-.6-6.01-.9-7.31-.2-1.2-8.01-9.82-17.33-19.03-17.93-17.83-23.84-25.74-30.15-39.77-3.41-7.81-3.51-8.31-3.51-21.04 0-14.62 1.4-21.14 7.21-33.06 9.52-20.03 27.95-35.66 49.88-42.57 9.02-2.8 25.64-3.71 36.26-2 26.74 4.21 50.58 23.44 61.1 49.08 4.11 10.12 5.61 17.63 5.51 29.25 0 10.82-1.4 16.53-6.81 26.84-6.61 12.62-18.43 26.34-38.06 44.07q-6.11 5.61-6.81 12.52c-.8 7.51-2.4 11.02-5.51 12.02-1.7.5-2 1.7-2.3 12.62l-.3 12.12-3.31 2.9-3.21 2.9h-14.02c-13.02 0-14.12-.1-16.53-2.2Zm31.45-4.41c1.8-2.3 2.1-4.11 2.1-12.62v-9.82l-16.73.2-16.83.3.2 10.42c.3 14.32.1 14.12 16.43 14.12 12.62 0 12.82 0 14.82-2.6Zm-23.94-54.99v-27.55l-2.2-.1c-1.3 0-4.41-.2-6.91-.3-8.01-.3-13.22-5.41-13.32-13.22-.1-11.82 14.12-17.43 22.54-8.81 3.01 3.11 3.31 4.01 3.51 9.72.1 3.41.2 6.81.3 7.51.1.8 1.8 1.2 5.01 1.2h4.81l.6-6.51c.3-3.51 1.3-7.71 2.1-9.32 5.91-11.42 24.64-7.01 24.64 5.81 0 9.52-5.41 13.52-18.73 13.92l-4.21.1-.1 27.55-.1 27.55h6.51c3.91 0 6.71-.5 7.41-1.2.5-.7 1.2-3.81 1.4-6.81.6-8.01 3.11-12.22 10.92-18.63 19.63-16.03 36.76-39.37 40.37-54.89 2.7-11.62-.1-30.25-6.51-42.97-7.81-15.43-22.04-29.15-37.36-36.16-9.32-4.31-16.23-5.81-28.75-6.31-9.62-.4-12.92-.2-19.93 1.6-27.65 7.01-47.68 25.84-56.09 52.69-2.7 8.91-3.71 23.44-2 30.65 3.81 15.93 16.13 33.26 37.36 52.49 11.62 10.52 12.82 12.22 13.42 19.83.7 8.31 2.1 9.72 9.52 9.72h5.81v-27.55Zm14.12 26.34c.5-4.11.4-52.19-.1-52.79-.7-1.1-6.41-2.1-8.71-1.5-1.9.5-2 1.4-2.1 26.24-.1 14.12.1 26.54.4 27.55.4 1.3 1.6 1.7 5.51 1.7 3.21 0 4.91-.4 5.01-1.2Zm-14.32-65c-.6-7.71-3.31-10.92-9.32-10.92-7.91 0-11.92 8.71-6.61 14.42 1.9 2.1 3.51 2.6 8.51 2.8 3.31.2 6.51.1 7.01-.1.4-.2.6-3.01.4-6.21Zm31.55 6.21c2-.2 5.71-5.61 5.71-8.51 0-6.71-7.11-11.22-12.92-8.11-1.7.8-3.51 2.4-4.11 3.51-1 1.8-2.1 12.52-1.4 13.22.2.2 8.91.1 12.72-.1Zm116.99 24.24c-2.5-4.21-3.61-6.91-2.9-7.21 1.1-.4 1.7.3 4.51 4.61 1 1.5 1.2 0 1.2-7.91.1-12.02-1.2-18.63-5.31-26.34-6.01-11.42-18.53-21.14-29.65-23.14l-3.51-.6 3.31 2.2c3.21 2.2 4.21 4.01 2.1 4.01-1.4 0-12.92-8.11-12.92-9.12 0-1.2 12.82-8.11 14.22-7.71.7.3-.5 1.6-2.7 3.11-2.5 1.7-3.41 2.8-2.4 3.11.8.2 3.81 1.2 6.81 2.1 11.52 3.51 22.74 12.92 28.15 23.44 4.41 8.81 5.31 12.52 5.91 26.14l.6 13.52 2-3.71c1.6-3.31 4.51-5.21 4.51-3.11 0 1.2-8.21 13.32-9.02 13.32-.4 0-2.6-3.01-4.91-6.71Z"/></svg>