<svg xmlns="http://www.w3.org/2000/svg" xml:space="preserve" id="Livello_1" x="0" y="0" style="enable-background:new 0 0 1200 600" version="1.1" viewBox="0 0 1200 600"><style>.st2{fill:none;stroke:#000;stroke-width:3;stroke-miterlimit:10}.st3{fill:#fd830e}</style><path d="M0 0h1200v599.9H0z" style="fill:#607ff3"/><path d="M697.9 223c13.1 7.4 25.6 14.4 38.9 21.9-42.9 14.2-85 28.1-128.3 42.4 18.8-40.8 37.1-80.5 55.8-121 6.6 14.1 12.8 27.4 19.3 41.3 11.9-11.1 23.4-21.8 35-32.6 5.2-4.9 10.5-9.7 15.6-14.7 2-2 3.2-1.9 5 .2 3.2 3.6 6.5 7.1 10 10.5 1.8 1.8 1.6 2.9-.3 4.6-16.9 15.6-33.7 31.3-51 47.4z" style="fill:#fefefe"/><circle cx="600" cy="300" r="183.2" class="st2"/><path d="M578.7 289.5h31.2v24.1h-31.2z" class="st3"/><circle cx="600" cy="300" r="245.9" class="st2"/><circle cx="600" cy="300" r="307.8" class="st2"/><circle cx="600" cy="300" r="370.1" class="st2"/><circle cx="600" cy="300" r="432.7" class="st2"/><circle cx="600" cy="300" r="495.4" class="st2"/><circle cx="600" cy="300" r="558" class="st2"/><path d="M802 599.9H398.1c-1.8-6-.5-12.1-.1-18.1.9-12.9 3.5-25.6 6.9-38 .6-1.8 1.2-3.5 1.8-5.3 6.3-19.1 14.8-37.1 26.3-53.6.9-1.1 1.8-2.2 2.5-3.4 11.7-16 25.5-29.9 40.9-42.2 1.1-1 2.2-1.9 3.5-2.8 18.2-13.6 38.3-23.5 61-30.7-6.9-3.8-12.5-7.7-17.8-12.1-24.7-20.7-39.6-46.9-43.5-79-4.1-34.1 4.5-64.9 26.4-91.4 23.9-28.9 54.9-44 92.7-44.7 13.2-.2 25.9 1.9 38.4 5.6 2.5.8 5.1 1.5 7.1 3.5 1 1.9-.1 3.6-.8 5.2-14 30.5-28.1 61-42.2 91.5-2.2 4.8-4.3 9.7-6.8 14.8 2.3.8 4.1-.4 5.8-1 33-10.9 66-22 99-32.9 4.8-1.6 9.6-3.8 14.9-3.7 2 1.8 2.4 4.3 3 6.7 14 52.4-7.7 106.6-54.2 135.1-1 .6-2.1 1-3 2.4 21.7 7.1 42 16.9 60.2 30.5 1.2.8 2.3 1.8 3.4 2.7 15.4 12.3 29.3 26.2 40.9 42.2.7 1.2 1.6 2.3 2.5 3.4 11.5 16.5 20 34.5 26.3 53.6.6 1.8 1.2 3.5 1.8 5.3 4.9 17.1 7.3 34.6 7.8 52.4.2 1.7.1 2.9-.8 4z" class="st3"/><path d="m685 198.6 51.8-47 20.5 22.5-52 49.1 43.2 23.2L599.9 295l64.3-140z" style="fill:#fff;stroke:#000;stroke-width:6;stroke-linecap:round;stroke-linejoin:round;stroke-miterlimit:10"/></svg>