<svg xmlns="http://www.w3.org/2000/svg" id="Livello_1" data-name="Livello 1" viewBox="0 0 3710.4 3710.4"><defs><style>.cls-1{fill:#ff9f9c}.cls-2{fill:#4c51c7}.cls-3{fill:#e1e9fd}.cls-4{fill:#e8eefd}.cls-6{fill:#1b1090}.cls-7{fill:#feb9b8}.cls-8{fill:#fdacaa}.cls-9{fill:#0d046a}.cls-11{fill:#ff9794}.cls-12{fill:#7d97f4}.cls-13{fill:#91b3fa}.cls-14{fill:#e2eafd}.cls-15{fill:#130978}.cls-17{fill:#fd820e}</style></defs><path d="M3710.4 0v3710.4H0V0h3710.4ZM1030.3 463.06c-3.97-3.95-32.99-.54-38.38 1.96-8.96 4.15-7.1 15.89 3.3 16.91 2.8.27 28.13-1.83 30.35-2.46 6.46-1.84 9.63-11.54 4.73-16.41Zm40.22-2.02c-11.01 1.5-11.88 15.66-1.92 18.45 2.04.57 30.42 3.87 32.02 3.68 9.2-1.09 11.11-13.78 3.09-17.67-2.56-1.24-30.32-4.84-33.18-4.45Zm1504.94 11.62c-16.94 3.11-11.98 18.55-.55 18.83 27.62.67 28.07-23.88.55-18.83ZM914.2 486.13c-4.23 4.38-2.08 13.82 4.33 14.93 8.39 1.45 53.53-12.43 36.27-24.87-5.41-3.9-36.32 5.5-40.6 9.94Zm265.82 14.39c13.94-13.72-30.18-26.59-38.47-24.13-6.74 2-7.29 11.71-1.27 15.87 5.35 3.7 34.63 13.29 39.74 8.26Zm29.27 161.71c-6.14-.47-14.74-12.8-20.21-17.22-6.74-5.44-35.04-22.47-37.16-26.19-5.07-8.9-1.3-47.14-5.91-51.67-9.07-2.4-60.42-18.57-64.96-15.88-1.94 1.15-19.8 32.3-24.53 37.85-8.75 10.3-21.31 4.75-34.14 6.17-8.32.92-34.83 8.92-38.64 8.59-6.2-.54-36.5-33.86-42.2-33.82l-54.73 31.73c-2.07 1.44-1.94 3.2-1.86 5.44.35 10.27 11.74 42.29 8.61 49.17-1.13 2.5-15.47 16.61-19.04 21.38-8.03 10.73-15.57 21.78-22.23 33.43-9.64 3.62-47.4 1.2-52.9 6.61-2.18 2.14-15.98 53.83-16.19 58.87-.14 3.59.57 4.12 2.77 6.53 5.76 6.29 39.32 23.15 41.01 28.08 1.25 8.69-.52 17.89.34 26.53.95 9.54 8.52 36.33 7.7 42.16-1.24 8.83-32.74 34.82-32.32 41.99.19 3.18 29.65 53.09 32.27 55.04 3.94 2.91 8.33.15 7.66 4.77l-40.29 47.05c-5.3-4.38-25.83-16.81-27.73-19.29-6.25-8.16-.09-26.3-4.88-34.96-1.45-2.63-38.48-12.22-42.88-10.72-4.84 1.65-14.16 24.63-20.51 27.52-5.32 2.42-13.64.33-19.88 1.23-6.06.88-21.5 5.6-25.32 5.38-5.53-.32-23.37-22.3-28.68-22.27l-37.14 20.75c-3.02 4.72 7.37 29.03 5.17 36.72-.93 3.25-8.45 8.56-11.15 12.01-3.43 4.38-14.52 22.86-16.22 24.09-5.75 4.17-33.67 1.55-36.67 5.56L526.24 1116l28.1 18.79c-1.57 12.02 8.78 42.36 5.12 51.37-2.98 7.34-21.11 19.42-19.33 26.95.72 3.02 20.25 34.6 22.15 35.48 3.99 1.84 27.92-7.31 33.5-6.23 1.33.26 17.17 14.95 20.55 17.6 5.74 4.52 17.6 8.19 18.97 15.58 1.22 6.54-.79 15.19.05 22.03-3.52 1.22-3.97 4.3-5.29 7.18-6.17 13.47-12.7 26.86-17.74 40.8-5.65-1.95-11.09-4.74-17.28-3.85-2.53 9.05 3.9 11.82 11.52 15.36-72.05 168.42-118.34 349.52-134.35 532.67-39.81 455.25 104.71 987.41 555.35 1185.62 11.21 4.93 23.92 11.31 35.85 13.1-7.64 22.19-21.69 41.71-32.61 62.26l7.69 4.08 38.34-47.14c.05 3.62 1.6 6.98 1.93 10.57 2.59 28.66 1.32 59.57 3.88 88.25 1.63 18.17 4.16 22.12 21.08 25.95 2.37.54 3.99 1.36 7.68 1.92 1.79.27 3.9-.19 5.76 0 .4.04 2.12 1.83 4.64 2 8.74.59 43.85 1.42 49.03-3.02 15.96-13.7-13.14-25.47-22.96-27.77-10.81-27.74-7.23-57.29-3.84-86.38l21.11 5.76c3.73 18.9 11.47 32.4 16.33 49.89 3.54 12.75 9.63 65.54 13.45 71 3.34 4.77 7.46-.31 6.78-4.68-5.87-27.1-3.37-58.92-9.69-85.51l3.84-1.92c6.1 6.73 11.9 13.79 17.28 21.11 0 2.93 21.65 48.46 24.58 53.15 3.14 5.02 5.6 6.7 9.97 10.19 4.53 3.62 3.14 3.51 9.6 5.76.54.19 1.29-.16 1.92 0 .95.24 1.85 1.54 5.76 1.92 1.89.18 3.86-.1 5.76 0 9.38.47 51.96 1.45 57.54-1 19.44-8.55-12.35-36.99-24.91-35.47-19.3-16.2-29.13-34.61-38.39-57.59 104.92 21.7 210.14 44.4 316.08 61.1 246.06 38.81 497.95 36.15 739.65-26.55-5.68 4.56-16.81 15.51-22.1 21.09s-19.7 22.25-22.05 28.82c-8.97 25.04 46.63 13.58 60.39 13.36 48.86-.81 106.33 4.41 153.73.17 15.89-1.42 11.83-6.35 12.39-19.29 1.77-40.84-9.27-61.46-19.2-97.89-.16-.58.13-1.29 0-1.92 43.13-17.39 85.59-36.82 126.73-58.5 22.2-11.7 43.84-27.13 67.14-35.55.1 9.02-1.86 42.77 2.45 47.52.64.71 4.18 2.22 5.22 2.39.84 11.19-4.73 24.29-5.76 34.55-18.56 8.98-31.67 22.83-46.07 36.47-.46.44-3.31.39-4.79 1.86-15.19 15.07-43.97 53.12-43.2 74.92.2 5.57 1.78 10.72 7.56 12.59 8.04 2.61 31.81 4.28 41.31 4.76 17.85.9 89.04 2.12 100.85-6.81 4.7-3.55 2.63-5.7 3.85-8.63 9.22-22.17 1.58-64.96-4.4-88.7-1.77-7.01-3.77-14.27-7.12-20.71 2.88-12.67 3.91-29.08 5.76-42.23 3.7-1.68 6.3-5.18 7.2-9.12 3.55-30.89 8.39-61.77 11.99-92.61 19.81-10.68 39.46-25.58 57.39-39.55 453.15-353.03 524.66-1042.96 341.87-1557.48 5.31-1.11 11.56-4.58 17.5-4.96.74-8.25 10.34-53.58 6.26-56.67-7.72-5.86-28.38-10.94-35.84-16.97-3.29-2.66-5.49-24.76-7.26-31.63-1.44-5.61-9.45-24.51-9.37-27.04.22-7.56 25.08-31.08 22.68-39.85-.69-2.52-29.2-40.78-31.7-41.52l-42.89 13.25c-5.81-4.24-11.23-9.53-17.28-13.44L2981 1047.03c5.8-1.62 14.2.71 14.9-7.97 1.03-12.7-20.48-6.64-28.28-11.28-3.96-2.36-32.18-43.59-38.41-51.37-1.49-1.86-3.77-1.18-3.89-1.34-1.42-1.76-2.41-3.99-3.84-5.76-.42-.52-.4-3-1.85-4.79-16.93-20.87-34.67-41.77-53.82-60.47 2.31-6.14 9.11-19.81 6.74-24.9-4.2-9.06-34.47-25.26-37.11-34.06.93-13.95 2.23-27.84 1.65-41.89-.29-7.15-4.07-18.86-3.76-25.02.2-3.98 30.26-29.47 35.89-33.84 4.81-8.27-20.58-51.23-22.93-62.63-6.39-3.93-42.43 6.01-52.07 3.13-2.05-.61-25.3-25.73-30.16-30.32-3.48-3.29-20.35-17.26-20.76-18.59-3.73-12.16 6.21-44.05-.34-51.49-1.12-1.28-4.57-2.25-6.41-3.19-6.28-3.22-48.01-19.5-52.05-18.93-7.96 1.12-27.83 38.08-38.47 38.64-4.79.25-11.87-1.99-18.26-2.1-16.32-.27-32.3 1.2-48.56 1.51-6.56-4.45-31-36.27-36.5-35.75l-56.68 24.94c-1.65 10.26.93 20.29 1.61 30.41l-112.78-47.5c-325.32-117.65-703-140.64-1022.34 7.46-41.68 19.33-101.44 48.38-137.75 75.31-2.66 1.98-5.77 2.6-5.52 6.95ZM2705.94 484.1c-7.88 2.38-6.28 11.98.71 15.79 4.86 2.64 34.02 11.81 37.4 6.99 10.64-15.17-29.23-25.45-38.11-22.77ZM847.07 520.72c-7.19 8.54.33 17.35 11.43 14.37 1.49-.4 25.38-14.7 26.4-15.85 5.32-5.96 1.88-17.69-8.16-16.03-2.4.4-28.16 15.71-29.67 17.5Zm367.45-15.58c-23.28 3.51 6.61 32.75 18.94 22.91 11.61-9.28-12.32-23.9-18.94-22.91Zm1564.41 5.77c-7.76 1.12-9.9 10.82-5.27 16.02 1.43 1.61 29.34 16.46 31.74 16.45 4.93-.03 8.67-3.99 8.54-8.86-.18-6.55-29.76-24.37-35.01-23.61Zm-1965.59 36.5c-3.15.94-23.99 19.77-25.34 22.71-4.73 10.3 2.86 18.52 13.12 13.16 2.01-1.05 22.57-21.27 23.29-22.82 3.86-8.33-2.15-15.7-11.06-13.05Zm2025.05 7.66c-19.69 5.86 15.75 29.13 19.78 35.16 6.45 3.05 13.63.05 13.6-7.66-.04-7.41-24.65-30.09-33.38-27.5ZM763.42 603c-3.94 1.08-20.27 24.15-21.64 28.44-3.36 10.56 5.07 17.99 13.68 11.72 1.29-.94 17.22-24.89 17.65-26.51 2.04-7.61-1.16-15.98-9.69-13.64Zm2126.8 7.73c-2.88.86-4.85 3.56-5.25 6.5-.94 6.84 16.92 35.21 24.04 35.23 13.23.04 8.04-12.42 4.42-19.61-3.83-7.63-13.57-24.99-23.21-22.12ZM723.01 670.2c-5.02 1.66-26.5 54.39-1.3 42.86 5.22-2.39 16.93-34.38 14.49-39.31-2.04-4.13-9.08-4.92-13.19-3.56Zm2205.6 5.74c-4.71 1.19-7.55 7.04-6.81 11.69.26 1.59 10.54 27.78 11.42 29.06 6.13 8.95 17.68 2.98 16.26-6.54-1.11-7.46-11.1-36.69-20.87-34.22ZM701.95 743.22c-7.18 2.2-11.15 36.73-8.07 41.88 2.35 3.93 9.66 4.51 13.3 1.77 4.4-3.31 9.54-40.06 5.08-43.17-2.17-1.51-7.69-1.28-10.31-.48Zm2247.77 5.65c-9.63 2.66-3.05 42.59.47 44.91 6.36 4.19 14.93-.1 15.35-7.85.2-3.64-3-26.53-4.22-30.14-1.55-4.58-6.69-8.28-11.6-6.92Zm-2253.5 69.17c-1.68.5-3.48 1.93-4.25 3.51-2.24 4.59-.28 31.32 1.35 37.05 2.12 7.47 17.25 7.99 18.25-1.78.46-4.46-2.04-29.6-3.77-33.82-2.11-5.13-6.4-6.5-11.58-4.97Zm2257.34 7.67c-2.89.85-4.77 3.48-5.16 6.44 2.32 9.04-5.87 30.02-.09 36.45 3.6 4.01 13.2 3.14 15.07-2.28 1.72-4.98 3.06-26.87 2.33-32.39-.94-7.09-5.02-10.33-12.16-8.22ZM709.7 892.9c-13.86 1.99-6.01 33.8 6.78 31.96 13.49-1.94 5.92-33.79-6.78-31.96Zm2232.33 7.66c-4 1.21-13.98 29.19-14.42 33.76-.78 8.19 5.47 12.56 13.05 9.09 6.95-3.18 24.16-49.72 1.37-42.85Zm-2272.5 4.06c-5.12.35-29.18 3.21-26.49 11.92 1.92 6.21 36.98-.07 39.45-4.74 4.1-7.79-9.2-7.43-12.96-7.17Zm-42.12 22.26c1.15-1.89.5-7.08-1.53-8.53-4.87-3.48-37.17 9-34.66 17.34 2.29 7.58 35.16-7.14 36.18-8.81Zm-55.95 15.87c-3.97.65-24.95 16.54-26.01 20.27-5.84 20.49 29.54-7.95 31.37-10.94 2.81-4.58.88-10.35-5.36-9.33Zm-42.31 36.48c-3.44.93-19.87 20.89-21.4 24.74-3.01 7.59 3.74 9.8 9.7 5.82 1.14-.76 16.43-19.86 17.09-21.31 2.24-4.94.89-10.96-5.39-9.26Zm-32.67 46.03c-5.44 1.48-20.35 33.6-11.74 36.2 2.98.53 4.87-.57 6.74-2.77 3.35-3.93 19.47-37.38 5-33.43Zm2528.04 13.43c-5.37 1.79-6.19 10.84-1.22 14.09 1.16.76 24.62 8.21 26.33 8.4 7.94.85 11.1-10.07 6.23-14.12-2.5-2.08-28.03-9.48-31.35-8.37Zm61.47 23.04c-5.45 1.32-7.12 9.9-3.29 14.18 1 1.11 24.8 13.93 26.29 14.05 4.08.35 9.59-6.38 7.39-11.17-1.81-3.94-26.16-18.09-30.39-17.06ZM468.5 1115.09c3.61 2.48 7.89-.67 9.65-4.46.85-1.84 5.65-24.85 5.65-27.16 0-6.24-5.17-9.11-9.83-5.8-2.63 1.87-8.66 35.24-5.48 37.43Zm2696.27 13.08c7.16-7.16-8.14-19.83-13.96-24.4s-13.28-9.74-17.31 0c-2.03 4.92 18.57 24.29 22.23 25.92 2.82 1.25 6.87.64 9.03-1.52Zm-2695.15 4.59c-1.97.51-4.11 2.96-4.69 4.93-1.06 3.55.64 26.3 1.8 30.04 1.43 4.63 9.44 4.6 10.94 0 .9-2.76-.96-28.91-1.92-32.05s-3.19-3.68-6.12-2.92Zm2712.37 13.45c-6.38 1.81-5.46 7.14-3.01 11.92 1.07 2.09 13.95 20.72 15.07 21.4 2.87 1.74 6.71 1.48 9.72.13 7.66-5.37-11.8-36.27-21.78-33.45ZM475.15 1188.2c-6.57 1.99-1.46 27.04 7.26 24.72 9.24-2.46.78-27.15-7.26-24.72Zm2756.81 49.39c5.59-5.57-6.61-34.08-12.38-35.73-20.45-5.85-.03 36.75 4.6 37.88 2.17.53 6.22-.6 7.78-2.15Zm2.87 63.37c3.31 3.5 11.16 1.64 12.67-2.74 2.26-6.56-3.05-45.3-16.05-33.3-4.07 3.76.54 33.03 3.38 36.04ZM561.66 1318.8c-12.18 3.53 9.68 22.95 16.18 18.24 8.53-6.18-11.27-19.66-16.18-18.24Zm2675.84 9.71c-2.53.84-2.7 2.3-3.12 4.6-.98 5.3-3.7 30.25-.15 32.74 3.89 2.73 11.76.63 13.19-4.35.45-1.57 2.57-22.43 2.47-24.58-.33-6.91-5.95-10.56-12.38-8.41Zm-7.55 63.38c-5.35 1.54-15.06 30.5-11.13 35.42 10.96 13.7 20.59-20.63 20.95-27.57.31-5.86-4.22-9.45-9.82-7.84Z" style="fill:#fff"/><path d="M717.89 1287.99c2.54.15 5.13-.13 7.67 0-4.89 17.77-13.1 35.1-19.22 52.74-41.63 119.91-65.04 247.94-65.23 375.3-3.87-1.38-14.26.99-19.2 0 2.53 89.23 14.68 179.68 33.58 266.85 51.19 236.15 164.79 462.49 359.93 610.38.79.6 1.84 2.35 3.84 3.84 2.52 1.88 5.19 3.95 7.68 5.76.09 3.54 2.37 5.56 4.72 7.76 9.36 8.77 20.92 18.41 30.84 26.75 17.62 14.8 36.86 30.59 56.58 42.28.38 16.73 3.09 30.16 6.36 46.43 12.53 62.42 29.88 124.17 41.37 186.88-13.28 26-35.71 116.33-66.92 121.8-11.85 2.08-12.95-2.94-21.59 10.09-8.83 13.32-9.89 29.15-14.88 43.66-11.93-1.79-24.63-8.17-35.85-13.1-450.64-198.22-595.16-730.37-555.35-1185.62 16.02-183.16 62.31-364.26 134.35-532.67 27.65 12.88 36.67-.86 5.76-11.52 5.04-13.94 11.57-27.34 17.74-40.8 1.32-2.88 1.77-5.96 5.29-7.18.22 1.76 3.14 5.89 2.16 9.35 10.65.24 31.95 10.72 41.05 9.9 6.51-.59 16.82-26.3 20.52-28.46 1.92-1.12 15.14-.62 18.81-.4Zm-68.59 82.06c3.23 2.65 30.06 5.45 34.7 4 6.07-1.9 3.36-8.52-2.47-10.34-1.88-.59-26.65-4.62-28.07-4.53-5.89.38-8.22 7.53-4.15 10.87Z" class="cls-4"/><path d="M2424.33 2748.73c-2.96 50.52-4.48 100.19-5.68 150.76s-6.4 110.34-2.08 159.32c.71 8.08 5.21 21.18 13.51 23.92 2.16 14.89-2.93 38.12 0 51.83-23.38 2.38-44.91 14.1-65.26 24.95-14.17 7.55-31.52 16.73-44.15 26.87-241.7 62.7-493.59 65.36-739.65 26.55-105.93-16.71-211.16-39.41-316.08-61.1-24.39-60.48-27.74-137.77-25.03-202.59.33-7.86 1.63-34 3.92-39.27 1.27-2.92 7-8.87 9.23-12.85 18.85-33.57 40.33-65.69 59.87-98.49 337.49 159.38 731.89 149.74 1061.53-23.95 16.29-8.58 32.53-20.32 49.87-25.95Z" class="cls-14"/><path d="M3151.82 1385.88c182.79 514.52 111.28 1204.45-341.87 1557.48-17.93 13.97-37.57 28.87-57.39 39.55 22.65-194.06 38.78-393.85 44.15-589.29 66.67-94.14 118.24-202.86 152.15-313.33 10.2-33.23 16.15-69.16 26.36-101.28 6.02-18.95 17.68-37.25 23.98-57.6 19.58-63.16 18.98-130.38.97-193.86 1.21-74.75-7.03-149.45-21.11-222.66 13.66 3.31 37.98-12.22 48.84-11.48 8.67.59 27.15 20.04 35.59 22.27 7.31 1.93 9.1-6.58 9.63-6.95 5.41-3.79 32.69-19.76 34.27-24.32 3.6-10.45-12.63-34.92-10.87-43.36.46-2.2 16.12-23.61 19.16-28.93 3.81-6.65 6.99-13.77 9.11-21.16 3.01-4.05 21.92-4.02 27.04-5.09Zm-84.93 196.1c-16.29 2.73-23.06 22.31-3.26 18.05 18.3-3.93 16.27-20.23 3.26-18.05Z" class="cls-3"/><path d="M2773.68 2165.2c2.24 8.92 9.52 16.97 13.44 24.95 1.73 3.53 11.52 26.3 11.52 27.83v155.48c0 4.46-1.74 13.57-1.92 20.15-5.37 195.43-21.49 395.23-44.15 589.29-3.6 30.84-8.44 61.73-11.99 92.61-.9 3.94-3.5 7.44-7.2 9.12-5.95 2.69-40.57 3.11-47.99 1.92-1.04-.17-4.58-1.68-5.22-2.39-4.31-4.75-2.35-38.5-2.45-47.52-1.76-159.15-9.86-312.3-21.11-470.28-.56-7.9.57-16.04-.02-23.97-3.5-47.36-8.86-94.65-11.49-142.11 1.34-3.26-2.83-3.8-3.82-2.83s-8.82 21.81-10.15 25.39c-6.48 17.46-11.62 36.43-16.6 54.42-14.38 51.87-25.95 105.08-34.7 158.21-4.17 5.57-8.74 36.79-10.6 46.02-26.13 129.26-45.98 259.92-66.66 390.18-1.12 8.07-8.98 15.59-16.79 16.8-6.66 1.03-48.92-3.54-55.67-5.76-8.3-2.73-12.8-15.83-13.51-23.92-4.32-48.97.9-109.7 2.08-159.32s2.72-100.24 5.68-150.76c9.26-157.94 27.59-314.88 54.35-470.63 4.05-23.56 21.62-88.95 20.51-107.14 4.38.7 8.27 2.9 12.66 3.66 23.47 4.05 56.48 6.75 80.45 7.84 60.33 2.74 123.83 1.62 181.37-17.26Z" class="cls-15"/><path d="M1209.29 662.23c10.81.83 40.57-11.13 48.57-9.28 5.17 1.19 14.37 20.92 17.77 26.52 1.28 2.12 4.4 3.38 4.68 3.87.41.72-.03 3.5 1.1 5.54 3.53 6.37 12.13 16.9 10.09 23.79-1.87 6.33-31.82 32.58-32.17 38.69 6.56 22.39 10.02 45.46 9.78 68.91l30.39 20.47c-1.76 24.84-2.24 49.98-3.84 74.86-9.11.94-48.29.24-53.25 4.34-2.11 1.74-14.97 24.82-18.89 30.06-3.57 4.77-20.72 21.84-21.54 24.55-3.73 12.32 11.76 44.56 6.31 54.3-1.51 2.71-50.81 30.58-53.91 30.74-11.21-1.55-34.71-32.22-43.6-32.13-22.28 6.74-45.4 8.86-68.52 10.02l-30.04 42.99c-2.94.85-55.41-13.03-59.38-14.97-1.75-.85-3.81-.93-4.35-3.33l-4.42-52.22c-12.07-5.94-27.76-14.77-38.09-23.33-3.92-3.24-14.4-17.94-18.45-18.74-9.51-1.86-40.06 11.73-52.57 9.14-2.63-1.94-32.09-51.85-32.27-55.04-.42-7.17 31.08-33.16 32.32-41.99.82-5.83-6.75-32.62-7.7-42.16-.86-8.64.91-17.84-.34-26.53-1.69-4.94-35.25-21.8-41.01-28.08-2.2-2.4-2.91-2.94-2.77-6.53.2-5.05 14.01-56.73 16.19-58.87 5.5-5.41 43.26-2.99 52.9-6.61 6.66-11.65 14.2-22.7 22.23-33.43 3.57-4.77 17.9-18.88 19.04-21.38 3.12-6.89-8.26-38.9-8.61-49.17-.08-2.24-.21-3.99 1.86-5.44l54.73-31.73c5.7-.03 36 33.28 42.2 33.82 3.81.33 30.31-7.66 38.64-8.59 12.82-1.42 25.39 4.13 34.14-6.17 4.72-5.56 22.58-36.7 24.53-37.85 4.53-2.68 55.89 13.48 64.96 15.88 4.61 4.53.84 42.77 5.91 51.67 2.12 3.72 30.41 20.75 37.16 26.19 5.47 4.42 14.07 16.75 20.21 17.22Zm-303.3 149.72c1.27-1.03 3.76-26.54 5.16-32.29 33.42-137.85 234.5-142.63 273.69-5.64S1071.49 1010.07 959.92 926c-4.45-3.35-11.28-13.67-16.44-12.31l-2.9 4.77c78.86 82.99 221.66 48.55 252.39-62.37 33.86-122.18-87.19-228.8-203.78-178.83-52.81 22.63-86.15 73.28-90.75 130.09-.72 3.76 5.71 6.11 7.57 4.61Zm131.99-57.09c-85.6 11.54-54.22 151.35 33.77 116.31 64.23-25.58 38.61-126.06-33.77-116.31Z" class="cls-2"/><path d="M2487.68 620c.49 7.28.26 14.51 1.73 21.74l-24.77 22.41c-.65-.42-5.53-.52-8.4-2.11-164.37-91.03-356.67-135.6-545.36-122.64-32.49 2.23-64.62 8.91-96.95 11.5-21.1 1.69-43.25.42-64.28 1.94-163.22 11.82-325.48 52.61-469.34 130.51-.27-.49-3.4-1.75-4.68-3.87-3.4-5.61-12.61-25.33-17.77-26.52-8-1.85-37.76 10.1-48.57 9.28-.25-4.36 2.86-4.98 5.52-6.95 36.31-26.94 96.07-55.98 137.75-75.31 319.34-148.1 697.02-125.11 1022.34-7.46l112.78 47.5Z" class="cls-4"/><path d="M635.36 1297.58c-.84-6.84 1.17-15.49-.05-22.03-1.38-7.39-13.23-11.05-18.97-15.58-3.37-2.66-19.22-17.35-20.55-17.6-5.57-1.09-29.5 8.07-33.5 6.23-1.9-.87-21.44-32.46-22.15-35.48-1.78-7.53 16.35-19.61 19.33-26.95 3.66-9.02-6.69-39.36-5.12-51.37l-28.1-18.79 10.21-41.14c3-4.01 30.92-1.39 36.67-5.56 1.7-1.23 12.79-19.71 16.22-24.09 2.7-3.45 10.22-8.76 11.15-12.01 2.2-7.7-8.19-32-5.17-36.72l37.14-20.75c5.31-.03 23.14 21.95 28.68 22.27 3.82.22 19.27-4.5 25.32-5.38 6.24-.9 14.56 1.19 19.88-1.23 6.36-2.89 15.67-25.87 20.51-27.52 4.4-1.5 41.43 8.1 42.88 10.72 4.79 8.66-1.37 26.8 4.88 34.96 1.9 2.48 22.43 14.92 27.73 19.29 2.35 1.94 5.2 8.41 8.86 9.14 5.86 1.16 28.42-8.05 33.47-6.17 3 1.12 9.09 12.56 11.41 16.22 2.55 4.03 11.86 18.42 11.24 21.59-1.25 6.43-17.11 17.74-19.84 24.57-3.2 8 6.75 38.71 5.7 49.84 4.07 5.43 26.3 15.33 27.58 20.48 1.51 6.08-10.23 32.35-10.24 40.96-3 4.01-29.06.11-36.68 5.55-2.33 1.66-6.73 11.64-9.61 15.35s-17.38 19.24-17.78 20.75c-1.88 7.11 8.69 31.13 5.17 36.71-8.71 1.39-31.58 21.08-38.63 19.22s-19.29-20.02-27.36-20.81l-27.76 5.72c-3.67-.22-16.89-.72-18.81.4-3.71 2.16-14.01 27.87-20.52 28.46-9.1.82-30.4-9.66-41.05-9.9.98-3.46-1.94-7.6-2.16-9.35Zm-5.61-93.89c-5.25 7.27 17.84 22.63 23.03 25.59 84.86 48.4 183.18-36.72 147.68-128.49-32.58-84.22-156.69-85.81-190.99-2.81-2.59 6.26-12.43 37.42-6.89 41.37 11.05 7.87 10.65-15.43 12.6-22.22 25.18-87.75 143.62-94.02 175.19-10.09 31.17 82.87-60.17 156.5-135.24 110.28-5.54-3.41-20.74-20.07-25.38-13.64Zm68.51-105.25c-59.85 7.36-38.53 103.38 22.12 79.74 41.96-16.35 27.39-85.83-22.12-79.74Z" class="cls-2"/><path d="M2677.71 3036.65c-23.3 8.42-44.95 23.85-67.14 35.55-41.14 21.69-83.59 41.11-126.73 58.5-3.11-14.85.46-27.27 1.92-42.23 7.82-1.21 15.67-8.73 16.79-16.8 20.68-130.26 40.53-260.93 66.66-390.18 1.87-9.24 6.43-40.45 10.6-46.02 5.13-6.86 23.2-18.95 30.74-25.89 15.46-14.22 30.17-29.45 46.04-43.22 11.25 157.97 19.35 311.13 21.11 470.28Z" class="cls-3"/><path d="M1211.21 2702.66c11.52 4.54 22.79 9.43 34.55 13.44l-1.92 193.87c-2.29 5.27-3.59 31.41-3.92 39.27-2.71 64.82.64 142.1 25.03 202.59 9.26 22.97 19.09 41.39 38.39 57.59-2.2.27-5.77 4.17-12.42 3.92-2.4-.09-17.24-4.88-18.29-5.84-.31-.28-.4-3.27-1.86-4.78-17.17-17.79-37.27-47.42-51.89-68.16-13.75-19.5-25.61-40.62-40.31-59.5 2.02-1.03 8.93-14.88 9.96-17.87 5.51-16.11 3.36-28.37-.39-44.52-.68-2.95 1.29-3.35-3.78-2.86-7.35 19.46-23.27 35.6-30.31 55.13-6.14 17.03-7.95 36.4-10.03 54.27-3.39 29.08-6.97 58.64 3.84 86.38-6.4-1.49-17.68-.4-24.95-3.84-23.44-11.08-14.26-57.24-15.28-79.74-.88-19.56-2.32-39.86-3.93-59.41-.75-9.08-1.83-18.94-3.82-27.85 31.21-5.47 53.64-95.79 66.92-121.8-11.49-62.71-28.84-124.46-41.37-186.88-3.26-16.27-5.97-29.7-6.36-46.43-.15-6.38.1-12.81 0-19.2 29.71 16.19 60.67 29.82 92.14 42.23Z" class="cls-8"/><path d="M2921.48 969.35c-9.28-2.8-24.74 24-26.41 30.23-3.45 12.88 8.07 16.35 15 9.23 5.18-5.32 16.12-25.76 15.25-33.7.13.16 2.41-.52 3.89 1.34 6.23 7.78 34.45 49.01 38.41 51.37 7.79 4.64 29.3-1.41 28.28 11.28-.7 8.69-9.1 6.35-14.9 7.97l72.93 119.98c-5.4-3.49-32.47-15.78-33.53-17.34-4.7-6.92-4.87-41.36-11.9-43.77-4.51-1.55-48.16-6.8-51.2-5.78-7.4 10.08-13.46 23.33-18.84 35.01-.94 2.05-3.47 2.86-3.55 3.08-10.5 1.47-20.88 3.53-31.13 6.3-4.9 1.33-23.09 8.86-25.2 8.66-6.28-.59-20.1-15.83-28.13-16.88-.63-17.81-18.76-58.24-26.54-76.15-13.14-30.25-29.63-62.49-46.4-90.84v-5.76c8.04-3.19 17.01-22.9 22.43-24.58 11.13-3.45 37.27 5.95 50.55.63 1.66-1 13.53-30.78 15.32-35.55 19.15 18.7 36.89 39.6 53.82 60.47 1.45 1.79 1.43 4.27 1.85 4.79Z" class="cls-4"/><path d="M2764.08 654.55c4.86 4.6 28.11 29.71 30.16 30.32 9.64 2.89 45.68-7.06 52.07-3.13 2.35 11.4 27.74 54.35 22.93 62.63-5.63 4.37-35.69 29.85-35.89 33.84-.31 6.16 3.47 17.87 3.76 25.02.58 14.05-.71 27.94-1.65 41.89 2.63 8.81 32.9 25 37.11 34.06 2.36 5.09-4.43 18.76-6.74 24.9-1.79 4.77-13.66 34.55-15.32 35.55-13.28 5.33-39.42-4.08-50.55-.63-5.42 1.68-14.38 21.39-22.43 24.58-.87.34-2.67-.23-3.84 0-7.35-12.24-15.34-24.42-23.03-36.47 7.09.85 8.5.3 9.4-6.86 2.56-20.52.87-46.01 2.12-66.08 1.92-30.78 8.31-52.68-1.92-84.46L2759 659.56l5.1-5.02Zm307.13 525.94 42.89-13.25c2.5.74 31.01 39 31.7 41.52 2.4 8.76-22.46 32.29-22.68 39.85-.07 2.53 7.93 21.42 9.37 27.04 1.77 6.87 3.97 28.98 7.26 31.63 7.46 6.03 28.12 11.12 35.84 16.97 4.07 3.09-5.52 48.42-6.26 56.67-5.94.38-12.19 3.85-17.5 4.96s-24.03 1.04-27.04 5.09c-2.12 7.39-5.3 14.51-9.11 21.16-3.04 5.31-18.7 26.72-19.16 28.93-1.76 8.43 14.47 32.9 10.87 43.36-1.57 4.56-28.85 20.53-34.27 24.32-3.17-3.3-3.6-6.02-3.97-10.44-2.8-33.88-2.17-94.25 2.05-127.77 2.33-18.53 8.84-35.75 7.74-54.78-.81-13.99-9.54-32.05-9.66-43.11-.07-6.06.13-13.11-.09-20.06-.75-23.9-.53-48.44 2.01-72.07Z" class="cls-17"/><path d="m2764.08 654.55-5.1 5.02 1.26 110.15c-17.52-54.42-71.34-97.92-128.61-101.73-8.09-20.94-1.96-46.59-3.84-69.1 6.39.11 13.47 2.34 18.26 2.1 10.65-.56 30.52-37.52 38.47-38.64 4.04-.57 45.77 15.72 52.05 18.93 1.84.94 5.29 1.91 6.41 3.19 6.55 7.44-3.39 39.33.34 51.49.41 1.33 17.28 15.3 20.76 18.59Z" class="cls-17"/><path d="M2627.8 598.89c1.88 22.51-4.26 48.16 3.84 69.1-32.68-2.18-68.12 6.11-95.06 24.91-4.22 2.95-10.02 5.54-10.51 11.56-19.81-13.48-42.54-28.24-61.42-40.31l24.77-22.41c-1.47-7.23-1.25-14.45-1.73-21.74-.67-10.12-3.25-20.15-1.61-30.41l56.68-24.94c5.49-.52 29.94 31.3 36.5 35.75 16.26-.32 32.24-1.79 48.56-1.51Zm426.13 568.17c6.04 3.9 11.46 9.2 17.28 13.44-2.54 23.64-2.76 48.18-2.01 72.07.22 6.95.02 14 .09 20.06-18.47-37.55-50.24-65.64-92.04-74-13.98-2.8-28.25-1.87-42.12-4.9-1.8-2.11-1.1-52.84-.21-55.46.08-.22 2.6-1.03 3.55-3.08 5.38-11.69 11.43-24.93 18.84-35.01 3.04-1.03 46.69 4.23 51.2 5.78 7.03 2.41 7.2 36.85 11.9 43.77 1.06 1.56 28.13 13.85 33.53 17.34Z" class="cls-17"/><path d="M1099.88 3034.73c1.99 8.91 3.07 18.77 3.82 27.85 1.61 19.55 3.05 39.85 3.93 59.41 1.01 22.5-8.16 68.66 15.28 79.74-5.62 9.98 2.63 23.75-5.76 32.63-1.86-.19-3.97.27-5.76 0l-7.68-1.92c-16.93-3.83-19.46-7.77-21.08-25.95-2.57-28.68-1.3-59.59-3.88-88.25-.32-3.59-1.88-6.95-1.93-10.57l-38.34 47.14-7.69-4.08c10.92-20.55 24.97-40.07 32.61-62.26 5-14.51 6.06-30.34 14.88-43.66 8.63-13.02 9.74-8.01 21.59-10.09Z" class="cls-15"/><path d="M2483.84 3132.63c9.93 36.43 20.96 57.05 19.2 97.89-22.42 6.42-42.54 6.42-65.26 7.68.9-27.33-.35-54.43-2.04-81.57-.3-4.86 2.16-10.85 2.04-12.48 8.63 1.66 18.1 2.87 26.87 1.92l7.68-1.92c12.08-4.05 3.6-11.16 11.52-11.52Z" class="cls-9"/><path d="m2687.3 3146.07 1.92 92.14c-17 .35-34.86.57-51.83 0l-3.84-80.62c14.4-13.64 27.51-27.49 46.07-36.47-1.13 11.25-.61 17.14 7.68 24.95Z" class="cls-15"/><path d="M2739.13 3236.28c-16.7-.05-33.2 1.57-49.91 1.92l-1.92-92.14c22.95 1.96 34.5 6.33 40.31-19.2 3.35 6.44 5.35 13.7 7.12 20.71 5.98 23.74 13.62 66.53 4.4 88.7Z" class="cls-9"/><path d="m2364.83 3159.5 1.92 80.62c-9.92-.12-19.89.05-29.83.08l-60.39-3.92c2.35-6.56 16.68-23.15 22.05-28.82s16.42-16.53 22.1-21.09c12.63-10.14 29.98-19.32 44.15-26.87Z" class="cls-6"/><path d="m906.01 986.62-49.91 61.42c-2.32-3.67-8.41-15.1-11.41-16.22-5.05-1.88-27.61 7.32-33.47 6.17-3.66-.72-6.51-7.2-8.86-9.14l40.29-47.05c.67-4.63-3.72-1.86-7.66-4.77 12.5 2.59 43.06-11 52.57-9.14 4.05.79 14.54 15.5 18.45 18.74Z" class="cls-4"/><path d="M1178.58 3075.04c14.7 18.88 26.56 40 40.31 59.5-6.74 6.74-3.85 24.06-3.82 33.69 0 2.89-1.94 5.75-1.94 6.62a262.711 262.711 0 0 0-17.28-21.11c-6.73-7.43-5.51-5.1-3.84 1.92 6.32 26.59 3.82 58.4 9.69 85.51.69 4.37-3.44 9.45-6.78 4.68-3.82-5.46-9.91-58.26-13.45-71-4.86-17.49-12.6-30.99-16.33-49.89-2.47-12.51-7.24-37.38 3.91-46.95 3.82-3.27 7.74-2.05 9.52-2.96Z" class="cls-9"/><path d="M1272.63 3207.49c-2.33 12.69-2.1 25.5-1.92 38.39-1.9-.1-3.87.18-5.76 0l-5.76-1.92c-.63-.16-1.38.19-1.92 0l-9.6-5.76c-4.36-3.49-6.83-5.17-9.97-10.19-2.93-4.69-24.59-50.23-24.58-53.15 0-.86 1.95-3.73 1.94-6.62-.03-9.63-2.92-26.96 3.82-33.69 14.62 20.74 34.72 50.37 51.89 68.16 1.46 1.51 1.55 4.5 1.86 4.78Z" class="cls-15"/><path d="M2485.76 3088.48c-1.46 14.95-5.03 27.38-1.92 42.23.13.63-.16 1.34 0 1.92-7.92.36.56 7.47-11.52 11.52-.64.21-7.28 1.88-7.68 1.92-8.78.95-18.24-.26-26.87-1.92-.04-.61-7.11-6.95-7.68-9.6-2.93-13.71 2.16-36.94 0-51.83 6.74 2.22 49 6.79 55.67 5.76Zm247.61-3.84c-1.85 13.15-2.88 29.56-5.76 42.23-5.81 25.52-17.36 21.15-40.31 19.2-8.29-7.81-8.81-13.7-7.68-24.95 1.03-10.26 6.6-23.36 5.76-34.55 7.42 1.19 42.04.77 47.99-1.92Z" class="cls-8"/><path d="M2503.03 3230.52c-.56 12.94 3.5 17.86-12.39 19.29-47.4 4.24-104.87-.98-153.73-.17-13.76.23-69.36 11.68-60.39-13.36l60.39 3.92c9.94-.03 19.91-.2 29.83-.08 24 .29 47.55-.62 71.02-1.92 22.73-1.26 42.84-1.26 65.26-7.68Z" class="cls-12"/><path d="m2633.56 3157.58 3.84 80.62c-17.24-.58-34.6-2.84-51.83-3.84-.77-21.8 28.01-59.86 43.2-74.92 1.48-1.46 4.33-1.42 4.79-1.86Z" class="cls-6"/><path d="M1144.02 3119.19c2.08-17.87 3.89-37.24 10.03-54.27 7.04-19.54 22.96-35.67 30.31-55.13 5.07-.49 3.1-.09 3.78 2.86 3.75 16.16 5.9 28.41.39 44.52-1.02 2.99-7.94 16.84-9.96 17.87-1.78.91-5.71-.32-9.52 2.96-11.15 9.57-6.38 34.44-3.91 46.95l-21.11-5.76Z" class="cls-14"/><path d="M1303.34 3209.41c12.56-1.53 44.35 26.91 24.91 35.47-5.58 2.46-48.16 1.47-57.54 1-.18-12.89-.41-25.7 1.92-38.39 1.05.96 15.89 5.75 18.29 5.84 6.65.24 10.22-3.66 12.42-3.92Z" class="cls-6"/><path d="M2637.4 3238.2c16.97.57 34.83.35 51.83 0 16.71-.35 33.2-1.97 49.91-1.92-1.22 2.92.86 5.07-3.85 8.63-11.81 8.92-82.99 7.71-100.85 6.81-9.5-.48-33.27-2.16-41.31-4.76-5.78-1.87-7.36-7.03-7.56-12.59 17.22 1 34.58 3.25 51.83 3.84Z" class="cls-12"/><path d="M1147.86 3205.57c9.83 2.29 38.92 14.07 22.96 27.77-5.18 4.45-40.29 3.61-49.03 3.02-2.53-.17-4.25-1.96-4.64-2 8.38-8.88.14-22.65 5.76-32.63 7.28 3.44 18.56 2.35 24.95 3.84Z" class="cls-6"/><path d="M813.34 547.41c8.91-2.65 14.92 4.73 11.06 13.05-.72 1.56-21.28 21.77-23.29 22.82-10.26 5.36-17.85-2.86-13.12-13.16 1.35-2.94 22.19-21.78 25.34-22.71Zm366.68-46.89c-5.11 5.03-34.39-4.55-39.74-8.26-6.01-4.16-5.47-13.87 1.27-15.87 8.28-2.46 52.4 10.41 38.47 24.13ZM914.2 486.13c4.28-4.44 35.19-13.84 40.6-9.94 17.26 12.44-27.87 26.33-36.27 24.87-6.41-1.11-8.56-10.55-4.33-14.93ZM696.22 818.04c5.18-1.54 9.47-.17 11.58 4.97 1.73 4.21 4.23 29.35 3.77 33.82-1 9.77-16.13 9.25-18.25 1.78-1.62-5.73-3.59-32.46-1.35-37.05.77-1.57 2.57-3.01 4.25-3.51Zm26.79-147.84c4.11-1.36 11.15-.57 13.19 3.56 2.44 4.93-9.27 36.92-14.49 39.31-25.2 11.53-3.72-41.2 1.3-42.86Zm347.51-209.16c2.86-.39 30.62 3.2 33.18 4.45 8.02 3.89 6.11 16.58-3.09 17.67-1.6.19-29.98-3.11-32.02-3.68-9.96-2.79-9.08-16.95 1.92-18.45Zm-223.45 59.68c1.51-1.79 27.28-17.11 29.67-17.5 10.05-1.66 13.48 10.06 8.16 16.03-1.02 1.15-24.91 15.45-26.4 15.85-11.1 2.98-18.62-5.84-11.43-14.37Zm-145.12 222.5c2.62-.8 8.14-1.04 10.31.48 4.46 3.11-.68 39.86-5.08 43.17-3.64 2.74-10.95 2.16-13.3-1.77-3.08-5.14.89-39.68 8.07-41.88Zm328.35-280.16c4.9 4.87 1.73 14.57-4.73 16.41-2.21.63-27.55 2.74-30.35 2.46-10.4-1.02-12.26-12.76-3.3-16.91 5.39-2.5 34.41-5.91 38.38-1.96ZM763.42 603c8.53-2.34 11.73 6.04 9.69 13.64-.43 1.62-16.37 25.57-17.65 26.51-8.61 6.27-17.04-1.16-13.68-11.72 1.36-4.29 17.69-27.35 21.64-28.44Z" class="cls-3"/><path d="M2890.22 610.73c9.64-2.87 19.38 14.49 23.21 22.12 3.61 7.19 8.81 19.65-4.42 19.61-7.12-.02-24.97-28.39-24.04-35.23.4-2.94 2.37-5.64 5.25-6.5Zm51.81 289.83c22.79-6.87 5.57 39.67-1.37 42.85-7.58 3.47-13.83-.91-13.05-9.09.44-4.57 10.42-32.55 14.42-33.76Zm7.69-151.69c4.91-1.36 10.05 2.34 11.6 6.92 1.22 3.61 4.42 26.5 4.22 30.14-.42 7.75-8.99 12.04-15.35 7.85-3.53-2.32-10.1-42.25-.47-44.91Zm-21.11-72.93c9.77-2.47 19.76 26.76 20.87 34.22 1.41 9.52-10.13 15.49-16.26 6.54-.88-1.29-11.16-27.47-11.42-29.06-.75-4.65 2.09-10.5 6.81-11.69Zm-149.68-165.03c5.25-.76 34.83 17.06 35.01 23.61.13 4.87-3.6 8.84-8.54 8.86-2.4.01-30.31-14.84-31.74-16.45-4.62-5.2-2.49-14.9 5.27-16.02Zm59.46 44.16c8.72-2.6 33.34 20.08 33.38 27.5.04 7.71-7.14 10.72-13.6 7.66-4.04-6.03-39.47-29.3-19.78-35.16Zm115.17 270.64c7.14-2.11 11.22 1.13 12.16 8.22.73 5.52-.62 27.42-2.33 32.39-1.87 5.42-11.47 6.29-15.07 2.28-5.78-6.43 2.41-27.42.09-36.45.39-2.96 2.27-5.58 5.16-6.44Z" class="cls-4"/><path d="M2921.48 969.35c1.43 1.76 2.42 4 3.84 5.76.88 7.93-10.07 28.38-15.25 33.7-6.93 7.12-18.45 3.65-15-9.23 1.67-6.23 17.13-33.03 26.41-30.23Z" class="cls-14"/><path d="M2705.94 484.1c8.88-2.68 48.76 7.6 38.11 22.77-3.39 4.83-32.55-4.34-37.4-6.99-6.99-3.8-8.59-13.41-.71-15.79Zm380.05 577.63c4.23-1.03 28.58 13.13 30.39 17.06 2.2 4.79-3.31 11.52-7.39 11.17-1.49-.13-25.29-12.95-26.29-14.05-3.84-4.27-2.16-12.85 3.29-14.18Zm78.78 66.44c-2.16 2.16-6.21 2.77-9.03 1.52-3.66-1.63-24.27-21-22.23-25.92 4.03-9.74 11.71-4.4 17.31 0s21.12 17.24 13.96 24.4Zm67.19 109.42c-1.56 1.55-5.61 2.68-7.78 2.15-4.63-1.13-25.06-43.73-4.6-37.88 5.77 1.65 17.98 30.16 12.38 35.73Zm2.87 63.37c-2.84-3.01-7.45-32.28-3.38-36.04 12.99-12 18.31 26.74 16.05 33.3-1.51 4.38-9.37 6.24-12.67 2.74Zm-210.31-262.27c3.32-1.11 28.84 6.29 31.35 8.37 4.86 4.05 1.7 14.97-6.23 14.12-1.71-.18-25.18-7.64-26.33-8.4-4.96-3.25-4.15-12.3 1.22-14.09Zm205.43 353.2c5.61-1.61 10.13 1.98 9.82 7.84-.36 6.94-9.99 41.28-20.95 27.57-3.93-4.92 5.78-33.88 11.13-35.42Zm7.55-63.38c6.43-2.14 12.05 1.5 12.38 8.41.1 2.15-2.02 23.02-2.47 24.58-1.43 4.97-9.31 7.08-13.19 4.35-3.55-2.5-.82-27.44.15-32.74.42-2.31.59-3.76 3.12-4.6Zm-55.51-182.3c9.98-2.83 29.44 28.08 21.78 33.45-3.01 1.35-6.86 1.61-9.72-.13-1.12-.68-14-19.31-15.07-21.4-2.45-4.78-3.37-10.11 3.01-11.92Z" class="cls-4"/><path d="M709.7 892.9c12.7-1.83 20.28 30.02 6.78 31.96-12.8 1.84-20.64-29.97-6.78-31.96Zm504.82-387.76c6.61-1 30.55 13.63 18.94 22.91-12.32 9.84-42.22-19.4-18.94-22.91Z" class="cls-3"/><path d="M2575.46 472.66c27.51-5.05 27.06 19.5-.55 18.83-11.43-.28-16.39-15.72.55-18.83Z" class="cls-4"/><path d="M669.53 904.62c3.76-.26 17.06-.61 12.96 7.17-2.46 4.68-37.52 10.96-39.45 4.74-2.69-8.71 21.36-11.57 26.49-11.92ZM468.5 1115.09c-3.18-2.19 2.85-35.56 5.48-37.43 4.66-3.31 9.84-.44 9.83 5.8 0 2.31-4.8 25.33-5.65 27.16-1.76 3.8-6.05 6.95-9.65 4.46Zm102.96-172.34c6.24-1.02 8.17 4.75 5.36 9.33-1.84 2.99-37.21 31.42-31.37 10.94 1.06-3.72 22.04-19.62 26.01-20.27Zm-101.84 190.01c2.93-.76 5.18-.15 6.12 2.92s2.82 29.29 1.92 32.05c-1.49 4.6-9.5 4.63-10.94 0-1.16-3.74-2.86-26.49-1.8-30.04.59-1.98 2.73-4.42 4.69-4.93Zm142.7 212.81c30.91 10.66 21.9 24.39-5.76 11.52-7.62-3.55-14.04-6.32-11.52-15.36 6.19-.9 11.63 1.9 17.28 3.85Zm15.09-418.69c-1.02 1.68-33.89 16.4-36.18 8.81-2.52-8.34 29.79-20.82 34.66-17.34 2.03 1.45 2.68 6.64 1.53 8.53Zm-98.26 52.35c6.28-1.7 7.63 4.31 5.39 9.26-.66 1.45-15.95 20.55-17.09 21.31-5.96 3.97-12.71 1.77-9.7-5.82 1.53-3.85 17.96-23.8 21.4-24.74Zm-32.67 46.03c14.47-3.95-1.65 29.5-5 33.43-1.87 2.2-3.76 3.31-6.74 2.77-8.62-2.6 6.3-34.72 11.74-36.2Zm-21.33 162.94c8.05-2.43 16.5 22.25 7.26 24.72-8.73 2.33-13.83-22.73-7.26-24.72Zm86.51 130.6c4.91-1.42 24.71 12.06 16.18 18.24-6.5 4.71-28.36-14.71-16.18-18.24Z" class="cls-3"/><path d="m1195.85 3153.74-3.84 1.92c-1.67-7.02-2.9-9.35 3.84-1.92Zm-84.46 80.62c-3.69-.56-5.3-1.38-7.68-1.92l7.68 1.92Zm153.56 11.52c-3.91-.38-4.81-1.68-5.76-1.92l5.76 1.92Zm-7.68-1.92c-6.46-2.25-5.07-2.14-9.6-5.76l9.6 5.76Z" class="cls-6"/><path d="M1295.66 915.6c-2.82 43.8-5.76 87.65-7.72 131.53 7.61 29.2 26.38 7.08 39.44-4.79 52.78-47.99 101.43-101.01 154.48-148.8 4.63-7.04 5.07-14.12-.27-20.87-4.27-5.39-23.82-10.49-22.66-15.46 106.11-133.43 266.6-215.66 434.94-238.86 350.26-48.27 704.23 133.57 874.39 439.92 21.43 38.59 40.02 78.91 55.37 120.3 5.15 3.71 23.05-19.24 24.92-24.95 6.13 7 11.29 17.27 15.69 25.58 18.31 34.64 34.72 70.61 49.58 106.86 1.84 4.48 3.99 8.97 5.76 13.44 7.91 20.02 16.32 41.03 23.03 61.42 1.33 4.03 2.43 8.95 3.84 13.44 13.42 42.62 24.19 86.62 32.63 130.53 14.08 73.21 22.32 147.91 21.11 222.66-16.82-59.3-56.77-128.18-96.03-175.58-21.17-25.56-40.92-46.47-74.74-53.87-39.7-8.68-84.46-9.95-124.84-16.25-3.43-33.86-9.9-67.63-11.52-101.73 10.45-6.73 24.54-25.41 21.11-38.39 13.61-3.02 27.08-17.09 26.69-31.49-.34-12.54-11.93-19.68-9.37-32.76 1.26-6.42 11.56-10.34 16.14-16.49 15.35-20.61 1-49.18-20.6-57.91-3.71-1.5-6.13-.84-9.03-1.47-3.69-.81-4.53-1.64-9.6-1.92-1.27-.07-2.56.06-3.84 0-4.59-.22-5.46 1.92-5.76 1.92-.91-.01-9.17-1.69-9.6-1.92-2.15-1.17-6.07-9.85-8.53-11.63-4.05-2.92-12.52-2.55-15.42-9.53-4.92-11.85 3.75-20.07-6.76-36.43-22.28-34.64-66.95-23.01-87.95 7.07-18.51 26.5-15.04 47.68 13.09 63.96l-49.91 101.73c-6.05-.53-10.43 1.16-14.32 5.84-6.21 7.47-20.36 43.71-24.1 54.59-3.47 10.09-11.58 26.26-4.73 35.55 2.69 3.64 4.8 2.64 6.68 3.84 1.45.92 2.49 1.26 3.84 1.92.12.06.51 1.29 1.92 1.92.88.39 2.91-.39 3.84 0 .13.05.48 1.35 1.92 1.92.94.38 2.88-.37 3.84 0 .13.05.48 1.4 1.92 1.92.99.35 2.82-.34 3.84 0 .13.04.48 1.45 1.92 1.92 1.03.34 2.81-.34 3.84 0 .13.04.48 1.45 1.92 1.92 1.03.33 2.79-.33 3.84 0 .13.04.49 1.5 1.92 1.92 1.03.3 2.67-.25 3.84 0 .37.8 1.08 1.69 1.92 1.92 10.35 2.81 30.64 8.64 40.31 9.6.16 13.33-10.61 30.01-11.52 42.23-40.49 5.61-84.31 11.01-120.97 29.71s-65.15 48.99-96.95 73.89c-82.47 64.59-164.35 107.78-273.48 94.11-38.11-4.77-86.97-21.98-121.62-38.66-5.34-2.57-30.85-15.05-33.35-17.52-3.94-3.9-10.86-18.09-16.81-24.46-26.09-27.95-74.53-38.95-107.54-57.5-5.41.51-.71 18.07 1.22 21.77 8.36 16.02 38.48 14.29 35.92 35.46l-105.9 44.76c-14.42 9.55-18.79 25.55-20.48 41.9 63.25 5.38 125.75.3 186.78-16.96 8.24 7.16 16.72 14.22 25.69 20.46 45.2 31.44 88.31 62.3 138.81 84.81 77.88 34.72 151.38 49.01 236.46 30.12 41.21-9.15 78.83-27.94 114.78-49.31 27.6 74.73 55.55 149.87 72.37 228.05 11.65 54.16 16.57 101.32 16.04 156.89-.13 13.99 1.1 19.62 1.83 31.58 1.1 18.18-16.46 83.58-20.51 107.14-26.76 155.76-45.09 312.69-54.35 470.63-17.34 5.63-33.57 17.37-49.87 25.95-329.63 173.7-724.04 183.34-1061.53 23.95 1.13-1.89 1.64-5.88 3.48-8.97 8.94-15 18.17-29.88 27.23-44.77 21.12 4.57 48.63 8.36 70.34 11.24 124.39 16.52 253.26 8.73 375.72-17.15 9.32 12.25 21.13 60.64 42.56 48.23 52.82-56.56 105.69-113.25 156.8-171.42 5.1-11.62-3.36-20.17-14.95-20.72-5.49-.26-10.02 2.01-15.19 2.09-39.89.62-79.33 2.44-119.01 3.84-30.51 1.07-68.45-1.62-98.02 1.8-31.18 3.61-.81 40.31-2.84 42.26-12.62 1.22-25.14 3.82-37.7 5.5-101.07 13.5-201.18 13.75-302.05.27 9.52-20.45 31.42-43.08 32.7-66.16.42-7.56-3.12-19.12-1.99-24.06.55-2.39 4.59-4.4 5.37-7.12 3.57-12.38-33.81-124.92-39.92-146.44-24.84-87.48-60.04-189.05-77.81-276.34-5.28-25.93-7.08-56.43-2.81-82.6 8.28-50.85 42.64-139.31 66.85-185.56 4.48-8.55 19.31-27.49 21.45-33.26 88.36 33.36 188.51-25.16 226.5-105.57 21.7-45.94 23.19-86.58 12.5-136.3-4.03-18.72-11.89-35.93-16.49-54.42 33.37-17.9 61.21-43.02 55.66-84.56-.97-7.26-9.71-36.88-20.05-26.13-1.64 1.71-9.57 27.13-12.76 33.29-7.83 15.12-23.83 36.64-41.87 37.76 4.27-15.06 9.38-19.49 1.5-35.14-8.61-17.08-6.52.58-11.39 8.95-5.15 8.85-13.47 11.37-17.89 24.34-7.15 20.95 7.92 53.5 11.82 76.37 7.5 44.03 5.49 82.67-22.43 119.36-12.78 16.8-43.02 39.93-63.61 44.84-55.09 13.14-111.16-33.79-149.45-67.87-11.3-20.35-26.41-43.78-40.03-62.75-1.46-2.03-1.84-5.95-2.2-6.35 29.19-33.77 28.27-78.76 3.84-115.17 24.43-11.98 27.85-39.2 24.95-63.34-3.79-31.58-30.15-86.37-47.99-113.25 2.71-37.53-8-70.82-47.92-79.73-25.85-5.76-41.74-.22-66.31 2.93-23.12 2.96-39.86-2.53-56.6 20.18-9.09 12.32-6.17 21.65-10.61 31.62-1.28 2.88-7.91 7.27-10.46 10.66-17.06 22.67-12.71 43.02-3.9 68.08-15.68-2.86-29.88-6.86-46.06-7.67-7.64-.38-17.4-.57-24.95 0l-7.68 1.92c-92.12 11.18-151.85 132.25-109.41 211.15 11.97 22.25 32.32 40.34 57.58 46.09-12.44 11.02-24.41 21.83-26.7 39.49-6.12 47.22 45.6 79.4 86.21 85.26-13.12 17.27-25.64 40.6-36.47 59.5-32.52 56.78-75.1 144.03-25.94 203.49 28.73 34.75 80.58 54.38 123.83 63.32-6.53 11.39-15.97 20.63-22.66 32.05-16.75 28.58-25.54 65.33-25.33 98.48-3.14 4.11-3.17 11.17 0 15.36.3 17.27 1.51 34.68 3.84 51.83 2.88 21.22 7.91 42.68 12.11 63.71 15.63 78.19 36.8 155.35 51.23 233.81-296.32-166.79-424.42-501.15-457.36-825.83-.06-2.53-8.34-12.72-9.08-12.99.19-127.36 23.59-255.39 65.23-375.3 6.12-17.64 14.34-34.97 19.22-52.74-2.54-.14-5.13.14-7.67 0l27.76-5.72c8.08.79 20.31 18.95 27.36 20.81s29.91-17.83 38.63-19.22c3.52-5.58-7.05-29.6-5.17-36.71.4-1.51 15.02-17.2 17.78-20.75s7.28-13.68 9.61-15.35c7.62-5.44 33.68-1.54 36.68-5.55 0-8.61 11.75-34.89 10.24-40.96-1.28-5.15-23.51-15.06-27.58-20.48 1.05-11.13-8.9-41.84-5.7-49.84 2.73-6.82 18.59-18.13 19.84-24.57.62-3.17-8.69-17.57-11.24-21.59l49.91-61.42c10.33 8.55 26.02 17.38 38.09 23.33l4.42 52.22c.54 2.4 2.6 2.47 4.35 3.33 3.97 1.94 56.44 15.82 59.38 14.97l30.04-42.99c23.12-1.16 46.24-3.28 68.52-10.02 8.88-.09 32.38 30.58 43.6 32.13 3.1-.16 52.4-28.04 53.91-30.74 5.44-9.74-10.04-41.97-6.31-54.3.82-2.71 17.97-19.78 21.54-24.55 3.92-5.24 16.78-28.32 18.89-30.06 4.96-4.1 44.14-3.4 53.25-4.34Zm1240 232.26V816.75c0-8.82-15.12-22.55-24.17-23.82-53.04-7.45-123.28-2.49-178.42-3.94-136.54-3.58-273.99-9.17-410.62-11.68-22.84-.42-55.72-5.01-58.72 25.9-5.7 58.74 4.5 126.61.05 186.34 6.61 28.93 34.76 22.46 56.75 23.86 170.96 10.88 343.4 16.63 514.45 28.77 33.66 35.06 65.73 71.94 100.67 105.68Zm-1259.74-88.03c-1.65.46-25.5 20.25-26.45 21.67-5.9 8.87 1.1 17.3 11.55 13.51 2.68-.97 24.95-19.75 26.01-22.04 3.26-7.06-4.12-15.1-11.12-13.13Zm-63.26 46.21c-1.79.45-27.5 14.45-28.46 15.76-4.58 6.24-1.27 14.69 6.82 14.7 4.57 0 29.13-12.62 31.83-16.33 5.68-7.79-.35-16.63-10.19-14.13Zm-324.47 9.51c-5.01 1.47-6.23 7.46-4.9 11.77 1.88 6.12 31.93 18.35 38.64 16.34 6.16-1.84 7.24-10.89 2.43-15.11-3.09-2.71-32.23-14.15-36.16-13Zm253.49 21.21c-7.08.81-31.34 6.45-33.38 12.96-6.52 20.77 42.8 6.02 45.01-1.29 2.81-9.3-3.31-12.63-11.63-11.67Zm948.07 244.68c5.32-4.86 11.34-21.8 12.09-29.18 6.14-60.85-4.4-131.76-.15-193.67-6.55-27.8-30.26-19.11-50.61-18.33-173.71 6.68-350.77 12.88-524.08 24.89-9.46.66-21.86.92-30.56 2.07-13.24 1.76-20.57 10.94-22.25 23.82l-.39 139.73c-19.11 24.76-51.15 46.3-69.68 70.44-1.48 1.93-3.72 2.43-2.86 5.76l89.45-5.57c159.98-1.92 321.22-8.6 481.52-13.69 33.06-1.05 73.56 1.81 105.69-1.79 3.51-.39 9.3-2.17 11.84-4.49ZM959.11 1142.42c-7.43 2.59-5 13.3 2.08 16.49 3.18 1.43 29.18 6.51 32.13 6.23 8.98-.85 13.06-14.23 1.06-18.3-5.28-1.79-30.9-5.94-35.27-4.41Zm98.13 7.94c-8.68.39-29-.64-26.19 11.49 2.55 11 44.58 10.15 47.46.02 3.8-13.35-14.01-11.83-21.27-11.51Zm-130.38 62.51c1.44-.9 8.31-30.44 7.65-32.91-1.8-6.68-7.87-6.45-10.73.07-1.72 3.93-7.93 31.48-6.27 33.09 2.6-.4 7.5.9 9.35-.26Zm-17.7 17.76c-1.54.51-15.7 25.91-16.24 28.02-1.72 6.65 5.55 8.12 10.37 4.53 5-3.72 23.72-38.49 5.88-32.55Zm-28.68 48.07c-1.54.45-20.77 21.17-21.5 22.73-2.86 6.07 1.75 8.99 7.3 7.36 6.79-1.99 35.41-36.29 14.2-30.09Zm-33.99 40.01c-3.72-3.69-27.93 12.22-31.41 15.59-6.27 6.08-2.36 10.53 5.38 9.35 5.36-.82 32.21-18.84 26.03-24.95Zm-54.34 27.19c-1.49.14-26.84 9.51-28.08 10.35-7.37 4.99-4.64 11.15 4.46 10.38 3.54-.3 23.99-7.74 26.88-9.73 6.21-4.28 1.32-11.42-3.27-10.99Zm-49.3 16.94c-1.32-1.37-36.34 1.98-37.57 3.7-10.61 14.93 31.82 8.58 36.33 5.99 2.73-1.56.75-6.95 1.24-9.7Z" class="cls-13"/><path d="M641.11 1716.04c.75.27 9.02 10.46 9.08 12.99 32.93 324.68 161.04 659.04 457.36 825.83 19.07 10.74 68.79 39.79 88.3 42.23 16.2 9.53 35.83 15.4 53.75 21.11 5.22 1.67 11.01 4.47 15.36 5.76.22 3.7-.91 6.5-2.96 9.51-13.52 19.86-34.69 39.12-47.82 59.69-1.98 3.1-3.24 5.7-2.97 9.5-31.46-12.41-62.42-26.04-92.14-42.23-30.98-16.88-63.59-36.91-92.14-57.59-2.49-1.8-5.16-3.88-7.68-5.76l-3.84-3.84c-195.14-147.89-308.74-374.23-359.93-610.38-18.9-87.16-31.04-177.62-33.58-266.85 4.94 1 15.34-1.37 19.2 0Z" class="cls-2"/><path d="M1119.07 2660.43c.1 6.38-.15 12.82 0 19.2-19.72-11.69-38.95-27.48-56.58-42.28-9.93-8.34-21.49-17.97-30.84-26.75-2.35-2.2-4.62-4.22-4.72-7.76 28.55 20.67 61.16 40.71 92.14 57.59ZM649.3 1370.05c-4.07-3.34-1.74-10.5 4.15-10.87 1.42-.09 26.19 3.95 28.07 4.53 5.83 1.82 8.54 8.44 2.47 10.34-4.63 1.45-31.47-1.35-34.7-4Z" class="cls-13"/><path d="M1019.26 2597.09c-2-1.49-3.05-3.24-3.84-3.84l3.84 3.84Z" style="fill:#494bf2"/><path d="M1343.65 2744.89c-9.07 14.9-18.29 29.78-27.23 44.77-1.84 3.09-2.35 7.08-3.48 8.97-19.54 32.8-41.02 64.92-59.87 98.49-2.23 3.97-7.96 9.92-9.23 12.85l1.92-193.87c31.22 10.64 65.74 21.84 97.89 28.79Z" class="cls-1"/><path d="M2430.09 3134.55c.57 2.64 7.63 8.98 7.68 9.6.12 1.63-2.34 7.63-2.04 12.48 1.69 27.14 2.94 54.24 2.04 81.57-23.47 1.3-47.02 2.21-71.02 1.92l-1.92-80.62c20.36-10.85 41.88-22.57 65.26-24.95Z" class="cls-15"/><path d="M2566.38 1481.86c-.18 2.47-.73 3.9 1.25 5.91 4.06 4.1 24.94 12.35 31.36 14.27 35.24 10.54 72.28 7.98 107.52-1-2.7-6.45-1.29-12.87-1.93-19.18 40.38 6.29 85.14 7.57 124.84 16.25 33.82 7.39 53.57 28.31 74.74 53.87 39.26 47.4 79.21 116.28 96.03 175.58 18.01 63.48 18.6 130.7-.97 193.86-6.31 20.34-17.96 38.65-23.98 57.6-8.9 13.84-16.98 28.18-26.45 41.69-4.32 6.17-9.24 11.9-13.86 17.81-22.46-11.99-42.91-26-62.71-41.92-2.64-2.13-7.46-3.42-8.31-4.15-.53-.46-.5-5.43-3.84-5.76 20.71-62.01 9.91-142.95-18.85-200.93-1.46-2.94-2.58-7.2-6.08-8.29-31.31 105.41-49.43 210.57-55.69 320.56-1.02 17.93.26 42-1.82 58.65-.46 3.67-1.7 5.79-3.94 8.53-57.54 18.87-121.05 19.99-181.37 17.26-23.97-1.09-56.98-3.79-80.45-7.84-4.39-.76-8.28-2.96-12.66-3.66-.73-11.96-1.96-17.59-1.83-31.58.53-55.57-4.39-102.73-16.04-156.89-16.82-78.18-44.77-153.33-72.37-228.05-35.96 21.37-73.57 40.16-114.78 49.31-85.08 18.89-158.58 4.6-236.46-30.12-3.19-32.49 4.96-64.19 17.28-94.06 109.13 13.67 191.01-29.52 273.48-94.11 31.79-24.9 60.57-55.32 96.95-73.89s80.48-24.1 120.97-29.71Zm397.33-209.23c-1.66-8.17-3.82-62.58-1.71-65.06 4.76-5.59 26.91 1.19 33.42 3.59 57.58 21.27 90.06 88.83 70.56 147.42.2 6.72-23.58 40.74-21.64 42.64 6.42 6.3 19.65-22.23 21.45-25.65 1.43-2.7.77-6.07 5.41-5.05-4.22 33.52-4.85 93.89-2.05 127.77.37 4.41.79 7.13 3.97 10.44-.53.37-2.31 8.88-9.63 6.95-8.44-2.23-26.92-21.68-35.59-22.27-10.86-.74-35.18 14.79-48.84 11.48-8.45-43.91-19.21-87.91-32.63-130.53 35.63 1.78 63.34-25.68 57.13-61.93-2.92-17.01-22.45-37.61-39.85-39.81Z" class="cls-17"/><path d="M2796.72 2393.62c.18-6.58 1.92-15.7 1.92-20.15v-155.48c0-1.53-9.79-24.31-11.52-27.83 6.11-6.3 7.56-20.62 12.57-26.78 7.09-8.73 41.69-30.35 53.6-40.46 4.11-3.49 7.26-8.47 10.61-11.47 25.89-23.13 49.21-45.06 71.02-72.94 4.62-5.91 9.54-11.64 13.86-17.81 9.46-13.51 17.55-27.85 26.45-41.69-10.21 32.13-16.16 68.05-26.36 101.28-33.91 110.47-85.48 219.19-152.15 313.33Z" class="cls-13"/><path d="M3066.89 1581.98c13.01-2.18 15.04 14.11-3.26 18.05-19.81 4.26-13.03-15.31 3.26-18.05Z" class="cls-14"/><path d="M2863.9 1992.44v119.01c-3.35 3-6.5 7.97-10.61 11.47-11.91 10.11-46.51 31.72-53.6 40.46-5.01 6.16-6.46 20.48-12.57 26.78-3.91-7.99-11.2-16.04-13.44-24.95 2.24-2.74 3.48-4.87 3.94-8.53 2.08-16.65.8-40.71 1.82-58.65 3.79.04 5.32-2.6 7.71-4.76 26.46-24.02 61.78-73.24 72.91-106.57 3.34.32 3.31 5.3 3.84 5.76Z" class="cls-8"/><path d="M2579.81 2635.48c8.75-53.13 20.32-106.34 34.7-158.21 4.99-17.99 10.13-36.95 16.6-54.42 1.33-3.57 9.17-24.43 10.15-25.39s5.17-.43 3.82 2.83c2.63 47.46 7.98 94.74 11.49 142.11.59 7.93-.54 16.07.02 23.97-15.87 13.76-30.58 28.99-46.04 43.22-7.54 6.93-25.61 19.03-30.74 25.89Z" class="cls-13"/><path d="M2464.64 664.15c18.89 12.07 41.61 26.83 61.42 40.31 1.4.95 3 1.34 3.84 1.92 22.08 15.23 50.81 36.75 71.02 53.75 4.22 3.55 9.52 8.08 13.44 11.52 15.28 13.4 35.69 33.22 49.91 47.99 2.77 2.88 7.62 9.21 11.52 13.44 18.64 20.25 36.25 42.1 53.75 63.34 1.62 1.97 1.11 8.22 7.68 7.68-.69 8.07 9.2 16.4 13.44 23.03 7.69 12.05 15.69 24.23 23.03 36.47 1.42 2.36 3.01 4.35 3.84 5.76 16.77 28.36 33.26 60.6 46.4 90.84 7.78 17.91 25.91 58.34 26.54 76.15.18 5.14-.35 12.47-1.92 17.28-1.87 5.71-19.77 28.66-24.92 24.95-15.35-41.38-33.94-81.71-55.37-120.3-170.16-306.35-524.13-488.19-874.39-439.92-168.33 23.2-328.83 105.43-434.94 238.86-1.16 4.97 18.4 10.07 22.66 15.46 5.34 6.74 4.91 13.82.27 20.87-53.05 47.79-101.7 100.81-154.48 148.8-13.06 11.88-31.84 33.99-39.44 4.79 1.97-43.88 4.9-87.73 7.72-131.53 1.6-24.88 2.08-50.03 3.84-74.86.71-10.02.98-23.76 2.43-33.08 6.19-39.96 54.25 14.08 68.58 5.25 88.2-122.9 223.04-204.9 368.14-244.19 24.91-6.75 50.34-11.27 75.27-17.82 32.34-2.59 64.47-9.27 96.95-11.5 188.69-12.96 380.98 31.61 545.36 122.64 2.87 1.59 7.75 1.69 8.4 2.11Z" class="cls-17"/><path d="M1813.93 550.9c-24.93 6.55-50.36 11.07-75.27 17.82-145.11 39.3-279.95 121.29-368.14 244.19-14.33 8.82-62.39-45.21-68.58-5.25-1.44 9.32-1.72 23.07-2.43 33.08l-30.39-20.47c.24-23.45-3.22-46.52-9.78-68.91.35-6.11 30.3-32.35 32.17-38.69 2.04-6.89-6.56-17.41-10.09-23.79-1.13-2.04-.69-4.82-1.1-5.54 143.86-77.9 306.12-118.69 469.34-130.51 21.03-1.52 43.18-.25 64.28-1.94Zm-436.21 169.22c-14.16 2.63-4.9 34.75 6.79 32.04 12.28-2.84 6.44-34.5-6.79-32.04Zm-471.73 91.83c-1.86 1.51-8.29-.85-7.57-4.61 4.61-56.81 37.94-107.46 90.75-130.09 116.6-49.96 237.64 56.65 203.78 178.83-30.74 110.92-173.53 145.36-252.39 62.37l2.9-4.77c5.16-1.36 12 8.96 16.44 12.31 111.57 84.07 263.41-17.41 224.92-151.98s-240.27-132.21-273.69 5.64c-1.39 5.75-3.89 31.26-5.16 32.29Z" class="cls-13"/><path d="M1037.98 754.86c72.38-9.76 98.01 90.73 33.77 116.31-88 35.04-119.38-104.77-33.77-116.31Zm-1.95 15.32c-51.82 9.74-43.22 99.69 18.24 91.17 60.03-8.32 49.03-103.82-18.24-91.17Zm-406.28 433.51c4.64-6.43 19.84 10.23 25.38 13.64 75.06 46.21 166.4-27.42 135.24-110.28-31.57-83.94-150-77.67-175.19 10.09-1.95 6.8-1.55 30.1-12.6 22.22-5.54-3.95 4.3-35.11 6.89-41.37 34.3-83 158.41-81.41 190.99 2.81 35.5 91.76-62.82 176.89-147.68 128.49-5.2-2.96-28.29-18.32-23.03-25.59Z" class="cls-13"/><path d="M698.26 1098.44c49.51-6.09 64.08 63.39 22.12 79.74-60.65 23.64-81.97-72.39-22.12-79.74Zm-.05 11.48c-35.97 5.68-30.54 62.6 6.73 60.51 41.94-2.36 34.95-67.09-6.73-60.51Z" class="cls-13"/><path d="M1399.32 2650.83c100.87 13.48 200.98 13.23 302.05-.27 12.56-1.68 25.08-4.28 37.7-5.5 2.02-1.95-28.35-38.65 2.84-42.26 29.57-3.42 67.51-.73 98.02-1.8 39.68-1.4 79.12-3.22 119.01-3.84 5.17-.08 9.7-2.34 15.19-2.09 11.59.55 20.05 9.1 14.95 20.72-51.11 58.17-103.98 114.86-156.8 171.42-21.43 12.41-33.24-35.98-42.56-48.23-122.47 25.88-251.33 33.67-375.72 17.15-21.71-2.88-49.22-6.67-70.34-11.24-32.16-6.96-66.67-18.15-97.89-28.79-11.76-4.01-23.04-8.89-34.55-13.44-.28-3.8.99-6.41 2.97-9.5 13.13-20.57 34.31-39.83 47.82-59.69 2.05-3.01 3.18-5.81 2.96-9.51 4.59 1.36 13.14.78 17.28 1.92 42.25 11.63 72.72 19.02 117.09 24.95Z" class="cls-2"/><path d="M2934.92 1138.27c-.89 2.63-1.59 53.35.21 55.46 13.87 3.04 28.14 2.11 42.12 4.9 41.8 8.36 73.57 36.45 92.04 74 .12 11.07 8.84 29.12 9.66 43.11 1.11 19.03-5.41 36.25-7.74 54.78-4.64-1.02-3.98 2.35-5.41 5.05-1.81 3.42-15.04 31.95-21.45 25.65-1.94-1.9 21.85-35.92 21.64-42.64 19.5-58.59-12.98-126.16-70.56-147.42-6.51-2.4-28.66-9.18-33.42-3.59-2.11 2.48.05 56.88 1.71 65.06-6.21-.78-16.96-.43-23.14.85-10.25 2.12-17 10.67-26.76 12.59-14.86-36.26-31.27-72.22-49.58-106.86-4.4-8.32-9.56-18.58-15.69-25.58 1.57-4.8 2.1-12.13 1.92-17.28 8.02 1.05 21.85 16.29 28.13 16.88 2.11.2 20.31-7.33 25.2-8.66 10.25-2.77 20.62-4.84 31.13-6.3Z" class="cls-17"/><path d="M2777.52 963.59v5.76c-.83-1.41-2.42-3.4-3.84-5.76 1.17-.23 2.97.34 3.84 0Z" class="cls-1"/><path d="M2631.64 667.99c57.26 3.82 111.09 47.31 128.61 101.73 10.23 31.78 3.84 53.68 1.92 84.46-5.31 7.92-7.01 17.83-11.18 26.25-2.6 5.25-13.45 19.84-13.77 23.66-6.57.54-6.05-5.71-7.68-7.68 5.37-.24 7.61-6.35 9.92-10.24 69.51-117.2-53.36-255.09-177.6-198.71-12.22 5.55-20.16 13.78-31.95 18.92-.84-.58-2.44-.97-3.84-1.92.49-6.02 6.28-8.62 10.51-11.56 26.95-18.8 62.38-27.08 95.06-24.91Z" class="cls-7"/><path d="M2762.17 854.18c-1.25 20.07.44 45.56-2.12 66.08-.89 7.17-2.31 7.72-9.4 6.86-4.24-6.63-14.12-14.96-13.44-23.03.32-3.81 11.17-18.4 13.77-23.66 4.17-8.42 5.87-18.33 11.18-26.25Z" class="cls-1"/><path d="m2472.32 3144.15-7.68 1.92c.39-.04 7.04-1.71 7.68-1.92Z" class="cls-6"/><path d="M1312.94 1595.11c.36.4.74 4.32 2.2 6.35 13.62 18.97 28.73 42.4 40.03 62.75 20.31 36.59 62.94 124.61 47.99 165.08-2.13 5.77-16.97 24.71-21.45 33.26-24.21 46.25-58.57 134.72-66.85 185.56-27.4 7.34-55.04 7.01-82.97 3.31-6.9-.91-14.69-4.27-20.68-5.23 7.21-9.32.5-21.69-4.97-30.54-11.72-18.97-35.52-33.24-58.38-28.96 3.1-43.75-1.85-89.59-8-133.09-3.79-26.78-8.89-53.67-15.04-79.98 25.2-23.86 41.09-57.09 40.16-92.78-.93-35.77-26.08-50.57-57.44-31.99 15.12-25.28 46.05-42.63 72.94-53.75-.23 2.13-.42 10.61.19 11.34 19.77 5.31 42.21 6.62 61.76-.25 3.89-1.37 22.59-11.06 24-13.43s.01-6.44.43-9.17c8.86-.44 17.68 1.32 26.15 3.6 3.79 1.02 17.98 5.76 19.91 7.92Z" class="cls-2"/><path d="M1293.75 1303.34c-2.38-3.58-7.3-6.66-8.63-11.51-22.5 22.79-58.46 29.35-89.01 34.8-1.33 7.56-2.54 15.26-4.1 22.77-2.35 11.36-4.87 22.93-5.77 34.54-5.6-.62-9.08-6.03-14.82-7.22-12.11-2.52-21.28-.18-25.56 11.93-8.69 24.61 18.81 39.4 39.46 41.53 3.49.36 8.31-1.88 10.63-1.03 3.99 1.47 18.2 19.86 22.94 23.9-12.1 38.73-24.49 77.24-32.63 117.09-1.58 7.74-4.96 17.39-5.76 24.95-26.89 11.12-57.82 28.47-72.94 53.75-15.59 9.24-68.13 68.02-80.62 84.46-40.61-5.87-92.32-38.04-86.21-85.26 2.29-17.66 14.26-28.47 26.7-39.49-25.26-5.75-45.62-23.84-57.58-46.09l142.04-213.06c16.18.81 30.38 4.81 46.06 7.67-8.81-25.07-13.16-45.42 3.9-68.08 2.55-3.39 9.17-7.77 10.46-10.66 4.44-9.97 1.52-19.29 10.61-31.62 16.75-22.71 33.48-17.22 56.6-20.18 24.57-3.14 40.46-8.69 66.31-2.93 39.92 8.9 50.63 42.2 47.92 79.73Z" class="cls-6"/><path d="M1395.48 2407.06c6.11 21.52 43.49 134.06 39.92 146.44-.78 2.71-4.83 4.73-5.37 7.12-36.97 9.36-73.57 20.75-111.33 26.87-22.06 3.58-46.75 6.07-69.1 7.68-16.03 1.15-38.33 3.85-53.75 1.92-19.5-2.44-69.22-31.49-88.3-42.23-14.43-78.46-35.61-155.62-51.23-233.81-4.2-21.04-9.23-42.49-12.11-63.71l351.27 149.72Z" class="cls-15"/><path d="M1211.21 2046.19c5.99.96 13.78 4.32 20.68 5.23 27.93 3.7 55.57 4.03 82.97-3.31-4.26 26.18-2.46 56.68 2.81 82.6 17.77 87.3 52.97 188.86 77.81 276.34l-351.27-149.72c-2.33-17.15-3.54-34.56-3.84-51.83-.07-4.12.03-11.14 0-15.36-.22-33.15 8.58-69.9 25.33-98.48 6.69-11.42 16.14-20.65 22.66-32.05 11.52 2.38 34.37 7.78 45.07 5.71 3.53-.68 14.25-11.22 20.16-14.38 21.9-11.71 34.44-8.49 57.62-4.77Z" class="cls-9"/><path d="M2535.66 1147.86c-34.94-33.74-67.01-70.62-100.67-105.68-171.06-12.14-343.49-17.89-514.45-28.77-21.99-1.4-50.15 5.07-56.75-23.86 4.45-59.73-5.74-127.59-.05-186.34 3-30.9 35.88-26.31 58.72-25.9 136.63 2.5 274.07 8.1 410.62 11.68 55.13 1.45 125.38-3.52 178.42 3.94 9.05 1.27 24.17 15 24.17 23.82v331.11Zm-643.54-356.58c-12.27 2.24-19.55 11.56-20.7 23.45-4.92 50.89 3.91 109.63.05 161.38 3.03 20.14 20.23 22.82 37.39 24.03 21.76 1.53 45.47.59 67.34 1.76 157.99 8.44 315.92 17.47 474.12 23.03 28.63 1.01 64.63 13.19 68.13-27.69-3.99-52.93 5.12-113.08-.09-165.12-1.16-11.57-6.99-23.78-19.12-26.95-7.22-1.89-30.14-2.54-39.33-2.9-167.65-6.68-336.9-7.34-504.99-9.44-20.01-.25-42.68-5.23-62.82-1.55Z" style="fill:#4547ea"/><path d="M1059.57 1838.88c-31.88 45.05-48.94 109.53 4.75 145.93 13.01 8.82 42.52 22.73 57.73 17.31 7.83-2.79 17.27-13.84 25.81-15.44 22.85-4.28 46.66 9.99 58.38 28.96 5.47 8.86 12.18 21.22 4.97 30.54-23.18-3.72-35.71-6.94-57.62 4.77-5.91 3.16-16.63 13.7-20.16 14.38-10.7 2.07-33.55-3.33-45.07-5.71-43.25-8.94-95.1-28.57-123.83-63.32-49.16-59.46-6.59-146.71 25.94-203.49 1.96 3.37 4.7 6.18 7.81 8.52 13.67 10.27 37.11 26.49 51.82 34.56 3.14 1.72 5.6 3.44 9.47 2.99Z" class="cls-7"/><path d="M2057.71 1773.62c-50.5-22.51-93.61-53.37-138.81-84.81-8.97-6.24-17.44-13.3-25.69-20.46-61.03 17.27-123.53 22.34-186.78 16.96 1.69-16.35 6.06-32.35 20.48-41.9l105.9-44.76c2.56-21.16-27.56-19.44-35.92-35.46-1.93-3.7-6.63-21.26-1.22-21.77 33.01 18.55 81.45 29.55 107.54 57.5 5.95 6.37 12.87 20.56 16.81 24.46 2.5 2.47 28 14.95 33.35 17.52 34.65 16.68 83.51 33.89 121.62 38.66-12.32 29.87-20.47 61.56-17.28 94.06Z" class="cls-8"/><path d="M2089.75 1381.44c-2.54 2.32-8.33 4.09-11.84 4.49-32.13 3.6-72.64.74-105.69 1.79-160.29 5.09-321.54 11.77-481.52 13.69l-89.45 5.57c-.87-3.33 1.38-3.84 2.86-5.76 18.53-24.15 50.58-45.68 69.68-70.44l.39-139.73c1.68-12.88 9.01-22.07 22.25-23.82 8.7-1.15 21.1-1.41 30.56-2.07 173.32-12.01 350.38-18.21 524.08-24.89 20.35-.78 44.07-9.47 50.61 18.33-4.25 61.92 6.3 132.82.15 193.67-.74 7.37-6.76 24.32-12.09 29.18Zm-53.55-231.09c-95.62 2.15-191.23 10.13-286.49 14.87-74.01 3.68-148.83 3.94-222.82 9.44-15.57 1.16-35.63.69-37.4 20.19l.96 181.49c5.03 19.34 46.49 13.78 63.48 13.48 140.36-2.49 281.53-8.8 422.12-13.61 29.84-1.02 59.72 1.23 89.44-2.7 8.42-2.66 14.37-18.71 15.27-26.96l-.12-180.34c-6.37-21.67-26.77-16.26-44.43-15.86Z" class="cls-17"/><path d="m1568.23 1687.24 61.42 36.47c-37.99 80.41-138.15 138.93-226.5 105.57 14.95-40.47-27.67-128.48-47.99-165.08 38.3 34.09 94.36 81.02 149.45 67.87 20.59-4.91 50.83-28.04 63.61-44.84Z" class="cls-11"/><path d="m2698.82 1201.61 5.76-1.92c1.27.06 2.57-.07 3.84 0 1.64 3.11 6.52 1.81 9.6 1.92 2.9.63 5.32-.03 9.03 1.47 21.59 8.73 35.94 37.3 20.6 57.91-4.58 6.15-14.88 10.07-16.14 16.49-2.56 13.08 9.03 20.23 9.37 32.76.39 14.4-13.09 28.46-26.69 31.49-.63-2.38-11.05-12.29-14.01-13.82-28.33-14.63-38.65 19.17-51.25 36.85-7.19 10.1-51.33 72.79-57.01 74.47-3.33.99-10.31.76-14.01.39-9.67-.96-29.96-6.78-40.31-9.6-.27-.88-1.04-1.73-1.92-1.92-1.17-.25-2.81.3-3.84 0l-1.92-1.92c-1.05-.33-2.81.33-3.84 0l-1.92-1.92c-1.03-.34-2.81.34-3.84 0l-1.92-1.92c-1.02-.34-2.85.35-3.84 0l-1.92-1.92c-.96-.37-2.9.38-3.84 0l-1.92-1.92c-.93-.39-2.96.39-3.84 0l-1.92-1.92c-1.35-.66-2.39-1-3.84-1.92l69.1-69.1c5.71 6.6 11.29 13.77 19.2 17.28.21.9 1.04 1.82 1.92 1.92 2.15.23 5.55.25 7.68 0 1.5-.18 2.81-.81 3.84-1.92 8.26-2.27 11.89-6.08 16.94-12.81 17.14-22.84 29.68-55.06 45.57-79.32 1.65-6.07-6.83-23.69-10.68-28.81l4.76-7.71 33.63-34.52c.43.23 8.69 1.91 9.6 1.92Z" class="cls-9"/><path d="M1124.83 1773.62c-21.89 20.73-47.1 39.59-65.26 65.26-3.88.45-6.33-1.27-9.47-2.99-14.71-8.07-38.15-24.29-51.82-34.56-3.11-2.33-5.85-5.15-7.81-8.52 10.83-18.9 23.35-42.23 36.47-59.5 12.49-16.44 65.03-75.22 80.62-84.46 31.36-18.58 56.5-3.78 57.44 31.99.93 35.68-14.97 68.92-40.16 92.78Zm443.4-86.38c27.92-36.69 29.93-75.33 22.43-119.36-3.89-22.87-18.96-55.42-11.82-76.37 4.42-12.96 12.74-15.49 17.89-24.34 4.87-8.37 2.79-26.03 11.39-8.95 7.88 15.64 2.76 20.07-1.5 35.14 18.05-1.13 34.04-22.65 41.87-37.76 3.2-6.17 11.12-31.58 12.76-33.29 10.34-10.75 19.08 18.87 20.05 26.13 5.55 41.54-22.3 66.66-55.66 84.56 4.6 18.49 12.47 35.7 16.49 54.42 10.69 49.72 9.21 90.37-12.5 136.3l-61.42-36.47Zm-226.5-270.65c2.9 24.14-.52 51.37-24.95 63.34-3.16 1.55-9.64 2.78-13.44 3.84-1.47.41-3.14.04-3.84 1.92-6.32.48-12.87-.44-19.2 0-8.7-3.15-17.83-5.24-26.25-9.26-8.7-4.16-27.79-17.08-35.17-23.37-4.74-4.04-18.94-22.44-22.94-23.9-2.32-.85-7.13 1.39-10.63 1.03-20.64-2.13-48.15-16.92-39.46-41.53 4.28-12.12 13.45-14.45 25.56-11.93 5.74 1.19 9.22 6.6 14.82 7.22.9-11.61 3.41-23.19 5.77-34.54l149.72 67.18Z" class="cls-8"/><path d="m1051.89 1349.41-142.04 213.06c-42.44-78.89 17.29-199.97 109.41-211.15 3.16-.38 7.01-1.87 7.68-1.92 7.55-.57 17.31-.38 24.95 0Z" class="cls-15"/><path d="M2693.06 1380.12c1.62 34.1 8.09 67.87 11.52 101.73.64 6.31-.77 12.73 1.93 19.18-35.24 8.98-72.29 11.54-107.52 1-6.42-1.92-27.31-10.16-31.36-14.27-1.98-2-1.43-3.43-1.25-5.91.9-12.22 11.68-28.9 11.52-42.23 3.7.37 10.68.59 14.01-.39 5.68-1.68 49.82-64.37 57.01-74.47 2.26 4.08-1.69 8.06.94 13.45 1.19 2.44 9.9 7.43 12.82 8.28 10.67 3.13 21.45-.62 30.39-6.38Zm-107.49-166.99c21.4 11.5 51.49 10.52 65.26 28.79 3.85 5.11 12.34 22.73 10.68 28.81-15.89 24.26-28.43 56.48-45.57 79.32-5.05 6.73-8.69 10.54-16.94 12.81-1.46.4-3.09-.03-3.84 1.92-2.13.25-5.53.23-7.68 0-.52-.68-1.14-1.57-1.92-1.92-7.9-3.51-13.49-10.67-19.2-17.28-.44-.51-.43-3.13-1.87-4.77-6.86-7.85-20.08-25.01-30.76-25.94l49.91-101.73c.48.28 1.42-.27 1.92 0Z" class="cls-8"/><path d="M1293.75 1303.34c17.84 26.88 44.2 81.67 47.99 113.25l-149.72-67.18c1.56-7.51 2.78-15.21 4.1-22.77 30.55-5.46 66.5-12.01 89.01-34.8 1.33 4.85 6.25 7.93 8.63 11.51Z" class="cls-7"/><path d="M1430.03 2560.62c-1.13 4.94 2.41 16.5 1.99 24.06-1.28 23.08-23.17 45.7-32.7 66.16-44.37-5.93-74.84-13.32-117.09-24.95l36.47-38.39c37.76-6.13 74.36-17.51 111.33-26.87Z" class="cls-11"/><path d="M1316.78 1479.94c24.43 36.41 25.35 81.4-3.84 115.17-1.94-2.16-16.12-6.9-19.91-7.92-8.47-2.28-17.29-4.04-26.15-3.6 2.51-16.49.83-30.12 1.92-46.07.02-.3 1.83-2.16 2-4.65 1.04-15.19.23-30.87 3.68-45.94.87-2.41 3.87-1.1 5.84-1.24 6.33-.44 12.88.48 19.2 0 1.63-.12 3.32-.05 3.84-1.92 3.8-1.06 10.28-2.29 13.44-3.84Z" class="cls-6"/><path d="M2658.51 1142.1c10.52 16.35 1.85 24.58 6.76 36.43 2.9 6.99 11.37 6.62 15.42 9.53 2.46 1.77 6.38 10.45 8.53 11.63l-33.63 34.52-4.76 7.71c-13.77-18.28-43.86-17.29-65.26-28.79-.71-4.66 1.2-5.73 3.96-8.52 17.48-17.64 41.9-43.5 60.27-58.74 2.85-2.36 4.36-4.48 8.71-3.76Z" class="cls-15"/><path d="M2658.51 1142.1c-4.35-.72-5.86 1.4-8.71 3.76-18.37 15.24-42.79 41.1-60.27 58.74-2.76 2.79-4.67 3.86-3.96 8.52-.5-.27-1.44.28-1.92 0-28.13-16.28-31.6-37.45-13.09-63.96 21-30.07 65.67-41.71 87.95-7.07Z" class="cls-6"/><path d="M2942.6 1360.93c-6.71-20.4-15.13-41.41-23.03-61.42 8.77-3.51 11.9-10.66 21.98-13.53 63.5-18.1 69.62 86.83 1.05 74.95Z" class="cls-17"/><path d="M2533.74 1314.86c10.69.93 23.9 18.09 30.76 25.94 1.44 1.65 1.43 4.27 1.87 4.77l-69.1 69.1c-1.88-1.2-3.99-.2-6.68-3.84-6.86-9.28 1.26-25.45 4.73-35.55 3.74-10.89 17.89-47.13 24.1-54.59 3.89-4.67 8.27-6.36 14.32-5.84Z" class="cls-15"/><path d="M2714.18 1341.73c3.43 12.98-10.67 31.66-21.11 38.39-8.94 5.75-19.72 9.51-30.39 6.38-2.91-.85-11.63-5.84-12.82-8.28-2.63-5.39 1.32-9.37-.94-13.45 12.6-17.68 22.92-51.48 51.25-36.85 2.96 1.53 13.38 11.44 14.01 13.82Z" class="cls-11"/><path d="M2963.71 1272.63c17.4 2.19 36.94 22.8 39.85 39.81 6.22 36.25-21.5 63.7-57.13 61.93-1.41-4.49-2.51-9.4-3.84-13.44 68.57 11.87 62.45-93.06-1.05-74.95-10.08 2.87-13.21 10.02-21.98 13.53-1.77-4.47-3.92-8.96-5.76-13.44 9.76-1.92 16.52-10.47 26.76-12.59 6.18-1.28 16.94-1.63 23.14-.85Z" class="cls-7"/><path d="M1057.24 1150.36c7.26-.32 25.07-1.84 21.27 11.51-2.88 10.13-44.92 10.99-47.46-.02-2.81-12.13 17.51-11.11 26.19-11.49Zm-98.13-7.94c4.37-1.53 29.99 2.62 35.27 4.41 12 4.08 7.92 17.45-1.06 18.3-2.95.28-28.95-4.8-32.13-6.23-7.08-3.18-9.51-13.89-2.08-16.49Zm316.81-82.59c7-1.97 14.38 6.08 11.12 13.13-1.06 2.29-23.33 21.07-26.01 22.04-10.46 3.8-17.46-4.64-11.55-13.51.95-1.42 24.8-21.21 26.45-21.67Zm-387.73 55.72c3.93-1.15 33.07 10.29 36.16 13 4.81 4.22 3.73 13.27-2.43 15.11-6.71 2.01-36.76-10.22-38.64-16.34-1.32-4.31-.1-10.3 4.9-11.77Zm253.49 21.21c8.32-.96 14.44 2.37 11.63 11.67-2.21 7.31-51.53 22.06-45.01 1.29 2.05-6.52 26.3-12.15 33.38-12.96Zm70.98-30.72c9.83-2.49 15.87 6.34 10.19 14.13-2.7 3.7-27.26 16.33-31.83 16.33-8.09-.01-11.4-8.46-6.82-14.7.96-1.31 26.67-15.3 28.46-15.76ZM792.15 1345.9c4.59-.43 9.48 6.71 3.27 10.99-2.89 1.99-23.35 9.43-26.88 9.73-9.11.77-11.83-5.39-4.46-10.38 1.24-.84 26.59-10.21 28.08-10.35Zm117.01-115.27c17.85-5.94-.88 28.83-5.88 32.55-4.82 3.59-12.09 2.12-10.37-4.53.55-2.11 14.71-27.51 16.24-28.02Zm-166.31 132.21c-.49 2.75 1.49 8.13-1.24 9.7-4.51 2.58-46.95 8.94-36.33-5.99 1.23-1.73 36.25-5.08 37.57-3.7Zm137.63-84.14c21.2-6.2-7.41 28.11-14.2 30.09-5.55 1.62-10.16-1.29-7.3-7.36.73-1.56 19.97-22.28 21.5-22.73Zm46.38-65.83c-1.85 1.16-6.75-.14-9.35.26-1.66-1.61 4.55-29.17 6.27-33.09 2.85-6.53 8.93-6.75 10.73-.07.66 2.46-6.21 32-7.65 32.91Zm-80.37 105.84c6.17 6.11-20.67 24.13-26.03 24.95-7.74 1.18-11.65-3.27-5.38-9.35 3.48-3.38 27.69-19.28 31.41-15.59Z" class="cls-12"/><path d="M1040.37 2205.51c-3.17-4.18-3.14-11.24 0-15.36.03 4.21-.07 11.23 0 15.36Z" class="cls-6"/><path d="M2718.02 1201.61c-3.08-.11-7.96 1.19-9.6-1.92 5.07.28 5.91 1.11 9.6 1.92Z" class="cls-15"/><path d="M1026.93 1349.41c-.66.05-4.52 1.54-7.68 1.92l7.68-1.92Z" class="cls-6"/><path d="m2704.58 1199.69-5.76 1.92c.3 0 1.17-2.14 5.76-1.92Z" class="cls-15"/><path d="M2508.79 1420.43c-1.44-.57-1.79-1.87-1.92-1.92l1.92 1.92Zm-5.76-1.92c-1.41-.63-1.8-1.86-1.92-1.92l1.92 1.92Zm23.04 7.68c-1.44-.46-1.79-1.88-1.92-1.92l1.92 1.92Zm5.75 1.92c-1.43-.42-1.79-1.88-1.92-1.92l1.92 1.92Zm5.76 1.92c-.84-.23-1.55-1.12-1.92-1.92.88.19 1.65 1.04 1.92 1.92Zm-17.27-5.76c-1.44-.47-1.79-1.88-1.92-1.92l1.92 1.92Zm-5.76-1.92c-1.44-.52-1.79-1.87-1.92-1.92l1.92 1.92Z" class="cls-6"/><path d="m1318.7 2587.49-36.47 38.39c-4.14-1.14-12.69-.56-17.28-1.92-4.34-1.28-10.13-4.09-15.36-5.76v-23.03c22.35-1.61 47.04-4.1 69.1-7.68Z" class="cls-13"/><path d="M1249.6 2595.17v23.03c-17.92-5.72-37.55-11.58-53.75-21.11 15.41 1.93 37.72-.77 53.75-1.92Z" class="cls-8"/><path d="M2860.06 1986.69c-11.13 33.33-46.45 82.55-72.91 106.57-2.38 2.16-3.92 4.8-7.71 4.76 6.25-109.98 24.38-215.14 55.69-320.56 3.5 1.09 4.63 5.35 6.08 8.29 28.76 57.99 39.56 138.92 18.85 200.93Z" class="cls-13"/><path d="M2934.92 2038.51c-21.81 27.88-45.13 49.81-71.02 72.94v-119.01c.85.73 5.66 2.02 8.31 4.15 19.8 15.92 40.25 29.93 62.71 41.92Z" class="cls-7"/><path d="M2729.53 896.41c-17.5-21.25-35.11-43.1-53.75-63.34 17.76-44.12-31.74-91.52-74.86-72.94-20.21-16.99-48.94-38.51-71.02-53.75 11.79-5.14 19.73-13.37 31.95-18.92 124.24-56.38 247.1 81.52 177.6 198.71-2.31 3.89-4.54 10-9.92 10.24Z" class="cls-17"/><path d="M2675.79 833.06c-3.9-4.23-8.74-10.55-11.52-13.44 2.65-4.8-.15-15.46-1.79-20.28-5.95-17.43-29.6-34.05-48.12-27.71-3.92-3.43-9.22-7.97-13.44-11.52 43.12-18.58 92.62 28.82 74.86 72.94Z" class="cls-7"/><path d="M2664.27 819.63c-14.21-14.76-34.63-34.59-49.91-47.99 18.52-6.35 42.16 10.28 48.12 27.71 1.65 4.82 4.44 15.48 1.79 20.28Z" class="cls-17"/><path d="M1377.72 720.12c13.23-2.46 19.07 29.2 6.79 32.04-11.7 2.71-20.95-29.41-6.79-32.04Z" class="cls-12"/><path d="M1036.03 770.18c67.28-12.65 78.28 82.85 18.24 91.17-61.47 8.52-70.06-81.43-18.24-91.17Zm-337.82 339.74c41.68-6.58 48.67 58.15 6.73 60.51-37.26 2.1-42.7-54.83-6.73-60.51Z" class="cls-2"/><path d="M1124.83 1773.62c6.14 26.31 11.25 53.2 15.04 79.98 6.15 43.5 11.1 89.34 8 133.09-8.55 1.6-17.98 12.65-25.81 15.44-15.21 5.42-44.72-8.49-57.73-17.31-53.69-36.4-36.63-100.88-4.75-145.93 18.17-25.68 43.37-44.53 65.26-65.26Z" class="cls-13"/><path d="M1268.79 1537.52c-1.09 15.94.59 29.58-1.92 46.07-.42 2.73.98 6.8-.43 9.17s-20.11 12.07-24 13.43c-19.55 6.87-41.99 5.56-61.76.25-.61-.73-.41-9.21-.19-11.34.8-7.56 4.18-17.21 5.76-24.95l82.54-32.63Z" class="cls-1"/><path d="M1280.31 1485.7c-1.97.14-4.97-1.17-5.84 1.24-3.45 15.07-2.63 30.75-3.68 45.94-.17 2.48-1.98 4.34-2 4.65l-82.54 32.63c8.14-39.85 20.53-78.36 32.63-117.09 7.38 6.3 26.47 19.21 35.17 23.37 8.42 4.02 17.55 6.11 26.25 9.26Z" class="cls-11"/><path d="M1892.12 791.28c20.14-3.67 42.81 1.3 62.82 1.55 168.08 2.09 337.34 2.76 504.99 9.44 9.19.37 32.11 1.01 39.33 2.9 12.13 3.17 17.96 15.38 19.12 26.95 5.21 52.05-3.9 112.2.09 165.12-3.51 40.88-39.5 28.69-68.13 27.69-158.19-5.56-316.13-14.59-474.12-23.03-21.87-1.17-45.58-.23-67.34-1.76-17.17-1.21-34.36-3.89-37.39-24.03 3.86-51.74-4.98-110.49-.05-161.38 1.15-11.89 8.42-21.21 20.7-23.45Z" class="cls-12"/><path d="M2036.2 1150.35c17.66-.4 38.06-5.81 44.43 15.86l.12 180.34c-.89 8.25-6.85 24.3-15.27 26.96-29.72 3.93-59.6 1.68-89.44 2.7-140.59 4.81-281.76 11.12-422.12 13.61-17 .3-58.45 5.86-63.48-13.48l-.96-181.49c1.76-19.5 21.82-19.03 37.4-20.19 73.99-5.5 148.81-5.76 222.82-9.44 95.26-4.74 190.88-12.72 286.49-14.87Z" class="cls-7"/><path d="M2599.01 1362.85c-1.03 1.11-2.33 1.74-3.84 1.92.75-1.95 2.38-1.52 3.84-1.92Zm-11.52 1.92c-.88-.1-1.71-1.02-1.92-1.92.78.35 1.4 1.24 1.92 1.92Z" class="cls-6"/><path d="M1303.34 1483.78c-.52 1.87-2.21 1.8-3.84 1.92.7-1.88 2.37-1.51 3.84-1.92Z" class="cls-11"/></svg>