<svg xmlns="http://www.w3.org/2000/svg" id="Livello_1" version="1.1" viewBox="0 0 1366 768"><defs><style>.st0{font-family:Inter-Regular,Inter;font-size:20px}.st1{fill:#fff}.st2{font-family:Inter-Bold,Inter;font-size:30px;font-weight:700}</style></defs><path d="m1172.77 436.75 9.25 3.88c3.29-1.23 8.85-7.99 11.95-7.7 1.33.12 8.88 7.27 9.62 8.51 3.14 5.28-7.37 10.71-6.6 14.6l4.19 9 13.9 2.84c2.19 18.81.21 13.91-12.65 17.49-2.82.79-4.22 7.75-5.47 10.64l7.54 11.42c-.04 1.24-7.22 8.8-8.42 9.52-5.39 3.21-9.4-5.58-14.6-6.6l-9.46 4.53-2.41 13.58-14.42.3-1.47-1.53c-.62-3.53-.62-8.04-1.62-11.39-.54-1.8-8.94-5.64-10.03-5.57-2.42.14-8.59 8.02-11.95 7.7-1.3-.12-9.52-7.86-10.08-9.08-2.05-4.52 7.77-10.48 7.06-14.03l-4.19-9-13.44-3.31c-3.16-12.38-1.11-17.49 12.43-16.74 1.32-.41 5.46-9.8 5.21-10.92-.7-3.13-8.39-8.45-7.42-12.19.17-.67 8.11-8.84 8.88-9.2 4.71-2.2 9.31 6.19 14.02 7.06l9.46-4.53 2.41-13.58c.92-.66 11.85-.76 13.57-.44 4.5.85 2.35 11.42 4.72 14.76Zm-4.28-12.7h-12.89l-2.57 13.9c-.5.58-8.53 4.12-9.7 4.36-4.73.99-10.78-8.41-13.74-6.9l-7.95 8.2 7.88 11.84c.02.57-4.07 9.89-4.51 10.44-2.71 3.44-10.65 1.21-14.49 3.63l.07 12.4 13.96 2.53c1.09 3.43 5.72 9.26 4.53 12.39-.9 2.37-7.2 8.43-7.43 9.7l8.55 9.24 11.83-7.9c3.71 3.2 11.19 2.75 12.29 7.73.39 1.75.45 11.1 1.8 11.33l12.4-.07 2.08-13.4c3.6-2.27 8.89-5.46 13.16-4.34 2.94.77 8.22 7.6 10.72 6.33l7.95-8.2-7.88-11.84c2.38-4.31 2.79-10.75 7.89-12.06 1.81-.47 10.92-.88 11.11-2.01l-.07-12.4-13.41-2.08c-1.64-2.97-6.17-9.97-5.08-12.84.9-2.37 7.2-8.43 7.43-9.7l-8.55-9.24-11.84 7.53c-12.35-3.4-12.87-6.15-13.55-18.57Z"/><path d="M1196.52 406.01v-3.5l4 7.5h-8.98c.28-2.22 6.4.14 3-2.49-4.12-3.18-20.05-7.03-25.5-7.47-58.17-4.74-97.31 55-72.42 106.85l1-3.99c3.19 1.03.17 5.16.98 7.99l-6.5-2.99 3.5-.5c-33.87-64.37 35.87-134.12 100.93-101.39Zm36.98 38.95-3.99-.5c31.22 63.77-36.53 132.84-100.46 100.4l.52 3.97h-1.98l-3.02-6.46 7.5-1.53-2.49 2.99c58.22 27.43 121.64-27.19 102.21-88.67-1-3.18-2.66-8.36-5.27-10.2l-1 3.99v-8.98l7.98 4.98Zm-126.19 71.12c10.19-2.26 17.42 12.35 7.19 18.2-13.52 7.72-20.57-15.22-7.19-18.2Zm1.01 1.96c-13.82 2.5-1.97 24.04 7.27 12.35 4.69-5.93-1.38-13.41-7.27-12.35Zm104.96-102.85c9.1-1.11 15.02 11.22 7.28 17.34-13.56 10.72-23.72-15.33-7.28-17.34Zm-4.48 15.52c6.54 6.53 18.33-3.05 11.29-10.78s-18.16 3.91-11.29 10.78Z"/><path d="M1168.49 424.05c.68 12.42 1.21 15.17 13.55 18.57l11.84-7.53 8.55 9.24c-.22 1.27-6.53 7.33-7.43 9.7-1.09 2.88 3.44 9.88 5.08 12.84l13.41 2.08.07 12.4c-.2 1.13-9.3 1.55-11.11 2.01-5.1 1.31-5.5 7.75-7.89 12.06l7.88 11.84-7.95 8.2c-2.5 1.27-7.78-5.56-10.72-6.33-4.27-1.12-9.57 2.07-13.16 4.34l-2.08 13.4-12.4.07c-1.35-.23-1.41-9.58-1.8-11.33-1.1-4.97-8.58-4.53-12.29-7.73l-11.83 7.9-8.55-9.24c.22-1.27 6.53-7.33 7.43-9.7 1.19-3.14-3.45-8.97-4.53-12.39l-13.96-2.53-.07-12.4c3.84-2.42 11.78-.19 14.49-3.63.44-.55 4.53-9.87 4.51-10.44l-7.88-11.84 7.95-8.2c2.96-1.5 9.01 7.89 13.74 6.9 1.16-.24 9.2-3.78 9.7-4.36l2.57-13.9h12.89Zm-10.18 24.18c-35.31 4.84-27.92 59.49 7.65 54.58 34.3-4.74 28.38-59.52-7.65-54.58Zm-49.99 69.81c5.88-1.06 11.95 6.42 7.27 12.35-9.23 11.69-21.09-9.85-7.27-12.35Zm100.48-87.33c-6.88-6.87 3.95-18.85 11.29-10.78s-4.75 17.32-11.29 10.78Z" class="st1"/><path d="M1158.31 448.23c36.03-4.94 41.95 49.84 7.65 54.58-35.57 4.91-42.96-49.74-7.65-54.58Zm10.24 51.67c22.73-6.19 25.29-38.79 3.28-47.73-32.66-13.26-50.32 37.26-16.29 47.73-.47-3.66.81-8.91-.19-12.28-.52-1.77-3.47-3.38-4.64-5.35-4.7-7.88-.41-18.27 8.84-19.32v11.99h5.01v-11.99c9.23 1.05 13.55 11.43 8.84 19.32-1.17 1.97-4.12 3.58-4.64 5.35-1 3.37.28 8.62-.19 12.28Zm-11-14.98c.4.63 0 12.64 0 14.98 3.27 1.19 5.72 1.19 8.99 0v-14.98c0-.2 2.17-.38 3.55-1.93 5.84-6.58 3.39-13.65-3.54-18.05-.68 3.52 1.99 11.12-2.51 11.99-9.25 1.8-6.04-5.78-6.5-11.99-6.28 4.24-9.65 10.99-4 17.5 1.58 1.82 3.89 2.28 4.01 2.48Z"/><path d="M1168.55 499.9c.47-3.66-.81-8.91.19-12.28.52-1.77 3.47-3.38 4.64-5.35 4.71-7.9.39-18.28-8.84-19.32v11.99h-5.01v-11.99c-9.25 1.05-13.54 11.44-8.84 19.32 1.17 1.97 4.12 3.58 4.64 5.35 1 3.37-.28 8.62.19 12.28-34.03-10.47-16.37-61 16.29-47.73 22.02 8.94 19.46 41.54-3.28 47.73Z" class="st1"/><path d="M1157.55 484.92c-.13-.2-2.43-.66-4.01-2.48-5.65-6.51-2.28-13.26 4-17.5.46 6.22-2.75 13.79 6.5 11.99 4.5-.88 1.83-8.47 2.51-11.99 6.92 4.4 9.37 11.47 3.54 18.05-1.37 1.55-3.55 1.72-3.55 1.93v14.98c-3.27 1.19-5.72 1.19-8.99 0 0-2.34.4-14.35 0-14.98Z" class="st1"/><path d="M897.33 484.56c-1.85 4.08-1.07 4.04-1.86 8.59-1.44 8.27-6.44 8.7-14.25 7.77-10.1-1.2-4.9-8.44-6.67-14.3-.55-1.82-3.09-2.6-3.6-4.39-.57-1.98.22-4.15-.71-6.28-1.24-2.83-13.72-13.04-16.89-17.08-13.31-16.89-10.73-37.57 5.4-51.37 35.33-30.21 90.8 15.64 53.49 56.46-3.1 3.39-10.79 8.47-12.38 11.59-1.47 2.88-.98 5.59-2.52 9.01Zm-7.59-28.6v27.97l6.85-1.14c-1.11-10.41 8.12-13.7 14.1-20.36 38.91-43.26-27.54-86.6-56.76-46.75-13.71 18.71-6.66 33.79 7.17 48.92 2.56 2.8 7.95 5.9 10.1 9.38 2.66 4.31.7 14.26 9.46 8.32-1.81-8.71-.92-17.64.08-26.34-3.5.08-6.72.5-9.52-1.98-10.49-9.3 13.89-19.28 10.51-.02h6.01c.67-.66-2.21-9.71 4.53-10.98 12.6-2.37 10.83 16.56-2.53 12.97Zm-16.32-10.86c-9.55 10.64 15.89 13.29 3.63.04l-3.63-.04Zm24.07 7.62c6.69-6.67-10.44-14.02-7.75 1.24l7.75-1.24Zm-9.75 3.24h-6v26.47c0 1.98 6 1.98 6 0v-26.47Zm4.99 29.96h-15.99l.94 11.55h14.12l.94-11.55Zm69.85-8.88c1.42 4.11-.19 8.03 3.73 10.74 6.2 4.27 7.26-1.55 12.86-3.52 1.36 0 5.87 3.94 6.55 5.11 3.71 6.38-4.21 7.63-3.81 11.86.8 8.6 6.55 5.19 11.86 8.07 1.25 1.58 1.28 7.01.9 9.09-.97 5.22-8.58 2.2-10.5 4.48-.37.45-2.36 5.73-2.28 6.32.33 2.36 5.27 5.13 4.84 8.11-7.45 14.58-12.25 2.51-16.36 2.75-.55.03-5.99 2.41-6.22 2.75-1.32 2.01.58 7.43-2.44 9.55-15.2 4.72-9.76-7.27-12.99-10.01-.43-.37-5.74-2.36-6.33-2.28-2.36.33-5.13 5.27-8.12 4.84-2.94-1.46-8.39-5.78-7.4-9.32 1.18-4.24 8.12-5.42 1.89-13.25l-9.57-2.42c-4.68-15.37 7.39-9.98 10.29-13.27.23-.26 2.08-5.59 2.04-6.09-.23-2.76-5.24-5.12-4.82-9.11.34-3.25 5.77-7.19 9.26-6.32 5.19 1.29 4.89 7.9 13.58 1.63l2.13-9.36 10.93-.35Zm-2.03 2.03-7.92.3-2.16 9.32-7.52 3.09-8.74-5.81-5.34 5.6c-.49 2.51 4.64 5.51 4.84 8.92.07 1.21-1.83 6.56-2.53 7.38-2.03 2.41-10.05 1.73-10.5 3.69l.15 7.23c11.79-.24 17.09 9.48 7.97 17.73l5.55 6.28c5.53-3.84 8.68-7.16 15.29-2.37 3.8 2.76.65 7.35 3.72 10.46l7.4-.47c1.6-7.19.38-10.6 8.91-12.18 5.29-.98 7 5.94 10.98 4.15 9.12-4.09-.69-9.92-1.01-13.05-.19-1.82 3.1-8.75 4.69-9.29s7.89.27 8.37-1.83l-.03-8.33c-2.24 0-8.2.14-9.76-1.23-.31-.27-3.02-6.99-3.09-7.51-.69-4.91 11.1-8.81-.63-14.24l-7.98 4.99-7.85-2.91-2.82-9.92ZM939.7 430l-2.99 2.97c15.67 3.19 23.05 16.64 20.99 31.97l2.98-2.99-3.01 6.98-2-.56c-1.01-4.77.68-9.47-.21-14.68-1.36-7.96-9.2-17.36-17.74-17.71l1.5 2.98-6.49-4.01.62-2.06 6.37-2.9Zm-31.98 97.86-2.99-2.98c12.7 4.35 6.21 6.9-3.25 4.73-8.55-1.97-15.44-7.8-16.75-16.72l-3.98 3c-.53-.63 3.21-9.51 5.48-6.99s.22 4.56.91 7c2.03 7.25 13.37 12.92 20.58 11.97Z"/><path d="M889.74 455.96c13.36 3.59 15.13-15.34 2.53-12.97-6.74 1.27-3.86 10.32-4.53 10.98h-6.01c3.38-19.26-21-9.28-10.51.02 2.8 2.48 6.02 2.06 9.52 1.98-1 8.7-1.89 17.63-.08 26.34-8.76 5.94-6.8-4.01-9.46-8.32-2.15-3.48-7.54-6.58-10.1-9.38-13.84-15.13-20.89-30.21-7.17-48.92 29.22-39.86 95.67 3.49 56.76 46.75-5.99 6.65-15.22 9.94-14.1 20.36l-6.85 1.14v-27.97Zm2.99 29.96-.93 11.55h-14.12l-.93-11.55h15.98z" class="st1"/><path d="M887.74 455.96v26.47c0 1.98-6 1.98-6 0v-26.47h6Zm9.75-3.24-7.75 1.24c-2.69-15.27 14.44-7.91 7.75-1.24Zm-24.07-7.62 3.63.04c12.26 13.26-13.18 10.61-3.63-.04Zm87.13 33.97 2.82 9.92 7.85 2.91 7.98-4.99c11.73 5.43-.06 9.33.63 14.24.07.51 2.79 7.24 3.09 7.51 1.56 1.37 7.52 1.23 9.76 1.23l.03 8.33c-.48 2.1-6.72 1.27-8.37 1.83s-4.88 7.47-4.69 9.29c.32 3.13 10.13 8.97 1.01 13.05-3.98 1.78-5.69-5.13-10.98-4.15-8.53 1.58-7.31 4.99-8.91 12.18l-7.4.47c-3.08-3.12.08-7.71-3.72-10.46-6.61-4.79-9.76-1.48-15.29 2.37l-5.55-6.28c9.12-8.25 3.82-17.97-7.97-17.73l-.15-7.23c.45-1.96 8.47-1.28 10.5-3.69.7-.82 2.6-6.17 2.53-7.38-.2-3.41-5.33-6.41-4.84-8.92l5.34-5.6 8.74 5.81 7.52-3.09 2.16-9.32 7.92-.3Zm-7.13 20.07c-22.49 4.04-11.42 41.81 11.31 29.28 15.49-8.54 6.86-32.54-11.31-29.28Z" class="st1"/><path d="M953.42 499.14c18.17-3.26 26.8 20.74 11.31 29.28-22.73 12.53-33.8-25.24-11.31-29.28Zm1.03 1.98c-17.3 2.5-14.09 28.96 3.62 27.71 17.91-1.27 15.8-30.51-3.62-27.71Z"/><path d="M954.45 501.12c19.43-2.8 21.54 26.44 3.62 27.71-17.71 1.26-20.92-25.21-3.62-27.71Z" class="st1"/><path d="M438.21 398.02v8.99l11-.01v4h29.97v50.94c6.66-3.54 24.69-27.3 29.69-28.79s16.85 10.14 12.33 15.37l-42.02 41.89v62.43H373.25V411.01h28.98v-4l10.9-.08.2-7.24 1.39-1.66h23.48Zm-2 2h-19.99l-.99 9h-11V419h42.97v-9.99l-10.06-.43-.94-8.55Zm-33.98 12.99h-27.98v137.84h102.93v-57.93c-7.19 4.25-4.93 6.47-4.95 12.45-.04 12.89.07 25.68-1.05 38.49h-90.94V420.01h21.98v-6.99Zm74.95 0H449.2V420h21.49c1.43.88 1.38 1.99 1.55 3.45 1.57 13.36-1.77 30.49-.44 43.56.06.64.32 2.18.89 1.93.65-.92 4.5-4.1 4.5-4.49v-51.44Zm-7.99 8.99h-86.94v119.86h87.94v-39.45l-2-1.01c-5.66 3.93-13.67 16.07-19.06 18.92-4.58 2.43-12.94 3.5-17.85 6.17l-2.07-1.12 6.98-19.97 33.09-33.93c2.65-16.46-.82-32.95-.1-49.46Zm40.67 13.09c-1.29.34-2.59 2.47-3.67 3.39 2.93 1.94 11.67 15.36 13.82 7.77.95-3.36-7.7-11.8-10.15-11.16Zm-6.06 5.96c-1.42 1.17-4.28 2.82-3.2 4.91.28.54 8.03 8.28 8.58 8.53 2.93 1.35 4.12-1.23 5.94-3.03l-11.32-10.41Zm-5.99 5.99-59.58 59.36 3.99 4.05 59.51-58.5c1.29-1.6-2.56-5.15-3.92-4.91Zm-28.27 49.22c12.69-12.45 25.91-24.41 38.16-37.33 1.39-1.76-.97-4.75-2.55-5.53-3.74-1.85-52.75 52.96-59.51 58.5-1.11 2.09 1.83 3.77 3.2 4.91 7.51-5.6 13.87-13.86 20.69-20.55Zm-33.32 13.63c-3.09 7.42 3.16 14.4 9.97 8.49l-9.97-8.49Z"/><path d="M469.19 422c-.72 16.5 2.75 33 .1 49.46l-33.09 33.93-6.98 19.97 2.07 1.12c4.91-2.66 13.27-3.74 17.85-6.17 5.38-2.85 13.4-14.99 19.06-18.92l2 1.01v39.45h-87.94V421.99h86.94Zm-51.97 8.99h-26.48l-1.5 1.5v25.97c0 2.52 5.88.49 7.45.45 4.64-.12 9.43-.1 14.07 0 2.54.05 4.84 2.02 6.45-.45v-27.47Zm0 36.95h-27.98v27.97h27.98v-27.97Zm0 36.96h-27.98v27.97h27.98V504.9Z" class="st1"/><path d="M402.23 413.01V420h-21.98v123.85h90.94c1.12-12.82 1-25.61 1.05-38.49.02-5.97-2.24-8.19 4.95-12.45v57.93H374.26V413h27.98Z" class="st1"/><path d="m436.21 400.02.94 8.56 10.06.43-.01 9.99h-42.97v-9.99l11 .01.99-9h19.99zm33.33 96.24c-6.82 6.69-13.19 14.95-20.69 20.55-1.37-1.14-4.31-2.82-3.2-4.91 6.76-5.54 55.76-60.34 59.51-58.5 1.58.78 3.94 3.77 2.55 5.53-12.25 12.91-25.47 24.88-38.16 37.33Zm28.27-49.22c1.36-.24 5.21 3.31 3.92 4.91l-59.51 58.5-3.99-4.05 59.58-59.36Zm-20.63-34.03v51.44c0 .39-3.85 3.57-4.5 4.49-.56.25-.82-1.29-.89-1.93-1.33-13.07 2.01-30.2.44-43.56-.17-1.45-.12-2.57-1.55-3.45h-21.49v-6.99h27.98Zm26.62 28.04 11.32 10.41c-1.83 1.8-3.01 4.38-5.94 3.03-.55-.25-8.3-7.99-8.58-8.53-1.08-2.09 1.77-3.73 3.2-4.91Zm6.06-5.96c2.44-.64 11.1 7.8 10.15 11.16-2.14 7.59-10.89-5.83-13.82-7.77 1.07-.92 2.38-3.05 3.67-3.39Zm-73.64 74.8 9.97 8.49c-6.81 5.91-13.06-1.07-9.97-8.49Z" class="st1"/><path d="M417.22 430.99v27.47c-1.61 2.47-3.91.51-6.45.45-4.65-.1-9.43-.12-14.07 0-1.58.04-7.45 2.07-7.45-.45v-25.97l1.5-1.5h26.48Zm-1.99 1.99h-23.98v23.97c7.81 1.09 15.97-.65 23.98 0v-23.97Zm1.99 34.96v27.97h-27.98v-27.97h27.98Zm-1.99 2h-23.98v23.97h23.98v-23.97Zm1.99 34.96v27.97h-27.98V504.9h27.98Zm-1.99 2h-23.98v23.97h23.98V506.9Z"/><path d="M415.23 432.98v23.97c-8.01-.65-16.17 1.09-23.98 0v-23.97h23.98Zm-23.99 36.96h23.98v23.97h-23.98zm23.99 36.96v23.97h-23.98V506.9h23.98Zm-5 5c-2.32-.14-2.13-.57-3.27 1.24-1.68 2.67-3.2 6.8-4.75 9.73l-4.97-2.98c-.74.74 3.38 7.66 5.95 5.96l7.04-13.95Z" class="st1"/><path d="m410.23 511.9-7.04 13.95c-2.57 1.7-6.69-5.22-5.95-5.96l4.97 2.98c1.55-2.92 3.07-7.05 4.75-9.73 1.14-1.82.94-1.39 3.27-1.24Zm237.67-84.91-5.59-1.9c-6.27-9.58 5.5-6.93 6.21-11.04.55-3.21-3.72-4.4-2.14-8 2.84-6.45 8.32.1 11.89-1.14 3.39-1.18-1.21-6.98 6.12-6.98s2.74 5.8 6.12 6.98c3.57 1.24 9.06-5.31 11.89 1.14 1.61 3.67-2.89 5.01-2.14 7.96 1.23 4.82 12.24 1.12 6.21 11.07l-5.59 1.9h49.97v106.87l7.98.02c-.2 9.46 2.72 17.91-9.43 19.02l-131.89-.12c-10.36-1.84-7.16-10.99-7.56-18.92h8V426.98h49.97Zm18.98-26.97h-5c.6 3.96-.74 7.04-4.98 7.62-3.13.43-4.47-3.41-7-2.17l-1.81 2.04c8.79 9.94-5.01 11.18-5.24 12.02-1.66 6.12 5.29 2.67 7.13 6.86 1.62 3.7 1.08 5.7-2.08 8.09l2.63 2.34c5.63-3.97 12.2-2.73 11.35 5.16 7.05 1.14 2.89-5.94 10-7.6 2.95-.69 4.38 3.46 6.97 2.15 4.09-2.08-.29-3.26-.84-5.26-2.64-9.66 10.79-4.98 7.17-12.25-12.38-.17-4.33-11.08-4.75-12.01-2.06-4.46-5.52.5-7.23.8-3.27.57-7.95-4.07-6.32-7.79Zm-17.99 28.97h-48.97v103.88h6v-94.39c0-.54 1.54-2.22 1-3.5h38.97l3-5.99Zm79.95 0h-48.97l3 5.99h38.47l1.5 1.5v96.39h6V428.99Zm-8 7.99c-11.49 1.04-25.31-1.4-36.5-.02-3.32.41-5.56 3.04-6.99 3.04-1.76 0-5.24-5.72-7.98-1.02-1.77 3.04 1.57 6.07-5 6.07-7.65 0-1.67-6.28-8.18-7.93-6.39 5.62-5.73.47-10.75-.21-10.95-1.48-25.2 1.21-36.53.06v95.89h110.92c-.55-1.27 1-2.96 1-3.5v-92.39Zm16.99 98.88h-45.97c-1.05 5.34-4.5 9.4-9.94 10.54-5.72 1.2-30.39 1.17-35.85-.24-6.02-1.55-7.18-5.46-9.85-10.34-11.59-.25-23.26.45-34.85.08-2.75-.09-10.39.1-10.39.1s.72 13.05 4.87 14.4l137.72-.3c4.16-1.93 4.55-10.18 4.23-14.25Zm-48.96 0H639.9c-.21 3.58 3.15 7.37 6.55 7.93 4.94.82 32.15.82 36.68-.21 2.88-.65 6.03-4.58 5.74-7.72Z"/><path d="M720.84 436.98v92.39c0 .54-1.54 2.22-1 3.5H608.92v-95.89c11.33 1.16 25.58-1.54 36.53-.06 5.02.68 4.36 5.83 10.75.21 6.52 1.65.53 7.93 8.18 7.93 6.57 0 3.23-3.03 5-6.07 2.74-4.7 6.22 1.02 7.98 1.02 1.43 0 3.67-2.64 6.99-3.04 11.19-1.37 25.01 1.07 36.5.02Zm-77.21 35.2c-14.82 2.67-14.06 26.37 1.76 27.78 21.32 1.89 20.45-31.78-1.76-27.78Zm34.97-.01c-17.2 3.08-12.65 31.4 6.54 27.5 16.77-3.4 12.96-30.99-6.54-27.5Zm59.23 63.69c.32 4.06-.08 12.32-4.23 14.25l-137.72.3c-4.16-1.35-3.87-14.4-3.87-14.4l9.39-.1s23.26-.33 34.85-.08c2.66 4.88 3.83 8.79 9.85 10.34 5.46 1.41 30.13 1.44 35.85.24s8.88-5.21 9.94-10.54h45.97Z" class="st1"/><path d="m648.89 428.99-3 5.99h-38.97c.55 1.27-1 2.96-1 3.5v94.39h-6V428.99h48.97Zm79.95 0v103.88h-6v-96.39l-1.5-1.5h-38.47l-3-5.99h48.97z" class="st1"/><path d="M666.88 400.02c-1.63 3.72 3.05 8.35 6.32 7.79 1.71-.3 5.17-5.26 7.23-.8.43.93-7.63 11.84 4.75 12.01 3.62 7.27-9.81 2.59-7.17 12.25.55 2 4.93 3.18.84 5.26-2.59 1.32-4.02-2.84-6.97-2.15-7.11 1.66-2.95 8.74-10 7.6.85-7.89-5.72-9.13-11.35-5.16l-2.63-2.34c3.16-2.39 3.7-4.39 2.08-8.09-1.84-4.19-8.79-.74-7.13-6.86.23-.84 14.03-2.08 5.24-12.02l1.81-2.04c2.53-1.24 3.87 2.61 7 2.17 4.24-.58 5.58-3.66 4.98-7.62h5Zm4.65 28.62c10.16-10.4-7.53-25.94-15.49-12.99-6.88 11.19 7.89 20.77 15.49 12.99Zm17.34 107.22c.29 3.15-2.86 7.07-5.74 7.72-4.53 1.02-31.74 1.02-36.68.21-3.4-.56-6.76-4.35-6.55-7.93h48.97Z" class="st1"/><path d="M643.63 472.18c22.22-4.01 23.08 29.67 1.76 27.78-15.82-1.41-16.59-25.1-1.76-27.78Zm11.92 22.39c11.44-11.44-6.45-28.67-17.31-17.3-10.78 11.29 6.14 28.47 17.31 17.3Z"/><path d="M678.6 472.17c19.5-3.49 23.31 24.1 6.54 27.5-19.19 3.89-23.73-24.42-6.54-27.5Zm11.93 5.1c-10.86-11.37-28.89 5.73-17.31 17.3s28.09-6.01 17.31-17.3Zm-19-48.63c-7.6 7.78-22.36-1.8-15.49-12.99 7.96-12.95 25.65 2.59 15.49 12.99Zm-7.15-15.19c-10.46 0-9.6 15.59 0 15.59s10.46-15.59 0-15.59Z"/><path d="M655.55 494.57c-11.17 11.17-28.09-6.01-17.31-17.3 10.86-11.37 28.76 5.87 17.31 17.3Zm-1.66-15.64c-1.42-1.77-2.21 1.34-2.59 1.87-1.9 2.73-4 6.1-5.42 9.1h-1.45c-8.83-8.55-2.1 4.54 1.49 2.57 1.39-1.95 9.29-11.91 7.97-13.55Zm36.64-1.66c10.78 11.29-6.14 28.47-17.31 17.3s6.45-28.67 17.31-17.3Zm-3.67 1.66-5.48 3.99-4.5-3.99c-.22 2.95 3.28 4.44 3.03 7.42-.19 2.24-3.85 4.5-3.02 7.56l4.5-4.99 5.48 3.99c.22-2.94-3.27-4.44-3.02-7.41.19-2.3 3.38-3.95 3.02-6.56Zm-22.48-65.48c10.46 0 9.6 15.59 0 15.59s-10.46-15.59 0-15.59Z" class="st1"/><path d="M653.89 478.93c1.32 1.64-6.58 11.6-7.97 13.55-3.59 1.96-12.92-14.48-1.49-2.59l.57.1c2-2 4.4-6.47 6.3-9.19.37-.54 1.16-3.64 2.59-1.87Zm32.97 0c.36 2.61-2.83 4.26-3.02 6.56-.25 2.97 3.24 4.47 3.02 7.41l-5.48-3.99-4.5 4.99c-.83-3.06 2.83-5.32 3.02-7.56.25-2.97-3.25-4.47-3.03-7.42l4.5 3.99 5.48-3.99Zm-544.45-70.42c2.7-3.05 5.45-2.67 8.99-1.5l.58-9c19.64.08 39.29-.01 58.94-.04h7.89c19.51.03 39.03.11 58.52.06v8l8.88 1.1.06 126.3c.61 4.59 12.14 11.74 4.04 17.92-8.67 6.61-15.55-7.48-17.48-7.48H143.92l-1.5-1.5V408.53Zm70.96 124.36c2.02-8.37-4.21-10.67-7.81-16.66-7.27-12.08-7.17-27.16.62-38.97 1.33-2.01 7.19-7.26 7.19-7.79v-67.92l-1.5-1.5h-58.46v132.84h59.96Zm61.95-132.85h-57.46c-.18 0-2.5 2.32-2.5 2.5v64.42c11.84-5.23 21.21-8.13 33.96-3.48 22.85 8.33 29.92 34.88 17.28 54.94l8.72 8.48V400.03Zm-123.91 7.99-7 1v132.84h125.91l-2.5-5.99H152.9l-1.5-1.5V408.01Zm132.91 0-7.06 1.58v117.84c.23 1.71 5.31 3.07 7.06 5.43V408.01Zm-51.19 55.2c-45.51 5.38-38.58 73.93 9.63 67.57 41.41-5.46 34.48-72.78-9.63-67.57Zm30.84 57.75-3.57 4.28 11.28 10.55 3.57-4.28-11.28-10.55Zm.36 11.91c-1.12-1.7-4.63-6.02-6.48-6.01l-12.5 6.01h18.99Zm-35.98-.99-12.98-4v4.98c3.14-.06 6.34.13 9.5 0 1.21-.05 3.72.75 3.48-.99Zm50.47 0-7.48 7.47c4.97 3.61 9.88 14.14 16.74 10.76 9.41-4.63-6.17-15.06-9.27-18.23Z"/><path d="M213.37 532.87h-59.96V400.03h58.46l1.5 1.5v67.92c0 .53-5.86 5.78-7.19 7.79-7.79 11.81-7.89 26.89-.62 38.97 3.6 5.99 9.83 8.29 7.81 16.66Zm-26.12-125.73-7.86-.13c.69 7.33-3.47 8.88-8.68 4.12-8.56 4.29-3.8 5.51-2.76 9.77 1.28 5.25-6.74 2.57-7.56 6.59-1.94 9.57 6.49 4.26 7.56 9.41.59 2.84-4.19 3.74-1.61 7.6 4.81 7.22 6.43-.93 10.77 1.17 4.4 2.13-.59 7.39 6.82 7.35 5.43-.03 3.44-5.93 5.07-7.15 4.49-3.35 5.33 3.82 9.92 1.15.6-.35 3.06-2.94 3.13-3.53-.7-3.4-3.9-5.31-1.77-8.93l5.16-1.02.5-7.63-5.4-1.08-.75-1.82c-.92-3.83 3.47-4.91.63-9.57-3.92-6.44-6.88 3.04-11.43-.35l-1.75-5.95Zm88.07-7.12v126.85l-8.72-8.48c12.64-20.06 5.58-46.6-17.28-54.94-12.75-4.65-22.12-1.74-33.96 3.48v-64.42c0-.18 2.32-2.5 2.5-2.5h57.46Z" class="st1"/><path d="M151.41 408.01v126.35l1.5 1.5h114.92l2.5 5.99H144.41V409.01l7-1z" class="st1"/><path d="M233.13 463.21c44.1-5.21 51.04 62.11 9.63 67.57-48.21 6.35-55.13-62.2-9.63-67.57Zm-1.02 6.99c-36.93 5.26-25.53 62.32 10.57 53.57 34.55-8.37 24.23-58.53-10.57-53.57Z" class="st1"/><path d="M284.32 408.01v124.85c-1.74-2.36-6.83-3.73-7.07-5.43V409.59l7.07-1.58Zm-5.5 123.87c3.1 3.18 18.68 13.6 9.27 18.23-6.86 3.38-11.77-7.15-16.74-10.76l7.48-7.47Zm-14.85-10.92 11.28 10.55-3.57 4.27-11.27-10.54 3.56-4.28zm.36 11.91h-18.99l12.5-6.01c1.85-.01 5.36 4.32 6.48 6.01Zm-35.98-.99c.24 1.74-2.27.94-3.48.99-3.16.12-6.36-.07-9.51 0v-4.98l12.99 4Z" class="st1"/><path d="m187.25 407.14 1.75 5.95c4.55 3.39 7.5-6.09 11.43.35 2.84 4.66-1.55 5.74-.63 9.57l.75 1.82 5.4 1.08-.5 7.63-5.16 1.02c-2.13 3.62 1.07 5.53 1.77 8.93-.07.59-2.53 3.18-3.13 3.53-4.59 2.67-5.42-4.5-9.92-1.15-1.63 1.22.36 7.12-5.07 7.15-7.4.05-2.41-5.22-6.82-7.35-4.34-2.1-5.96 6.05-10.77-1.17-2.58-3.87 2.2-4.76 1.61-7.6-1.07-5.16-9.5.16-7.56-9.41.81-4.02 8.84-1.34 7.56-6.59-1.04-4.26-5.8-5.48 2.76-9.77 5.21 4.76 9.37 3.2 8.68-4.12l7.86.13Zm17.13 19.85c-2.64.06-4.13.57-5.89-1.6-4.89-6 4.75-7.7-1.6-12.36-1.76 3.5-7.97 4.15-9.96.95-1.23-1.98-.03-6.36-5.01-5-.76.21-.75 7.54-6.95 7.03-2.38-.19-5.33-3.87-7.12 0-.76 1.64 2.82 3.46 2.42 6.27-.53 3.74-4.39 5.44-7.86 4.73V432c3.68-.89 7.94 1.5 7.93 5.5-.01 2.95-4.38 4.53-1.46 6.55 2.4 1.66 9.21-3.94 12.02 1.94.98 2.05-.66 5.39 1.97 4.98 4.84-1.24 2.39-9.32 9.78-7.83 2.42.49 3.87 4.15 5.78 1.39 2.26-3.26-1.04-3.93-1.13-7-.13-4.5 2.89-6.29 7.08-5.52v-5Zm27.73 43.21c34.8-4.96 45.13 45.2 10.57 53.57-36.11 8.75-47.5-48.31-10.57-53.57Zm-.02 1.98c-35.42 5.58-21.64 62.93 14.92 47.87 26.95-11.1 14.93-52.58-14.92-47.87Z"/><path d="M204.38 426.99v5c-4.19-.77-7.21 1.03-7.08 5.52.09 3.07 3.39 3.74 1.13 7-1.91 2.76-3.36-.9-5.78-1.39-7.39-1.49-4.94 6.58-9.78 7.83-2.64.4-.99-2.94-1.97-4.98-2.81-5.88-9.62-.28-12.02-1.94-2.92-2.01 1.45-3.6 1.46-6.55.01-4-4.25-6.39-7.93-5.5v-4.99c3.48.71 7.34-.99 7.86-4.73.39-2.81-3.19-4.62-2.42-6.27 1.79-3.86 4.74-.19 7.12 0 6.2.51 6.19-6.82 6.95-7.03 4.97-1.36 3.78 3.02 5.01 5 1.99 3.2 8.19 2.55 9.96-.95 6.36 4.67-3.28 6.36 1.6 12.36 1.77 2.17 3.25 1.66 5.89 1.6Zm-24.28-6.77c-8.73 1.99-9.17 18.49 2.78 18.85 15.47.46 13.5-22.55-2.78-18.85Zm51.99 51.96c29.86-4.7 41.88 36.77 14.92 47.87-36.57 15.06-50.34-42.29-14.92-47.87Z" class="st1"/><path d="M180.1 420.22c16.27-3.7 18.25 19.31 2.78 18.85-11.95-.36-11.51-16.86-2.78-18.85Zm1.02 1.97c-8.23 1.81-6.71 18.17 5.32 14.34 8.49-2.7 5.51-16.72-5.32-14.34Z"/><path d="M181.12 422.19c10.83-2.38 13.81 11.63 5.32 14.34-12.03 3.83-13.55-12.53-5.32-14.34Z" class="st1"/><text class="st0" transform="translate(180.01 354.98)"><tspan x="0" y="0">Ricerca</tspan></text><text class="st0" transform="translate(374.55 354.98)"><tspan x="0" y="0">Definizione</tspan></text><text class="st0" transform="translate(628.7 353.98)"><tspan x="0" y="0">Testing</tspan></text><text class="st0" transform="translate(805.43 353.98)"><tspan x="0" y="0">Implementazione</tspan></text><text class="st0" transform="translate(1094.09 353.98)"><tspan x="0" y="0">Mantenimento</tspan></text><text class="st2" transform="translate(206.32 299.26)"><tspan x="0" y="0">1.</tspan></text><text class="st2" transform="translate(417.23 299.48)"><tspan x="0" y="0">2.</tspan></text><text class="st2" transform="translate(655.79 299.48)"><tspan x="0" y="0">3.</tspan></text><text class="st2" transform="translate(871.51 299.48)"><tspan x="0" y="0">4.</tspan></text><text class="st2" transform="translate(1147.01 299.48)"><tspan x="0" y="0">5.</tspan></text></svg>