<svg xmlns="http://www.w3.org/2000/svg" id="Livello_1" data-name="Livello 1" viewBox="0 0 3710.4 3710.4"><defs><style>.cls-1{fill:#120877}.cls-2{fill:#fea09d}.cls-3{fill:#4c51c7}.cls-4{fill:#e8eefd}.cls-5{fill:#ff9490}.cls-6{fill:#fff}.cls-7{fill:#190e8c}.cls-8{fill:#fdb9b8}.cls-9{fill:#0f056b}.cls-12{fill:#93b4fa}.cls-13{fill:#fd820e}.cls-14{fill:#feacaa}.cls-15{fill:#494cf2}.cls-16{fill:#4143e3}</style></defs><path d="M3710.4 0v3710.4H0V0h3710.4ZM504.83 2291.89c-83.62 275.36-57.57 547.32 207.31 702.54 72.82 42.67 153.61 72.75 236.1 92.14-.96 35-35.13 91.9 13.81 108.07 21.09 6.97 56.59 10.82 79.6 14.45 111.07 17.53 256.75 31.02 367.26 9.92 53.73 13.04 109.06 22.85 164.14 28.77 450.93 48.47 921.39-127.15 1243.87-439.5 15.73-15.23 33.67-31.38 45.06-49.96 303.33-33.95 482.67-361.99 347.43-637.28 3.42-6.82 5.05-15.52 6.74-23.01 53.98-239.69 49.9-509.26-23.5-744.34-1.77-5.65-3.16-14.19-8.19-17.72 49.27-236.12-100.32-474.27-335.91-525.94-.08-3.57-2.4-5.52-4.72-7.76-96.48-93.1-235.75-177.53-358.69-230.6-745.6-321.88-1638.38 56.07-1926.08 809.89-106 277.74-126.75 590.94-62.88 881.55 1.99 9.08 3.83 21.17 8.66 28.77Z" class="cls-6"/><path d="M2848.54 810.03c-176.8-38.78-357.35 29.67-461.11 177.13-120.13 170.73-105.31 406.73 38.81 558.04-29.38 19.94-53.39 83.64-72.61 116.46-26.76 45.7-65.57 101.75-100.14 140.75-49.19 55.49-139.23 120.84-207.31 151.64-148.18 67.05-305.28 59.66-458.75 16.31-20.95-5.92-41.33-14.99-62.53-20.01-32.65-7.73-75.37-8.86-109.19-9.81-65.45-1.85-131.5.33-196.83 2-.08-3.83.12-7.69 0-11.52-1.44-44.14-3.23-88.37-5.76-132.45 32.96-5.12 65.11-18.02 74.86-51.83 8.97-31.1 1.41-101.25-4.45-134.72-10.3-58.86-34.76-114.12-53.14-170.48 53.4-27.33 83.59-62.87 70.08-126.71-4.91-23.19-30.57-67.82-54.73-74.04-12.9-3.32-9.49 11.84-18.32 12.74-7.94.8-6.15-11.55-16.21-6.83-1.98.93-16.13 18.53-21.32 22.85-75.76 62.96-257.11 35.85-294.03 157.05-2.37 7.77-4.7 33.62-6.15 36.08-3.9 6.66-16.48-2.49-24.92-2.03-30.89 1.67-43.75 35.43-40.8 61.94 5.03 45.3 35.47 71.66 64.73 101.31l3.84 3.84c2.36 11.57-11.31 10.38-11.52 21.11-1.1.31-3.33-.85-3.88 1.25-5.35 20.33 17.74 34 32.64 41.98 29.75 15.95 66.02 25.02 99.85 22.03-4.65 58.24-10.72 116.85-19.2 174.67-3.69 25.18-8.77 49.9-13.44 74.86-87.64 13.97-176.15 29.49-260.6 57.07-138.04 45.08-172.2 141.44-211.59 271.16-4.83-7.61-6.66-19.69-8.66-28.77-63.87-290.61-43.12-603.81 62.88-881.55C846.75 627.74 1739.53 249.79 2485.13 571.67c122.94 53.07 262.22 137.5 358.69 230.6 2.32 2.24 4.64 4.19 4.72 7.76ZM1750.19 559.14c-330.77 18.24-528.54 378.2-360.8 666.79 174.37 300 615.25 289.86 776.14-17.28 158.8-303.14-74.56-668.31-415.34-649.52Z" class="cls-4"/><path d="M2046.19 1954.05c54.11 74.19 84.07 164.55 95.98 255.29-153.47 114.37-343.79 143.82-532.42 120.68-23.55-2.89-46.81-8.15-70.31-11.27-4.28-2.15-3.15-2.95-3.91-6.6-16.67-80.49-24.45-154.19-59.1-230.79-3.21-7.1-13.96-32.13-20.56-33.26-23.64-4.05 1.34 31.79 5.21 40.94 24.4 57.66 39.78 119.72 50.93 181.33 1.7 9.37 5.27 48.56 8.37 53.05 2.48 3.58 5.67 3.33 9.47 3.01 23.89 216.41 6.71 435.16-29.4 649.15-5.48 32.49-13.27 64.87-16.67 97.54h-190.03c-6.74-8.08-14.37-15.86-22.02-23.08-58.02-54.75-95.1-97.5-170.83-30.61-8.86 7.83-16.43 17.79-25.03 25.02-6.87.67-62.09-27.33-71.96-32.75-21.74-11.94-41.35-26.17-61.42-40.31-18.36-190.55-49.97-381.59-113.27-562.4l-13.74 21.73c-67.32 117.3-91.29 276.7-16.94 396.71-33.69 52.65-66.21 107.72-86.38 167-264.88-155.21-290.93-427.17-207.31-702.54 39.39-129.72 73.56-226.08 211.59-271.16 84.45-27.58 172.96-43.1 260.6-57.07-3.71 19.84-12.23 34.84 8.26 48.36 51.57 34.04 169.17 28.1 217.23-10.02 22.92-18.18 16.84-34.97 16.36-59.46 65.33-1.67 131.37-3.85 196.83-2 33.83.96 76.55 2.09 109.19 9.81 21.2 5.02 41.58 14.09 62.53 20.01 153.48 43.35 310.57 50.74 458.75-16.31Z" class="cls-3"/><path d="M3209.41 2121.05c-114.65-233.38-411.66-318.03-633.27-179.31-173.71 108.73-249.31 321.2-186.36 517.13l-527.86 1.93c-39.08 2.42-74.17 25.27-93.68 58.92-81.26 173.29-167.04 344.61-247.72 518.16-3.67 7.9-8.12 17.15-9.87 25.64-2.84 1.55-6.1 6.72-7.68 9.6h-19.2c3.4-32.67 11.19-65.05 16.67-97.54 36.1-213.99 53.29-432.74 29.4-649.15 5.04-1.45 4.41-8.8 9.6-7.68 23.49 3.12 46.76 8.38 70.31 11.27 188.63 23.14 378.95-6.31 532.42-120.68 112.41-83.78 178.24-184.76 228.42-314.8 3.55-9.21 8.26-18.33 11.55-27.8 16.88-48.51 29.21-98.63 40.35-148.75 42.98 16.52 74.81 2.84 112.55-16.99 18.53-9.74 50.67-27.38 65.89-40.64 228.18 81.75 481.69-37.44 564.85-263.41 7.08-19.23 14.5-40.98 18.67-60.98 5.03 3.53 6.43 12.07 8.19 17.72 73.41 235.08 77.48 504.65 23.5 744.34-1.69 7.5-3.32 16.2-6.74 23.01Z" style="fill:#e2eafd"/><path d="M2861.98 2758.33c-11.39 18.57-29.33 34.73-45.06 49.96-322.48 312.34-792.94 487.96-1243.87 439.5-55.07-5.92-110.4-15.74-164.14-28.77 47.62-9.09 51.53-35.99 59.5-78.7h5.76c104.26.08 208.62.08 312.88 0 157.72-.12 315.49.03 473.23.07 19.3-1.52 41.53-11.67 53.51-27.11 67.11-154.84 128.96-312.94 191.16-470.11 4.56-.94 5.85 1.8 8.66 3.81 16.79 12.02 31.67 26.89 49.45 38.86 87.85 59.11 193.41 84.31 298.92 72.5Z" style="fill:#e0e8fe"/><path d="M3209.41 2121.05c135.24 275.28-44.1 603.32-347.43 637.28-105.51 11.81-211.07-13.39-298.92-72.5-17.78-11.96-32.66-26.83-49.45-38.86-2.81-2.01-4.1-4.75-8.66-3.81 3.16-8 5.85-15.21 9.6-23.03 6.41 6.57 14.28 11.58 21.11 17.28 31.46 26.23 56.73 43.85 94.06 61.42 118.79 55.93 246.8 54.97 364.71-1.92 38.69-18.67 60.49-33.37 92.14-61.42 343.72-304.77 31.4-852.48-400.73-720.33-226.87 69.38-353.07 318.73-272.75 543.46l97.63 2.19c-4.31-.41-9.04.13-13.44 0-114.43-3.44-232.61-.17-347.43 0-93.05.14-196.23-5.67-287.93 0l527.86-1.93c-62.95-195.94 12.65-408.4 186.36-517.13 221.61-138.72 518.62-54.07 633.27 179.31ZM2848.54 810.03c235.59 51.67 385.18 289.82 335.91 525.94-4.17 20-11.6 41.75-18.67 60.98-83.17 225.97-336.68 345.16-564.85 263.41 3.85-3.35 12.29-12.98 15.36-17.28 121.32 40.54 247.23 23.88 355.11-42.23 4.99-3.06 10.96-5.27 16.74-9.17 11.91-8.05 22.63-17.98 34.66-25.85.92-1.47.61-3.6.42-5.29 4.35.72 5.86-1.41 8.71-3.76 30.79-25.53 62.34-67.35 82.57-101.8 1.11-1.89.55-5.39.85-5.77 64.28-80.69 66.75-243.37 35.1-339.34-110.95-336.47-567.67-392.42-757.63-92.38-86.51 136.64-89.69 343.99 14.54 472.69 2.16 2.67 3.23 5.17 7.37 5.1.29 11.08 24.16 30.59 30.71 40.31-3.13 1.49-17.82 8.66-19.2 9.6-144.12-151.31-158.94-387.31-38.81-558.04 103.76-147.46 284.3-215.91 461.11-177.13Z" class="cls-12"/><path d="M973.19 3090.4c19.12 4.09 38.02 9.44 57.59 11.52-2.19 15.99 9.52 32.94 24.82 37.56 40.31 1.63 80.74.67 121.06.83 48.6.19 97.29-.06 145.88 0 48.6.06 97.28-.03 145.88 0-7.98 42.71-11.89 69.61-59.5 78.7-110.51 21.1-256.19 7.61-367.26-9.92-23.01-3.63-58.51-7.48-79.6-14.45-48.95-16.18-14.77-73.08-13.81-108.07 7.22 1.7 17.06 2.15 24.95 3.84Z" class="cls-3"/><path d="M798.51 2827.43c34.9 56.33 89.37 105.51 143.96 143.96 20.08 14.14 39.69 28.37 61.42 40.31l-30.71 78.7c-7.89-1.69-17.74-2.14-24.95-3.84-82.49-19.38-163.28-49.47-236.1-92.14 20.17-59.28 52.69-114.35 86.38-167Z" class="cls-14"/><path d="M1230.4 1441.55c-43.17 22.09-90.24 35.28-136.28 49.91-16.09 5.11-51.77 11.98-63.4 22.02-17.98 15.53-6.88 46.38.02 65.35 5.81 15.98 26.51 42.27-.01 48.1-10.94-22.68-25.55-67.02-58.07-60.16-17.38 3.66-23.69 19.87-22.5 36.03-3.9-.36-6.32 1.09-9.46 3.01-17.68 10.8-41.15 37.82-59.64 43.06.21-10.74 13.88-9.54 11.52-21.11-.52-2.56-2.76-2.75-3.84-3.84-29.26-29.64-59.7-56-64.73-101.31-2.94-26.51 9.92-60.26 40.8-61.94 8.44-.46 21.02 8.69 24.92 2.03 1.44-2.46 3.78-28.31 6.15-36.08 36.92-121.21 218.27-94.09 294.03-157.05 5.19-4.31 19.35-21.92 21.32-22.85 10.06-4.72 8.28 7.63 16.21 6.83 8.83-.89 5.43-16.06 18.32-12.74 24.16 6.23 49.82 50.85 54.73 74.04 13.51 63.84-16.68 99.38-70.08 126.71Z" class="cls-9"/><path d="M2253.5 1802.41c38.45 24.78 72.72 56.25 110.43 82.47l6.66 9.66c-50.18 130.03-116.01 231.02-228.42 314.8-11.9-90.74-41.86-181.1-95.98-255.29 68.08-30.8 158.12-96.16 207.31-151.64Z" class="cls-14"/><path d="M2445.45 1535.6c21.75-10.33 47.23-18.72 70.03-26.91 77.8-27.96 158.36-48.96 239-67.15 4.96 17.02.07 31.95-14.69 41.92l-104.05 33.2c-1.97 43.17 7.28 88.93-19.44 126.43-3.06 4.3-11.51 13.92-15.36 17.28-15.22 13.26-47.37 30.9-65.89 40.64-37.73 19.83-69.56 33.5-112.55 16.99-11.14 50.13-23.47 100.25-40.35 148.75-3.29 9.46-8 18.59-11.55 27.8l-6.66-9.66c-37.71-26.22-71.98-57.69-110.43-82.47 34.58-39 73.39-95.05 100.14-140.75 19.22-32.82 43.23-96.52 72.61-116.46 1.37-.93 16.07-8.11 19.2-9.6Zm134.36 19.2c2.2 17.1-19.05 23.67-30.73 33.56-22.64 19.18-59.04 60.32-76.72 84.52-6.25 8.56-13.52 18.92 2.74 20.16 20.77-16.59 36.39-40.9 54.75-60.57 10.31-11.04 23.36-24.62 34.58-34.52 9.94-8.78 29.13-16.22 32.21-31.12 2.08-10.04-1.36-30.96-13.84-31.33-30.15 7.39-62.03 10.1-91.19 20.34-6.91 9.45-44.34 33.9-45.82 42.57-1.06 6.19 3.61 10.83 9.79 9.79 10.04-1.68 37.25-34.25 48.93-39.46l75.3-13.95Z" class="cls-8"/><path d="M1750.19 559.14c340.78-18.79 574.14 346.38 415.34 649.52-160.9 307.14-601.77 317.28-776.14 17.28-167.74-288.6 30.03-648.55 360.8-666.79Zm232.66 807.55c386.48-225.49 206.33-812.6-244.72-785.06-274.5 16.76-461.51 312.65-361.34 568.7 1.18 3.01.52 6.2 5.25 5.21-1.02 12.09 16.13 43.35 22.71 55.03 46.76 83.16 124.66 150.02 213.39 184.9 33.14 13.03 62.5 20.28 97.89 24.95 32.1 4.24 58.27 4.25 90.22 1.92 51.68-3.77 83.48-12.83 130.53-32.63 20.01-8.43 27.64-12.28 46.07-23.03Z" class="cls-12"/><path d="m1094.12 1491.45 193.87 255.29c-9.75 33.81-41.9 46.71-74.86 51.83-58.87 9.14-122.4-9.63-165.99-49.96-4.24-3.92-31.4-34-31.72-36.42-.07-.55 2.26-3.72 1.77-6.46-.79-4.44-3.91-20.25-5.49-22.92-.78-1.32-20.72-13.61-25.09-17.62-15.06-13.81-34.92-41.64-36.45-62.41-1.19-16.16 5.12-32.36 22.5-36.03 32.52-6.86 47.13 37.49 58.07 60.16 26.52-5.83 5.83-32.12.01-48.1-6.9-18.97-18-49.82-.02-65.35 11.63-10.04 47.31-16.91 63.4-22.02Z" class="cls-14"/><path d="M1213.13 1798.57c2.53 44.08 4.32 88.3 5.76 132.45l-228.42-42.23c8.48-57.83 14.54-116.43 19.2-174.67 2.05-.18 3.99-.91 5.76-1.92.32 2.42 27.48 32.5 31.72 36.42 43.59 40.33 107.12 59.09 165.99 49.96Z" class="cls-5"/><path d="M1218.88 1931.02c.12 3.83-.08 7.68 0 11.52.48 24.48 6.55 41.28-16.36 59.46-48.06 38.12-165.67 44.06-217.23 10.02-20.49-13.53-11.97-28.52-8.26-48.36 4.66-24.96 9.74-49.68 13.44-74.86l228.42 42.23Z" class="cls-2"/><path d="m1287.99 1746.75-193.87-255.29c46.04-14.62 93.11-27.82 136.28-49.91 18.37 56.37 42.84 111.63 53.14 170.48 5.85 33.47 13.41 103.62 4.45 134.72Z" class="cls-8"/><path d="M950.15 1602.79c1.53 20.77 21.38 48.59 36.45 62.41 4.37 4.01 24.31 16.3 25.09 17.62 1.59 2.68 4.7 18.49 5.49 22.92.49 2.74-1.84 5.91-1.77 6.46-1.77 1.01-3.71 1.74-5.76 1.92-33.84 2.98-70.11-6.09-99.85-22.03-14.89-7.98-37.99-21.65-32.64-41.98.55-2.1 2.79-.94 3.88-1.25 18.5-5.24 41.97-32.26 59.64-43.06 3.14-1.92 5.56-3.37 9.46-3.01Zm-57.58 24.95-3.84-3.84c1.08 1.09 3.32 1.28 3.84 3.84Z" class="cls-1"/><path d="M942.48 2971.39c-54.59-38.45-109.07-87.63-143.96-143.96-74.34-120.01-50.37-279.41 16.94-396.71l13.74-21.73c63.31 180.81 94.91 371.85 113.27 562.4Z" class="cls-4"/><path d="M1293.75 3073.12c-33.88 0-67.85-.13-101.73 0-39.14.15-93.53-4.43-130.53 0l-3.84 1.92c-13.65 3.23-24.83 11.95-26.87 26.87-19.56-2.08-38.47-7.43-57.59-11.52l30.71-78.7c9.86 5.42 65.09 33.42 71.96 32.75 8.6-7.22 16.17-17.19 25.03-25.02 75.74-66.9 112.81-24.14 170.83 30.61 7.66 7.22 15.28 15.01 22.02 23.08Z" class="cls-2"/><path d="M1483.78 3073.12h19.2c-7.39 13.43-16.91 35.85-23.37 50.53-2.29 5.2-4.98 10.91-5.43 16.65h-5.76c-48.6-.03-97.28.06-145.88 0-.18-4.25.89-8.32 2.04-12.36 2.86-10.1 14.78-36.89 14.89-44.65.05-3.85-5.79-5.68-5.41-10.17h149.72Z" class="cls-7"/><path d="M1293.75 3073.12h40.31c-.38 4.5 5.47 6.32 5.41 10.17-.11 7.76-12.03 34.54-14.89 44.65-1.14 4.04-2.22 8.11-2.04 12.36-48.6-.06-97.29.19-145.88 0-3.88-22.37 15.02-44.39 15.36-67.18 33.88-.13 67.85 0 101.73 0Z" class="cls-1"/><path d="M1529.84 2326.44c-3.8.31-6.99.57-9.47-3.01-3.1-4.49-6.67-43.68-8.37-53.05-11.16-61.61-26.53-123.67-50.93-181.33-3.87-9.14-28.84-44.98-5.21-40.94 6.6 1.13 17.35 26.16 20.56 33.26 34.65 76.6 42.43 150.3 59.1 230.79.76 3.65-.37 4.45 3.91 6.6-5.19-1.12-4.56 6.23-9.6 7.68Z" class="cls-15"/><path d="M2497.27 2460.8c-.78 5.22-5.92 9.14-9.57 12.5-107.65 98.87-212.19 201.2-318.55 301.45l-9.71 2.77c6.17-74.53-53.48-89.89-89.29-28.83-15.45 26.35-24.58 71.43-8.65 98.94 1.39 2.4 10.03 13.43 11.57 14.35l-286.01 278.33c-104.26.08-208.62.08-312.88 0 .45-5.74 3.14-11.45 5.43-16.65 6.46-14.69 15.98-37.11 23.37-50.53 1.58-2.87 4.84-8.05 7.68-9.6 20.03-10.94 50.6-43 69.13-60.44 188.62-177.5 372.72-361.46 565.25-534.63 2.5-2.25 4.75-3.87 4.82-7.65 114.82-.17 233-3.44 347.43 0Z" class="cls-1"/><path d="M1861.92 2460.8c91.7-5.67 194.88.14 287.93 0-.07 3.78-2.32 5.4-4.82 7.65-192.53 173.17-376.63 357.13-565.25 534.63-18.53 17.43-49.1 49.5-69.13 60.44 1.75-8.49 6.2-17.74 9.87-25.64 80.67-173.55 166.46-344.87 247.72-518.16 19.51-33.65 54.6-56.5 93.68-58.92Z" class="cls-9"/><path d="M2510.71 2460.8c25.85 2.47 44.63 25.92 44.15 51.83-.06 2.99-1.71 7.26-1.92 11.52-12.39 29.51-28.43 61.36-36.47 92.14-.63.55-1.61 1.18-1.92 1.92-.23.55.24 1.41 0 1.92-3.75 7.83-6.43 15.04-9.6 23.03-62.19 157.17-124.04 315.28-191.16 470.11-11.98 15.44-34.21 25.59-53.51 27.11-157.74-.04-315.51-.19-473.23-.07l286.01-278.33c1.53.91 12.24 3.4 14.61 3.63 41.49 4.03 68.9-53.35 71.77-88.09l9.71-2.77c106.36-100.25 210.91-202.58 318.55-301.45 3.66-3.36 8.79-7.28 9.57-12.5 4.4.13 9.13-.41 13.44 0Z" class="cls-7"/><path d="M3086.56 2635.48c.21-15.62-.37-31.48-1.93-47.02-.75-7.44-8.52-46.63-7.67-48.96.3-.82 3.7-.06 3.13-5.76-3.1-30.81-39.22-102.49-59.73-126.71-34.16-40.35-61.62-46.88-110.39-59.48-1-.26-3.03-2.31-5.59-2.96-7.41-1.86-49.64-9.1-51.64-10.83-1.45-1.26-2.49-12.08-2.27-15.01 16.46-12.38 31.39-37.32 40.31-55.67 6.23-12.8 21.81-49.16 23.03-61.42 13.66-14.69 23.06-32.66 30.23-51.35 6.51-16.98 16.86-46.35 13.07-63.93-5.15-23.9-28.24-18.82-42.38-34.4-8.3-9.14-10.13-21.32-16.62-31.37-12.17-18.85-24.43-19.8-45.72-18.58l-5.76 1.92c-.63.06-1.29-.07-1.92 0-3.99.43-7.75 1.69-9.6 1.92-1.24.15-2.61-.17-3.84 0-3.42.47-5.46 1.88-5.76 1.92-.63.09-1.29-.09-1.92 0-3.35.5-7.95 1.72-9.6 1.92-.63.08-1.29-.07-1.92 0-4.85.51-12.04-1.85-15.36 1.92-8.72.07-18.35-.67-26.87 0-3.84.3-5.41 1.85-5.76 1.92-1.19.23-2.79-.29-3.84 0-1.47.41-1.79 1.87-1.92 1.92-.57.22-1.41-.24-1.92 0-1.08.5-1.54 1.71-1.92 1.92-.5.27-1.46-.28-1.92 0-1.01.63-1.43 1.57-1.92 1.92-15.03 10.89-21.52 23.3-33.56 36.5-12.23 13.4-24.62 17.14-30.65 36.53-14 45.04 11.04 117.7 45.02 149.63 3.44 25.26 8.06 46.49 26.87 65.26l-1.91 30.72c-17.03.64-33.78 5.4-49.92 9.59-88.68 23.04-123.02 83-151.64 165.08.48-25.9-18.3-49.35-44.15-51.83l-97.63-2.19c-80.32-224.74 45.88-474.08 272.75-543.46 432.13-132.16 744.45 415.55 400.73 720.33Z" class="cls-6"/><path d="M2706.5 2347.55c25.01 99.22 184.3 105.11 203.47 0 48.78 12.61 76.23 19.13 110.39 59.48 20.51 24.22 56.63 95.9 59.73 126.71.57 5.7-2.82 4.93-3.13 5.76-26.98 9.61-53.19 26.65-75.8 44.17-1.71 37.9.11 75.77-6.74 113.23-117.91 56.89-245.91 57.85-364.71 1.92-2.39-25.76-3.04-53.73-2-79.74.44-11.16 4.57-24.41 2.97-35.39-2.17-4.72-36.86-25.23-43.83-29.16-10.27-5.79-22.33-14.07-33.92-15.03.18-2.73-.25-10.21 0-15.36.21-4.25 1.86-8.53 1.92-11.52 28.62-82.08 62.96-142.04 151.64-165.08Z" class="cls-13"/><path d="M2629.72 2698.82c-37.33-17.57-62.59-35.19-94.06-61.42 2.39-16.08 3.55-32.28 6.36-48.34 2.78-15.88 9.9-34.53 10.91-49.55 11.59.95 23.65 9.24 33.92 15.03 6.97 3.93 41.65 24.44 43.83 29.16 1.61 10.99-2.52 24.23-2.97 35.39-1.04 26.01-.39 53.98 2 79.74Zm447.24-159.32c-.86 2.33 6.92 41.52 7.67 48.96 1.56 15.53 2.14 31.39 1.93 47.02-31.64 28.06-53.45 42.76-92.14 61.42 6.86-37.45 5.03-75.32 6.74-113.23 22.6-17.52 48.81-34.56 75.8-44.17Z" class="cls-8"/><path d="M2552.94 2539.5c-1.01 15.02-8.14 33.67-10.91 49.55-2.81 16.06-3.98 32.26-6.36 48.34-6.84-5.7-14.7-10.71-21.11-17.28.24-.51-.23-1.37 0-1.92.8-.36 1.7-1.08 1.92-1.92 8.04-30.77 24.09-62.63 36.47-92.14-.25 5.15.18 12.62 0 15.36Zm-138.2-1044.21c-4.14.07-5.21-2.43-7.37-5.1-104.23-128.7-101.05-336.05-14.54-472.69 189.96-300.04 646.68-244.08 757.63 92.38 31.65 95.97 29.18 258.65-35.1 339.34-28.78-46.67-61.06-92.54-98.83-132.47-21.93-23.18-22.54-23.89-54.38-30.08-41.15-8-86.09-12.76-128.02-14.02-6.25-.19-23.11-1.26-27.81-.02l-11.52-95.98c24.86-1.25 41.52-7.3 47.82-33.76-4.63-45.53-17.74-90.24-26.7-135.16 38.88-11 34.57-51.07 11.57-75.87-18.24-19.67-58.04-20.44-69.58 5.46-1.25 2.81-.86 5.39-1.49 7.07-2 5.34-1.56 12.37-6.59 15.49-4.33 2.68-8.52 1.22-12.72 2.64-3.76 1.27-5.95 5.55-8.93 6.43-6.88 2.04-21.31-3.4-31.26-3.44-2.47-.01-5.33-.28-7.68 0l-3.84 1.92c-.64.15-1.38-.18-1.92 0-2.08.71-2.09.73-3.84 1.92-.74.5-1.31 1.28-1.92 1.92-.48.28-1.49-.29-1.92 0-.74.5-1.24 1.37-1.92 1.92-11.09 8.97-18.08 17.59-14.92 33.16 1.77 8.73 11.51 15.12 11.23 23.4-.33 9.76-10.04 13.07-13.4 21.37-5.76 14.22.33 31.67 15.16 37.24-10.5 15.61 11.33 50.66 28.79 51.83l-15.36 136.28c-6.57-1.96-60.38 4.69-71.74 6a983.528 983.528 0 0 0-82.41 13.08c-37.85 49.16-74.98 102.02-100.87 158.75-4.02 8.8-15.84 32.94-15.63 41Z" class="cls-6"/><path d="M3115.35 1449.23c-.3.38.26 3.88-.85 5.77-20.23 34.44-51.79 76.27-82.57 101.8-2.85 2.36-4.36 4.48-8.71 3.76-1.11-9.98-13.67-25.57-16.95-35.84l-19.5-29.41-15.38 105.56c-107.88 66.11-233.78 82.77-355.11 42.23 26.72-37.51 17.48-83.26 19.44-126.43l104.05-33.2c14.76-9.97 19.65-24.9 14.69-41.92-80.64 18.19-161.2 39.18-239 67.15-22.79 8.19-48.27 16.58-70.03 26.91-6.56-9.72-30.42-29.23-30.71-40.31-.21-8.06 11.61-32.2 15.63-41 25.89-56.73 63.02-109.59 100.87-158.75 27.16-5.5 54.87-9.9 82.41-13.08 11.36-1.31 65.18-7.96 71.74-6 .29.09 1.52 3.03 4.61 3.94 38.67 11.4 68.75 15.06 106.8-.98 3.04-1.28 8.68-6.57 9.52-6.8 4.7-1.25 21.56-.17 27.81.02 41.93 1.26 86.87 6.02 128.02 14.02 31.84 6.19 32.45 6.9 54.38 30.08 37.77 39.93 70.05 85.81 98.83 132.47Z" class="cls-3"/><path d="M3023.22 1560.56c.19 1.69.49 3.82-.42 5.29-12.04 7.87-22.75 17.8-34.66 25.85-5.78 3.9-11.75 6.11-16.74 9.17l15.38-105.56 19.5 29.41c3.28 10.27 15.83 25.86 16.95 35.84Z" class="cls-6"/><path d="M1192.01 3073.12c-.33 22.8-19.24 44.81-15.36 67.18-40.32-.16-80.75.81-121.06-.83-15.3-4.62-27.01-21.58-24.82-37.56 2.04-14.92 13.22-23.64 26.87-26.87 1.64-.39 3.47-1.88 3.84-1.92 36.99-4.43 91.39.15 130.53 0Z" class="cls-9"/><path d="m2579.81 1554.8-75.3 13.95c-11.68 5.21-38.89 37.78-48.93 39.46-6.18 1.04-10.85-3.61-9.79-9.79 1.48-8.67 38.9-33.12 45.82-42.57 29.16-10.24 61.05-12.94 91.19-20.34 12.48.37 15.92 21.29 13.84 31.33-3.08 14.9-22.26 22.34-32.21 31.12-11.22 9.91-24.27 23.48-34.58 34.52-18.36 19.66-33.98 43.98-54.75 60.57-16.26-1.25-8.99-11.61-2.74-20.16 17.67-24.2 54.08-65.34 76.72-84.52 11.68-9.9 32.93-16.46 30.73-33.56Z" class="cls-5"/><path d="M1982.85 1366.69c12.15-46.33 30.41-91.21 41.68-137.79 3.62-14.95 7.59-27.6 6.06-43.37-4.33-44.82-59.43-97.98-93.82-124.04-9.72-7.37-17.77-17.55-31.57-17.34-1.6.03-13.87 1.61-14.5 1.98.36-6.69-.52-13.54-.07-20.23.17-2.48 1.99-5.02 1.99-5.68v-40.31c0-5.39 1.94-14.45 1.92-22.07-.01-3.84 0-7.68 0-11.52 79.13 8.92 67.71-68.07 46.4-118.38-3.27-7.71-13.25-29.28-17.61-35.18 45.14-63.15-28.7-111.81-88.21-93.01-45.11 14.26-65.47 64.82-80.78 105.41-2.75 7.29-3.94 20.47-8.41 26.14-10.57 13.39-49.89 28.97-66.23 39.34-7.76 4.93-11.17 8.89-17.42 14.25-28.76 24.66-26.75 30.28-35.05 65.73-12.62 53.92-41.64 50.8-85.88 63.84-20.92 6.17-40.28 13.8-59.51 23.99-35.09 18.6-66.47 45.05-85.46 80.58-4.39 8.21-13.63 27.91-14.36 36.51-4.73.99-4.08-2.2-5.25-5.21-100.17-256.06 86.84-551.94 361.34-568.7 451.05-27.54 631.2 559.57 244.72 785.06Z" class="cls-6"/><path d="M1936.78 1061.49v328.24c-47.04 19.8-78.84 28.86-130.53 32.63-2.1-8.57-2.36-8.71-11.52-7.68 6.83-56.8-3.5-113.79-23.05-167-4.08-.53-6.23 3.28-8.46 5.92-8.31 9.88-19.04 27.99-25.73 39.53-15.58 26.85-52 92.87-15.7 115.78-5.97-1.2-5.58 7.08-5.76 11.52-35.39-4.67-64.75-11.92-97.89-24.95 7.22-72.61 38.61-148.93 72.94-213.06 2.76-5.16 13.3-26.13 17.28-26.87.34-.06 4.44 4.57 0-1.92 2.4-13.32 77.61-63.14 82.54-61.42.29.1.83 3.07 4.74 3.81 19.4 3.65 80.39-17.44 86.93-37.95.95-2.99.05-5.73.47-8.09 8.48 2.49 7.23-3.57 7.68-3.84.63-.37 12.89-1.96 14.5-1.98 13.8-.22 21.85 9.97 31.57 17.34Z" class="cls-13"/><path d="M1518.33 1073c-59.3 24.46-97.91 56.29-90.01 127.44 2.61 23.52 29.83 77.84 56.36 78.03 3.96.03 5.65 1.1 4.84-3.92-8.7 4.11-20.84-6.54-26.91-12.43-32.38-31.47-39.9-86.31-20.83-126.5 17.59-37.07 52.58-48.51 88.06-62.62-.07 4.14 2.43 5.21 5.1 7.37 38.31 31.03 103.98 72.69 147.08 98.63 2.97 1.79 5.06 4.02 9.06 3.41-34.33 64.13-65.72 140.45-72.94 213.06-88.73-34.88-166.64-101.75-213.39-184.9-6.57-11.69-23.72-42.94-22.71-55.03.72-8.6 9.97-28.3 14.36-36.51 18.99-35.53 50.37-61.98 85.46-80.58 2.74 17.09 30.48 19.2 36.47 34.55Zm-45.37 56.34c1.36-1.59 7.68-2.94 4.11-6.42-36.54 28.94-31.56 82.7-2.91 115.16-2.2-10.9-10.67-20.39-14.34-30.75-9.85-27.87-6.03-55.52 13.13-77.99Z" class="cls-7"/><path d="M1982.85 1366.69c-18.43 10.75-26.06 14.61-46.07 23.03v-328.24c34.38 26.06 89.48 79.22 93.82 124.04 1.52 15.77-2.45 28.42-6.06 43.37-11.27 46.58-29.53 91.46-41.68 137.79Z" class="cls-13"/><path d="M1721.79 1408.92c21.71 13.7 49.83 8.36 72.94 5.76 9.16-1.03 9.42-.89 11.52 7.68-31.95 2.33-58.12 2.32-90.22-1.92.18-4.44-.21-12.71 5.76-11.52Z" class="cls-5"/><path d="M1061.49 3073.12c-.37.04-2.2 1.53-3.84 1.92l3.84-1.92Z" class="cls-7"/><path d="M2159.44 2777.52c-2.87 34.74-30.28 92.12-71.77 88.09-2.36-.23-13.07-2.72-14.61-3.63s-10.18-11.94-11.57-14.35c-15.93-27.51-6.8-72.59 8.65-98.94 35.81-61.06 95.46-45.7 89.29 28.83Zm355.11-159.32c.31-.74 1.29-1.36 1.92-1.92-.22.84-1.12 1.56-1.92 1.92Z" class="cls-12"/><path d="M2852.38 2002.04c21.29-1.22 33.55-.27 45.72 18.58 6.49 10.05 8.32 22.22 16.62 31.37 14.14 15.58 37.23 10.5 42.38 34.4 3.79 17.58-6.56 46.95-13.07 63.93-7.17 18.69-16.57 36.66-30.23 51.35.02-.24-2.12-1.83-1.82-4.46 1.36-11.91 2.77-23.67 1.81-35.84-34.99 12.48-68.76-10.26-103.57-16.39-26.71-4.71-57.29-8.07-63.44 25.98-2.18 1.58-22.16-17.44-24.97 6.68-3.21 27.6 7.32 36.54 9.64 56.67.28 2.47-.33 5.24 0 7.68-33.97-31.93-59.01-104.59-45.02-149.63 6.03-19.39 18.42-23.13 30.65-36.53 12.04-13.2 18.53-25.6 33.56-36.5l1.92-1.92c.45-.28 1.42.27 1.92 0l1.92-1.92c.51-.24 1.35.22 1.92 0l1.92-1.92c1.05-.29 2.65.23 3.84 0l5.76-1.92c8.52-.67 18.15.07 26.87 0 4.8-.04 12.17 1.5 15.36-1.92.63-.07 1.29.08 1.92 0 3.08-.11 7.96 1.19 9.6-1.92.63-.09 1.29.09 1.92 0l5.76-1.92c1.23-.17 2.6.15 3.84 0 3.08-.11 7.96 1.19 9.6-1.92.63-.07 1.29.06 1.92 0 2.95-.29 5.46-1.9 5.76-1.92Z" class="cls-7"/><path d="M2731.45 2234.3c-2.32-20.13-12.86-29.07-9.64-56.67 2.81-24.11 22.79-5.09 24.97-6.68 6.14-34.05 36.73-30.68 63.44-25.98 34.82 6.14 68.58 28.87 103.57 16.39.96 12.17-.45 23.93-1.81 35.84-.3 2.63 1.84 4.22 1.82 4.46-1.22 12.27-16.81 48.62-23.03 61.42l-159.32-28.79Zm119.01 84.46c-.21 2.92.82 13.75 2.27 15.01 1.99 1.73 44.23 8.97 51.64 10.83 2.57.64 4.59 2.7 5.59 2.96-19.17 105.11-178.45 99.22-203.47 0 16.14-4.19 32.89-8.95 49.92-9.59l1.91-30.72c23.25 23.2 64.4 32.38 92.14 11.52Z" class="cls-14"/><path d="M2890.77 2263.09c-8.92 18.35-23.85 43.28-40.31 55.67-27.73 20.86-68.89 11.68-92.14-11.52-18.81-18.77-23.43-40.01-26.87-65.26-.33-2.43.28-5.21 0-7.68l159.32 28.79Z" class="cls-8"/><path d="M2812.07 2009.72c-3.19 3.42-10.55 1.88-15.36 1.92 3.31-3.77 10.5-1.41 15.36-1.92Zm11.52-1.92c-1.64 3.11-6.52 1.81-9.6 1.92 1.65-.2 6.25-1.42 9.6-1.92Zm21.11-3.84c-1.64 3.11-6.52 1.81-9.6 1.92 1.85-.23 5.61-1.49 9.6-1.92Zm7.68-1.92c-.3.02-2.81 1.63-5.76 1.92l5.76-1.92Zm-82.54 9.6-5.76 1.92c.35-.07 1.92-1.62 5.76-1.92Zm61.43-5.76-5.76 1.92c.3-.04 2.34-1.45 5.76-1.92Zm-80.62 13.44c.49-.35.91-1.29 1.92-1.92l-1.92 1.92Zm3.84-1.92c.38-.21.84-1.42 1.92-1.92l-1.92 1.92Zm3.84-1.92c.13-.05.45-1.51 1.92-1.92l-1.92 1.92Z" class="cls-16"/><path d="M2815.91 1007.74c8.96 44.92 22.07 89.62 26.7 135.16-6.3 26.45-22.96 32.51-47.82 33.76-30.06 1.51-50.62-2.87-70.98-25.96-2.5-2.83-5.7-10.25-7.73-11.49-4.91-3.01-10.33 1.31-15.35.98-17.47-1.16-39.29-36.22-28.79-51.83 3.64-5.42 16.9-9.97 23.48-9.24 17.41 1.95 15.39 18.54 20.62 21.87 7.31 4.66 24.53-25.11 24.93-30.97.72-10.65-10.67-26.18-5.68-37.33 4.3-9.62 22.11-21.73 32.63-23.03 2.98-.37 6.47.14 9.6 0 6.98-.32 14.15.48 21.11 0 4.97-.34 12.73-.63 17.28-1.92Z" class="cls-8"/><path d="m2794.8 1176.66 11.52 95.98c-.85.23-6.48 5.52-9.52 6.8-38.04 16.05-68.12 12.38-106.8.98-3.09-.91-4.32-3.86-4.61-3.94l15.36-136.28c5.01.33 10.44-3.98 15.35-.98 2.03 1.24 5.24 8.66 7.73 11.49 20.36 23.09 40.92 27.47 70.98 25.96Z" class="cls-2"/><path d="M2696.9 965.51c-.76 6.4 2.7 11.38 5.44 16.64 8.7 16.71 21.06 36.25 32.95 50.55-4.99 11.15 6.4 26.68 5.68 37.33-.39 5.86-17.62 35.63-24.93 30.97-5.23-3.33-3.21-19.92-20.62-21.87-6.58-.74-19.84 3.82-23.48 9.24-14.83-5.57-20.92-23.02-15.16-37.24 3.36-8.29 13.07-11.61 13.4-21.37.28-8.29-9.46-14.67-11.23-23.4-3.16-15.58 3.82-24.19 14.92-33.16l1.92-1.92c.43-.29 1.43.28 1.92 0 .73-.43 1.28-1.59 1.92-1.92 1.09-.57 2.96-.35 3.84-1.92.54-.18 1.28.15 1.92 0 1.66-.39 3.5-1.88 3.84-1.92 2.34-.28 5.21-.01 7.68 0Z" class="cls-9"/><path d="M2815.91 1007.74c-4.55 1.29-12.31 1.58-17.28 1.92-.44-5.7-4.49-11.74-7.35-16.65-6.7-11.49-19.13-35.3-26.7-44.32-2.58-3.08-3.24-5.13-8.18-4.3.63-1.67.23-4.25 1.49-7.07 11.54-25.9 51.34-25.13 69.58-5.46 23.01 24.8 27.32 64.87-11.57 75.87Z" class="cls-7"/><path d="M2798.64 1009.66c-6.96.48-14.13-.32-21.11 0-1.26-3.03-8.33-3.03-9.6 0-10.52 1.3-28.33 13.42-32.63 23.03-11.89-14.3-24.25-33.83-32.95-50.55-2.74-5.25-6.2-10.24-5.44-16.64 9.95.04 24.39 5.48 31.26 3.44 2.99-.89 5.17-5.17 8.93-6.43 4.2-1.42 8.39.04 12.72-2.64 5.03-3.11 4.58-10.14 6.59-15.49 4.94-.84 5.6 1.22 8.18 4.3 7.57 9.02 20 32.83 26.7 44.32 2.86 4.91 6.9 10.95 7.35 16.65Z" class="cls-1"/><path d="M2683.47 967.43c-.88 1.57-2.75 1.35-3.84 1.92 1.75-1.19 1.76-1.21 3.84-1.92Zm5.75-1.92c-.34.04-2.17 1.53-3.84 1.92l3.84-1.92Z" class="cls-7"/><path d="M2673.87 973.19c.68-.55 1.18-1.42 1.92-1.92l-1.92 1.92Zm3.84-1.92c.61-.64 1.18-1.42 1.92-1.92-.64.33-1.19 1.49-1.92 1.92Z" class="cls-16"/><path d="m1662.29 884.89 3.93 8.54c44.75 26.32 86.21 61.97 130.59 88.23 3.61 2.13 7.05 4.47 11.36 4.96-.54 2.89.41 6.79-.23 10.26-5.9 31.72-12.8 63.3-17.04 95.31-4.92-1.72-80.14 48.1-82.54 61.42v1.92c-3.98.75-14.51 21.71-17.28 26.87-3.99.61-6.09-1.62-9.06-3.41-43.1-25.93-108.77-67.6-147.08-98.63-2.67-2.16-5.17-3.23-5.1-7.37 7.95-3.16 15.88-6.72 23.96-9.63 44.02-15.9 102.39-20.56 116.17-72.9.87-3.31 2.96-6.08 3.63-10.77 2.26-16.02.74-32.89 5.95-48.74-3.26.54-3.42 3.76-4.36 6.18-5.98 15.44-3.06 36.82-7.14 53.32-12.75 51.56-106.09 64.54-149.72 82.54-5.99-15.36-33.73-17.47-36.47-34.55 19.23-10.19 38.59-17.82 59.51-23.99 44.23-13.05 73.26-9.93 85.88-63.84 8.3-35.45 6.28-41.06 35.05-65.73Z" class="cls-1"/><path d="M1923.34 792.75c-2.93-3.96-17.37-16.4-22.18-17.17-40.83-6.52-60.68 23.59-62.34 60.27-.44 9.76 4.27 20.94-.93 27.91-9.85 2.09-25.82-51.33-47.03-24.01-14.19 18.27 10.38 30.48 16.21 41.43 5.41 10.16 5.66 22.7 16.45 32.5-4.53 22.24-8.59 44.65-12.76 66.99-.48 2.56-2.39 4.87-2.59 5.96-4.31-.49-7.75-2.83-11.36-4.96-44.38-26.25-85.84-61.91-130.59-88.23l-3.93-8.54c6.25-5.36 9.67-9.32 17.42-14.25 16.34-10.37 55.65-25.95 66.23-39.34 4.47-5.67 5.66-18.85 8.41-26.14 15.31-40.59 35.67-91.16 80.78-105.41 59.51-18.81 133.34 29.85 88.21 93.01Z" class="cls-9"/><path d="M1923.34 792.75c4.36 5.89 14.34 27.47 17.61 35.18 21.31 50.32 32.73 127.3-46.4 118.38-18.77-2.11-57.06-19.95-71.02-32.63-10.79-9.8-11.04-22.34-16.45-32.5-5.83-10.95-30.39-23.16-16.21-41.43 21.21-27.32 37.17 26.1 47.03 24.01 5.2-6.97.48-18.15.93-27.91 1.66-36.68 21.51-66.79 62.34-60.27 4.82.77 19.25 13.2 22.18 17.17Z" class="cls-14"/><path d="M1894.55 946.32c0 3.84-.01 7.68 0 11.52-6.9 30.1-6.18 61.69-11.52 92.14-.41 2.36.49 5.1-.47 8.09-6.54 20.5-67.53 41.6-86.93 37.95-3.91-.74-4.45-3.71-4.74-3.81 4.25-32.01 11.14-63.59 17.04-95.31.65-3.47-.31-7.37.23-10.26.2-1.08 2.11-3.39 2.59-5.96 4.18-22.33 8.24-44.74 12.76-66.99 13.96 12.68 52.25 30.52 71.02 32.63Z" class="cls-5"/><path d="M1890.71 1046.13c-.45.27.8 6.33-7.68 3.84 5.34-30.45 4.62-62.03 11.52-92.14.02 7.62-1.92 16.68-1.92 22.07v40.31c0 .66-1.82 3.2-1.99 5.68-.45 6.69.43 13.54.07 20.23Zm-168.92 362.79c-36.3-22.91.12-88.94 15.7-115.78 6.7-11.54 17.42-29.65 25.73-39.53 2.23-2.65 4.38-6.45 8.46-5.92 19.55 53.21 29.88 110.2 23.05 167-23.11 2.6-51.23 7.94-72.94-5.76Zm-13.43-255.3c4.44 6.49.34 1.86 0 1.92v-1.92Z" class="cls-7"/><path d="M1529.84 1073c-35.48 14.11-70.48 25.55-88.06 62.62-19.07 40.19-11.54 95.03 20.83 126.5 6.06 5.9 18.21 16.54 26.91 12.43.81 5.02-.89 3.95-4.84 3.92-26.53-.18-53.76-54.51-56.36-78.03-7.89-71.16 30.72-102.99 90.01-127.44 43.63-18 136.97-30.98 149.72-82.54h1.92c-13.78 52.35-72.15 57-116.17 72.9-8.08 2.92-16 6.47-23.96 9.63Z" class="cls-15"/><path d="M1472.96 1129.34c-19.16 22.47-22.99 50.12-13.13 77.99 3.67 10.37 12.14 19.85 14.34 30.75-28.65-32.46-33.63-86.22 2.91-115.16 3.57 3.47-2.75 4.82-4.11 6.42Z" class="cls-16"/><path d="M2777.52 1009.66c-3.13.14-6.62-.37-9.6 0 1.26-3.03 8.33-3.03 9.6 0Z" class="cls-7"/><path d="M1669.97 990.46h-1.92c4.08-16.51 1.16-37.88 7.14-53.32.94-2.43 1.1-5.64 4.36-6.18-5.21 15.84-3.69 32.71-5.95 48.74-.66 4.69-2.75 7.46-3.63 10.77Z" class="cls-16"/></svg>