<svg xmlns="http://www.w3.org/2000/svg" id="Livello_1" data-name="Livello 1" viewBox="0 0 3710.4 3710.4"><defs><style>.cls-1{fill:#1b1091}.cls-2{fill:#fc817a}.cls-3{fill:#4c51c7}.cls-4{fill:#110770}.cls-6{fill:#180e89}.cls-7{fill:#e2e9fd}.cls-8{fill:#494bf1}.cls-9{fill:#7f98f4}.cls-10{fill:#ff9690}.cls-11{fill:#0d0366}.cls-12{fill:#e9effd}.cls-13{fill:#4e50f8}.cls-14{fill:#91b3fa}.cls-15{fill:#ffd0cd}.cls-16{fill:#bdd0fb}.cls-17{fill:#fd820e}.cls-18{fill:#4446e6}</style></defs><path d="M3710.4 0v3710.4H0V0h3710.4ZM1316.78 585.45c-202.32-118.73-448.16 70.28-387.74 297.52-9.74 5.09-19.27 15.77-26.92 23.94-44.69 47.68-89.75 103.01-128.2 155.88-146.91 201.98-237.2 446.94-274.84 693.55-3.98 2.9-11.47 11.42-15.36 15.36-50.54 51.12-55.46 134.26-5.76 188.11 1.14 41.83-1.49 83.98-.08 125.81 6 177.66 45.91 366.67 121.31 527.58 1.33 2.83 1.01 5.97 5.45 5.01 1.04 63.63.34 127.35 1.91 191 .97 8.64 6.66 19.61 12.38 26.01 2.41 2.71 6.5 2.62 6.82 5.65H469.31c-3.68 0-6.48 8.8-6.84 12.36-2.09 21.02-2.58 77.7.02 98.1.66 5.21 1.48 6.03 5.86 8.55 1.06.61 1.92 2.21 3.84 1.92h403.1c0 1.64 3.97 9.24 1.92 13.44-58.39-2.95-55.01 32.48-55.67 76.78-.48 32.59.36 65.3 0 97.89-38.39.13-76.9-.81-115.27.86-15.97 8.1-12.51 32.74 6.77 33.74 273.54-.38 547.12.34 820.63-.05-1.1 6.08 3.01 3.23 6.58 3.89 141.28 25.93 285.45 40.45 429.15 34.5.17 5.15-.71 10.95.41 15.92 2.71 12.05 28.39 16.07 38.86 16.8l729.57-.02c9.96-1.47 35.09-4.46 37.31-16.43.52-2.79-.67-14.35.05-14.35h463.56c11.91 0 31.38-16.71 31.71-29.71l.04-844.7c-4.34-33.92-31.44-31-57.66-31.59 93.33-358.67 56.02-750.81-97.89-1086.44 3.96-2.75 17.03-11.01 17.34-14.38l-23.25-90.08c-.98-2.08-2.5-2.66-4.65-3.03-14.74-2.54-33.42-2.32-48.95-3.84.51-3.97-1.35-6.3-3.02-9.44-7.67-14.43-18.03-30.21-26.89-44.14-15.05-23.65-31.06-47.76-48.78-69.26 1.43-7.51 7.65-35.75 4.82-40.34-24.12-12.43-47.66-30.81-72-42.19.71-4.34-1.4-5.87-3.76-8.71-10.77-12.96-23-26.09-34.58-38.37-34.98-37.09-73.52-70.53-111.38-104.56 1.86-.11 7.33.34 7.67 0 .76-.78.25-5.29-1.87-6.75-2.57-1.77-16.81-1.15-21.16-.92-.16-4.06-3.09-6.22-5.74-8.67-11.54-10.64-29.41-22.9-42.46-32.39-359.55-261.54-916.07-347.28-1325.55-158.91-18 8.28-38.46 17.97-54.37 29.13Zm1522.16 186.18c1.24-1.18.22-6.01-3.28-7.26-4.13-1.48-30.16-6.57-31.25-1.34-1.37 6.54 33.2 9.85 34.53 8.6Zm57.58 7.72c-.65-.94-19.8-7.13-21.09-.96-.89 4.22 17.06 8.75 18.1 8.54 2.53-.52 4.09-5.99 3-7.57Zm264.89 199.59c2.62-2.44-8.99-19.92-12.44-19.18-8.2 1.78 6.36 24.84 12.44 19.18Zm30.81 63.28c2.78 1.84 8.16-.39 6.76-5.77-.48-1.83-12.56-23.88-13.59-24.84-6.4-6-7.79-1.05-5.78 5.78.66 2.23 11.45 24.06 12.61 24.83Zm24.54 34.96c-1.84-1.07-5.07-.08-7.35-.33-1.14 1.06 8.42 27.56 9.81 29.52 1.75 2.46 5.71 4.89 7.44 3.09s-8.33-31.36-9.91-32.28Zm21.47 103.31c2.35 1.53 7.21-.36 7.3-4.34.06-2.64-5.97-37.68-13.07-30.2-1.21 1.27 4.31 33.58 5.77 34.54Zm5.73 38.39v29.75c0 4.14 5.59 7.39 8.7 2.93 1.36-1.95-1.31-30.72-2.83-31.83-1.89-1.38-3.81-.81-5.87-.85Zm7.67 72.95c-8.95-8.81-9.31 29.88-9.58 34.55h7.65l1.93-34.55Zm-9.6 72.95c-3.24-3.32-7.22 2.8-8.29 6.09-1.36 4.19-7.71 27.27-2.23 28.44 6.26 1.34 12.1-32.9 10.52-34.53Zm-30.95 103.38c1.28-.81 11.08-25.77 11.42-28 .38-2.51-.11-5.74-2.56-6.28-5.71-1.24-16.96 32.01-14.36 34.54.21.2 4.72.23 5.5-.26Z" style="fill:#fff"/><path d="M2744.89 756.28c-2.95.16-18.31 1.19-9.66 6.78 2.7 1.75 20.3 1.19 25.01.9 37.87 34.03 76.4 67.47 111.38 104.56 11.58 12.28 23.81 25.4 34.58 38.37 2.36 2.84 4.47 4.37 3.76 8.71-4.78-2.24-6.4-6.14-13.4-2.86-15.5 11.95-29.83 27.49-45.2 39.28-3.67 2.82-8.84 7.9-13.16 7.73-32.6-10.66-66.85-13.56-100.99-14.41-6.45-8.13-38.16-62.67-43.55-64.02l-87.01 21.78c-4.67 1.44-6.82 5.03-7.54 9.74-3.08 20.15-1.81 44.46-4 65.1-.09 2.17-1.44 3.45-2.68 5-3.26 4.09-34.96 21.68-43.18 27.84-13.41 10.06-25.52 21.93-38.01 33.08-14.15 2.44-68.17-16.7-77.32-12.17-5.34 2.64-34.97 60.6-42.55 70.75-2.11 2.83-3.22 5.12-7.36 5.12-165.83-62.4-349.6 50.81-360.87 228.42l-652.63 17.28-10.25-2.22-97.24-63.05c-2.16-61.46-60.73-103.74-119.01-99.81-1.27.09-2.58-.13-3.84 0l-3.84 1.92c-58.92 9.41-97.68 65.32-88.3 124.77l-53.82 46.95-17.2 1.04c-9.07-.69-16.15 1.92-23.91 2-74.47.75-148.45 3.58-222.66 5.76-49.24 1.45-101.37-11.9-132.37 36.55-3.77 5.88-9.62 17.22-10.55 24.01-4.86 35.46 1.48 80.82 1.83 116.84.38 39.7-.92 79.48-.16 119.17.23 11.82 5.71 40.2.18 49.93-2.62 4.62-10.67 7.67-13.54 12.38-12.01.39-40.06 8.62-51.83 13.44-1 .41-1.55 1.76-1.92 1.92-.54.24-1.39-.24-1.92 0-1.08.49-1.58 1.75-1.92 1.92-.51.26-1.42-.26-1.92 0-1.06.56-1.55 1.71-1.92 1.92-4.13 2.35-12.17 5.36-15.36 7.68 37.64-246.61 127.93-491.57 274.84-693.55 38.46-52.87 83.51-108.2 128.2-155.88 7.66-8.17 17.18-18.85 26.92-23.94 47.38 178.19 268.24 252.22 414.45 139 146.49-113.44 133.47-342.52-26.71-436.52 15.9-11.16 36.37-20.85 54.37-29.13 409.48-188.37 965.99-102.64 1325.55 158.91 13.05 9.49 30.93 21.75 42.46 32.39 2.65 2.44 5.57 4.61 5.74 8.67ZM1570.15 777.4c-113.14 193.17 52.66 417.85 270.65 378.14 1.4-.25 1.79-1.89 1.92-1.92 1.72-.35 4.08.37 5.76 0 1.51-.33 1.79-1.89 1.92-1.92 1.65-.4 4.15.41 5.76 0s1.79-1.88 1.92-1.92c1.09-.3 2.77.31 3.84 0 1.43-.41 1.79-1.88 1.92-1.92 1.52-.46 4.3.48 5.76 0 1.55-.51 1.79-1.88 1.92-1.92.57-.2 1.35.2 1.92 0 1.07-.38 1.65-1.82 1.92-1.92 2.46-.9 6.57-.69 9.6-1.92 1.01-.41 1.56-1.77 1.92-1.92 1.69-.72 3.73-1 5.76-1.92.87-.4 1.43-1.69 1.92-1.92.52-.25 1.4.25 1.92 0 1.07-.52 1.59-1.75 1.92-1.92 1.46-.73 3.76-.86 5.76-1.92.87-.46 1.4-1.63 1.92-1.92.49-.27 1.43.27 1.92 0 1.04-.59 1.55-1.7 1.92-1.92 43.92-25.64 81.04-59.12 103.65-105.57 1.24-2.55 2.77-5.06 3.84-7.68s2.26-4.74 1.92-7.68c12.18-11.52 22.02-67.23 23.11-85.34 16-265.06-337.23-375.59-472.28-145Zm1092.2-7.69c.99 1.02 25.06-2.52 28.17-3.49 9.95-3.11 8.14-8-1.65-7.54-3.15.15-25.55 2.46-26.49 3.41-.27.27-.29 7.34-.02 7.62Zm-71.03 15.36c1.85 1.89 24.37-4.14 28.15-5.44 2.43-.83 7.22-1.14 6.4-5.08-1.29-6.17-17.03-.59-20.64.43-3.32.93-19.16 4.73-13.91 10.09Zm-34.62 15.27c1.5-2.14-.4-7.69-4.37-7.31-2.59.25-19.19 8.24-22.48 10.23-7.98 4.82-7.57 9.7 1.57 7.36 2.66-.68 24.5-9.16 25.28-10.28Zm-65.19 25.06c-2.36-2.39-31.56 14.15-30.69 18.2.92 4.27 6.39 2.49 9.04 1.41 3.54-1.46 26.15-15.05 21.65-19.6ZM2432 865.71c-2.27-2.45-22.98 13.99-24.91 16.34-2.42 2.95-2.25 5.03-1.95 8.59 4.02.97 5.13-1.06 7.72-2.82 2.9-1.97 16.26-12.36 17.87-14.29s1.99-7.04 1.27-7.83Zm-53.75 49.9c-3.8-3.96-22.2 17.55-24.01 21.09-1.33 2.61-.14 5.32 1.97 5.76 2.47.51 26.84-21.85 22.04-26.85Zm-44.14 55.67c-7.05-6.73-24.97 26.97-23.01 28.77.72.67 5.92.44 7.84-1.24 1.71-1.49 16.85-25.94 15.18-27.53Zm-38.39 61.42c-5.67-5.9-15.49 19.92-16.32 23.01-1.6 5.92-.16 12.91 5.7 5.7 1.95-2.4 12.34-26.92 10.62-28.71Z" class="cls-12"/><path d="M2909.97 915.6c24.35 11.38 47.88 29.77 72 42.19 2.83 4.6-3.39 32.84-4.82 40.34-1.78 9.34-10.48 32.07-6.69 40.27 1.54 3.33 23.37 24.39 28.56 30.95s9.99 13.2 14.65 19.9c3.59 5.17 13.92 25.83 16.24 27.91 4.74 4.26 19.65 3.2 25.94 3.81 15.53 1.52 34.21 1.29 48.95 3.84 2.15.37 3.67.95 4.65 3.03l23.25 90.08c-.3 3.37-13.38 11.63-17.34 14.38-7.05 4.9-45.19 26.9-47.04 30.7-.96 24.58-1.57 48.84-6.71 72.95-31.86-25.77-62.57-25.52-101.73-24.95 7.09-55.03-.6-107.97-29.9-155.33-4.39-7.09-22.82-33.34-28.56-36.73-5.05-2.99-11.29 0-10.48 4.64.26 1.48 16.8 18.39 19.83 22.51 23.68 32.14 37.62 70.34 41.42 110.23l-1.9 56.61c-44.74.75-89.64.77-134.37 1.92 34.44-63.02-8.51-134.84-81.65-128.68-62.38 5.26-95.25 82.42-58.48 132.52-2.11.09-4.83-.59-5.76 1.92-1.28.03-2.56-.02-3.84 0h-1.92c-37.87.49-75.52.05-113.25 1.92-2.52-21.33-9.54-45.26-17.28-65.26 3.54-11.18 3.92-23.15 6.71-34.56 21.98-89.81 101.67-157.45 194.84-159.3v-11.53c-105.21 4.54-191.67 82.99-209.24 186.2-27.34-56.47-83.24-108.4-142.04-130.53 4.14 0 5.25-2.29 7.36-5.12 7.57-10.15 37.2-68.11 42.55-70.75 9.16-4.53 63.17 14.61 77.32 12.17 12.49-11.14 24.6-23.02 38.01-33.08 8.22-6.16 39.92-23.75 43.18-27.84 1.24-1.55 2.59-2.83 2.68-5 2.19-20.64.92-44.95 4-65.1.72-4.7 2.87-8.3 7.54-9.74l87.01-21.78c5.4 1.35 37.1 55.88 43.55 64.02 34.13.84 68.38 3.75 100.99 14.41 4.32.17 9.48-4.91 13.16-7.73 15.36-11.78 29.69-27.33 45.2-39.28 7-3.28 8.62.62 13.4 2.86Z" class="cls-14"/><path d="M2558.7 2316.84c28.7-.75 57.66.13 86.38 0 73.54-.33 147.21-.21 220.74 0 57.04.16 114.04 1.46 170.84 1.92 14.69.12 29.46-.13 44.15 0 44.08.4 88.39-.99 132.45 0 26.23.59 53.33-2.33 57.66 31.59l-.04 844.7c-.33 13-19.8 29.71-31.71 29.71h-463.56c-.72 0 .47 11.56-.05 14.35-2.22 11.97-27.36 14.96-37.31 16.43l-729.57.02c-10.46-.73-36.15-4.75-38.86-16.8-1.12-4.97-.23-10.77-.41-15.92-2.93-86.6-2.86-174.44-3.84-261.05-.59-52.48-.94-105.22-1.92-157.4-.41-22-1.19-45.65 1.92-67.18 1.04-.02 12.94-7.52 18.8-9.03 12.41-3.19 22.51-2.13 34.94-2.49 70.99-2.01 143.77.13 214.98 0 36.44-.07 72.97.03 109.41 0 53.72-.04 107.53.03 161.25 0l-1.81-382.83c8.62-27.26 32.25-25.43 55.54-26.04Zm216.9 848.42c.1 7.66-.07 15.39 0 23.04 58.56-.56 116.98-3.12 175.72-1.85 76.61-7.94 161.82 2.96 237.91-3.95 21.06-1.91 37.83-12.75 39.46-35.4.99-206.09.35-412.16 1.75-618.25.3-43.84 5.95-90.45 2.09-134.35-1.92-21.78-19.35-31.39-39.36-33.58l-618.23-1.93c-14.94.69-31.7 12.44-33.56 27.87-7.14 59.38 8.11 131.2 1.88 192.07 4.49 48.6.11 98.11 3.91 146.77 8.29.06 16.67-.11 24.96 0 4.47.05 8.96-.02 13.44 0 48.38.24 105.42-3.91 152.57.03 12.42 1.04 27.43 4.43 36.51 13.4 2.35 138.17.13 276.45.95 414.62.02 3.84-.05 7.68 0 11.52Zm-745.22-414.11c-35.81 6.64-24.93 24-24.42 50.29 2.42 124.29 6.86 248.33 11.52 372.38 1.03 27.57-10.25 51.43 22.87 59.67 17.1 4.26 27.58.91 43.2.79 203.59-1.48 406.89-1.83 610.55-3.69 16.06-2.53 35.66-4.41 37.45-23.97 4.04-44-.67-98.67-.17-144.13.69-62.41 1.34-125.42 1.92-188.11.3-33 5.4-68.62 2.12-101.77-.67-6.82-2.89-10.43-9.04-13.99-16.86-9.77-47.43-5.27-66.98-5.97-208.96-7.42-419.67.98-629.02-1.5Z" class="cls-9"/><path d="M3213.25 2318.76c-44.06-.99-88.36.4-132.45 0 2.68-32.87 1.04-65.88 1.84-98.93 4.78-196.42 11.15-393.64 15.44-590.17 9.42-1.09 10.14-15.49 0-9.6 1-45.75 1.09-91.54 1.84-137.32.93-56.67 12.12-105.98-38.31-146.76 5.13-24.11 5.75-48.38 6.71-72.95 1.85-3.8 39.99-25.8 47.04-30.7 153.92 335.62 191.23 727.77 97.89 1086.44Zm-25.89-817.7c-1.5.35-15.58 24.83-15.97 26.32-1.76 6.78 2.77 7.94 7.76 1.96 2.35-2.81 20.3-31.11 8.21-28.28Zm-35.55 61.43c-3.38-.69-4.73 1.74-6.73 3.8-1.72 1.76-14.81 18.11-15.33 19.22-1.4 2.97-1.01 7.08 1.95 7.66s24.82-25.26 20.12-30.69Z" class="cls-7"/><path d="M627.68 2044.27c-16.31 7.08-30.98 21.39-26.47 40.87 1.42 6.15 47.21 59.11 55.26 68.54 3.67 44.94 1.25 90.26 1.84 135.4 1.12 84.93 5.37 170.07 3.84 255.29 7.37 70.53-2.59 148.68 3.84 218.83 2.15 23.5 18.2 38.61 41.37 41.17l340.69.02v97.89c-41.83.12-92.96-3.7-133.48-.08-14.6 1.3-27.71 10.64-33.32 24.26-2.97 7.2-5.96 27.74-5.95 35.32H472.2l-3.84-1.92c-4.38-2.52-5.19-3.34-5.86-8.55-2.6-20.4-2.11-77.08-.02-98.1.35-3.56 3.15-12.36 6.84-12.36h156.44c-.32-3.04-4.41-2.94-6.82-5.65-5.71-6.41-11.4-17.37-12.38-26.01-1.57-63.64-.87-127.37-1.91-191-3.32-202.71-9.6-405.86-9.6-608.48 13.3 7.11 22.84 23.22 32.63 34.55Z" class="cls-6"/><path d="M1965.57 2961.79c.98 86.61.91 174.45 3.84 261.05-143.7 5.94-287.87-8.58-429.15-34.5-3.57-.65-7.68 2.19-6.58-3.89 80.63-.12 161.37.77 241.99-.83 17-5.14 17.36-25.08 2.35-33.33-38.56-.82-77.19-.27-115.73-.4v-59.5c0-20.49 3.52-76.04-3.51-91.51-10.37-22.84-30.79-23.06-52.16-23.66-2.05-4.16 1.93-11.86 1.92-13.44h357.03Z" class="cls-7"/><path d="M877.21 2975.23c242.82 5.14 486.69-6.86 729.41 0 21.37.6 41.79.82 52.16 23.66 7.02 15.47 3.51 71.02 3.51 91.51-4.52 1.03-3.85-3.74-7.07-5.33-9.44-4.66-32.31-1.67-43.87-2.26-129.18-6.64-258.6-13.45-387.58-19.35-32.96-1.51-66.03-1.58-98.93-3.76-.06-15.97.04-32.02 0-47.99h-26.87c-.24 31.32.32 62.74 0 94.06-.07 6.97 1.15 39.51-.84 42.35s-7.53 1.7-10.68 1.81c-.05-14.05.06-28.19 0-42.24-.15-31.96.11-64.02 0-95.98h-26.87c-.72 30.64.97 61.52 0 92.14 0 .25-1.9 2.17-2 4.65-.52 13.76.53 27.68.09 41.43h-9.62c-.02-17.25.06-34.59.01-51.84-.09-28.76.07-57.62 0-86.38h-26.87c-.04 18.52.05 37.14 0 55.67h-24.95c-.05-18.52.04-37.14 0-55.67h-67.18c-.05 14.69.06 29.46 0 44.15-6.27 2.02-15.91-1.92-20.15-1.92H868.6c-5.44 0-16.53-3.97-23.03-4-7.23-.04-15.92 3.86-23.99 2.08.66-44.3-2.72-79.73 55.67-76.78Zm439.57-2389.78c160.18 94 173.2 323.08 26.71 436.52-146.21 113.22-367.07 39.19-414.45-139-60.42-227.24 185.42-416.26 387.74-297.52Zm-88.29-5.75c-2.7-2.86-53.14-4.37-60.55-3.93-73.98 4.41-164.38 56.36-194.54 126.02-3.78 8.74-.49 13.5 4.14 6.02 7.97-12.87 14.25-25.61 23.67-37.71 45.2-58.09 119.84-92.24 193.76-88.57 5.13.25 32.34 5.12 33.51 3.91.2-.21.21-5.53 0-5.74Zm-65.67 25.51c-150.44 14.47-234.47 187.06-161.84 318.11 80.52 145.28 292.77 146.69 374.38 1.93 87.82-155.78-36.38-336.98-212.54-320.04Zm-212.65 162.6c-.22 3.86-7.74 36.57-.97 36.43 2.67-.06 7.06-28.65 6.77-31.63-.33-3.29-2.36-5.36-5.79-4.79Z" class="cls-3"/><path d="M595.05 2005.88v3.84c0 202.63 6.28 405.77 9.6 608.48-4.44.96-4.13-2.18-5.45-5.01-75.41-160.91-115.32-349.92-121.31-527.58-1.41-41.83 1.21-83.97.08-125.81 29.56 32.03 67.53 44.7 110.44 44.16 2.48-.03 6.31 1.99 6.65 1.91Z" class="cls-12"/><path d="M1048.05 2902.29c129.84-.38 259.82-.42 389.66 0 46.69.15 93.5-.87 140.18.91 26.48 11.13 27.76 26.29 28.74 51.97.1 2.7 1.91 5.68 1.92 6.63 0 1.58-3.97 9.28-1.92 13.44-242.72-6.86-486.59 5.14-729.41 0 2.05-4.19-1.92-11.8-1.92-13.44 0-7.58 2.98-28.12 5.95-35.32 5.61-13.62 18.72-22.96 33.32-24.26 40.53-3.62 91.66.2 133.48.08Z" class="cls-3"/><path d="M996.22 3092.32c.05 19.17-.03 38.43 0 57.6l23.86.02c2.1-19.02 1-38.49 1.11-57.62l26.87 5.76c.05 17.25-.03 34.59-.01 51.84h9.62c.44-13.75-.61-27.67-.09-41.43.09-2.48 1.99-4.39 2-4.65l26.87 3.84c.06 14.05-.05 28.19 0 42.24 3.15-.11 8.76.94 10.68-1.81s.77-35.38.84-42.35c9.07 1.92 17.07 7.37 26.87 5.76.07 12.77-.04 25.63 0 38.4 179.12.41 358.35-.59 537.47 0 38.55.12 77.18-.43 115.73.4 15.01 8.25 14.65 28.19-2.35 33.33-80.62 1.6-161.36.71-241.99.83-273.51.39-547.09-.33-820.63.05-19.28-1-22.74-25.64-6.77-33.74 38.37-1.67 76.89-.73 115.27-.86 13.59-.05 101.36 2.18 105.69-.84 1.97-1.37 1.64-3.73 1.89-5.79 2.27-18.83-.2-46.32-.09-66.32l67.18 15.36Z" class="cls-1"/><path d="M708.3 1821.61c6.74 19.45 9.52 40.84 7.68 61.42-.26 2.94-1.35 10.61-1.92 13.44-6.59 32.76-27.61 61.35-53.75 80.62 2.2-12.69-8.85-18.09-15.36-26.87 45.35-35.92 51.44-105.69 14.42-149.74-38.52-45.83-112.87-49.44-154.54-5.73-9.15-3.65-17.96-13.93-21.11-23.03 3.89-3.93 11.38-12.46 15.36-15.36 3.18-2.32 11.22-5.33 15.36-7.68l1.92-1.92c.5-.26 1.41.26 1.92 0l1.92-1.92c.53-.24 1.38.24 1.92 0l1.92-1.92c11.77-4.82 39.82-13.04 51.83-13.44 56.08-1.83 114.3 39.8 132.45 92.14Z" class="cls-18"/><path d="M504.83 1794.74c-90.08 94.47 40.97 234 140.12 155.48 6.51 8.78 17.56 14.18 15.36 26.87-21.49 15.84-35.63 20.79-62.02 25.4-2.34.41-3.02 3.33-3.25 3.39-.34.08-4.16-1.94-6.65-1.91-42.92.54-80.88-12.13-110.44-44.16-49.7-53.85-44.78-136.99 5.76-188.11 3.16 9.1 11.96 19.39 21.11 23.03Z" class="cls-13"/><path d="M929.04 3055.85c-.03 7.02.04 14.09 0 21.11-.11 19.99 2.36 47.49.09 66.32-.25 2.06.08 4.42-1.89 5.79-4.34 3.02-92.11.79-105.69.84.36-32.59-.48-65.31 0-97.89 8.07 1.78 16.76-2.12 23.99-2.08 6.5.03 17.59 4 23.03 4h40.31c4.24 0 13.88 3.94 20.15 1.92Z" class="cls-3"/><path d="M3055.85 1120.99c-6.28-.61-21.2.44-25.94-3.81-2.32-2.08-12.65-22.75-16.24-27.91-4.66-6.7-9.58-13.51-14.65-19.9s-27.03-27.62-28.56-30.95c-3.79-8.2 4.91-30.94 6.69-40.27 17.73 21.5 33.73 45.61 48.78 69.26 8.87 13.93 19.22 29.71 26.89 44.14 1.67 3.15 3.53 5.48 3.02 9.44Z" class="cls-7"/><path d="M3192.22 1042.22c-1.16-.77-11.96-22.6-12.61-24.83-2.01-6.83-.62-11.78 5.78-5.78 1.03.97 13.12 23.01 13.59 24.84 1.4 5.38-3.98 7.61-6.76 5.77Zm18.86 425.94c-.78.49-5.29.46-5.5.26-2.6-2.53 8.65-35.78 14.36-34.54 2.45.53 2.94 3.77 2.56 6.28-.34 2.23-10.14 27.2-11.42 28Zm32.88-249.28c2.06.04 3.98-.53 5.87.85 1.53 1.12 4.19 29.88 2.83 31.83-3.11 4.46-8.7 1.21-8.7-2.93v-29.75Zm-5.73-38.39c-1.47-.95-6.98-33.27-5.77-34.54 7.11-7.49 13.13 27.56 13.07 30.2-.09 3.98-4.94 5.87-7.3 4.34Zm3.8 184.29c1.58 1.63-4.26 35.87-10.52 34.53-5.48-1.17.87-24.25 2.23-28.44 1.07-3.29 5.05-9.41 8.29-6.09Zm-25.27-287.6c1.58.92 11.63 30.51 9.91 32.28s-5.69-.64-7.44-3.09c-1.4-1.96-10.96-28.45-9.81-29.52 2.27.25 5.5-.74 7.35.33Zm34.87 214.65-1.93 34.55h-7.65c.26-4.67.63-43.36 9.58-34.55Zm-412.69-520.2c-1.33 1.26-35.9-2.05-34.53-8.6 1.09-5.23 27.12-.14 31.25 1.34 3.5 1.25 4.52 6.08 3.28 7.26Zm-94.05-15.35c4.35-.23 18.58-.86 21.16.92 2.12 1.46 2.63 5.97 1.87 6.75-.34.35-5.81-.1-7.67 0-4.71.29-22.31.85-25.01-.9-8.66-5.59 6.71-6.62 9.66-6.78Zm151.63 23.07c1.1 1.59-.46 7.05-3 7.57-1.04.21-18.98-4.31-18.1-8.54 1.29-6.16 20.44.02 21.09.96Zm264.89 199.59c-6.08 5.66-20.64-17.4-12.44-19.18 3.45-.75 15.05 16.74 12.44 19.18Z" class="cls-14"/><path d="M472.2 2961.79c-1.92.29-2.78-1.31-3.84-1.92l3.84 1.92Z" class="cls-18"/><path d="M977.03 1362.85c2.43.18 9.4 3.25 13.43 2.87l-43.54 38.04c-10.23 15.81 2.22 20.68 3.24 35.87-95.07 85.17-186.25 175.54-281.25 261.01-9.32 12.2-11.11 22.55-4.76 36.51 3.86 8.49 5.41 9.26 13.44 13.44 15.18 7.91 25.47 6.7 39.3-3.88 74.33-71.79 154.2-139.31 229.43-209.18 2.74 2.92 6.93 1.42 10.7 3.7 1.05.64 15.67 17.58 15.97 18.77.6 2.41-5.59 14.32-7.46 16.9L718 1818.85l-9.71 2.77c-18.14-52.33-76.37-93.97-132.45-92.14 2.87-4.71 10.91-7.76 13.54-12.38 5.53-9.73.05-38.11-.18-49.93-.76-39.68.54-79.47.16-119.17-.35-36.02-6.69-81.39-1.83-116.84.93-6.78 6.78-18.12 10.55-24.01 31-48.44 83.13-35.1 132.37-36.55 74.22-2.18 148.19-5.01 222.66-5.76 7.76-.08 14.84-2.69 23.91-2Zm-80.62 84.46c10.63-9.35 23.02-17.2 32.62-27.84-13.44-3.57-28.31.73-41.18 1.05-43.79 1.07-91.23-1-134.52 1.76-62.8 4-107.04 43.72-106.57 108.6.04 5.46 2.1 10.23 2.11 15.21.14 38.73-.27 77.49-.07 116.2 2.98.55 4.45-.29 6.8-1.82 6.98-4.52 17.29-17.39 23.9-23.12 2.23-1.93 5.12-3.52 7.68-5.76 67.94-59.33 135.7-118.98 203.47-178.51 2.35-2.07 4.07-4.27 5.76-5.76Z" class="cls-4"/><path d="M2384.02 1107.55c58.8 22.12 114.7 74.06 142.04 130.53 2.71 5.6 5.36 13.21 7.68 19.2 7.74 20 14.76 43.93 17.28 65.26 2.12 17.96 1.4 35.85 0 53.75-20.68 265.17-380.19 333.17-499.07 101.73-11.68-22.73-23.71-62.95-26.87-88.3-2.04-16.31-2.96-37.38-1.92-53.75 11.27-177.61 195.03-290.82 360.87-228.42Zm-51.81 11.53c-91.64-16.25-186.32 21.25-239.6 97.28-3.34 4.77-21.32 30.9-17.62 35.15 4.08.88 4.36-2.08 6.08-4.46 9.99-13.79 16.74-28.99 28.41-42.61 45.45-53.03 107.78-80.9 177.69-83.52l45.03 3.9v-5.74Zm-57.98 25.52c-155.94 12.87-247.01 186.88-168.86 323.19 88.01 153.51 317.07 141.6 386.48-21.11 64.64-151.51-54.08-315.58-217.62-302.08Zm-704.08-367.2c135.05-230.59 488.28-120.06 472.28 145-1.09 18.1-10.94 73.82-23.11 85.34-.35.33-4.49-.99-5.61 4.94-.68 3.59.22 2.82 3.69 2.73-1.07 2.61-2.6 5.13-3.84 7.68-5.06-.63-7.62 2.38-10.62 5.71-17.47 19.4-28.54 41.13-49.9 59.51-34.29 29.51-101.96 61.45-147.66 59.58-13.67-.56-40.14-15.46-50.9-24.07-3.13-2.51-4.33-4.46-3.89-8.58 254.6 42.37 345.62-297.44 127.98-393.83-192-85.04-374.41 136.48-256.59 309.37-4.01.58-6.76-.54-10.25-2.22-7.87-3.77-38.4-24.56-44.25-30.63-14.04-14.58-20.35-55.4-22.27-75.63-5.12-53.98 7.6-87.44 24.72-136.61 1.08-3.11 3.12-4.88.22-8.3Zm261.07-97.89c-80.92-13.81-164.45 14.39-217.9 76.75-4.79 5.58-33.85 45.48-29.72 49.92 9.24-2.69 12.85-16.82 18.4-24.77 42.16-60.39 110.84-100.14 186.02-100.15 6 0 41.66 5.59 43.2 3.99v-5.74Zm-266.83 216.91c-.15-8.62 2.92-18.05 3.33-26.49.1-2.13.9-8.19-2.36-8.04-5.29.24-6.68 29.12-6.71 34.52h5.74Z" class="cls-3"/><path d="M1145.94 1401.24c-.66 4.13-4.86 8.6-7.68 11.52-3.71 3.84-19.07 14.76-20.22 17.3-3.1 6.83 2.82 6.84 4.87 9.57 1.76 2.35 4.34 5.45 5.76 7.68 5.02 7.88 8.45 12.46 4.3 22.55-1.62 3.94-25.95 27.79-31.17 33.12-110.12 112.28-224.64 220.85-335.91 332.07-16.26 16.25-33.28 32.09-49.91 47.99 1.85-20.58-.94-41.98-7.68-61.42l9.71-2.77 247.53-241.95c1.86-2.58 8.06-14.49 7.46-16.9-.3-1.2-14.92-18.13-15.97-18.77-3.77-2.28-7.96-.78-10.7-3.7 17.88-16.61 37.56-35.35 55.69-52.76 17.55-16.86 39.71-31.71 26.85-58.57-3-6.25-5.21-9.57-11.52-13.44-10.35-6.34-19.31-7.3-30.69-2.86-7.64 2.99-28.85 22.88-36.49 29.73-1.02-15.19-13.47-20.07-3.24-35.87l43.54-38.04c-4.02.38-10.99-2.69-13.43-2.87l17.2-1.04 53.82-46.95c7.05 44.65 53.71 83.4 97.89 86.38Z" class="cls-6"/><path d="M2023.16 1335.97c-1.04 16.37-.12 37.43 1.92 53.75-37.39 1.19-74.96.79-112.37 1.84-146.74 4.12-293.44 10.01-440.45 11.6-4.21.05-10.82-1.42-13.44 1.92-5.11.06-10.25-.04-15.36 0-22.66-14.86-49.23-29.43-70.51-45.62-2.76-2.1-5.82-2.15-2.43-6.21l652.63-17.28Z" class="cls-11"/><path d="M1370.53 1353.25c-3.4 4.06-.34 4.1 2.43 6.21 21.28 16.19 47.85 30.76 70.51 45.62 7.16 4.69 13.96 10.67 21.11 15.36l-53.75 92.14c-11.02-6.23-23.51-11.08-34.55-17.28-30.63-17.17-59.94-37.47-92.14-51.83-.61-.67-1.24-1.32-1.92-1.92-3.58-3.15-6.66-5.1-11.52-5.76-4.44-4.96-12.02-8.48-17.9-11.85s-19.25-12.03-25.4-12.99c-27.35-4.27-61.04 4.94-89.14 1.8 2.82-2.92 7.02-7.39 7.68-11.52 19.77 1.33 28.6-1.32 46.07-7.68 43.61-15.89 72.68-58.43 71.02-105.57l97.24 63.05 10.25 2.22Z" class="cls-4"/><path d="M1621.98 1030.77c26.31 38.61 72.32 68.83 117.09 80.62.37.78 1.09 1.71 1.92 1.92 2.83.72 6.67 1.43 9.6 1.92-.44 4.12.77 6.08 3.89 8.58 10.76 8.62 37.23 23.51 50.9 24.07 45.7 1.87 113.37-30.07 147.66-59.58 21.36-18.38 32.43-40.1 49.9-59.51 3-3.33 5.56-6.34 10.62-5.71-22.62 46.45-59.73 79.94-103.65 105.57l-1.92 1.92c-.49.27-1.43-.27-1.92 0l-1.92 1.92c-2 1.06-4.3 1.18-5.76 1.92l-1.92 1.92c-.52.25-1.4-.25-1.92 0l-1.92 1.92c-2.03.92-4.07 1.2-5.76 1.92l-1.92 1.92c-3.03 1.23-7.14 1.02-9.6 1.92l-1.92 1.92c-.57.2-1.35-.2-1.92 0l-1.92 1.92c-1.46.48-4.24-.46-5.76 0l-1.92 1.92c-1.07.31-2.74-.3-3.84 0l-1.92 1.92c-1.6.41-4.11-.4-5.76 0l-1.92 1.92c-1.68.37-4.04-.35-5.76 0l-1.92 1.92c-217.99 39.71-383.79-184.97-270.65-378.14 2.9 3.42.86 5.19-.22 8.3-17.12 49.17-29.84 82.62-24.72 136.61 1.92 20.22 8.22 61.05 22.27 75.63 5.85 6.07 36.37 26.86 44.25 30.63 3.49 1.67 6.24 2.8 10.25 2.22Zm-477.96 157.4 3.84 24.95c-53.92 3.83-87.77 59.04-70.02 109.37 14.57 41.31 64.96 65.04 106.49 49.95 1.08 7.15.1 17.79 7.68 21.11-17.47 6.36-26.3 9.01-46.07 7.68-44.18-2.98-90.85-41.72-97.89-86.38-9.38-59.45 29.37-115.36 88.3-124.77 1.8-.29 3.47-1.88 3.84-1.92 1.26-.13 2.57.09 3.84 0Z" class="cls-8"/><path d="M1263.03 1287.99c1.66 47.14-27.42 89.69-71.02 105.57-7.58-3.33-6.6-13.97-7.68-21.11 83.02-30.16 61.64-166.3-36.47-159.32l-3.84-24.95c58.28-3.92 116.85 38.35 119.01 99.81Z" class="cls-13"/><path d="M2591.32 785.07c-5.26-5.36 10.58-9.16 13.91-10.09 3.61-1.01 19.35-6.6 20.64-.43.83 3.95-3.96 4.25-6.4 5.08-3.78 1.3-26.3 7.33-28.15 5.44Zm-257.21 186.21c1.68 1.6-13.46 26.04-15.18 27.53-1.92 1.67-7.12 1.9-7.84 1.24-1.95-1.8 15.96-35.5 23.01-28.77Zm328.24-201.57c-.27-.27-.24-7.35.02-7.62.94-.95 23.34-3.26 26.49-3.41 9.79-.46 11.6 4.43 1.65 7.54-3.11.97-27.18 4.51-28.17 3.49Zm-105.65 30.63c-.78 1.12-22.62 9.6-25.28 10.28-9.14 2.34-9.55-2.54-1.57-7.36 3.29-1.99 19.88-9.98 22.48-10.23 3.97-.38 5.87 5.16 4.37 7.31Zm-65.19 25.06c4.49 4.55-18.11 18.15-21.65 19.6-2.64 1.09-8.12 2.86-9.04-1.41-.87-4.05 28.33-20.59 30.69-18.2Zm-113.26 90.21c4.8 5-19.57 27.36-22.04 26.85-2.12-.44-3.3-3.15-1.97-5.76 1.8-3.54 20.21-25.05 24.01-21.09Zm53.75-49.9c.72.78.39 5.84-1.27 7.83s-14.97 12.31-17.87 14.29c-2.59 1.76-3.69 3.79-7.72 2.82-.3-3.57-.47-5.64 1.95-8.59 1.92-2.35 22.64-18.79 24.91-16.34Zm-136.28 166.99c1.72 1.79-8.67 26.31-10.62 28.71-5.87 7.21-7.3.22-5.7-5.7.83-3.09 10.65-28.9 16.32-23.01Z" class="cls-14"/><path d="M2019.32 1007.74c.34 2.94-.87 5.13-1.92 7.68-3.47.09-4.37.85-3.69-2.73 1.12-5.94 5.26-4.62 5.61-4.94Z" class="cls-8"/><path d="M1140.18 1188.17c-.36.04-2.03 1.63-3.84 1.92l3.84-1.92Z" class="cls-13"/><path d="m1869.6 1147.86 1.92-1.92c-.13.04-.37 1.41-1.92 1.92Zm3.84-1.92 1.92-1.92c-.27.1-.85 1.54-1.92 1.92Zm-32.64 9.6 1.92-1.92c-.13.03-.52 1.66-1.92 1.92Zm44.15-13.44 1.92-1.92c-.36.15-.91 1.51-1.92 1.92Zm7.68-3.83 1.92-1.92c-.49.23-1.05 1.52-1.92 1.92ZM522.1 1744.83c.37-.16.92-1.51 1.92-1.92l-1.92 1.92Zm1339.82-595.05 1.92-1.92c-.13.04-.49 1.51-1.92 1.92ZM518.27 1746.75c.34-.17.84-1.43 1.92-1.92l-1.92 1.92Zm1330.21-593.13 1.92-1.92c-.13.03-.41 1.59-1.92 1.92Zm55.67-21.11 1.92-1.92c-.52.28-1.05 1.46-1.92 1.92Zm3.84-1.92 1.92-1.92c-.37.22-.88 1.33-1.92 1.92Zm-11.52 5.76 1.92-1.92c-.33.17-.85 1.4-1.92 1.92ZM514.43 1748.67c.37-.21.86-1.36 1.92-1.92l-1.92 1.92Z" class="cls-9"/><path d="m1856.16 1151.7 1.92-1.92c-.13.04-.39 1.53-1.92 1.92Z" class="cls-13"/><path d="M3061.61 1335.97c50.43 40.78 39.24 90.09 38.31 146.76-.75 45.78-.84 91.58-1.84 137.32-.07 3.2.07 6.4 0 9.6-4.28 196.52-10.66 393.75-15.44 590.17-.8 33.05.84 66.07-1.84 98.93-14.69-.13-29.46.12-44.15 0 1.94-34.21.94-68.45 1.84-102.77 5.97-228.36 12.86-456.67 17.28-685.26.67-34.78 9.68-94.59-5.35-125.02-27.71-56.11-94.42-39.92-145.18-38.94-114.52 2.23-229.41 2.11-343.77 7.53-3.63.17-7.04.91-10.46 1.99 1.4-17.9 2.12-35.78 0-53.75 37.73-1.86 75.38-1.43 113.25-1.92h1.92c1.28-.02 2.56.03 3.84 0 4.37-.09 19.11 1.34 19.2-1.92 41.59-.24 83.89-2.8 124.77-3.84.64-.02 1.28.02 1.92 0 44.73-1.15 89.62-1.17 134.37-1.92 1.92-.03 3.84.02 5.76 0 .49 0 1.49-1.91 1.92-1.92h1.92c39.16-.57 69.87-.81 101.73 24.95Z" class="cls-11"/><path d="M2815.91 1314.86c-.64.02-1.28-.02-1.92 0l-11.52-.02c26.36-34.75 18.12-85.45-19.83-107.8-73.62-43.34-146.23 47.42-93.42 111.66-4.46.03-8.99-.19-13.44 0-36.77-50.1-3.9-127.26 58.48-132.52 73.14-6.16 116.09 65.66 81.65 128.68Zm-289.84-76.78c17.57-103.21 104.02-181.66 209.22-186.2v11.53c-93.16 1.85-172.85 69.49-194.83 159.3-2.79 11.41-3.17 23.38-6.71 34.56-2.31-5.98-4.96-13.59-7.68-19.2Zm433.8 72.94h-1.92l-1.92 1.92c-1.92.02-3.84-.03-5.76 0l1.9-56.61c-3.79-39.88-17.74-78.09-41.42-110.23-3.04-4.12-19.58-21.03-19.83-22.51-.81-4.64 5.43-7.63 10.48-4.64 5.74 3.39 24.17 29.64 28.56 36.73 29.3 47.36 36.99 100.3 29.9 155.33Z" class="cls-16"/><path d="M2675.79 1318.7c4.45-.19 8.98.03 13.44 0-.08 3.26-14.83 1.83-19.2 1.92.93-2.51 3.65-1.83 5.76-1.92Zm-9.6 1.92h-1.92 1.92Z" class="cls-18"/><path d="M3036.65 2318.76c-56.79-.46-113.8-1.76-170.84-1.92l.1-728.55c-.38-11.94-8.24-20.58-20.21-22.02-55.95-6.73-125.08 5.16-182.44 0-5.77.6-11.38 3.47-15.27 7.76l-2.92 282.13c-17.53-34.74-54.84-78.97-86.38-101.73l-.04-114.17c-1.12-5.84-10.88-13.25-16.73-13.98l-182.92.45c-6.01 2.49-13.37 7.09-14.89 13.9-4.01 17.91 2.13 46.67-.41 65.82-54.41 8.87-105.98 35.09-145.88 72.94l-160.32-.04c-8.66 1.25-16.54 5.62-17.73 14.9l-.46 931.46c-12.43.35-22.54-.7-34.94 2.49-5.86 1.51-17.76 9.01-18.8 9.03-19.02.35-41.87-5.07-61.42-1.92l3.94-14.3v-652.83c-3.39-12.9-15.36-17.29-27.86-18.22-56.37-4.17-117.84 3.28-174.75.08-9.15.42-16.59 6.28-19.75 14.8l-.5 656.15 2.01 14.31c-8.38-1.35-65.6-1.61-72.94 0l3.94-12.38v-792.94c.54-11.02-9.99-18.87-20.21-20.11-55.8 3.78-117.83-4.89-172.88-.03-7.64.67-18.55 3.22-21.14 11.5l-.86 646.97c-11.49-26.57-37.46-56.91-61.42-72.94 3.18-1.99 1.92-7.28 1.95-10.53 1.28-121.18-.27-242.78-.94-363.83-2.85-7.65-6.77-11.91-14.81-13.99-56.02 1.22-119.87-6.12-175.35-1.38-6.61.56-16.62 2.48-20.93 7.86-9.55 11.91 1.08 181.64-2.99 209.11-120.36-124.58-239.98-250.38-360.87-374.3l-1.92-113.25c111.27-111.22 225.79-219.8 335.91-332.07l274.49-7.68c11.04 6.19 23.54 11.05 34.55 17.28.62.35 1.97 2.88 4.33 4.22 28.93 16.36 58.12 32.93 87.81 47.61-3.05 5.27-5.84 14.26-9.48 19.97.75 3.26 35.47 19.62 36.32 23.36.92 4.02-15.29 16.37-7.66 24.84 1.55 1.72 36.95 22.07 39.36 22.22 8.54.55 13.79-12.12 18.24-19.37 5.84 2.19 11.19 4.13 17.28 5.76.13.04.31 1.55 1.92 1.92-.5 27.21-9.77 59.57-11.49 87.37-.21 3.4-.48 6.92.23 10.26 34.06 8.39 68.96 12.99 103.39 19.45 29.32 5.5 58.39 13.55 88.12 17.12l9.78-28.63c-27.55-5.87-55.28-12.19-82.55-19.21-25.34-6.52-50.86-13.67-76-21.05l8.82-67.24c30.46-9.96 50.31-45.57 46.07-76.78l54.43-38.19 108.97 116.63c4.77 2.72 25.75-19.22 18.69-25.38-38.09-42.98-71.5-90.42-109.15-133.67l293.68-5.76c118.88 231.44 478.39 163.44 499.07-101.73 3.42-1.08 6.83-1.82 10.46-1.99 114.35-5.42 229.25-5.3 343.77-7.53 50.76-.99 117.47-17.17 145.18 38.94 15.03 30.43 6.02 90.24 5.35 125.02-4.42 228.6-11.31 456.9-17.28 685.26-.9 34.32.1 68.56-1.84 102.77Z" class="cls-17"/><path d="M2775.6 3153.74c-.82-138.17 1.4-276.46-.95-414.62-9.08-8.97-24.09-12.36-36.51-13.4-47.15-3.94-104.19.21-152.57-.03l-3.9-166.06c-.22-1.61 1.99-4.78 2.94-4.78h595.05c2.1 0 2.75 4.69 2.98 6.62 5.62 47.91-3.1 105.13 3.82 153.58-1.73 138.29 9.45 276.75 9.53 414.71 0 13.88-11.88 19.15-23.93 20.22-46.05 4.07-102.41-.67-149.88-.16-69.25.75-139.85 1.42-209.07 4-12.46.46-25.06-.5-37.51-.08Z" class="cls-16"/><path d="M2197.83 1779.38c-129.2 122.53-111.59 340.53 36.47 439.57v506.75c-71.21.13-143.99-2.01-214.98 0l.46-931.46c1.19-9.28 9.07-13.65 17.73-14.9l160.32.04Zm667.99 537.46c-73.54-.21-147.21-.33-220.74 0v-205.39c39.2-77.71 39.22-177.55 0-255.29l2.92-282.13c3.89-4.29 9.51-7.16 15.27-7.76 57.36 5.16 126.49-6.73 182.44 0 11.97 1.44 19.83 10.08 20.21 22.02l-.1 728.55Z" class="cls-15"/><path d="M2572.13 2725.69c-8.29-.1-16.67.07-24.96 0-3.8-48.67.59-98.17-3.91-146.77 6.23-60.87-9.03-132.69-1.88-192.07 1.85-15.42 18.62-27.18 33.56-27.87l618.23 1.93c20.01 2.2 37.44 11.8 39.36 33.58 3.86 43.9-1.79 90.51-2.09 134.35-1.4 206.09-.76 412.16-1.75 618.25-1.63 22.65-18.4 33.49-39.46 35.4-76.09 6.91-161.29-3.99-237.91 3.95-58.74-1.27-117.16 1.29-175.72 1.85-.06-7.66.11-15.39 0-23.04 11.81-.42 23.77.54 35.59.08 68.56-2.69 138.55-3.26 207.15-4 49.28-.53 105.56 3.91 153.71.15 36.12-2.82 38.29-21.89 37.44-52.93-4.68-170.65-8.99-341.7-13.59-512.35-.61-22.78 1.44-46.71.16-69.26-.32-5.62-1.79-23.35-3.45-27.26-1.39-3.27-8.19-9.69-11.34-11.7-19.36-12.35-75.38-4.3-99.43-4.07-120.5 1.15-240.63 3.57-360.87 5.76-34.63.63-71.55-2.2-105.73-.16-17.07 1.02-44.45 4.36-46.99 25.95-3.07 26.12 1.63 54.61 2.04 80.58.69 43.23.37 86.46 1.84 129.65Zm74.32-314.38c-14 3.08-12.72 24.64 3.34 22.71h472.38c15.69-2.09 12.79-24.8-3.85-23.21l-471.87.5Z" class="cls-16"/><path d="M2558.7 2213.19v103.65c-23.29.6-46.92-1.22-55.54 26.04l1.81 382.83c-53.72.02-107.53-.05-161.25 0v-464.52c74.06 12.46 153.74-3.77 214.98-47.99Z" class="cls-15"/><path d="M2030.38 2751.15c209.34 2.48 420.06-5.92 629.02 1.5 19.55.69 50.11-3.8 66.98 5.97 6.15 3.56 8.37 7.17 9.04 13.99 3.28 33.16-1.81 68.77-2.12 101.77-.58 62.69-1.23 125.7-1.92 188.11-.5 45.46 4.21 100.14.17 144.13-1.79 19.56-21.4 21.45-37.45 23.97-203.66 1.86-406.96 2.21-610.55 3.69-15.61.11-26.09 3.46-43.2-.79-33.12-8.24-21.83-32.1-22.87-59.67-4.66-124.05-9.1-248.1-11.52-372.38-.51-26.29-11.4-43.65 24.42-50.29Zm53.24 39.81h514.43c8.1 0 8.42-12.05-9.52-13.51l-495.4-.02c-9.15-2.97-17.73 11.04-9.51 13.53Zm499.64 29.36c-148.43 1.31-297.44 2.05-445.81 5.27-23.29.51-84.9-5.42-100.73 8.68-10.68 9.52-4.21 17.95-3.98 28.69 1.72 81.87 6.3 163.69 9.7 245.6 1.13 27.39-.33 57.5 1.77 84.61 1.82 23.58 13.19 28.09 35.5 29.76 65.67 4.93 139.31-1.79 205.38-2.09 117.05-.53 234.54 2.01 351.28-1.91 19.63-.66 52.17 4.34 68.09-6.78 14.02-9.78 6.15-22.74 5.82-36.25-1.14-46.26-3.92-92.14-5.76-138.2-2.7-67.57-3.5-135.3-8.46-202.69-.66-1.78-1.68-3.33-2.93-4.75-14.02-16.01-87.28-10.14-109.85-9.94Z" class="cls-16"/><path d="M1963.65 2804.39c.97 52.18 1.32 104.92 1.92 157.4h-357.03c0-.95-1.81-3.94-1.92-6.63-.98-25.67-2.26-40.84-28.74-51.97-46.68-1.77-93.49-.76-140.18-.91-.14-32.6.19-65.3 0-97.89h525.94Z" class="cls-6"/><path d="M2343.71 2261.17v464.52c-36.44.03-72.97-.07-109.41 0v-506.75c30.17 20.18 73.7 36.22 109.41 42.23Z" class="cls-17"/><path d="M1687.24 2735.29c6.36 1.03 7.24 6.1 12 8.15 57.31-1.89 126.44 7.49 182.83 1.45 11.06-1.18 15.6-8.56 22.07-9.6 19.55-3.15 42.4 2.27 61.42 1.92-3.11 21.54-2.33 45.19-1.92 67.18H1437.7c-.12-20.29-.31-41.12 0-61.42l160.32.04c5.97 1.09 12.49-6.89 16.27-7.72 7.34-1.61 64.56-1.35 72.94 0Z" class="cls-2"/><path d="M2775.6 3165.26c-.05-3.84.02-7.68 0-11.52 12.45-.42 25.05.54 37.51.08 69.21-2.58 139.81-3.25 209.07-4 47.46-.51 103.83 4.23 149.88.16 12.05-1.07 23.94-6.34 23.93-20.22-.08-137.96-11.26-276.42-9.53-414.71-6.92-48.45 1.8-105.67-3.82-153.58-.23-1.93-.88-6.62-2.98-6.62h-595.05c-.96 0-3.16 3.17-2.94 4.78l3.9 166.06c-4.47-.02-8.96.05-13.44 0-1.47-43.19-1.15-86.42-1.84-129.65-.42-25.97-5.11-54.46-2.04-80.58 2.54-21.59 29.93-24.93 46.99-25.95 34.19-2.04 71.11.79 105.73.16 120.23-2.19 240.37-4.61 360.87-5.76 24.04-.23 80.06-8.28 99.43 4.07 3.15 2.01 9.95 8.43 11.34 11.7 1.66 3.91 3.13 21.64 3.45 27.26 1.28 22.55-.77 46.48-.16 69.26 4.61 170.65 8.92 341.7 13.59 512.35.85 31.05-1.32 50.11-37.44 52.93-48.15 3.76-104.43-.68-153.71-.15-68.6.74-138.59 1.31-207.15 4-11.82.46-23.78-.5-35.59-.08Zm405.02-621.92v-37.43c0-6.82-14.01-11.99-20.06-12.57-26.49-2.54-54.41 1.83-80.64 2.1-120.49 1.24-240.64 3.74-360.87 5.76-34.75.58-73.52-2.72-107.55-.06-7.63.6-29.78 3.8-29.78 14.37v27.83h598.89Z" class="cls-7"/><path d="M2645.08 2316.84c-28.72.13-57.68-.75-86.38 0v-103.65c31.53-22.76 68.85-66.99 86.38-101.73v205.39Z" class="cls-17"/><path d="M3151.81 1562.49c4.71 5.43-17.01 31.31-20.12 30.69s-3.35-4.69-1.95-7.66c.52-1.11 13.62-17.46 15.33-19.22 2.01-2.06 3.35-4.49 6.73-3.8Zm35.55-61.43c12.08-2.83-5.87 25.47-8.21 28.28-4.99 5.98-9.52 4.82-7.76-1.96.39-1.49 14.47-25.96 15.97-26.32Zm-89.28 128.6c.07-3.2-.07-6.4 0-9.6 10.14-5.89 9.42 8.51 0 9.6Z" class="cls-14"/><path d="M767.8 1948.3c120.89 123.93 240.5 249.72 360.87 374.3 46.2 47.82 92.12 96.02 138.2 143.96-29.77-3.59-61.28 3.52-88.3 15.36-39.29 17.21-70.89 45.55-86.38 86.38-.61-.13-1.3.11-1.92 0-1.8-.33-3.51-.09-4.68-1.95-150.94-175.49-306.58-346.97-457.92-522.08-9.79-11.33-19.33-27.44-32.63-34.55v-3.84c.23-.06.91-2.98 3.25-3.39 26.39-4.61 40.53-9.57 62.02-25.4 26.14-19.27 47.16-47.86 53.75-80.62 17.71 17.31 36.47 34.11 53.75 51.83Zm-36.47 59.5c-6.67 4.09-9.29 7.97-13.44 13.44-14.3 18.86-11.46 33.77 2.86 51.85l338.76 365.69c8.68 7.53 23.94 8.37 34.75 5.84 5.25-1.23 5.32-3.6 7.53-4.93 7.26-4.36 10.05-6.01 15.36-13.44 11.54-16.17 10.7-31.97-1.13-47.82-59.05-66.89-123.26-131.09-183.14-195.96-52.13-56.47-102.25-117.28-156.44-172.75-13.98-10.25-30.42-10.91-45.11-1.92Z" class="cls-1"/><path d="M656.47 2153.68c36.62 42.87 75.98 86.87 113.25 130.53-3.18 1.99-1.92 7.28-1.95 10.53-1.35 128.57-.11 257.34.12 385.92 0 4.47-2.03 8.33-1.88 13.06 1.3 40.76 48.63 41.74 78.57 45.4 56.32 6.89 135.4 7.06 193.01 3.91 3.63-.2 7.04-.9 10.46-1.99-.13 21.08 0 42.26 0 63.34l-340.69-.02c-23.17-2.56-39.21-17.67-41.37-41.17-6.43-70.14 3.53-148.29-3.84-218.83 1.53-85.22-2.72-170.36-3.84-255.29-.59-45.14 1.83-90.47-1.84-135.4Z" class="cls-17"/><path d="M1059.57 2683.47c7.61-.42 15.41.3 23.03 0 24.24 91.31 124.08 141.23 213.06 115.17 43.66-12.79 75.8-39.39 97.89-78.7 6.23-11.09 13.86-24.15 17.28-36.47 4.07.68 23.73-1 24.86.1 2.93 2.85 2.14 51.17 2.01 59.4-.31 20.3-.12 41.14 0 61.42.19 32.6-.14 65.3 0 97.89-129.84-.42-259.82-.38-389.66 0v-97.89c0-21.08-.13-42.26 0-63.34.07-10.88-2.14-47.29.26-54.44 1.53-4.57 7.6-2.94 11.25-3.15Zm-431.89-639.2c151.33 175.1 306.98 346.59 457.92 522.08 1.17 1.85 2.88 1.62 4.68 1.95-8.12 23.72-14.19 47.53-13.44 72.94-5.78-4.85-12.33-11.63-17.28-17.28-53.12-60.69-104.94-122.97-157.4-184.27-44.25-51.71-88.26-103.72-132.45-155.48-37.27-43.66-76.63-87.66-113.25-130.53-8.06-9.43-53.84-62.39-55.26-68.54-4.51-19.48 10.16-33.8 26.47-40.87Z" class="cls-11"/><path d="M1124.83 3059.69c32.91 2.18 65.98 2.25 98.93 3.76 128.99 5.9 258.4 12.72 387.58 19.35 11.56.59 34.43-2.4 43.87 2.26 3.23 1.59 2.55 6.37 7.07 5.33v59.5c-179.12-.58-358.35.42-537.47 0-.03-12.77.08-25.63 0-38.4-.09-17.25.06-34.58 0-51.83Z" class="cls-3"/><path d="M929.04 3055.85c.06-14.69-.05-29.46 0-44.15h67.18c.04 18.52-.05 37.14 0 55.67.02 8.3-.02 16.66 0 24.95l-67.18-15.36c.04-7.02-.03-14.09 0-21.11Zm168.92 49.91c.32-31.31-.24-62.74 0-94.06h26.87c.04 15.97-.06 32.02 0 47.99.06 17.25-.09 34.58 0 51.83-9.8 1.61-17.81-3.84-26.87-5.76Zm-38.39-1.92c.97-30.62-.72-61.5 0-92.14h26.87c.11 31.96-.15 64.02 0 95.98l-26.87-3.84Zm-38.39-36.47c.05-18.52-.04-37.14 0-55.67h26.87c.07 28.76-.09 57.62 0 86.38l-26.87-5.76c.05-8.3-.02-16.66 0-24.95Z" class="cls-6"/><path d="M1021.18 3067.37c-.02 8.3.05 16.66 0 24.95-.11 19.13 1 38.6-1.11 57.62l-23.86-.02c-.02-19.17.06-38.43 0-57.6-.02-8.3.02-16.66 0-24.95h24.95Z" class="cls-18"/><path d="M1162.82 605.21c176.17-16.94 300.36 164.25 212.54 320.04-81.61 144.77-293.86 143.36-374.38-1.93-72.64-131.05 11.4-303.64 161.84-318.11Zm96.37 98.29v184.27c0 6.63 43.97 6.25 48.01 3.86 1.5-.89 2.28-3.11 2.95-4.72l.95-175.82c-.09-5.12-.98-11.33-6.81-12.39-5.27-.96-33.13-.95-38.34.05-2.25.43-6.24 2.85-6.77 4.75ZM1240 887.77V734.21c0-.2-2.68-2.88-2.88-2.88h-44.15c-3.09 0-4.63 9.59-4.89 12.39-3.18 34.61-2.66 99.52.02 134.52.72 9.4.4 13.4 10.61 14.33 6.34.58 33.26.96 37.42-.99.88-.41 3.69-3.17 3.87-3.81Zm-119.01 6.72h45.11c.34 0 4.8-4.46 4.8-4.8V776.44c0-1.44-4.66-4.35-6.77-4.75-4.88-.93-37.8-.65-41.19.94-.91.42-3.87 3.48-3.87 3.81v113.25c0 .63 2.54 2.91 1.92 4.8Zm-71.02-81.58v78.7c0 .2 2.68 2.88 2.88 2.88H1097c.2 0 2.88-2.68 2.88-2.88v-78.7c0-6.5-47.58-7.65-49.91 0Z" class="cls-16"/><path d="M1228.49 579.7c.2.21.19 5.53 0 5.74-1.17 1.21-28.38-3.65-33.51-3.91-73.93-3.67-148.56 30.48-193.76 88.57-9.42 12.1-15.7 24.85-23.67 37.71-4.63 7.48-7.93 2.71-4.14-6.02 30.15-69.66 120.56-121.61 194.54-126.02 7.42-.44 57.86 1.07 60.55 3.93ZM950.17 767.81c3.43-.56 5.47 1.5 5.79 4.79.3 2.99-4.1 31.58-6.77 31.63-6.77.15.75-32.57.97-36.43Z" class="cls-16"/><path d="M644.95 1950.22c-99.16 78.52-230.2-61-140.12-155.48 41.67-43.71 116.02-40.1 154.54 5.73 37.02 44.05 30.93 113.83-14.42 149.74Z" class="cls-14"/><path d="M767.8 1948.3c-17.28-17.72-36.03-34.51-53.75-51.83.57-2.82 1.66-10.5 1.92-13.44 16.63-15.9 33.65-31.73 49.91-47.99l1.92 113.25Z" class="cls-2"/><path d="M890.65 1453.06c-67.77 59.53-135.53 119.18-203.47 178.51-.18-69.62-24.28-163.18 72.21-174.44l131.25-4.07Z" class="cls-17"/><path d="M679.5 1637.34c-6.62 5.74-16.92 18.6-23.9 23.12-2.36 1.53-3.82 2.37-6.8 1.82-.21-38.71.21-77.47.07-116.2-.02-4.98-2.07-9.75-2.11-15.21-.48-64.88 43.77-104.6 106.57-108.6 43.29-2.76 90.74-.69 134.52-1.76 12.87-.31 27.74-4.62 41.18-1.05-9.6 10.64-22 18.49-32.62 27.84l-129.54 1.94c-51.89 4.36-89.5 34.34-89.46 89.23 0 5.45 2.18 10.26 2.18 15.28 0 27.86-.16 55.74-.08 83.58Z" class="cls-17"/><path d="m1017.34 1412.75-353.19 324.4c-6.36-13.97-4.56-24.31 4.76-36.51 95-85.47 186.18-175.84 281.25-261.01 7.65-6.85 28.86-26.74 36.49-29.73 11.37-4.45 20.33-3.49 30.69 2.86Z" class="cls-8"/><path d="M946.32 1537.52c-75.23 69.87-155.1 137.39-229.43 209.18-13.84 10.58-24.12 11.79-39.3 3.88l351.27-324.4c12.87 26.86-9.3 41.71-26.85 58.57-18.13 17.41-37.81 36.15-55.69 52.76Z" class="cls-18"/><path d="m1028.85 1426.19-351.27 324.4c-8.03-4.18-9.57-4.95-13.44-13.44l353.19-324.4c6.31 3.86 8.52 7.18 11.52 13.44Z" class="cls-14"/><path d="M896.41 1447.31c-1.69 1.49-3.41 3.69-5.76 5.76l-131.25 4.07c-96.5 11.26-72.39 104.82-72.21 174.44-2.56 2.24-5.45 3.83-7.68 5.76-.08-27.83.07-55.72.08-83.58 0-5.02-2.17-9.83-2.18-15.28-.04-54.89 37.57-84.87 89.46-89.23l129.54-1.94Z" class="cls-15"/><path d="M2274.23 1144.6c163.54-13.5 282.26 150.57 217.62 302.08-69.42 162.71-298.47 174.62-386.48 21.11-78.15-136.31 12.92-310.32 168.86-323.19Zm1.8 84.34c-71.41 11.06-47.76 129.11 20.44 122.17 67.66-6.89 78.88-137.55-20.44-122.17Zm-5.64 142.16c-12.04.98-24.32 3.56-36.11 6.12-28.61 6.23-61.52 12.52-57.06 49.44 2.64 21.87 11.89 47.31 36.85 49.51 48.93 4.32 104.07-3.42 153.69-.03 13.54-2.7 20.99-9.23 26.42-21.57 17.67-40.17 15.22-62.55-29.35-75.41-29.9-8.63-63.41-10.6-94.44-8.07Z" class="cls-16"/><path d="M2025.08 1389.72c3.17 25.35 15.2 65.57 26.87 88.3l-293.68 5.76c-2.25-2.59-9.95-11.47-12.14-11.26-6.55 4.66-13.95 8.61-20.49 13.17l-74.86 1.92c-10.01-1.12-29.55-21.94-38.43-16.35-2.43 1.53-6.74 13.55-7.87 14.2-4.39 2.56-30.92-18.36-37.52-20.69-4.32-.4-5.18 6.27-7.46 9.38-1.44 1.96-4.31 3.27-4.69 3.86-29.61-19.82-60.42-38.08-90.22-57.59-7.16-4.68-13.96-10.66-21.11-15.36 5.11-.04 10.25.06 15.36 0 4.21-.05 10.82 1.42 13.44-1.92 147.01-1.58 293.71-7.48 440.45-11.6 37.41-1.05 74.98-.65 112.37-1.84Z" class="cls-17"/><path d="M2332.21 1119.08v5.74l-45.03-3.9c-69.91 2.62-132.24 30.49-177.69 83.52-11.67 13.62-18.42 28.82-28.41 42.61-1.72 2.38-2 5.34-6.08 4.46-3.7-4.25 14.28-30.38 17.62-35.15 53.27-76.03 147.96-113.53 239.6-97.28Zm-581.62-3.85c-2.93-.49-6.76-1.2-9.6-1.92-.36-.8-1.08-1.7-1.92-1.92-44.77-11.79-90.78-42.01-117.09-80.62-117.82-172.89 64.59-394.41 256.59-309.37 217.64 96.39 126.62 436.2-127.98 393.83Zm45.54-174.16c2.54 4.02 1.43 15.78 8.11 19.73l75.43 66.6c19.33 7.2 41.08-14.08 29.19-33.01-2.69-4.28-11.98-12.34-16.2-16.43-23.23-22.51-47.64-42.56-73.94-60.42-1.9-1.29-18.72-16.17-19.25-17.35-1.87-4.14 4.44-14.76 5.91-20.98 14.01-59.62-36.95-110.58-96.58-94.67-53.7 14.33-75.03 80.71-40.69 124.3 26.49 33.63 73.17 35.71 108.13 14.73 3.02 4.67 18.11 14.66 19.91 17.51Z" class="cls-16"/><path d="M1831.22 679.51v5.74c-1.54 1.6-37.2-3.99-43.2-3.99-75.17 0-143.85 39.76-186.02 100.15-5.55 7.95-9.16 22.08-18.4 24.77-4.13-4.44 24.93-44.34 29.72-49.92 53.45-62.36 136.98-90.56 217.9-76.75Zm-266.83 216.91h-5.74c.03-5.41 1.42-34.29 6.71-34.53 3.26-.15 2.47 5.91 2.36 8.04-.41 8.44-3.48 17.87-3.33 26.49Z" class="cls-16"/><path d="M1282.23 1443.47c.63.06 1.28-.05 1.92 0 32.2 14.36 61.51 34.66 92.14 51.83l-274.49 7.68c5.23-5.33 29.55-29.18 31.17-33.12 4.15-10.09.72-14.67-4.3-22.55 29.7-2.3 59.45-1.19 89.34-1.84 20.98-.45 42.96-4.09 64.22-2Zm-11.52-7.68c-10-1.35-18.86 1.86-27.75 2-40.17.64-79.93 1.28-120.05 1.84-2.05-2.73-7.97-2.74-4.87-9.57 1.15-2.54 16.51-13.46 20.22-17.3 28.1 3.14 61.79-6.07 89.14-1.8 6.15.96 19.23 9.45 25.4 12.99s13.46 6.89 17.9 11.85Z" class="cls-17"/><path d="M1270.71 1435.79c4.85.66 7.94 2.61 11.52 5.76v1.92c-21.26-2.1-43.24 1.54-64.22 2-29.89.65-59.64-.46-89.34 1.84-1.42-2.23-4-5.32-5.76-7.68 40.12-.56 79.88-1.2 120.05-1.84 8.89-.14 17.76-3.35 27.75-2Z" class="cls-15"/><path d="M1472.26 1403.16c-2.62 3.34-9.23 1.87-13.44 1.92 2.61-3.34 9.23-1.87 13.44-1.92Z" class="cls-4"/><path d="M1554.8 1478.02c-16.48 25.4-36.47 59.81-51.83 86.38-29.69-14.68-58.87-31.25-87.81-47.61-2.36-1.33-3.71-3.87-4.33-4.22l53.75-92.14c29.8 19.5 60.6 37.76 90.22 57.59Z" class="cls-6"/><path d="M1284.15 1443.47c-.64-.05-1.29.06-1.92 0v-1.92c.68.6 1.31 1.25 1.92 1.92Z" class="cls-1"/><path d="M1740.99 1113.31c-.83-.21-1.55-1.14-1.92-1.92.84.22 1.56 1.12 1.92 1.92Z" class="cls-13"/><path d="M1147.86 1213.13c98.11-6.98 119.49 129.16 36.47 159.32-41.54 15.09-91.92-8.64-106.49-49.95-17.75-50.33 16.1-105.54 70.02-109.37Zm1541.36 105.57c-52.81-64.24 19.8-155 93.42-111.66 37.95 22.34 46.19 73.05 19.83 107.8l11.52.02c-40.88 1.03-83.18 3.6-124.77 3.84Zm266.82-5.76 1.92-1.92c-.43 0-1.43 1.91-1.92 1.92Z" class="cls-14"/><path d="M1614.3 2735.29c-3.79.83-10.31 8.81-16.27 7.72l-160.32-.04c.13-8.23.91-56.55-2.01-59.4-1.13-1.1-20.79.58-24.86-.1 9.88-35.67 7.03-81.16-7.68-115.17l.86-646.97c2.59-8.28 13.5-10.82 21.14-11.5 55.04-4.85 117.08 3.82 172.88.03 10.22 1.23 20.75 9.09 20.2 20.11v792.94l-3.93 12.38Zm289.85 0c-6.47 1.04-11.01 8.42-22.07 9.6-56.39 6.04-125.52-3.35-182.83-1.45-4.76-2.05-5.64-7.12-12-8.15l-2.01-14.31.5-656.15c3.16-8.52 10.61-14.37 19.75-14.8 56.92 3.2 118.39-4.26 174.75-.08 12.49.93 24.46 5.31 27.85 18.22V2721l-3.94 14.3Z" class="cls-15"/><path d="M2558.7 1754.43c31.53 22.76 68.85 66.99 86.38 101.73 39.22 77.75 39.2 177.58 0 255.29-17.53 34.74-54.84 78.97-86.38 101.73-61.25 44.21-140.93 60.45-214.98 47.99-35.71-6.01-79.25-22.05-109.41-42.23-148.06-99.03-165.67-317.04-36.47-439.57 39.91-37.85 91.47-64.07 145.88-72.94 74.46-12.14 153.37 3.51 214.98 47.99Zm-117.1-15.37c7.36-6.25-25.22-9.5-27.74-9.67-82.73-5.34-159.92 25.1-214.16 87.37-5.15 5.91-39.39 51.96-34.49 56.67 1.78 1.71 4.48.27 6.24-2.43 6.13-9.35 10.65-19.59 17.14-28.88 48.83-69.87 131.4-111.49 217.49-106.87 5.46.29 33.44 5.57 35.52 3.81Zm-50.3 19.78c-185.18 4.79-289.52 221.95-176.98 369.72 111.29 146.15 341.42 110.48 402-62.19 53.82-153.42-63.82-311.71-225.02-307.54Zm-243.39 177.93c-.51-.5-4.71-.5-5.92 1.13-1.58 2.15-4.95 34.13-3.66 35.36 1.58-.26 5.16.42 5.71-.02 1.42-1.15 5.19-35.19 3.87-36.47Z" class="cls-3"/><path d="M1341.73 2495.35c-18.87-12.62-52.43-26.09-74.86-28.79-46.08-47.94-92-96.14-138.2-143.96 4.07-27.47-6.56-197.2 2.99-209.11 4.32-5.38 14.32-7.29 20.93-7.86 55.48-4.74 119.32 2.6 175.35 1.38 8.04 2.08 11.95 6.33 14.81 13.99.67 121.05 2.21 242.65.94 363.83-.03 3.25 1.23 8.54-1.95 10.53Zm1216.97-740.92c-61.61-44.48-140.53-60.12-214.98-47.99 2.54-19.15-3.6-47.91.41-65.82 1.52-6.81 8.89-11.41 14.89-13.9l182.92-.45c5.85.73 15.61 8.14 16.73 13.98l.04 114.17Z" class="cls-15"/><path d="M1554.8 1478.02c.38-.59 3.25-1.89 4.69-3.86 2.29-3.11 3.15-9.78 7.46-9.38 6.6 2.32 33.13 23.25 37.52 20.69 1.13-.66 5.44-12.68 7.87-14.2 8.88-5.58 28.42 15.23 38.43 16.35l9.18 10.86c-2.42 4.51-5.17 14.23-7.26 17.94-21.43 37.97-49.51 80.85-72.94 119.01-4.45 7.25-9.7 19.93-18.24 19.37-2.41-.16-37.81-20.51-39.36-22.22-7.63-8.47 8.57-20.82 7.66-24.84-.85-3.74-35.58-20.1-36.32-23.36 3.65-5.71 6.44-14.7 9.48-19.97 15.36-26.57 35.34-60.98 51.83-86.38Z" class="cls-3"/><path d="M1266.87 2466.56c22.43 2.7 55.99 16.17 74.86 28.79 23.97 16.03 49.93 46.37 61.42 72.94 14.71 34.01 17.56 79.5 7.68 115.17-3.41 12.32-11.04 25.38-17.28 36.47-6.38 1.19-2.84-5.31-4.82-9.56-2.68-5.76-16.4-17.16-22.05-21.15 43.74-102.32-55.49-211.2-161.24-176.59l-3.76-8.71-23.11-22c27.01-11.84 58.53-18.94 88.3-15.36Z" class="cls-18"/><path d="M1758.27 1483.78c37.65 43.25 71.06 90.69 109.15 133.67 7.06 6.16-13.92 28.1-18.69 25.38l-108.97-116.63-54.43 38.19c-1.12-8.22-6.68-15.3-9.6-21.11-2.33-4.64-4.13-11.35-7.68-15.36 20.46-12.18 38.18-28.7 57.59-42.23 6.54-4.56 13.94-8.51 20.49-13.17 2.19-.21 9.89 8.67 12.14 11.26Zm-119.01 157.4-8.82 67.24c25.14 7.39 50.66 14.53 76 21.05-1.73 10.79-9.19 21.78-15.36 30.71-34.44-6.46-69.34-11.07-103.39-19.45-.71-3.34-.44-6.86-.23-10.26 1.71-27.81 10.98-60.17 11.49-87.37 1.93.44 13.38 1.9 15.36 1.92 6.28.07 19.08-1.92 24.95-3.84Z" class="cls-3"/><path d="M1668.05 1527.92c3.55 4.01 5.35 10.71 7.68 15.36-3.84 1.7-5.58 5.34-7.73 8.6-14.64 22.29-29.3 47.22-42.98 70.26-4.21 7.09-10.18 14.54-10.72 22.87-1.98-.02-13.43-1.48-15.36-1.92.03-1.41-.68-1.67-1.92-1.92-6.08-1.63-11.44-3.56-17.28-5.76 23.43-38.16 51.51-81.04 72.94-119.01 4.1 3.94 11.87 7.58 15.36 11.52Z" class="cls-4"/><path d="M1685.32 1564.4c4.24 31.21-15.61 66.82-46.07 76.78-5.88 1.92-18.67 3.91-24.95 3.84.53-8.33 6.51-15.78 10.72-22.87 13.68-23.04 28.34-47.97 42.98-70.26 2.14-3.26 3.89-6.9 7.73-8.6 2.91 5.81 8.48 12.89 9.6 21.11Z" class="cls-6"/><path d="M1706.44 1729.47c27.27 7.02 54.99 13.33 82.55 19.21l-9.78 28.63c-29.73-3.57-58.8-11.62-88.12-17.12 6.16-8.93 13.62-19.92 15.36-30.71Z" class="cls-3"/><path d="M1598.95 1643.09c-1.61-.37-1.79-1.88-1.92-1.92 1.24.25 1.95.51 1.92 1.92Z" class="cls-1"/><path d="m2646.45 2411.31 471.87-.5c16.64-1.58 19.53 21.12 3.85 23.22h-472.38c-16.05 1.93-17.34-19.63-3.34-22.72Zm-63.19 409.01c22.58-.2 95.83-6.06 109.85 9.94 1.25 1.42 2.27 2.96 2.93 4.75 4.96 67.39 5.76 135.12 8.46 202.69 1.84 46.07 4.62 91.95 5.76 138.2.33 13.51 8.2 26.47-5.82 36.25-15.92 11.11-48.45 6.12-68.09 6.78-116.74 3.92-234.23 1.37-351.28 1.91-66.07.3-139.71 7.03-205.38 2.09-22.31-1.68-33.67-6.19-35.5-29.76-2.1-27.11-.64-57.22-1.77-84.61-3.39-81.91-7.97-163.72-9.7-245.6-.23-10.74-6.7-19.18 3.98-28.69 15.83-14.1 77.45-8.17 100.73-8.68 148.37-3.22 297.38-3.96 445.81-5.27Zm96.37 35.9c.15-14.87 3.23-23.45-14.3-25.05-67.81-6.17-151.72 1.63-220.76 2.09-124.84.83-249.62.93-374.45 1.77-14.28 1.41-25.2 3.95-22.01 21.18h631.52Zm-629.6 9.6c.71 27.86.79 55.71 1.84 83.58 1.99 52.95 5.69 106.2 7.84 159.16 1.09 26.93-1.51 64.31 2.36 89.78.37 2.44 1.23 7.29 2.44 9.08 4.99 7.38 40.34 6.08 49.92 5.93 121.79-2 244.66-3.02 366.45-4.01 61.45-.5 136.53 5.68 195.95.16 16.55-1.54 19.08-4.11 18.23-20.32-3.41-65.07-6.88-130.28-9.75-195.62-1.68-38.28.7-83.92-3.66-121.11-.23-1.93-.88-6.62-2.98-6.62h-628.64Zm33.59-74.86c-8.22-2.48.35-16.5 9.51-13.53l495.4.02c17.94 1.46 17.62 13.51 9.52 13.51h-514.43Z" class="cls-7"/><path d="M3180.62 2543.34h-598.89v-27.83c0-10.57 22.14-13.78 29.78-14.37 34.03-2.66 72.8.64 107.55.06 120.22-2.02 240.38-4.52 360.87-5.76 26.23-.27 54.15-4.64 80.64-2.1 6.05.58 20.06 5.75 20.06 12.57v37.43Z" class="cls-16"/><path d="M1101.79 2439.69c-2.21 1.33-2.28 3.7-7.53 4.93-10.81 2.53-26.07 1.69-34.75-5.84l-338.76-365.69c-14.32-18.08-17.15-32.99-2.86-51.85l383.9 418.45Z" class="cls-18"/><path d="M1124.83 2589.41c-35.54 97.03 48.43 194.8 149.72 174.67 2.32 14.36 22.69 18.66 21.11 34.55-88.98 26.06-188.82-23.86-213.06-115.17-2.92-10.99-5.42-30.76-5.76-42.23-.75-25.42 5.32-49.22 13.44-72.94.62.11 1.31-.13 1.92 0 2.79.61 5.71-.74 9.52 1 8.31 3.79 12.33 20.65 23.11 20.12Z" class="cls-13"/><path d="M913.68 2205.51c67.77 73.6 135.08 147.71 203.47 220.74-5.3 7.43-8.1 9.08-15.36 13.44l-383.9-418.45c4.14-5.46 6.77-9.35 13.44-13.44 60.65 66 121.64 131.77 182.35 197.71Z" class="cls-14"/><path d="M1117.15 2426.25c-68.39-73.03-135.7-147.14-203.47-220.74-3.58-18.38-1.98-10.89 10.95-16.88 3.14-1.46 5.21-4.55 8.25-6.15 59.88 64.87 124.09 129.06 183.14 195.96 11.82 15.84 12.67 31.65 1.13 47.82Z" class="cls-18"/><path d="M932.88 2182.48c-3.04 1.6-5.1 4.69-8.25 6.15-12.93 6-14.53-1.49-10.95 16.88-60.71-65.94-121.7-131.71-182.35-197.71 14.68-8.99 31.13-8.32 45.11 1.92 54.19 55.47 104.31 116.28 156.44 172.75Zm245.7 299.44 23.11 22 3.76 8.71c-32.68 10.7-68.73 44.32-80.62 76.78-10.78.53-14.8-16.33-23.11-20.12-3.81-1.74-6.74-.39-9.52-1 15.48-40.82 47.09-69.16 86.38-86.38Z" class="cls-8"/><path d="M902.17 2439.69c52.46 61.3 104.28 123.58 157.4 184.27v59.5c-3.66.2-9.72-1.42-11.25 3.15-2.4 7.15-.19 43.55-.26 54.44-3.42 1.1-6.83 1.79-10.46 1.99-57.61 3.15-136.68 2.98-193.01-3.91l-3.97-10.44.06-281.95c18.13-11.76 41.16-5.55 61.49-7.06Z" class="cls-15"/><path d="M902.17 2439.69c-20.33 1.51-43.36-4.71-61.49 7.06l-.06 281.95 3.97 10.44c-29.94-3.66-77.27-4.65-78.57-45.4-.15-4.74 1.89-8.59 1.88-13.06-.23-128.59-1.47-257.36-.12-385.92.03-3.25-1.23-8.54 1.95-10.53 44.19 51.76 88.2 103.77 132.45 155.48Z" class="cls-17"/><path d="M1366.69 2689.22c5.65 3.99 19.37 15.39 22.05 21.15 1.98 4.25-1.56 10.75 4.82 9.56-22.1 39.31-54.24 65.91-97.89 78.7 1.58-15.89-18.8-20.19-21.11-34.55 35.83-7.12 77.78-41.28 92.14-74.86Z" class="cls-8"/><path d="M1076.84 2641.24c.34 11.47 2.84 31.24 5.76 42.23-7.63.3-15.42-.42-23.03 0v-59.5c4.94 5.65 11.5 12.43 17.28 17.28Z" class="cls-10"/><path d="M1259.19 703.5c.53-1.9 4.52-4.32 6.77-4.75 5.21-1 33.07-1.01 38.34-.05 5.82 1.06 6.72 7.27 6.81 12.39l-.95 175.82c-.68 1.61-1.45 3.84-2.95 4.72-4.04 2.39-48.01 2.77-48.01-3.86V703.5ZM1240 887.77c-.18.64-2.98 3.4-3.87 3.81-4.17 1.95-31.09 1.57-37.42.99-10.2-.93-9.89-4.93-10.61-14.33-2.68-35-3.2-99.91-.02-134.52.26-2.79 1.8-12.39 4.89-12.39h44.15c.2 0 2.88 2.68 2.88 2.88v153.56Zm-119.01 6.72c.62-1.88-1.92-4.16-1.92-4.8V776.44c0-.33 2.96-3.39 3.87-3.81 3.39-1.59 36.31-1.87 41.19-.94 2.11.4 6.77 3.31 6.77 4.75v113.25c0 .34-4.46 4.8-4.8 4.8h-45.11Zm-71.02-81.58c2.33-7.65 49.91-6.5 49.91 0v78.7c0 .2-2.68 2.88-2.88 2.88h-44.15c-.2 0-2.88-2.68-2.88-2.88v-78.7Zm1220.42 558.19c31.03-2.54 64.53-.56 94.44 8.07 44.57 12.86 47.02 35.23 29.35 75.41-5.43 12.34-12.88 18.87-26.42 21.57-49.61-3.39-104.76 4.35-153.69.03-24.96-2.2-34.21-27.64-36.85-49.51-4.46-36.93 28.45-43.21 57.06-49.44 11.79-2.57 24.07-5.14 36.11-6.12Zm5.64-142.16c99.32-15.38 88.1 115.29 20.44 122.17-68.2 6.94-91.85-111.12-20.44-122.17Z" class="cls-3"/><path d="M1725.63 1485.7c-19.4 13.53-37.13 30.05-57.59 42.23-3.49-3.94-11.25-7.57-15.36-11.52 2.09-3.71 4.84-13.43 7.26-17.94l-9.18-10.86 74.86-1.92Z" class="cls-10"/><path d="M1796.13 941.07c-1.8-2.85-16.89-12.84-19.91-17.51-34.96 20.98-81.63 18.9-108.13-14.73-34.34-43.59-13.01-109.97 40.69-124.3 59.64-15.92 110.6 35.04 96.58 94.67-1.46 6.22-7.78 16.84-5.91 20.98.53 1.18 17.36 16.06 19.25 17.35 26.3 17.86 50.72 37.91 73.94 60.42 4.22 4.09 13.51 12.15 16.2 16.43 11.89 18.93-9.85 40.21-29.19 33.01l-75.43-66.6c-6.68-3.95-5.57-15.7-8.11-19.73Zm-70.92-138.17c-77.63 8.74-67.92 129.71 18.5 118.29 69.8-9.22 59.8-127.11-18.5-118.29Z" class="cls-3"/><path d="M2391.3 1758.84c161.19-4.17 278.84 154.12 225.02 307.54-60.58 172.67-290.71 208.33-402 62.19-112.54-147.78-8.2-364.93 176.98-369.72Zm-120.53 210.57c-.08 17.88-.09 35.86 0 53.75.14 26.16-3.28 64.72.17 89.09 2.25 15.92 16.32 24.81 31.43 26.16 57.43 5.14 122.35-4.06 180.58 0 10.56-.14 20.04-6.41 24.27-16.04 7.42-16.87 3.36-83.94 3.48-106.89.1-17.24.09-34.59 0-51.83-.14-25.11.44-50.31-.39-75.43l-41.87-44.51-168-1.07c-13.23 1.19-25.3 7.26-29.24 20.67-.93 35.34-.28 70.76-.44 106.09Z" class="cls-16"/><path d="M2441.6 1739.06c-2.08 1.76-30.06-3.52-35.52-3.81-86.09-4.62-168.66 36.99-217.49 106.87-6.49 9.29-11.01 19.53-17.14 28.88-1.77 2.69-4.47 4.13-6.24 2.43-4.9-4.71 29.34-50.76 34.49-56.67 54.24-62.27 131.43-92.7 214.16-87.37 2.52.16 35.1 3.42 27.74 9.67Zm-293.69 197.71c1.31 1.28-2.45 35.31-3.87 36.47-.54.44-4.13-.24-5.71.02-1.29-1.23 2.08-33.21 3.66-35.36 1.2-1.64 5.41-1.63 5.92-1.13Z" class="cls-16"/><path d="M1366.69 2689.22c-14.36 33.58-56.31 67.74-92.14 74.86-101.29 20.13-185.27-77.64-149.72-174.67 11.89-32.46 47.94-66.08 80.62-76.78 105.75-34.6 204.98 74.28 161.24 176.59Z" class="cls-14"/><path d="M2050.03 2865.82h628.64c2.1 0 2.75 4.69 2.98 6.62 4.36 37.18 1.98 82.83 3.66 121.11 2.87 65.35 6.34 130.55 9.75 195.62.85 16.21-1.68 18.78-18.23 20.32-59.41 5.53-134.5-.66-195.95-.16-121.8.99-244.67 2-366.45 4.01-9.59.16-44.93 1.45-49.92-5.93-1.21-1.79-2.07-6.64-2.44-9.08-3.87-25.47-1.27-62.84-2.36-89.78-2.14-52.96-5.84-106.21-7.84-159.16-1.05-27.87-1.13-55.71-1.84-83.58Zm629.6-9.6h-631.52c-3.19-17.23 7.73-19.77 22.01-21.18 124.83-.85 249.61-.95 374.45-1.77 69.04-.46 152.95-8.26 220.76-2.09 17.54 1.6 14.45 10.18 14.3 25.05ZM1725.21 802.9c78.3-8.82 88.3 109.07 18.5 118.29-86.41 11.42-96.12-109.55-18.5-118.29Zm-19.01 85.57c3.74-5.84-13.65-23.67-4.58-43.92 1.75-3.9 14.72-19 .1-17.32-18.22 2.09-19.23 42.45-8.72 56.7 2.65 3.6 9.93 9.67 13.21 4.54Z" class="cls-16"/><path d="m2510.71 1963.65-239.94 5.76c.16-35.33-.49-70.75.44-106.09 3.93-13.41 16.01-19.49 29.24-20.67l168 1.07 41.87 44.51c.83 25.12.26 50.31.39 75.43Zm-202.11-43.74c-14.93 4.48-11.92 33.6 8.31 29.57 20.47-4.07 12.65-35.86-8.31-29.57Zm37.52 29.8c2.38 2.25 6.83 2.23 9.99 2.5 37.97 3.25 80.56-2.54 119.04-.13 12.28-2.3 13.83-26.73-3.75-28.78-36.04-4.21-80.09 3.11-117.01.15-12.19.97-16.14 18.83-8.26 26.26Zm164.59 65.77c-.13 22.95 3.94 90.01-3.48 106.89-4.23 9.62-13.71 15.89-24.27 16.04-58.24-4.06-123.16 5.14-180.58 0-15.11-1.35-29.17-10.24-31.43-26.16-3.45-24.37-.03-62.93-.17-89.09 9.84-4.33 20.95-4.89 31.69-3.84 3.4.33 9.78.5 8.62 5.76-17.4 3.7-15.13 30.81 2.88 30.82 18.14.01 19.15-26.49 4.8-30.82l6.62-5.86c61.77-1.51 123.69-1.02 185.33-3.74Zm-157.95 11.93c-15.6 4.57-14.57 27.66 1.62 30.19 36.97-2.94 80.91 4.32 117.02.16 18.87-2.17 16.11-28.36 1.76-30.64l-120.4.29Z" class="cls-3"/><path d="M2510.71 1963.65c.09 17.24.1 34.59 0 51.83-61.64 2.72-123.55 2.23-185.33 3.74l-6.62 5.86c-1.03-.31-6.43-.27-7.68 0 1.16-5.26-5.22-5.43-8.62-5.76-10.74-1.05-21.85-.49-31.69 3.84-.09-17.88-.08-35.86 0-53.75l239.94-5.76Zm-202.09 10c-12.52 2.84-12.66 25.11 0 27.98 27.16 6.15 27.15-34.13 0-27.98Zm42.21 5.75c-13.13 7.03-12.51 22.94 1.57 28.35l120.99.14c14.37-.64 14.57-26.45 1.77-28.84l-124.32.35ZM1706.2 888.47c-3.28 5.12-10.56-.95-13.21-4.54-10.5-14.25-9.49-54.61 8.72-56.7 14.62-1.68 1.64 13.42-.1 17.32-9.06 20.24 8.32 38.08 4.58 43.92Z" class="cls-3"/><path d="M2346.12 1949.71c-7.88-7.43-3.93-25.29 8.26-26.26 36.92 2.96 80.97-4.36 117.01-.15 17.58 2.05 16.04 26.48 3.75 28.78-38.49-2.41-81.07 3.38-119.04.13-3.16-.27-7.6-.25-9.99-2.5Zm-37.52-29.8c20.96-6.28 28.78 25.5 8.31 29.57-20.23 4.02-23.24-25.09-8.31-29.57Zm44.16 107.5 120.4-.29c14.35 2.28 17.11 28.46-1.76 30.64-36.11 4.16-80.05-3.09-117.02-.16-16.2-2.53-17.22-25.62-1.62-30.19Zm-34-2.33c14.36 4.32 13.35 30.83-4.8 30.82-18.01-.01-20.28-27.11-2.88-30.82 1.25-.27 6.65-.31 7.68 0Zm32.07-45.68 124.32-.35c12.79 2.4 12.6 28.2-1.77 28.84l-120.99-.14c-14.07-5.42-14.7-21.32-1.57-28.35Zm-42.21-5.75c27.15-6.15 27.16 34.13 0 27.98-12.66-2.87-12.52-25.14 0-27.98Z" class="cls-16"/></svg>